<?xml version="1.0" encoding="utf-8" ?>
<svg baseProfile="full" height="300mm" version="1.1" viewBox="0,0,200,300" width="200mm" xmlns="http://www.w3.org/2000/svg" xmlns:ev="http://www.w3.org/2001/xml-events" xmlns:xlink="http://www.w3.org/1999/xlink"><defs /><rect fill="#222222" height="300" width="200" x="0" y="0" /><text fill="#FFFFFF" style="font-size:12px; font-family:Arial; font-weight:bold;" x="10" y="20">Over 10km Runs</text><text fill="#FFFFFF" style="font-size:4px; font-family:Arial" x="10" y="280">ATHLETE</text><text fill="#FFFFFF" style="font-size:9px; font-family:Arial" x="10" y="290">Tesla</text><text fill="#FFFFFF" style="font-size:4px; font-family:Arial" x="120" y="280">STATISTICS</text><text fill="#FFFFFF" style="font-size:3px; font-family:Arial" x="120" y="285">Number: 1</text><text fill="#FFFFFF" style="font-size:3px; font-family:Arial" x="120" y="290">Weekly: 1.0</text><text fill="#FFFFFF" style="font-size:3px; font-family:Arial" x="141" y="285">Total: 10.0 km</text><text fill="#FFFFFF" style="font-size:3px; font-family:Arial" x="141" y="290">Avg: 10.0 km</text><text fill="#FFFFFF" style="font-size:3px; font-family:Arial" x="167" y="285">Min: 10.0 km</text><text fill="#FFFFFF" style="font-size:3px; font-family:Arial" x="167" y="290">Max: 10.0 km</text><polyline fill="none" points="34.55199999921024,171.66691969125532 34.87600000016391,172.04048366937786 36.17200000025332,172.04048366937786 36.82000000029802,171.66691969125532 37.46800000034273,171.66691969125532 38.43999999947846,170.5462275298778 41.67999999970198,169.7990992339328 44.596000000834465,169.7990992339328 46.2160000000149,169.7990992339328 47.83600000105798,169.7990992339328 53.019999999552965,169.7990992339328 55.28800000064075,169.42553503089584 57.23200000077486,169.42553503089584 61.119999999180436,169.7990992339328 62.41599999926984,169.7990992339328 64.03599999845028,170.17266340041533 65.656000001356,170.5462275298778 67.60000000149012,170.91979162069038 74.40399999916553,171.66691969125532 76.99599999934435,172.04048366937786 78.93999999947846,172.7876115164254 80.5599999986589,172.7876115164254 88.01200000010431,172.41404761211015 90.60400000028312,172.04048366937786 92.87199999950826,171.66691969125532 97.08399999886751,172.41404761211015 99.3519999999553,173.16117538325489 103.56399999931455,173.90830300352536 106.15599999949336,174.28186675859615 108.09999999962747,174.65543047548272 110.36799999885261,174.65543047548272 113.93199999816716,175.02899415581487 115.87599999830127,175.4025577986613 118.14399999938905,176.14968497026712 119.76399999856949,176.14968497026712 121.70800000056624,176.523248499725 125.9199999999255,176.89681199286133 127.86399999819696,176.89681199286133 130.13199999928474,177.2703754475806 134.343999998644,176.523248499725 136.9359999988228,175.77612140285783 141.47199999913573,175.02899415581487 144.06399999931455,175.4025577986613 147.95199999958277,176.89681199286133 150.2199999988079,178.01750224689022 151.839999999851,179.1381921635475 154.10799999907613,179.8853185866028 157.99599999934435,180.63244486181065 158.64399999938905,179.5117553935852 156.69999999925494,179.8853185866028 154.4320000000298,179.8853185866028 150.2199999988079,179.8853185866028 147.95199999958277,179.1381921635475 146.00799999944866,178.7646288946271 143.73999999836087,178.01750224689022 139.2039999999106,178.01750224689022 136.9359999988228,177.64393886597827 135.64000000059605,177.2703754475806 134.66799999959767,177.2703754475806 133.6959999985993,176.89681199286133 132.07599999941885,176.89681199286133 125.59599999897182,175.4025577986613 123.003999998793,174.65543047548272 120.73599999956787,174.65543047548272 115.55200000107288,174.28186675859615 113.2839999999851,174.65543047548272 111.33999999985099,174.65543047548272 109.0719999987632,174.28186675859615 104.53600000031292,174.28186675859615 102.26799999922514,173.90830300352536 99.99999999813735,173.16117538325489 97.40799999982119,172.7876115164254 93.19600000046194,172.41404761211015 90.92799999937415,171.66691969125532 88.98399999924004,171.29335567425005 87.03999999910593,171.29335567425005 83.15199999883771,170.17266340041533 81.53199999965727,170.17266340041533 80.5599999986589,169.7990992339328 79.26400000043213,169.7990992339328 77.64399999938905,169.42553503089584 76.02399999834597,169.0519707899075 72.78399999812245,168.30484219593927 68.89599999971688,167.55771345156245 65.97999999858439,166.810584558174 61.44400000013411,166.43702005431987 59.17600000090897,166.06345551484264 53.019999999552965,164.19563225191087 50.75199999846518,164.19563225191087 48.48399999924004,164.19563225191087 45.56799999810755,163.8220674865879 40.38399999961257,163.8220674865879 38.115999998524785,164.19563225191087 36.17200000025332,164.5691969790496 31.959999999031425,164.19563225191087 31.959999999031425,164.9427616696339 29.368000000715256,163.8220674865879 24.831999998539686,163.07493784558028 24.184000000357628,166.43702005431987 28.071999998763204,167.18414902337827 30.015999998897314,167.18414902337827 32.2839999999851,167.18414902337827 35.20000000111759,167.18414902337827 41.03199999965727,167.93127784319222 43.30000000074506,168.30484219593927 45.56799999810755,168.67840651143342 47.51200000010431,168.67840651143342 51.7240000013262,169.0519707899075 53.019999999552965,169.0519707899075 53.9919999986887,169.0519707899075 54.963999999687076,169.42553503089584 57.87999999895692,169.0519707899075 63.06399999931455,169.7990992339328 65.97999999858439,169.7990992339328 68.24799999967217,169.7990992339328 70.51600000075996,170.17266340041533 74.72800000011921,170.17266340041533 76.34799999929965,170.5462275298778 78.61600000038743,170.91979162069038 80.5599999986589,170.91979162069038 85.09600000083447,170.91979162069038 87.3640000000596,170.91979162069038 89.63200000114739,170.5462275298778 91.57599999941885,170.91979162069038 95.46399999782443,170.91979162069038 97.73200000077486,171.29335567425005 99.99999999813735,171.66691969125532 101.94400000013411,172.41404761211015 106.15599999949336,173.534739212133 108.4239999987185,173.90830300352536 110.36799999885261,174.28186675859615 112.6359999999404,175.02899415581487 116.84799999929965,175.4025577986613 118.79199999943376,175.4025577986613 121.0599999986589,175.77612140285783 123.32799999974668,176.14968497026712 127.54000000096858,176.523248499725 129.48399999924004,176.523248499725 131.75199999846518,176.523248499725 133.6959999985993,176.89681199286133 137.25999999977648,177.64393886597827 139.2039999999106,178.01750224689022 139.85199999809265,178.01750224689022 140.5,178.39106558961794 142.11999999918044,178.39106558961794 148.2759999986738,179.5117553935852 150.54399999976158,179.8853185866028 152.81199999898672,180.258881743066 155.0800000000745,180.63244486181065 159.29199999943376,181.0060079426039 161.88399999774992,179.8853185866028 159.93999999947846,179.8853185866028 157.02399999834597,180.63244486181065 154.75599999912083,180.63244486181065 151.5159999988973,180.258881743066 148.9239999987185,179.8853185866028 144.06399999931455,179.1381921635475 141.79599999822676,178.7646288946271 139.52799999900162,178.39106558961794 137.5839999988675,177.64393886597827 133.37199999950826,176.89681199286133 131.4279999975115,176.89681199286133 129.48399999924004,176.523248499725 127.54000000096858,176.523248499725 125.9199999999255,175.77612140285783 121.38399999961257,175.02899415581487 119.11599999852479,174.65543047548272 117.17200000025332,174.28186675859615 115.22800000011921,173.90830300352536 110.69199999980628,173.16117538325489 109.0719999987632,172.41404761211015 107.45199999772012,172.41404761211015 103.88800000026822,172.04048366937786 101.94400000013411,172.04048366937786 98.37999999895692,172.04048366937786 95.7879999987781,172.41404761211015 92.22399999946356,172.04048366937786 88.01200000010431,171.66691969125532 86.0679999999702,171.29335567425005 84.44799999892712,170.91979162069038 81.53199999965727,170.5462275298778 76.02399999834597,169.42553503089584 73.75600000098348,169.0519707899075 71.48799999989569,169.0519707899075 69.86799999885261,169.0519707899075 65.656000001356,168.67840651143342 63.71199999935925,168.30484219593927 61.44400000013411,168.30484219593927 59.17600000090897,167.93127784319222 54.64000000059605,167.55771345156245 52.04800000041723,167.55771345156245 50.10399999842048,167.18414902337827 45.24400000087917,167.55771345156245 42.652000000700355,168.30484219593927 40.38399999961257,169.0519707899075 37.7920000012964,169.42553503089584 30.663999998942018,170.17266340041533 28.395999999716878,170.17266340041533 26.451999999582767,170.17266340041533 24.184000000357628,170.17266340041533 20.62000000104308,170.17266340041533 22.240000000223517,170.5462275298778 26.127999998629093,170.17266340041533 28.071999998763204,170.17266340041533 30.663999998942018,170.17266340041533 35.84800000116229,169.7990992339328 37.46800000034273,169.42553503089584 40.708000000566244,169.0519707899075 43.62399999797344,168.67840651143342 45.89199999906123,169.42553503089584 48.16000000014901,169.7990992339328 52.04800000041723,170.17266340041533 59.824000000953674,170.5462275298778 61.44400000013411,170.91979162069038 62.41599999926984,170.5462275298778 65.97999999858439,171.29335567425005 69.22000000067055,170.91979162069038 73.4320000000298,171.29335567425005 77.32000000029802,171.29335567425005 79.91199999861419,171.66691969125532 83.47599999979138,171.66691969125532 86.0679999999702,171.66691969125532 88.01200000010431,171.66691969125532 94.4919999986887,172.7876115164254 99.67600000090897,173.90830300352536 103.56399999931455,175.4025577986613 105.83199999853969,175.77612140285783 109.72000000067055,176.89681199286133 110.36799999885261,176.523248499725 111.98799999803305,176.14968497026712 120.41199999861419,176.14968497026712 122.3559999987483,175.77612140285783 126.89199999906123,176.14968497026712 128.51199999824166,176.523248499725 130.45600000023842,176.89681199286133 133.37199999950826,177.2703754475806 138.87999999895692,178.39106558961794 141.47199999913573,178.7646288946271 144.06399999931455,178.7646288946271 146.00799999944866,178.7646288946271 149.57200000062585,179.8853185866028 151.19199999980628,180.258881743066 153.1359999999404,180.63244486181065 155.0800000000745,181.37957098567858 157.02399999834597,182.12669696100056 162.8559999987483,181.37957098567858 158.64399999938905,180.63244486181065 156.3760000001639,181.0060079426039 156.05199999921024,181.0060079426039 154.10799999907613,181.0060079426039 153.78399999812245,181.0060079426039 152.16399999894202,181.0060079426039 151.839999999851,181.0060079426039 151.5159999988973,181.0060079426039 151.5159999988973,181.0060079426039 150.54399999976158,180.63244486181065 143.0920000001788,180.63244486181065 142.11999999918044,180.63244486181065 137.25999999977648,179.5117553935852 134.66799999959767,179.5117553935852 132.72399999946356,179.1381921635475 126.89199999906123,178.39106558961794 119.76399999856949,176.523248499725 115.87599999830127,175.77612140285783 113.60800000093877,175.4025577986613 112.6359999999404,175.02899415581487 106.47999999858439,173.90830300352536 100.6480000000447,174.65543047548272 98.05600000172853,175.02899415581487 95.7879999987781,175.4025577986613 88.98399999924004,175.02899415581487 87.03999999910593,174.65543047548272 85.09600000083447,174.65543047548272 81.53199999965727,173.90830300352536 79.91199999861419,173.534739212133 77.96799999848008,173.16117538325489 76.02399999834597,172.7876115164254 72.1359999999404,172.04048366937786 69.86799999885261,171.66691969125532 67.27600000053644,171.29335567425005 64.68400000035763,171.29335567425005 59.824000000953674,170.17266340041533 57.55599999986589,170.5462275298778 55.61199999973178,170.5462275298778 53.019999999552965,170.17266340041533 48.48399999924004,170.17266340041533 47.51200000010431,169.7990992339328 46.53999999910593,169.7990992339328 44.919999999925494,169.7990992339328 41.67999999970198,169.42553503089584 35.524000000208616,169.42553503089584 32.60799999907613,168.67840651143342 28.720000000670552,166.43702005431987 24.831999998539686,165.31632632249966 23.21199999935925,167.93127784319222 26.776000000536442,168.67840651143342 28.395999999716878,168.67840651143342 30.663999998942018,168.67840651143342 34.22800000011921,168.67840651143342 39.41200000047684,169.0519707899075 42.003999998793006,168.67840651143342 44.27199999988079,169.0519707899075 48.808000000193715,169.42553503089584 50.75199999846518,170.17266340041533 52.69599999859929,170.17266340041533 54.31599999964237,170.17266340041533 56.25999999977648,170.91979162069038 57.87999999895692,171.29335567425005 60.1480000000447,171.66691969125532 61.44400000013411,172.04048366937786 64.68400000035763,172.41404761211015 66.95199999958277,172.7876115164254 71.48799999989569,173.16117538325489 73.4320000000298,173.16117538325489 76.67200000025332,173.90830300352536 78.29199999943376,174.28186675859615 78.93999999947846,174.28186675859615 81.20800000056624,175.02899415581487 82.82799999974668,175.4025577986613 87.03999999910593,175.4025577986613 89.63200000114739,175.02899415581487 91.25200000032783,175.4025577986613 93.843999998644,175.4025577986613 97.73200000077486,175.4025577986613 100.32399999909103,175.4025577986613 102.59200000017881,175.77612140285783 105.18400000035763,176.14968497026712 111.98799999803305,176.89681199286133 114.57999999821186,176.89681199286133 119.76399999856949,178.01750224689022 121.0599999986589,178.01750224689022 121.70800000056624,178.39106558961794 124.62399999983609,178.7646288946271 129.48399999924004,179.5117553935852 131.75199999846518,179.8853185866028 134.01999999955297,179.8853185866028 135.96400000154972,180.258881743066 140.17599999904633,180.63244486181065 143.0920000001788,180.63244486181065 145.68399999849498,181.0060079426039 152.81199999898672,181.37957098567858 155.4039999973029,181.37957098567858 157.99599999934435,181.37957098567858 162.53199999779463,179.5117553935852 159.29199999943376,179.8853185866028 157.02399999834597,179.8853185866028 154.4320000000298,179.8853185866028 152.4879999998957,179.8853185866028 148.59999999962747,179.8853185866028 146.00799999944866,179.1381921635475 143.41599999926984,179.1381921635475 143.0920000001788,179.1381921635475 135.64000000059605,178.7646288946271 132.72399999946356,178.39106558961794 125.27199999988079,178.39106558961794 121.70800000056624,178.01750224689022 116.52400000020862,178.01750224689022 112.6359999999404,176.14968497026712 108.74799999967217,174.65543047548272 106.80399999953806,173.90830300352536 104.53600000031292,174.28186675859615 100.97199999913573,175.02899415581487 98.37999999895692,175.4025577986613 94.81599999964237,175.4025577986613 89.30800000019372,175.4025577986613 87.03999999910593,174.65543047548272 84.44799999892712,173.90830300352536 82.50400000065565,172.7876115164254 77.96799999848008,171.66691969125532 75.69999999925494,170.91979162069038 70.83999999985099,169.7990992339328 68.89599999971688,169.0519707899075 64.68400000035763,168.67840651143342 62.41599999926984,169.0519707899075 60.1480000000447,169.0519707899075 55.61199999973178,169.7990992339328 51.7240000013262,169.7990992339328 49.78000000119209,169.7990992339328 47.83600000105798,169.7990992339328 46.2160000000149,169.0519707899075 43.947999998927116,168.67840651143342 38.764000000432134,168.30484219593927 36.49599999934435,167.55771345156245 36.17200000025332,166.810584558174 32.9320000000298,166.06345551484264 28.395999999716878,164.19563225191087 25.80400000140071,164.9427616696339 25.15599999949336,168.30484219593927 29.691999999806285,168.30484219593927 31.635999999940395,168.30484219593927 33.25599999912083,168.30484219593927 37.46800000034273,169.42553503089584 41.35600000061095,170.17266340041533 44.27199999988079,170.91979162069038 48.808000000193715,171.29335567425005 51.40000000037253,171.66691969125532 53.66799999959767,172.04048366937786 56.25999999977648,172.04048366937786 64.03599999845028,173.534739212133 65.656000001356,173.16117538325489 66.95199999958277,173.16117538325489 72.78399999812245,174.28186675859615 76.67200000025332,174.28186675859615 81.53199999965727,174.65543047548272 83.15199999883771,175.4025577986613 84.12399999983609,175.4025577986613 86.0679999999702,175.77612140285783 89.30800000019372,175.77612140285783 95.46399999782443,176.89681199286133 99.99999999813735,177.64393886597827 102.59200000017881,178.01750224689022 105.18400000035763,178.39106558961794 107.7759999986738,178.7646288946271 112.6359999999404,180.258881743066 114.90399999916553,180.258881743066 117.17200000025332,180.63244486181065 121.38399999961257,180.63244486181065 123.65200000070035,179.8853185866028 125.9199999999255,179.1381921635475 128.51199999824166,179.5117553935852 130.45600000023842,179.8853185866028 132.07599999941885,179.5117553935852 134.01999999955297,180.258881743066 135.96400000154972,180.63244486181065 142.76799999922514,181.75313399243169 145.68399999849498,181.75313399243169 146.98000000044703,181.37957098567858 148.2759999986738,181.75313399243169 152.4879999998957,182.50025989301503 156.3760000001639,182.87382278731093 159.29199999943376,181.75313399243169 157.347999997437,181.37957098567858 153.1359999999404,180.63244486181065 150.8679999988526,181.0060079426039 148.2759999986738,181.37957098567858 146.3319999985397,181.37957098567858 141.1480000000447,181.75313399243169 138.5559999998659,181.75313399243169 133.04800000041723,180.63244486181065 130.77999999932945,180.63244486181065 128.83599999919534,179.8853185866028 127.54000000096858,179.5117553935852 119.76399999856949,177.2703754475806 118.46800000034273,175.77612140285783 118.14399999938905,175.4025577986613 115.22800000011921,173.90830300352536 113.93199999816716,173.90830300352536 111.01599999889731,173.16117538325489 109.39599999971688,172.7876115164254 104.21199999935925,173.16117538325489 101.2960000000894,173.534739212133 99.67600000090897,173.534739212133 97.08399999886751,173.534739212133 89.95599999837577,173.16117538325489 88.65999999828637,172.04048366937786 87.03999999910593,171.66691969125532 82.82799999974668,170.17266340041533 80.23599999956787,170.17266340041533 70.83999999985099,169.0519707899075 63.06399999931455,169.0519707899075 60.79600000008941,169.0519707899075 56.25999999977648,168.67840651143342 51.40000000037253,168.30484219593927 44.919999999925494,167.18414902337827 42.652000000700355,167.93127784319222 38.764000000432134,168.67840651143342 31.635999999940395,167.93127784319222 27.747999999672174,167.55771345156245 23.21199999935925,166.06345551484264 21.592000000178814,165.68989093741402 21.915999999269843,166.810584558174 22.88800000026822,166.810584558174 24.507999999448657,166.810584558174 27.424000000581145,167.55771345156245 29.04399999976158,167.93127784319222 33.25599999912083,168.67840651143342 34.87600000016391,168.67840651143342 41.67999999970198,168.30484219593927 44.27199999988079,168.30484219593927 50.10399999842048,168.67840651143342 52.69599999859929,169.42553503089584 57.87999999895692,171.29335567425005 59.5,171.66691969125532 62.41599999926984,172.7876115164254 66.62800000049174,173.534739212133 70.51600000075996,174.28186675859615 76.67200000025332,175.02899415581487 79.26400000043213,175.02899415581487 81.53199999965727,175.02899415581487 85.74400000087917,175.02899415581487 88.33599999919534,175.4025577986613 90.60400000028312,175.4025577986613 92.87199999950826,175.4025577986613 95.46399999782443,176.14968497026712 97.08399999886751,176.523248499725 98.37999999895692,176.523248499725 99.02799999900162,176.523248499725 102.91599999926984,177.2703754475806 111.98799999803305,178.7646288946271 114.57999999821186,179.1381921635475 119.11599999852479,179.1381921635475 119.76399999856949,179.1381921635475 120.41199999861419,179.5117553935852 122.3559999987483,179.1381921635475 124.94799999892712,178.7646288946271 126.89199999906123,179.1381921635475 132.72399999946356,179.1381921635475 135.64000000059605,179.5117553935852 136.9359999988228,179.1381921635475 138.5559999998659,179.1381921635475 139.52799999900162,179.1381921635475 146.00799999944866,180.258881743066 149.57200000062585,180.63244486181065 155.4039999973029,181.75313399243169 157.347999997437,182.12669696100056 159.61600000038743,182.12669696100056 160.9119999986142,180.63244486181065 158.64399999938905,180.258881743066 157.02399999834597,179.5117553935852 154.75599999912083,179.1381921635475 153.1359999999404,178.7646288946271 150.8679999988526,178.01750224689022 148.59999999962747,177.2703754475806 146.98000000044703,176.523248499725 145.68399999849498,176.14968497026712 138.5559999998659,175.4025577986613 135.96400000154972,175.4025577986613 133.37199999950826,175.4025577986613 127.54000000096858,174.65543047548272 124.62399999983609,174.65543047548272 119.43999999947846,175.02899415581487 114.90399999916553,174.28186675859615 112.6359999999404,173.90830300352536 110.36799999885261,173.90830300352536 109.39599999971688,174.28186675859615 108.09999999962747,173.90830300352536 106.80399999953806,173.90830300352536 101.94400000013411,173.534739212133 99.67600000090897,173.16117538325489 98.37999999895692,173.534739212133 97.73200000077486,173.16117538325489 95.7879999987781,173.16117538325489 90.27999999932945,172.41404761211015 86.0679999999702,172.41404761211015 76.02399999834597,172.04048366937786 73.75600000098348,172.41404761211015 71.16399999894202,172.04048366937786 70.19199999980628,171.29335567425005 68.57200000062585,170.91979162069038 67.60000000149012,169.7990992339328 60.1480000000447,168.30484219593927 57.55599999986589,168.30484219593927 52.69599999859929,167.93127784319222 44.919999999925494,167.55771345156245 42.652000000700355,167.55771345156245 40.38399999961257,167.93127784319222 37.1440000012517,168.67840651143342 35.524000000208616,169.0519707899075 28.720000000670552,169.0519707899075 22.240000000223517,168.67840651143342 19.0,169.7990992339328 30.33999999985099,169.7990992339328 36.17200000025332,169.0519707899075 41.35600000061095,169.42553503089584 42.32799999974668,169.42553503089584 44.596000000834465,169.42553503089584 47.187999999150634,169.7990992339328 54.31599999964237,169.7990992339328 57.55599999986589,170.17266340041533 60.47199999913573,170.17266340041533 65.00799999944866,170.5462275298778 67.60000000149012,171.29335567425005 68.89599999971688,171.29335567425005 70.83999999985099,171.29335567425005 76.34799999929965,170.5462275298778 80.88399999961257,169.7990992339328 83.15199999883771,169.7990992339328 88.01200000010431,171.29335567425005 91.57599999941885,173.16117538325489 92.87199999950826,173.534739212133 95.46399999782443,174.28186675859615 102.26799999922514,175.02899415581487 105.18400000035763,175.4025577986613 108.09999999962747,175.4025577986613 112.6359999999404,175.77612140285783 114.90399999916553,176.14968497026712 116.84799999929965,176.14968497026712 119.11599999852479,176.14968497026712 123.65200000070035,176.89681199286133 128.51199999824166,178.01750224689022 130.45600000023842,178.7646288946271 131.75199999846518,179.1381921635475 133.37199999950826,179.5117553935852 139.52799999900162,181.0060079426039 141.79599999822676,181.37957098567858 143.41599999926984,181.37957098567858 145.68399999849498,181.0060079426039 148.59999999962747,180.63244486181065 152.4879999998957,181.0060079426039 158.64399999938905,181.75313399243169 162.2079999987036,181.37957098567858 161.23599999956787,180.63244486181065 158.31999999843538,179.8853185866028 157.67199999839067,179.5117553935852 156.05199999921024,179.5117553935852 153.1359999999404,178.01750224689022 150.2199999988079,177.2703754475806 145.68399999849498,176.14968497026712 141.47199999913573,176.523248499725 140.17599999904633,176.523248499725 135.96400000154972,176.89681199286133 129.80799999833107,177.2703754475806 127.2160000000149,176.523248499725 125.59599999897182,175.77612140285783 123.65200000070035,175.4025577986613 122.67999999970198,175.02899415581487 116.84799999929965,173.90830300352536 113.2839999999851,173.90830300352536 111.66400000080466,173.90830300352536 108.4239999987185,173.90830300352536 107.45199999772012,173.534739212133 105.50799999944866,173.534739212133 101.94400000013411,172.7876115164254 90.92799999937415,174.28186675859615 88.65999999828637,174.28186675859615 86.0679999999702,175.02899415581487 79.91199999861419,172.41404761211015 79.91199999861419,173.16117538325489 77.32000000029802,172.41404761211015 74.0800000000745,172.04048366937786 72.1359999999404,172.04048366937786 71.16399999894202,171.66691969125532 63.38800000026822,170.5462275298778 56.25999999977648,169.42553503089584 52.69599999859929,168.67840651143342 45.24400000087917,166.43702005431987 39.735999999567866,167.18414902337827 38.115999998524785,167.55771345156245 36.82000000029802,167.55771345156245 33.903999999165535,167.18414902337827 26.127999998629093,166.810584558174 20.62000000104308,167.18414902337827 22.240000000223517,166.810584558174 25.80400000140071,167.18414902337827 27.747999999672174,167.18414902337827 29.368000000715256,166.810584558174 31.635999999940395,167.18414902337827 33.903999999165535,167.18414902337827 39.41200000047684,167.18414902337827 41.35600000061095,167.18414902337827 43.62399999797344,167.18414902337827 46.2160000000149,167.18414902337827 54.963999999687076,169.0519707899075 59.824000000953674,169.7990992339328 61.768000001087785,169.7990992339328 63.71199999935925,169.7990992339328 65.656000001356,170.5462275298778 70.51600000075996,170.91979162069038 73.10799999907613,171.29335567425005 77.64399999938905,172.04048366937786 79.91199999861419,172.41404761211015 84.44799999892712,172.7876115164254 90.27999999932945,172.04048366937786 92.22399999946356,172.41404761211015 94.4919999986887,172.41404761211015 102.26799999922514,175.02899415581487 104.21199999935925,175.77612140285783 108.4239999987185,175.77612140285783 114.57999999821186,176.89681199286133 120.41199999861419,176.523248499725 125.27199999988079,176.14968497026712 127.86399999819696,175.77612140285783 129.80799999833107,176.14968497026712 132.07599999941885,176.14968497026712 136.2879999987781,176.14968497026712 138.87999999895692,177.2703754475806 139.85199999809265,177.2703754475806 143.0920000001788,178.01750224689022 146.00799999944866,179.1381921635475 153.1359999999404,179.8853185866028 157.347999997437,179.8853185866028 157.347999997437,178.01750224689022 154.4320000000298,178.39106558961794 151.19199999980628,179.1381921635475 144.71199999935925,178.39106558961794 143.0920000001788,178.7646288946271 141.1480000000447,178.39106558961794 134.9919999986887,177.64393886597827 132.40000000037253,178.01750224689022 128.51199999824166,178.01750224689022 127.54000000096858,177.2703754475806 125.9199999999255,177.2703754475806 123.97599999979138,176.89681199286133 122.03199999965727,176.14968497026712 116.84799999929965,174.65543047548272 111.66400000080466,174.65543047548272 110.04399999976158,174.65543047548272 108.09999999962747,174.28186675859615 106.15599999949336,174.28186675859615 100.32399999909103,173.534739212133 98.05600000172853,173.16117538325489 94.4919999986887,173.534739212133 92.22399999946356,173.16117538325489 82.17999999970198,169.7990992339328 80.23599999956787,168.67840651143342 77.32000000029802,167.18414902337827 71.81199999898672,166.810584558174 69.22000000067055,166.06345551484264 65.97999999858439,165.31632632249966 60.1480000000447,165.31632632249966 58.8519999999553,165.68989093741402 57.23200000077486,166.43702005431987 51.40000000037253,167.18414902337827 50.75199999846518,167.18414902337827 50.75199999846518,166.43702005431987 50.10399999842048,166.810584558174 46.864000000059605,167.93127784319222 44.919999999925494,167.93127784319222 39.08799999952316,167.93127784319222 28.071999998763204,165.31632632249966 23.21199999935925,165.31632632249966 28.071999998763204,167.55771345156245 38.43999999947846,167.18414902337827 40.38399999961257,167.55771345156245 42.975999999791384,168.67840651143342 47.83600000105798,170.5462275298778 52.69599999859929,171.29335567425005 54.64000000059605,171.66691969125532 56.25999999977648,172.04048366937786 58.8519999999553,172.04048366937786 70.51600000075996,173.534739212133 71.81199999898672,173.534739212133 74.0800000000745,173.90830300352536 77.32000000029802,173.90830300352536 83.15199999883771,175.02899415581487 88.33599999919534,175.02899415581487 90.92799999937415,175.77612140285783 93.51999999955297,175.77612140285783 96.43599999882281,176.14968497026712 99.3519999999553,176.523248499725 100.97199999913573,177.2703754475806 103.24000000022352,177.64393886597827 105.50799999944866,178.01750224689022 111.98799999803305,178.7646288946271 114.57999999821186,178.7646288946271 119.43999999947846,178.01750224689022 120.41199999861419,177.2703754475806 124.62399999983609,177.2703754475806 130.77999999932945,178.01750224689022 133.6959999985993,177.64393886597827 136.9359999988228,178.7646288946271 138.5559999998659,179.1381921635475 141.1480000000447,178.7646288946271 142.76799999922514,178.7646288946271 149.57200000062585,179.1381921635475 156.05199999921024,181.0060079426039 159.93999999947846,178.7646288946271 156.69999999925494,178.01750224689022 156.3760000001639,177.64393886597827 155.72799999825656,177.2703754475806 153.1359999999404,177.2703754475806 150.8679999988526,177.64393886597827 144.06399999931455,177.2703754475806 140.82399999909103,177.2703754475806 138.23199999891222,177.2703754475806 132.72399999946356,176.89681199286133 130.45600000023842,177.2703754475806 128.18799999915063,177.2703754475806 125.9199999999255,177.2703754475806 123.65200000070035,175.4025577986613 122.03199999965727,173.90830300352536 117.81999999843538,172.41404761211015 114.57999999821186,172.04048366937786 111.98799999803305,171.66691969125532 104.53600000031292,171.29335567425005 102.59200000017881,171.66691969125532 100.32399999909103,171.66691969125532 96.11199999973178,172.41404761211015 93.843999998644,172.04048366937786 91.57599999941885,172.04048366937786 87.03999999910593,170.91979162069038 86.39199999906123,171.66691969125532 85.74400000087917,171.29335567425005 82.17999999970198,170.5462275298778 80.5599999986589,170.5462275298778 77.96799999848008,170.91979162069038 73.75600000098348,170.17266340041533 71.48799999989569,169.7990992339328 65.656000001356,169.0519707899075 64.35999999940395,169.42553503089584 62.092000000178814,169.0519707899075 59.17600000090897,168.30484219593927 54.64000000059605,167.55771345156245 50.10399999842048,166.43702005431987 46.864000000059605,167.18414902337827 44.919999999925494,167.55771345156245 43.62399999797344,167.93127784319222 41.03199999965727,167.55771345156245 35.20000000111759,166.43702005431987 26.776000000536442,164.9427616696339 24.507999999448657,164.9427616696339 23.536000000312924,164.9427616696339 25.80400000140071,167.18414902337827 29.04399999976158,168.30484219593927 35.524000000208616,168.67840651143342 38.115999998524785,169.0519707899075 41.67999999970198,168.67840651143342 43.947999998927116,168.30484219593927 45.89199999906123,167.93127784319222 50.75199999846518,168.67840651143342 52.69599999859929,169.0519707899075 53.9919999986887,169.42553503089584 55.28800000064075,169.42553503089584 60.47199999913573,170.17266340041533 63.38800000026822,170.5462275298778 65.656000001356,170.91979162069038 71.16399999894202,171.66691969125532 73.75600000098348,171.66691969125532 75.69999999925494,172.04048366937786 77.64399999938905,172.41404761211015 80.5599999986589,173.16117538325489 86.39199999906123,173.534739212133 87.3640000000596,173.16117538325489 88.98399999924004,173.16117538325489 90.60400000028312,173.16117538325489 93.51999999955297,173.16117538325489 97.73200000077486,173.90830300352536 99.67600000090897,173.90830300352536 102.26799999922514,174.28186675859615 108.09999999962747,175.77612140285783 110.69199999980628,177.2703754475806 115.22800000011921,178.01750224689022 117.4959999974817,178.01750224689022 122.67999999970198,177.2703754475806 126.89199999906123,176.89681199286133 129.160000000149,177.2703754475806 131.10400000028312,177.2703754475806 132.07599999941885,177.2703754475806 132.72399999946356,177.2703754475806 134.343999998644,177.2703754475806 140.5,177.2703754475806 142.76799999922514,178.01750224689022 146.65599999949336,178.39106558961794 147.30399999953806,178.7646288946271 148.9239999987185,178.7646288946271 150.8679999988526,179.5117553935852 156.69999999925494,179.5117553935852 159.61600000038743,179.5117553935852 161.88399999774992,177.64393886597827 156.69999999925494,178.39106558961794 152.4879999998957,178.01750224689022 150.54399999976158,177.64393886597827 148.9239999987185,176.89681199286133 144.71199999935925,174.28186675859615 144.38799999840558,172.7876115164254 144.06399999931455,171.29335567425005 142.76799999922514,166.06345551484264 143.41599999926984,164.5691969790496 143.41599999926984,162.70137296803296 143.73999999836087,160.45998292043805 147.62800000049174,149.62657869630493 147.95199999958277,142.9023809377104 147.95199999958277,139.16671027662233 148.2759999986738,136.55173858767375 148.59999999962747,132.44249365828 149.89599999971688,127.58610745007172 150.2199999988079,122.35614599799737 150.2199999988079,118.99402404925786 150.54399999976158,117.12617721268907 147.30399999953806,120.86186995031312 147.30399999953806,122.72971491678618 146.98000000044703,124.97112764045596 146.3319999985397,127.95967584406026 145.03599999845028,132.81606156681664 145.03599999845028,135.4310358746443 144.71199999935925,139.54027751088142 144.06399999931455,139.91384470835328 145.35999999940395,142.1552471050527 145.03599999845028,145.1437815374229 143.41599999926984,154.48293620510958 143.41599999926984,158.21859152475372 143.41599999926984,159.71285260398872 142.44399999827147,160.83354802196845 141.1480000000447,164.5691969790496 139.85199999809265,169.42553503089584 139.85199999809265,171.29335567425005 137.5839999988675,176.523248499725 136.2879999987781,176.89681199286133 134.01999999955297,177.2703754475806 128.18799999915063,179.5117553935852 118.46800000034273,172.41404761211015 117.17200000025332,172.04048366937786 115.55200000107288,172.04048366937786 113.60800000093877,171.66691969125532 112.31199999898672,171.29335567425005 106.80399999953806,170.5462275298778 103.24000000022352,169.7990992339328 97.40799999982119,169.7990992339328 93.843999998644,170.5462275298778 91.57599999941885,170.91979162069038 89.63200000114739,171.66691969125532 87.3640000000596,172.04048366937786 82.50400000065565,172.04048366937786 73.4320000000298,174.28186675859615 72.45999999903142,173.16117538325489 71.48799999989569,172.04048366937786 64.35999999940395,172.7876115164254 56.58399999886751,172.41404761211015 51.40000000037253,165.31632632249966 48.16000000014901,166.43702005431987 47.187999999150634,167.18414902337827 34.55199999921024,169.7990992339328 25.480000000447035,163.8220674865879 25.480000000447035,166.43702005431987 28.720000000670552,167.55771345156245 30.987999999895692,168.67840651143342 33.25599999912083,169.7990992339328 35.84800000116229,170.5462275298778 41.35600000061095,171.66691969125532 43.62399999797344,171.29335567425005 45.24400000087917,171.29335567425005 47.187999999150634,171.29335567425005 49.78000000119209,170.91979162069038 54.64000000059605,171.29335567425005 56.58399999886751,171.29335567425005 58.52799999900162,171.29335567425005 63.06399999931455,172.04048366937786 65.97999999858439,172.04048366937786 68.89599999971688,172.04048366937786 71.81199999898672,172.04048366937786 76.99599999934435,172.04048366937786 79.26400000043213,172.04048366937786 81.20800000056624,172.04048366937786 84.44799999892712,172.7876115164254 85.4199999999255,173.16117538325489 87.3640000000596,173.534739212133 89.30800000019372,173.534739212133 92.54800000041723,173.534739212133 97.08399999886751,174.28186675859615 99.3519999999553,174.28186675859615 101.2960000000894,174.28186675859615 105.18400000035763,175.4025577986613 107.12800000049174,175.4025577986613 109.0719999987632,175.4025577986613 111.01599999889731,175.77612140285783 116.84799999929965,175.77612140285783 119.76399999856949,175.77612140285783 123.32799999974668,175.77612140285783 131.10400000028312,177.2703754475806 132.72399999946356,177.2703754475806 135.96400000154972,177.2703754475806 139.2039999999106,177.2703754475806 143.0920000001788,177.64393886597827 145.35999999940395,178.01750224689022 146.3319999985397,178.39106558961794 147.95199999958277,178.39106558961794 148.9239999987185,178.39106558961794 149.89599999971688,178.7646288946271 154.10799999907613,179.8853185866028 156.05199999921024,180.258881743066 160.9119999986142,177.64393886597827 158.31999999843538,177.2703754475806 156.3760000001639,177.2703754475806 154.75599999912083,177.64393886597827 152.81199999898672,177.2703754475806 150.8679999988526,176.89681199286133 146.3319999985397,172.7876115164254 146.65599999949336,165.31632632249966 146.65599999949336,163.44850268447772 147.30399999953806,157.84502616198733 147.30399999953806,155.23006756976247 147.62800000049174,152.6151071425993 147.95199999958277,147.38518079090863 149.24799999967217,147.75874720257707 151.19199999980628,148.50587991205975 152.81199999898672,148.87944621080533 158.96799999848008,149.62657869630493 162.8559999987483,150.37371103349142 164.1519999988377,150.37371103349142 166.4199999999255,150.74727714480832 171.60400000028312,151.12084321887232 173.22399999946356,147.01161434152164 174.51999999955297,143.27594779757783 175.81599999777973,141.40811312245205 178.73199999891222,137.2988735435065 179.37999999709427,135.8046034828294 181.0,132.44249365828 180.67599999904633,130.57465355703607 174.843999998644,123.85042144707404 170.63199999928474,124.22399021545425 169.0120000001043,124.22399021545425 165.44799999892712,124.22399021545425 163.17999999970198,124.22399021545425 160.58799999952316,123.85042144707404 157.99599999934435,123.85042144707404 150.2199999988079,126.83897054800764 149.24799999967217,129.4539490470197 149.24799999967217,130.94822165183723 149.24799999967217,133.56319726957008 147.62800000049174,134.31033282354474 144.71199999935925,142.52881403965876 145.68399999849498,148.87944621080533 144.06399999931455,154.48293620510958 143.41599999926984,158.9657221387606 143.41599999926984,160.83354802196845 142.44399999827147,164.9427616696339 141.79599999822676,165.68989093741402 141.1480000000447,167.55771345156245 140.5,170.91979162069038 136.9359999988228,175.4025577986613 133.04800000041723,175.77612140285783 131.4279999975115,175.77612140285783 128.51199999824166,175.02899415581487 124.94799999892712,174.65543047548272 118.14399999938905,172.41404761211015 115.87599999830127,172.41404761211015 113.93199999816716,172.04048366937786 112.6359999999404,171.29335567425005 110.69199999980628,170.91979162069038 108.74799999967217,170.91979162069038 103.24000000022352,169.7990992339328" stroke="#4DD2FF" stroke-linecap="round" stroke-linejoin="round" stroke-width="0.5"><title>2021-06-21 10.0km</title></polyline></svg>