<?xml version="1.0" encoding="utf-8" ?>
<svg baseProfile="full" height="200mm" version="1.1" viewBox="0,0,200,200" width="200mm" xmlns="http://www.w3.org/2000/svg" xmlns:ev="http://www.w3.org/2001/xml-events" xmlns:xlink="http://www.w3.org/1999/xlink"><defs /><rect fill="#1a1a1a" height="200" width="200" x="0" y="0" /><text alignment-baseline="middle" fill="#e1ed5e" style="dominant-baseline: central; font-size:9.0px; font-family:Arial;" text-anchor="middle" x="100.0" y="100.0">2023</text><line stroke="#e1ed5e" stroke-width="0.3" x1="100.0" x2="100.0" y1="15.0" y2="10.0" /><path d="M 100.0 14.0 a86.0,86.0 0 0,1 42.46469731375804,11.215312516191453" fill="none" id="id37" stroke="none" /><text fill="#e1ed5e" style="font-size:6.75px; font-family:Arial;" text-anchor="middle"><textPath startOffset="22.20632615414155" xlink:href="#id37">January</textPath></text><path d="M 110.36928655335952 81.73862282372117 l 8.91015030151189 -15.691688576252783 a39.04494025397797,39.04494025397797 0 0,0 0.5815897567685877,0.33689432614165293 l -9.178936790745807 15.53599009272108" fill="#ff910d" stroke="none" /><line stroke="#e1ed5e" stroke-width="0.3" x1="143.23703022742887" x2="145.7803849466894" y1="26.81831364943548" y2="22.513508569990506" /><path d="M 143.74570117128098 25.957352633546492 a86.0,86.0 0 0,1 28.547481713284135,27.462654790039103" fill="none" id="id38" stroke="none" /><text fill="#e1ed5e" style="font-size:6.75px; font-family:Arial;" text-anchor="middle"><textPath startOffset="19.985693538727396" xlink:href="#id38">February</textPath></text><path d="M 111.2981086023043 82.29822771554956 l 14.463828203469342 -22.661792538178187 a47.88418061505509,47.88418061505509 0 0,0 0.6909755080791838,0.4494296911888967 l -14.851770737332805 22.40946392282976" fill="#edff1a" stroke="none" /><path d="M 111.90073688211348 82.69761687909136 l 8.51860426911993 -12.385128431941714 a36.03190024479804,36.03190024479804 0 0,0 0.5079963640053773,0.355883916894713 l -8.730531772708957 12.236659672283066" fill="#ff6209" stroke="none" /><path d="M 112.48926042617603 83.11751280151076 l 12.86378537163663 -17.38875517445373 a42.6297429620563,42.6297429620563 0 0,0 0.5861667735516791,0.44148866132748116 l -13.161198298946692 17.164749923620402" fill="#ffc612" stroke="none" /><path d="M 113.34407831869373 83.78471172551755 l 17.028535683922602 -20.692520563244585 a47.79834761321909,47.79834761321909 0 0,0 0.6308072279434206,0.528282912357907 l -17.38220044882514 20.396336493492857" fill="#eeff19" stroke="none" /><path d="M 113.89432698308785 84.25364557470407 l 41.68298094926353 -47.23906327588782 a84.0,84.0 0 0,0 1.0759560496160399,0.9660039649228103 l -42.48994798647556 46.51456030219571" fill="#4dd2ff" stroke="none" /><path d="M 114.68862486808459 84.99185889309783 l 11.279782178252942 -11.525147119399202 a37.12645348837209,37.12645348837209 0 0,0 0.4528794404987597,0.45093463225664576 l -11.476497418919026 11.329276636492438" fill="#ff730a" stroke="none" /><path d="M 115.4437574822437 85.77008943001954 l 11.831313903484482 -10.901397471795269 a37.08789779681763,37.08789779681763 0 0,0 0.428553059837158,0.47321899241376747 l -12.017210603937675 10.696125692111952" fill="#ff730a" stroke="none" /><path d="M 115.9244219780498 86.31012108654704 l 20.35585856124181 -17.499488475430525 a47.843864749082,47.843864749082 0 0,0 0.5314983740818419,0.629126431695927 l -20.65406754881077 17.146503094105494" fill="#eeff19" stroke="none" /><path d="M 116.15771136456269 86.58626213691792 l 16.844133925082925 -13.98358912990925 a42.89213586291309,42.89213586291309 0 0,0 0.46671036774948493,0.5721317264058123 l -17.082342784908818 13.691573233895337" fill="#ffca12" stroke="none" /><path d="M 116.38621287248628 86.86637796730983 l 12.917262972767267 -10.353243357777032 a37.55431456548348,37.55431456548348 0 0,0 0.39994615279338286,0.5078909988798812 l -13.093563206154615 10.129359964944111" fill="#ff7a0b" stroke="none" /><path d="M 116.60985879189232 87.15038557335679 l 16.003338040413595 -12.380401659942041 a41.233170134638925,41.233170134638925 0 0,0 0.4294612556799077,0.5651206715922179 l -16.214075236317615 12.10309621246879" fill="#ffb210" stroke="none" /><path d="M 117.2510076193507 88.02491185347247 l 15.040964211567701 -10.44094792702135 a39.309669522643816,39.309669522643816 0 0,0 0.38107080845036767,0.5591743897329152 l -15.218459485686802 10.180495514018029" fill="#ff950d" stroke="none" /><path d="M 117.65298651832404 88.62581576622439 l 15.018723026248555 -9.676873795789717 a38.866279069767444,38.866279069767444 0 0,0 0.35751869299440375,0.5655087140173122 l -15.183069315488915 9.416917434058199" fill="#ff8e0d" stroke="none" /><line stroke="#e1ed5e" stroke-width="0.3" x1="172.23445277983987" x2="176.4835382374775" y1="55.19839476539836" y2="52.563006222186495" /><path d="M 173.08426987136738 54.67131705675599 a86.0,86.0 0 0,1 12.851231095245387,41.99856678651699" fill="none" id="id39" stroke="none" /><text fill="#e1ed5e" style="font-size:6.75px; font-family:Arial;" text-anchor="middle"><textPath startOffset="22.20632615414155" xlink:href="#id39">March</textPath></text><path d="M 117.84615892207809 88.93136811851018 l 18.235701762686478 -11.310236045365665 a42.458384332925334,42.458384332925334 0 0,0 0.37986950697373206,0.6244055895031856 l -18.427687067946433 10.994662682655397" fill="#ffc412" stroke="none" /><path d="M 118.3937258080291 89.86733742301442 l 19.34633844358875 -10.657434040007258 a43.08759179926561,43.08759179926561 0 0,0 0.3522757398149905,0.6527134444645138 l -19.526922282622206 10.322839612210284" fill="#ffcd13" stroke="none" /><path d="M 118.56541770881063 90.18545643968196 l 23.68255357209435 -12.519699653327987 a47.788173194614444,47.788173194614444 0 0,0 0.3781877900693099,0.7305384356580112 l -23.894550795323777 12.11018849540963" fill="#eeff19" stroke="none" /><path d="M 118.73160827565052 90.50648371742162 l 23.8873860124766 -12.10655725448147 a47.78014075887393,47.78014075887393 0 0,0 0.3654952948852307,0.7368162116634205 l -24.09224132031524 11.6935814543191" fill="#efff19" stroke="none" /><path d="M 118.89224826269711 90.83032412892265 l 14.505928382243795 -7.040700483323383 a37.124311505507954,37.124311505507954 0 0,0 0.27408668134262976,0.5772964517260367 l -14.62497325742818 6.789961615956806" fill="#ff730a" stroke="none" /><path d="M 119.47837535516314 92.15188598940014 l 8.339005605819915 -3.3599037669308673 a29.99043757649939,29.99043757649939 0 0,0 0.18880615664206873,0.48049107458209905 l -8.395605312343685 3.215863687452984" fill="#ff0000" stroke="none" /><path d="M 120.28053869075195 94.5502522615342 l 26.161563935326395 -7.030085643449301 a48.08965728274174,48.08965728274174 0 0,0 0.20793891811299822,0.8012734751124806 l -26.278699185309694 6.57871574278797" fill="#eaff1a" stroke="none" /><line stroke="#e1ed5e" stroke-width="0.3" x1="184.98032266829074" x2="189.97916517819016" y1="98.17113171792111" y2="98.06355123074" /><path d="M 185.9800911702706 98.14961562048488 a86.0,86.0 0 0,1 -9.607161424134198,41.387399972396054" fill="none" id="id40" stroke="none" /><text fill="#e1ed5e" style="font-size:6.75px; font-family:Arial;" text-anchor="middle"><textPath startOffset="21.466115282336823" xlink:href="#id40">April</textPath></text><path d="M 120.99513854157772 99.54816195383933 l 21.45555824643687 -0.46174677524313806 a42.46052631578947,42.46052631578947 0 0,0 0.009436332099706714,0.730854320325117 l -21.46032758565429 0.09235619685755835" fill="#ffc412" stroke="none" /><line stroke="#e1ed5e" stroke-width="0.3" x1="174.80103733775053" x2="179.2010983576182" y1="140.37084112569926" y2="142.7455964860345" /><path d="M 175.68104954172406 140.8457921977663 a86.0,86.0 0 0,1 -30.038265399797805,32.042727171017184" fill="none" id="id41" stroke="none" /><text fill="#e1ed5e" style="font-size:6.75px; font-family:Arial;" text-anchor="middle"><textPath startOffset="22.206326154141568" xlink:href="#id41">May</textPath></text><line stroke="#e1ed5e" stroke-width="0.3" x1="143.8653032363475" x2="146.44561519142675" y1="172.8068346515853" y2="177.08958963109032" /><path d="M 144.38136562736335 173.6633856474863 a86.0,86.0 0 0,1 -40.68145358897372,12.25698825130547" fill="none" id="id42" stroke="none" /><text fill="#e1ed5e" style="font-size:6.75px; font-family:Arial;" text-anchor="middle"><textPath startOffset="21.466115282336833" xlink:href="#id42">June</textPath></text><line stroke="#e1ed5e" stroke-width="0.3" x1="102.19456741930631" x2="102.32365962044197" y1="184.97166512339345" y2="189.96999836594603" /><path d="M 102.22038585953345 185.97133177190398 a86.0,86.0 0 0,1 -42.740103519485714,-10.115201625700543" fill="none" id="id43" stroke="none" /><text fill="#e1ed5e" style="font-size:6.75px; font-family:Arial;" text-anchor="middle"><textPath startOffset="22.20632615414155" xlink:href="#id43">July</textPath></text><line stroke="#e1ed5e" stroke-width="0.3" x1="58.666819895761336" x2="56.23545636021788" y1="174.27360380694188" y2="178.64263932499728" /><path d="M 58.180547188652646 175.14741091055294 a86.0,86.0 0 0,1 -31.652253787137756,-30.449443065178592" fill="none" id="id44" stroke="none" /><text fill="#e1ed5e" style="font-size:6.75px; font-family:Arial;" text-anchor="middle"><textPath startOffset="22.20632615414155" xlink:href="#id44">August</textPath></text><line stroke="#e1ed5e" stroke-width="0.3" x1="26.63291911575756" x2="22.317208475507996" y1="142.92168965132927" y2="145.44649492493687" /><path d="M 25.769776987707644 143.4266507060508 a86.0,86.0 0 0,1 -11.730757126820373,-40.83630448921669" fill="none" id="id45" stroke="none" /><text fill="#e1ed5e" style="font-size:6.75px; font-family:Arial;" text-anchor="middle"><textPath startOffset="21.46611528233685" xlink:href="#id45">September</textPath></text><line stroke="#e1ed5e" stroke-width="0.3" x1="15.007084014347285" x2="10.007500721073583" y1="101.09737516637583" y2="101.16192664675087" /><path d="M 14.007167355692545 101.11028546245083 a86.0,86.0 0 0,1 10.666146001902534,-42.60595125391555" fill="none" id="id46" stroke="none" /><text fill="#e1ed5e" style="font-size:6.75px; font-family:Arial;" text-anchor="middle"><textPath startOffset="22.20632615414155" xlink:href="#id46">October</textPath></text><line stroke="#e1ed5e" stroke-width="0.3" x1="26.266209847984243" x2="21.928928074336255" y1="57.711370442889674" y2="55.22380399835377" /><path d="M 25.398753493254645 57.213857153982495 a86.0,86.0 0 0,1 29.58750427330803,-30.492523968695096" fill="none" id="id47" stroke="none" /><text fill="#e1ed5e" style="font-size:6.75px; font-family:Arial;" text-anchor="middle"><textPath startOffset="21.46611528233685" xlink:href="#id47">November</textPath></text><line stroke="#e1ed5e" stroke-width="0.3" x1="56.762969772571076" x2="54.21961505331055" y1="26.818313649435495" y2="22.513508569990535" /><path d="M 56.25429882871897 25.957352633546506 a86.0,86.0 0 0,1 42.265352541879196,-11.944610805530505" fill="none" id="id48" stroke="none" /><text fill="#e1ed5e" style="font-size:6.75px; font-family:Arial;" text-anchor="middle"><textPath startOffset="22.20632615414155" xlink:href="#id48">December</textPath></text></svg>