<?xml version="1.0" encoding="utf-8" ?>
<svg baseProfile="full" height="300mm" version="1.1" viewBox="0,0,200,300" width="200mm" xmlns="http://www.w3.org/2000/svg" xmlns:ev="http://www.w3.org/2001/xml-events" xmlns:xlink="http://www.w3.org/1999/xlink"><defs /><rect fill="#222222" height="300" width="200" x="0" y="0" /><text fill="#FFFFFF" style="font-size:12px; font-family:Arial; font-weight:bold;" x="10" y="20">Over 10km Runs</text><text fill="#FFFFFF" style="font-size:4px; font-family:Arial" x="10" y="280">ATHLETE</text><text fill="#FFFFFF" style="font-size:9px; font-family:Arial" x="10" y="290">DuckTyping</text><text fill="#FFFFFF" style="font-size:4px; font-family:Arial" x="120" y="280">STATISTICS</text><text fill="#FFFFFF" style="font-size:3px; font-family:Arial" x="120" y="285">Number: 5</text><text fill="#FFFFFF" style="font-size:3px; font-family:Arial" x="120" y="290">Weekly: 1.0</text><text fill="#FFFFFF" style="font-size:3px; font-family:Arial" x="141" y="285">Total: 60.8 km</text><text fill="#FFFFFF" style="font-size:3px; font-family:Arial" x="141" y="290">Avg: 12.2 km</text><text fill="#FFFFFF" style="font-size:3px; font-family:Arial" x="167" y="285">Min: 10.0 km</text><text fill="#FFFFFF" style="font-size:3px; font-family:Arial" x="167" y="290">Max: 16.3 km</text><polyline fill="none" points="25.427522935671732,90.42038576479536 24.568807339528576,90.80712354846764 20.539449541131034,92.19937786710216 20.011009174166247,92.19937786710216 19.680733944987878,91.81264082342386 19.020183485932648,89.33751887670951 18.755963302683085,87.09443233831553 18.425688073039055,86.16625657491386 17.170642201788723,79.90103919518879 16.5761467886623,77.96731922973413 16.377981651108712,76.49768861784833 15.91559633007273,74.95070581877371 15.717431192751974,72.70757491653785 15.321100917411968,70.23238796181977 14.132110091624781,65.66873993357876 14.0,64.89523743011523 14.264220183482394,64.50848586991196 15.321100917411968,64.19908447342459 16.510091742966324,64.12173410388641 18.68990825675428,63.65763171331491 19.680733944987878,63.348229955125134 21.332110091578215,62.2653227650444 21.92660550470464,62.033271014573984 22.917431192239746,61.87856980646029 24.17247706418857,62.34267333231401 26.154128440190107,62.34267333231401 29.98532110080123,61.49181664234493 32.75963302724995,61.182413962844294 33.948623853269964,60.718309696763754 37.05321100912988,60.022152742603794 39.23302752291784,59.86745110695483 41.74311926611699,59.403346001927275 44.64954128442332,58.552485873689875 46.036697247764096,57.39222045830684 47.489908256800845,56.92811377387261 50.594495413126424,57.31486936483998 52.90642201830633,56.46400679345243 54.755963302915916,56.07725075026974 56.14311926602386,55.45844065316487 60.63486238522455,54.143467449059244 63.67339449538849,53.679358691733796 65.19266055058688,52.905843437998556 66.44770642183721,52.51908550289227 68.9577981652692,52.28703064273577 71.13761467882432,51.28145872789901 75.56330275256187,50.353237264673226 81.37614678917453,48.651494838879444 82.49908256903291,48.41943874506978 83.95229357830249,49.2703107270645 84.48073394503444,49.42501461680513 85.20733944978565,49.11560680437833 85.80183486244641,48.49679078452755 85.73577981675044,48.18738257710356 85.14128440385684,47.87797423824668 82.6972477065865,47.800622132839635 78.13944954122417,49.2703107270645 77.01651376159862,49.81177419726737 71.9302752292715,51.04940347315278 70.08073394512758,51.90027237846516 68.75963302771561,52.054975709063 66.44770642183721,52.82849186746171 65.39082568814047,52.82849186746171 60.30458715604618,54.375521716603544 58.58715596329421,54.60757591034053 56.07706422009505,55.53579194418853 54.09541284409352,55.99989951681346 51.65137614659034,57.00546490855049 50.264220183482394,57.00546490855049 50.52844036696479,57.23751826316584 51.056880733929574,57.160167153168004 52.972477064235136,56.309304400812835 57.46422018343583,54.99433273484465 58.58715596329421,54.68492729164427 61.62568807345815,54.375521716603544 65.58899082592689,53.13789810059825 66.77798165171407,52.44173389102798 68.82568807341158,52.054975709063 73.91192660550587,50.81734814424999 75.10091743106022,50.353237264673226 75.89357798174024,50.27588542253943 77.34678899077699,49.73442229774082 79.65871559642255,49.19295876985416 82.89541284414008,48.49679078452755 83.82018348644488,49.34766267606756 84.87706422037445,49.57971847371664 85.60366972489282,49.34766267606756 85.93394495430402,48.72884685359895 85.80183486244641,48.41943874506978 85.20733944978565,48.18738257710356 81.90458715590648,48.11003050481668 80.71559633035213,48.18738257710356 76.02568807359785,49.966477972164284 71.26972477091476,50.97205170500092 69.68440366978757,51.590865619073156 65.52293577976525,52.67378870153334 62.08807339449413,53.91141310730018 59.8422018350102,54.452873122587334 57.530275229364634,54.762278664682526 55.548623853130266,55.30373804655392 52.24587155948393,56.54135797737399 50.99082568800077,56.85076263110386 50.396330275107175,57.23751826316584 51.25504587148316,57.08281603484647 52.57614678912796,56.54135797737399 54.02935779816471,56.309304400812835 55.15229357779026,55.69049450138118 56.80366972461343,55.14903540740488 64.66422018362209,53.369952688983176 67.17431192682125,52.36438227101462 69.3541284406092,52.20967900642427 70.87339449557476,51.513513908779714 72.98715596366674,51.2041069844272 77.01651376159862,49.73442229774082 78.86605504574254,49.34766267606756 80.45137614686973,48.80619886011118 82.6972477065865,48.41943874506978 83.88623853214085,49.03825483057881 84.74495412851684,49.19295876985416 85.27339449548163,48.88355085859075 85.53761467919685,48.342086697230116 85.47155963303521,48.11003050481668 85.14128440385684,47.95532633521361 82.56513761472888,48.11003050481668 79.06422018352896,48.72884685359895 77.01651376159862,49.81177419726737 75.69541284395382,49.966477972164284 66.77798165171407,52.751140288601164 64.79633027524687,53.06054655474145 63.40917431213893,53.756710171699524 60.37064220220782,54.29817030217964 54.55779816489667,55.922548275324516 50.726605504751205,57.23751826316584 53.302752293646336,56.309304400812835 54.623853211058304,55.922548275324516 55.878899082541466,55.30373804655392 57.860550458543,55.07168407528661 61.09724770626053,54.143467449059244 62.94678899087012,53.91141310730018 65.45688073383644,52.82849186746171 66.976146788802,52.51908550289227 68.16513761458918,52.054975709063 71.00550458719954,51.590865619073156 75.23302752315067,50.19853357237298 78.27155963308178,49.81177419726737 80.64954128465615,48.651494838879444 81.44220183463767,48.41943874506978 82.49908256903291,48.26473464118317 83.75412844028324,48.960902848804835 84.94311926630326,49.19295876985416 85.4055045871064,49.19295876985416 85.66972477082163,48.88355085859075 85.66972477082163,48.41943874506978 85.20733944978565,48.18738257710356 82.1027522936929,47.95532633521361 80.31926605524495,48.41943874506978 76.75229357811622,49.657070389948785 65.98532110103406,52.59643710643286 63.54128440399654,53.524655706831254 57.530275229364634,54.68492729164427 55.68073394475505,55.61314322677208 52.24587155948393,56.773411480069626 50.3302752294112,57.08281603484647 51.056880733929574,57.23751826316584 53.03853211016394,56.309304400812835 54.2275229357183,56.07725075026974 55.68073394475505,55.53579194418853 58.58715596329421,54.762278664682526 60.50275229359977,54.452873122587334 62.08807339449413,53.91141310730018 66.24954128428362,53.06054655474145 67.90091743133962,52.905843437998556 71.13761467882432,51.66821732139215 76.68623853218742,50.04382984706899 79.39449541294016,49.50236654951004 81.44220183463767,48.651494838879444 82.6972477065865,48.574142815952655 83.95229357830249,49.34766267606756 84.74495412851684,49.57971847371664 85.27339449548163,49.50236654951004 85.66972477082163,49.03825483057881 85.73577981675044,48.342086697230116 85.00917431223206,47.95532633521361 82.43302752287127,47.95532633521361 78.86605504574254,48.960902848804835 77.54495412833057,49.57971847371664 76.48807339463383,49.657070389948785 68.56146788992919,51.977624047896825 67.50458715599962,52.44173389102798 64.99449541303329,52.98319500044454 62.682568807154894,53.83406164374901 56.73761467891745,55.14903540740488 55.086238531861454,55.69049450138118 50.46238532103598,56.92811377387261 51.32110091741197,56.92811377387261 55.548623853130266,55.38108935410855 58.322935779578984,55.14903540740488 60.568807339528576,54.29817030217964 63.67339449538849,53.679358691733796 65.98532110103406,52.905843437998556 68.75963302771561,52.44173389102798 70.80733944964595,51.513513908779714 72.78899082564749,51.28145872789901 76.48807339463383,49.966477972164284 78.60183486272581,49.657070389948785 81.77247706451453,48.41943874506978 82.6972477065865,48.41943874506978 84.67889908258803,49.2703107270645 85.20733944978565,49.11560680437833 85.80183486244641,48.574142815952655 85.66972477082163,48.342086697230116 85.20733944978565,48.11003050481668 83.29174311948009,47.95532633521361 79.13027522945777,48.651494838879444 76.8183486238122,49.657070389948785 72.52477064239793,51.12675523292273 62.682568807154894,53.524655706831254 60.568807339528576,54.22081887978129 57.59633027529344,54.762278664682526 56.67155963298865,55.07168407528661 54.49174311920069,55.61314322677208 50.396330275107175,57.160167153168004 51.45321100926958,56.92811377387261 52.90642201830633,56.23195319221122 54.623853211058304,55.76784576749196 55.746788990683854,55.69049450138118 57.530275229364634,55.07168407528661 60.04036697233096,54.530224520596676 61.229357798118144,54.0661160100135 63.67339449538849,53.756710171699524 65.06055045872927,53.13789810059825 67.76880733971484,52.67378870153334 72.06238532112911,51.2041069844272 78.93211009190418,49.657070389948785 79.98899082583375,49.34766267606756 81.31009174301289,48.574142815952655 82.89541284414008,48.41943874506978 83.75412844028324,49.2703107270645 84.81100917444564,49.57971847371664 85.53761467919685,49.42501461680513 85.93394495430402,48.88355085859075 86.0,48.49679078452755 85.60366972489282,48.032678424264304 84.94311926630326,47.95532633521361 82.1027522936929,48.11003050481668 80.38532110117376,48.41943874506978 79.13027522945777,49.03825483057881 73.3174311928451,50.739996351650916 67.63669724785723,52.20967900642427 65.85321100894362,52.751140288601164 57.46422018343583,54.83963002980454 56.27522935764864,55.22638673108304 54.95412844023667,55.45844065316487 53.43486238550395,56.154601975285914 50.46238532103598,57.160167153168004 51.056880733929574,57.160167153168004 55.15229357779026,55.69049450138118 58.785321101080626,54.60757591034053 62.484403669601306,53.83406164374901 64.00366972479969,53.369952688983176 65.19266055058688,53.21524963824777 66.64587155962363,52.59643710643286 68.03302752319723,52.36438227101462 74.44036697247066,50.739996351650916 75.76146789011545,50.58529274153989 77.61100917449221,49.81177419726737 79.46055045886897,49.42501461680513 81.1119266054593,48.80619886011118 82.56513761472888,48.574142815952655 84.08440366992727,49.19295876985416 85.00917431223206,49.2703107270645 85.66972477082163,48.960902848804835 85.86788990837522,48.574142815952655 85.80183486244641,48.342086697230116 85.27339449548163,48.18738257710356 83.48990825680085,47.95532633521361 82.76330275274813,47.95532633521361 81.17798165138811,48.26473464118317 78.73394495435059,49.2703107270645 70.01467889919877,51.513513908779714 64.33394495421089,53.21524963824777 61.29541284404695,53.83406164374901 55.416513761505485,55.76784576749196 53.633027523057535,56.07725075026974 51.78348623844795,56.69606032088632 50.396330275107175,56.618709153321106 50.19816513778642,56.773411480069626 50.3302752294112,57.160167153168004 50.79266055044718,57.160167153168004 53.633027523057535,56.309304400812835 55.48256880743429,55.53579194418853 58.05871559656225,55.14903540740488 62.15412844042294,53.988764562644064 63.805504587246105,53.83406164374901 65.25871559628285,53.13789810059825 69.3541284406092,52.132327361847274 71.20366972475313,51.358810462930705 72.78899082564749,51.12675523292273 74.37431192654185,50.43058909854153 76.88440366997384,49.88912608876126 80.18715596338734,48.651494838879444 82.30091743124649,48.18738257710356 82.6972477065865,48.11003050481668 83.55596330272965,48.72884685359895 84.34862385317683,49.03825483057881 85.4055045871064,49.03825483057881 85.93394495430402,48.574142815952655 85.80183486244641,48.26473464118317 85.47155963303521,48.18738257710356 84.28256880748086,48.11003050481668 82.36697247740813,48.18738257710356 80.58348623849452,48.41943874506978 79.98899082583375,48.574142815952655 78.40366972493939,49.34766267606756 74.17614678898826,50.739996351650916 70.14678899082355,51.82292070100084 68.16513761458918,52.20967900642427 66.05137614696287,52.751140288601164 60.70091743138619,54.60757591034053 57.992660550400615,54.91698138642823 56.34128440381028,55.45844065316487 54.35963302757591,55.845197025395464 53.03853211016394,56.46400679345243 50.726605504751205,57.23751826316584 53.69908256875351,56.309304400812835 55.878899082541466,55.38108935410855 59.24770642211661,54.99433273484465 60.568807339528576,54.375521716603544 62.74862385331653,53.83406164374901 63.87155963317491,53.369952688983176 68.42935779830441,52.44173389102798 69.94862385326996,51.82292070100084 72.06238532112911,51.358810462930705 74.44036697247066,50.50794092420256 80.18715596338734,49.11560680437833 82.43302752287127,48.342086697230116 84.67889908258803,49.19295876985416 85.0752293576952,49.19295876985416 85.60366972489282,48.960902848804835 85.93394495430402,48.49679078452755 85.66972477082163,48.18738257710356 84.28256880748086,47.87797423824668 82.1027522936929,48.18738257710356 80.51743119279854,48.574142815952655 77.08256880752742,49.966477972164284 75.36513761477545,50.27588542253943 72.45871559623629,51.28145872789901 70.08073394512758,51.66821732139215 68.2972477064468,52.44173389102798 65.65504587162286,53.13789810059825 62.814678899012506,54.0661160100135 56.01100917439908,55.53579194418853 52.510091742966324,56.85076263110386 50.46238532103598,57.46957154368283 50.66055045858957,57.46957154368283 51.849541284609586,56.69606032088632 54.82201834861189,55.53579194418853 59.57798165152781,54.60757591034053 64.73027522931807,53.21524963824777 67.04220183496363,52.905843437998556 69.22201834875159,52.054975709063 70.47706422000192,51.745569015154615 71.86422018357553,51.590865619073156 73.8458715598099,50.81734814424999 77.94128440367058,49.657070389948785 80.58348623849452,49.19295876985416 82.36697247740813,48.342086697230116 82.6972477065865,48.41943874506978 83.6880733948201,49.11560680437833 84.87706422037445,49.42501461680513 85.60366972489282,49.2703107270645 85.86788990837522,48.80619886011118 85.86788990837522,48.49679078452755 85.33944954141043,48.18738257710356 82.30091743124649,48.11003050481668 78.8000000002794,49.11560680437833 76.68623853218742,50.04382984706899 74.90275229350664,50.43058909854153 73.11926605529152,51.12675523292273" stroke="#4dd2ff" stroke-linecap="round" stroke-linejoin="round" stroke-width="0.5"><title>2023-11-26 12.7km</title><desc>10282459870</desc></polyline><polyline fill="none" points="131.07936507905833,89.7024440857931 128.2857142854482,90.22286939172773 125.1111111107748,90.66894791729283 121.74603174580261,91.41241149406414 118.57142857112922,91.11502615798963 117.99999999976717,87.99247249576729 117.2380952378735,84.34947559831198 116.53968253964558,80.63211225968553 116.2857142854482,78.17864162946353 115.39682539668866,74.08950478065526 114.50793650769629,70.66948105051415 114.12698412663303,67.91858025820693 115.20634920615703,65.09331952955108 117.55555555527098,64.57287551846821 120.60317460284568,63.30893845035462 123.46031746012159,62.49109560018405 126.38095238059759,61.97064965206664 129.49206349183805,61.22715476824669 132.34920634888113,60.63235829205951 135.1428571427241,59.963211651484016 138.50793650746346,59.36841410002671 141.36507936473936,58.77361604216276 144.34920634888113,58.104467622586526 148.09523809491657,57.137918774737045 151.58730158698745,56.171368590556085 156.15873015858233,55.279167234373745 159.58730158722028,54.53566523472546 162.3174603173975,53.71781212161295 165.68253968236968,52.89995805209037 168.66666666674428,52.00775252096355 172.2857142854482,51.115545851469506 175.71428571431898,49.851584453717805 179.9682539680507,48.36456811905373 183.39682539645582,48.36456811905373 186.0,50.52074077236466 183.01587301585823,50.372039423615206 179.26984126958996,49.92593518755166 175.6507936506532,51.04119524417911 173.30158730130643,51.71035042422591 170.88888888875954,52.379504963813815 168.03174603148364,53.27171002031537 164.85714285681024,54.23826421331614 162.25396825373173,54.833066129591316 160.09523809491657,55.799618163960986 156.73015872994438,56.32006870594341 153.93650793633424,57.06356880796375 151.1428571427241,57.807068119582254 148.41269841277972,58.624916448956355 150.63492063456215,57.36096862750128 152.9841269836761,56.691818855761085 155.90476190438494,56.245718652091455 159.07936507905833,55.279167234373745 162.44444444426335,54.53566523472546 165.93650793633424,53.56911145284539 169.1111111107748,52.75125720904907 172.34920634888113,51.78470096032834 175.1428571427241,50.96684462914709 177.80952380923554,50.14898734114831 180.98412698390894,49.554181439976674 183.58730158698745,49.77723371202592 182.1904761902988,49.554181439976674 179.1428571427241,49.77723371202592 176.66666666627862,50.743792736320756 173.74603174603544,51.48729876882862 171.4603174601216,52.379504963813815 168.98412698390894,52.97430846147472 166.3809523805976,53.71781212161295 163.20634920615703,54.758715917530935 160.53968253941275,55.42786753963446 158.19047619053163,56.09701852116268 155.07936507905833,56.98921883339062 152.47619047597982,57.43531856260961 150.06349206296727,58.104467622586526 149.55555555550382,58.104467622586526 151.841269840952,56.98921883339062 154.82539682509378,56.76616886211559 158.19047619053163,55.799618163960986 161.3650793649722,54.90741633361904 164.85714285681024,53.94086306571262 167.4603174601216,53.19735964247957 169.93650793656707,52.528205885668285 172.53968253941275,51.48729876882862 176.1587301583495,50.52074077236466 178.57142857136205,49.77723371202592 181.30158730153926,49.10807668179041 181.99999999976717,49.47983066656161 179.20634920615703,49.77723371202592 176.79365079361014,50.66944208968198 173.93650793633424,51.41294820117764 171.39682539668866,52.15645352186402 168.98412698390894,52.97430846147472 165.80952380946837,53.56911145284539 163.26984126958996,54.31261448061559 160.22222222178243,55.42786753963446 157.55555555527098,56.022668443562 154.6984126982279,56.46876878954936 152.03174603148364,57.21226873353589 148.98412698390894,58.17881747870706 150.12698412663303,57.88141800730955 153.2380952378735,56.84051886043744 155.58730158722028,56.39441875182092 158.44444444426335,55.72526805481175 162.25396825373173,54.61001547018532 164.60317460284568,53.94086306571262 166.8253968253266,53.19735964247957 169.80952380923554,52.45385542878648 172.1587301583495,51.93340200872626 174.63492063479498,51.18989645066904 178.31746031716466,50.14898734114831 180.73015872994438,49.47983066656161 183.2063492059242,49.77723371202592 181.42857142840512,49.47983066656161 178.1904761902988,49.851584453717805 175.71428571431898,50.66944208968198 173.1111111107748,51.41294820117764 170.69841269799508,52.230804010352585 167.71428571408615,53.34606039040955 164.53968253917992,54.08956365525955 162.19047619006597,54.758715917530935 159.71428571408615,55.42786753963446 155.77777777728625,56.022668443562 153.68253968213685,56.84051886043744 151.33333333325572,57.50966848974349 148.98412698390894,58.401866999454796 150.12698412663303,57.88141800730955 151.96825396781787,57.21226873353589 154.12698412686586,56.46876878954936 156.41269841231406,56.022668443562 159.7777777777519,55.576567812939174 162.44444444426335,54.758715917530935 165.42857142840512,53.866512758948375 168.1587301583495,52.6769067759742 170.69841269799508,52.08210302545922 174.38095238083042,51.18989645066904 177.49206349183805,50.595091435010545 180.85714285704307,49.554181439976674 183.52380952355452,50.00028591329465 181.7460317458026,49.62853220530087 178.5079365076963,49.851584453717805 176.1587301583495,50.743792736320756 173.49206349183805,51.41294820117764 171.3333333330229,52.230804010352585 168.98412698390894,52.89995805209037 167.07936507929116,53.79216244420968 165.30158730153926,54.53566523472546 162.6984126982279,55.279167234373745 158.63492063456215,55.799618163960986 155.9682539680507,56.32006870594341 152.85714285704307,57.06356880796375 150.44444444403052,57.807068119582254 148.920634920476,58.401866999454796 150.76190476166084,57.58401840896113 152.79365079361014,56.84051886043744 156.22222222178243,56.46876878954936 158.69841269846074,55.72526805481175 161.17460317444056,55.05611671751831 163.7777777777519,54.23826421331614 167.841269840952,52.97430846147472 170.95238095219247,52.379504963813815 173.8730158729013,51.338597625494 177.0476190475747,50.372039423615206 179.1428571427241,49.70288296259241 181.49206349207088,49.47983066656161 183.2063492059242,49.851584453717805 180.73015872994438,49.40547988557955 178.31746031716466,50.074636631296016 175.0158730156254,50.96684462914709 172.60317460307851,51.78470096032834 170.19047619006597,52.60255633469205 167.9682539680507,53.420410752587486 165.68253968236968,54.16391393833328 162.76190476166084,55.13046689791372 160.34920634911396,55.94831835833611 156.98412698390894,56.39441875182092 154.63492063456215,56.98921883339062 151.58730158698745,57.65836832043715 148.98412698390894,58.55056664021686 150.44444444403052,57.807068119582254 152.9841269836761,57.137918774737045 156.2857142854482,56.46876878954936 159.0158730156254,55.576567812939174 161.49206349207088,54.90741633361904 164.28571428568102,54.015213364386 166.76190476166084,53.56911145284539 169.74603174603544,52.528205885668285 172.73015872994438,51.63599988044007 175.52380952378735,51.04119524417911 178.25396825373173,50.074636631296016 181.55555555527098,49.554181439976674 183.07936507929116,49.70288296259241 180.53968253941275,49.554181439976674 177.61904761870392,50.00028591329465 175.20634920615703,51.04119524417911 172.98412698414177,51.859051488456316 169.80952380923554,52.6769067759742 166.8888888885267,53.64346179109998 164.53968253917992,54.3869647399988 161.99999999976717,55.05611671751831 159.52380952355452,55.650917937920894 155.6507936506532,56.39441875182092 153.2380952378735,57.21226873353589 150.3809523805976,57.7327182238223 149.55555555550382,58.104467622586526 152.92063492024317,56.98921883339062 155.71428571385331,56.39441875182092 158.19047619053163,55.72526805481175 160.66666666651145,55.13046689791372 163.3333333330229,54.31261448061559 165.7460317458026,53.79216244420968 168.7936507933773,52.89995805209037 171.20634920615703,52.15645352186402 174.25396825396456,51.338597625494 176.79365079361014,50.52074077236466 178.95238095219247,49.92593518755166 181.8730158729013,49.70288296259241 183.2063492059242,49.70288296259241 180.7936507933773,49.331129096390214 177.36507936473936,50.14898734114831 175.0158730156254,51.04119524417911 172.53968253941275,51.71035042422591 169.99999999976717,52.45385542878648 166.6984126982279,53.27171002031537 164.22222222201526,54.015213364386 160.73015872971155,55.05611671751831 158.12698412686586,55.650917937920894 154.88888888875954,56.46876878954936 152.47619047597982,57.137918774737045 150.06349206296727,57.95576788694598 149.49206349183805,58.17881747870706 151.96825396781787,57.36096862750128 154.38095238106325,56.76616886211559 156.73015872994438,56.022668443562 159.84126984118484,55.05611671751831 162.95238095195964,54.16391393833328 165.61904761870392,53.49476110661635 170.25396825373173,52.45385542878648 172.79365079361014,51.71035042422591 175.84126984118484,50.81814337515971 178.57142857136205,49.92593518755166 181.04761904734187,49.554181439976674 183.3333333330229,49.77723371202592 181.49206349207088,49.47983066656161 179.33333333325572,49.62853220530087 176.03174603148364,50.743792736320756 173.8730158729013,51.338597625494 170.95238095219247,52.230804010352585 168.1587301583495,52.75125720904907 165.42857142840512,53.64346179109998 162.88888888875954,54.23826421331614 160.60317460284568,55.05611671751831 157.80952380946837,55.72526805481175 154.82539682509378,56.245718652091455 152.47619047597982,57.137918774737045 150.2539682534989,57.807068119582254 150.57142857136205,57.807068119582254 153.30158730130643,56.98921883339062 155.3333333330229,56.32006870594341 157.80952380946837,55.799618163960986 160.920634920476,54.9817665295559 163.3333333330229,54.23826421331614 165.80952380946837,53.79216244420968 168.7936507933773,52.82560763449874 171.3333333330229,52.15645352186402 174.3174603173975,51.18989645066904 176.920634920476,50.372039423615206 178.95238095219247,49.70288296259241 181.30158730153926,49.40547988557955 182.6984126982279,49.70288296259241 180.2222222222481,49.554181439976674 177.17460317444056,50.297688737278804 174.12698412663303,51.41294820117764 171.26984126958996,52.230804010352585 168.4126984125469,52.82560763449874 165.55555555550382,53.49476110661635 163.0793650788255,54.31261448061559 160.73015872971155,55.05611671751831 158.25396825373173,55.576567812939174 155.39682539668866,56.09701852116268 152.9841269836761,56.84051886043744 150.63492063456215,57.7327182238223 149.2380952378735,58.17881747870706 151.20634920615703,57.58401840896113 154.1904761902988,56.76616886211559 156.98412698390894,56.171368590556085 160.1587301583495,55.13046689791372 163.0158730156254,54.16391393833328 166.76190476166084,52.45385542878648 171.90476190461777,52.305154490983114 175.07936507905833,50.89249400602421 177.36507936473936,50.297688737278804 179.84126984118484,49.554181439976674 182.88888888875954,49.554181439976674 181.8730158729013,49.40547988557955 178.5079365076963,49.70288296259241 176.34920634888113,50.297688737278804 173.61904761870392,51.115545851469506 171.0158730156254,52.08210302545922 168.03174603148364,52.82560763449874 165.93650793633424,53.71781212161295 162.25396825373173,54.46131499129115 156.66666666651145,55.650917937920894 153.55555555527098,56.84051886043744 150.2539682534989,57.7327182238223 149.42857142840512,58.104467622586526 151.46031745988876,57.50966848974349 153.68253968213685,56.691818855761085 157.30158730130643,55.576567812939174 159.84126984118484,54.758715917530935 162.76190476166084,54.31261448061559 166.95238095219247,53.34606039040955 170.57142857112922,52.00775252096355 173.61904761870392,51.26424704195233 176.22222222201526,50.595091435010545 178.95238095219247,49.851584453717805 181.17460317444056,49.47983066656161 183.52380952355452,49.851584453717805 181.80952380923554,49.40547988557955 179.4603174601216,49.47983066656161 176.03174603148364,50.446390102035366 173.80952380923554,51.18989645066904 171.20634920615703,51.78470096032834 169.04761904710904,52.528205885668285 167.1428571427241,53.19735964247957 163.71428571408615,54.16391393833328 161.30158730130643,54.684365697961766 157.80952380946837,55.576567812939174 155.20634920615703,56.39441875182092 152.7301587301772,56.98921883339062 150.31746031716466,57.65836832043715 149.1111111107748,58.03011775872437 151.2698412698228,57.43531856260961 154.88888888875954,56.245718652091455 157.61904761893675,55.72526805481175 160.7936507933773,54.90741633361904 163.52380952355452,53.94086306571262 165.7460317458026,53.49476110661635 168.92063492024317,52.379504963813815 172.03174603148364,51.78470096032834 175.33333333325572,50.96684462914709 177.49206349183805,50.223338043142576 180.60317460307851,49.70288296259241 183.58730158698745,49.92593518755166 181.17460317444056,49.40547988557955 177.49206349183805,50.14898734114831 175.07936507905833,50.81814337515971 172.98412698414177,51.48729876882862 170.3174603173975,52.230804010352585 167.90476190438494,52.75125720904907 165.68253968236968,53.49476110661635 162.3174603173975,54.46131499129115 159.33333333325572,55.279167234373745 156.7936507933773,55.72526805481175 154.761904761428,56.617468841723166 152.7301587301772,56.98921883339062 149.80952380923554,57.88141800730955 149.8730158729013,57.88141800730955 152.47619047597982,57.06356880796375 154.44444444403052,56.39441875182092 158.12698412686586,55.50221768033225 160.34920634911396,54.833066129591316 162.76190476166084,54.23826421331614 164.85714285681024,53.49476110661635 167.39682539645582,52.89995805209037 169.68253968236968,52.15645352186402 172.34920634888113,51.41294820117764 174.63492063479498,50.89249400602421 177.36507936473936,50.074636631296016 179.58730158722028,49.70288296259241 182.1904761902988,49.47983066656161 183.58730158698745,49.77723371202592 180.60317460307851,49.40547988557955 178.5079365076963,49.70288296259241 176.34920634888113,50.446390102035366 174.25396825396456,51.115545851469506 171.96825396781787,51.63599988044007 169.93650793656707,52.379504963813815 167.4603174601216,53.04865886317566 165.7460317458026,53.49476110661635 163.20634920615703,54.16391393833328 161.68253968213685,54.758715917530935 159.65079365042038,55.279167234373745 157.0476190475747,55.72526805481175 154.761904761428,56.54311881941976 152.92063492024317,56.914868850959465 150.88888888875954,57.50966848974349 148.85714285681024,58.17881747870706" stroke="#4dd2ff" stroke-linecap="round" stroke-linejoin="round" stroke-width="0.5"><title>2023-04-28 16.3km</title><desc>9223370354162539235</desc></polyline><polyline fill="none" points="29.206645059166476,150.1642467919737 27.144033442949876,150.4906292106025 23.966496628941968,151.27394630707568 21.792392493225634,151.46977542497916 18.22463185992092,149.64203456166433 17.55567674105987,146.96568990784 16.998214142164215,145.07265859562904 16.217766503803432,141.41713333514053 15.71605016454123,139.6546401642263 15.325826345244423,136.45602852181764 14.601124966749921,132.86573029501596 14.545378706650808,130.58098412695108 15.604557644575834,127.96983523661038 16.88672162243165,127.51288303860929 19.116572018247098,126.9906515388866 21.792392493225634,126.46841959498124 23.74351158947684,126.07674534543185 25.527391906129196,125.61979173839791 27.757242301944643,125.22811694740085 29.76410765806213,124.77116270869737 31.60373423458077,124.37948737613624 33.83358463039622,124.05309107498033 36.342166325775906,123.53085663181264 38.181792902294546,123.26973924360937 41.08059841673821,122.42110696493182 43.198956292821094,121.89887113345321 44.98283660924062,121.50719396822387 47.54716456448659,120.98495735926554 49.442537400871515,120.4627203058335 51.059178937925026,119.94048280804418 53.01029803417623,119.54880439315457 55.35164094995707,118.89600647980114 57.58149134553969,118.50432739843382 59.755595481721684,118.112648067181 61.76246083783917,117.39456864411477 63.99231123365462,116.3500879839412 66.16641536960378,115.69728666864103 69.06522088404745,114.84864392102463 71.51805631956086,114.1958410089137 73.91514549497515,114.06528034317307 75.81051833136007,114.26112133124843 77.87312994757667,115.10976489132736 79.32253270456567,116.21952777641127 80.71618920215406,117.91680830810219 81.27365180081688,121.11551655299263 82.44432325894013,123.92253250570502 82.89029333787039,126.59897762269247 83.11327837780118,128.6879022885696 83.33626341726631,130.90737695730058 83.72648723633029,132.86573029501596 81.55238310038112,134.88935551431496 78.76507010567002,135.99908264091937 76.8696972692851,136.78241822839482 74.91857817280106,137.36991926305927 73.24619037634693,137.82686412363546 70.06865356233902,138.41436415881617 68.0617882059887,139.00186363147805 66.05492284963839,139.5240849131951 64.10380375338718,139.98102817032486 62.26417717686854,140.5685261436738 61.149251979077235,140.82963617373025 59.25387914269231,141.48241076275008 56.96828248677775,142.2004620092921 53.51201437343843,143.31017591961427 50.89194015832618,144.09350217803149 48.717836022609845,142.13518465787638 47.9373883837834,140.24213845009217 47.324179525021464,138.21853087615455 46.76671692612581,135.6074144722661 46.209254327230155,133.71434813464293 45.37306042877026,131.6907190422644 44.70410531014204,129.92819794570096 44.20238897111267,128.03511409414932 43.58918011188507,126.20730345638003 42.975971253355965,124.31420812977012 43.867911411682144,122.09470962232444 45.038582869106904,121.63775305106537 46.71097066625953,121.05023695959244 48.4391047230456,120.72383888805052 51.059178937925026,120.00576251948951 53.06604429427534,119.41824486601399 55.01716339052655,118.89600647980114 56.68955118744634,118.43904752732487 58.52917776373215,118.04736815457 60.64753563981503,117.45984862645855 62.8216397757642,116.74176843970781 64.82850513188168,116.02368741302053 66.835370488232,115.50144613871817 68.78648958471604,114.97920442017494 70.73760868073441,114.52224255166948 72.85596655705012,114.06528034317307 74.86283191316761,114.0 76.81395100918598,114.65280312020332 79.32253270456567,116.08896754111629 80.93917424138635,117.72096848615911 81.32939806091599,120.59327961079543 82.1098456995096,123.00862174434587 82.55581577843986,124.9017210972961 82.9460395979695,126.92537257028744 83.22477089730091,128.62262350023957 83.55924845673144,130.45042694621952 83.670740976464,132.93100863217842 83.55924845673144,135.67269251786638 83.72648723633029,137.89214193302905 83.89372601616196,139.9157505829353 84.00521853589453,141.93935256212717 84.45118861482479,144.22405645722756 84.45118861482479,146.24764423514716 84.61842739465646,148.2059486369253 84.95290495408699,150.09897028765408 85.34312877361663,152.18781498994213 85.62186007294804,154.21137651772005 85.56611381284893,156.23493137583137 85.39887503325008,157.99737694684882 84.33969609532505,161.1958763570292 81.88686065981165,162.30555593204917 79.87999530369416,163.28468330355827 78.76507010567002,164.00270905025536 77.03693604911678,164.72073395730695 74.08238427434117,165.89568199345376 72.29850395815447,166.80952891154448 70.68186242110096,167.5928251875448 68.11753446585499,168.63721866742708 66.50089292880148,169.42051261133747 64.32678879308514,170.33435428299708 62.48716221610084,171.11764606198994 60.703281899681315,171.63984002609504 57.915968904970214,172.42313013941748 56.24358110805042,173.206419253489 54.62693957122974,173.92443339695456 52.50858169537969,174.7729944838211 50.89194015832618,175.55628060002346 49.219552361406386,176.33956571714953 47.65865708445199,176.99230255116709 45.81903050770052,177.77558583626524 44.09089645091444,178.62414160062326 42.41850865422748,179.40742280398263 40.63462833757512,180.19070300791645 39.01798680052161,180.77816250512842 37.457091523567215,181.30034825310577 35.72895746701397,181.757260418206 34.61403226898983,182.08362604217837 31.15776415565051,183.71545156039065 29.76410765806213,184.69454478967236 27.590003522112966,185.73890917998506 25.248660606564954,183.58490567852277 24.969929307233542,181.82253355684225 24.46821296820417,179.92960971745197 24.02224288904108,178.23250062437728 23.52052655001171,176.2090182667598 23.13030273048207,173.66333744180156 22.684332651551813,171.3787430994562 22.12687005265616,169.28996369004017 21.792392493225634,167.33172653988004 21.45791493356228,166.02623163664248 20.956198594765738,163.6763338149758 20.398735995637253,160.60839812265476 19.785527136875317,158.45430645422311 19.451049577444792,156.4307589114178 18.893586978549138,153.49333931982983 18.2803781197872,150.6211821293109 18.00164682022296,148.85871538275387 17.55567674105987,146.5740287360386 17.276945441728458,145.33376670989674 16.83097536256537,143.11434419889702 16.273512763669714,141.41713333514053 15.71605016454123,138.5449196456466 15.381572605110705,136.39075055957073 15.04709504591301,134.4324084672262 14.879856266081333,133.12684360140702 14.489632447017357,130.77681984601077 14.210901147220284,128.75318106991472 15.548811384942383,128.6879022885696 16.998214142164215,128.4920659030322 19.228064537979662,127.44760412542382 21.569407453527674,126.86009359452873 23.409034030046314,126.46841959498124 25.13716808706522,126.01146627962589 26.865302143618464,125.55451262387214 28.983660019701347,125.16283779137302 30.767540336120874,124.64060429227538 32.71865943260491,124.37948737613624 34.33530096942559,123.98781179380603 36.063435026211664,123.53085663181264 37.735822822898626,123.40029795159353 39.5754493996501,123.00862174434587 41.582314755767584,122.48638641258003 43.53343385225162,121.96415063668974 45.1500753890723,121.57247351302067 46.76671692612581,121.18079613969894 48.4391047230456,120.65855925279902 50.111492519732565,120.20160161249805 52.00686535611749,119.94048280804418 53.84649193286896,119.48352463316405 55.07290965039283,119.15712572849588 56.85678996704519,118.50432739843382 59.14238662272692,117.7862484335783 60.257311820751056,117.52512860187562 61.9854458773043,117.13344864576356 63.71357993432321,116.61120831570588 65.60895277070813,115.95840727811446 67.33708682726137,115.4361659483402 69.90141478250735,114.71808339405106 71.12783250003122,114.39168195531238 73.19044411624782,114.13056067965226 74.86283191316761,114.13056067965226 77.76163742761128,115.10976489132736 79.7685027839616,116.74176843970781 80.93917424138635,118.56960726261605 81.60812936048023,120.4627203058335 81.99835317977704,121.63775305106537 82.50006951880641,123.6614152842667 82.9460395979695,126.01146627962589 83.05753211770207,127.7087197364308 83.33626341726631,129.40596850053407 83.55924845673144,131.23376961413305 83.83797975606285,133.1921219107462 83.61499471659772,136.2601946145296 83.78223349619657,137.36991926305927 83.89372601616196,139.13241899368586 84.00521853589453,141.54768818360753 84.17245731549338,143.31017591961427 84.28394983522594,144.68099621596048 84.39544235519134,146.5740287360386 84.78566617425531,148.46705541852862 84.95290495408699,150.4906292106025 85.34312877361663,152.44892007793533 85.56611381284893,154.0808243622887 85.844845112646,155.7127243091236 85.73335259244777,157.47517137939576 85.2316362534184,159.23761339002522 83.89372601616196,161.45697761385236 82.16559195960872,162.37083113886183 80.43745790258981,163.15413307759445 78.76507010567002,164.13325909577543 77.20417482871562,164.9165587859461 75.75477207149379,165.50403289776295 73.7479067153763,166.02623163664248 72.68872777698562,166.74425417691236 70.73760868073441,167.7886491002282 69.17671340354718,168.50666957953945 67.61581812682562,169.15941474109422 66.05492284963839,169.74688479304314 64.27104253321886,170.3996286363108 62.43141595670022,170.9870975013473 60.64753563981503,171.770388447796 58.91940158326179,172.42313013941748 57.1355212663766,172.81477482127957 55.5746259894222,173.59806343563832 53.90223819250241,174.25080318452092 52.620074215112254,175.03408996696817 51.78388031665236,175.49100679525873 49.2752986215055,176.47011313948315 47.825895864050835,177.31867070798762 46.04201554739848,177.9714065011358 44.48112027044408,178.62414160062326 43.477687592152506,179.1463291805121 41.41507597616874,179.99488305067644 39.40821062005125,180.77816250512842 37.79156908299774,181.3656214402872 36.286420065909624,182.21417224314064 34.669778528856114,182.93217585294042 33.164629511768,183.51963272725698 31.659480494447052,184.17236192827113 30.377316517056897,184.95563605369534 28.649182460270822,185.67363645753358 25.527391906129196,184.8903632480651 25.081421826966107,183.19326786638703 24.802690527401865,181.757260418206 24.46821296820417,180.12542969553033 24.133735408773646,178.95050889020786 23.632019069744274,177.12284983473364 23.186048990581185,174.83826836489607 22.85157143115066,172.74950072506908 22.572840131586418,170.92182321101427 21.95963127305731,168.63721866742708 21.346422413829714,166.09150644764304" stroke="#4dd2ff" stroke-linecap="round" stroke-linejoin="round" stroke-width="0.5"><title>2023-04-17 10.0km</title><desc>9223370355117402580</desc></polyline><polyline fill="none" points="156.44428198915557,156.15918140892245 156.21758481065626,156.18468145659426 156.12358841957757,156.1273063349654 155.97430003373302,156.1273063349654 155.86371604420128,156.15280639540288 155.77524885258754,156.19105646690878 155.7697196531226,156.20380648563514 155.81395324892947,156.2356815212661 155.80289484997047,156.27393154296806 155.7586612541345,156.31218154168164 155.7586612541345,156.33130653241096 155.80842404943542,156.33130653241096 155.96324163477402,156.2866815450907 156.04065042742877,156.2293065154263 156.20652641169727,156.1273063349654 156.38346079495386,156.06355613917913 156.42769439073163,156.06993116162266 156.47745718600345,156.08905622515886 156.46639878707356,156.14005636647198 156.52169078183942,156.1273063349654 156.5438075797574,156.1273063349654 156.65439156926004,156.197431476583 156.88108874775935,156.27393154296806 156.92532234356622,156.28030654434406 157.1022567267937,156.26118153829157 157.22942831474938,156.22293150893893 157.25154511266737,156.20380648563514 157.25154511266737,156.1783064456431 157.31789550636313,156.15280639540288 157.34554150374606,156.13368135104247 157.35659990267595,156.11455630093042 157.4340086953598,156.0826812046107 157.49482988959062,156.08905622515886 157.66070587388822,156.06993116162266 157.72152706811903,156.06993116162266 157.74364386603702,156.08905622515886 157.82658185815671,156.09543124506672 157.97034104450722,156.13368135104247 157.99798704189016,156.11455630093042 158.0035162413842,156.08905622515886 158.0035162413842,156.0763061834441 157.98692864293116,156.06355613917913 157.92610744870035,156.06993116162266 157.8708154539636,156.13368135104247 157.79893586077378,156.15280639540288 157.7878774618148,156.16555642179446 157.71599786862498,156.19105646690878 157.72705626758398,156.197431476583 157.66623507332406,156.24843153105758 157.39530429904698,156.3058065434925 157.31236630689818,156.2675565409554 157.3013079079392,156.21018149403244 157.19072391840746,156.16555642179446 157.030377133633,156.13368135104247 156.7096835639968,156.15918140892245 156.53827838026336,156.16555642179446 156.4719279865385,156.18468145659426 156.23970160857425,156.2930565451934 156.21205561119132,156.2356815212661 156.17888041434344,156.1783064456431 156.14570521746646,156.17193143404074 156.0682964248117,156.17193143404074 155.9245372384321,156.21655650180764 155.9024204405141,156.24205652649107 155.91900803896715,156.26118153829157 155.95771243530908,156.2675565409554 156.00194603108685,156.2356815212661 156.0074752305809,156.21018149403244 156.01300443004584,156.18468145659426 155.96324163477402,156.11455630093042 155.99088763212785,156.15280639540288 156.0074752305809,156.16555642179446 156.0074752305809,156.08905622515886 156.01853362951078,156.06355613917913 156.02959202846978,155.98068078918368 156.01853362951078,155.78305451910273 156.00194603108685,155.67467856208532 156.01300443004584,155.6491783100755 156.15676361642545,155.61092791291594 156.17888041434344,155.62367804787573 156.30052280280506,155.74480420241161 156.41663599180174,155.82767985954342 156.47745718600345,155.89143029159095 156.52721998130437,155.91693044652857 156.64333317030105,156.05718111609167 156.69862516506691,156.08905622515886 156.79815075563965,156.10180626431975 156.90320554567734,156.08905622515886 156.99720193675603,156.09543124506672 157.23495751424343,156.0763061834441 157.373187501129,156.08905622515886 157.384245900088,156.10180626431975 157.50035908905556,156.08905622515886 157.66070587388822,156.10818128293613 157.68835187124205,156.1273063349654 157.78234826232074,156.1273063349654 157.8486986560456,156.14643138125757 157.93716584765934,156.14643138125757 157.95375344608328,156.19105646690878 157.97587024400127,156.1783064456431 157.98692864293116,156.15280639540288 157.98692864293116,156.13368135104247 157.95375344608328,156.10818128293613 157.87634465342853,156.05718111609167 157.8486986560456,156.0508060923712 157.85422785551054,156.0826812046107 157.7657606638968,156.10180626431975 157.67729347231216,156.16555642179446 157.66070587388822,156.20380648563514 157.66623507332406,156.24843153105758 157.6220014775172,156.2866815450907 157.5390634853975,156.3886814701291 157.384245900088,156.43968137134652 157.32895390532212,156.36318150419174 157.27366191055626,156.32493153614632 157.11884432521765,156.24843153105758 156.87003034882946,156.197431476583 156.70415436453186,156.14005636647198 156.51616158234538,156.09543124506672 156.37240239599487,156.10180626431975 156.33369799965294,156.11455630093042 156.02406282900483,156.15918140892245 155.95218323581503,156.18468145659426 155.93006643789704,156.20380648563514 155.82501164785936,156.24843153105758 155.77524885258754,156.28030654434406 155.7697196531226,156.29943154466673 155.78077805205248,156.31855653920502 155.8194824484235,156.33130653241096 156.0682964248117,156.2675565409554 156.20099721220322,156.24843153105758 156.5659243776172,156.03805604298032 156.8645011493354,155.76392936363118 157.0524939314928,155.5599273476182 156.96402673990815,155.50892674144052 156.8036799551046,155.47705134183343 153.9063794297399,147.2462888407972 142.06283415234066,114.13396393203948 142.0904801497236,114.16586006470607 142.0794217507937,114.18499773660733 142.03518815498683,114.20413540275695 142.01860055653378,114.19137695930112 142.00201295810984,114.15310161355956 141.9964837586449,114.11482624478231 142.01307135709794,114.0765508529148 142.0904801497236,114.0127584818947 142.1402429450245,114.0 142.2231809371733,114.0 142.26188533348613,114.01913772187618 142.30058972979896,114.04465467540649 145.33059104261338,184.38148456481576 145.40799983526813,184.43883423931038 145.43564583265106,184.47069514728355 145.42458743369207,184.51530039169302 145.42458743369207,184.53441691544504 145.45776263053995,184.59813861991643 145.54070062268875,184.68097674046658 145.6070510164136,184.73195399191172 145.72869340487523,184.8530248006573 145.80057299803593,184.97409537942804 145.87245259125484,185.0505608896201 145.9277445859916,185.10790996206197 146.01621177760535,185.16525898290274 146.01621177760535,185.13339842212736 146.0438577750174,185.13977053556664 146.15444176452002,185.09516572820576 146.1765585624089,185.09516572820576 146.17102936294395,185.13977053556664 146.2705549534876,185.13339842212736 146.34796374617144,185.13977053556664 146.37008054406033,185.12065419336432 146.33690534724155,185.1525147605098 146.31478854932357,185.12702630806962 146.2594965545577,185.12065419336432 146.1655001634499,185.05693301133942 146.0936205702892,185.02507239641272 146.06597457290627,185.01870027152472 146.0438577750174,185.02507239641272 146.07703297183616,185.05693301133942 146.33690534724155,185.16525898290274 146.9230004916608,185.4392591480173 147.52568323453306,185.636793420068 147.66944242091267,185.7132581351907 148.41035515069962,185.8853034088861 148.49329314284842,185.91079155808256 148.57070193547406,185.94902376276877 148.78081151554943,186.0" stroke="#4dd2ff" stroke-linecap="round" stroke-linejoin="round" stroke-width="0.5"><title>2023-02-12 11.8km</title><desc>8545993924</desc></polyline><polyline fill="none" points="22.639999999664724,239.13165667990688 26.095999999903142,238.79959965951275 30.127999999560416,238.63357112486847 33.295999999158084,238.79959965951275 35.60000000055879,239.2976851647254 40.639999999664724,240.12782734062057 45.82399999909103,239.7957705197623 49.71199999935925,240.293855725904 53.59999999962747,240.95796910021454 57.05599999893457,241.29002568824217 59.6480000000447,241.78811044432223 63.39199999999255,242.1201668656431 68.43199999909848,241.12399740261026 72.3199999993667,242.4522232208401 75.77599999960512,243.61441993853077 74.19199999980628,243.28236381628085 70.44799999985844,242.78427950874902 66.41599999926984,242.2861950516235 64.97599999979138,241.954138663481 60.22399999946356,240.95796910021454 55.903999999165535,240.95796910021454 52.01599999982864,240.7919407816371 48.847999999299645,240.12782734062057 45.1039999993518,239.46371363301296 41.791999999433756,238.9656281779753 40.06399999931455,238.63357112486847 36.17599999997765,237.80342820065562 31.856000000610948,237.1393135621911 27.1039999993518,236.30916988977697 22.49599999934435,236.30916988977697 19.759999999776483,236.6412274086615 16.303999999538064,237.30534224642906 19.904000000096858,237.63739956589416 24.799999999813735,238.13548542035278 28.54399999976158,238.46754257334396 29.98399999924004,238.63357112486847 34.87999999988824,238.79959965951275 38.76800000015646,238.9656281779753 41.35999999940395,239.2976851647254 45.39199999999255,239.13165667990688 48.99199999962002,239.46371363301296 52.735999999567866,240.4598840943072 55.61599999945611,241.12399740261026 59.35999999940395,241.45605395687744 63.1039999993518,241.78811044432223 66.55999999959022,242.2861950516235 67.99999999906868,242.61825137317646 72.46399999968708,243.28236381628085 76.35199999902397,243.78044797445182 75.34399999957532,243.61441993853077 71.74399999994785,243.28236381628085 67.56799999903888,242.61825137317646 63.967999999411404,241.954138663481 61.519999999552965,241.45605395687744 57.63200000021607,240.7919407816371 54.03199999872595,239.96179893868975 50.864000000059605,239.7957705197623 46.54399999976158,239.7957705197623 43.08799999952316,239.2976851647254 38.33600000012666,238.46754257334396 34.73600000049919,238.30151400505565 31.856000000610948,237.96945681911893 27.82399999909103,237.63739956589416 23.50399999972433,238.46754257334396 18.17599999997765,238.9656281779753 14.71999999973923,238.9656281779753 18.031999999657273,238.9656281779753 22.20799999963492,238.63357112486847 25.951999999582767,238.63357112486847 32.14399999938905,239.13165667990688 34.87999999988824,239.46371363301296 39.919999999925494,239.46371363301296 43.80799999926239,239.62974208500236 49.855999999679625,240.6259124459466 54.3199999993667,241.954138663481 59.071999998763204,241.62208220898174 62.671999999322,241.78811044432223 67.27999999932945,242.61825137317646 70.44799999985844,242.78427950874902 73.61599999945611,243.61441993853077 77.93599999975413,243.94647599372547 74.91199999954551,243.78044797445182 73.1839999994263,243.78044797445182 72.89599999971688,243.78044797445182 68.71999999973923,243.61441993853077 64.54399999976158,242.95030762825627 57.05599999893457,241.45605395687744 52.87999999895692,240.6259124459466 48.127999999560416,241.29002568824217 43.37600000016391,240.95796910021454 40.20799999963492,240.293855725904 36.60800000000745,239.62974208500236 32.14399999938905,238.9656281779753 29.119999999180436,238.9656281779753 26.239999999292195,238.79959965951275 21.343999999575317,238.63357112486847 16.59199999924749,236.8072561433073 18.17599999997765,238.30151400505565 23.071999999694526,238.46754257334396 27.247999999672174,238.63357112486847 29.695999999530613,238.9656281779753 32.28799999970943,239.62974208500236 35.311999999918044,240.12782734062057 39.63200000021607,240.6259124459466 41.6480000000447,241.12399740261026 45.39199999999255,241.12399740261026 48.99199999962002,241.29002568824217 52.303999999538064,241.62208220898174 58.7839999999851,242.4522232208401 60.94400000013411,242.78427950874902 65.11999999918044,243.28236381628085 69.15199999976903,243.61441993853077 74.62399999890476,243.94647599372547 76.35199999902397,243.28236381628085 73.32799999974668,243.28236381628085 69.29599999915808,242.95030762825627 64.54399999976158,242.61825137317646 57.34400000050664,242.4522232208401 53.023999999277294,240.6259124459466 49.27999999932945,241.29002568824217 44.239999999292195,240.95796910021454 40.20799999963492,239.62974208500236 36.17599999997765,238.46754257334396 32.28799999970943,238.46754257334396 27.679999999701977,238.79959965951275 25.087999999523163,238.30151400505565 21.632000000216067,237.47137091483455 17.024000000208616,236.6412274086615 19.615999999456108,238.13548542035278 23.93599999975413,238.9656281779753 28.399999999441206,239.62974208500236 34.015999998897314,240.4598840943072 37.903999999165535,240.7919407816371 42.511999999172986,241.29002568824217 45.247999999672174,241.45605395687744 51.15199999976903,242.4522232208401 55.61599999945611,243.44839188584592 59.50399999972433,243.61441993853077 62.671999999322,243.11633573041763 65.11999999918044,243.44839188584592 70.30399999953806,244.11250399658456 73.32799999974668,244.444559952477 75.48799999896437,243.94647599372547 71.4559999993071,243.94647599372547 67.1359999999404,244.11250399658456 62.81599999964237,243.28236381628085 58.20799999963492,241.45605395687744 56.19199999887496,240.6259124459466 51.87199999950826,240.293855725904 48.70399999991059,240.4598840943072 44.239999999292195,239.62974208500236 37.04000000003725,238.46754257334396 30.559999999590218,238.30151400505565 24.512000000104308,237.96945681911893 17.8879999993369,237.80342820065562 15.296000000089407,237.47137091483455 17.743999999947846,237.80342820065562 21.05599999986589,238.30151400505565 27.82399999909103,238.30151400505565 31.999999999068677,239.62974208500236 36.89599999971688,240.7919407816371 41.791999999433756,241.12399740261026 45.82399999909103,241.29002568824217 48.70399999991059,241.78811044432223 51.295999999158084,242.1201668656431 58.49599999934435,242.95030762825627 59.93599999975413,242.95030762825627 64.54399999976158,242.95030762825627 67.1359999999404,242.95030762825627 72.03199999965727,243.61441993853077 76.49599999934435,244.27853198267985 75.34399999957532,243.11633573041763 72.60799999907613,242.4522232208401 70.30399999953806,241.62208220898174 64.83199999947101,241.29002568824217 58.639999999664724,241.12399740261026 54.60799999907613,240.6259124459466 53.023999999277294,240.6259124459466 49.27999999932945,240.4598840943072 45.67999999970198,239.96179893868975 38.33600000012666,239.96179893868975 36.03199999965727,239.2976851647254 31.135999999940395,238.13548542035278 24.512000000104308,237.80342820065562 21.343999999575317,238.46754257334396 14.0,238.79959965951275 23.93599999975413,238.63357112486847 26.527999999932945,238.79959965951275 32.43199999909848,238.9656281779753 36.17599999997765,239.46371363301296 41.50399999972433,238.79959965951275 46.256000000052154,240.293855725904 51.00799999944866,241.12399740261026 55.61599999945611,241.45605395687744 58.49599999934435,241.62208220898174 63.5359999993816,242.78427950874902 67.56799999903888,243.78044797445182 70.30399999953806,243.78044797445182 76.06399999931455,244.11250399658456 75.91999999899417,243.28236381628085 73.61599999945611,242.4522232208401 68.43199999909848,241.78811044432223 63.247999999672174,242.1201668656431 60.51200000010431,241.29002568824217 55.903999999165535,240.6259124459466 53.31199999898672,240.4598840943072 45.96800000034273,240.7919407816371 41.071999999694526,239.96179893868975 38.47999999951571,239.7957705197623 33.72800000011921,239.13165667990688 25.66399999987334,237.30534224642906 21.919999999925494,237.80342820065562 14.71999999973923,237.63739956589416 17.8879999993369,237.63739956589416 20.623999999836087,237.63739956589416 24.943999999202788,237.63739956589416 32.14399999938905,238.79959965951275 34.73600000049919,239.13165667990688 40.06399999931455,239.7957705197623 45.67999999970198,239.7957705197623 51.00799999944866,241.12399740261026 56.47999999951571,241.954138663481 62.38399999961257,241.45605395687744 66.12799999956042,241.62208220898174 69.15199999976903,242.4522232208401 75.48799999896437,243.28236381628085 72.7519999993965,242.95030762825627 68.28799999970943,242.61825137317646 62.671999999322,242.4522232208401 60.65599999949336,241.954138663481 55.183999999426305,240.95796910021454 52.735999999567866,240.7919407816371 47.55199999921024,240.4598840943072 41.2160000000149,238.30151400505565 36.32000000029802,237.1393135621911 31.71199999935925,236.9732848610729 28.11199999973178,237.63739956589416 26.38399999961257,237.96945681911893 18.031999999657273,236.8072561433073 22.639999999664724,237.63739956589416 26.815999999642372,239.13165667990688 30.559999999590218,239.7957705197623 37.472000000067055,240.4598840943072 42.511999999172986,241.12399740261026 47.12000000011176,241.45605395687744 50.4320000000298,242.1201668656431 55.32799999881536,242.78427950874902 59.071999998763204,242.1201668656431 64.97599999979138,242.2861950516235 68.28799999970943,242.78427950874902 74.91199999954551,243.78044797445182 75.05599999986589,242.2861950516235 72.60799999907613,242.2861950516235 66.99199999962002,242.1201668656431 62.527999999932945,242.1201668656431 59.791999999433756,240.6259124459466 55.32799999881536,239.62974208500236 50.14399999938905,239.62974208500236 46.256000000052154,239.7957705197623 43.66399999987334,239.46371363301296 40.20799999963492,239.2976851647254 34.73600000049919,238.46754257334396 31.856000000610948,238.13548542035278 26.38399999961257,237.63739956589416 23.791999999433756,237.80342820065562 16.44799999985844,236.6412274086615 18.463999999687076,238.13548542035278 24.080000000074506,238.30151400505565 28.11199999973178,238.30151400505565 30.127999999560416,238.63357112486847 34.73600000049919,239.2976851647254 39.19999999925494,239.7957705197623 43.95199999958277,240.4598840943072 45.82399999909103,240.293855725904 49.855999999679625,240.6259124459466 54.7519999993965,242.1201668656431 60.080000000074506,242.1201668656431 63.82400000002235,242.1201668656431 65.26399999950081,242.1201668656431 70.73599999956787,242.61825137317646 72.60799999907613,243.11633573041763 77.503999998793,242.2861950516235 72.46399999968708,242.2861950516235 69.72799999918789,240.12782734062057 69.29599999915808,236.4751986573683 71.16799999959767,229.8340349762002 71.4559999993071,224.02299492794555 72.3199999993667,217.7138426657766 71.0239999992773,217.04971997789107 70.59199999924749,220.20430037518963 69.87199999950826,225.3512344493065 70.01599999889731,227.841680683312 69.29599999915808,234.31682337960228 67.71199999935925,238.63357112486847 66.12799999956042,241.954138663481 58.20799999963492,239.96179893868975 56.04800000041723,239.62974208500236 51.43999999947846,238.79959965951275 46.256000000052154,239.2976851647254 42.22399999946356,239.7957705197623 37.32799999974668,239.7957705197623 28.399999999441206,236.8072561433073 20.911999999545515,238.79959965951275 18.3199999993667,237.80342820065562 21.487999999895692,239.13165667990688 25.66399999987334,239.46371363301296 29.83999999985099,239.46371363301296 33.583999999798834,239.7957705197623 37.472000000067055,239.7957705197623 41.6480000000447,239.7957705197623 44.38399999961257,240.4598840943072 48.70399999991059,240.7919407816371 52.303999999538064,241.29002568824217 54.89599999971688,241.45605395687744 60.36799999978393,241.45605395687744 65.98400000017136,242.1201668656431 70.15999999921769,242.4522232208401 71.74399999994785,242.61825137317646 74.91199999954551,243.44839188584592 75.05599999986589,242.1201668656431 72.60799999907613,241.954138663481 70.73599999956787,235.97711230430286 71.16799999959767,231.16226984118111 72.7519999993965,229.33594662765972 77.93599999975413,230.16609379276633 81.82399999909103,230.49815254181158 83.69599999859929,226.18138360988814 86.0,222.19666384824086 81.39199999906123,218.54399565130007 78.07999999914318,218.54399565130007 72.3199999993667,219.70620913244784 71.8879999993369,222.6947543420829 70.30399999953806,229.501976093743 69.29599999915808,234.81491023197304 68.28799999970943,237.80342820065562 64.68800000008196,241.45605395687744 61.08799999952316,240.95796910021454 56.19199999887496,239.7957705197623 53.8879999993369,239.2976851647254" stroke="#4dd2ff" stroke-linecap="round" stroke-linejoin="round" stroke-width="0.5"><title>2021-06-21 10.0km</title><desc>9223370412586047204</desc></polyline></svg>