<?xml version="1.0" encoding="utf-8" ?>
<svg baseProfile="full" height="300mm" version="1.1" viewBox="0,0,200,300" width="200mm" xmlns="http://www.w3.org/2000/svg" xmlns:ev="http://www.w3.org/2001/xml-events" xmlns:xlink="http://www.w3.org/1999/xlink"><defs /><rect fill="#222222" height="300" width="200" x="0" y="0" /><text fill="#FFFFFF" style="font-size:12px; font-family:Arial; font-weight:bold;" x="10" y="20">Over 10km Runs</text><text fill="#FFFFFF" style="font-size:4px; font-family:Arial" x="10" y="280">ATHLETE</text><text fill="#FFFFFF" style="font-size:9px; font-family:Arial" x="10" y="290">DuckTyping</text><text fill="#FFFFFF" style="font-size:4px; font-family:Arial" x="120" y="280">STATISTICS</text><text fill="#FFFFFF" style="font-size:3px; font-family:Arial" x="120" y="285">Number: 3</text><text fill="#FFFFFF" style="font-size:3px; font-family:Arial" x="120" y="290">Weekly: 1.0</text><text fill="#FFFFFF" style="font-size:3px; font-family:Arial" x="141" y="285">Total: 31.8 km</text><text fill="#FFFFFF" style="font-size:3px; font-family:Arial" x="141" y="290">Avg: 10.6 km</text><text fill="#FFFFFF" style="font-size:3px; font-family:Arial" x="167" y="285">Min: 10.0 km</text><text fill="#FFFFFF" style="font-size:3px; font-family:Arial" x="167" y="290">Max: 11.8 km</text><polyline fill="none" points="32.73633745452389,75.11134157358902 32.23462111526169,75.18477764091222 31.607475691474974,75.18477764091222 30.666757555678487,75.33164975285763 29.9141830469016,75.40508579695597 29.287037623347715,75.5519578618696 28.158175860298797,75.77226590062492 26.464883216423914,76.28631771804066 25.712308707647026,76.4331895954092 24.458017860073596,76.65349735307973 23.83087243605405,76.65349735307973 23.266441554995254,76.65349735307973 19.37813992681913,75.69882989540929 19.315425384789705,75.18477764091222 19.25271084229462,74.597288881836 19.06456721504219,73.42230986367213 18.813709045527503,72.83481960499194 18.50013633351773,71.58640114631271 18.311992706730962,71.07234583096579 18.186563621740788,70.55829013284529 17.872990909963846,69.45674092008267 17.62213274021633,67.76769538142253 17.496703655691817,67.2536372236791 16.994987316662446,65.34427500201855 16.869558231672272,64.7567778719822 16.806843689642847,64.31615469628014 16.430556435137987,63.36147018469637 16.17969826539047,62.03959714388475 16.05426918086596,60.42397110234015 15.991554638370872,59.76303208700847 15.740696468856186,58.51458999881288 15.30169467208907,57.26614565355703 15.176265587564558,55.72394658182748 15.238980129826814,55.06300306861522 15.176265587564558,53.88799081585603 15.113551045069471,53.15360714273993 14.799978333292529,52.19890720024705 15.427123757079244,50.58325813699048 16.305127350147814,50.21606464119395 16.681414604652673,49.995748449640814 17.183130943914875,49.84887094958685 17.747561825206503,49.701993418391794 18.939138130517676,49.40823826228734 19.56628355407156,49.26136063755257 20.256143520353362,49.11448298121104 21.573148910421878,48.82072757539572 22.07486524968408,48.67384982551448 23.266441554995254,48.52697204431752 23.956301521044225,48.45353314199019 25.022448741365224,48.23321638838388 25.46145053813234,48.086338513589 25.900452334899455,48.01289956452092 26.402168673695996,47.79258267034311 27.468315894249827,47.57226570567582 28.032746775774285,47.49882670183433 28.597177657298744,47.425387690309435 29.976897589629516,47.13163156580413 30.666757555678487,46.984753456606995 31.16847389470786,46.91131439048331 32.23462111526169,46.617558047233615 32.79905199655332,46.470679828722496 33.175339251058176,46.39724070788361 34.30420101410709,46.17692329810234 34.805917352903634,46.10348414594773 35.37034823442809,45.95660581818083 36.81278270925395,45.80972745933104 37.439928132807836,45.66284906887449 38.882362607633695,45.36909219477093 39.63493711641058,45.22221371077467 40.76379887922667,45.00189592613606 41.202800675760955,44.928456649009604 41.70451701502316,44.928456649009604 43.146951489849016,44.56126014632173 43.711382371373475,44.34094215085497 44.96567321871407,43.97374533553375 45.467389557976276,43.826866554969456 46.031820439267904,43.75342715281295 47.34882582933642,43.38623002509121 48.41497304989025,43.092472182412166 48.91668938891962,42.945593214186374 49.35569118545391,42.945593214186374 50.54726749076508,42.651835184078664 51.676129253581166,42.35807702911552 52.240560135105625,42.35807702911552 52.80499101639725,42.21119790448574 53.99656732194126,41.99087915936252 54.372854575980455,41.77056034404086 54.87457091524266,41.62368109461386 55.250858169281855,41.47680181404576 56.19157630531117,41.1830431590206 56.63057810184546,41.10960347589571 57.25772352563217,40.962724085955415 58.38658528844826,40.74240494222613 58.88830162771046,40.59552547422936 59.39001796673983,40.522085728589445 61.02059606858529,40.008007289725356 61.58502695010975,39.93456748162862 62.212172373896465,39.78768784168642 63.52917776373215,39.567368323216215 64.09360864525661,39.42048860545037 64.72075406927615,39.273608856019564 65.97504491684958,39.12672907556407 66.53947579837404,39.053289173869416 67.6683375609573,38.53920964139979 68.23276844248176,38.318889724614564 68.79719932400621,37.95168970746454 69.98877562908456,37.43760935514001 70.74135013786145,37.14384898194112 71.93292644293979,36.70320818782784 72.56007186695933,36.556327860511374 73.18721729074605,36.409447502170224 74.31607905356213,36.1156866918318 74.94322447734885,35.96880623960169 76.44837349443696,35.45472441113088 77.07551891822368,35.30784381827107 78.76881156256422,34.940642199711874 79.20781335956417,34.72032113495516 80.3366751219146,34.5734403860406 80.8383914611768,34.5 81.90453868196346,34.5734403860406 82.40625502099283,34.646880764572416 82.90797135978937,34.72032113495516 84.03683312283829,34.79376149765449 85.29112397017889,35.087522870569956 85.730125766946,35.381284118571784 86.35727119096555,35.74848550272873 87.04713115678169,36.1156866918318 87.36070386902429,36.409447502170224 87.987849292811,36.9969687484554 88.23870746232569,37.29072918393649 88.61499471659772,37.731369603192434 89.55571285239421,38.90640934655676 90.05742919142358,40.962724085955415 89.99471464916132,41.550241458113305 90.18285827594809,42.50495612208033 90.74728915747255,43.67998774268199 91.31172003899701,44.928456649009604 91.49986366624944,45.66284906887449 91.75072183576412,46.17692329810234 92.00158000504598,47.205070608644746 92.00158000504598,48.67384982551448 92.00158000504598,49.187921813398134 92.18972363229841,50.362942062842194 92.2524381747935,51.02389007457532 92.31515271682292,51.464521731075365 92.37786725955084,52.419222688884474 92.50329634430818,53.52079907694133 92.62872542906553,54.69581195426872 92.81686905608512,55.209879459405784 92.94229814084247,55.72394658182748 92.12700909003615,57.33958361891564 91.49986366624944,57.55989746731939 90.49643098795786,58.000524953589775 89.93200010666624,58.147400719695725 89.11671105562709,58.66146565560484 87.36070386902429,59.24896797101246 86.85898752999492,59.469281210331246 86.35727119096555,59.6895943795098 85.22840942791663,60.13022050692234 84.66397854639217,60.2770958202309 84.09954766510054,60.49740873184055 83.03340044454671,60.79115917091258 82.02996776648797,61.08490948518738 81.65368051221594,61.23178459558403 81.15196417318657,61.30522213905351 79.77224424108863,61.525534722430166 79.01966973231174,61.67240973911248 77.57723525748588,61.966159678588156 76.88737529120408,62.18647205090383 76.38565895217471,62.25990949297557 75.31951173162088,62.62709658534732 74.81779539282434,62.77397136786021 74.31607905356213,62.92084611899918 73.06178820575587,63.21459552727174 72.49735732446425,63.36147018469637 71.93292644293979,63.50834481063066 70.86677922261879,63.72865669161547 70.30234834132716,63.948968501761556 69.80063200183213,64.09584300289862 68.79719932400621,64.38959191163303 68.48362661199644,64.53646631911397 68.10733935795724,64.60990351106739 67.54290847643279,64.6833406953956 66.41404671338387,65.12396363669541 65.97504491684958,65.27083788817981 65.41061403532512,65.41771210805746 64.09360864525661,65.85833458090201 63.466463221702725,66.07864571188111 62.83931779745035,66.2255197603954 60.769737899070606,67.03332646744093 60.20530701754615,67.18020031275228 58.95101616997272,67.47394790954422 57.759439864894375,67.84113222983433 56.56786355935037,68.28175315656699 56.00343267805874,68.3551899502636 54.372854575980455,67.6942585252109 53.74570915219374,66.73957868327852 53.55756552540697,66.15208274009638 53.306707355426624,65.56458629696863 52.80499101639725,64.53646631911397 52.67956193187274,64.02240575634642 52.5541328471154,63.43490750156343 52.11513105034828,62.33334692713106 51.98970196559094,61.74584723560838 51.86427288106643,61.23178459558403 51.550700169056654,60.42397110234015 51.362556541804224,58.80834128125571 51.29984199954197,58.29427645471878 51.04898382979445,57.70677332713967 50.73541111801751,56.678641651407816 50.48455294826999,56.01769905153196 50.23369477898814,55.503632147738244 49.79469298245385,54.40205892251106 49.66926389746368,53.81455248378916 49.48112027044408,53.30048393976176 49.042118473909795,52.419222688884474 48.853974846424535,51.905153106257785 48.66583121963777,50.80357414088212 48.47768759238534,50.28950335585978 48.35225850739516,49.84887094958685 47.975971253123134,48.747288704209495 47.787827625870705,48.23321638838388 47.53696945658885,47.71914368995931 47.28611128684133,46.690997144789435 47.097967659821734,46.10348414594773 47.03525311755948,45.58940986217931 47.28611128684133,43.97374533553375 48.10140033811331,43.60654832510045 48.60311667714268,43.45966946618864 49.042118473909795,43.31279057613574 49.41840572771616,43.092472182412166 50.23369477898814,42.725274703407194 50.73541111801751,42.57839565712493 51.29984199954197,42.431516579468735 52.240560135105625,42.28463747078786 52.742276474135,42.13775833067484 53.2439928133972,42.064318749064114 54.24742549122311,41.843999957083724 55.31357271200977,41.47680181404576 56.19157630531117,41.25648283440387 56.7560071866028,41.10960347589571 57.32043806789443,40.962724085955415 58.449299830943346,40.59552547422936 59.07644525496289,40.522085728589445 59.64087613602169,40.375206213851925 60.64430881431326,40.008007289725356 61.02059606858529,39.78768784168642 62.08674328913912,39.6408081704285 62.52574508567341,39.4939284682041 63.090175967197865,39.42048860545037 64.1563231877517,39.12672907556407 64.59532498405315,39.053289173869416 65.15975586557761,38.90640934655676 66.41404671338387,38.53920964139979 66.97847759490833,38.39232970471494 67.6683375609573,38.24544973683078 68.85991386626847,37.80480964574963 69.42434474779293,37.584489494678564 69.98877562908456,37.29072918393649 71.05492284987122,36.92352861992549 71.6820682734251,36.776648339640815 72.30921369721182,36.556327860511374 73.43807546026073,36.336007311125286 73.93979179905728,36.189126906043384 74.44150813808665,36.042246469529346 75.57036990113556,35.74848550272873 76.13480078266002,35.60160497267498 76.76194620644674,35.381284118571784 77.76537888450548,35.23440351017052 78.32980976556428,35.087522870569956 78.83152610505931,34.940642199711874 80.08581695286557,34.72032113495516 80.71296237665229,34.5734403860406 81.340107800439,34.5734403860406 82.46896956325509,34.5 82.97068590251729,34.5 84.09954766510054,34.79376149765449 84.66397854639217,34.940642199711874 85.16569488542154,35.23440351017052 86.04369847895578,35.675045241601765 87.61156203853898,36.48288768535713 87.987849292811,36.85008848371217 88.36413654708304,37.21728908683872 88.99128197086975,38.02512972644763 89.80657102167606,38.68608954688534 90.24557281844318,39.6408081704285 90.18285827594809,40.74240494222613 90.24557281844318,41.91743956215214 90.37100190320052,42.35807702911552 91.12357641174458,44.194063447997905 91.12357641174458,44.6346994623309 91.24900549650192,45.075335195462685 91.43714912375435,46.17692329810234 91.62529275077395,46.76443623442901 91.75072183576412,47.35194867098471 91.93886546301655,48.60041093878681 92.0642945477739,49.04104414151516 92.18972363229841,49.55511585599743 92.37786725955084,50.50981945346575 92.37786725955084,50.950451437791344 92.50329634430818,51.905153106257785 92.62872542906553,52.419222688884474 92.75415451382287,53.00673031446058 93.00501268333755,54.034867456764914 92.94229814084247,55.209879459405784 92.87958359834738,55.797384711157065 92.81686905608512,56.38488946307916 92.62872542906553,57.48645952559309 92.75415451382287,58.88177908252692 92.94229814084247,59.983345162530895 92.94229814084247,60.6442839668598 92.94229814084247,61.37865967460675 93.06772722559981,62.62709658534732 93.1304417680949,63.14115818677237 93.1304417680949,63.655219405773096 93.1304417680949,64.7567778719822 93.19315631012432,65.34427500201855 93.25587085285224,65.93177163234213 93.44401447987184,67.03332646744093 93.63215810712427,67.54738478909712 93.75758719164878,68.50206351437373 93.69487264961936,69.01612074294826 93.69487264961936,69.53017758886563 93.75758719164878,70.77859976451145 93.8203017343767,71.36609177215723 93.88301627663895,71.95358328014845 93.94573081890121,72.9816922165337 93.94573081890121,73.49574611074058 94.0084453613963,74.00979962240672 94.32201807317324,75.11134157358902 94.44744715816341,75.77226590062492 94.51016170042567,76.35975366062485 94.76101987017319,77.46129186364124 94.8864489546977,77.97534242377151 95.01187803945504,79.15031369577628 95.07459258195013,79.73779858241323 95.13730712421238,80.91276685643243 95.07459258195013,81.426814847684 95.01187803945504,82.01429779775208 95.01187803945504,83.04239175800467 94.8864489546977,83.55643816426164 94.82373441243544,83.99704906519037 94.6983053276781,85.09857508772984 94.6983053276781,85.6126199637074 93.63215810712427,87.59536090161419 92.4405818018131,88.10940391913755 91.87615092052147,88.25627328251721 90.87271824246272,88.84375042351894 90.30828736093827,89.1374888070277 89.49299830989912,89.43122706515715 88.61499471659772,89.9452687164885 88.23870746232569,90.23900663125096 87.86242020782083,90.4593099852791 87.36070386902429,90.7530476814718 86.48270027572289,91.1936539915041 85.98098393669352,91.34052269905806 85.41655305516906,91.56082570197759 84.28769129212014,92.00143149652286 82.65711319004185,92.66233966150321 82.0926823085174,92.88264224259183 81.08924963069148,93.39668132527731 80.58753329166211,93.61698367237113 80.08581695286557,93.91072002548026 79.20781335956417,94.35132432117825 78.76881156256422,94.6450603621779 78.26709522353485,94.79192833590787 77.07551891822368,95.23253206931986 76.51108803693205,95.37939991807798 75.38222627388313,95.96687100082636 74.8805099350866,96.18717252789065 74.37879359582439,96.4074739846983 73.56350454478525,96.84807668771828 73.06178820575587,96.9949441931094 72.56007186695933,97.28867910976987 71.11763739213347,97.87614856834989 70.6159210531041,98.02301585517125 70.1142047138419,98.24331672646804 69.04805749328807,98.75735181971686 68.42091206973419,98.97765245707706 67.98191027296707,99.1245195090305 67.04119213717058,99.3448200293351 66.41404671338387,99.49168700369773 65.78690128959715,99.63855394662824 63.90546501800418,100.22602140682284 62.83931779745035,100.66662167391041 62.52574508567341,100.88692170224385 62.024028746644035,101.10722166014602 61.58502695010975,101.32752154796617 60.70702335657552,101.69468787120422 60.20530701754615,101.9149875715375 59.76630522077903,102.0618539993302 58.76287254272029,102.50245309539605 57.82215440715663,102.86961879429873 57.32043806789443,103.16335121280281 56.881436271360144,103.38365044462262 56.00343267805874,103.75081567495363 55.12542908475734,104.19141369382851 54.62371274549514,104.48514555010479 54.1219964066986,104.63201143173501 53.2439928133972,104.99917599826586 52.742276474135,105.14604177052388 52.3659892200958,105.36634037003387 51.98970196559094,105.5132060640608 50.86084020254202,105.9538029585965 50.29640932101756,106.24753406574018 49.731978439725935,106.54126504767919 48.79126030416228,106.98186128668021 48.35225850739516,107.20215930067934 47.41154037183151,107.71618772688089 46.97253857506439,107.93648550665239 46.47082223603502,108.08335065445863 46.09453498176299,108.3036483170581 45.09110230370425,108.74424343195278 44.4639568796847,108.96454088384053 43.96224054088816,109.18483826547163 43.08423694758676,109.47856799850706 42.645235150586814,109.62543281825492 42.080804269295186,109.77229760662885 41.26551521825604,109.99259473074926 40.88922796398401,110.21289178472944 40.324797082692385,110.35975644813152 39.82308074343018,110.50662108056713 38.94507715012878,110.72691797045991 38.506075353361666,110.873782524548 38.12978809908964,111.02064704772783 37.69078630255535,111.09407929744339 36.43649545498192,111.534672632406 34.74320281064138,112.34242634964176 33.80248467507772,112.92988300538855 33.42619742080569,113.1501791224 32.61090836953372,113.73763509123819 32.23462111526169,114.03136288834503 31.795619318727404,114.3250905603636 30.10232667438686,114.9859773661592 29.788753962377086,115.20627282746136 27.342886809725314,113.95793095085537 27.280172266997397,113.37047516938765 27.154743182472885,112.78301888832357 27.092028639977798,111.75496919441503 26.966599555220455,111.31437600002391 26.841170470695943,110.80035025143297 26.590312300948426,109.69886521645822 26.402168673695996,109.18483826547163 26.276739589171484,108.67081093211891 25.96316687716171,107.71618772688089 25.900452334899455,107.27559195650974 25.775023250142112,106.76156320242444 25.586879622889683,105.66007172683021 25.398735995870084,105.07260888832388 25.210592368617654,104.48514555010479 25.147877826122567,103.2367842978565 24.959734198870137,102.5758862508228 24.77159057185054,101.62125462200493 24.708876029588282,101.10722166014602 24.58344694483094,100.59318831568817 24.269874232821167,99.05108598683728 24.144445148063824,98.68391825829167 23.893586978549138,98.02301585517125 23.642728809267282,96.70120915124426 23.580014266772196,96.11373869335512 23.454585182014853,95.59970163268736 23.266441554995254,94.49819235736504 23.14101246977225,93.98415409447625 23.015583385247737,93.39668132527731 22.890154300257564,93.02951059123734 22.513867046218365,91.41395704104798 22.388437961461022,90.89991648274008 22.325723418965936,90.38587554183323 22.137579791946337,88.91718503122684 21.949436164693907,88.03596922586439 21.69857799494639,86.93444788793568 21.635863452916965,86.420403995784 21.322290740907192,85.39231506374199 21.00871802889742,84.51109476096462 20.82057440187782,83.92361393471947 20.757859859382734,83.40956780174747 20.63243077462539,82.23460377531592 20.44428714760579,81.57368563197087 20.193428978091106,79.88466972595779 20.005285351071507,78.930006734794 19.691712639061734,77.38785603799624 19.628998096566647,76.80036915274104 19.315425384789705,75.69882989540929 19.25271084229462,75.25821370084304 19.127281757304445,74.74416111811297 19.001852672779933,73.71605480561266 18.939138130517676,73.20200107537676 18.87642358802259,72.68794696242549 18.50013633351773,71.14578232803615 18.374707248993218,70.63172668451443 18.311992706730962,70.19110725721112 18.186563621740788,69.75048754859017 17.93570545199327,68.50206351437373 17.872990909963846,67.84113222983433 17.684847282944247,67.2536372236791 17.371274570701644,66.2255197603954 17.2458454859443,65.85833458090201 17.057701858924702,65.34427500201855 16.869558231672272,64.31615469628014 16.806843689642847,63.72865669161547 16.430556435137987,62.11303460132331 16.305127350147814,61.45209720241837 16.242412808118388,60.79115917091258 16.05426918086596,59.6895943795098 15.928840096341446,59.10209243907593 15.866125553613529,58.51458999881288 15.67798192659393,57.48645952559309 15.615267384098843,56.97239371499745 15.615267384098843,56.45832752180286 15.4898382993415,56.01769905153196 15.364409214816988,55.136441267852206 15.176265587564558,54.54893545410596 15.050836503040045,53.37392232671846 14.862692875554785,52.27234570420114 14.674549248535186,51.758276012318674 14.737263790564612,51.09732870361768 15.113551045069471,51.09732870361768 15.4898382993415,51.02389007457532 16.242412808118388,51.02389007457532 16.869558231672272,51.02389007457532 17.308560028439388,50.877012793323956 17.872990909963846,50.80357414088212 18.374707248993218,50.730135480931494 19.94257080834359,49.92230970348464 20.381572605343536,49.628554641094524 21.38500528316945,49.26136063755257 21.88672162219882,49.187921813398134 23.015583385247737,48.96760529384483 24.081730605568737,48.747288704209495 24.520732402335852,48.60041093878681 25.08516328386031,48.52697204431752 26.088595961919054,48.3066553142271 26.52759775868617,48.23321638838388 27.029314097948372,48.01289956452092 27.531030436744913,47.86602164286887 28.4717485725414,47.57226570567582 28.973464911570773,47.49882670183433 29.412466708105057,47.425387690309435 30.79218664090149,47.13163156580413 31.35661752196029,47.0581925152801 31.85833386098966,46.83787531644339 32.92448108177632,46.690997144789435 33.363482878077775,46.470679828722496 33.80248467507772,46.39724070788361 34.93134643766098,46.250362442515325 35.55849186168052,46.17692329810234 35.99749365821481,46.10348414594773 36.938211794011295,45.80972745933104 37.37721359054558,45.73628826800268 37.87892992980778,45.66284906887449 38.81964806560427,45.29565295676002 39.32136440463364,45.22221371077467 39.82308074343018,45.14877445693128 40.76379887922667,45.075335195462685 41.202800675760955,45.075335195462685 42.33166243880987,44.78157807159005 42.83337877783924,44.78157807159005 43.27238057460636,44.6346994623309 44.2758132526651,44.34094215085497 44.90295867668465,44.194063447997905 45.53010410023853,44.047184714116156 46.65896586328745,43.75342715281295 47.28611128684133,43.60654832510045 47.72511308384128,43.45966946618864 48.66583121963777,43.16591165470891 49.042118473909795,43.092472182412166 49.543834812706336,43.019032702140976 49.920122066978365,42.87215371849015 50.92355474526994,42.725274703407194 51.362556541804224,42.57839565712493 51.86427288106643,42.431516579468735 52.742276474135,42.21119790448574 53.2439928133972,41.99087915936252 53.74570915219374,41.843999957083724 54.184710949193686,41.69712072313996 55.12542908475734,41.47680181404576 55.6898599662818,41.329922502161935 56.317005390068516,41.25648283440387 57.25772352563217,41.1830431590206 57.82215440715663,41.10960347589571 58.323870746418834,40.962724085955415 59.32730342424475,40.66896521230228 59.82901976327412,40.522085728589445 60.33073610230349,40.375206213851925 60.70702335657552,40.30176644452149 61.71045603486709,40.008007289725356 62.212172373896465,39.78768784168642 62.713888712925836,39.567368323216215 63.654606848722324,39.273608856019564 64.1563231877517,38.97984926402569 65.28518495056778,38.75952948775375 65.78690128959715,38.68608954688534 66.16318854410201,38.53920964139979 66.53947579837404,38.465769677073695 67.41747939144261,38.318889724614564 67.98191027296707,38.09856973786373 68.48362661199644,38.02512972644763 69.48705929005519,37.731369603192434 69.92606108705513,37.584489494678564 70.4277774260845,37.43760935514001 71.36849556164816,37.14384898194112 72.05835552792996,36.85008848371217 72.56007186695933,36.70320818782784 73.56350454478525,36.409447502170224 74.00250634178519,36.262567112455145 74.50422268058173,36.1156866918318 75.50765535864048,35.895366001699585 76.44837349443696,35.528164695657324 77.38909163023345,35.30784381827107 77.95352251175791,35.23440351017052 78.32980976556428,35.087522870569956 78.76881156256422,34.940642199711874 79.70952969836071,34.86720185249578 80.14853149512783,34.79376149765449 81.08924963069148,34.646880764572416 81.96725322399288,34.5 82.46896956325509,34.5734403860406 82.97068590251729,34.646880764572416 85.29112397017889,35.23440351017052 85.79284030944109,35.45472441113088 86.2318421062082,35.74848550272873 87.73699112329632,36.70320818782784 88.11327837756835,37.070408868952654 88.48956563184038,37.584489494678564 89.11671105562709,38.39232970471494 89.4302837678697,38.68608954688534 89.80657102167606,39.6408081704285 89.99471464916132,40.15488688275218 90.24557281844318,40.66896521230228 90.55914553068578,41.77056034404086 90.6845746152103,42.21119790448574 90.93543278472498,42.651835184078664 90.99814732722007,43.092472182412166 91.43714912375435,44.267502803355455 91.49986366624944,44.85501736414153 91.56257820874453,45.36909219477093 91.75072183576412,46.39724070788361 91.93886546301655,47.425387690309435 92.0642945477739,48.01289956452092 92.12700909003615,48.45353314199019 92.18972363229841,49.4816770630423 92.18972363229841,49.92230970348464 92.37786725955084,50.877012793323956 92.4405818018131,51.39108314109035 92.50329634430818,51.83171456307173 92.56601088657044,52.27234570420114 92.75415451382287,53.22704554523807 92.75415451382287,53.88799081585603 92.87958359834738,54.40205892251106 93.00501268333755,55.577070300409105 93.06772722559981,56.09113714960404 93.1304417680949,56.678641651407816 93.00501268333755,57.7802112455247 92.81686905608512,59.5427189412876 92.87958359834738,59.983345162530895 93.00501268333755,60.42397110234015 93.00501268333755,60.79115917091258 93.06772722559981,61.81928472442087 93.06772722559981,62.25990949297557 93.1304417680949,62.77397136786021 93.1304417680949,63.21459552727174 93.06772722559981,64.31615469628014 93.25587085285224,65.49114920647116 93.38129993760958,66.51926776301116 93.38129993760958,66.95988953317283 93.44401447987184,67.47394790954422 93.44401447987184,67.84113222983433 93.50672902236693,68.57550028467085 93.56944356462918,69.01612074294826 93.56944356462918,69.53017758886563 93.63215810712427,70.04423405206762 93.69487264961936,71.14578232803615 93.88301627663895,72.10045607906068 94.0084453613963,72.68794696242549 94.13387444615364,73.2754373458447 94.25930353091098,74.30354431446176 94.32201807317324,74.89103332383092 94.32201807317324,75.5519578618696 94.51016170042567,76.7269332567812 94.6983053276781,77.31442020472605 94.76101987017319,77.75503508764086 94.94916349742562,78.6362640101579 95.01187803945504,79.15031369577628 95.01187803945504,79.59092740755295 95.13730712421238,80.03154083830304 95.32545075169764,81.05963774997508 95.32545075169764,81.426814847684 95.26273620920256,82.01429779775208 95.26273620920256,82.52834496920696 95.20002166647464,83.40956780174747 95.07459258195013,83.92361393471947 94.82373441243544,84.43765968509251 94.63559078495018,85.39231506374199 94.57287624268793,85.90635972109158 94.44744715816341,86.34696912294021 93.1304417680949,87.88909981556935 92.56601088657044,88.10940391913755 92.12700909003615,88.3297079524491 91.1862909544725,88.91718503122684 90.55914553068578,89.0640542228357 90.05742919142358,89.28435795160476 89.24214014038444,89.7983997122501 88.48956563184038,90.23900663125096 87.79970566579141,90.7530476814718 87.36070386902429,90.89991648274008 86.92170207225718,91.1936539915041 86.54541481798515,91.41395704104798 85.60469668242149,91.78112863417482 84.8521221736446,92.14830003224779 84.35040583461523,92.295168536657 83.9741185803432,92.44203700992512 83.59783132607117,92.58890545228496 82.59439864801243,92.73577386292163 81.71639505471103,93.02951059123734 81.40282234246843,93.24981305497931 80.96382054616697,93.54354956460884 80.52481874916703,93.83728594897548 79.70952969836071,94.42475834331708 78.83152610505931,94.86536231089849 78.32980976556428,95.01223023771308 77.82809342676774,95.23253206931986 77.01280437596142,95.59970163268736 76.57380257896148,95.82000327698188 76.13480078266002,96.04030485107796 75.69579898566008,96.18717252789065 74.81779539282434,96.55434158368735 74.37879359582439,96.70120915124426 73.93979179905728,96.9949441931094 73.06178820575587,97.21524539211532 72.49735732446425,97.43554652133025 71.99564098543487,97.65584757993929 71.05492284987122,97.94958221586421 70.55320651060902,98.16988311044406 69.98877562908456,98.31675033457577 68.98534295125864,98.61048468900844 68.48362661199644,98.8307853731676 67.98191027296707,99.05108598683728 66.97847759490833,99.49168700369773 66.53947579837404,99.71198740659747 66.03775945887901,99.93228773924056 65.0343267810531,100.22602140682284 64.53261044202372,100.22602140682284 64.03089410299435,100.37288819387322 63.02746142470278,100.66662167391041 62.08674328913912,101.10722166014602 61.647741492372006,101.40095482813194 61.27145423809998,101.54782136506401 60.83245244110003,101.69468787120422 59.95444884826429,102.0618539993302 59.39001796673983,102.28215358254965 58.95101616997272,102.42901993222767 58.19844166119583,102.86961879429873 57.947583492146805,103.16335121280281 57.6340107799042,103.38365044462262 57.25772352563217,103.53051656018943 57.00686535611749,103.67738264461514 55.439001796767116,104.0445477188332 55.0,104.26484666956821 54.184710949193686,104.77887728193309 53.808423694455996,105.07260888832388 53.36942189792171,105.29290751140798 52.5541328471154,105.73350454645697 51.98970196559094,105.88037016248563 51.4879856267944,106.02723574714037 50.54726749076508,106.4678323137341 49.98283660924062,106.68813049193705 49.543834812706336,106.83499590487918 48.79126030416228,107.20215930067934 48.41497304989025,107.3490246043657 48.03868579561822,107.56932250142563 47.66239854111336,107.7896203280543 46.28267860878259,108.37708085565828 45.843676812248304,108.59737842483446 45.3419604729861,108.74424343195278 44.2758132526651,109.18483826547163 43.523238743888214,109.55200041231001 43.08423694758676,109.62543281825492 42.645235150586814,109.84572998905787 42.20623335428536,110.06602708989521 41.26551521825604,110.28632412030129 40.45022616744973,110.72691797045991 40.0739389131777,110.94721479003783 39.57222257414833,111.24094377347501 38.63150443811901,111.75496919441503 38.192502641584724,111.9752656861092 37.75350084481761,112.04869783454342 37.314499048283324,112.19556210754672 36.49920999724418,112.56272265414009 36.060208200709894,112.70958681817865 35.683920946205035,112.85645095072687 35.24491914967075,113.07674709131243 34.36691555636935,113.44390716927592 33.927913759602234,113.59077114594402 33.175339251058176,114.10479481797665 32.92448108177632,114.3250905603636 32.04647748800926,114.76568183442578 31.48204660671763,114.9859773661592 30.98033026768826,115.13284101465251 29.851468504872173,115.5 27.656459521502256,114.69224997499259 27.468315894249827,114.25165865407325 27.154743182472885,113.29704316146672 27.029314097948372,112.85645095072687 26.966599555220455,112.34242634964176 26.778455928200856,111.90183353004977 26.653026843210682,111.09407929744339 26.653026843210682,110.72691797045991 26.590312300948426,110.28632412030129 26.464883216423914,109.77229760662885 26.276739589171484,108.89110840746434 26.088595961919054,108.37708085565828 26.025881419423968,107.93648550665239 25.900452334899455,107.56932250142563 25.712308707647026,106.54126504767919 25.524165080394596,106.02723574714037 25.336021453374997,105.5132060640608 25.08516328386031,104.26484666956821 24.89701965660788,103.45708350627683 24.834305114345625,102.94305191049352 24.77159057185054,102.13528720167233 24.646161487093195,101.18065496371128 24.458017860073596,100.59318831568817 24.39530331757851,100.15258800174342 24.20715969055891,99.1245195090305 24.144445148063824,98.53705111233285 23.956301521044225,97.94958221586421 23.580014266772196,96.62777537142392 23.454585182014853,95.96687100082636 23.32915609702468,95.4528338307864 22.95286884298548,94.20445625385037 22.76472521550022,93.10294475354021 22.702010673470795,92.66233966150321 22.702010673470795,92.14830003224779 22.513867046218365,91.04678525275085" stroke="#4dd2ff" stroke-linecap="round" stroke-linejoin="round" stroke-width="0.5"><title>2023-04-17 10.0km</title></polyline><polyline fill="none" points="152.33365697335103,81.88659476014436 152.2466105997737,81.90810091638559 151.99168907717103,81.93677578133793 151.88598990926403,81.87225731903891 151.71811476023868,81.87225731903891 151.593762798002,81.90093219834671 151.49428122819518,81.94394449577521 151.48806363009498,81.95828192250337 151.53780441498384,81.99412547675456 151.52536921875435,82.03713771817274 151.4756284338364,82.08014993373945 151.4756284338364,82.10165603183123 151.53158681685454,82.10165603183123 151.7056795640092,82.0514751262308 151.7927259375865,81.98695676734496 151.97925388094154,81.87225731903891 152.17821702055517,81.80057007051073 152.22795780544402,81.80773879858316 152.28391618843307,81.82924497854401 152.27148099220358,81.88659476014436 152.33365697335103,81.87225731903891 152.35852736581,81.87225731903891 152.4828793280176,81.9511132094849 152.73780085062026,82.03713771817274 152.78754163553822,82.04430642255466 152.98650477512274,82.02280030724069 153.1295095316891,81.97978805721505 153.1543799241772,81.95828192250337 153.1543799241772,81.9296070661876 153.22899110149592,81.90093219834671 153.2600790920551,81.8794260399518 153.27251428828458,81.85791987508856 153.3595606618328,81.82207625260344 153.42795424110955,81.82924497854401 153.61448218446458,81.80773879858316 153.6828757636831,81.80773879858316 153.7077461561712,81.82924497854401 153.8010101278196,81.83641370376426 153.96266767874476,81.8794260399518 153.99375566927483,81.85791987508856 153.99997326740413,81.82924497854401 153.99997326740413,81.81490752596437 153.98132047307445,81.80057007051073 153.9129268938559,81.80773879858316 153.85075091270846,81.8794260399518 153.76992213726044,81.90093219834671 153.75748694106005,81.91526963369688 153.67665816555382,81.94394449577521 153.6890933618124,81.9511132094849 153.62069978253567,82.00846289343463 153.31603747507324,82.07298123294458 153.22277350339573,82.02996901307051 153.21033830716624,81.9654506347797 153.08598634490045,81.91526963369688 152.9056759996747,81.8794260399518 152.54505530913593,81.90810091638559 152.3523097676807,81.91526963369688 152.27769859033288,81.93677578133793 152.01655946963,82.05864382917935 151.98547147907084,81.99412547675456 151.94816589038237,81.9296070661876 151.910860301723,81.9224383503024 151.82381392814568,81.9224383503024 151.66215637722053,81.97261934635753 151.63728598476155,82.00129418545839 151.65593877912033,82.02280030724069 151.699461965909,82.02996901307051 151.74920275079785,81.99412547675456 151.75542034892715,81.9654506347797 151.76163794699823,81.93677578133793 151.7056795640092,81.85791987508856 151.73676755456836,81.90093219834671 151.75542034892715,81.91526963369688 151.75542034892715,81.82924497854401 151.76785554512753,81.80057007051073 151.78029074132792,81.70737654007098 151.76785554512753,81.48514532393165 151.74920275079785,81.36327629954758 151.76163794699823,81.3346012048205 151.9232954979234,81.29158854119305 151.94816589038237,81.30592609863379 152.08495304884855,81.44213275079528 152.21552260921453,81.53532662661746 152.28391618843307,81.60701414081996 152.33987457145122,81.63568912639312 152.4704441318172,81.7934013417107 152.53262011293555,81.82924497854401 152.64453687894274,81.84358242824965 152.76267124307924,81.82924497854401 152.86837041098624,81.83641370376426 153.1357271298184,81.81490752596437 153.29116708261427,81.82924497854401 153.30360227884375,81.84358242824965 153.43417183920974,81.82924497854401 153.61448218446458,81.85075115202199 153.64557017502375,81.87225731903891 153.75126934293075,81.87225731903891 153.8258805202786,81.89376347960206 153.9253620900563,81.89376347960206 153.94401488438598,81.94394449577521 153.96888527687406,81.9296070661876 153.98132047307445,81.90093219834671 153.98132047307445,81.8794260399518 153.94401488438598,81.85075115202199 153.85696851083776,81.7934013417107 153.8258805202786,81.78623261220491 153.83209811837878,81.82207625260344 153.73261654857197,81.84358242824965 153.63313497879426,81.91526963369688 153.61448218446458,81.95828192250337 153.62069978253567,82.00846289343463 153.5709589976468,82.0514751262308 153.4776950259984,82.16617428731843 153.30360227884375,82.22352379892254 153.2414262977254,82.13749951427599 153.17925031660707,82.09448733319005 153.00515756945242,82.00846289343463 152.72536565441987,81.9511132094849 152.53883771103574,81.88659476014436 152.32743937522173,81.83641370376426 152.16578182429657,81.84358242824965 152.12225863753702,81.85791987508856 151.77407314325683,81.90810091638559 151.6932443677797,81.93677578133793 151.66837397532072,81.95828192250337 151.55023961118422,82.00846289343463 151.49428122819518,82.04430642255466 151.48806363009498,82.0658125314294 151.50049882629537,82.08731863379217 151.54402201311314,82.10165603183123 151.82381392814568,82.02996901307051 151.97303628281225,82.00846289343463 152.38339775821078,81.77189515098871 152.71914805629058,81.46363904060127 152.9305463921046,81.2342382828283 152.83106482232688,81.17688797848677 152.65075447704294,81.14104401494842 149.39273306625546,71.8855317818452 136.0746379099146,34.650642763852375 136.10572590047377,34.686510041770816 136.09329070424428,34.708030399859126 136.04354991935543,34.729550751486386 136.02489712499664,34.71520385112672 136.00624433066696,34.67216313276003 136.00002673256677,34.62912238849094 136.01867952692555,34.58608161826123 136.10572590047377,34.51434694357886 136.16168428349192,34.5 136.25494825516944,34.5 136.2984714419581,34.52152041428781 136.34199462871766,34.550214289920405 139.7492383942299,113.64414870939072 139.83628476777812,113.70863855632342 139.8673727583664,113.74446622398682 139.8549375621369,113.7946249286324 139.8549375621369,113.81612150558067 139.89224315079628,113.88777671554999 139.9855071225029,113.98092838139564 140.06011829985073,114.0382524232773 140.1969054583169,114.174396838971 140.27773423376493,114.31054099605535 140.35856300924206,114.39652664622554 140.4207389903313,114.46101581614494 140.5202205601381,114.52550492804585 140.5202205601381,114.48967765080306 140.5513085507264,114.49684310769953 140.67566051296308,114.44668489451578 140.70053090536385,114.44668489451578 140.69431330729276,114.49684310769953 140.80623007327085,114.48967765080306 140.89327644687728,114.49684310769953 140.91814683930716,114.47534673490736 140.8808412506769,114.51117401930969 140.85597085821792,114.48251219322265 140.79379487707047,114.47534673490736 140.68809570916346,114.40369211242069 140.60726693374454,114.36786477429268 140.57617894315626,114.36069930452504 140.5513085507264,114.36786477429268 140.58861413935665,114.40369211242069 140.8808412506769,114.52550492804585 141.5399066505488,114.83361877287825 142.2176248447795,115.05574653700751 142.37928239570465,115.1417312931153 143.2124405427312,115.33519661727041 143.30570451443782,115.36385810235515 143.39275088798604,115.40685030850727 143.62901961622993,115.4641732099044 143.71606598980725,115.5" stroke="#4dd2ff" stroke-linecap="round" stroke-linejoin="round" stroke-width="0.5"><title>2023-02-12 11.8km</title></polyline><polyline fill="none" points="22.27599999960512,235.83345984562766 22.438000000081956,236.02024183468893 23.08600000012666,236.02024183468893 23.41000000014901,235.83345984562766 23.734000000171363,235.83345984562766 24.21999999973923,235.2731137649389 25.83999999985099,234.8995496169664 27.298000000417233,234.8995496169664 28.10800000000745,234.8995496169664 28.91800000052899,234.8995496169664 31.509999999776483,234.8995496169664 32.644000000320375,234.71276751544792 33.61600000038743,234.71276751544792 35.55999999959022,234.8995496169664 36.20799999963492,234.8995496169664 37.01799999922514,235.08633170020767 37.828000000678,235.2731137649389 38.80000000074506,235.4598958103452 42.20199999958277,235.83345984562766 43.497999999672174,236.02024183468893 44.46999999973923,236.3938057582127 45.27999999932945,236.3938057582127 49.006000000052154,236.20702380605508 50.30200000014156,236.02024183468893 51.43599999975413,235.83345984562766 53.541999999433756,236.20702380605508 54.67599999997765,236.58058769162744 56.78199999965727,236.95415150176268 58.07799999974668,237.14093337929808 59.049999999813735,237.32771523774136 60.183999999426305,237.32771523774136 61.96599999908358,237.51449707790744 62.937999999150634,237.70127889933065 64.07199999969453,238.07484248513356 64.88199999928474,238.07484248513356 65.85400000028312,238.2616242498625 67.95999999996275,238.44840599643067 68.93199999909848,238.44840599643067 70.06599999964237,238.6351877237903 72.171999999322,238.2616242498625 73.4679999994114,237.8880607014289 75.73599999956787,237.51449707790744 77.03199999965727,237.70127889933065 78.97599999979138,238.44840599643067 80.10999999940395,239.0087511234451 80.9199999999255,239.56909608177375 82.05399999953806,239.9426592933014 83.99799999967217,240.31622243090533 84.32199999969453,239.7558776967926 83.34999999962747,239.9426592933014 82.2160000000149,239.9426592933014 80.10999999940395,239.9426592933014 78.97599999979138,239.56909608177375 78.00399999972433,239.38231444731355 76.86999999918044,239.0087511234451 74.6019999999553,239.0087511234451 73.4679999994114,238.82196943298914 72.82000000029802,238.6351877237903 72.33399999979883,238.6351877237903 71.84799999929965,238.44840599643067 71.03799999970943,238.44840599643067 67.79799999948591,237.70127889933065 66.5019999993965,237.32771523774136 65.36799999978393,237.32771523774136 62.77600000053644,237.14093337929808 61.64199999999255,237.32771523774136 60.669999999925494,237.32771523774136 59.5359999993816,237.14093337929808 57.26800000015646,237.14093337929808 56.13399999961257,236.95415150176268 54.99999999906868,236.58058769162744 53.70399999991059,236.3938057582127 51.59800000023097,236.20702380605508 50.463999999687076,235.83345984562766 49.49199999962002,235.64667783712503 48.519999999552965,235.64667783712503 46.575999999418855,235.08633170020767 45.76599999982864,235.08633170020767 45.27999999932945,234.8995496169664 44.63200000021607,234.8995496169664 43.821999999694526,234.71276751544792 43.011999999172986,234.52598539495375 41.39199999906123,234.15242109796964 39.44799999985844,233.77885672578122 37.989999999292195,233.405292279087 35.722000000067055,233.21851002715994 34.588000000454485,233.03172775742132 31.509999999776483,232.09781612595543 30.37599999923259,232.09781612595543 29.24199999962002,232.09781612595543 27.783999999053776,231.91103374329396 25.191999999806285,231.91103374329396 24.057999999262393,232.09781612595543 23.08600000012666,232.2845984895248 20.979999999515712,232.09781612595543 20.979999999515712,232.47138083481696 19.684000000357628,231.91103374329396 17.415999999269843,231.53746892279014 17.092000000178814,233.21851002715994 19.035999999381602,233.59207451168913 20.007999999448657,233.59207451168913 21.14199999999255,233.59207451168913 22.600000000558794,233.59207451168913 25.515999999828637,233.9656389215961 26.65000000037253,234.15242109796964 27.783999999053776,234.3392032557167 28.756000000052154,234.3392032557167 30.8620000006631,234.52598539495375 31.509999999776483,234.52598539495375 31.99599999934435,234.52598539495375 32.48199999984354,234.71276751544792 33.93999999947846,234.52598539495375 36.53199999965727,234.8995496169664 37.989999999292195,234.8995496169664 39.12399999983609,234.8995496169664 40.25800000037998,235.08633170020767 42.364000000059605,235.08633170020767 43.17399999964982,235.2731137649389 44.308000000193715,235.4598958103452 45.27999999932945,235.4598958103452 47.54800000041723,235.4598958103452 48.6820000000298,235.4598958103452 49.816000000573695,235.2731137649389 50.78799999970943,235.4598958103452 52.731999998912215,235.4598958103452 53.86600000038743,235.64667783712503 54.99999999906868,235.83345984562766 55.972000000067055,236.20702380605508 58.07799999974668,236.7673696060665 59.21199999935925,236.95415150176268 60.183999999426305,237.14093337929808 61.3179999999702,237.51449707790744 63.42399999964982,237.70127889933065 64.39599999971688,237.70127889933065 65.52999999932945,237.8880607014289 66.66399999987334,238.07484248513356 68.77000000048429,238.2616242498625 69.74199999962002,238.2616242498625 70.87599999923259,238.2616242498625 71.84799999929965,238.44840599643067 73.62999999988824,238.82196943298914 74.6019999999553,239.0087511234451 74.92599999904633,239.0087511234451 75.25,239.19553279480897 76.05999999959022,239.19553279480897 79.1379999993369,239.7558776967926 80.27199999988079,239.9426592933014 81.40599999949336,240.129440871533 82.54000000003725,240.31622243090533 84.64599999971688,240.50300397130195 85.94199999887496,239.9426592933014 84.96999999973923,239.9426592933014 83.51199999917299,240.31622243090533 82.37799999956042,240.31622243090533 80.75799999944866,240.129440871533 79.46199999935925,239.9426592933014 77.03199999965727,239.56909608177375 75.89799999911338,239.38231444731355 74.76399999950081,239.19553279480897 73.79199999943376,238.82196943298914 71.68599999975413,238.44840599643067 70.71399999875575,238.44840599643067 69.74199999962002,238.2616242498625 68.77000000048429,238.2616242498625 67.95999999996275,237.8880607014289 65.69199999980628,237.51449707790744 64.55799999926239,237.32771523774136 63.58600000012666,237.14093337929808 62.614000000059605,236.95415150176268 60.34599999990314,236.58058769162744 59.5359999993816,236.20702380605508 58.72599999886006,236.20702380605508 56.94400000013411,236.02024183468893 55.972000000067055,236.02024183468893 54.18999999947846,236.02024183468893 52.89399999938905,236.20702380605508 51.11199999973178,236.02024183468893 49.006000000052154,235.83345984562766 48.0339999999851,235.64667783712503 47.22399999946356,235.4598958103452 45.76599999982864,235.2731137649389 43.011999999172986,234.71276751544792 41.87800000049174,234.52598539495375 40.743999999947846,234.52598539495375 39.933999999426305,234.52598539495375 37.828000000678,234.3392032557167 36.855999999679625,234.15242109796964 35.722000000067055,234.15242109796964 34.588000000454485,233.9656389215961 32.32000000029802,233.77885672578122 31.024000000208616,233.77885672578122 30.05199999921024,233.59207451168913 27.622000000439584,233.77885672578122 26.326000000350177,234.15242109796964 25.191999999806285,234.52598539495375 23.8960000006482,234.71276751544792 20.33199999947101,235.08633170020767 19.19799999985844,235.08633170020767 18.225999999791384,235.08633170020767 17.092000000178814,235.08633170020767 15.31000000052154,235.08633170020767 16.12000000011176,235.2731137649389 18.063999999314547,235.08633170020767 19.035999999381602,235.08633170020767 20.33199999947101,235.08633170020767 22.924000000581145,234.8995496169664 23.734000000171363,234.71276751544792 25.354000000283122,234.52598539495375 26.81199999898672,234.3392032557167 27.945999999530613,234.71276751544792 29.080000000074506,234.8995496169664 31.024000000208616,235.08633170020767 34.91200000047684,235.2731137649389 35.722000000067055,235.4598958103452 36.20799999963492,235.2731137649389 37.989999999292195,235.64667783712503 39.610000000335276,235.4598958103452 41.7160000000149,235.64667783712503 43.66000000014901,235.64667783712503 44.955999999307096,235.83345984562766 46.73799999989569,235.83345984562766 48.0339999999851,235.83345984562766 49.006000000052154,235.83345984562766 52.24599999934435,236.3938057582127 54.838000000454485,236.95415150176268 56.78199999965727,237.70127889933065 57.91599999926984,237.8880607014289 59.860000000335276,238.44840599643067 60.183999999426305,238.2616242498625 60.99399999901652,238.07484248513356 65.2059999993071,238.07484248513356 66.17799999937415,237.8880607014289 68.44599999953061,238.07484248513356 69.25599999912083,238.2616242498625 70.22800000011921,238.44840599643067 71.68599999975413,238.6351877237903 74.43999999947846,239.19553279480897 75.73599999956787,239.38231444731355 77.03199999965727,239.38231444731355 78.00399999972433,239.38231444731355 79.78600000031292,239.9426592933014 80.59599999990314,240.129440871533 81.5679999999702,240.31622243090533 82.54000000003725,240.6897854928393 83.51199999917299,241.06334848050028 86.42799999937415,240.6897854928393 84.32199999969453,240.31622243090533 83.18800000008196,240.50300397130195 83.02599999960512,240.50300397130195 82.05399999953806,240.50300397130195 81.89199999906123,240.50300397130195 81.08199999947101,240.50300397130195 80.9199999999255,240.50300397130195 80.75799999944866,240.50300397130195 80.75799999944866,240.50300397130195 80.27199999988079,240.31622243090533 76.5460000000894,240.31622243090533 76.05999999959022,240.31622243090533 73.62999999988824,239.7558776967926 72.33399999979883,239.7558776967926 71.36199999973178,239.56909608177375 68.44599999953061,239.19553279480897 64.88199999928474,238.2616242498625 62.937999999150634,237.8880607014289 61.80400000046939,237.70127889933065 61.3179999999702,237.51449707790744 58.239999999292195,236.95415150176268 55.32400000002235,237.32771523774136 54.02800000086427,237.51449707790744 52.89399999938905,237.70127889933065 49.49199999962002,237.51449707790744 48.519999999552965,237.32771523774136 47.54800000041723,237.32771523774136 45.76599999982864,236.95415150176268 44.955999999307096,236.7673696060665 43.98399999924004,236.58058769162744 43.011999999172986,236.3938057582127 41.0679999999702,236.02024183468893 39.933999999426305,235.83345984562766 38.63800000026822,235.64667783712503 37.342000000178814,235.64667783712503 34.91200000047684,235.08633170020767 33.777999999932945,235.2731137649389 32.80599999986589,235.2731137649389 31.509999999776483,235.08633170020767 29.24199999962002,235.08633170020767 28.756000000052154,234.8995496169664 28.269999999552965,234.8995496169664 27.459999999962747,234.8995496169664 25.83999999985099,234.71276751544792 22.762000000104308,234.71276751544792 21.303999999538064,234.3392032557167 19.360000000335276,233.21851002715994 17.415999999269843,232.65816316124983 16.605999999679625,233.9656389215961 18.38800000026822,234.3392032557167 19.19799999985844,234.3392032557167 20.33199999947101,234.3392032557167 22.114000000059605,234.3392032557167 24.70600000023842,234.52598539495375 26.001999999396503,234.3392032557167 27.135999999940395,234.52598539495375 29.404000000096858,234.71276751544792 30.37599999923259,235.08633170020767 31.347999999299645,235.08633170020767 32.157999999821186,235.08633170020767 33.12999999988824,235.4598958103452 33.93999999947846,235.64667783712503 35.07400000002235,235.83345984562766 35.722000000067055,236.02024183468893 37.342000000178814,236.20702380605508 38.475999999791384,236.3938057582127 40.743999999947846,236.58058769162744 41.7160000000149,236.58058769162744 43.33600000012666,236.95415150176268 44.14599999971688,237.14093337929808 44.46999999973923,237.14093337929808 45.60400000028312,237.51449707790744 46.41399999987334,237.70127889933065 48.519999999552965,237.70127889933065 49.816000000573695,237.51449707790744 50.62600000016391,237.70127889933065 51.921999999322,237.70127889933065 53.86600000038743,237.70127889933065 55.161999999545515,237.70127889933065 56.29600000008941,237.8880607014289 57.592000000178814,238.07484248513356 60.99399999901652,238.44840599643067 62.28999999910593,238.44840599643067 64.88199999928474,239.0087511234451 65.52999999932945,239.0087511234451 65.85400000028312,239.19553279480897 67.31199999991804,239.38231444731355 69.74199999962002,239.7558776967926 70.87599999923259,239.9426592933014 72.00999999977648,239.9426592933014 72.98200000077486,240.129440871533 75.08799999952316,240.31622243090533 76.5460000000894,240.31622243090533 77.84199999924749,240.50300397130195 81.40599999949336,240.6897854928393 82.70199999865144,240.6897854928393 83.99799999967217,240.6897854928393 86.26599999889731,239.7558776967926 84.64599999971688,239.9426592933014 83.51199999917299,239.9426592933014 82.2160000000149,239.9426592933014 81.24399999994785,239.9426592933014 79.29999999981374,239.9426592933014 78.00399999972433,239.56909608177375 76.70799999963492,239.56909608177375 76.5460000000894,239.56909608177375 72.82000000029802,239.38231444731355 71.36199999973178,239.19553279480897 67.6359999999404,239.19553279480897 65.85400000028312,239.0087511234451 63.26200000010431,239.0087511234451 61.3179999999702,238.07484248513356 59.37399999983609,237.32771523774136 58.40199999976903,236.95415150176268 57.26800000015646,237.14093337929808 55.485999999567866,237.51449707790744 54.18999999947846,237.70127889933065 52.407999999821186,237.70127889933065 49.65400000009686,237.70127889933065 48.519999999552965,237.32771523774136 47.22399999946356,236.95415150176268 46.252000000327826,236.3938057582127 43.98399999924004,235.83345984562766 42.84999999962747,235.4598958103452 40.419999999925494,234.8995496169664 39.44799999985844,234.52598539495375 37.342000000178814,234.3392032557167 36.20799999963492,234.52598539495375 35.07400000002235,234.52598539495375 32.80599999986589,234.8995496169664 30.8620000006631,234.8995496169664 29.890000000596046,234.8995496169664 28.91800000052899,234.8995496169664 28.10800000000745,234.52598539495375 26.973999999463558,234.3392032557167 24.382000000216067,234.15242109796964 23.247999999672174,233.77885672578122 23.08600000012666,233.405292279087 21.4660000000149,233.03172775742132 19.19799999985844,232.09781612595543 17.902000000700355,232.47138083481696 17.57799999974668,234.15242109796964 19.845999999903142,234.15242109796964 20.817999999970198,234.15242109796964 21.627999999560416,234.15242109796964 23.734000000171363,234.71276751544792 25.678000000305474,235.08633170020767 27.135999999940395,235.4598958103452 29.404000000096858,235.64667783712503 30.700000000186265,235.83345984562766 31.833999999798834,236.02024183468893 33.12999999988824,236.02024183468893 37.01799999922514,236.7673696060665 37.828000000678,236.58058769162744 38.475999999791384,236.58058769162744 41.39199999906123,237.14093337929808 43.33600000012666,237.14093337929808 45.76599999982864,237.32771523774136 46.575999999418855,237.70127889933065 47.061999999918044,237.70127889933065 48.0339999999851,237.8880607014289 49.65400000009686,237.8880607014289 52.731999998912215,238.44840599643067 54.99999999906868,238.82196943298914 56.29600000008941,239.0087511234451 57.592000000178814,239.19553279480897 58.8879999993369,239.38231444731355 61.3179999999702,240.129440871533 62.45199999958277,240.129440871533 63.58600000012666,240.31622243090533 65.69199999980628,240.31622243090533 66.82600000035018,239.9426592933014 67.95999999996275,239.56909608177375 69.25599999912083,239.7558776967926 70.22800000011921,239.9426592933014 71.03799999970943,239.7558776967926 72.00999999977648,240.129440871533 72.98200000077486,240.31622243090533 76.38399999961257,240.87656699621584 77.84199999924749,240.87656699621584 78.49000000022352,240.6897854928393 79.1379999993369,240.87656699621584 81.24399999994785,241.2501299465075 83.18800000008196,241.43691139365546 84.64599999971688,240.87656699621584 83.6739999987185,240.6897854928393 81.5679999999702,240.31622243090533 80.4339999994263,240.50300397130195 79.1379999993369,240.6897854928393 78.16599999926984,240.6897854928393 75.57400000002235,240.87656699621584 74.27799999993294,240.87656699621584 71.52400000020862,240.31622243090533 70.38999999966472,240.31622243090533 69.41799999959767,239.9426592933014 68.77000000048429,239.7558776967926 64.88199999928474,238.6351877237903 64.23400000017136,237.8880607014289 64.07199999969453,237.70127889933065 62.614000000059605,236.95415150176268 61.96599999908358,236.95415150176268 60.50799999944866,236.58058769162744 59.69799999985844,236.3938057582127 57.105999999679625,236.58058769162744 55.6480000000447,236.7673696060665 54.838000000454485,236.7673696060665 53.541999999433756,236.7673696060665 49.97799999918789,236.58058769162744 49.32999999914318,236.02024183468893 48.519999999552965,235.83345984562766 46.41399999987334,235.08633170020767 45.11799999978393,235.08633170020767 40.419999999925494,234.52598539495375 36.53199999965727,234.52598539495375 35.3980000000447,234.52598539495375 33.12999999988824,234.3392032557167 30.700000000186265,234.15242109796964 27.459999999962747,233.59207451168913 26.326000000350177,233.9656389215961 24.382000000216067,234.3392032557167 20.817999999970198,233.9656389215961 18.873999999836087,233.77885672578122 16.605999999679625,233.03172775742132 15.796000000089407,232.844945468707 15.957999999634922,233.405292279087 16.44400000013411,233.405292279087 17.25399999972433,233.405292279087 18.712000000290573,233.77885672578122 19.52199999988079,233.9656389215961 21.627999999560416,234.3392032557167 22.438000000081956,234.3392032557167 25.83999999985099,234.15242109796964 27.135999999940395,234.15242109796964 30.05199999921024,234.3392032557167 31.347999999299645,234.71276751544792 33.93999999947846,235.64667783712503 34.75,235.83345984562766 36.20799999963492,236.3938057582127 38.31400000024587,236.7673696060665 40.25800000037998,237.14093337929808 43.33600000012666,237.51449707790744 44.63200000021607,237.51449707790744 45.76599999982864,237.51449707790744 47.872000000439584,237.51449707790744 49.16799999959767,237.70127889933065 50.30200000014156,237.70127889933065 51.43599999975413,237.70127889933065 52.731999998912215,238.07484248513356 53.541999999433756,238.2616242498625 54.18999999947846,238.2616242498625 54.51399999950081,238.2616242498625 56.45799999963492,238.6351877237903 60.99399999901652,239.38231444731355 62.28999999910593,239.56909608177375 64.55799999926239,239.56909608177375 64.88199999928474,239.56909608177375 65.2059999993071,239.7558776967926 66.17799999937415,239.56909608177375 67.47399999946356,239.38231444731355 68.44599999953061,239.56909608177375 71.36199999973178,239.56909608177375 72.82000000029802,239.7558776967926 73.4679999994114,239.56909608177375 74.27799999993294,239.56909608177375 74.76399999950081,239.56909608177375 78.00399999972433,240.129440871533 79.78600000031292,240.31622243090533 82.70199999865144,240.87656699621584 83.6739999987185,241.06334848050028 84.80800000019372,241.06334848050028 85.4559999993071,240.31622243090533 84.32199999969453,240.129440871533 83.51199999917299,239.7558776967926 82.37799999956042,239.56909608177375 81.5679999999702,239.38231444731355 80.4339999994263,239.0087511234451 79.29999999981374,238.6351877237903 78.49000000022352,238.2616242498625 77.84199999924749,238.07484248513356 74.27799999993294,237.70127889933065 72.98200000077486,237.70127889933065 71.68599999975413,237.70127889933065 68.77000000048429,237.32771523774136 67.31199999991804,237.32771523774136 64.71999999973923,237.51449707790744 62.45199999958277,237.14093337929808 61.3179999999702,236.95415150176268 60.183999999426305,236.95415150176268 59.69799999985844,237.14093337929808 59.049999999813735,236.95415150176268 58.40199999976903,236.95415150176268 55.972000000067055,236.7673696060665 54.838000000454485,236.58058769162744 54.18999999947846,236.7673696060665 53.86600000038743,236.58058769162744 52.89399999938905,236.58058769162744 50.139999999664724,236.20702380605508 48.0339999999851,236.20702380605508 43.011999999172986,236.02024183468893 41.87800000049174,236.20702380605508 40.58199999947101,236.02024183468893 40.09599999990314,235.64667783712503 39.286000000312924,235.4598958103452 38.80000000074506,234.8995496169664 35.07400000002235,234.15242109796964 33.777999999932945,234.15242109796964 31.347999999299645,233.9656389215961 27.459999999962747,233.77885672578122 26.326000000350177,233.77885672578122 25.191999999806285,233.9656389215961 23.57200000062585,234.3392032557167 22.762000000104308,234.52598539495375 19.360000000335276,234.52598539495375 16.12000000011176,234.3392032557167 14.5,234.8995496169664 20.169999999925494,234.8995496169664 23.08600000012666,234.52598539495375 25.678000000305474,234.71276751544792 26.16399999987334,234.71276751544792 27.298000000417233,234.71276751544792 28.593999999575317,234.8995496169664 32.157999999821186,234.8995496169664 33.777999999932945,235.08633170020767 35.235999999567866,235.08633170020767 37.50399999972433,235.2731137649389 38.80000000074506,235.64667783712503 39.44799999985844,235.64667783712503 40.419999999925494,235.64667783712503 43.17399999964982,235.2731137649389 45.441999999806285,234.8995496169664 46.575999999418855,234.8995496169664 49.006000000052154,235.64667783712503 50.78799999970943,236.58058769162744 51.43599999975413,236.7673696060665 52.731999998912215,237.14093337929808 56.13399999961257,237.51449707790744 57.592000000178814,237.70127889933065 59.049999999813735,237.70127889933065 61.3179999999702,237.8880607014289 62.45199999958277,238.07484248513356 63.42399999964982,238.07484248513356 64.55799999926239,238.07484248513356 66.82600000035018,238.44840599643067 69.25599999912083,239.0087511234451 70.22800000011921,239.38231444731355 70.87599999923259,239.56909608177375 71.68599999975413,239.7558776967926 74.76399999950081,240.50300397130195 75.89799999911338,240.6897854928393 76.70799999963492,240.6897854928393 77.84199999924749,240.50300397130195 79.29999999981374,240.31622243090533 81.24399999994785,240.50300397130195 84.32199999969453,240.87656699621584 86.1039999993518,240.6897854928393 85.61799999978393,240.31622243090533 84.15999999921769,239.9426592933014 83.83599999919534,239.7558776967926 83.02599999960512,239.7558776967926 81.5679999999702,239.0087511234451 80.10999999940395,238.6351877237903 77.84199999924749,238.07484248513356 75.73599999956787,238.2616242498625 75.08799999952316,238.2616242498625 72.98200000077486,238.44840599643067 69.90399999916553,238.6351877237903 68.60800000000745,238.2616242498625 67.79799999948591,237.8880607014289 66.82600000035018,237.70127889933065 66.33999999985099,237.51449707790744 63.42399999964982,236.95415150176268 61.64199999999255,236.95415150176268 60.83200000040233,236.95415150176268 59.21199999935925,236.95415150176268 58.72599999886006,236.7673696060665 57.75399999972433,236.7673696060665 55.972000000067055,236.3938057582127 50.463999999687076,237.14093337929808 49.32999999914318,237.14093337929808 48.0339999999851,237.51449707790744 44.955999999307096,236.20702380605508 44.955999999307096,236.58058769162744 43.66000000014901,236.20702380605508 42.04000000003725,236.02024183468893 41.0679999999702,236.02024183468893 40.58199999947101,235.83345984562766 36.69400000013411,235.2731137649389 33.12999999988824,234.71276751544792 31.347999999299645,234.3392032557167 27.622000000439584,233.21851002715994 24.867999999783933,233.59207451168913 24.057999999262393,233.77885672578122 23.41000000014901,233.77885672578122 21.951999999582767,233.59207451168913 18.063999999314547,233.405292279087 15.31000000052154,233.59207451168913 16.12000000011176,233.405292279087 17.902000000700355,233.59207451168913 18.873999999836087,233.59207451168913 19.684000000357628,233.405292279087 20.817999999970198,233.59207451168913 21.951999999582767,233.59207451168913 24.70600000023842,233.59207451168913 25.678000000305474,233.59207451168913 26.81199999898672,233.59207451168913 28.10800000000745,233.59207451168913 32.48199999984354,234.52598539495375 34.91200000047684,234.8995496169664 35.88400000054389,234.8995496169664 36.855999999679625,234.8995496169664 37.828000000678,235.2731137649389 40.25800000037998,235.4598958103452 41.553999999538064,235.64667783712503 43.821999999694526,236.02024183468893 44.955999999307096,236.20702380605508 47.22399999946356,236.3938057582127 50.139999999664724,236.02024183468893 51.11199999973178,236.20702380605508 52.24599999934435,236.20702380605508 56.13399999961257,237.51449707790744 57.105999999679625,237.8880607014289 59.21199999935925,237.8880607014289 62.28999999910593,238.44840599643067 65.2059999993071,238.2616242498625 67.6359999999404,238.07484248513356 68.93199999909848,237.8880607014289 69.90399999916553,238.07484248513356 71.03799999970943,238.07484248513356 73.14399999938905,238.07484248513356 74.43999999947846,238.6351877237903 74.92599999904633,238.6351877237903 76.5460000000894,239.0087511234451 78.00399999972433,239.56909608177375 81.5679999999702,239.9426592933014 83.6739999987185,239.9426592933014 83.6739999987185,239.0087511234451 82.2160000000149,239.19553279480897 80.59599999990314,239.56909608177375 77.35599999967963,239.19553279480897 76.5460000000894,239.38231444731355 75.57400000002235,239.19553279480897 72.49599999934435,238.82196943298914 71.20000000018626,239.0087511234451 69.25599999912083,239.0087511234451 68.77000000048429,238.6351877237903 67.95999999996275,238.6351877237903 66.98799999989569,238.44840599643067 66.01599999982864,238.07484248513356 63.42399999964982,237.32771523774136 60.83200000040233,237.32771523774136 60.02199999988079,237.32771523774136 59.049999999813735,237.14093337929808 58.07799999974668,237.14093337929808 55.161999999545515,236.7673696060665 54.02800000086427,236.58058769162744 52.24599999934435,236.7673696060665 51.11199999973178,236.58058769162744 46.08999999985099,234.8995496169664 45.11799999978393,234.3392032557167 43.66000000014901,233.59207451168913 40.90599999949336,233.405292279087 39.610000000335276,233.03172775742132 37.989999999292195,232.65816316124983 35.07400000002235,232.65816316124983 34.42599999997765,232.844945468707 33.61600000038743,233.21851002715994 30.700000000186265,233.59207451168913 30.37599999923259,233.59207451168913 30.37599999923259,233.21851002715994 30.05199999921024,233.405292279087 28.432000000029802,233.9656389215961 27.459999999962747,233.9656389215961 24.54399999976158,233.9656389215961 19.035999999381602,232.65816316124983 16.605999999679625,232.65816316124983 19.035999999381602,233.77885672578122 24.21999999973923,233.59207451168913 25.191999999806285,233.77885672578122 26.487999999895692,234.3392032557167 28.91800000052899,235.2731137649389 31.347999999299645,235.64667783712503 32.32000000029802,235.83345984562766 33.12999999988824,236.02024183468893 34.42599999997765,236.02024183468893 40.25800000037998,236.7673696060665 40.90599999949336,236.7673696060665 42.04000000003725,236.95415150176268 43.66000000014901,236.95415150176268 46.575999999418855,237.51449707790744 49.16799999959767,237.51449707790744 50.463999999687076,237.8880607014289 51.75999999977648,237.8880607014289 53.217999999411404,238.07484248513356 54.67599999997765,238.2616242498625 55.485999999567866,238.6351877237903 56.62000000011176,238.82196943298914 57.75399999972433,239.0087511234451 60.99399999901652,239.38231444731355 62.28999999910593,239.38231444731355 64.71999999973923,239.0087511234451 65.2059999993071,238.6351877237903 67.31199999991804,238.6351877237903 70.38999999966472,239.0087511234451 71.84799999929965,238.82196943298914 73.4679999994114,239.38231444731355 74.27799999993294,239.56909608177375 75.57400000002235,239.38231444731355 76.38399999961257,239.38231444731355 79.78600000031292,239.56909608177375 83.02599999960512,240.50300397130195 84.96999999973923,239.38231444731355 83.34999999962747,239.0087511234451 83.18800000008196,238.82196943298914 82.86399999912828,238.6351877237903 81.5679999999702,238.6351877237903 80.4339999994263,238.82196943298914 77.03199999965727,238.6351877237903 75.41199999954551,238.6351877237903 74.11599999945611,238.6351877237903 71.36199999973178,238.44840599643067 70.22800000011921,238.6351877237903 69.09399999957532,238.6351877237903 67.95999999996275,238.6351877237903 66.82600000035018,237.70127889933065 66.01599999982864,236.95415150176268 63.90999999921769,236.20702380605508 62.28999999910593,236.02024183468893 60.99399999901652,235.83345984562766 57.26800000015646,235.64667783712503 56.29600000008941,235.83345984562766 55.161999999545515,235.83345984562766 53.05599999986589,236.20702380605508 51.921999999322,236.02024183468893 50.78799999970943,236.02024183468893 48.519999999552965,235.4598958103452 48.19599999953061,235.83345984562766 47.872000000439584,235.64667783712503 46.08999999985099,235.2731137649389 45.27999999932945,235.2731137649389 43.98399999924004,235.4598958103452 41.87800000049174,235.08633170020767 40.743999999947846,234.8995496169664 37.828000000678,234.52598539495375 37.17999999970198,234.71276751544792 36.04600000008941,234.52598539495375 34.588000000454485,234.15242109796964 32.32000000029802,233.77885672578122 30.05199999921024,233.21851002715994 28.432000000029802,233.59207451168913 27.459999999962747,233.77885672578122 26.81199999898672,233.9656389215961 25.515999999828637,233.77885672578122 22.600000000558794,233.21851002715994 18.38800000026822,232.47138083481696 17.25399999972433,232.47138083481696 16.768000000156462,232.47138083481696 17.902000000700355,233.59207451168913 19.52199999988079,234.15242109796964 22.762000000104308,234.3392032557167 24.057999999262393,234.52598539495375 25.83999999985099,234.3392032557167 26.973999999463558,234.15242109796964 27.945999999530613,233.9656389215961 30.37599999923259,234.3392032557167 31.347999999299645,234.52598539495375 31.99599999934435,234.71276751544792 32.644000000320375,234.71276751544792 35.235999999567866,235.08633170020767 36.69400000013411,235.2731137649389 37.828000000678,235.4598958103452 40.58199999947101,235.83345984562766 41.87800000049174,235.83345984562766 42.84999999962747,236.02024183468893 43.821999999694526,236.20702380605508 45.27999999932945,236.58058769162744 48.19599999953061,236.7673696060665 48.6820000000298,236.58058769162744 49.49199999962002,236.58058769162744 50.30200000014156,236.58058769162744 51.75999999977648,236.58058769162744 53.86600000038743,236.95415150176268 54.838000000454485,236.95415150176268 56.13399999961257,237.14093337929808 59.049999999813735,237.8880607014289 60.34599999990314,238.6351877237903 62.614000000059605,239.0087511234451 63.74799999874085,239.0087511234451 66.33999999985099,238.6351877237903 68.44599999953061,238.44840599643067 69.5800000000745,238.6351877237903 70.55200000014156,238.6351877237903 71.03799999970943,238.6351877237903 71.36199999973178,238.6351877237903 72.171999999322,238.6351877237903 75.25,238.6351877237903 76.38399999961257,239.0087511234451 78.32799999974668,239.19553279480897 78.65199999976903,239.38231444731355 79.46199999935925,239.38231444731355 80.4339999994263,239.7558776967926 83.34999999962747,239.7558776967926 84.80800000019372,239.7558776967926 85.94199999887496,238.82196943298914 83.34999999962747,239.19553279480897 81.24399999994785,239.0087511234451 80.27199999988079,238.82196943298914 79.46199999935925,238.44840599643067 77.35599999967963,237.14093337929808 77.19399999920279,236.3938057582127 77.03199999965727,235.64667783712503 76.38399999961257,233.03172775742132 76.70799999963492,232.2845984895248 76.70799999963492,231.35068648401648 76.86999999918044,230.22999146021903 78.81400000024587,224.81328934815247 78.97599999979138,221.4511904688552 78.97599999979138,219.58335513831116 79.1379999993369,218.27586929383688 79.29999999981374,216.22124682914 79.94799999985844,213.79305372503586 80.10999999940395,211.1780729989987 80.10999999940395,209.49701202462893 80.27199999988079,208.56308860634454 78.65199999976903,210.43093497515656 78.65199999976903,211.3648574583931 78.49000000022352,212.48556382022798 78.16599999926984,213.97983792203013 77.51799999922514,216.40803078340832 77.51799999922514,217.71551793732215 77.35599999967963,219.7701387554407 77.03199999965727,219.95692235417664 77.67999999970198,221.07762355252635 77.51799999922514,222.57189076871146 76.70799999963492,227.2414681025548 76.70799999963492,229.10929576237686 76.70799999963492,229.85642630199436 76.22199999913573,230.41677401098423 75.57400000002235,232.2845984895248 74.92599999904633,234.71276751544792 74.92599999904633,235.64667783712503 73.79199999943376,238.2616242498625 73.14399999938905,238.44840599643067 72.00999999977648,238.6351877237903 69.09399999957532,239.7558776967926 64.23400000017136,236.20702380605508 63.58600000012666,236.02024183468893 62.77600000053644,236.02024183468893 61.80400000046939,235.83345984562766 61.15599999949336,235.64667783712503 58.40199999976903,235.2731137649389 56.62000000011176,234.8995496169664 53.70399999991059,234.8995496169664 51.921999999322,235.2731137649389 50.78799999970943,235.4598958103452 49.816000000573695,235.83345984562766 48.6820000000298,236.02024183468893 46.252000000327826,236.02024183468893 41.7160000000149,237.14093337929808 41.22999999951571,236.58058769162744 40.743999999947846,236.02024183468893 37.17999999970198,236.3938057582127 33.291999999433756,236.20702380605508 30.700000000186265,232.65816316124983 29.080000000074506,233.21851002715994 28.593999999575317,233.59207451168913 22.27599999960512,234.8995496169664 17.740000000223517,231.91103374329396 17.740000000223517,233.21851002715994 19.360000000335276,233.77885672578122 20.493999999947846,234.3392032557167 21.627999999560416,234.8995496169664 22.924000000581145,235.2731137649389 25.678000000305474,235.83345984562766 26.81199999898672,235.64667783712503 27.622000000439584,235.64667783712503 28.593999999575317,235.64667783712503 29.890000000596046,235.4598958103452 32.32000000029802,235.64667783712503 33.291999999433756,235.64667783712503 34.26399999950081,235.64667783712503 36.53199999965727,236.02024183468893 37.989999999292195,236.02024183468893 39.44799999985844,236.02024183468893 40.90599999949336,236.02024183468893 43.497999999672174,236.02024183468893 44.63200000021607,236.02024183468893 45.60400000028312,236.02024183468893 47.22399999946356,236.3938057582127 47.70999999996275,236.58058769162744 48.6820000000298,236.7673696060665 49.65400000009686,236.7673696060665 51.274000000208616,236.7673696060665 53.541999999433756,237.14093337929808 54.67599999997765,237.14093337929808 55.6480000000447,237.14093337929808 57.592000000178814,237.70127889933065 58.56400000024587,237.70127889933065 59.5359999993816,237.70127889933065 60.50799999944866,237.8880607014289 63.42399999964982,237.8880607014289 64.88199999928474,237.8880607014289 66.66399999987334,237.8880607014289 70.55200000014156,238.6351877237903 71.36199999973178,238.6351877237903 72.98200000077486,238.6351877237903 74.6019999999553,238.6351877237903 76.5460000000894,238.82196943298914 77.67999999970198,239.0087511234451 78.16599999926984,239.19553279480897 78.97599999979138,239.19553279480897 79.46199999935925,239.19553279480897 79.94799999985844,239.38231444731355 82.05399999953806,239.9426592933014 83.02599999960512,240.129440871533 85.4559999993071,238.82196943298914 84.15999999921769,238.6351877237903 83.18800000008196,238.6351877237903 82.37799999956042,238.82196943298914 81.40599999949336,238.6351877237903 80.4339999994263,238.44840599643067 78.16599999926984,236.3938057582127 78.32799999974668,232.65816316124983 78.32799999974668,231.72425134223886 78.65199999976903,228.92251308099367 78.65199999976903,227.61503378488123 78.81400000024587,226.30755357129965 78.97599999979138,223.69259039545432 79.62399999983609,223.87937360128853 80.59599999990314,224.25293995602988 81.40599999949336,224.43972310540266 84.48399999924004,224.81328934815247 86.42799999937415,225.1868555167457 87.07599999941885,225.1868555167457 88.20999999996275,225.37363857240416 90.80200000014156,225.56042160943616 91.61199999973178,223.50580717076082 92.25999999977648,221.6379738987889 92.90799999888986,220.70405656122603 94.36599999945611,218.64943677175324 94.68999999854714,217.9023017414147 95.5,216.22124682914 95.33799999952316,215.28732677851804 92.421999999322,211.92521072353702 90.31599999964237,212.11199510772713 89.50600000005215,212.11199510772713 87.72399999946356,212.11199510772713 86.58999999985099,212.11199510772713 85.29399999976158,211.92521072353702 83.99799999967217,211.92521072353702 80.10999999940395,213.41948527400382 79.62399999983609,214.72697452350985 79.62399999983609,215.47411082591861 79.62399999983609,216.78159863478504 78.81400000024587,217.15516641177237 77.35599999967963,221.26440701982938 77.84199999924749,224.43972310540266 77.03199999965727,227.2414681025548 76.70799999963492,229.4828610693803 76.70799999963492,230.41677401098423 76.22199999913573,232.47138083481696 75.89799999911338,232.844945468707 75.57400000002235,233.77885672578122 75.25,235.4598958103452 73.4679999994114,237.70127889933065 71.52400000020862,237.8880607014289 70.71399999875575,237.8880607014289 69.25599999912083,237.51449707790744 67.47399999946356,237.32771523774136 64.07199999969453,236.20702380605508 62.937999999150634,236.20702380605508 61.96599999908358,236.02024183468893 61.3179999999702,235.64667783712503 60.34599999990314,235.4598958103452 59.37399999983609,235.4598958103452 56.62000000011176,234.8995496169664" stroke="#4dd2ff" stroke-linecap="round" stroke-linejoin="round" stroke-width="0.5"><title>2021-06-21 10.0km</title></polyline></svg>