<?xml version="1.0" encoding="utf-8" ?>
<svg baseProfile="full" height="300mm" version="1.1" viewBox="0,0,200,300" width="200mm" xmlns="http://www.w3.org/2000/svg" xmlns:ev="http://www.w3.org/2001/xml-events" xmlns:xlink="http://www.w3.org/1999/xlink"><defs /><rect fill="#222222" height="300" width="200" x="0" y="0" /><text fill="#FFFFFF" style="font-size:12px; font-family:Arial; font-weight:bold;" x="10" y="20">Over 10km Runs</text><text fill="#FFFFFF" style="font-size:4px; font-family:Arial" x="10" y="280">ATHLETE</text><text fill="#FFFFFF" style="font-size:9px; font-family:Arial" x="10" y="290">DuckTyping</text><text fill="#FFFFFF" style="font-size:4px; font-family:Arial" x="65" y="280">SPECIAL TRACKS</text><rect fill="yellow" height="2.6" width="2.6" x="65" y="283" /><text fill="#FFFFFF" style="font-size:3px; font-family:Arial" x="70" y="285.5">Over 20.0 km</text><rect fill="red" height="2.6" width="2.6" x="65" y="287" /><text fill="#FFFFFF" style="font-size:3px; font-family:Arial" x="70" y="289.5">Over 40.0 km</text><text fill="#FFFFFF" style="font-size:4px; font-family:Arial" x="120" y="280">STATISTICS</text><text fill="#FFFFFF" style="font-size:3px; font-family:Arial" x="120" y="285">Number: 6</text><text fill="#FFFFFF" style="font-size:3px; font-family:Arial" x="120" y="290">Weekly: 1.0</text><text fill="#FFFFFF" style="font-size:3px; font-family:Arial" x="141" y="285">Total: 70.8 km</text><text fill="#FFFFFF" style="font-size:3px; font-family:Arial" x="141" y="290">Avg: 11.8 km</text><text fill="#FFFFFF" style="font-size:3px; font-family:Arial" x="167" y="285">Min: 10.0 km</text><text fill="#FFFFFF" style="font-size:3px; font-family:Arial" x="167" y="290">Max: 16.3 km</text><polyline fill="none" points="26.331989131635055,49.523018772219075 26.78180040582083,49.523018772219075 27.20515219331719,50.576447166182334 27.39036860037595,51.04119377635652 28.422288582194597,51.01021069200942 28.819180883001536,51.567905705131125 30.009857785189524,51.3820074860123 30.59196649317164,51.19610914832447 30.988858793862164,51.815769812703365 29.904019838548265,52.342480341292685 28.131234228378162,52.838207027933095 26.252610671450384,53.48884702424402 25.247150176321156,53.61277828752645 25.247150176321156,54.38734748814022 24.71796044195071,54.57324378998601 24.69150095526129,55.657636520045344 25.00901479588356,56.834972629498225 25.194231202825904,58.29114492167719 25.45882606995292,59.37552381659043 25.802799397264607,61.203467676619766 26.06739426450804,62.907472812978085 26.464286565198563,64.61146798575646 26.861178866005503,66.68723046209197 27.258071166696027,68.70101574985893 27.337449626997113,68.88690292101819 27.654963467502967,70.28105292585678 28.10477474180516,72.10892838358996 28.44874806900043,73.7199277569598 28.819180883001536,75.45484020045842 29.268992157187313,77.31366350129247 29.71880343137309,79.42031557759037 30.11569573218003,81.43401288750465 30.221533678937703,82.45634619728662 30.671344953239895,84.40806346779573 31.121156227425672,86.54564357886557 31.65034596179612,88.49733346808353 32.10015723586548,90.57292583718663 32.49704953667242,92.49361008734559 32.92040132416878,94.5381955440098 33.31729362497572,96.39689715139684 33.71418592578266,98.28656496969052 33.7935643857345,98.813191523368 33.87294284591917,99.58764060927206 34.21691617323086,101.38435456537991 34.40213258028962,102.06586385887931 35.09007923491299,102.00390853438876 35.53989050909877,102.06586385887931 36.09553973027505,102.3136850251758 37.339135605841875,102.12781917030225 38.397515074466355,101.97293086725404 40.408436065074056,101.6941317145247 41.75786988751497,101.41533229517518 42.736870896071196,101.322399096156 44.74779188656248,100.95066600368591 46.33536108955741,100.7957770752837 46.97038877080195,100.57893243728904 48.4785795136122,100.3930654762953 48.9548502744874,100.14524267736124 50.621797937667,100.1142648125824 51.52142048603855,99.95937543985201 53.13544917583931,99.7115522721142 54.37904505140614,99.64959644738701 55.06699170614593,99.37079507260933 56.178290148149244,99.0610154546739 57.63356191769708,99.03003747481853 59.61802342149895,98.4414552312519 61.15267365088221,97.7599374645797 62.02583671268076,97.20233083414496 62.95191874774173,96.79961427091621 63.85154129611328,96.02515777797089 64.35427154379431,95.4985261876136 65.46556998591404,94.41428168214043 66.92084175522905,92.95828985946719 67.4500314895995,92.46263140946394 68.16443763091229,92.64850342704449 68.72008685197216,92.18382316100178 69.1169791527791,92.46263140946394 69.83138529409189,94.3213462511776 70.59871040889993,96.14907095511444 71.39249501051381,98.00776229138137 72.05398217833135,99.43275095670833 72.76838831964415,101.44631002153619 72.9536047267029,102.18977446839563 73.50925394776277,103.52181019383715 73.82676778826863,104.8228624687763 74.32949803606607,106.0 74.514714442892,105.81413649523165 75.41433699126355,105.25654527009465 75.04390417726245,104.17233705715626 74.80576879694127,103.36692263159784 74.38241700944491,102.09684151623514 73.69447035470512,100.42404331135913 73.24465908051934,99.27786122180987 72.6890098596923,97.72895934645203 72.29211755888537,96.67570137022994 71.92168474465143,95.74635293686879 71.41895449708682,94.13547530033975 70.78392681584228,92.52458876182209 70.30765605496708,91.03760867117671 69.77846632071305,89.20985191743239 69.35511453333311,88.06362573316437 68.64070839178748,86.48368495565956 68.34965403797105,85.39940691774245 68.13797814422287,84.37708393068169 67.74108584341593,83.57161480924697 67.39711251610424,82.23948791611474 66.86792278185021,81.12421420696774 66.97376072860789,80.1018762246822 66.62978740141261,79.60619591214345 66.04767869366333,78.70777319709305 65.99475972016808,78.67679305409547 65.7830838264199,78.36699144280283 65.43911049910821,77.37562407372752 65.28035357873887,76.6011159705231 64.88346127804834,75.48582068589167 64.1161361632403,73.7199277569598 63.6398654023651,71.95402412832482 63.37527053523809,71.24146349387593 62.84608080086764,69.94026131834835 62.13167465943843,68.01942844103905 61.73478235886432,66.96606310113566 61.655403898563236,65.91269395378185 61.04683570412453,64.20870638955967 60.57056494324934,62.72158182770363 59.90907777531538,61.14150366571266 59.61802342149895,59.840256393363234 59.24759060749784,58.72489696391858 59.141752660507336,57.268726839189185 59.19467163400259,56.64907777053304 58.37442754569929,55.62665392665076 58.21567062532995,53.98457176075317 58.03045421850402,52.68329252896365 58.08337319176644,51.50593964519794 58.03045421850402,50.35956516113947 58.13629216526169,49.24416944224504 58.003994731698185,48.81040328729432 57.76585935114417,47.07533221060294 57.76585935114417,45.86697303591063 57.60710243100766,44.19385205957224 57.34250756376423,43.79106224150746 57.28958859038539,42.70662534836447 57.44834551063832,40.754628769209376 57.76585935114417,39.01950972015038 58.08337319176644,38.182930772250984 59.1152931737015,36.540750296233455 59.274050094070844,35.983026519505074 59.00945522694383,35.36333218208165 58.48026549257338,34.80560615140712 57.501264484017156,34.0 57.130831670132466,34.402803354139905 56.6016419356456,34.37181850048364 55.7549383607693,34.433788204565644 55.27866759977769,34.34083364359685 54.59072094515432,34.61969723724178 53.92923377722036,35.394316930207424 53.29420609609224,35.92105714508216 52.579799954779446,36.01401120173978 51.468501512659714,35.73514894276741 49.58987795584835,35.983026519505074 47.84355183248408,36.38582713203505 46.04430673562456,36.91256555420114 44.53611599293072,37.37733395944815 42.763330382760614,37.904070589051116 41.572653480572626,38.244899665529374 39.93216530419886,38.64769715091097 38.15937969402876,39.1434471377288 37.31267611915246,39.42230613468564 37.92124431359116,39.23640016641002 39.58819197677076,38.77163472675602 41.44035604700912,38.337852980883326 42.71041140938178,38.058992946054786 44.11276420543436,37.501272075634915 45.356360081001185,37.16044212930137 47.18206466443371,36.72665798457456 48.743174380855635,36.29287319388823 50.013229743228294,35.79711835665512 50.489500504219905,35.82810305865132 51.12452818534803,36.354842489236034 51.60079894622322,36.01401120173978 51.41558253916446,35.73514894276741 49.616337442421354,35.890072452952154 48.346282080048695,36.354842489236034 46.83809133712202,36.72665798457456 45.03884624049533,37.28438033768907 43.21314165694639,37.78013264431502 42.0224647547584,38.182930772250984 40.80532836576458,38.337852980883326 39.13838070258498,38.89557224980672 37.39205457945354,39.329353165318025 38.05354174715467,39.17443148395978 39.37651608302258,38.74065033777151 40.19676017132588,38.61671274877153 41.28159912675619,38.27588410730823 42.736870896071196,37.99702401316608 44.03338574524969,37.65619464672636 45.22406264743768,37.28438033768907 46.09722570911981,37.191426686389605 47.20852415112313,36.8815809674561 47.63187593861949,36.664688768272754 48.531498487107456,36.323857843264705 49.64279692922719,35.890072452952154 50.489500504219905,35.890072452952154 51.17744715884328,36.29287319388823 51.60079894622322,36.16893456369871 51.547879972844385,35.79711835665512 50.46304101741407,35.70416423075949 49.43112103547901,35.92105714508216 48.26690361998044,36.323857843264705 46.54703698330559,36.85059637748054 44.95946778031066,37.28438033768907 43.39835806400515,37.811117135424865 42.101843214943074,38.2139152205491 41.12284220638685,38.30686854568194 39.826327357208356,38.67868154987809 39.45589454320725,38.77163472675602 38.15937969402876,39.1124627882964 36.49243203084916,39.29836883561802 36.571810491150245,39.887070536322426 36.28075613710098,40.506755252048606 36.598269977839664,41.46726395667065 37.10100022540428,43.3882718665991" stroke="#4DD2FF" stroke-linecap="round" stroke-linejoin="round" stroke-width="0.5"><title>2024-09-21 10.0km</title><desc>9223370309945626422</desc></polyline><polyline fill="none" points="126.48440366936848,90.18834299588343 125.42752293567173,90.42038576479536 124.56880733952858,90.80712354846764 120.53944954113103,92.19937786710216 120.01100917416625,92.19937786710216 119.68073394498788,91.81264082342386 119.02018348593265,89.33751887670951 118.75596330268309,87.09443233831553 118.42568807303905,86.16625657491386 117.17064220178872,79.90103919518879 116.5761467886623,77.96731922973413 116.37798165110871,76.49768861784833 115.91559633007273,74.95070581877371 115.71743119275197,72.70757491653785 115.32110091741197,70.23238796181977 114.13211009162478,65.66873993357876 114.0,64.89523743011523 114.2642201834824,64.50848586991196 115.32110091741197,64.19908447342459 116.51009174296632,64.12173410388641 118.68990825675428,63.65763171331491 119.68073394498788,63.348229955125134 121.33211009157822,62.2653227650444 121.92660550470464,62.033271014573984 122.91743119223975,61.87856980646029 124.17247706418857,62.34267333231401 126.1541284401901,62.34267333231401 129.98532110080123,61.49181664234493 132.75963302724995,61.182413962844294 133.94862385326996,60.718309696763754 137.05321100912988,60.022152742603794 139.23302752291784,59.86745110695483 141.743119266117,59.403346001927275 144.64954128442332,58.552485873689875 146.0366972477641,57.39222045830684 147.48990825680085,56.92811377387261 150.59449541312642,57.31486936483998 152.90642201830633,56.46400679345243 154.75596330291592,56.07725075026974 156.14311926602386,55.45844065316487 160.63486238522455,54.143467449059244 163.6733944953885,53.679358691733796 165.19266055058688,52.905843437998556 166.4477064218372,52.51908550289227 168.9577981652692,52.28703064273577 171.13761467882432,51.28145872789901 175.56330275256187,50.353237264673226 181.37614678917453,48.651494838879444 182.4990825690329,48.41943874506978 183.9522935783025,49.2703107270645 184.48073394503444,49.42501461680513 185.20733944978565,49.11560680437833 185.8018348624464,48.49679078452755 185.73577981675044,48.18738257710356 185.14128440385684,47.87797423824668 182.6972477065865,47.800622132839635 178.13944954122417,49.2703107270645 177.01651376159862,49.81177419726737 171.9302752292715,51.04940347315278 170.08073394512758,51.90027237846516 168.7596330277156,52.054975709063 166.4477064218372,52.82849186746171 165.39082568814047,52.82849186746171 160.30458715604618,54.375521716603544 158.5871559632942,54.60757591034053 156.07706422009505,55.53579194418853 154.09541284409352,55.99989951681346 151.65137614659034,57.00546490855049 150.2642201834824,57.00546490855049 150.5284403669648,57.23751826316584 151.05688073392957,57.160167153168004 152.97247706423514,56.309304400812835 157.46422018343583,54.99433273484465 158.5871559632942,54.68492729164427 161.62568807345815,54.375521716603544 165.58899082592689,53.13789810059825 166.77798165171407,52.44173389102798 168.82568807341158,52.054975709063 173.91192660550587,50.81734814424999 175.10091743106022,50.353237264673226 175.89357798174024,50.27588542253943 177.346788990777,49.73442229774082 179.65871559642255,49.19295876985416 182.89541284414008,48.49679078452755 183.82018348644488,49.34766267606756 184.87706422037445,49.57971847371664 185.60366972489282,49.34766267606756 185.93394495430402,48.72884685359895 185.8018348624464,48.41943874506978 185.20733944978565,48.18738257710356 181.90458715590648,48.11003050481668 180.71559633035213,48.18738257710356 176.02568807359785,49.966477972164284 171.26972477091476,50.97205170500092 169.68440366978757,51.590865619073156 165.52293577976525,52.67378870153334 162.08807339449413,53.91141310730018 159.8422018350102,54.452873122587334 157.53027522936463,54.762278664682526 155.54862385313027,55.30373804655392 152.24587155948393,56.54135797737399 150.99082568800077,56.85076263110386 150.39633027510718,57.23751826316584 151.25504587148316,57.08281603484647 152.57614678912796,56.54135797737399 154.0293577981647,56.309304400812835 155.15229357779026,55.69049450138118 156.80366972461343,55.14903540740488 164.6642201836221,53.369952688983176 167.17431192682125,52.36438227101462 169.3541284406092,52.20967900642427 170.87339449557476,51.513513908779714 172.98715596366674,51.2041069844272 177.01651376159862,49.73442229774082 178.86605504574254,49.34766267606756 180.45137614686973,48.80619886011118 182.6972477065865,48.41943874506978 183.88623853214085,49.03825483057881 184.74495412851684,49.19295876985416 185.27339449548163,48.88355085859075 185.53761467919685,48.342086697230116 185.4715596330352,48.11003050481668 185.14128440385684,47.95532633521361 182.56513761472888,48.11003050481668 179.06422018352896,48.72884685359895 177.01651376159862,49.81177419726737 175.69541284395382,49.966477972164284 166.77798165171407,52.751140288601164 164.79633027524687,53.06054655474145 163.40917431213893,53.756710171699524 160.37064220220782,54.29817030217964 154.55779816489667,55.922548275324516 150.7266055047512,57.23751826316584 153.30275229364634,56.309304400812835 154.6238532110583,55.922548275324516 155.87889908254147,55.30373804655392 157.860550458543,55.07168407528661 161.09724770626053,54.143467449059244 162.94678899087012,53.91141310730018 165.45688073383644,52.82849186746171 166.976146788802,52.51908550289227 168.16513761458918,52.054975709063 171.00550458719954,51.590865619073156 175.23302752315067,50.19853357237298 178.27155963308178,49.81177419726737 180.64954128465615,48.651494838879444 181.44220183463767,48.41943874506978 182.4990825690329,48.26473464118317 183.75412844028324,48.960902848804835 184.94311926630326,49.19295876985416 185.4055045871064,49.19295876985416 185.66972477082163,48.88355085859075 185.66972477082163,48.41943874506978 185.20733944978565,48.18738257710356 182.1027522936929,47.95532633521361 180.31926605524495,48.41943874506978 176.75229357811622,49.657070389948785 165.98532110103406,52.59643710643286 163.54128440399654,53.524655706831254 157.53027522936463,54.68492729164427 155.68073394475505,55.61314322677208 152.24587155948393,56.773411480069626 150.3302752294112,57.08281603484647 151.05688073392957,57.23751826316584 153.03853211016394,56.309304400812835 154.2275229357183,56.07725075026974 155.68073394475505,55.53579194418853 158.5871559632942,54.762278664682526 160.50275229359977,54.452873122587334 162.08807339449413,53.91141310730018 166.24954128428362,53.06054655474145 167.90091743133962,52.905843437998556 171.13761467882432,51.66821732139215 176.68623853218742,50.04382984706899 179.39449541294016,49.50236654951004 181.44220183463767,48.651494838879444 182.6972477065865,48.574142815952655 183.9522935783025,49.34766267606756 184.74495412851684,49.57971847371664 185.27339449548163,49.50236654951004 185.66972477082163,49.03825483057881 185.73577981675044,48.342086697230116 185.00917431223206,47.95532633521361 182.43302752287127,47.95532633521361 178.86605504574254,48.960902848804835 177.54495412833057,49.57971847371664 176.48807339463383,49.657070389948785 168.5614678899292,51.977624047896825 167.50458715599962,52.44173389102798 164.9944954130333,52.98319500044454 162.6825688071549,53.83406164374901 156.73761467891745,55.14903540740488 155.08623853186145,55.69049450138118 150.46238532103598,56.92811377387261 151.32110091741197,56.92811377387261 155.54862385313027,55.38108935410855 158.32293577957898,55.14903540740488 160.56880733952858,54.29817030217964 163.6733944953885,53.679358691733796 165.98532110103406,52.905843437998556 168.7596330277156,52.44173389102798 170.80733944964595,51.513513908779714 172.7889908256475,51.28145872789901 176.48807339463383,49.966477972164284 178.6018348627258,49.657070389948785 181.77247706451453,48.41943874506978 182.6972477065865,48.41943874506978 184.67889908258803,49.2703107270645 185.20733944978565,49.11560680437833 185.8018348624464,48.574142815952655 185.66972477082163,48.342086697230116 185.20733944978565,48.11003050481668 183.2917431194801,47.95532633521361 179.13027522945777,48.651494838879444 176.8183486238122,49.657070389948785 172.52477064239793,51.12675523292273 162.6825688071549,53.524655706831254 160.56880733952858,54.22081887978129 157.59633027529344,54.762278664682526 156.67155963298865,55.07168407528661 154.4917431192007,55.61314322677208 150.39633027510718,57.160167153168004 151.45321100926958,56.92811377387261 152.90642201830633,56.23195319221122 154.6238532110583,55.76784576749196 155.74678899068385,55.69049450138118 157.53027522936463,55.07168407528661 160.04036697233096,54.530224520596676 161.22935779811814,54.0661160100135 163.6733944953885,53.756710171699524 165.06055045872927,53.13789810059825 167.76880733971484,52.67378870153334 172.0623853211291,51.2041069844272 178.93211009190418,49.657070389948785 179.98899082583375,49.34766267606756 181.3100917430129,48.574142815952655 182.89541284414008,48.41943874506978 183.75412844028324,49.2703107270645 184.81100917444564,49.57971847371664 185.53761467919685,49.42501461680513 185.93394495430402,48.88355085859075 186.0,48.49679078452755 185.60366972489282,48.032678424264304 184.94311926630326,47.95532633521361 182.1027522936929,48.11003050481668 180.38532110117376,48.41943874506978 179.13027522945777,49.03825483057881 173.3174311928451,50.739996351650916 167.63669724785723,52.20967900642427 165.85321100894362,52.751140288601164 157.46422018343583,54.83963002980454 156.27522935764864,55.22638673108304 154.95412844023667,55.45844065316487 153.43486238550395,56.154601975285914 150.46238532103598,57.160167153168004 151.05688073392957,57.160167153168004 155.15229357779026,55.69049450138118 158.78532110108063,54.60757591034053 162.4844036696013,53.83406164374901 164.0036697247997,53.369952688983176 165.19266055058688,53.21524963824777 166.64587155962363,52.59643710643286 168.03302752319723,52.36438227101462 174.44036697247066,50.739996351650916 175.76146789011545,50.58529274153989 177.6110091744922,49.81177419726737 179.46055045886897,49.42501461680513 181.1119266054593,48.80619886011118 182.56513761472888,48.574142815952655 184.08440366992727,49.19295876985416 185.00917431223206,49.2703107270645 185.66972477082163,48.960902848804835 185.86788990837522,48.574142815952655 185.8018348624464,48.342086697230116 185.27339449548163,48.18738257710356 183.48990825680085,47.95532633521361 182.76330275274813,47.95532633521361 181.1779816513881,48.26473464118317 178.7339449543506,49.2703107270645 170.01467889919877,51.513513908779714 164.3339449542109,53.21524963824777 161.29541284404695,53.83406164374901 155.41651376150548,55.76784576749196 153.63302752305754,56.07725075026974 151.78348623844795,56.69606032088632 150.39633027510718,56.618709153321106 150.19816513778642,56.773411480069626 150.3302752294112,57.160167153168004 150.79266055044718,57.160167153168004 153.63302752305754,56.309304400812835 155.4825688074343,55.53579194418853 158.05871559656225,55.14903540740488 162.15412844042294,53.988764562644064 163.8055045872461,53.83406164374901 165.25871559628285,53.13789810059825 169.3541284406092,52.132327361847274 171.20366972475313,51.358810462930705 172.7889908256475,51.12675523292273 174.37431192654185,50.43058909854153 176.88440366997384,49.88912608876126 180.18715596338734,48.651494838879444 182.3009174312465,48.18738257710356 182.6972477065865,48.11003050481668 183.55596330272965,48.72884685359895 184.34862385317683,49.03825483057881 185.4055045871064,49.03825483057881 185.93394495430402,48.574142815952655 185.8018348624464,48.26473464118317 185.4715596330352,48.18738257710356 184.28256880748086,48.11003050481668 182.36697247740813,48.18738257710356 180.58348623849452,48.41943874506978 179.98899082583375,48.574142815952655 178.4036697249394,49.34766267606756 174.17614678898826,50.739996351650916 170.14678899082355,51.82292070100084 168.16513761458918,52.20967900642427 166.05137614696287,52.751140288601164 160.7009174313862,54.60757591034053 157.99266055040061,54.91698138642823 156.34128440381028,55.45844065316487 154.3596330275759,55.845197025395464 153.03853211016394,56.46400679345243 150.7266055047512,57.23751826316584 153.6990825687535,56.309304400812835 155.87889908254147,55.38108935410855 159.2477064221166,54.99433273484465 160.56880733952858,54.375521716603544 162.74862385331653,53.83406164374901 163.8715596331749,53.369952688983176 168.4293577983044,52.44173389102798 169.94862385326996,51.82292070100084 172.0623853211291,51.358810462930705 174.44036697247066,50.50794092420256 180.18715596338734,49.11560680437833 182.43302752287127,48.342086697230116 184.67889908258803,49.19295876985416 185.0752293576952,49.19295876985416 185.60366972489282,48.960902848804835 185.93394495430402,48.49679078452755 185.66972477082163,48.18738257710356 184.28256880748086,47.87797423824668 182.1027522936929,48.18738257710356 180.51743119279854,48.574142815952655 177.08256880752742,49.966477972164284 175.36513761477545,50.27588542253943 172.4587155962363,51.28145872789901 170.08073394512758,51.66821732139215 168.2972477064468,52.44173389102798 165.65504587162286,53.13789810059825 162.8146788990125,54.0661160100135 156.01100917439908,55.53579194418853 152.51009174296632,56.85076263110386 150.46238532103598,57.46957154368283 150.66055045858957,57.46957154368283 151.8495412846096,56.69606032088632 154.8220183486119,55.53579194418853 159.5779816515278,54.60757591034053 164.73027522931807,53.21524963824777 167.04220183496363,52.905843437998556 169.2220183487516,52.054975709063 170.47706422000192,51.745569015154615 171.86422018357553,51.590865619073156 173.8458715598099,50.81734814424999 177.94128440367058,49.657070389948785 180.58348623849452,49.19295876985416 182.36697247740813,48.342086697230116 182.6972477065865,48.41943874506978 183.6880733948201,49.11560680437833 184.87706422037445,49.42501461680513 185.60366972489282,49.2703107270645 185.86788990837522,48.80619886011118 185.86788990837522,48.49679078452755 185.33944954141043,48.18738257710356 182.3009174312465,48.11003050481668 178.8000000002794,49.11560680437833 176.68623853218742,50.04382984706899 174.90275229350664,50.43058909854153 173.11926605529152,51.12675523292273 172.12844036705792,51.358810462930705" stroke="#4DD2FF" stroke-linecap="round" stroke-linejoin="round" stroke-width="0.5"><title>2023-11-26 12.7km</title><desc>10282459870</desc></polyline><polyline fill="none" points="32.1587301583495,169.5537510701688 28.79365079337731,170.14852294302545 25.809523809235543,170.44590869016247 22.88888888875954,171.18937250389718 18.63492063456215,171.56110411440022 18.063492063432932,168.51289907470345 17.36507936473936,164.869904888561 16.603174602845684,161.07819690386532 16.349206349113956,158.69907551276265 15.523809523321688,154.68428980844328 14.761904761660844,151.78470801806543 14.190476190065965,148.5133705359185 14.761904761660844,145.1676686424762 17.04761904734187,144.72157384693855 19.52380952355452,143.8293834021315 23.015873015625402,142.7141437450191 25.873015872668475,142.04499909683364 28.412698412314057,141.45020331651904 31.777777777519077,140.78105745854555 34.63492063479498,140.11191096011316 37.42857142840512,139.59146324091125 40.79365079361014,138.84796582744457 43.77777777751908,138.17881747870706 46.507936507696286,137.58401840896113 50.57142857136205,136.46876878954936 55.52380952378735,135.35351739102043 59.0158730156254,134.68436569796177 61.80952380923554,133.94086306571262 64.53968253917992,133.27171002031537 68.22222222201526,132.15645352186402 71.20634920615703,131.41294820117764 75.1428571427241,129.92593518755166 79.46031746012159,128.58762077102438 82.2539682534989,128.14151539612794 85.49206349183805,129.4798306665616 84.73015872994438,131.1155458514695 79.9047619048506,129.77723371202592 76.1587301583495,130.9668446291471 73.74603174603544,131.48729876882862 71.33333333302289,132.23080401035259 68.85714285681024,132.97430846147472 65.49206349183805,134.08956365525955 62.63492063479498,134.68436569796177 60.47619047597982,135.57656781293917 57.93650793633424,136.17136859055609 54.44444444403052,136.98921883339062 51.65079365065321,137.65836832043715 49.17460317420773,138.4018669994548 49.80952380923554,137.7327182238223 52.031746031483635,136.91486885095946 55.33333333302289,136.3200687059434 57.99999999976717,135.72526805481175 61.30158730130643,134.75871591753094 65.30158730153926,133.71781212161295 68.60317460307851,132.89995805209037 71.20634920615703,132.15645352186402 74.63492063479498,131.1155458514695 77.2380952378735,130.2976887372788 79.9047619048506,129.62853220530087 83.14285714295693,129.77723371202592 82.63492063479498,129.62853220530087 79.65079365065321,129.62853220530087 77.17460317444056,130.52074077236466 74.63492063479498,131.338597625494 72.41269841254689,132.00775252096355 69.55555555527098,132.82560763449874 67.20634920638986,133.4204107525875 64.41269841231406,134.3869647399988 61.17460317444056,135.35351739102043 58.63492063456215,135.9483183583361 56.09523809491657,136.61746884172317 52.920634920243174,137.36096862750128 50.57142857136205,137.95576788694598 49.17460317420773,138.327517167083 50.95238095195964,137.4353185626096 53.68253968213685,136.69181885576108 57.74603174580261,136.022668443562 60.22222222178243,135.27916723437374 63.90476190461777,134.3126144806156 67.0158730156254,133.34606039040955 69.30158730130643,132.60255633469205 71.77777777751908,131.78470096032834 75.65079365065321,130.59509143501054 78.06349206343293,129.8515844537178 80.85714285704307,129.1080766817904 82.44444444426335,129.4798306665616 79.71428571431898,129.62853220530087 77.17460317444056,130.52074077236466 74.82539682509378,131.26424704195233 71.90476190461777,132.00775252096355 69.42857142840512,132.82560763449874 66.31746031716466,133.4204107525875 63.77777777775191,134.16391393833328 61.36507936497219,134.9817665295559 58.126984126865864,135.9483183583361 55.20634920615703,136.3200687059434 52.47619047597982,137.06356880796375 50.06349206296727,137.80706811958225 49.238095237873495,138.17881747870706 52.41269841254689,137.13791877473705 54.69841269822791,136.54311881941976 57.873015872668475,135.799618163961 61.36507936497219,134.90741633361904 63.65079365065321,134.23826421331614 66.50793650792912,133.34606039040955 68.98412698390894,132.60255633469205 71.1428571427241,132.08210302545922 74.1904761902988,131.338597625494 77.36507936473936,130.3720394236152 80.22222222224809,129.55418143997667 82.69841269822791,129.55418143997667 81.9365079361014,129.55418143997667 79.39682539645582,129.7028829625924 76.1587301583495,130.44639010203537 73.68253968236968,131.26424704195233 71.07936507929116,132.08210302545922 68.0952380951494,133.27171002031537 65.68253968236968,133.86651275894837 62.57142857112922,134.61001547018532 60.1587301583495,135.27916723437374 56.85714285704307,135.9483183583361 54.0634920632001,136.69181885576108 51.77777777751908,137.36096862750128 49.49206349183805,138.10446762258653 49.80952380923554,138.03011775872437 51.714285714086145,137.28661868453491 53.74603174580261,136.61746884172317 55.90476190438494,136.09701852116268 58.50793650792912,135.799618163961 61.68253968213685,135.13046689791372 64.47619047597982,134.015213364386 67.20634920638986,133.1230092566111 70.25396825373173,132.3051544909831 73.36507936473936,131.41294820117764 77.0476190475747,130.74379273632076 79.9047619048506,129.7028829625924 82.95238095219247,129.8515844537178 82.1904761902988,129.7028829625924 79.52380952355452,129.62853220530087 77.17460317444056,130.2976887372788 74.25396825396456,131.18989645066904 72.22222222201526,131.85905148845632 69.8730158729013,132.60255633469205 67.84126984095201,133.49476110661635 65.74603174580261,134.46131499129115 63.20634920615703,135.13046689791372 59.65079365042038,135.6509179379209 56.73015872994438,136.022668443562 54.126984126865864,137.06356880796375 50.825396825093776,137.5096684897435 48.603174602845684,138.55056664021686 50.38095238059759,137.7327182238223 52.349206349113956,136.91486885095946 55.20634920615703,136.61746884172317 58.190476190531626,135.8739682652522 60.73015872971155,135.13046689791372 63.20634920615703,134.3126144806156 66.8253968253266,133.4204107525875 69.8730158729013,132.60255633469205 73.49206349183805,131.48729876882862 76.09523809491657,130.66944208968198 78.31746031716466,129.92593518755166 80.66666666627862,129.55418143997667 83.52380952355452,129.92593518755166 81.80952380923554,129.55418143997667 78.88888888852671,129.92593518755166 76.09523809491657,130.8181433751597 73.42857142817229,131.48729876882862 70.69841269799508,132.45385542878648 68.34920634911396,133.27171002031537 66.0634920632001,134.015213364386 63.20634920615703,134.9817665295559 60.79365079337731,135.799618163961 57.42857142840512,136.24571865209145 55.079365079058334,136.84051886043744 52.349206349113956,137.4353185626096 49.42857142840512,138.17881747870706 50.0,137.88141800730955 52.53968253941275,137.36096862750128 54.88888888875954,136.54311881941976 58.444444444263354,135.72526805481175 61.04761904734187,135.0561167175183 63.714285714086145,134.16391393833328 66.19047619006597,133.64346179109998 68.73015872971155,132.97430846147472 71.77777777751908,131.85905148845632 74.95238095219247,131.18989645066904 77.74603174580261,130.2976887372788 80.34920634888113,129.62853220530087 83.46031746012159,129.77723371202592 81.61904761893675,129.55418143997667 78.12698412663303,129.92593518755166 75.71428571431898,130.8181433751597 73.42857142817229,131.63599988044007 70.25396825373173,132.45385542878648 67.84126984095201,133.34606039040955 65.61904761870392,134.16391393833328 62.444444444263354,134.90741633361904 59.968253968283534,135.6509179379209 57.17460317420773,135.9483183583361 53.74603174580261,137.13791877473705 50.825396825093776,137.65836832043715 48.79365079361014,138.4018669994548 51.96825396781787,137.4353185626096 55.26984126982279,136.46876878954936 57.74603174580261,135.8739682652522 60.1587301583495,135.27916723437374 62.82539682532661,134.46131499129115 65.30158730153926,133.79216244420968 68.28571428568102,132.97430846147472 70.69841269799508,132.37950496381382 73.30158730130643,131.56164932844695 76.34920634888113,130.66944208968198 78.57142857136205,130.00028591329465 80.98412698390894,129.62853220530087 83.46031746012159,129.77723371202592 81.8730158729013,129.40547988557955 78.25396825373173,129.77723371202592 75.39682539668866,130.8181433751597 73.0476190475747,131.48729876882862 70.57142857112922,132.3051544909831 67.77777777775191,132.97430846147472 64.66666666651145,133.86651275894837 61.74603174580261,134.75871591753094 58.69841269846074,135.6509179379209 55.714285713853315,136.24571865209145 53.42857142840512,136.91486885095946 51.1428571427241,137.65836832043715 49.04761904734187,138.25316732667852 51.52380952355452,137.4353185626096 54.0,136.91486885095946 56.22222222178243,136.17136859055609 58.88888888852671,135.35351739102043 61.68253968213685,134.53566523472546 64.98412698390894,133.64346179109998 69.1111111107748,132.75125720904907 72.2857142854482,131.85905148845632 75.26984126958996,130.9668446291471 78.1904761902988,130.00028591329465 80.53968253941275,129.62853220530087 82.95238095219247,129.62853220530087 81.80952380923554,129.4798306665616 79.77777777751908,129.55418143997667 76.53968253941275,130.52074077236466 74.1904761902988,131.26424704195233 71.58730158722028,132.15645352186402 68.60317460307851,132.6769067759742 66.31746031716466,133.4204107525875 63.460317459888756,134.16391393833328 61.11111111100763,134.90741633361904 58.190476190531626,135.72526805481175 55.714285713853315,136.022668443562 52.85714285704307,136.98921883339062 50.63492063456215,137.65836832043715 49.49206349183805,138.327517167083 52.41269841254689,137.36096862750128 54.57142857112922,136.54311881941976 56.79365079337731,136.022668443562 59.90476190461777,135.20481707010185 62.444444444263354,134.53566523472546 64.85714285681024,133.94086306571262 67.20634920638986,133.19735964247957 70.76190476166084,132.37950496381382 73.30158730130643,131.48729876882862 76.41269841254689,130.52074077236466 78.50793650769629,129.8515844537178 80.920634920476,129.4798306665616 83.46031746012159,129.92593518755166 80.79365079337731,129.4798306665616 78.06349206343293,129.92593518755166 74.57142857112922,131.26424704195233 72.34920634888113,132.00775252096355 68.98412698390894,132.6769067759742 66.12698412686586,133.4204107525875 63.58730158722028,134.16391393833328 61.17460317444056,134.83306612959132 58.825396825093776,135.50221768033225 56.15873015858233,135.8739682652522 54.0634920632001,136.54311881941976 51.0158730156254,137.58401840896113 48.85714285681024,138.327517167083 50.761904761660844,137.65836832043715 53.68253968213685,136.84051886043744 56.349206348881125,136.3200687059434 59.079365079058334,135.35351739102043 62.507936507696286,134.3869647399988 65.30158730153926,133.34606039040955 70.38095238059759,132.75125720904907 73.93650793633424,131.18989645066904 76.98412698390894,130.44639010203537 79.07936507905833,129.7028829625924 81.99999999976717,129.4798306665616 82.2539682534989,129.3311290963902 79.65079365065321,129.55418143997667 77.36507936473936,129.92593518755166 74.44444444403052,130.8181433751597 72.53968253941275,131.7103504242259 69.61904761870392,132.37950496381382 66.38095238059759,133.5691114528454 62.761904761660844,134.3869647399988 57.17460317420773,135.50221768033225 54.126984126865864,136.69181885576108 50.69841269822791,137.58401840896113 49.04761904734187,138.327517167083 50.57142857136205,137.7327182238223 52.79365079361014,137.13791877473705 56.349206348881125,136.022668443562 59.26984126958996,134.90741633361904 61.873015872668475,134.61001547018532 66.19047619006597,133.49476110661635 69.61904761870392,132.3051544909831 73.0476190475747,131.26424704195233 75.77777777751908,130.66944208968198 77.99999999976717,130.07463663129602 80.34920634888113,129.55418143997667 83.58730158698745,129.77723371202592 82.1904761902988,129.4798306665616 79.9047619048506,129.55418143997667 76.98412698390894,130.07463663129602 74.1904761902988,131.1155458514695 71.65079365042038,131.7103504242259 69.55555555527098,132.37950496381382 67.46031746012159,133.04865886317566 65.1111111107748,133.86651275894837 61.80952380923554,134.61001547018532 59.0158730156254,135.35351739102043 56.22222222178243,136.022668443562 53.74603174580261,136.7661688621156 51.460317459888756,137.28661868453491 48.79365079361014,138.03011775872437 50.69841269822791,137.58401840896113 53.36507936497219,136.61746884172317 57.17460317420773,135.8739682652522 60.28571428544819,135.0561167175183 62.69841269822791,134.23826421331614 65.2380952378735,133.64346179109998 67.90476190438494,132.6769067759742 71.58730158722028,131.85905148845632 74.31746031739749,131.18989645066904 77.11111111100763,130.44639010203537 80.15873015858233,129.7028829625924 83.52380952355452,129.92593518755166 81.99999999976717,129.4798306665616 79.07936507905833,129.7028829625924 75.65079365065321,130.8181433751597 73.36507936473936,131.338597625494 70.8253968253266,132.08210302545922 68.47619047597982,132.6769067759742 66.12698412686586,133.4204107525875 62.95238095195964,134.16391393833328 59.84126984118484,135.13046689791372 57.49206349160522,135.57656781293917 55.65079365065321,136.24571865209145 53.04761904734187,136.98921883339062 50.88888888875954,137.58401840896113 49.555555555503815,137.95576788694598 51.65079365065321,137.4353185626096 54.0634920632001,136.46876878954936 57.61904761893675,135.50221768033225 59.968253968283534,134.90741633361904 62.31746031739749,134.3126144806156 64.41269841231406,133.64346179109998 66.0634920632001,133.04865886317566 69.36507936497219,132.15645352186402 71.96825396781787,131.63599988044007 74.12698412663303,131.0411952441791 76.920634920476,130.3720394236152 79.1428571427241,129.62853220530087 81.2380952378735,129.40547988557955 83.39682539645582,129.7028829625924 81.55555555527098,129.4798306665616 79.07936507905833,129.62853220530087 76.73015872994438,130.3720394236152 74.57142857112922,131.0411952441791 72.2857142854482,131.63599988044007 70.38095238059759,132.15645352186402 68.1587301583495,132.89995805209037 65.80952380946837,133.49476110661635 63.90476190461777,133.94086306571262 61.99999999976717,134.61001547018532 60.031746031250805,135.13046689791372 57.49206349160522,135.6509179379209 55.20634920615703,136.39441875182092 53.809523809468374,136.7661688621156 51.77777777751908,137.2122687335359 49.555555555503815,137.95576788694598 50.2539682534989,137.95576788694598" stroke="#4DD2FF" stroke-linecap="round" stroke-linejoin="round" stroke-width="0.5"><title>2023-04-28 16.3km</title><desc>9223370354162539235</desc></polyline><polyline fill="none" points="130.21007773745805,150.09897028765408 128.37045116070658,150.2947997803567 126.14060076489113,150.68645857839147 122.85157143115066,151.46977542497916 118.33612437942065,150.6211821293109 118.05739308008924,148.5976087677409 117.38843796146102,146.5087518497603 116.77522910246626,143.57128478353843 116.1062739836052,140.89491366397124 115.49306512484327,138.47964190569473 115.10284130554646,135.34630222117994 114.6568712266162,132.2782249498996 114.2666474073194,129.73236195580103 115.93903520423919,127.77399862196762 117.94590056035668,127.25176734424895 120.28724347590469,126.72953562258044 122.40560135198757,126.40314057067735 124.13373540877365,126.01146627962589 126.02910824515857,125.55451262387214 128.37045116070658,125.09755862812744 130.2658239970915,124.64060429227538 132.04970431374386,124.31420812977012 134.39104722929187,123.92253250570502 137.34559900360182,123.3350186010357 139.46395687991753,122.94334235228598 141.5265684959013,122.29054804885527 144.14664271101356,121.63775305106537 146.04201554739848,121.2460757191875 148.04888090351596,120.85439813736593 149.88850748026744,120.3321609730483 151.44940275722183,119.87520308973035 153.45626811357215,119.41824486601399 155.85335728898644,118.83072665036889 158.08320768456906,118.37376764928922 160.25731182075106,118.04736815457 162.26417717686854,117.06816862890264 165.0514901713468,115.95840727811446 167.16984804766253,115.4361659483402 169.6226834829431,114.71808339405106 172.52148899738677,114.06528034317307 174.36111557413824,114.13056067965226 176.92544352915138,114.52224255166948 178.48633880610578,115.4361659483402 179.54551774426363,116.48064816353144 181.16215928131714,119.7446436319733 181.77536814007908,122.15998910466442 182.66730829840526,124.37948737613624 182.8902933378704,127.05593050085008 183.1690246372018,129.07957487209933 183.44775593699887,131.9518328482518 183.00178585783578,134.30185210570926 181.05066676158458,135.01991175086005 178.31910002673976,136.19491663144436 176.36798093025573,136.91297406243393 174.02663801470771,137.63103065354517 172.01977265859023,138.0226975310943 169.45544470311143,138.61019737861352 167.61581812682562,139.13241899368586 165.55320651060902,139.6546401642263 163.60208741459064,140.17686089046765 161.9854458773043,140.69908117258456 160.14581930078566,141.22130101040239 158.08320768456906,141.8740751830628 155.12865591049194,142.91851241554832 152.4528354355134,143.63656198210083 149.44253740087152,143.5060075779911 148.49485098244622,141.61296559730545 147.82589586405084,139.7199177792063 147.2126870052889,137.76158630719874 146.71097066625953,135.1504679598147 145.98626928729936,133.12684360140702 145.2615679090377,131.16849109670147 144.53686653031036,129.47124720556894 144.09089645091444,127.64344084414188 143.36619507241994,125.7503499466111 142.92022499348968,123.85725321085192 144.31388149084523,121.96415063668974 145.76328424806707,121.31135529192397 147.5471645644866,120.9196777518373 149.33104488113895,120.52799996186513 151.5608952769544,119.87520308973035 153.623506893171,119.35296509211184 155.35164094995707,118.700166970375 157.1912675264757,118.37376764928922 159.03089410276152,117.91680830810219 161.26074449857697,117.32928865496069 163.32335611479357,116.48064816353144 165.38596773077734,115.82784698717296 167.28134056716226,115.37088575074449 169.3439521836117,114.7833636609721 171.18357876013033,114.39168195531238 173.41342915594578,114.06528034317307 175.86626459122635,114.26112133124843 177.59439864801243,115.04448465927271 179.6570102639962,116.41536807722878 181.329398060916,118.56960726261605 181.44089058064856,120.98495735926554 182.22133821900934,123.40029795159353 182.66730829840526,125.42395437427331 183.05753211770207,127.38232520536985 183.3362634172663,129.47124720556894 183.78223349619657,131.36432662827428 183.61499471659772,133.453235078312 183.72648723633029,136.65186236670706 183.83797975606285,139.00186363147805 183.89372601616196,140.89491366397124 184.17245731549338,142.91851241554832 184.39544235519134,144.68099621596048 184.5069348749239,146.7698593530804 184.61842739465646,148.66288543178234 185.06439747381955,150.68645857839147 185.45462129311636,152.6447488211561 185.6776063325815,155.25579276133794 185.56611381284893,157.14879267383367 185.2873825135175,158.9765111890738 183.2805171571672,161.65280348371016 181.38514432078227,162.5666567173903 179.54551774426363,163.54578367224894 177.98462246730924,164.3943591035786 176.0335033708252,165.1123835524777 173.19044411624782,166.3526056224946 171.51805631956086,167.20117717440007 169.6226834829431,167.984472950513 167.6715643866919,168.83304224704625 166.0549228496384,169.55106150504434 163.88081871392205,170.46490298240678 161.92969961743802,171.31346885074163 160.14581930078566,171.770388447796 156.96828248677775,172.81477482127957 155.85335728898644,173.4022413759958 154.2367157517001,174.05498133279616 152.06261161598377,175.03408996696817 150.11149251973256,175.94792328344192 148.4391047230456,176.6659342207131 147.32417952502146,177.12284983473364 145.31731416867115,178.03668004245264 143.25470255268738,179.0810557572404 142.0840310950298,179.6032429485349 140.18865825841203,180.38652290264145 138.51627046172507,180.90870898368303 136.95537518477067,181.43089462060016 135.33873364748433,181.88780668849358 133.49910707119852,182.47526456211926 130.82328659622,183.9112703310675 129.37388383876532,184.95563605369534 125.41589938639663,184.6292719563353 125.19291434669867,182.67108372837538 124.74694426753558,180.8434357479564 124.18948166863993,179.0810557572404 123.8550041092094,177.25339709053515 123.4647802899126,175.0993638203945 123.07455647061579,173.206419253489 122.57284013158642,171.05237178516109 122.07112379255705,168.76776772749145 121.68089997326024,166.87480363954091 121.12343737436458,164.5901840365259 120.78895981493406,162.37083113886183 120.3429897360038,160.15147021849407 119.61828835727647,157.9321012753062 119.28381079784594,155.84327611728804 118.61485567921773,152.12253870046698 118.22463185992092,150.22952328965766 117.94590056035668,148.40177873364883 117.4441842213273,146.11709038628032 117.05396040179767,144.22405645722756 116.55224406300113,142.2004620092921 116.1062739836052,140.50324861891568 115.60455764457583,137.95741973549593 115.27008008561097,135.86852661252487 114.99134878604673,133.97546108003007 114.76836374634877,132.34350334922783 114.32239366718568,129.7976406259695 114.54537870665081,128.75318106991472 116.1062739836052,128.6879022885696 117.4441842213273,128.42678709421307 120.12000469630584,127.12120945565403 122.51709387172014,126.6642566259834 124.30097418837249,126.27258250158047 125.58313816599548,125.88090812700102 127.25552596268244,125.48923350253608 129.4296300986316,124.96700028132182 131.1577641556505,124.57532507373253 133.10888325190172,124.31420812977012 134.78127104858868,123.92253250570502 136.50940510537475,123.46557729510823 138.7392555011902,123.13918050809298 140.46738955797628,122.74750413413858 142.58574743405916,122.22526858031051 144.36962775071152,121.70303258200875 145.48455294850282,121.44191441644216 147.2126870052889,121.05023695959244 148.88507480197586,120.52799996186513 150.61320885899477,120.07104222418275 152.5085816953797,119.87520308973035 154.29246201179922,119.35296509211184 155.964849808719,118.89600647980114 157.69298386550508,118.24320787208853 159.58835670189,117.72096848615911 161.03775945911184,117.39456864411477 162.87738603563048,116.87232853617752 164.54977383255027,116.3500879839412 166.50089292880148,115.69728666864103 168.22902698535472,115.24032533488935 170.40313112153672,114.65280312020332 171.96402639872395,114.32640164665645 173.9708917546086,114.0 176.92544352915138,114.65280312020332 179.09954766510054,115.95840727811446 180.32596538262442,117.45984862645855 181.10641302145086,119.02656611806015 181.7196218802128,120.85439813736593 182.38857699884102,122.68222471413901 182.66730829840526,124.57532507373253 183.00178585783578,126.40314057067735 183.2247708973009,128.55734470515745 183.3920096771326,129.7976406259695 183.670740976464,131.6907190422644 183.89372601616196,133.71434813464293 183.670740976464,136.65186236670706 183.83797975606285,138.28380864398787 183.89372601616196,139.5240849131951 184.1167110556271,142.46157134493114 184.17245731549338,143.63656198210083 184.28394983522594,145.13793563452782 184.56268113479018,147.42262762587052 184.8971586942207,149.38092827954097 185.12014373368584,151.53505178383784 185.51036755321547,153.23223467572825 185.6776063325815,154.4724807451712 185.78909885254689,156.23493137583137 185.62186007294804,157.9321012753062 185.17588999355212,159.69454197434243 183.3920096771326,161.65280348371016 181.60812936048023,162.50138153141597 179.7685027839616,163.54578367224894 178.3748462863732,164.3943591035786 176.53521970985457,165.2429333620239 175.42029451206326,165.63458262430504 173.46917541557923,166.22205604886403 171.96402639872395,167.26645186071983 170.29163860157132,167.984472950513 168.78648958471604,168.70249320095172 167.2255943075288,169.28996369004017 165.55320651060902,169.94270801899256 163.82507245382294,170.5954516537604 161.9854458773043,171.18292033171747 160.25731182075106,171.96621102810604 158.4734315040987,172.42313013941748 156.29932736814953,173.206419253489 155.18440216989256,173.7286114410963 153.51201437343843,174.38135105092078 152.34134291531518,175.22991150640883 150.3902238192968,175.8173757501063 148.94082106184214,176.7312079007388 147.32417952502146,177.44921792222885 145.5402992083691,178.16722710395698 144.14664271101356,178.75468853721395 142.2512698743958,179.6685163161601 140.46738955797628,180.38652290264145 139.0179868005216,180.97398221254116 137.0668677042704,181.757260418206 135.4502261672169,182.67108372837538 134.2795547095593,183.06272187340073 132.83015195233747,183.65017862286186 131.26925667538308,184.30290768528357 129.59686887823045,185.34727274172474 127.64574978221208,186.0 125.24866060656495,184.04181614355184 124.91418304736726,182.80162980448222 124.74694426753558,181.3656214402872 124.30097418837249,179.6685163161601 123.96649662894197,178.03668004245264 123.40903403004631,176.01319703966146 123.13030273048207,174.120255290356 122.79582517105155,172.35785600158852 122.40560135198757,170.3996286363108 121.84813875285909,168.1802967384574 121.29067615419626,165.69985747692408" stroke="#4DD2FF" stroke-linecap="round" stroke-linejoin="round" stroke-width="0.5"><title>2023-04-17 10.0km</title><desc>9223370355117402580</desc></polyline><polyline fill="none" points="56.51880619855365,236.12141756456913 56.44143164425623,236.1405341478967 56.21483473529224,236.1660229167428 56.1208799193555,236.1086731724754 55.97165756468894,236.1086731724754 55.86112248711288,236.13416195408354 55.772694425075315,236.17239510735453 55.76716767120524,236.18513948666805 55.811381702224026,236.21700042378143 55.80032819445478,236.25523352726304 55.756114163435996,236.29346660777082 55.756114163435996,236.3125831394027 55.80585494832485,236.3125831394027 55.96060405691969,236.26797788998374 56.03797861118801,236.2106282376444 56.203781227522995,236.1086731724754 56.380637351598125,236.04495117378974 56.42485138261691,236.05132337651958 56.47459216750576,236.07043998092558 56.46353865976562,236.12141756456913 56.51880619855365,236.1086731724754 56.54091321406304,236.1086731724754 56.651448291609995,236.17876729732234 56.87804520057398,236.25523352726304 56.92225923159276,236.2616057089399 57.09911535566789,236.24248916199213 57.226230694854166,236.20425605085984 57.24833771039266,236.18513948666805 57.24833771039266,236.15965072549807 57.31465875689173,236.13416195408354 57.3422925263003,236.11504536884604 57.35334603404044,236.09592877786054 57.43072058833786,236.06406778009114 57.491514880995965,236.07043998092558 57.65731749733095,236.05132337651958 57.71811178995995,236.05132337651958 57.74021880549844,236.07043998092558 57.82312011363683,236.0768121811234 57.966815714433324,236.11504536884604 57.99444948381279,236.09592877786054 57.99997623771196,236.07043998092558 57.99997623771196,236.0576955786346 57.98339597607264,236.04495117378974 57.922601683443645,236.05132337651958 57.867334144655615,236.11504536884604 57.79548634425737,236.13416195408354 57.784432836517226,236.14690634106228 57.71258503606077,236.17239510735453 57.723638543859124,236.17876729732234 57.66284425117192,236.2297447941637 57.392033311218256,236.28709442928084 57.30913200302166,236.24886134495318 57.298078495281516,236.19151167536256 57.187543417705456,236.14690634106228 57.027267555269646,236.11504536884604 56.70671583036892,236.1405341478967 56.53538646016386,236.14690634106228 56.46906541363569,236.1660229167428 56.236941750801634,236.27435007038366 56.20930798142217,236.21700042378143 56.17614745814353,236.15965072549807 56.142986934864894,236.15327853360213 56.065612380596576,236.15327853360213 55.92191677977098,236.19788386343134 55.89980976423249,236.2233726093 55.91639002590091,236.24248916199213 55.95507730304962,236.24886134495318 55.9992913340684,236.21700042378143 56.004818087938474,236.19151167536256 56.010344841808546,236.1660229167428 55.96060405691969,236.09592877786054 55.988237826299155,236.13416195408354 56.004818087938474,236.14690634106228 56.004818087938474,236.07043998092558 56.01587159567862,236.04495117378974 56.02692510341876,235.96211248006512 56.01587159567862,235.7645736212762 55.9992913340684,235.65624559959906 56.010344841808546,235.6307566265059 56.15404044260504,235.59252314772675 56.17614745814353,235.6052676432264 56.29773604343063,235.72634022292914 56.413797874876764,235.80917922365916 56.47459216750576,235.8729014585042 56.52433295242372,235.89839033457247 56.64039478384075,236.03857897041235 56.69566232262878,236.07043998092558 56.795143892406486,236.08318438067 56.90015221608337,236.07043998092558 56.99410703202011,236.0768121811234 57.23175744875334,236.0576955786346 57.36992629567976,236.07043998092558 57.38097980344901,236.08318438067 57.49704163486604,236.07043998092558 57.65731749733095,236.08955657957267 57.684951266710414,236.1086731724754 57.77890608261805,236.1086731724754 57.845227129146224,236.1277897596483 57.93365519118379,236.1277897596483 57.95023545282311,236.17239510735453 57.9723424683325,236.15965072549807 57.98339597607264,236.13416195408354 57.98339597607264,236.11504536884604 57.95023545282311,236.08955657957267 57.87286089852569,236.03857897041235 57.845227129146224,236.03220676640558 57.850753883016296,236.06406778009114 57.76232582097873,236.08318438067 57.673897758941166,236.14690634106228 57.65731749733095,236.18513948666805 57.66284425117192,236.2297447941637 57.618630220153136,236.26797788998374 57.53572891201475,236.36993269983577 57.38097980344901,236.42091004348913 57.32571226466098,236.34444401268775 57.27044472590205,236.3062109628372 57.11569561730721,236.2297447941637 56.866991692833835,236.17876729732234 56.70118907649885,236.12141756456913 56.513279444683576,236.0768121811234 56.36958384385798,236.08318438067 56.33089656670927,236.09592877786054 56.021398349577794,236.1405341478967 55.949550549150445,236.1660229167428 55.92744353364105,236.18513948666805 55.82243520996417,236.2297447941637 55.772694425075315,236.2616057089399 55.76716767120524,236.28072225015785 55.77822117894539,236.29983878559506 55.8169084561232,236.3125831394027 56.065612380596576,236.24886134495318 56.19825447362382,236.2297447941637 56.563020229543326,236.01946235643481 56.86146493893466,235.7454569249785 57.04937457077904,235.54154514029142 56.96094650874147,235.49056709198703 56.80067064627656,235.45870579106486 53.9046516144881,227.2315838060822 42.066344808845315,194.1339046789799 42.09397857822478,194.16578670379386 42.08292507045553,194.18491591098427 42.03871103946585,194.20404511243032 42.02213077779743,194.19129231211264 42.00555051615811,194.15303389578912 42.00002376228804,194.1147754564372 42.01660402395646,194.07651699400958 42.09397857822478,194.01275283873838 42.14371936311363,194.0 42.226620671281125,194.0 42.265307948429836,194.0191292571435 42.30399522554944,194.04463492437208 45.33265635045245,264.3503544083469 45.41003090472077,264.4076787167287 45.43766467412934,264.4395255324307 45.42661116636009,264.48411104767 45.42661116636009,264.50321911606807 45.45977168963873,264.56691263604444 45.54267299780622,264.6497141167929 45.608994044334395,264.7006688206893 45.730582629621495,264.82168607908534 45.80243043001974,264.94270310760476 45.87427823044709,265.0191347966429 45.929545769206015,265.07645850324116 46.01797383124358,265.1337821582638 46.01797383124358,265.10193568960676 46.04560760065215,265.1083049846238 46.1561426781991,265.0637199062403 46.17824969367939,265.0637199062403 46.17272293983842,265.1083049846238 46.27220450961613,265.10193568960676 46.34957906391355,265.1083049846238 46.37168607942294,265.08919709769543 46.33852555617341,265.1210435727189 46.31641854066402,265.0955663939749 46.26115100184688,265.08919709769543 46.16719618593925,265.02550409993273 46.095348385570105,264.99365757714986 46.06771461616154,264.98728827069135 46.04560760065215,264.99365757714986 46.07876812390168,265.02550409993273 46.33852555617341,265.1337821582638 46.92436146715772,265.4076611314449 47.526777639839565,265.60510803289435 47.670473240636056,265.6815389272124 48.41105826024432,265.85350810423915 48.49395956841181,265.8789849798741 48.57133412268013,265.91720027422707 48.78135077000479,265.9681539643607 48.85872532430221,266.0" stroke="#4DD2FF" stroke-linecap="round" stroke-linejoin="round" stroke-width="0.5"><title>2023-02-12 11.8km</title><desc>8545993924</desc></polyline><polyline fill="none" points="120.91199999954551,239.62974208500236 121.9199999999255,239.62974208500236 124.0800000000745,238.79959965951275 126.81599999964237,238.79959965951275 130.99199999962002,238.63357112486847 134.0159999988973,238.9656281779753 138.6239999998361,239.62974208500236 141.35999999940395,240.12782734062057 146.831999999471,239.62974208500236 151.58399999979883,240.6259124459466 154.60799999907613,240.95796910021454 158.06400000024587,241.62208220898174 161.51999999955297,241.954138663481 165.2639999995008,241.78811044432223 169.58399999979883,241.29002568824217 173.04000000003725,242.95030762825627 176.06399999931455,243.11633573041763 172.3199999993667,243.28236381628085 169.43999999947846,242.4522232208401 165.839999999851,242.1201668656431 164.25599999912083,241.954138663481 159.2160000000149,240.95796910021454 155.03999999910593,240.95796910021454 151.00799999944866,240.6259124459466 146.97599999979138,239.96179893868975 144.2399999992922,239.46371363301296 141.35999999940395,238.79959965951275 139.34399999957532,238.46754257334396 134.87999999988824,237.47137091483455 129.11999999918044,236.30916988977697 125.80799999926239,236.143141105189 121.63200000021607,236.4751986573683 118.60800000000745,236.143141105189 118.03199999965727,237.63739956589416 121.20000000018626,237.63739956589416 125.80799999926239,238.30151400505565 129.11999999918044,238.46754257334396 131.27999999932945,238.46754257334396 135.88800000026822,238.79959965951275 139.4879999998957,239.13165667990688 143.3760000001639,239.2976851647254 146.25600000005215,239.2976851647254 149.99999999906868,239.62974208500236 153.74399999901652,240.6259124459466 157.48799999896437,241.29002568824217 160.36799999978393,241.62208220898174 164.11199999973178,241.78811044432223 167.42399999964982,242.4522232208401 168.71999999973923,242.61825137317646 173.47199999913573,243.44839188584592 177.503999998793,243.28236381628085 174.33599999919534,243.61441993853077 169.58399999979883,242.95030762825627 166.70399999897927,242.2861950516235 163.1039999993518,241.78811044432223 159.50399999972433,241.12399740261026 156.76799999922514,240.6259124459466 153.31199999898672,239.96179893868975 149.27999999932945,239.7957705197623 144.671999999322,239.62974208500236 141.79199999943376,239.13165667990688 137.32799999974668,238.46754257334396 133.87199999950826,238.13548542035278 129.839999999851,237.80342820065562 125.66399999987334,237.80342820065562 122.3519999999553,238.63357112486847 117.31199999991804,238.9656281779753 115.43999999947846,239.13165667990688 119.1839999994263,238.9656281779753 123.6480000000447,238.46754257334396 126.95999999996275,238.79959965951275 132.86399999912828,239.2976851647254 136.32000000029802,239.2976851647254 141.07199999969453,239.62974208500236 144.671999999322,239.62974208500236 151.58399999979883,241.29002568824217 154.60799999907613,241.78811044432223 159.93599999975413,241.45605395687744 163.5359999993816,241.954138663481 168.43199999909848,242.78427950874902 172.03199999965727,243.28236381628085 174.4799999995157,243.94647599372547 176.06399999931455,243.61441993853077 174.0479999994859,243.78044797445182 173.04000000003725,243.78044797445182 172.46399999968708,243.61441993853077 166.55999999959022,243.11633573041763 161.95199999958277,242.61825137317646 156.04800000041723,241.29002568824217 150.28799999970943,240.95796910021454 145.1039999993518,241.12399740261026 141.79199999943376,240.6259124459466 139.34399999957532,240.12782734062057 135.45600000023842,239.46371363301296 131.1359999999404,239.13165667990688 127.1039999993518,238.9656281779753 125.51999999955297,238.79959965951275 120.04799999948591,238.30151400505565 115.87199999950826,237.96945681911893 119.1839999994263,238.30151400505565 124.22399999946356,238.30151400505565 128.11199999973178,238.9656281779753 130.55999999959022,239.2976851647254 132.86399999912828,239.7957705197623 137.32799999974668,240.293855725904 140.3519999999553,240.7919407816371 142.36799999978393,241.29002568824217 146.11199999973178,241.29002568824217 150.14399999938905,241.29002568824217 155.32799999881536,241.954138663481 159.35999999940395,242.4522232208401 163.1039999993518,243.11633573041763 165.98400000017136,243.44839188584592 170.30399999953806,243.78044797445182 175.77599999960512,243.94647599372547 175.34399999957532,243.28236381628085 171.59999999962747,243.28236381628085 169.15199999976903,242.95030762825627 161.23199999984354,242.61825137317646 155.6159999994561,241.62208220898174 152.01599999982864,240.7919407816371 147.6959999995306,241.29002568824217 143.08799999952316,240.6259124459466 139.19999999925494,239.2976851647254 134.3040000004694,238.30151400505565 130.2719999998808,238.79959965951275 126.81599999964237,238.79959965951275 122.7839999999851,238.13548542035278 120.19199999980628,237.1393135621911 116.73599999956787,238.13548542035278 120.33599999919534,238.13548542035278 125.23199999984354,239.2976851647254 129.4079999998212,239.7957705197623 134.7360000004992,240.293855725904 139.63200000021607,240.7919407816371 142.9439999992028,241.29002568824217 147.98399999924004,241.954138663481 152.30399999953806,242.61825137317646 156.62399999890476,243.44839188584592 160.5120000001043,243.28236381628085 163.5359999993816,243.28236381628085 165.98400000017136,243.61441993853077 170.87999999988824,243.94647599372547 175.0559999998659,244.61058790551033 173.6159999994561,243.61441993853077 170.5919999992475,243.94647599372547 164.68800000008196,243.61441993853077 162.24000000022352,243.11633573041763 158.06400000024587,241.29002568824217 154.89599999971688,240.293855725904 150.57599999941885,240.4598840943072 145.5359999993816,240.293855725904 142.36799999978393,238.9656281779753 133.58399999979883,238.46754257334396 128.3999999994412,238.13548542035278 122.7839999999851,238.30151400505565 115.87199999950826,237.1393135621911 115.72800000011921,237.47137091483455 118.46399999968708,237.96945681911893 124.0800000000745,238.13548542035278 128.97599999979138,238.63357112486847 133.29599999915808,240.12782734062057 139.63200000021607,241.12399740261026 143.66399999987334,241.12399740261026 146.831999999471,241.29002568824217 149.27999999932945,241.78811044432223 155.32799999881536,242.78427950874902 158.7839999999851,242.95030762825627 161.08799999952316,242.78427950874902 165.839999999851,243.11633573041763 167.56799999903888,242.95030762825627 174.62399999890476,244.11250399658456 177.07199999969453,243.61441993853077 174.33599999919534,242.95030762825627 171.59999999962747,242.1201668656431 167.1359999999404,241.29002568824217 162.24000000022352,240.95796910021454 156.62399999890476,240.7919407816371 154.17599999904633,240.7919407816371 150.8640000000596,240.4598840943072 148.99199999962002,240.293855725904 143.8079999992624,239.96179893868975 137.1839999994263,239.7957705197623 135.6000000005588,238.79959965951275 128.97599999979138,237.96945681911893 123.50399999972433,237.96945681911893 118.3199999993667,238.46754257334396 119.04000000003725,238.79959965951275 124.36799999978393,238.63357112486847 129.6959999995306,238.79959965951275 134.44799999892712,239.13165667990688 137.04000000003725,239.46371363301296 142.51199999917299,238.79959965951275 146.831999999471,240.4598840943072 152.30399999953806,241.29002568824217 156.62399999890476,241.62208220898174 160.5120000001043,241.954138663481 164.11199999973178,242.95030762825627 168.57599999941885,243.94647599372547 171.59999999962747,243.61441993853077 177.64799999911338,243.94647599372547 175.63199999928474,243.11633573041763 172.3199999993667,242.1201668656431 167.85599999967963,241.78811044432223 162.09599999990314,241.78811044432223 160.0800000000745,241.12399740261026 155.1839999994263,240.6259124459466 152.44799999985844,240.4598840943072 144.95999999903142,240.7919407816371 141.07199999969453,240.293855725904 137.6159999994561,239.7957705197623 130.55999999959022,238.63357112486847 123.2160000000149,237.63739956589416 120.62399999983609,237.63739956589416 115.43999999947846,237.47137091483455 118.60800000000745,237.47137091483455 123.07199999969453,237.63739956589416 126.09599999990314,237.63739956589416 133.00800000037998,238.79959965951275 136.89599999971688,239.2976851647254 141.07199999969453,239.96179893868975 146.54399999976158,239.96179893868975 151.87199999950826,241.45605395687744 159.0719999987632,241.78811044432223 163.24799999967217,241.62208220898174 167.27999999932945,242.1201668656431 170.44799999985844,242.95030762825627 175.48799999896437,242.4522232208401 169.87199999950826,242.61825137317646 165.55199999921024,242.2861950516235 162.24000000022352,242.1201668656431 159.79199999943376,241.62208220898174 154.46399999968708,240.95796910021454 150.14399999938905,240.4598840943072 146.54399999976158,240.293855725904 139.9199999999255,237.63739956589416 134.87999999988824,236.8072561433073 130.99199999962002,237.30534224642906 128.11199999973178,237.30534224642906 125.51999999955297,237.96945681911893 115.87199999950826,236.8072561433073 123.50399999972433,237.80342820065562 128.97599999979138,239.46371363301296 131.71199999935925,239.7957705197623 138.4799999995157,240.6259124459466 144.81599999964237,241.12399740261026 148.41599999926984,241.62208220898174 151.43999999947846,242.2861950516235 156.4799999995157,242.78427950874902 160.9440000001341,242.1201668656431 166.41599999926984,242.78427950874902 169.00799999944866,242.78427950874902 176.63999999966472,242.78427950874902 174.76799999922514,242.1201668656431 169.58399999979883,242.1201668656431 164.54399999976158,241.954138663481 161.51999999955297,242.1201668656431 157.91999999899417,239.96179893868975 152.01599999982864,239.46371363301296 148.2719999998808,239.96179893868975 144.2399999992922,239.2976851647254 142.0800000000745,239.13165667990688 138.33600000012666,238.9656281779753 134.160000000149,238.63357112486847 129.839999999851,237.80342820065562 125.51999999955297,237.80342820065562 121.20000000018626,237.30534224642906 116.01599999982864,236.6412274086615 121.34399999957532,238.30151400505565 125.08799999952316,238.13548542035278 128.97599999979138,238.46754257334396 132.43199999909848,238.9656281779753 137.1839999994263,239.62974208500236 140.06399999931455,239.96179893868975 144.38399999961257,240.293855725904 147.12000000011176,240.293855725904 151.00799999944866,240.7919407816371 156.76799999922514,242.4522232208401 161.95199999958277,241.954138663481 164.25599999912083,242.1201668656431 167.99999999906868,242.1201668656431 171.0239999992773,242.78427950874902 175.19999999925494,243.11633573041763 175.19999999925494,242.61825137317646 171.74399999994785,241.954138663481 169.58399999979883,239.46371363301296 169.29599999915808,235.64505465247203 171.31199999991804,226.84550263895653 171.59999999962747,222.19666384824086 172.3199999993667,216.21956624416634 171.0239999992773,217.87987329636235 170.0159999988973,222.36269402969629 169.58399999979883,225.51726431481075 169.29599999915808,231.99241609114688 168.86399999912828,234.81491023197304 167.71199999935925,239.46371363301296 165.11999999918044,242.1201668656431 157.63200000021607,239.7957705197623 155.47199999913573,239.46371363301296 148.84799999929965,238.79959965951275 145.39199999999255,239.62974208500236 138.19199999980628,240.7919407816371 134.160000000149,240.12782734062057 126.95999999996275,237.30534224642906 116.87999999988824,236.143141105189 119.32799999974668,238.30151400505565 123.93599999975413,239.62974208500236 126.52799999993294,239.46371363301296 130.70399999897927,239.46371363301296 134.87999999988824,239.7957705197623 139.77599999960512,239.7957705197623 143.08799999952316,240.12782734062057 145.24799999967217,240.4598840943072 149.71199999935925,240.7919407816371 153.16799999959767,241.29002568824217 157.48799999896437,241.45605395687744 163.82400000002235,242.1201668656431 167.42399999964982,242.1201668656431 170.5919999992475,242.61825137317646 172.17599999997765,242.78427950874902 177.07199999969453,242.2861950516235 174.33599999919534,242.2861950516235 170.5919999992475,240.12782734062057 171.0239999992773,233.48667829413898 171.31199999991804,228.83785812929273 173.47199999913573,229.501976093743 178.51199999917299,230.16609379276633 182.54399999883026,228.67182859627064 184.99199999962002,224.35505490819924 185.85599999967963,221.36651269206777 180.671999999322,218.54399565130007 176.92799999937415,218.37796508765314 171.8879999993369,220.86842179868836 171.16799999959767,223.02681458822917 169.58399999979883,231.99241609114688 168.86399999912828,236.6412274086615 167.99999999906868,239.2976851647254 163.9679999994114,241.45605395687744 158.06400000024587,239.96179893868975 155.6159999994561,239.46371363301296 151.43999999947846,238.79959965951275" stroke="#4DD2FF" stroke-linecap="round" stroke-linejoin="round" stroke-width="0.5"><title>2021-06-21 10.0km</title><desc>9223370412586047204</desc></polyline></svg>