<?xml version="1.0" encoding="utf-8" ?>
<svg baseProfile="full" height="300mm" version="1.1" viewBox="0,0,200,300" width="200mm" xmlns="http://www.w3.org/2000/svg" xmlns:ev="http://www.w3.org/2001/xml-events" xmlns:xlink="http://www.w3.org/1999/xlink"><defs /><rect fill="#222222" height="300" width="200" x="0" y="0" /><text fill="#FFFFFF" style="font-size:12px; font-family:Arial; font-weight:bold;" x="10" y="20">Over 10km Runs</text><text fill="#FFFFFF" style="font-size:4px; font-family:Arial" x="10" y="280">ATHLETE</text><text fill="#FFFFFF" style="font-size:9px; font-family:Arial" x="10" y="290">DuckTyping</text><text fill="#FFFFFF" style="font-size:4px; font-family:Arial" x="120" y="280">STATISTICS</text><text fill="#FFFFFF" style="font-size:3px; font-family:Arial" x="120" y="285">Number: 4</text><text fill="#FFFFFF" style="font-size:3px; font-family:Arial" x="120" y="290">Weekly: 1.0</text><text fill="#FFFFFF" style="font-size:3px; font-family:Arial" x="141" y="285">Total: 48.1 km</text><text fill="#FFFFFF" style="font-size:3px; font-family:Arial" x="141" y="290">Avg: 12.0 km</text><text fill="#FFFFFF" style="font-size:3px; font-family:Arial" x="167" y="285">Min: 10.0 km</text><text fill="#FFFFFF" style="font-size:3px; font-family:Arial" x="167" y="290">Max: 16.3 km</text><polyline fill="none" points="33.714285714086145,97.16524959646631 30.57142857136205,97.75072806567186 27.0,98.25256640691077 23.214285714551806,99.08896293077851 19.642857142724097,98.75440442771651 19.0,95.24153155775275 18.142857143189758,91.14316004805733 17.357142857275903,86.96112629212439 17.07142857136205,84.20097183313919 16.07142857136205,79.60069287818624 15.071428571362048,75.75316618185025 14.642857142724097,72.65840279049007 15.857142857275903,69.47998447070131 18.5,68.89448495826218 21.92857142863795,67.47255575662712 25.142857142724097,66.55248255020706 28.42857142863795,65.96698085858952 31.92857142863795,65.1305491142557 35.1428571427241,64.46140307851601 38.285714285913855,63.70861310791224 42.07142857136205,63.03946586250095 45.285714285913855,62.370318047411274 48.6428571427241,61.61752607533708 52.8571428572759,60.53015862155007 56.785714285913855,59.44278966431739 61.92857142863795,58.43906313867774 65.78571428591385,57.60262338904431 68.8571428572759,56.682538636785466 72.6428571427241,55.76245280855801 76.00000000046566,54.75872158608399 80.07142857136205,53.754989082866814 83.92857142863795,52.33303251041798 88.71428571408615,50.66013913392089 92.57142857136205,50.66013913392089 95.5,53.08583336888114 92.14285714318976,52.91854435153073 87.92857142863795,52.41667708591558 83.8571428572759,53.671344649628736 81.2142857145518,54.42414422723232 78.5,55.176943084283266 75.28571428591385,56.18067377287662 71.71428571408615,57.26804723998066 68.78571428591385,57.93719939573202 66.3571428572759,59.02457043447066 62.57142857136205,59.61007729417179 59.42857142863795,60.446514908922836 56.285714285913855,61.28295163449366 53.21428571455181,62.203031005046796 55.714285714086145,60.78108970593894 58.3571428572759,60.028296212723944 61.6428571427241,59.52643348358106 65.2142857145518,58.43906313867774 69.0,57.60262338904431 72.92857142863795,56.51525038440013 76.5,55.59516436018748 80.1428571427241,54.50778858031845 83.28571428591385,53.587700207775924 86.28571428591385,52.66761075879913 89.8571428572759,51.99845411995193 92.78571428591385,52.249387926014606 91.2142857145518,51.99845411995193 87.78571428591385,52.249387926014606 85.0,53.336766828317195 81.7142857145518,54.173211114888545 79.1428571427241,55.176943084283266 76.3571428572759,55.84609701909358 73.42857142863795,56.682538636785466 69.8571428572759,57.853555407200474 66.8571428572759,58.606350982096046 64.2142857145518,59.35914583626436 60.714285714086145,60.362871187506244 57.785714285913855,60.86473338288488 55.07142857136205,61.61752607533708 54.50000000046566,61.61752607533708 57.07142857136205,60.362871187506244 60.42857142863795,60.11193996988004 64.2142857145518,59.02457043447066 67.78571428591385,58.020843375241384 71.71428571408615,56.93347094889032 74.64285714318976,56.097029597789515 77.42857142910361,55.34423162136227 80.3571428572759,54.173211114888545 84.42857142863795,53.08583336888114 87.14285714318976,52.249387926014606 90.2142857145518,51.49658626696328 91.0,51.91480949986726 87.8571428572759,52.249387926014606 85.14285714318976,53.253122350841295 81.92857142863795,54.08956672635395 79.07142857136205,54.9260102121043 76.3571428572759,55.84609701909358 72.78571428591385,56.51525038440013 69.92857142863795,57.35169129067799 66.5,58.606350982096046 63.5,59.275501998956315 60.285714285913855,59.777364888228476 57.285714285913855,60.61380232515512 53.8571428572759,61.70116966351634 55.1428571427241,61.366595258179586 58.64285714318976,60.19558371795574 61.285714285913855,59.69372109574033 64.5,58.940926561597735 68.78571428591385,57.68626740388572 71.42857142863795,56.93347094889032 73.92857142863795,56.097029597789515 77.2857142854482,55.26058735739207 79.92857142863795,54.675077259831596 82.7142857145518,53.83863350696629 86.8571428572759,52.66761075879913 89.57142857136205,51.91480949986726 92.3571428572759,52.249387926014606 90.3571428572759,51.91480949986726 86.7142857145518,52.33303251041798 83.92857142863795,53.253122350841295 81.0,54.08956672635395 78.2857142854482,55.00965451163938 74.92857142863795,56.26431793917436 71.35714285681024,57.100759112101514 68.71428571408615,57.853555407200474 65.92857142863795,58.606350982096046 61.5,59.275501998956315 59.1428571427241,60.19558371795574 56.5,60.948377050983254 53.8571428572759,61.95210037432844 55.1428571427241,61.366595258179586 57.214285714086145,60.61380232515512 59.64285714318976,59.777364888228476 62.214285714086145,59.275501998956315 66.00000000046566,58.77363878954202 69.0,57.853555407200474 72.3571428572759,56.84982685378054 75.42857142863795,55.5115201229346 78.2857142854482,54.84236590360524 82.42857142863795,53.83863350696629 85.92857142863795,53.16947786434321 89.7142857145518,51.99845411995193 92.7142857145518,52.5003216524492 90.7142857145518,52.082098730898 87.07142857136205,52.33303251041798 84.42857142863795,53.336766828317195 81.42857142863795,54.08956672635395 79.0,55.00965451163938 76.3571428572759,55.76245280855801 74.2142857145518,56.766182749706786 72.2142857145518,57.60262338904431 69.28571428591385,58.43906313867774 64.7142857145518,59.02457043447066 61.71428571455181,59.61007729417179 58.21428571455181,60.446514908922836 55.5,61.28295163449366 53.785714285913855,61.95210037432844 55.8571428572759,61.03202071005944 58.14285714318976,60.19558371795574 62.0,59.777364888228476 64.78571428591385,58.940926561597735 67.57142857136205,58.188131307193544 70.50000000046566,57.26804723998066 75.07142857136205,55.84609701909358 78.57142857136205,55.176943084283266 81.8571428572759,54.005922328622546 85.42857142863795,52.91854435153073 87.78571428591385,52.16574333288008 90.42857142863795,51.91480949986726 92.3571428572759,52.33303251041798 89.57142857136205,51.831164871226065 86.8571428572759,52.583966210193466 83.1428571427241,53.587700207775924 80.42857142863795,54.50778858031845 77.71428571408615,55.427875876484904 75.2142857145518,56.34796209662454 72.6428571427241,57.18440318061039 69.3571428572759,58.271775260102004 66.64285714318976,59.19185815314995 62.8571428572759,59.69372109574033 60.214285714086145,60.362871187506244 56.785714285913855,61.11566436046269 53.8571428572759,62.119387470243964 55.5,61.28295163449366 58.3571428572759,60.53015862155007 62.07142857136205,59.777364888228476 65.14285714318976,58.77363878954202 67.92857142863795,58.020843375241384 71.07142857182771,57.0171150349197 73.8571428572759,56.51525038440013 77.2142857145518,55.34423162136227 80.57142857136205,54.34049986547325 83.7142857145518,53.671344649628736 86.78571428591385,52.583966210193466 90.5,51.99845411995193 92.2142857145518,52.16574333288008 89.3571428572759,51.99845411995193 86.07142857136205,52.5003216524492 83.3571428572759,53.671344649628736 80.8571428572759,54.591432924498804 77.2857142854482,55.5115201229346 74.0,56.598894514958374 71.35714285681024,57.43533533252776 68.5,58.188131307193544 65.71428571408615,58.85728268016828 61.3571428572759,59.69372109574033 58.64285714318976,60.61380232515512 55.42857142863795,61.19930800178554 54.50000000046566,61.61752607533708 58.285714285913855,60.362871187506244 61.42857142863795,59.69372109574033 64.2142857145518,58.940926561597735 67.0,58.271775260102004 70.0,57.35169129067799 72.71428571408615,56.766182749706786 76.14285714318976,55.76245280855801 78.8571428572759,54.9260102121043 82.28571428591385,54.005922328622546 85.14285714318976,53.08583336888114 87.57142857182771,52.41667708591558 90.8571428572759,52.16574333288008 92.3571428572759,52.16574333288008 89.6428571427241,51.74752023344627 85.78571428591385,52.66761075879913 83.1428571427241,53.671344649628736 80.3571428572759,54.42414422723232 77.5,55.26058735739207 73.78571428591385,56.18067377287662 71.0,57.0171150349197 67.07142857136205,58.188131307193544 64.14285714318976,58.85728268016828 60.5,59.777364888228476 57.785714285913855,60.53015862155007 55.07142857136205,61.45023887278512 54.42857142863795,61.70116966351634 57.214285714086145,60.78108970593894 59.92857142910361,60.11193996988004 62.57142857136205,59.275501998956315 66.07142857136205,58.188131307193544 69.57142857136205,57.18440318061039 72.57142857136205,56.43160624493612 77.78571428591385,55.26058735739207 80.64285714318976,54.42414422723232 84.07142857136205,53.420411297061946 87.14285714318976,52.41667708591558 89.92857142863795,51.99845411995193 92.5,52.249387926014606 90.42857142863795,51.91480949986726 88.00000000046566,52.082098730898 84.28571428591385,53.336766828317195 81.8571428572759,54.005922328622546 78.57142857136205,55.00965451163938 75.42857142863795,55.59516436018748 72.3571428572759,56.598894514958374 69.5,57.26804723998066 66.92857142863795,58.188131307193544 63.785714285913855,58.940926561597735 60.42857142863795,59.52643348358106 57.785714285913855,60.53015862155007 55.28571428544819,61.28295163449366 55.64285714318976,61.28295163449366 58.71428571455181,60.362871187506244 61.0,59.61007729417179 63.785714285913855,59.02457043447066 67.28571428591385,58.10448734572856 70.0,57.26804723998066 72.78571428591385,56.766182749706786 76.14285714318976,55.67880858882563 79.0,54.9260102121043 82.3571428572759,53.83863350696629 85.28571428591385,52.91854435153073 87.57142857182771,52.16574333288008 90.2142857145518,51.831164871226065 91.78571428591385,52.16574333288008 89.00000000046566,51.99845411995193 85.57142857136205,52.83489982935134 82.1428571427241,54.08956672635395 78.92857142863795,55.00965451163938 75.7142857145518,55.67880858882563 72.5,56.43160624493612 69.71428571408615,57.35169129067799 67.07142857136205,58.188131307193544 64.28571428591385,58.77363878954202 61.07142857136205,59.35914583626436 58.3571428572759,60.19558371795574 55.714285714086145,61.19930800178554 54.1428571427241,61.70116966351634 56.3571428572759,61.03202071005944 59.714285714086145,60.11193996988004 62.8571428572759,59.44278966431739 66.42857142863795,58.271775260102004 69.64285714318976,57.18440318061039 73.8571428572759,55.26058735739207 79.64285714318976,55.09329880238511 83.21428571408615,53.50405575678451 85.78571428591385,52.83489982935134 88.57142857182771,51.99845411995193 92.0,51.99845411995193 90.8571428572759,51.831164871226065 87.07142857136205,52.16574333288008 84.6428571427241,52.83489982935134 81.57142857136205,53.754989082866814 78.6428571427241,54.84236590360524 75.28571428591385,55.67880858882563 72.92857142863795,56.682538636785466 68.78571428591385,57.51897936518071 62.5,58.85728268016828 59.0,60.19558371795574 55.28571428544819,61.19930800178554 54.3571428572759,61.61752607533708 56.6428571427241,60.948377050983254 59.1428571427241,60.028296212723944 63.21428571455181,58.77363878954202 66.07142857136205,57.853555407200474 69.3571428572759,57.35169129067799 74.07142857136205,56.26431793917436 78.1428571427241,54.75872158608399 81.57142857136205,53.92227792215999 84.5,53.16947786434321 87.57142857182771,52.33303251041798 90.07142857136205,51.91480949986726 92.7142857145518,52.33303251041798 90.78571428591385,51.831164871226065 88.14285714318976,51.91480949986726 84.28571428591385,53.00218886480434 81.78571428591385,53.83863350696629 78.8571428572759,54.50778858031845 76.42857142817229,55.34423162136227 74.28571428591385,56.097029597789515 70.42857142863795,57.18440318061039 67.71428571408615,57.769911410228815 63.785714285913855,58.77363878954202 60.8571428572759,59.69372109574033 58.07142857182771,60.362871187506244 55.3571428572759,61.11566436046269 54.0,61.53388247854309 56.42857142863795,60.86473338288488 60.5,59.52643348358106 63.57142857182771,58.940926561597735 67.1428571427241,58.020843375241384 70.2142857145518,56.93347094889032 72.71428571408615,56.43160624493612 76.28571428591385,55.176943084283266 79.78571428591385,54.50778858031845 83.50000000046566,53.587700207775924 85.92857142863795,52.75125529849902 89.42857142910361,52.16574333288008 92.78571428591385,52.41667708591558 90.07142857136205,51.831164871226065 85.92857142863795,52.66761075879913 83.21428571408615,53.420411297061946 80.8571428572759,54.173211114888545 77.85714285774156,55.00965451163938 75.1428571427241,55.59516436018748 72.6428571427241,56.43160624493612 68.8571428572759,57.51897936518071 65.50000000046566,58.43906313867774 62.6428571427241,58.940926561597735 60.35714285681024,59.94465244689491 58.07142857182771,60.362871187506244 54.78571428544819,61.366595258179586 54.8571428572759,61.366595258179586 57.785714285913855,60.446514908922836 60.0,59.69372109574033 64.14285714318976,58.68999489030102 66.64285714318976,57.93719939573202 69.3571428572759,57.26804723998066 71.71428571408615,56.43160624493612 74.57142857136205,55.76245280855801 77.14285714318976,54.9260102121043 80.1428571427241,54.08956672635395 82.7142857145518,53.50405575678451 85.78571428591385,52.583966210193466 88.28571428591385,52.16574333288008 91.2142857145518,51.91480949986726 92.78571428591385,52.249387926014606 89.42857142910361,51.831164871226065 87.07142857136205,52.16574333288008 84.6428571427241,53.00218886480434 82.28571428591385,53.754989082866814 79.71428571408615,54.34049986547325 77.42857142910361,55.176943084283266 74.64285714318976,55.92974122101441 72.71428571408615,56.43160624493612 69.8571428572759,57.18440318061039 68.1428571427241,57.853555407200474 65.85714285681024,58.43906313867774 62.92857142863795,58.940926561597735 60.35714285681024,59.86100867181085 58.285714285913855,60.279227457300294 56.0,60.948377050983254 53.71428571455181,61.70116966351634" stroke="#4dd2ff" stroke-linecap="round" stroke-linejoin="round" stroke-width="0.5"><title>2023-04-28 16.3km</title><desc>9223370354162539235</desc></polyline><polyline fill="none" points="121.60747569147497,75.18477764091222 119.28703762334771,75.5519578618696 115.71230870764703,76.4331895954092 113.26644155499525,76.65349735307973 109.25271084229462,74.597288881836 108.50013633351773,71.58640114631271 107.87299090996385,69.45674092008267 106.99498731666245,65.34427500201855 106.43055643513799,63.36147018469637 105.99155463837087,59.76303208700847 105.17626558756456,55.72394658182748 105.11355104506947,53.15360714273993 106.30512735014781,50.21606464119395 107.7475618252065,49.701993418391794 110.25614352035336,49.11448298121104 113.26644155499525,48.52697204431752 115.46145053813234,48.086338513589 117.46831589424983,47.57226570567582 119.97689758962952,47.13163156580413 122.23462111526169,46.617558047233615 124.3042010141071,46.17692329810234 126.81278270925395,45.80972745933104 129.63493711641058,45.22221371077467 131.70451701502316,44.928456649009604 134.96567321871407,43.97374533553375 137.34882582933642,43.38623002509121 139.3556911854539,42.945593214186374 142.24056013510562,42.35807702911552 144.37285457598045,41.77056034404086 146.19157630531117,41.1830431590206 148.38658528844826,40.74240494222613 151.0205960685853,40.008007289725356 153.52917776373215,39.567368323216215 155.97504491684958,39.12672907556407 158.23276844248176,38.318889724614564 160.74135013786145,37.14384898194112 163.18721729074605,36.409447502170224 166.44837349443696,35.45472441113088 169.20781335956417,34.72032113495516 171.90453868196346,34.5734403860406 174.0368331228383,34.79376149765449 176.35727119096555,35.74848550272873 177.987849292811,36.9969687484554 179.5557128523942,38.90640934655676 180.1828582759481,42.50495612208033 181.49986366624944,45.66284906887449 182.00158000504598,48.67384982551448 182.2524381747935,51.02389007457532 182.50329634430818,53.52079907694133 182.94229814084247,55.72394658182748 180.49643098795786,58.000524953589775 177.3607038690243,59.24896797101246 175.22840942791663,60.13022050692234 173.03340044454671,60.79115917091258 171.15196417318657,61.30522213905351 167.57723525748588,61.966159678588156 165.31951173162088,62.62709658534732 163.06178820575587,63.21459552727174 160.8667792226188,63.72865669161547 158.79719932400621,64.38959191163303 157.54290847643279,64.6833406953956 155.41061403532512,65.41771210805746 152.83931779745035,66.2255197603954 148.95101616997272,67.47394790954422 146.00343267805874,68.3551899502636 143.55756552540697,66.15208274009638 142.67956193187274,64.02240575634642 141.98970196559094,61.74584723560838 141.36255654180422,58.80834128125571 140.7354111180175,56.678641651407816 139.79469298245385,54.40205892251106 139.0421184739098,52.419222688884474 138.47768759238534,50.28950335585978 137.7878276258707,48.23321638838388 137.09796765982173,46.10348414594773 138.1014003381133,43.60654832510045 139.41840572771616,43.092472182412166 141.29984199954197,42.431516579468735 143.2439928133972,42.064318749064114 146.19157630531117,41.25648283440387 148.44929983094335,40.59552547422936 150.64430881431326,40.008007289725356 152.5257450856734,39.4939284682041 154.59532498405315,39.053289173869416 156.97847759490833,38.39232970471494 159.42434474779293,37.584489494678564 161.6820682734251,36.776648339640815 163.93979179905728,36.189126906043384 166.13480078266002,35.60160497267498 168.32980976556428,35.087522870569956 170.71296237665229,34.5734403860406 172.9706859025173,34.5 175.16569488542154,35.23440351017052 177.987849292811,36.85008848371217 179.80657102167606,38.68608954688534 180.24557281844318,41.91743956215214 181.12357641174458,44.6346994623309 181.62529275077395,46.76443623442901 182.0642945477739,49.04104414151516 182.37786725955084,50.950451437791344 182.75415451382287,53.00673031446058 182.87958359834738,55.797384711157065 182.75415451382287,58.88177908252692 182.94229814084247,61.37865967460675 183.1304417680949,63.655219405773096 183.25587085285224,65.93177163234213 183.75758719164878,68.50206351437373 183.75758719164878,70.77859976451145 183.9457308189012,72.9816922165337 184.32201807317324,75.11134157358902 184.7610198701732,77.46129186364124 185.07459258195013,79.73779858241323 185.01187803945504,82.01429779775208 184.82373441243544,83.99704906519037 183.63215810712427,87.59536090161419 180.87271824246272,88.84375042351894 178.61499471659772,89.9452687164885 177.3607038690243,90.7530476814718 175.41655305516906,91.56082570197759 172.0926823085174,92.88264224259183 170.08581695286557,93.91072002548026 168.26709522353485,94.79192833590787 165.38222627388313,95.96687100082636 163.56350454478525,96.84807668771828 161.11763739213347,97.87614856834989 159.04805749328807,98.75735181971686 157.04119213717058,99.3448200293351 153.90546501800418,100.22602140682284 152.02402874664403,101.10722166014602 150.20530701754615,101.9149875715375 147.82215440715663,102.86961879429873 146.00343267805874,103.75081567495363 144.1219964066986,104.63201143173501 142.3659892200958,105.36634037003387 140.29640932101756,106.24753406574018 138.35225850739516,107.20215930067934 136.47082223603502,108.08335065445863 134.4639568796847,108.96454088384053 132.6452351505868,109.62543281825492 130.889227963984,110.21289178472944 128.94507715012878,110.72691797045991 127.69078630255535,111.09407929744339 123.80248467507772,112.92988300538855 122.23462111526169,114.03136288834503 119.78875396237709,115.20627282746136 117.15474318247288,112.78301888832357 116.84117047069594,110.80035025143297 116.27673958917148,108.67081093211891 115.77502325014211,106.76156320242444 115.21059236861765,104.48514555010479 114.77159057185054,101.62125462200493 114.26987423282117,99.05108598683728 113.64272880926728,96.70120915124426 113.26644155499525,94.49819235736504 112.89015430025756,93.02951059123734 112.32572341896594,90.38587554183323 111.69857799494639,86.93444788793568 111.00871802889742,84.51109476096462 110.63243077462539,82.23460377531592 110.0052853510715,78.930006734794 109.3154253847897,75.69882989540929 109.00185267277993,73.71605480561266 108.50013633351773,71.14578232803615 108.18656362174079,69.75048754859017 107.68484728294425,67.2536372236791 107.0577018589247,65.34427500201855 106.43055643513799,62.11303460132331 106.05426918086596,59.6895943795098 105.67798192659393,57.48645952559309 105.4898382993415,56.01769905153196 105.05083650304005,53.37392232671846 104.73726379056461,51.09732870361768 106.24241280811839,51.02389007457532 107.87299090996385,50.80357414088212 110.38157260534354,49.628554641094524 113.01558338524774,48.96760529384483 115.08516328386031,48.52697204431752 117.02931409794837,48.01289956452092 118.97346491157077,47.49882670183433 121.35661752196029,47.0581925152801 123.36348287807778,46.470679828722496 125.55849186168052,46.17692329810234 127.37721359054558,45.73628826800268 129.32136440463364,45.22221371077467 131.20280067576095,45.075335195462685 133.27238057460636,44.6346994623309 135.53010410023853,44.047184714116156 137.72511308384128,43.45966946618864 139.54383481270634,43.019032702140976 141.36255654180422,42.57839565712493 143.2439928133972,41.99087915936252 145.12542908475734,41.47680181404576 147.25772352563217,41.1830431590206 149.32730342424475,40.66896521230228 150.70702335657552,40.30176644452149 152.71388871292584,39.567368323216215 155.28518495056778,38.75952948775375 156.53947579837404,38.465769677073695 158.48362661199644,38.02512972644763 160.4277774260845,37.43760935514001 162.56007186695933,36.70320818782784 164.50422268058173,36.1156866918318 167.38909163023345,35.30784381827107 168.76881156256422,34.940642199711874 171.08924963069148,34.646880764572416 172.9706859025173,34.646880764572416 176.2318421062082,35.74848550272873 178.48956563184038,37.584489494678564 179.80657102167606,39.6408081704285 180.55914553068578,41.77056034404086 180.99814732722007,43.092472182412166 181.56257820874453,45.36909219477093 182.0642945477739,48.01289956452092 182.1897236322984,49.92230970348464 182.50329634430818,51.83171456307173 182.75415451382287,53.88799081585603 183.0677272255998,56.09113714960404 182.81686905608512,59.5427189412876 183.00501268333755,60.79115917091258 183.1304417680949,62.77397136786021 183.25587085285224,65.49114920647116 183.44401447987184,67.47394790954422 183.56944356462918,69.01612074294826 183.69487264961936,71.14578232803615 184.13387444615364,73.2754373458447 184.32201807317324,75.5519578618696 184.7610198701732,77.75503508764086 185.01187803945504,79.59092740755295 185.32545075169764,81.426814847684 185.20002166647464,83.40956780174747 184.63559078495018,85.39231506374199 183.1304417680949,87.88909981556935 181.1862909544725,88.91718503122684 179.24214014038444,89.7983997122501 177.3607038690243,90.89991648274008 175.6046966824215,91.78112863417482 173.9741185803432,92.44203700992512 171.71639505471103,93.02951059123734 170.52481874916703,93.83728594897548 168.32980976556428,95.01223023771308 166.57380257896148,95.82000327698188 164.81779539282434,96.55434158368735 163.06178820575587,97.21524539211532 161.05492284987122,97.94958221586421 158.98534295125864,98.61048468900844 156.97847759490833,99.49168700369773 155.0343267810531,100.22602140682284 153.02746142470278,100.66662167391041 151.27145423809998,101.54782136506401 149.39001796673983,102.28215358254965 147.9475834921468,103.16335121280281 147.0068653561175,103.67738264461514 144.1847109491937,104.77887728193309 142.5541328471154,105.73350454645697 140.54726749076508,106.4678323137341 138.79126030416228,107.20215930067934 137.66239854111336,107.7896203280543 135.3419604729861,108.74424343195278 133.08423694758676,109.62543281825492 131.26551521825604,110.28632412030129 129.57222257414833,111.24094377347501 127.75350084481761,112.04869783454342 126.0602082007099,112.70958681817865 124.36691555636935,113.44390716927592 122.92448108177632,114.3250905603636 120.98033026768826,115.13284101465251 117.46831589424983,114.25165865407325 116.96659955522045,112.34242634964176 116.65302684321068,110.72691797045991 116.27673958917148,108.89110840746434 115.90045233489946,107.56932250142563 115.336021453375,105.5132060640608 114.83430511434563,102.94305191049352 114.4580178600736,100.59318831568817 114.14444514806382,98.53705111233285 113.45458518201485,95.96687100082636 112.76472521550022,93.10294475354021" stroke="#4dd2ff" stroke-linecap="round" stroke-linejoin="round" stroke-width="0.5"><title>2023-04-17 10.0km</title><desc>9223370355117402580</desc></polyline><polyline fill="none" points="62.249817237840034,231.92907908504276 61.99478291202104,231.95776663866855 61.8890369720466,231.89321962683607 61.72108753796783,231.89321962683607 61.596680549759185,231.92190719483187 61.497154959186446,231.96493852527783 61.490934609784745,231.97928229634272 61.54069740505656,232.01514171143208 61.528256706224056,232.0581729858386 61.478493910923135,232.10120423439366 61.478493910923135,232.12271984896506 61.53447705562576,232.12271984896506 61.708646839135326,232.0725167382334 61.79573173087556,232.00796982985776 61.98234221318853,231.89321962683607 62.18139339433401,231.8215006565806 62.23115618960583,231.82867255682504 62.287139334279345,231.85018825330917 62.27469863547594,231.90756341228553 62.33690212958027,231.89321962683607 62.36178352724528,231.89321962683607 62.48619051542482,231.97211041115952 62.74122484124382,232.0581729858386 62.79098763654474,232.06534486239252 62.990038817661116,232.04382923058438 63.13310685410397,232.00079794756311 63.157988251768984,231.97928229634272 63.157988251768984,231.9505947513535 63.23263244467671,231.92190719483187 63.263734191743424,231.90039151992096 63.27617489054683,231.878875838549 63.36325978228706,231.84301635518932 63.43168362582219,231.85018825330917 63.61829410813516,231.82867255682504 63.686717951641185,231.82867255682504 63.7115993493062,231.85018825330917 63.80490459044813,231.85736015070142 63.96663367509609,231.90039151992096 63.9977354221337,231.878875838549 64.0039557715645,231.85018825330917 64.0039557715645,231.83584445637825 63.9852947233303,231.8215006565806 63.91687087982427,231.82867255682504 63.85466738571995,231.90039151992096 63.77380284338142,231.92190719483187 63.761362144578015,231.93625097452605 63.68049760221038,231.96493852527783 63.69293830107199,231.97211041115952 63.62451445750776,232.0294854724416 63.31971733644605,232.09403236143407 63.22641209527501,232.05100110857893 63.2139713964425,231.98645418079104 63.089564408233855,231.93625097452605 62.90917427535169,231.90039151992096 62.54839400952915,231.92907908504276 62.355563177814474,231.93625097452605 62.280918984877644,231.95776663866855 62.019664309656946,232.07968861334666 61.988562562619336,232.01514171143208 61.95124046615092,231.9505947513535 61.913918369682506,231.9434228632963 61.82683347794227,231.9434228632963 61.66510439326521,231.9936260645336 61.6402229956002,232.02231359230063 61.65888404386351,232.04382923058438 61.702426489733625,232.05100110857893 61.75218928500544,232.01514171143208 61.75840963443625,231.98645418079104 61.764629983808845,231.95776663866855 61.708646839135326,231.878875838549 61.73974858617294,231.92190719483187 61.75840963443625,231.93625097452605 61.75840963443625,231.85018825330917 61.77085033323965,231.8215006565806 61.78329103204305,231.72826588783937 61.77085033323965,231.50593633398967 61.75218928500544,231.3840133823469 61.764629983808845,231.35532559883723 61.92635906848591,231.31229390203225 61.95124046615092,231.32663780386065 62.08808815316297,231.46290472771216 62.218715490802424,231.55613984198862 62.287139334279345,231.6278590780421 62.34312247898197,231.6565467523469 62.47374981662142,231.8143287556013 62.535953310725745,231.85018825330917 62.647919600101886,231.86453204736608 62.76610623890883,231.85018825330917 62.87185217888327,231.85736015070142 63.139327203534776,231.83584445637825 63.294835938781034,231.85018825330917 63.30727663761354,231.86453204736608 63.43790397522389,231.85018825330917 63.61829410813516,231.87170394330315 63.64939585517277,231.89321962683607 63.75514179514721,231.89321962683607 63.82978598808404,231.91473530391522 63.929311578627676,231.91473530391522 63.94797262686188,231.96493852527783 63.972854024526896,231.9505947513535 63.9852947233303,231.92190719483187 63.9852947233303,231.90039151992096 63.94797262686188,231.87170394330315 63.86088773512165,231.8143287556013 63.82978598808404,231.80715685392352 63.83600633748574,231.84301635518932 63.736480746913,231.86453204736608 63.63695515636937,231.93625097452605 63.61829410813516,231.97928229634272 63.62451445750776,232.0294854724416 63.57475166223594,232.0725167382334 63.481446421094006,232.1872666538984 63.30727663761354,232.2446415427694 63.24507314350922,232.1585791922189 63.18286964940489,232.11554797816643 63.00869986589532,232.0294854724416 62.72878414244042,231.97211041115952 62.542173660127446,231.90756341228553 62.330681780178566,231.85736015070142 62.1689526955015,231.86453204736608 62.125410249631386,231.878875838549 61.777070682670455,231.92907908504276 61.69620614030282,231.95776663866855 61.67132474266691,231.97928229634272 61.553138103859965,232.0294854724416 61.497154959186446,232.06534486239252 61.490934609784745,232.08686048775417 61.50337530858815,232.1083761066111 61.54691775448737,232.12271984896506 61.82683347794227,232.05100110857893 61.976121863757726,232.0294854724416 62.386664924852084,231.79281304835604 62.72256379300961,231.48442053408507 62.93405567295849,231.25491826607322 62.83453008241486,231.19754258412286 62.65413994950359,231.16168275956443 59.39467685847194,221.9020749459014 46.07068842140143,184.65070942354942 46.10179016843904,184.68659257279796 46.089349469635636,184.70812245368143 46.03958667436382,184.72965232810384 46.02092562610051,184.7152990792165 46.0022645778663,184.6722393152595 45.9960442284646,184.62917952538555 46.01470527672791,184.58611970952916 46.10179016843904,184.51435329213564 46.15777331314166,184.5 46.2510785543127,184.5 46.294621000182815,184.52152993711206 46.33816344602383,184.5502365098364 49.746914922929136,263.6791701354232 49.83399981469847,263.7436885192292 49.86510156173608,263.7795320406949 49.85266086293268,263.82971294065646 49.85266086293268,263.85121902987885 49.88998295937199,263.92290594740916 49.98328820054303,264.0160988330317 50.05793239347986,264.0734482409025 50.19478008049191,264.20965290073946 50.27564462283044,264.3458573018579 50.35650916516897,264.43188100082625 50.4187126592733,264.4963987073206 50.518238249846036,264.5609163557674 50.518238249846036,264.5250732248969 50.549339996883646,264.5322418525175 50.67374698509229,264.482061444236 50.6986283827282,264.482061444236 50.6924080333265,264.5322418525175 50.80437432270264,264.5250732248969 50.89145921447198,264.5322418525175 50.91634061210789,264.5107359675385 50.87901851563947,264.5465791055758 50.854137118003564,264.51790459658514 50.79193362389924,264.5107359675385 50.6861876839248,264.43904963776004 50.60532314158627,264.40320644596795 50.574221394519554,264.39603780546895 50.549339996883646,264.40320644596795 50.58666209335206,264.43904963776004 50.87901851563947,264.5609163557674 51.53837555315113,264.8691665415172 52.216393638867885,265.09139259758376 52.37812272354495,265.1774154020968 53.21164954453707,265.37096633500187 53.304954785708105,265.3996405028447 53.39203967744834,265.4426517331158 53.62841295503313,265.5" stroke="#4dd2ff" stroke-linecap="round" stroke-linejoin="round" stroke-width="0.5"><title>2023-02-12 11.8km</title><desc>8545993924</desc></polyline><polyline fill="none" points="114.21999999973923,235.2731137649389 118.10800000000745,234.8995496169664 122.64400000032037,234.71276751544792 126.20799999963492,234.8995496169664 128.80000000074506,235.4598958103452 134.46999999973923,236.3938057582127 140.30200000014156,236.02024183468893 144.67599999997765,236.58058769162744 149.04999999981374,237.32771523774136 152.93799999915063,237.70127889933065 155.85400000028312,238.2616242498625 160.06599999964237,238.6351877237903 165.73599999956787,237.51449707790744 170.10999999940395,239.0087511234451 173.99799999967217,240.31622243090533 172.2160000000149,239.9426592933014 168.00399999972433,239.38231444731355 163.4679999994114,238.82196943298914 161.84799999929965,238.44840599643067 156.5019999993965,237.32771523774136 151.64199999999255,237.32771523774136 147.26800000015646,237.14093337929808 143.7039999999106,236.3938057582127 139.49199999962002,235.64667783712503 135.76599999982864,235.08633170020767 133.82199999969453,234.71276751544792 129.44799999985844,233.77885672578122 124.58800000045449,233.03172775742132 119.24199999962002,232.09781612595543 114.05799999926239,232.09781612595543 110.97999999951571,232.47138083481696 107.09200000017881,233.21851002715994 111.14199999999255,233.59207451168913 116.65000000037253,234.15242109796964 120.8620000006631,234.52598539495375 122.48199999984354,234.71276751544792 127.9899999992922,234.8995496169664 132.3640000000596,235.08633170020767 135.27999999932945,235.4598958103452 139.8160000005737,235.2731137649389 143.86600000038743,235.64667783712503 148.07799999974668,236.7673696060665 151.3179999999702,237.51449707790744 155.52999999932945,237.8880607014289 159.74199999962002,238.2616242498625 163.62999999988824,238.82196943298914 165.25,239.19553279480897 170.2719999998808,239.9426592933014 174.64599999971688,240.50300397130195 173.51199999917299,240.31622243090533 169.46199999935925,239.9426592933014 164.7639999995008,239.19553279480897 160.71399999875575,238.44840599643067 157.95999999996275,237.8880607014289 153.58600000012666,237.14093337929808 149.5359999993816,236.20702380605508 145.97200000006706,236.02024183468893 141.11199999973178,236.02024183468893 137.22399999946356,235.4598958103452 131.87800000049174,234.52598539495375 127.828000000678,234.3392032557167 124.58800000045449,233.9656389215961 120.05199999921024,233.59207451168913 115.19199999980628,234.52598539495375 109.19799999985844,235.08633170020767 105.31000000052154,235.08633170020767 109.0359999993816,235.08633170020767 113.73400000017136,234.71276751544792 117.94599999953061,234.71276751544792 124.91200000047684,235.2731137649389 127.9899999992922,235.64667783712503 133.660000000149,235.64667783712503 138.0339999999851,235.83345984562766 144.83800000045449,236.95415150176268 149.86000000033528,238.44840599643067 155.2059999993071,238.07484248513356 159.25599999912083,238.2616242498625 164.43999999947846,239.19553279480897 168.00399999972433,239.38231444731355 171.5679999999702,240.31622243090533 176.42799999937415,240.6897854928393 173.02599999960512,240.50300397130195 171.081999999471,240.50300397130195 170.75799999944866,240.50300397130195 166.05999999959022,240.31622243090533 161.36199999973178,239.56909608177375 152.93799999915063,237.8880607014289 148.2399999992922,236.95415150176268 142.89399999938905,237.70127889933065 137.54800000041723,237.32771523774136 133.98399999924004,236.58058769162744 129.9339999994263,235.83345984562766 124.91200000047684,235.08633170020767 121.50999999977648,235.08633170020767 118.26999999955297,234.8995496169664 112.76200000010431,234.71276751544792 107.41599999926984,232.65816316124983 109.19799999985844,234.3392032557167 114.70600000023842,234.52598539495375 119.40400000009686,234.71276751544792 122.15799999982119,235.08633170020767 125.07400000002235,235.83345984562766 128.47599999979138,236.3938057582127 133.33600000012666,236.95415150176268 135.60400000028312,237.51449707790744 139.8160000005737,237.51449707790744 143.86600000038743,237.70127889933065 147.5920000001788,238.07484248513356 154.88199999928474,239.0087511234451 157.31199999991804,239.38231444731355 162.00999999977648,239.9426592933014 166.5460000000894,240.31622243090533 172.70199999865144,240.6897854928393 174.64599999971688,239.9426592933014 171.24399999994785,239.9426592933014 166.70799999963492,239.56909608177375 161.36199999973178,239.19553279480897 153.2620000001043,239.0087511234451 148.40199999976903,236.95415150176268 144.18999999947846,237.70127889933065 138.51999999955297,237.32771523774136 133.98399999924004,235.83345984562766 129.44799999985844,234.52598539495375 125.07400000002235,234.52598539495375 119.89000000059605,234.8995496169664 116.97399999946356,234.3392032557167 113.08600000012666,233.405292279087 107.90200000070035,232.47138083481696 110.8179999999702,234.15242109796964 115.67800000030547,235.08633170020767 120.70000000018626,235.83345984562766 127.01799999922514,236.7673696060665 131.39199999906123,237.14093337929808 136.57599999941885,237.70127889933065 139.65400000009686,237.8880607014289 146.2960000000894,239.0087511234451 151.3179999999702,240.129440871533 155.69199999980628,240.31622243090533 159.25599999912083,239.7558776967926 162.00999999977648,240.129440871533 167.8419999992475,240.87656699621584 171.24399999994785,241.2501299465075 173.6739999987185,240.6897854928393 169.1379999993369,240.6897854928393 164.27799999993294,240.87656699621584 159.41799999959767,239.9426592933014 154.23400000017136,237.8880607014289 151.96599999908358,236.95415150176268 147.10599999967963,236.58058769162744 143.54199999943376,236.7673696060665 138.51999999955297,235.83345984562766 130.4199999999255,234.52598539495375 123.12999999988824,234.3392032557167 116.32600000035018,233.9656389215961 108.87399999983609,233.77885672578122 105.95799999963492,233.405292279087 108.71200000029057,233.77885672578122 112.43800000008196,234.3392032557167 120.05199999921024,234.3392032557167 124.75,235.83345984562766 130.25800000037998,237.14093337929808 135.76599999982864,237.51449707790744 140.30200000014156,237.70127889933065 143.54199999943376,238.2616242498625 146.45799999963492,238.6351877237903 154.5579999992624,239.56909608177375 156.17799999937415,239.56909608177375 161.36199999973178,239.56909608177375 164.27799999993294,239.56909608177375 169.78600000031292,240.31622243090533 174.80800000019372,241.06334848050028 173.51199999917299,239.7558776967926 170.4339999994263,239.0087511234451 167.8419999992475,238.07484248513356 161.68599999975413,237.70127889933065 154.71999999973923,237.51449707790744 150.1839999994263,236.95415150176268 148.40199999976903,236.95415150176268 144.18999999947846,236.7673696060665 140.13999999966472,236.20702380605508 131.87800000049174,236.20702380605508 129.28600000031292,235.4598958103452 123.77799999993294,234.15242109796964 116.32600000035018,233.77885672578122 112.76200000010431,234.52598539495375 104.5,234.8995496169664 115.67800000030547,234.71276751544792 118.59399999957532,234.8995496169664 125.23599999956787,235.08633170020767 129.44799999985844,235.64667783712503 135.44199999980628,234.8995496169664 140.78799999970943,236.58058769162744 146.13399999961257,237.51449707790744 151.3179999999702,237.8880607014289 154.5579999992624,238.07484248513356 160.2280000001192,239.38231444731355 164.7639999995008,240.50300397130195 167.8419999992475,240.50300397130195 174.32199999969453,240.87656699621584 174.1599999992177,239.9426592933014 171.5679999999702,239.0087511234451 165.73599999956787,238.2616242498625 159.90399999916553,238.6351877237903 156.82600000035018,237.70127889933065 151.64199999999255,236.95415150176268 148.72599999886006,236.7673696060665 140.46399999968708,237.14093337929808 134.9559999993071,236.20702380605508 132.04000000003725,236.02024183468893 126.69400000013411,235.2731137649389 117.62200000043958,233.21851002715994 113.41000000014901,233.77885672578122 105.31000000052154,233.59207451168913 108.87399999983609,233.59207451168913 111.95199999958277,233.59207451168913 116.81199999898672,233.59207451168913 124.91200000047684,234.8995496169664 127.828000000678,235.2731137649389 133.82199999969453,236.02024183468893 140.13999999966472,236.02024183468893 146.13399999961257,237.51449707790744 152.28999999910593,238.44840599643067 158.93199999909848,237.8880607014289 163.14399999938905,238.07484248513356 166.5460000000894,239.0087511234451 173.6739999987185,239.9426592933014 170.59599999990314,239.56909608177375 165.57400000002235,239.19553279480897 159.25599999912083,239.0087511234451 156.9879999998957,238.44840599643067 150.83200000040233,237.32771523774136 148.07799999974668,237.14093337929808 142.24599999934435,236.7673696060665 135.11799999978393,234.3392032557167 129.61000000033528,233.03172775742132 124.42599999997765,232.844945468707 120.37599999923259,233.59207451168913 118.4320000000298,233.9656389215961 109.0359999993816,232.65816316124983 114.21999999973923,233.59207451168913 118.91800000052899,235.2731137649389 123.12999999988824,236.02024183468893 130.90599999949336,236.7673696060665 136.57599999941885,237.51449707790744 141.75999999977648,237.8880607014289 145.48599999956787,238.6351877237903 150.99399999901652,239.38231444731355 155.2059999993071,238.6351877237903 161.84799999929965,238.82196943298914 165.57400000002235,239.38231444731355 173.02599999960512,240.50300397130195 173.18800000008196,238.82196943298914 170.4339999994263,238.82196943298914 164.1159999994561,238.6351877237903 159.09399999957532,238.6351877237903 156.01599999982864,236.95415150176268 150.99399999901652,235.83345984562766 145.16199999954551,235.83345984562766 140.78799999970943,236.02024183468893 137.87200000043958,235.64667783712503 133.98399999924004,235.4598958103452 127.828000000678,234.52598539495375 124.58800000045449,234.15242109796964 118.4320000000298,233.59207451168913 115.51599999982864,233.77885672578122 107.25399999972433,232.47138083481696 109.52199999988079,234.15242109796964 115.83999999985099,234.3392032557167 120.37599999923259,234.3392032557167 122.64400000032037,234.71276751544792 127.828000000678,235.4598958103452 132.84999999962747,236.02024183468893 138.1959999995306,236.7673696060665 140.30200000014156,236.58058769162744 144.83800000045449,236.95415150176268 150.34599999990314,238.6351877237903 156.339999999851,238.6351877237903 160.55200000014156,238.6351877237903 162.171999999322,238.6351877237903 168.32799999974668,239.19553279480897 170.4339999994263,239.7558776967926 175.94199999887496,238.82196943298914 170.2719999998808,238.82196943298914 167.1939999992028,236.3938057582127 166.70799999963492,232.2845984895248 168.81400000024587,224.81328934815247 169.1379999993369,218.27586929383688 170.10999999940395,211.1780729989987 168.65199999976903,210.43093497515656 168.16599999926984,213.97983792203013 167.35599999967963,219.7701387554407 167.51799999922514,222.57189076871146 166.70799999963492,229.85642630199436 164.92599999904633,234.71276751544792 163.14399999938905,238.44840599643067 154.23400000017136,236.20702380605508 151.8040000004694,235.83345984562766 146.62000000011176,234.8995496169664 140.78799999970943,235.4598958103452 136.25200000032783,236.02024183468893 130.74399999994785,236.02024183468893 120.70000000018626,232.65816316124983 112.27599999960512,234.8995496169664 109.36000000033528,233.77885672578122 112.92400000058115,235.2731137649389 117.62200000043958,235.64667783712503 122.32000000029802,235.64667783712503 126.53199999965727,236.02024183468893 130.90599999949336,236.02024183468893 135.60400000028312,236.02024183468893 138.6820000000298,236.7673696060665 143.54199999943376,237.14093337929808 147.5920000001788,237.70127889933065 150.50799999944866,237.8880607014289 156.66399999987334,237.8880607014289 162.98200000077486,238.6351877237903 167.67999999970198,239.0087511234451 169.46199999935925,239.19553279480897 173.02599999960512,240.129440871533 173.18800000008196,238.6351877237903 170.4339999994263,238.44840599643067 168.32799999974668,231.72425134223886 168.81400000024587,226.30755357129965 170.59599999990314,224.25293995602988 176.42799999937415,225.1868555167457 180.80200000014156,225.56042160943616 182.90799999888986,220.70405656122603 185.5,216.22124682914 180.31599999964237,212.11199510772713 176.589999999851,212.11199510772713 170.10999999940395,213.41948527400382 169.6239999998361,216.78159863478504 167.8419999992475,224.43972310540266 166.70799999963492,230.41677401098423 165.57400000002235,233.77885672578122 161.52400000020862,237.8880607014289 157.47399999946356,237.32771523774136 151.96599999908358,236.02024183468893 149.3739999998361,235.4598958103452" stroke="#4dd2ff" stroke-linecap="round" stroke-linejoin="round" stroke-width="0.5"><title>2021-06-21 10.0km</title><desc>9223370412586047204</desc></polyline></svg>