<?xml version="1.0" encoding="utf-8" ?>
<svg baseProfile="full" height="300mm" version="1.1" viewBox="0,0,200,300" width="200mm" xmlns="http://www.w3.org/2000/svg" xmlns:ev="http://www.w3.org/2001/xml-events" xmlns:xlink="http://www.w3.org/1999/xlink"><defs /><rect fill="#222222" height="300" width="200" x="0" y="0" /><text fill="#FFFFFF" style="font-size:12px; font-family:Arial; font-weight:bold;" x="10" y="20">Over 10km Runs</text><text fill="#FFFFFF" style="font-size:4px; font-family:Arial" x="10" y="280">ATHLETE</text><text fill="#FFFFFF" style="font-size:9px; font-family:Arial" x="10" y="290">DuckTyping</text><text fill="#FFFFFF" style="font-size:4px; font-family:Arial" x="120" y="280">STATISTICS</text><text fill="#FFFFFF" style="font-size:3px; font-family:Arial" x="120" y="285">Number: 2</text><text fill="#FFFFFF" style="font-size:3px; font-family:Arial" x="120" y="290">Weekly: 1.0</text><text fill="#FFFFFF" style="font-size:3px; font-family:Arial" x="141" y="285">Total: 21.8 km</text><text fill="#FFFFFF" style="font-size:3px; font-family:Arial" x="141" y="290">Avg: 10.9 km</text><text fill="#FFFFFF" style="font-size:3px; font-family:Arial" x="167" y="285">Min: 10.0 km</text><text fill="#FFFFFF" style="font-size:3px; font-family:Arial" x="167" y="290">Max: 11.8 km</text><polyline fill="none" points="109.77820929777226,99.18212634685187 109.66214746635524,99.21080122184503 109.32225210289471,99.24903437511239 109.1813198790187,99.16300975871127 108.9574863470043,99.16300975871127 108.79168373066932,99.20124293112895 108.65904163758387,99.25859266102634 108.65075150679331,99.27770923000207 108.71707255332149,99.32550063567032 108.70049229165306,99.38285029089457 108.63417124512489,99.4401999116526 108.63417124512489,99.46887470910588 108.70878242247272,99.46887470910588 108.94090608533588,99.40196683497925 109.05696791678201,99.3159423564648 109.30567184125539,99.16300975871127 109.57095602739719,99.06742676068097 109.63727707392536,99.07698506477755 109.71188825124409,99.10565997139201 109.69530798963387,99.18212634685187 109.77820929777226,99.16300975871127 109.81136982108,99.16300975871127 109.97717243735678,99.26815094597987 110.31706780081731,99.38285029089457 110.38338884737459,99.3924085634062 110.64867303348728,99.36373374299001 110.83934604225215,99.30638407629158 110.87250656555989,99.27770923000207 110.87250656555989,99.23947608824528 110.9719881353376,99.20124293112895 111.0134387894359,99.17256805326906 111.03001905104611,99.14389316678717 111.14608088246314,99.09610167013307 111.2372723214794,99.10565997139201 111.48597624595277,99.07698506477755 111.57716768493992,99.07698506477755 111.61032820821856,99.10565997139201 111.73468017045525,99.11521827168326 111.95022357164999,99.17256805326906 111.99167422571918,99.14389316678717 111.99996435653884,99.10565997139201 111.99996435653884,99.08654336795007 111.97509396410896,99.06742676068097 111.88390252512181,99.07698506477755 111.80100121695432,99.17256805326906 111.69322951635695,99.20124293112895 111.67664925474674,99.22035951159341 111.56887755409116,99.25859266102634 111.58545781575958,99.26815094597987 111.49426637674333,99.34461719124374 111.08804996678373,99.43064164392126 110.96369800451794,99.37329201742978 110.94711774287862,99.28726751304202 110.78131512654363,99.22035951159341 110.54090133288992,99.17256805326906 110.06007374552428,99.21080122184503 109.80307969023124,99.22035951159341 109.70359812042443,99.24903437511239 109.35541262617335,99.41152510557731 109.31396197210415,99.32550063567032 109.2642211871862,99.23947608824528 109.21448040229734,99.2299178004032 109.09841857088031,99.2299178004032 108.88287516962737,99.29682579514338 108.84971464634873,99.33505891394452 108.87458503883681,99.36373374299001 108.93261595454533,99.37329201742978 108.9989370010444,99.32550063567032 109.00722713189316,99.28726751304202 109.01551726268372,99.24903437511239 108.94090608533588,99.14389316678717 108.98235673940508,99.20124293112895 109.00722713189316,99.22035951159341 109.00722713189316,99.10565997139201 109.02380739350338,99.06742676068097 109.04038765511359,98.94316872009222 109.02380739350338,98.64686043190886 108.9989370010444,98.48436839939677 109.01551726268372,98.44613493976067 109.23106066390756,98.38878472158831 109.2642211871862,98.40790146483778 109.4466040651314,98.58951033439371 109.62069681228604,98.7137688354851 109.71188825124409,98.80935218775267 109.78649942859192,98.84758550185506 109.96059217574657,99.0578684556167 110.04349348391406,99.10565997139201 110.19271583860973,99.12477657099953 110.35022832412506,99.10565997139201 110.49116054800106,99.11521827168326 110.84763617310091,99.08654336795007 111.05488944350509,99.10565997139201 111.07146970514441,99.12477657099953 111.24556245226995,99.10565997139201 111.48597624595277,99.13433486936265 111.52742690002196,99.16300975871127 111.66835912389797,99.16300975871127 111.76784069370478,99.19168463946698 111.90048278673203,99.19168463946698 111.925353179191,99.25859266102634 111.95851370246965,99.23947608824528 111.97509396410896,99.20124293112895 111.97509396410896,99.17256805326906 111.925353179191,99.13433486936265 111.80929134777398,99.0578684556167 111.76784069370478,99.04831014960655 111.77613082452444,99.09610167013307 111.64348873143899,99.12477657099953 111.51084663841175,99.22035951159341 111.48597624595277,99.27770923000207 111.49426637674333,99.34461719124374 111.42794533021515,99.40196683497925 111.30359336797846,99.55489904975548 111.07146970514441,99.63136506523733 110.98856839697692,99.5166660190298 110.90566708880942,99.45931644425582 110.67354342594626,99.34461719124374 110.3004875392071,99.26815094597987 110.05178361473372,99.18212634685187 109.76991916698171,99.11521827168326 109.55437576575787,99.12477657099953 109.49634485004935,99.14389316678717 109.03209752435214,99.21080122184503 108.92432582369656,99.24903437511239 108.89116530044703,99.27770923000207 108.7336528149317,99.34461719124374 108.65904163758387,99.3924085634062 108.65075150679331,99.42108337523678 108.66733176840353,99.4497581783944 108.72536268414115,99.46887470910588 109.09841857088031,99.37329201742978 109.29738171040663,99.34461719124374 109.84453034430044,99.02919353465404 110.29219740838744,98.61818538746593 110.57406185613945,98.31231771043531 110.4414197630831,98.23585063798237 110.20100596940028,98.18805868659547 105.85697742170305,85.84737570911966 88.09951721323887,36.20085701846983 88.14096786727896,36.24868005569442 88.12438760566874,36.27737386647641 88.05806655916967,36.306067668643664 88.03319616668159,36.286938468168955 88.00832577422261,36.229550843680045 88.00003564343206,36.17216318465216 88.02490603589104,36.11477549101255 88.14096786727896,36.01912925810757 88.2155790446559,36.0 88.33993100692169,36.0 88.3979619226302,36.028693885717075 88.45599283830961,36.066952386558114 92.99898452564958,141.52553161251853 93.1150463570666,141.61151807509304 93.1564970111649,141.65928829864424 93.13991674949648,141.72616657150502 93.13991674949648,141.75482867410028 93.18965753441444,141.85036895406665 93.31400949668023,141.97457117518934 93.41349106648704,142.05100323103397 93.59587394443224,142.232529118628 93.7036456450005,142.41405466140714 93.81141734565608,142.52870219496253 93.89431865379447,142.61468775485992 94.02696074685082,142.70067323739204 94.02696074685082,142.6529035344065 94.06841140094912,142.66245747693029 94.2342140172841,142.5955798593568 94.26737454050453,142.5955798593568 94.25908440974308,142.66245747693029 94.40830676438054,142.6529035344065 94.52436859582667,142.66245747693029 94.55752911910531,142.63379564654315 94.50778833421646,142.68156535907474 94.47462781096692,142.64334959095868 94.39172650277033,142.63379564654315 94.25079427889432,142.5382561498991 94.14302257829695,142.49048636572843 94.10157192419865,142.4809324060334 94.06841140094912,142.49048636572843 94.11815218583797,142.5382561498991 94.50778833421646,142.70067323739204 95.38654220072203,143.111491697171 96.29016645971569,143.40766204934334 96.50570986093953,143.5223083908204 97.61658739033737,143.78026215636055 97.74093935260316,143.8184774698093 97.85700118399109,143.8758004113406 98.17202615499264,143.9522309465392 98.28808798640966,144.0" stroke="#4dd2ff" stroke-linecap="round" stroke-linejoin="round" stroke-width="0.5"><title>2023-02-12 11.8km</title></polyline><polyline fill="none" points="56.36799999885261,224.44461312750354 56.583999999798834,224.69365577958524 57.44799999985844,224.69365577958524 57.87999999988824,224.44461312750354 58.311999999918044,224.44461312750354 58.95999999996275,223.69748501991853 61.119999999180436,223.19939948921092 63.06400000024587,223.19939948921092 64.14400000032037,223.19939948921092 65.22399999946356,223.19939948921092 68.67999999877065,223.19939948921092 70.19199999980628,222.95035668741912 71.48799999989569,222.95035668741912 74.07999999914318,223.19939948921092 74.94399999920279,223.19939948921092 76.0239999992773,223.44844226702116 77.10400000028312,223.69748501991853 78.40000000037253,223.94652774720453 82.93599999975413,224.44461312750354 84.66399999894202,224.69365577958524 85.95999999903142,225.19174101087265 87.03999999910593,225.19174101087265 92.00799999944866,224.94269840791821 93.73599999956787,224.69365577958524 95.24799999967217,224.44461312750354 98.05599999893457,224.94269840791821 99.56799999903888,225.4407835889142 102.37599999923259,225.93886866909452 104.1039999993518,226.18791117239743 105.3999999994412,226.4369536503218 106.91199999861419,226.4369536503218 109.2879999987781,226.68599610379897 110.58399999886751,226.93503853236325 112.09599999990314,227.43312331358902 113.17599999904633,227.43312331358902 114.47199999913573,227.68216566648334 117.27999999932945,227.93120799516328 118.57599999848753,227.93120799516328 120.08799999952316,228.18025029846467 122.89599999878556,227.68216566648334 124.62399999983609,227.18408093531616 127.64799999911338,226.68599610379897 129.3760000001639,226.93503853236325 131.9679999994114,227.93120799516328 133.4799999995157,228.67833483126014 134.55999999959022,229.4254614424426 136.0719999987632,229.92354572447948 138.66399999987334,230.42162990779616 139.09599999897182,229.67450359580107 137.7999999988824,229.92354572447948 136.2879999987781,229.92354572447948 133.4799999995157,229.92354572447948 131.9679999994114,229.4254614424426 130.67200000025332,229.17641926300712 129.1599999992177,228.67833483126014 126.13599999900907,228.67833483126014 124.62399999983609,228.42929257731885 123.75999999977648,228.18025029846467 123.11199999973178,228.18025029846467 122.46399999968708,227.93120799516328 121.38399999868125,227.93120799516328 117.06399999931455,226.93503853236325 115.33599999919534,226.4369536503218 113.82399999909103,226.4369536503218 110.36799999978393,226.18791117239743 108.85599999967963,226.4369536503218 107.55999999959022,226.4369536503218 106.04799999855459,226.18791117239743 103.0239999992773,226.18791117239743 101.51199999917299,225.93886866909452 99.99999999906868,225.4407835889142 98.27199999894947,225.19174101087265 95.46399999968708,224.94269840791821 93.95199999958277,224.44461312750354 92.65599999856204,224.19557044957764 91.35999999847263,224.19557044957764 88.76799999922514,223.44844226702116 87.68800000008196,223.44844226702116 87.03999999910593,223.19939948921092 86.17599999997765,223.19939948921092 85.09599999897182,222.95035668741912 84.01599999889731,222.70131386001594 81.8559999987483,222.2032281307038 79.26399999950081,221.70514230104163 77.3199999993667,221.20705637219362 74.29599999915808,220.95801336946897 72.7839999999851,220.70897034322843 68.67999999877065,219.46375483460724 67.16799999959767,219.46375483460724 65.65599999949336,219.46375483460724 63.71199999935925,219.21471165772527 60.256000000052154,219.21471165772527 58.74399999901652,219.46375483460724 57.44799999985844,219.71279798611067 54.639999999664724,219.46375483460724 54.639999999664724,219.96184111316688 52.911999999545515,219.21471165772527 49.8879999993369,218.71662523038685 49.455999999307096,220.95801336946897 52.04799999948591,221.45609934884124 53.34399999957532,221.45609934884124 54.85600000061095,221.45609934884124 56.80000000074506,221.45609934884124 60.687999999150634,221.9541852287948 62.200000000186265,222.2032281307038 63.71199999935925,222.4522710076999 65.00799999944866,222.4522710076999 67.8160000005737,222.70131386001594 68.67999999877065,222.70131386001594 69.32799999881536,222.70131386001594 69.97599999979138,222.95035668741912 71.9199999999255,222.70131386001594 75.37600000016391,223.19939948921092 77.3199999993667,223.19939948921092 78.83199999947101,223.19939948921092 80.34399999957532,223.44844226702116 83.15199999976903,223.44844226702116 84.23199999984354,223.69748501991853 85.74399999994785,223.94652774720453 87.03999999910593,223.94652774720453 90.06400000024587,223.94652774720453 91.57599999941885,223.94652774720453 93.08800000045449,223.69748501991853 94.38399999961257,223.94652774720453 96.97599999886006,223.94652774720453 98.48799999989569,224.19557044957764 99.99999999906868,224.44461312750354 101.2960000000894,224.94269840791821 104.1039999993518,225.68982614134438 105.61599999852479,225.93886866909452 106.91199999861419,226.18791117239743 108.42399999964982,226.68599610379897 111.23199999891222,226.93503853236325 112.52799999900162,226.93503853236325 114.03999999910593,227.18408093531616 115.55199999921024,227.43312331358902 118.36000000033528,227.68216566648334 119.65599999949336,227.68216566648334 121.16799999959767,227.68216566648334 122.46399999968708,227.93120799516328 124.83999999891967,228.42929257731885 126.13599999900907,228.67833483126014 126.56799999903888,228.67833483126014 126.99999999906868,228.9273770598229 128.07999999914318,228.9273770598229 132.1839999994263,229.67450359580107 133.6959999995306,229.92354572447948 135.2079999987036,230.17258782871068 136.71999999973923,230.42162990779616 139.52799999900162,230.67067196173593 141.2559999981895,229.92354572447948 139.95999999903142,229.92354572447948 138.0159999988973,230.42162990779616 136.503999998793,230.42162990779616 134.343999998644,230.17258782871068 132.6159999994561,229.92354572447948 129.3760000001639,229.4254614424426 127.86399999912828,229.17641926300712 126.35199999902397,228.9273770598229 125.05599999893457,228.42929257731885 122.24799999874085,227.93120799516328 120.95199999865144,227.93120799516328 119.65599999949336,227.68216566648334 118.36000000033528,227.68216566648334 117.27999999932945,227.18408093531616 114.25600000005215,226.68599610379897 112.74399999901652,226.4369536503218 111.44799999985844,226.18791117239743 110.15199999976903,225.93886866909452 107.12799999956042,225.4407835889142 106.04799999855459,224.94269840791821 104.96799999848008,224.94269840791821 102.59200000017881,224.69365577958524 101.2960000000894,224.69365577958524 98.91999999899417,224.69365577958524 97.19199999980628,224.94269840791821 94.81599999964237,224.69365577958524 92.00799999944866,224.44461312750354 90.71199999935925,224.19557044957764 89.63199999928474,223.94652774720453 87.68800000008196,223.69748501991853 84.01599999889731,222.95035668741912 82.50399999972433,222.70131386001594 80.99199999962002,222.70131386001594 79.91199999954551,222.70131386001594 77.10400000028312,222.4522710076999 75.80799999926239,222.2032281307038 74.29599999915808,222.2032281307038 72.7839999999851,221.9541852287948 69.7600000007078,221.70514230104163 68.03199999965727,221.70514230104163 66.73599999863654,221.45609934884124 63.49600000027567,221.70514230104163 61.76799999922514,222.2032281307038 60.256000000052154,222.70131386001594 58.527999999932945,222.95035668741912 53.7759999986738,223.44844226702116 52.26399999950081,223.44844226702116 50.967999999411404,223.44844226702116 49.455999999307096,223.44844226702116 47.080000000074506,223.44844226702116 48.15999999921769,223.69748501991853 50.7519999993965,223.44844226702116 52.04799999948591,223.44844226702116 53.7759999986738,223.44844226702116 57.23199999984354,223.19939948921092 58.311999999918044,222.95035668741912 60.47199999913573,222.70131386001594 62.41599999926984,222.4522710076999 63.92799999937415,222.95035668741912 65.44000000040978,223.19939948921092 68.03199999965727,223.44844226702116 73.2160000000149,223.69748501991853 74.29599999915808,223.94652774720453 74.94399999920279,223.69748501991853 77.3199999993667,224.19557044957764 79.48000000044703,223.94652774720453 82.2879999987781,224.19557044957764 84.87999999988824,224.19557044957764 86.60799999907613,224.44461312750354 88.98399999924004,224.44461312750354 90.71199999935925,224.44461312750354 92.00799999944866,224.44461312750354 96.32799999881536,225.19174101087265 99.7839999999851,225.93886866909452 102.37599999923259,226.93503853236325 103.8879999993369,227.18408093531616 106.47999999951571,227.93120799516328 106.91199999861419,227.68216566648334 107.9919999986887,227.43312331358902 113.60799999907613,227.43312331358902 114.90399999916553,227.18408093531616 117.92799999844283,227.43312331358902 119.00799999851733,227.68216566648334 120.30399999953806,227.93120799516328 122.24799999874085,228.18025029846467 125.9199999999255,228.9273770598229 127.64799999911338,229.17641926300712 129.3760000001639,229.17641926300712 130.67200000025332,229.17641926300712 133.0479999994859,229.92354572447948 134.12799999956042,230.17258782871068 135.42399999964982,230.42162990779616 136.71999999973923,230.91971399053 138.0159999988973,231.41779797407798 141.90399999916553,230.91971399053 139.09599999897182,230.42162990779616 137.58399999979883,230.67067196173593 137.36799999978393,230.67067196173593 136.0719999987632,230.67067196173593 135.8559999987483,230.67067196173593 134.77599999960512,230.67067196173593 134.55999999959022,230.67067196173593 134.343999998644,230.67067196173593 134.343999998644,230.67067196173593 133.6959999995306,230.42162990779616 128.7280000001192,230.42162990779616 128.07999999914318,230.42162990779616 124.83999999891967,229.67450359580107 123.11199999973178,229.67450359580107 121.81599999964237,229.4254614424426 117.92799999844283,228.9273770598229 113.17599999904633,227.68216566648334 110.58399999886751,227.18408093531616 109.07199999969453,226.93503853236325 108.42399999964982,226.68599610379897 104.31999999843538,225.93886866909452 100.4320000000298,226.4369536503218 98.7039999999106,226.68599610379897 97.19199999980628,226.93503853236325 92.65599999856204,226.68599610379897 91.35999999847263,226.4369536503218 90.06400000024587,226.4369536503218 87.68800000008196,225.93886866909452 86.60799999907613,225.68982614134438 85.31199999898672,225.4407835889142 84.01599999889731,225.19174101087265 81.42399999964982,224.69365577958524 79.91199999954551,224.44461312750354 78.1839999994263,224.19557044957764 76.45600000023842,224.19557044957764 73.2160000000149,223.44844226702116 71.7039999999106,223.69748501991853 70.40799999982119,223.69748501991853 68.67999999877065,223.44844226702116 65.65599999949336,223.44844226702116 65.00799999944866,223.19939948921092 64.35999999940395,223.19939948921092 63.27999999932945,223.19939948921092 61.119999999180436,222.95035668741912 57.015999998897314,222.95035668741912 55.071999998763204,222.4522710076999 52.47999999951571,220.95801336946897 49.8879999993369,220.21088421507739 48.80799999926239,221.9541852287948 51.18400000035763,222.4522710076999 52.26399999950081,222.4522710076999 53.7759999986738,222.4522710076999 56.152000000700355,222.4522710076999 59.60800000000745,222.70131386001594 61.33599999919534,222.4522710076999 62.847999999299645,222.70131386001594 65.87199999950826,222.95035668741912 67.16799999959767,223.44844226702116 68.46399999968708,223.44844226702116 69.54399999976158,223.44844226702116 70.83999999985099,223.94652774720453 71.9199999999255,224.19557044957764 73.43199999909848,224.44461312750354 74.29599999915808,224.69365577958524 76.45600000023842,224.94269840791821 77.9679999994114,225.19174101087265 80.99199999962002,225.4407835889142 82.2879999987781,225.4407835889142 84.44799999985844,225.93886866909452 85.52799999993294,226.18791117239743 85.95999999903142,226.18791117239743 87.47200000006706,226.68599610379897 88.55199999921024,226.93503853236325 91.35999999847263,226.93503853236325 93.08800000045449,226.68599610379897 94.16799999959767,226.93503853236325 95.89599999971688,226.93503853236325 98.48799999989569,226.93503853236325 100.21599999908358,226.93503853236325 101.72799999918789,227.18408093531616 103.4559999993071,227.43312331358902 107.9919999986887,227.93120799516328 109.7199999988079,227.93120799516328 113.17599999904633,228.67833483126014 114.03999999910593,228.67833483126014 114.47199999913573,228.9273770598229 116.41600000020117,229.17641926300712 119.65599999949336,229.67450359580107 121.16799999959767,229.92354572447948 122.67999999877065,229.92354572447948 123.97599999979138,230.17258782871068 126.78399999905378,230.42162990779616 128.7280000001192,230.42162990779616 130.4559999993071,230.67067196173593 135.2079999987036,230.91971399053 136.9359999988228,230.91971399053 138.66399999987334,230.91971399053 141.68799999915063,229.67450359580107 139.52799999900162,229.92354572447948 138.0159999988973,229.92354572447948 136.2879999987781,229.92354572447948 134.9919999986887,229.92354572447948 132.3999999994412,229.92354572447948 130.67200000025332,229.4254614424426 128.9439999992028,229.4254614424426 128.7280000001192,229.4254614424426 123.75999999977648,229.17641926300712 121.81599999964237,228.9273770598229 116.84799999929965,228.9273770598229 114.47199999913573,228.67833483126014 111.01599999982864,228.67833483126014 108.42399999964982,227.43312331358902 105.83199999947101,226.4369536503218 104.5359999993816,225.93886866909452 103.0239999992773,226.18791117239743 100.6480000000447,226.68599610379897 98.91999999899417,226.93503853236325 96.54399999976158,226.93503853236325 92.87199999950826,226.93503853236325 91.35999999847263,226.4369536503218 89.63199999928474,225.93886866909452 88.33600000012666,225.19174101087265 85.31199999898672,224.44461312750354 83.79999999888241,223.94652774720453 80.55999999959022,223.19939948921092 79.26399999950081,222.70131386001594 76.45600000023842,222.4522710076999 74.94399999920279,222.70131386001594 73.43199999909848,222.70131386001594 70.40799999982119,223.19939948921092 67.8160000005737,223.19939948921092 66.51999999955297,223.19939948921092 65.22399999946356,223.19939948921092 64.14400000032037,222.70131386001594 62.631999999284744,222.4522710076999 59.17599999997765,222.2032281307038 57.66399999987334,221.70514230104163 57.44799999985844,221.20705637219362 55.28799999970943,220.70897034322843 52.26399999950081,219.46375483460724 50.536000000312924,219.96184111316688 50.10400000028312,222.2032281307038 53.127999999560416,222.2032281307038 54.42399999964982,222.2032281307038 55.50399999972433,222.2032281307038 58.311999999918044,222.95035668741912 60.90400000009686,223.44844226702116 62.847999999299645,223.94652774720453 65.87199999950826,224.19557044957764 67.59999999962747,224.44461312750354 69.11199999973178,224.69365577958524 70.83999999985099,224.69365577958524 76.0239999992773,225.68982614134438 77.10400000028312,225.4407835889142 77.9679999994114,225.4407835889142 81.8559999987483,226.18791117239743 84.44799999985844,226.18791117239743 87.68800000008196,226.4369536503218 88.76799999922514,226.93503853236325 89.41599999926984,226.93503853236325 90.71199999935925,227.18408093531616 92.87199999950826,227.18408093531616 96.97599999886006,227.93120799516328 99.99999999906868,228.42929257731885 101.72799999918789,228.67833483126014 103.4559999993071,228.9273770598229 105.1839999994263,229.17641926300712 108.42399999964982,230.17258782871068 109.93599999882281,230.17258782871068 111.44799999985844,230.42162990779616 114.25600000005215,230.42162990779616 115.76799999922514,229.92354572447948 117.27999999932945,229.4254614424426 119.00799999851733,229.67450359580107 120.30399999953806,229.92354572447948 121.38399999868125,229.67450359580107 122.67999999877065,230.17258782871068 123.97599999979138,230.42162990779616 128.51199999917299,231.16875599487685 130.4559999993071,231.16875599487685 131.32000000029802,230.91971399053 132.1839999994263,231.16875599487685 134.9919999986887,231.66683992859907 137.58399999979883,231.91588185820729 139.52799999900162,231.16875599487685 138.23199999891222,230.91971399053 135.42399999964982,230.42162990779616 133.9119999986142,230.67067196173593 132.1839999994263,230.91971399053 130.88799999840558,230.91971399053 127.43199999909848,231.16875599487685 125.7039999999106,231.16875599487685 122.03199999965727,230.42162990779616 120.51999999955297,230.42162990779616 119.22399999853224,229.92354572447948 118.36000000033528,229.67450359580107 113.17599999904633,228.18025029846467 112.31199999991804,227.18408093531616 112.09599999990314,226.93503853236325 110.15199999976903,225.93886866909452 109.2879999987781,225.93886866909452 107.34399999957532,225.4407835889142 106.26399999856949,225.19174101087265 102.80799999926239,225.4407835889142 100.86399999912828,225.68982614134438 99.7839999999851,225.68982614134438 98.05599999893457,225.68982614134438 93.30399999860674,225.4407835889142 92.43999999947846,224.69365577958524 91.35999999847263,224.44461312750354 88.55199999921024,223.44844226702116 86.82400000002235,223.44844226702116 80.55999999959022,222.70131386001594 75.37600000016391,222.70131386001594 73.8640000000596,222.70131386001594 70.83999999985099,222.4522710076999 67.59999999962747,222.2032281307038 63.27999999932945,221.45609934884124 61.76799999922514,221.9541852287948 59.17599999997765,222.4522710076999 54.42399999964982,221.9541852287948 51.83199999947101,221.70514230104163 48.80799999926239,220.70897034322843 47.72799999918789,220.45992729160935 47.94400000013411,221.20705637219362 48.592000000178814,221.20705637219362 49.671999999322,221.20705637219362 51.61599999945611,221.70514230104163 52.69599999953061,221.9541852287948 55.50399999972433,222.4522710076999 56.583999999798834,222.4522710076999 61.119999999180436,222.2032281307038 62.847999999299645,222.2032281307038 66.73599999863654,222.4522710076999 68.46399999968708,222.95035668741912 71.9199999999255,224.19557044957764 72.99999999906868,224.44461312750354 74.94399999920279,225.19174101087265 77.7519999993965,225.68982614134438 80.34399999957532,226.18791117239743 84.44799999985844,226.68599610379897 86.17599999997765,226.68599610379897 87.68800000008196,226.68599610379897 90.49599999934435,226.68599610379897 92.22399999946356,226.93503853236325 93.73599999956787,226.93503853236325 95.24799999967217,226.93503853236325 96.97599999886006,227.43312331358902 98.05599999893457,227.68216566648334 98.91999999899417,227.68216566648334 99.3519999999553,227.68216566648334 101.94399999920279,228.18025029846467 107.9919999986887,229.17641926300712 109.7199999988079,229.4254614424426 112.74399999901652,229.4254614424426 113.17599999904633,229.4254614424426 113.60799999907613,229.67450359580107 114.90399999916553,229.4254614424426 116.63199999835342,229.17641926300712 117.92799999844283,229.4254614424426 121.81599999964237,229.4254614424426 123.75999999977648,229.67450359580107 124.62399999983609,229.4254614424426 125.7039999999106,229.4254614424426 126.35199999902397,229.4254614424426 130.67200000025332,230.17258782871068 133.0479999994859,230.42162990779616 136.9359999988228,231.16875599487685 138.23199999891222,231.41779797407798 139.74399999901652,231.41779797407798 140.60799999907613,230.42162990779616 139.09599999897182,230.17258782871068 138.0159999988973,229.67450359580107 136.503999998793,229.4254614424426 135.42399999964982,229.17641926300712 133.9119999986142,228.67833483126014 132.3999999994412,228.18025029846467 131.32000000029802,227.68216566648334 130.4559999993071,227.43312331358902 125.7039999999106,226.93503853236325 123.97599999979138,226.93503853236325 122.24799999874085,226.93503853236325 118.36000000033528,226.4369536503218 116.41600000020117,226.4369536503218 112.95999999996275,226.68599610379897 109.93599999882281,226.18791117239743 108.42399999964982,225.93886866909452 106.91199999861419,225.93886866909452 106.26399999856949,226.18791117239743 105.3999999994412,225.93886866909452 104.5359999993816,225.93886866909452 101.2960000000894,225.68982614134438 99.7839999999851,225.4407835889142 98.91999999899417,225.68982614134438 98.48799999989569,225.4407835889142 97.19199999980628,225.4407835889142 93.51999999955297,224.94269840791821 90.71199999935925,224.94269840791821 84.01599999889731,224.69365577958524 82.50399999972433,224.94269840791821 80.77599999960512,224.69365577958524 80.12800000049174,224.19557044957764 79.04799999948591,223.94652774720453 78.40000000037253,223.19939948921092 73.43199999909848,222.2032281307038 71.7039999999106,222.2032281307038 68.46399999968708,221.9541852287948 63.27999999932945,221.70514230104163 61.76799999922514,221.70514230104163 60.256000000052154,221.9541852287948 58.096000000834465,222.4522710076999 57.015999998897314,222.70131386001594 52.47999999951571,222.70131386001594 48.15999999921769,222.4522710076999 46.0,223.19939948921092 53.55999999959022,223.19939948921092 57.44799999985844,222.70131386001594 60.90400000009686,222.95035668741912 61.55200000014156,222.95035668741912 63.06400000024587,222.95035668741912 64.79199999943376,223.19939948921092 69.54399999976158,223.19939948921092 71.7039999999106,223.44844226702116 73.64799999911338,223.44844226702116 76.671999999322,223.69748501991853 78.40000000037253,224.19557044957764 79.26399999950081,224.19557044957764 80.55999999959022,224.19557044957764 84.23199999984354,223.69748501991853 87.25599999912083,223.19939948921092 88.76799999922514,223.19939948921092 92.00799999944866,224.19557044957764 94.38399999961257,225.4407835889142 95.24799999967217,225.68982614134438 96.97599999886006,226.18791117239743 101.51199999917299,226.68599610379897 103.4559999993071,226.93503853236325 105.3999999994412,226.93503853236325 108.42399999964982,227.18408093531616 109.93599999882281,227.43312331358902 111.23199999891222,227.43312331358902 112.74399999901652,227.43312331358902 115.76799999922514,227.93120799516328 119.00799999851733,228.67833483126014 120.30399999953806,229.17641926300712 121.16799999959767,229.4254614424426 122.24799999874085,229.67450359580107 126.35199999902397,230.67067196173593 127.86399999912828,230.91971399053 128.9439999992028,230.91971399053 130.4559999993071,230.67067196173593 132.3999999994412,230.42162990779616 134.9919999986887,230.67067196173593 139.09599999897182,231.16875599487685 141.47199999913573,230.91971399053 140.82399999909103,230.42162990779616 138.87999999895692,229.92354572447948 138.44799999892712,229.67450359580107 137.36799999978393,229.67450359580107 135.42399999964982,228.67833483126014 133.4799999995157,228.18025029846467 130.4559999993071,227.43312331358902 127.64799999911338,227.68216566648334 126.78399999905378,227.68216566648334 123.97599999979138,227.93120799516328 119.87199999950826,228.18025029846467 118.14399999938905,227.68216566648334 117.06399999931455,227.18408093531616 115.76799999922514,226.93503853236325 115.11999999918044,226.68599610379897 111.23199999891222,225.93886866909452 108.85599999967963,225.93886866909452 107.77599999960512,225.93886866909452 105.61599999852479,225.93886866909452 104.96799999848008,225.68982614134438 103.671999999322,225.68982614134438 101.2960000000894,225.19174101087265 93.95199999958277,226.18791117239743 92.43999999947846,226.18791117239743 90.71199999935925,226.68599610379897 86.60799999907613,224.94269840791821 86.60799999907613,225.4407835889142 84.87999999988824,224.94269840791821 82.71999999973923,224.69365577958524 81.42399999964982,224.69365577958524 80.77599999960512,224.44461312750354 75.59199999924749,223.69748501991853 70.83999999985099,222.95035668741912 68.46399999968708,222.4522710076999 63.49600000027567,220.95801336946897 59.82399999909103,221.45609934884124 58.74399999901652,221.70514230104163 57.87999999988824,221.70514230104163 55.93599999975413,221.45609934884124 50.7519999993965,221.20705637219362 47.080000000074506,221.45609934884124 48.15999999921769,221.20705637219362 50.536000000312924,221.45609934884124 51.83199999947101,221.45609934884124 52.911999999545515,221.20705637219362 54.42399999964982,221.45609934884124 55.93599999975413,221.45609934884124 59.60800000000745,221.45609934884124 60.90400000009686,221.45609934884124 62.41599999926984,221.45609934884124 64.14400000032037,221.45609934884124 69.97599999979138,222.70131386001594 73.2160000000149,223.19939948921092 74.51200000010431,223.19939948921092 75.80799999926239,223.19939948921092 77.10400000028312,223.69748501991853 80.34399999957532,223.94652774720453 82.07199999969453,224.19557044957764 85.09599999897182,224.69365577958524 86.60799999907613,224.94269840791821 89.63199999928474,225.19174101087265 93.51999999955297,224.69365577958524 94.81599999964237,224.94269840791821 96.32799999881536,224.94269840791821 101.51199999917299,226.68599610379897 102.80799999926239,227.18408093531616 105.61599999852479,227.18408093531616 109.7199999988079,227.93120799516328 113.60799999907613,227.68216566648334 116.84799999929965,227.43312331358902 118.57599999848753,227.18408093531616 119.87199999950826,227.43312331358902 121.38399999868125,227.43312331358902 124.19199999887496,227.43312331358902 125.9199999999255,228.18025029846467 126.56799999903888,228.18025029846467 128.7280000001192,228.67833483126014 130.67200000025332,229.4254614424426 135.42399999964982,229.92354572447948 138.23199999891222,229.92354572447948 138.23199999891222,228.67833483126014 136.2879999987781,228.9273770598229 134.12799999956042,229.4254614424426 129.8079999992624,228.9273770598229 128.7280000001192,229.17641926300712 127.43199999909848,228.9273770598229 123.32799999881536,228.42929257731885 121.59999999962747,228.67833483126014 119.00799999851733,228.67833483126014 118.36000000033528,228.18025029846467 117.27999999932945,228.18025029846467 115.98399999924004,227.93120799516328 114.68799999915063,227.43312331358902 111.23199999891222,226.4369536503218 107.77599999960512,226.4369536503218 106.69599999953061,226.4369536503218 105.3999999994412,226.18791117239743 104.1039999993518,226.18791117239743 100.21599999908358,225.68982614134438 98.7039999999106,225.4407835889142 96.32799999881536,225.68982614134438 94.81599999964237,225.4407835889142 88.12000000011176,223.19939948921092 86.82400000002235,222.4522710076999 84.87999999988824,221.45609934884124 81.20799999963492,221.20705637219362 79.48000000044703,220.70897034322843 77.3199999993667,220.21088421507739 73.43199999909848,220.21088421507739 72.5679999999702,220.45992729160935 71.48799999989569,220.95801336946897 67.59999999962747,221.45609934884124 67.16799999959767,221.45609934884124 67.16799999959767,220.95801336946897 66.73599999863654,221.20705637219362 64.57599999941885,221.9541852287948 63.27999999932945,221.9541852287948 59.39199999906123,221.9541852287948 52.04799999948591,220.21088421507739 48.80799999926239,220.21088421507739 52.04799999948591,221.70514230104163 58.95999999996275,221.45609934884124 60.256000000052154,221.70514230104163 61.98399999924004,222.4522710076999 65.22399999946356,223.69748501991853 68.46399999968708,224.19557044957764 69.7600000007078,224.44461312750354 70.83999999985099,224.69365577958524 72.5679999999702,224.69365577958524 80.34399999957532,225.68982614134438 81.20799999963492,225.68982614134438 82.71999999973923,225.93886866909452 84.87999999988824,225.93886866909452 88.76799999922514,226.68599610379897 92.22399999946356,226.68599610379897 93.95199999958277,227.18408093531616 95.67999999970198,227.18408093531616 97.62399999890476,227.43312331358902 99.56799999903888,227.68216566648334 100.6480000000447,228.18025029846467 102.15999999921769,228.42929257731885 103.671999999322,228.67833483126014 107.9919999986887,229.17641926300712 109.7199999988079,229.17641926300712 112.95999999996275,228.67833483126014 113.60799999907613,228.18025029846467 116.41600000020117,228.18025029846467 120.51999999955297,228.67833483126014 122.46399999968708,228.42929257731885 124.62399999983609,229.17641926300712 125.7039999999106,229.4254614424426 127.43199999909848,229.17641926300712 128.51199999917299,229.17641926300712 133.0479999994859,229.4254614424426 137.36799999978393,230.67067196173593 139.95999999903142,229.17641926300712 137.7999999988824,228.67833483126014 137.58399999979883,228.42929257731885 137.1519999988377,228.18025029846467 135.42399999964982,228.18025029846467 133.9119999986142,228.42929257731885 129.3760000001639,228.18025029846467 127.21599999908358,228.18025029846467 125.48799999896437,228.18025029846467 121.81599999964237,227.93120799516328 120.30399999953806,228.18025029846467 118.79199999943376,228.18025029846467 117.27999999932945,228.18025029846467 115.76799999922514,226.93503853236325 114.68799999915063,225.93886866909452 111.87999999895692,224.94269840791821 109.7199999988079,224.69365577958524 107.9919999986887,224.44461312750354 103.0239999992773,224.19557044957764 101.72799999918789,224.44461312750354 100.21599999908358,224.44461312750354 97.40799999982119,224.94269840791821 95.89599999971688,224.69365577958524 94.38399999961257,224.69365577958524 91.35999999847263,223.94652774720453 90.92799999937415,224.44461312750354 90.49599999934435,224.19557044957764 88.12000000011176,223.69748501991853 87.03999999910593,223.69748501991853 85.31199999898672,223.94652774720453 82.50399999972433,223.44844226702116 80.99199999962002,223.19939948921092 77.10400000028312,222.70131386001594 76.2399999992922,222.95035668741912 74.72800000011921,222.70131386001594 72.7839999999851,222.2032281307038 69.7600000007078,221.70514230104163 66.73599999863654,220.95801336946897 64.57599999941885,221.45609934884124 63.27999999932945,221.70514230104163 62.41599999926984,221.9541852287948 60.687999999150634,221.70514230104163 56.80000000074506,220.95801336946897 51.18400000035763,219.96184111316688 49.671999999322,219.96184111316688 49.023999999277294,219.96184111316688 50.536000000312924,221.45609934884124 52.69599999953061,222.2032281307038 57.015999998897314,222.4522710076999 58.74399999901652,222.70131386001594 61.119999999180436,222.4522710076999 62.631999999284744,222.2032281307038 63.92799999937415,221.9541852287948 67.16799999959767,222.4522710076999 68.46399999968708,222.70131386001594 69.32799999881536,222.95035668741912 70.19199999980628,222.95035668741912 73.64799999911338,223.44844226702116 75.59199999924749,223.69748501991853 77.10400000028312,223.94652774720453 80.77599999960512,224.44461312750354 82.50399999972433,224.44461312750354 83.79999999888241,224.69365577958524 85.09599999897182,224.94269840791821 87.03999999910593,225.4407835889142 90.92799999937415,225.68982614134438 91.57599999941885,225.4407835889142 92.65599999856204,225.4407835889142 93.73599999956787,225.4407835889142 95.67999999970198,225.4407835889142 98.48799999989569,225.93886866909452 99.7839999999851,225.93886866909452 101.51199999917299,226.18791117239743 105.3999999994412,227.18408093531616 107.12799999956042,228.18025029846467 110.15199999976903,228.67833483126014 111.66399999894202,228.67833483126014 115.11999999918044,228.18025029846467 117.92799999844283,227.93120799516328 119.43999999947846,228.18025029846467 120.73599999956787,228.18025029846467 121.38399999868125,228.18025029846467 121.81599999964237,228.18025029846467 122.89599999878556,228.18025029846467 126.99999999906868,228.18025029846467 128.51199999917299,228.67833483126014 131.1039999993518,228.9273770598229 131.53599999845028,229.17641926300712 132.6159999994561,229.17641926300712 133.9119999986142,229.67450359580107 137.7999999988824,229.67450359580107 139.74399999901652,229.67450359580107 141.2559999981895,228.42929257731885 137.7999999988824,228.9273770598229 134.9919999986887,228.67833483126014 133.6959999995306,228.42929257731885 132.6159999994561,227.93120799516328 129.8079999992624,226.18791117239743 129.59199999831617,225.19174101087265 129.3760000001639,224.19557044957764 128.51199999917299,220.70897034322843 128.9439999992028,219.71279798611067 128.9439999992028,218.46758197876625 129.1599999992177,216.9733219470363 131.7519999993965,209.7510524643585 131.9679999994114,205.2682539585512 131.9679999994114,202.77780685108155 132.1839999994263,201.0344923918601 132.3999999994412,198.29499577218667 133.2639999995008,195.0574049667921 133.4799999995157,191.57076399866492 133.4799999995157,189.32934936624952 133.6959999995306,188.08411814179271 131.53599999845028,190.57457996695302 131.53599999845028,191.81980994460173 131.32000000029802,193.31408509379253 130.88799999840558,195.30645056278445 130.0239999992773,198.54404104454443 130.0239999992773,200.28735724976286 129.8079999992624,203.02685167407617 129.3760000001639,203.27589647239074 130.23999999836087,204.7701647367794 130.0239999992773,206.76252102502622 128.9439999992028,212.9886241366621 128.9439999992028,215.4790610165801 128.9439999992028,216.47523506940342 128.29599999822676,217.22236534790136 127.43199999909848,219.71279798611067 126.56799999903888,222.95035668741912 126.56799999903888,224.19557044957764 125.05599999893457,227.68216566648334 124.19199999887496,227.93120799516328 122.67999999877065,228.18025029846467 118.79199999943376,229.67450359580107 112.31199999991804,224.94269840791821 111.44799999985844,224.69365577958524 110.36799999978393,224.69365577958524 109.07199999969453,224.44461312750354 108.20799999963492,224.19557044957764 104.5359999993816,223.69748501991853 102.15999999921769,223.19939948921092 98.27199999894947,223.19939948921092 95.89599999971688,223.69748501991853 94.38399999961257,223.94652774720453 93.08800000045449,224.44461312750354 91.57599999941885,224.69365577958524 88.33600000012666,224.69365577958524 82.2879999987781,226.18791117239743 81.6399999987334,225.4407835889142 80.99199999962002,224.69365577958524 76.2399999992922,225.19174101087265 71.05599999893457,224.94269840791821 67.59999999962747,220.21088421507739 65.44000000040978,220.95801336946897 64.79199999943376,221.45609934884124 56.36799999885261,223.19939948921092 50.3199999993667,219.21471165772527 50.3199999993667,220.95801336946897 52.47999999951571,221.70514230104163 53.99199999962002,222.4522710076999 55.50399999972433,223.19939948921092 57.23199999984354,223.69748501991853 60.90400000009686,224.44461312750354 62.41599999926984,224.19557044957764 63.49600000027567,224.19557044957764 64.79199999943376,224.19557044957764 66.51999999955297,223.94652774720453 69.7600000007078,224.19557044957764 71.05599999893457,224.19557044957764 72.35199999902397,224.19557044957764 75.37600000016391,224.69365577958524 77.3199999993667,224.69365577958524 79.26399999950081,224.69365577958524 81.20799999963492,224.69365577958524 84.66399999894202,224.69365577958524 86.17599999997765,224.69365577958524 87.47200000006706,224.69365577958524 89.63199999928474,225.19174101087265 90.27999999932945,225.4407835889142 91.57599999941885,225.68982614134438 92.87199999950826,225.68982614134438 95.03199999965727,225.68982614134438 98.05599999893457,226.18791117239743 99.56799999903888,226.18791117239743 100.86399999912828,226.18791117239743 103.4559999993071,226.93503853236325 104.75200000032783,226.93503853236325 106.04799999855459,226.93503853236325 107.34399999957532,227.18408093531616 111.23199999891222,227.18408093531616 113.17599999904633,227.18408093531616 115.55199999921024,227.18408093531616 120.73599999956787,228.18025029846467 121.81599999964237,228.18025029846467 123.97599999979138,228.18025029846467 126.13599999900907,228.18025029846467 128.7280000001192,228.42929257731885 130.23999999836087,228.67833483126014 130.88799999840558,228.9273770598229 131.9679999994114,228.9273770598229 132.6159999994561,228.9273770598229 133.2639999995008,229.17641926300712 136.0719999987632,229.92354572447948 137.36799999978393,230.17258782871068 140.60799999907613,228.42929257731885 138.87999999895692,228.18025029846467 137.58399999979883,228.18025029846467 136.503999998793,228.42929257731885 135.2079999987036,228.18025029846467 133.9119999986142,227.93120799516328 130.88799999840558,225.19174101087265 131.1039999993518,220.21088421507739 131.1039999993518,218.9656684563961 131.53599999845028,215.2300174413249 131.53599999845028,213.4867117132526 131.7519999993965,211.74340476165526 131.9679999994114,208.2567871939391 132.831999999471,208.5058314683847 134.12799999956042,209.00391994137317 135.2079999987036,209.2529641406145 139.31199999898672,209.7510524643585 141.90399999916553,210.2491406891495 142.76799999922514,210.2491406891495 144.28000000026077,210.49818476336077 147.73599999956787,210.74722881265916 148.81599999871105,208.00774289434776 149.67999999970198,205.51729853171855 150.54399999883026,204.27207541489042 152.48799999896437,201.53258236241527 152.91999999806285,200.53640232188627 154.0,198.29499577218667 153.78399999905378,197.04976903810166 149.89599999878556,192.56694763153791 147.08799999952316,192.8159934768919 146.00799999944866,192.8159934768919 143.63199999928474,192.8159934768919 142.11999999918044,192.8159934768919 140.39199999906123,192.56694763153791 138.66399999987334,192.56694763153791 133.4799999995157,194.55931369867176 132.831999999471,196.30263269809075 132.831999999471,197.29881443455815 132.831999999471,199.04213151312433 131.7519999993965,199.54022188228555 129.8079999992624,205.0192093597725 130.4559999993071,209.2529641406145 129.3760000001639,212.9886241366621 128.9439999992028,215.97714809235185 128.9439999992028,217.22236534790136 128.29599999822676,219.96184111316688 127.86399999912828,220.45992729160935 127.43199999909848,221.70514230104163 126.99999999906868,223.94652774720453 124.62399999983609,226.93503853236325 122.03199999965727,227.18408093531616 120.95199999865144,227.18408093531616 119.00799999851733,226.68599610379897 116.63199999835342,226.4369536503218 112.09599999990314,224.94269840791821 110.58399999886751,224.94269840791821 109.2879999987781,224.69365577958524 108.42399999964982,224.19557044957764 107.12799999956042,223.94652774720453 105.83199999947101,223.94652774720453 102.15999999921769,223.19939948921092" stroke="#4dd2ff" stroke-linecap="round" stroke-linejoin="round" stroke-width="0.5"><title>2021-06-21 10.0km</title></polyline></svg>