<?xml version="1.0" encoding="utf-8" ?>
<svg baseProfile="full" height="300mm" version="1.1" viewBox="0,0,200,300" width="200mm" xmlns="http://www.w3.org/2000/svg" xmlns:ev="http://www.w3.org/2001/xml-events" xmlns:xlink="http://www.w3.org/1999/xlink"><defs /><rect fill="#222222" height="300" width="200" x="0" y="0" /><text fill="#FFFFFF" style="font-size:12px; font-family:Arial; font-weight:bold;" x="10" y="20">Over 10km Runs</text><text fill="#FFFFFF" style="font-size:4px; font-family:Arial" x="10" y="280">ATHLETE</text><text fill="#FFFFFF" style="font-size:9px; font-family:Arial" x="10" y="290">DuckTyping</text><text fill="#FFFFFF" style="font-size:4px; font-family:Arial" x="65" y="280">SPECIAL TRACKS</text><rect fill="yellow" height="2.6" width="2.6" x="65" y="283" /><text fill="#FFFFFF" style="font-size:3px; font-family:Arial" x="70" y="285.5">Over 20.0 km</text><rect fill="red" height="2.6" width="2.6" x="65" y="287" /><text fill="#FFFFFF" style="font-size:3px; font-family:Arial" x="70" y="289.5">Over 40.0 km</text><text fill="#FFFFFF" style="font-size:4px; font-family:Arial" x="120" y="280">STATISTICS</text><text fill="#FFFFFF" style="font-size:3px; font-family:Arial" x="120" y="285">Number: 7</text><text fill="#FFFFFF" style="font-size:3px; font-family:Arial" x="120" y="290">Weekly: 1.0</text><text fill="#FFFFFF" style="font-size:3px; font-family:Arial" x="141" y="285">Total: 88.2 km</text><text fill="#FFFFFF" style="font-size:3px; font-family:Arial" x="141" y="290">Avg: 12.6 km</text><text fill="#FFFFFF" style="font-size:3px; font-family:Arial" x="167" y="285">Min: 10.0 km</text><text fill="#FFFFFF" style="font-size:3px; font-family:Arial" x="167" y="290">Max: 17.4 km</text><polyline fill="none" points="18.340659340610728,69.49676746613113 19.873626373475417,69.61257754568942 20.76373626361601,69.67048257606803 21.109890109626576,71.81296437379206 21.554945054696873,72.56572624767432 23.285714285681024,71.9866787448409 24.02747252723202,72.392012061493 24.67032967018895,73.49220097187208 27.489010988734663,72.85524976823945 28.379120878875256,73.14477313501993 28.478021977934986,73.43429634772474 28.478021977934986,74.53448315220885 27.043956043664366,74.36076959391357 25.609890109626576,74.53448315220885 22.445054945070297,75.51885893562576 20.56593406572938,76.0979026829009 18.439560439204797,76.61904152884381 17.005494505167007,76.56113723729504 16.758241757983342,75.403050112247 16.16483516455628,72.9710591333569 15.719780219485983,71.46553546580253 15.620879120659083,68.16494978341507 15.373626373475417,67.58589760120958 14.780219780048355,65.32758820679737 14.285714285448194,62.374400252185296 13.939560439437628,60.75303534930572 13.148351648356766,57.278665729856584 13.0,56.00472464837367 13.395604395540431,55.078220171737485 15.719780219485983,55.020313589659054 19.13186813145876,54.38334077951731 19.972527472302318,54.49915407318622 21.357142857043073,54.61496734211687 25.06593406572938,53.97799405804835 26.252747252583504,53.63055377086857 28.576923076529056,53.225206488976255 30.80219780188054,52.70404525473714 32.780219780048355,52.530324732360896 35.20329670305364,51.951255924475845 36.48901098873466,51.198465553403366 37.97252747230232,50.445674141694326 38.76373626361601,50.214045805623755 39.109890109626576,50.61939532903489 40.543956043664366,50.50358121027239 43.115384615026414,49.519160206313245 45.09340659319423,48.82427372026723 48.60439560422674,48.01357169885887 51.22527472511865,47.3765906925546 53.747252747183666,46.79751640377799 57.208791208453476,45.69727355847135 60.07692307676189,44.886566881497856 62.49999999976717,44.01795124524506 64.52747252723202,43.72841239190893 65.21978021971881,44.53912079328438 66.25824175798334,44.53912079328438 66.65384615352377,43.78632017498603 64.08241758216172,43.72841239190893 63.0439560438972,43.96004348696442 61.214285714086145,44.53912079328438 57.70329670305364,45.58145839278586 56.76373626338318,45.813088699535 53.450549450237304,46.85542386042653 49.741758241551,47.66612760606222 47.21978021948598,48.47683014458744 44.6978021976538,48.99799542489927 41.18681318662129,49.98241737112403 40.741758241551,50.38776706694625 44.5989010988269,49.113809863862116 48.50549450539984,48.07147902616998 52.46153846150264,47.02914619311923 56.417582417372614,45.870996260724496 60.37362637347542,44.886566881497856 63.83516483497806,43.8442279517767 64.72527472511865,43.96004348696442 65.51648351619951,44.53912079328438 66.45604395586997,44.42330538126407 66.55494505469687,43.61259680747753 64.18131868098862,43.554689006123226 60.47252747230232,44.133766743470915 57.01098901103251,44.770751543401275 56.02197802159935,44.944474541407544 53.5989010988269,45.98681136482628 52.115384615026414,46.21844149928074 49.49450549436733,46.73960894095944 46.42857142840512,46.85542386042653 45.73626373615116,46.85542386042653 40.445054944837466,50.09823160065571 41.384615384275094,50.156138706137426 43.80769230751321,49.287531476060394 47.26923076924868,48.01357169885887 49.8406593403779,47.60822023561923 53.40109890094027,46.39216403517639 55.72527472511865,45.639365978655405 57.45604395586997,45.349827987665776 59.780219780048355,44.53912079328438 62.00549450516701,44.07585899735568 64.23076923051849,43.26514990639407 65.56593406572938,44.24958221707493 66.70329670305364,44.07585899735568 65.26923076901585,43.67050460272003 62.10439560422674,44.24958221707493 58.93956043943763,45.118197483883705 55.23076923051849,46.16053397487849 52.90659340634011,46.79751640377799 50.582417582161725,47.3765906925546 46.92307692277245,48.41892286052462 43.56043956032954,49.287531476060394 40.79120879084803,50.27195289876545 40.09890109859407,50.50358121027239 41.681318680988625,49.92451024707407 44.846153846010566,48.82427372026723 47.26923076924868,48.47683014458744 50.483516483101994,47.43449808744481 51.32417582394555,46.97123875503894 54.884615384275094,46.16053397487849 56.56593406572938,45.98681136482628 58.39560439554043,45.29192037094617 61.95604395563714,44.365397666115314 64.28021978004836,43.8442279517767 65.61538461525925,44.770751543401275 66.50549450516701,44.48121309035923 66.55494505469687,43.72841239190893 63.73626373615116,43.72841239190893 60.22527472488582,44.828659215476364 56.56593406572938,45.870996260724496 53.153846153756604,46.62379399698693 49.89010988990776,47.66612760606222 47.17032967018895,48.30310827353969 44.648351648123935,48.99799542489927 44.00549450516701,49.40334585349774 42.02747252723202,49.92451024707407 40.39560439554043,50.38776706694625 40.346153846010566,50.04032448894577 41.33516483497806,50.214045805623755 44.648351648123935,49.229624278261326 46.62637362605892,48.53473742248025 49.59340659319423,47.839849680196494 51.818681318545714,47.20286847057287 54.93406593380496,46.21844149928074 58.741758241551,45.349827987665776 61.16483516455628,44.59702849009773 63.884615384507924,43.8442279517767 65.26923076901585,44.53912079328438 66.25824175798334,44.654936180624645 66.65384615352377,43.8442279517767 63.241758241318166,43.902135722571984 59.681318681221455,45.002382195030805 55.87362637347542,46.04471890773857 52.115384615026414,47.08705362514593 49.6428571427241,47.72403497021878 46.62637362605892,48.592644694435876 43.75824175798334,49.171717074059416 41.879120878875256,49.8086959804059 40.69230769225396,50.156138706137426 39.950549450470135,50.09823160065571 40.741758241551,50.27195289876545 42.67032966995612,49.6349745344487 45.48901098896749,48.940088196017314 49.1978021976538,47.89775702584302 52.56043956009671,47.02914619311923 54.63736263709143,46.276349017280154 57.75274725235067,45.639365978655405 61.609890109626576,44.48121309035923 63.884615384507924,43.67050460272003 64.82417582394555,44.07585899735568 66.35714285681024,44.42330538126407 66.65384615352377,43.67050460272003 64.67582417558879,43.554689006123226 60.76923076901585,44.59702849009773 57.01098901103251,45.69727355847135 53.25274725235067,46.73960894095944 51.86813186784275,46.79751640377799 49.049450549297035,47.839849680196494 45.93406593380496,48.82427372026723 42.07692307676189,49.86660311673768 40.39560439554043,50.27195289876545 40.346153846010566,50.61939532903489 42.37362637347542,49.92451024707407 45.58791208756156,48.70845921948785 48.90109890094027,47.66612760606222 51.57142857112922,46.97123875503894 55.181318680988625,45.98681136482628 57.70329670305364,45.523550800804514 59.92857142840512,44.886566881497856 63.19230769202113,43.902135722571984 64.62637362605892,43.96004348696442 66.06043956009671,44.30748994468013 66.75274725235067,43.8442279517767 65.12087912065908,43.554689006123226 63.73626373615116,43.323057738656644 60.67032967018895,44.71284386521438 58.741758241551,44.770751543401275 55.280219780048355,46.16053397487849 52.26373626338318,46.73960894095944 50.978021977702156,47.492405476397835 47.120879120891914,48.47683014458744 43.90659340634011,49.113809863862116 40.69230769225396,50.32985998596996 38.66483516478911,50.50358121027239 38.66483516478911,51.48800043464871 38.417582417372614,52.64613842003746 38.813186812913045,54.2675274615176 39.65384615352377,57.51029106072383 40.39560439554043,60.231881319487 40.93956043943763,62.14277699019294 42.07692307676189,65.96454821486259 43.06593406572938,68.68609622109216 42.96703296666965,69.49676746613113 41.13736263709143,70.19162757293088 39.90109890094027,70.48115235567093 41.08791208779439,70.19162757293088 42.67032966995612,69.67048257606803 42.52197802183218,67.64380284724757 41.53296703263186,64.11157157685375 41.0384615380317,62.8376464805915 39.90109890094027,59.42119628190994 38.912087911972776,55.71519216877641 38.912087911972776,54.38334077951731 39.109890109626576,53.225206488976255 38.86263736221008,51.140558558749035 38.813186812913045,50.32985998596996 40.98901098873466,50.38776706694625 43.313186813145876,49.6349745344487 44.6978021976538,49.229624278261326 45.983516483334824,48.76636647299165 47.615384615026414,48.36101557011716 49.741758241551,47.72403497021878 52.06593406572938,47.08705362514593 54.09340659319423,46.68170147202909 57.80219780188054,45.523550800804514 61.56043956009671,44.59702849009773 64.18131868098862,43.67050460272003 65.26923076901585,44.30748994468013 66.65384615352377,44.07585899735568 66.06043956009671,43.67050460272003 63.53846153826453,43.8442279517767 60.818681318545714,44.53912079328438 57.80219780188054,45.58145839278586 54.48901098873466,46.39216403517639 51.22527472511865,47.20286847057287 47.31868131831288,48.41892286052462 43.85714285704307,49.229624278261326 42.52197802183218,49.577067373436876 40.445054944837466,50.38776706694625 42.62087912065908,49.6349745344487 43.56043956032954,49.229624278261326 46.62637362605892,48.41892286052462 49.148351648123935,47.89775702584302 51.17582417558879,47.20286847057287 52.510989010566846,47.144961050886195 53.5989010988269,46.79751640377799 56.96153846126981,45.870996260724496 59.73076923051849,45.060289842425846 63.0439560438972,43.8442279517767 64.13186813169159,43.72841239190893 64.92307692277245,44.24958221707493 66.25824175798334,44.48121309035923 66.60439560422674,44.133766743470915 65.66483516455628,43.38096556480741 62.49999999976717,43.72841239190893 61.510989010799676,44.01795124524506 60.62087912065908,44.59702849009773 59.33516483497806,44.944474541407544 56.96153846126981,45.40773559815716 53.549450549297035,46.33425652934238 50.582417582161725,47.08705362514593 48.950549450470135,47.318683291377965 45.73626373615116,47.3765906925546 43.75824175798334,48.36101557011716 41.82967032934539,49.287531476060394 40.049450549297035,50.156138706137426 41.582417582161725,50.09823160065571 43.412087911972776,49.519160206313245 45.983516483334824,48.82427372026723 49.2967032964807,47.955664365319535 52.510989010566846,47.144961050886195 55.77472527441569,46.21844149928074 59.13736263709143,45.29192037094617 62.8956043953076,44.133766743470915 64.32967032957822,43.8442279517767 66.01098901079968,44.71284386521438 67.0,44.365397666115314 66.45604395586997,43.67050460272003 64.67582417558879,43.67050460272003 62.49999999976717,44.191674483416136 59.978021977702156,44.770751543401275 57.01098901103251,45.870996260724496 55.03296703286469,46.62379399698693 52.90659340634011,47.02914619311923 49.2967032964807,48.47683014458744 48.50549450539984,48.592644694435876 45.63736263709143,48.88218096119817 42.47252747253515,49.8086959804059 40.79120879084803,50.445674141694326 40.049450549297035,50.61939532903489 41.23626373591833,50.09823160065571 42.27472527441569,49.98241737112403 45.48901098896749,48.99799542489927 48.50549450539984,48.18729366210755 52.06593406572938,47.318683291377965 55.576923076529056,46.10262644448085 58.741758241551,45.118197483883705 62.00549450516701,43.96004348696442 63.1428571427241,43.78632017498603 65.12087912065908,44.133766743470915 66.8516483514104,44.48121309035923 66.70329670305364,43.8442279517767 64.28021978004836,43.61259680747753 60.76923076901585,44.654936180624645 57.45604395586997,45.523550800804514 54.983516483334824,46.16053397487849 51.62087912065908,47.144961050886195 48.950549450470135,48.07147902616998 46.478021977702156,48.47683014458744 44.6978021976538,48.76636647299165 42.67032966995612,49.6349745344487 40.1978021976538,50.38776706694625 42.32417582394555,49.86660311673768 45.4395604392048,48.99799542489927 48.50549450539984,48.129386347252876 50.92857142817229,47.43449808744481 52.95604395563714,46.79751640377799 55.23076923051849,45.98681136482628 58.09890109859407,45.29192037094617 61.16483516455628,44.42330538126407 64.13186813169159,43.323057738656644 65.61538461525925,43.8442279517767 66.60439560422674,43.61259680747753 65.61538461525925,43.43887338467175 64.13186813169159,43.554689006123226 61.06593406572938,44.53912079328438 57.80219780188054,45.523550800804514 56.76373626338318,45.813088699535 53.153846153756604,46.68170147202909 49.79120879084803,47.72403497021878 47.02197802159935,48.129386347252876 45.48901098896749,48.53473742248025 42.96703296666965,49.577067373436876 40.148351648123935,50.38776706694625 41.82967032934539,49.8086959804059 44.00549450516701,49.287531476060394 47.26923076924868,48.47683014458744 50.582417582161725,47.72403497021878 52.75824175798334,46.97123875503894 54.83516483497806,46.39216403517639 57.50549450516701,45.639365978655405 59.82967032934539,44.944474541407544 63.19230769202113,43.8442279517767 64.37912087887526,43.8442279517767 65.02197802183218,43.8442279517767 65.76373626338318,44.48121309035923 66.8516483514104,44.133766743470915 66.70329670305364,43.554689006123226 62.9945054941345,43.78632017498603 59.978021977702156,44.654936180624645 56.813186812913045,45.46564320259495 53.648351647891104,46.62379399698693 51.07692307676189,47.318683291377965 48.40659340634011,48.18729366210755 45.53846153826453,48.76636647299165 44.252747252583504,49.345438667805865 40.445054944837466,50.32985998596996 40.09890109859407,50.73520942335017 41.08791208779439,50.27195289876545 43.16483516455628,49.46125303290319 44.05494505446404,49.46125303290319 46.280219780048355,48.65055196004687 48.35714285704307,48.129386347252876 49.79120879084803,47.955664365319535 51.62087912065908,47.26077588414773 53.8956043953076,46.97123875503894 54.68681318662129,46.56588651583297 56.615384615026414,45.870996260724496 58.049450549064204,45.58145839278586 61.313186812913045,44.53912079328438 64.52747252723202,43.67050460272003 65.17032966995612,44.30748994468013 66.06043956009671,44.48121309035923 67.0,44.07585899735568 66.80219780188054,43.554689006123226 63.68681318662129,43.72841239190893 60.71978021948598,44.59702849009773 57.40659340657294,45.40773559815716 54.09340659319423,46.4500715348986 50.681318680988625,47.43449808744481 48.55494505469687,47.955664365319535 46.03296703263186,48.47683014458744 46.181318680988625,48.53473742248025" stroke="#4DD2FF" stroke-linecap="round" stroke-linejoin="round" stroke-width="0.5"><title>2024-12-28 17.4km</title><desc>9223370301500968999</desc></polyline><polyline fill="none" points="142.24899184866808,44.64226407917158 142.58635030430742,44.64226407917158 142.90386414492968,45.432335374629474 143.04277645016555,45.78089533226739 143.81671643664595,45.75765801900707 144.11438566225115,46.175929278862895 145.00739333883394,46.036505614509224 145.44397486979142,45.8970818612288 145.74164409539662,46.36182735952025 144.9280148788821,46.75686025596224 143.5984256712254,47.12865527094982 142.1894580036169,47.616635268190294 141.43536263215356,47.709583715652116 141.43536263215356,48.290510616105166 141.03847033146303,48.42993284248223 141.01862571644597,49.24322739003401 141.25676109688357,50.12622947212367 141.39567340211943,51.21835869125789 141.59411955240648,52.03164286243555 141.85209954797756,53.4026007574721 142.05054569838103,54.680604609748116 142.34821492386982,55.95860098931007 142.64588414947502,57.51542284656898 142.9435533749638,59.02576181238692 143.00308722013142,59.165177190778195 143.24122260056902,60.21078969439259 143.57858105632477,61.58169628768519 143.836561051663,62.78994581771258 144.11438566225115,64.09113015033654 144.45174411789048,65.48524762596935 144.78910257352982,67.06523668319278 145.08677179913502,68.57550966563576 145.16615025920328,69.34225964797952 145.5035087148426,70.80604760085407 145.84086717048194,72.40923268414917 146.23775947128888,73.87300010105537 146.57511792692821,75.42969437788997 146.872787152417,76.87020756551647 147.1903009931557,78.40364665801462 147.48797021864448,79.79767286354036 147.78563944424968,81.21492372726789 147.84517328930087,81.609893642526 147.90470713446848,82.19073045696132 148.16268712992314,83.53826592402766 148.301599435159,84.04939789416676 148.81755942618474,84.00293140079884 149.15491788182408,84.04939789416676 149.57165479764808,84.23526376887457 150.5043517043814,84.09586437772668 151.29813630587887,83.9796981504478 152.80632704868913,83.77059878589353 153.81840241560712,83.56149922136683 154.5526531720534,83.491799322117 156.06084391486365,83.21299950276443 157.25152081716806,83.09683280646277 157.72779157804325,82.93419932796678 158.85893463518005,82.7947991072142 159.21613770583645,82.60893200800638 160.46634845319204,82.58569860944408 161.1410653644707,82.46953157988901 162.3515868819086,82.28366420409293 163.2842837885255,82.23719733553298 163.80024377955124,82.02809630446427 164.63371761108283,81.7957615910127 165.7251714381855,81.7725281061139 167.2135175660951,81.33109142343164 168.36450523813255,80.81995309844206 169.01937753451057,80.40174812560144 169.7139390608063,80.09971070318716 170.38865597196855,79.51886833347089 170.76570365775842,79.1238946407102 171.59917748940643,78.31071126159804 172.69063131639268,77.21871739460039 173.08752361719962,76.8469735571125 173.623328223126,76.98637757028337 174.04006513895,76.63786737076589 174.33773436455522,76.8469735571125 174.8735389704816,78.24100968839775 175.44903280655853,79.61180321633583 176.04437125776894,81.00582171852875 176.5404866336612,82.07456321752397 177.076291239704,83.58473251615942 177.21520354493987,84.142330851304 177.63194046076387,85.14135764537787 177.87007584120147,86.11714685156767 178.24712352699134,87.0 178.3860358321108,86.86060237142374 179.06075274338946,86.44240895255643 178.78292813291773,85.62925279285992 178.60432659764774,85.02519197370566 178.28681275702547,84.07263113716908 177.77085276599973,82.81803248351207 177.4334943103604,81.9583959163574 177.0167573946528,80.79671950983175 176.7190881690476,80.00677602767246 176.44126355845947,79.30976470265887 176.064215872786,78.10160647524754 175.5879451119108,76.89344157137384 175.23074204125442,75.77820650338253 174.83384974044748,74.40738893808157 174.51633589994162,73.547719299866 173.9805312937824,72.36276371673739 173.7622405284783,71.54955518832139 173.60348360810895,70.78281294801855 173.30581438250374,70.1787111069425 173.04783438704908,69.17961593708606 172.65094208635855,68.34316065521853 172.7303205464268,67.57640716851165 172.47234055097215,67.20464693410031 172.0357590202475,66.53082989781979 171.99606979009695,66.5075947905716 171.8373128697276,66.27524358210212 171.57933287427295,65.53171805529564 171.46026518405415,64.95083697789232 171.16259595856536,64.11436551441147 170.58710212237202,62.78994581771258 170.22989905171562,61.46551809624361 170.03145290142857,60.93109762041422 169.63456060062163,59.95519598874671 169.09875599457882,58.514571330772014 168.80108676909003,57.724547325851745 168.74155292392243,56.93452046533639 168.2851267780643,55.65652979216247 167.9279237074079,54.541186370785 167.43180833139922,53.3561277492845 167.2135175660951,52.38019229500787 166.93569295550697,51.543672722938936 166.8563144953223,50.451545129399165 166.89600372547284,49.98680832788523 166.28082065924536,49.21999044499535 166.16175296902657,47.98842882056488 166.0228406637907,47.012469396722736 166.06252989382483,46.12945473389118 166.0228406637907,45.26967387084733 166.10221912397537,44.4331270816765 166.00299604865722,44.10780246547074 165.82439451338723,42.80649915794493 165.82439451338723,41.900229776932974 165.70532682316843,40.64538904468645 165.50688067276496,40.34329668112332 165.46719144273084,39.5299690112588 165.58625913294964,38.065971576899756 165.82439451338723,36.764632290112786 166.06252989382483,36.13719807918824 166.83646988018882,34.905562722167815 166.95553757052403,34.48726988963608 166.75709142023697,34.02249913655396 166.36019911943004,33.60420461355534 165.62594836298376,33.0 165.34812375251204,33.30210251561948 164.9512314517051,33.278863875355455 164.31620377057698,33.32534115340968 163.95900069980416,33.25562523269036 163.44304070877843,33.46477292793861 162.94692533288617,34.04573769765557 162.47065457201097,34.440792858818895 161.93484996596817,34.51050840130483 161.10137613443658,34.30136170706828 159.69240846682806,34.48726988963608 158.38266387430485,34.78937034901173 157.03323005174752,35.18442416565085 155.90208699461073,35.533000469600665 154.57249778707046,35.92805294178834 153.67949011037126,36.18367474914703 152.44912397803273,36.485772863190505 151.11953477049246,36.8575853532966 150.48450708936434,37.066729601006955 150.94093323510606,36.927300124792964 152.19114398246165,36.57872604505974 153.58026703516953,36.25338973564794 154.53280855703633,36.04424470954109 155.58457315398846,35.62595405672619 156.51727006072178,35.37033159697603 157.88654849829618,35.04499348842364 159.05738078558352,34.719654895423446 160.0099223073339,34.347838767498615 160.36712537810672,34.37107729399577 160.84339613898192,34.766131866927026 161.2005992096383,34.51050840130483 161.06168690440245,34.30136170706828 159.7122530817287,34.417554339699564 158.7597115599783,34.766131866927026 157.62856850284152,35.04499348842364 156.2791346802842,35.463285253266804 154.9098562427098,35.83509948322899 154.0168485660106,36.13719807918824 153.10399627429433,36.25338973564794 151.85378552682232,36.67167918734776 150.54404093453195,36.997014873995795 151.0401563103078,36.880823612969834 152.03238706220873,36.555487753328634 152.6475701284362,36.46253456157865 153.46119934495073,36.206913080473896 154.5526531720534,35.99776800988184 155.52503930893727,35.74214598504477 156.41804698552005,35.463285253266804 157.07291928178165,35.39357001479948 157.90639311331324,35.16118572559208 158.2239069539355,34.998516576204565 158.8986238653306,34.74289338244125 159.73209769686218,34.417554339699564 160.36712537810672,34.417554339699564 160.88308536913246,34.719654895423446 161.2005992096383,34.626700922774035 161.16090997960418,34.347838767498615 160.34728076297324,34.27812317307689 159.57334077660926,34.440792858818895 158.70017771492712,34.74289338244125 157.41027773742098,35.13794728310313 156.21960083511658,35.463285253266804 155.04876854794566,35.858337851575925 154.0763824111782,36.1604364154191 153.34213165473193,36.23015140926873 152.36974551784806,36.509011162415845 152.09192090737633,36.57872604505974 151.11953477049246,36.8343470912223 149.86932402313687,36.97377662670624 149.92885786830448,37.41530290225637 149.71056710288394,37.88006643902918 149.94870248332154,38.60044796751754 150.325750168995,40.04120389994932" stroke="#4DD2FF" stroke-linecap="round" stroke-linejoin="round" stroke-width="0.5"><title>2024-09-21 10.0km</title><desc>9223370309945626422</desc></polyline><polyline fill="none" points="22.36330275190994,135.14125724695623 21.57064220169559,135.31528932362562 20.92660550447181,135.60534266137984 17.904587155906484,136.64953340031207 17.508256880566478,136.64953340031207 17.2605504586827,136.3594806175679 16.765137614449486,134.50313915754668 16.5669724768959,132.8208242537803 16.31926605477929,132.1246924311854 15.377981651341543,127.42577939637704 14.932110091438517,125.9754894223297 14.783486238215119,124.8732664634008 14.436697247438133,123.71302936406573 14.288073394447565,122.0306811874616 13.990825688000768,120.17429097142303 13.099082568660378,116.75155495019862 13.0,116.17142807261553 13.198165137553588,115.88136440247763 13.990825688000768,115.64931335509755 14.882568807108328,115.59130057791481 16.51743119256571,115.24322378501529 17.2605504586827,115.0111724663875 18.499082568800077,114.19899207376875 18.944954128470272,114.02495326095959 19.688073394121602,113.90892735490343 20.629357798025012,114.25700499926461 22.115596330026165,114.25700499926461 24.988990825600922,113.6188624817878 27.069724770495668,113.38681047217688 27.961467889836058,113.03873227257282 30.28990825684741,112.51661455701105 31.924770642304793,112.40058833023068 33.80733944941312,112.05250950146001 35.987155963201076,111.4143644052674 37.027522935764864,110.54416534374468 38.11743119265884,110.1960853303899 40.445871559903026,110.48615202365909 42.179816513555124,109.84800509514753 43.56697247712873,109.5579380627023 44.60733944945969,109.09383048990276 47.97614678903483,108.10760058683809 50.25504587148316,107.7595190188149 51.39449541294016,107.17938257852802 52.33577981637791,106.88931412721286 54.2183486239519,106.71527298208093 55.85321100917645,105.96109404595336 59.1724770644214,105.26492794853402 63.53211009176448,103.98862112918869 64.37431192677468,103.814579058846 65.46422018366866,104.45273304532748 65.86055045877583,104.56876096263295 66.40550458733924,104.33670510334196 66.8513761467766,103.87259308842476 66.80183486244641,103.64053693285678 66.35596330277622,103.40848067874322 64.52293577999808,103.35046659968793 61.10458715585992,104.45273304532748 60.26238532108255,104.85883064800873 56.44770642207004,105.78705260489369 55.06055045872927,106.42520428390708 54.0697247707285,106.54123178182635 52.33577981637791,107.12136890063994 51.54311926616356,107.12136890063994 47.72844036691822,108.28164128749631 46.440366972470656,108.45568193279905 44.55779816489667,109.15184395812685 43.071559633128345,109.49992463761009 41.238532109884545,110.25409868144197 40.19816513755359,110.25409868144197 40.396330275340006,110.42813869740348 40.79266055044718,110.37012536491966 42.229357798118144,109.73197830066783 45.598165137693286,108.74574955116259 46.440366972470656,108.51369546871865 48.71926605515182,108.28164128749631 51.691743119386956,107.35342357546324 52.583486238727346,106.83130041830009 54.11926605505869,106.54123178182635 57.933944954071194,105.6130111082457 58.825688073411584,105.26492794853402 59.42018348630518,105.20691406691913 60.510091742966324,104.80081672332017 62.244036697316915,104.39471907744883 64.67155963322148,103.87259308842476 65.36513761477545,104.51074700709432 66.15779816522263,104.68478885531658 66.7027522935532,104.51074700709432 66.95045871566981,104.04663514019921 66.8513761467766,103.814579058846 66.40550458733924,103.64053693285678 63.928440366871655,103.58252287865616 63.036697247764096,103.64053693285678 59.519266055198386,104.97485847916687 55.95229357806966,105.7290387788089 54.76330275228247,106.19314921431942 51.642201834823936,107.00534152617911 49.066055045928806,107.93355983047513 47.381651376141235,108.33965484198416 45.647706422023475,108.57170899852645 44.16146788978949,108.97780353494454 41.68440366955474,109.90601848304505 40.74311926588416,110.13807197334245 40.2972477064468,110.42813869740348 40.94128440367058,110.3121120261494 41.93211009167135,109.90601848304505 43.022018348565325,109.73197830066783 43.864220183342695,109.26787087606499 45.10275229346007,108.86177655553911 50.998165137832984,107.52746451675193 52.88073394494131,106.77328670327552 54.515596330398694,106.65725925483275 55.65504587162286,106.13513543159934 57.24036697275005,105.9030802383204 60.26238532108255,104.80081672332017 61.64954128442332,104.51074700709432 62.83853211021051,104.10464914509794 64.52293577999808,103.814579058846 65.41467889910564,104.27869112294866 66.05871559632942,104.39471907744883 66.4550458714366,104.16266314394306 66.65321100922301,103.75656502292259 66.60366972466,103.58252287865616 66.35596330277622,103.46649475145387 64.42385321110487,103.58252287865616 61.79816513764672,104.04663514019921 60.26238532108255,104.85883064800873 59.27155963308178,104.97485847916687 52.583486238727346,107.06335521646542 51.09724770649336,107.29540991608519 50.056880733929574,107.81753262883285 47.77798165148124,108.22362772666384 43.4183486236725,109.44191120652249 40.544954128563404,110.42813869740348 42.47706422023475,109.73197830066783 43.46788990823552,109.44191120652249 44.4091743119061,108.97780353494454 45.89541284390725,108.80376305646496 48.322935779811814,108.10760058683809 49.71009174315259,107.93355983047513 51.592660550260916,107.12136890063994 52.73211009148508,106.88931412721286 53.623853211058304,106.54123178182635 55.75412844028324,106.19314921431942 58.92477064230479,105.14890017930884 61.20366972475313,104.85883064800873 62.987155963433906,103.98862112918869 63.58165137586184,103.814579058846 64.37431192677468,103.69855098094558 65.31559633021243,104.22067713661818 66.20733944955282,104.39471907744883 66.5541284403298,104.39471907744883 66.75229357788339,104.16266314394306 66.75229357788339,103.814579058846 66.40550458733924,103.64053693285678 64.07706422009505,103.46649475145387 62.7394495413173,103.814579058846 60.06422018352896,104.74280279246159 51.98899082583375,106.9473278298392 50.155963302822784,107.64349178015254 45.647706422023475,108.51369546871865 44.26055045844987,109.20985742012272 41.68440366955474,110.08005861006677 40.24770642211661,110.3121120261494 40.79266055044718,110.42813869740348 42.27889908244833,109.73197830066783 43.17064220178872,109.5579380627023 44.26055045844987,109.15184395812685 46.440366972470656,108.57170899852645 47.87706422014162,108.33965484198416 49.066055045928806,107.93355983047513 52.18715596315451,107.29540991608519 53.425688073504716,107.17938257852802 55.85321100917645,106.25116299104411 60.01467889919877,105.0328723853454 62.04587155976333,104.62677491211798 63.58165137586184,103.98862112918869 64.52293577999808,103.93060711200815 65.46422018366866,104.51074700709432 66.05871559632942,104.68478885531658 66.4550458714366,104.62677491211798 66.75229357788339,104.27869112294866 66.80183486244641,103.75656502292259 66.25688073411584,103.46649475145387 64.32477064221166,103.46649475145387 61.64954128442332,104.22067713661818 60.65871559618972,104.68478885531658 59.86605504597537,104.74280279246159 53.9211009175051,106.48321803595172 53.12844036682509,106.83130041830009 51.24587155971676,107.23739625036251 49.51192660536617,107.87554623285541 45.05321100912988,108.86177655553911 43.814678898779675,109.26787087606499 40.346788990776986,110.1960853303899 40.99082568800077,110.1960853303899 44.16146788978949,109.03581701562507 46.24220183468424,108.86177655553911 47.92660550447181,108.22362772666384 50.25504587148316,107.7595190188149 51.98899082583375,107.17938257852802 54.0697247707285,106.83130041830009 55.60550458705984,106.13513543159934 57.091743119293824,105.96109404595336 59.86605504597537,104.97485847916687 61.451376146869734,104.74280279246159 63.82935779821128,103.814579058846 64.52293577999808,103.814579058846 66.0091743117664,104.45273304532748 66.40550458733924,104.33670510334196 66.8513761467766,103.93060711200815 66.75229357788339,103.75656502292259 66.40550458733924,103.58252287865616 64.96880733966827,103.46649475145387 61.84770642220974,103.98862112918869 60.11376146785915,104.74280279246159 56.893577981740236,105.84506642469205 49.51192660536617,107.64349178015254 47.92660550447181,108.16561415983597 45.697247706586495,108.57170899852645 45.00366972456686,108.80376305646496 43.36880733934231,109.20985742012272 40.2972477064468,110.37012536491966 41.08990825689398,110.1960853303899 42.179816513555124,109.67396489414386 43.46788990823552,109.32588432566263 44.31009174301289,109.26787087606499 45.647706422023475,108.80376305646496 47.5302752291318,108.39766839047661 48.42201834870502,108.04958700755378 50.25504587148316,107.81753262883285 51.29541284404695,107.35342357546324 53.32660550461151,107.00534152617911 56.54678899096325,105.9030802383204 61.69908256898634,104.74280279246159 62.49174311943352,104.51074700709432 63.48256880720146,103.93060711200815 64.67155963322148,103.814579058846 65.31559633021243,104.45273304532748 66.10825688065961,104.68478885531658 66.65321100922301,104.56876096263295 66.95045871566981,104.16266314394306 67.0,103.87259308842476 66.7027522935532,103.52450881822733 66.20733944955282,103.46649475145387 64.07706422009505,103.58252287865616 62.78899082588032,103.814579058846 61.84770642220974,104.27869112294866 57.48807339463383,105.55499726376729 53.2275229357183,106.65725925483275 51.88990825670771,107.06335521646542 45.598165137693286,108.62972252239706 44.706422018120065,108.91979004832683 43.7155963301193,109.09383048990276 42.57614678912796,109.61595148150809 40.346788990776986,110.37012536491966 40.79266055044718,110.37012536491966 43.864220183342695,109.26787087606499 46.588990825694054,108.45568193279905 49.36330275214277,107.87554623285541 50.50275229359977,107.52746451675193 51.39449541294016,107.41143722872948 52.484403669601306,106.9473278298392 53.524770642397925,106.77328670327552 58.33027522917837,105.55499726376729 59.3211009176448,105.43896955618402 60.70825688075274,104.85883064800873 62.09541284409352,104.56876096263295 63.33394495397806,104.10464914509794 64.42385321110487,103.93060711200815 65.56330275232904,104.39471907744883 66.25688073411584,104.45273304532748 66.75229357788339,104.22067713661818 66.90091743133962,103.93060711200815 66.8513761467766,103.75656502292259 66.4550458714366,103.64053693285678 65.11743119265884,103.46649475145387 64.57247706432827,103.46649475145387 63.38348623854108,103.69855098094558 61.55045871576294,104.45273304532748 55.01100917439908,106.13513543159934 50.75045871571638,107.41143722872948 48.47155963303521,107.87554623285541 44.06238532112911,109.32588432566263 42.72477064235136,109.5579380627023 41.337614678777754,110.02204524067929 40.2972477064468,109.96403186500538 40.14862385345623,110.08005861006677 40.24770642211661,110.37012536491966 40.59449541289359,110.37012536491966 42.72477064235136,109.73197830066783 44.1119266054593,109.15184395812685 46.04403669736348,108.86177655553911 49.115596330258995,107.99157342198305 50.35412844037637,107.87554623285541 51.44403669727035,107.35342357546324 54.515596330398694,106.59924552141456 55.90275229350664,106.01910784718348 57.091743119293824,105.84506642469205 58.28073394484818,105.3229418239207 60.16330275242217,104.9168445665855 62.64036697242409,103.98862112918869 64.22568807355128,103.64053693285678 64.52293577999808,103.58252287865616 65.16697247698903,104.04663514019921 65.76146788988262,104.27869112294866 66.5541284403298,104.27869112294866 66.95045871566981,103.93060711200815 66.8513761467766,103.69855098094558 66.60366972466,103.64053693285678 65.71192660555243,103.58252287865616 64.27522935788147,103.64053693285678 62.93761467887089,103.814579058846 62.49174311943352,103.93060711200815 61.302752293646336,104.51074700709432 58.13211009162478,105.55499726376729 55.110091743059456,106.36719052575063 53.623853211058304,106.65725925483275 52.03853211016394,107.06335521646542 48.02568807336502,108.45568193279905 45.99449541280046,108.68773603980662 44.755963302683085,109.09383048990276 43.26972477068193,109.38389776909025 42.27889908244833,109.84800509514753 40.544954128563404,110.42813869740348 42.77431192668155,109.73197830066783 44.4091743119061,109.03581701562507 46.93577981647104,108.74574955116259 47.92660550447181,108.28164128749631 49.56146788992919,107.87554623285541 50.40366972470656,107.52746451675193 53.82201834884472,106.83130041830009 54.96146788983606,106.36719052575063 56.54678899096325,106.01910784718348 58.33027522917837,105.38095569319557 62.64036697242409,104.33670510334196 64.32477064221166,103.75656502292259 66.0091743117664,104.39471907744883 66.3064220182132,104.39471907744883 66.7027522935532,104.22067713661818 66.95045871566981,103.87259308842476 66.75229357788339,103.64053693285678 65.71192660555243,103.40848067874322 64.07706422009505,103.64053693285678 62.8880733945407,103.93060711200815 60.31192660564557,104.97485847916687 59.023853211198,105.20691406691913 56.844036697177216,105.96109404595336 55.06055045872927,106.25116299104411 53.72293577995151,106.83130041830009 51.741284403717145,107.35342357546324 49.61100917425938,108.04958700755378 44.50825688079931,109.15184395812685 41.88256880710833,110.13807197334245 40.346788990776986,110.60217865777668 40.495412844000384,110.60217865777668 41.387155963340774,110.02204524067929 43.61651376145892,109.15184395812685 47.18348623858765,108.45568193279905 51.04770642193034,107.41143722872948 52.7816513760481,107.17938257852802 54.416513761505485,106.54123178182635 55.35779816494323,106.30917676136596 56.39816513773985,106.19314921431942 57.884403669741005,105.6130111082457 60.95596330263652,104.74280279246159 62.93761467887089,104.39471907744883 64.27522935788147,103.75656502292259 64.52293577999808,103.814579058846 65.26605504611507,104.33670510334196 66.15779816522263,104.56876096263295 66.7027522935532,104.45273304532748 66.90091743133962,104.10464914509794 66.90091743133962,103.87259308842476 66.50458715599962,103.64053693285678 64.22568807355128,103.58252287865616 61.60000000009313,104.33670510334196 60.01467889919877,105.0328723853454 58.677064220188186,105.3229418239207 57.33944954141043,105.84506642469205 56.59633027529344,106.01910784718348" stroke="#4DD2FF" stroke-linecap="round" stroke-linejoin="round" stroke-width="0.5"><title>2023-11-26 12.7km</title><desc>10282459870</desc></polyline><polyline fill="none" points="146.61904761893675,134.6653133025975 144.0952380951494,135.1113922072691 141.85714285704307,135.3344315175782 139.66666666674428,135.89202937786467 136.47619047621265,136.17082808574196 136.04761904780753,133.88467430596938 135.52380952378735,131.15242866636254 134.95238095219247,128.30864767782623 134.76190476189367,126.52430663455743 134.1428571427241,123.5132173562888 133.57142857136205,121.33853101351997 133.1428571427241,118.88502790185157 133.57142857136205,116.37575148179894 135.28571428568102,116.04118038516026 137.1428571427241,115.37203755154042 139.76190476189367,114.53560780873522 141.90476190461777,114.03374932258157 143.80952380946837,113.58765248733107 146.33333333325572,113.08579309389461 148.47619047621265,112.58393322001211 150.57142857159488,112.19359743065434 153.09523809538223,111.63597437052522 155.33333333325572,111.13411310897209 157.38095238083042,110.68801380664809 160.42857142863795,109.85157659213291 164.14285714295693,109.01513804320712 166.76190476189367,108.51327427342767 168.85714285704307,107.95564729924081 170.90476190461777,107.45378251519287 173.66666666674428,106.61734014138347 175.9047619048506,106.05971115088323 178.8571428572759,104.94445139059098 182.09523809538223,103.94071557821007 184.1904761902988,103.6061365470523 186.61904761893675,104.6098729998921 186.04761904780753,105.83665938855847 182.42857142887078,104.83292528399033 179.61904761893675,105.72513347183121 177.8095238097012,106.11547407659236 175.99999999976717,106.67310300772078 174.14285714295693,107.23073134606238 171.61904761893675,108.06717274140101 169.47619047621265,108.51327427342767 167.8571428572759,109.18242585967528 165.9523809524253,109.62852644285886 163.33333333325572,110.24191412498476 161.23809523833916,110.74377624026965 159.38095238083042,111.30140024953289 159.85714285704307,110.79953866783762 161.52380952378735,110.18615163816139 164.0,109.74005152942846 166.0,109.29395104106516 168.47619047597982,108.56903693813365 171.47619047621265,107.7883590911515 173.9523809524253,107.17496853903867 175.9047619048506,106.61734014138347 178.47619047644548,105.83665938855847 180.42857142840512,105.2232665529009 182.42857142887078,104.721399153932 184.8571428572759,104.83292528399033 184.47619047621265,104.721399153932 182.23809523810633,104.721399153932 180.38095238083042,105.39055557921529 178.47619047644548,106.0039482190623 176.80952380946837,106.50581439066445 174.66666666651145,107.11920572584495 172.9047619048506,107.56530806439696 170.80952380946837,108.2902235549991 168.38095238106325,109.01513804320712 166.47619047621265,109.46123876870843 164.57142857136205,109.96310163120506 162.19047619053163,110.52072647056775 160.42857142863795,110.96682591515128 159.38095238083042,111.24563787522493 160.71428571408615,110.57648892188445 162.76190476166084,110.01886414177716 165.80952380946837,109.51700133259874 167.66666666651145,108.95937542576576 170.42857142863795,108.23446086043259 172.76190476189367,107.5095452927635 174.47619047621265,106.95191725093173 176.33333333348855,106.3385257201735 179.23809523810633,105.4463185762288 181.04761904780753,104.88868834025925 183.14285714295693,104.33105751127005 184.33333333325572,104.6098729998921 182.28571428591385,104.721399153932 180.38095238083042,105.39055557921529 178.61904761893675,105.94818528142059 176.42857142863795,106.50581439066445 174.57142857159488,107.11920572584495 172.23809523810633,107.56530806439696 170.33333333348855,108.12293545372086 168.52380952378735,108.73632489715237 166.09523809538223,109.46123876870843 163.9047619048506,109.74005152942846 161.85714285704307,110.29767660592915 160.0476190475747,110.85530108964304 159.42857142863795,111.13411310897209 161.80952380946837,110.35343908099458 163.52380952378735,109.90733911452116 165.90476190461777,109.34971362294164 168.52380952378735,108.68056225014152 170.23809523810633,108.1786981599871 172.38095238106325,107.5095452927635 174.23809523810633,106.95191725093173 175.8571428572759,106.56157726905076 178.14285714295693,106.0039482190623 180.52380952378735,105.27902956766775 182.66666666674428,104.66563607996795 184.52380952378735,104.66563607996795 183.95238095219247,104.66563607996795 182.0476190475747,104.77716222190065 179.61904761893675,105.33479257649742 177.76190476189367,105.94818528142059 175.8095238097012,106.56157726905076 173.57142857159488,107.45378251519287 171.76190476189367,107.89988456916763 169.42857142840512,108.45751160255168 167.61904761893675,108.95937542576576 165.14285714295693,109.46123876870843 163.0476190475747,110.01886414177716 161.33333333325572,110.52072647056775 159.61904761893675,111.07835071691079 159.85714285704307,111.02258831897052 161.28571428591385,110.46496401337208 162.80952380946837,109.96310163120506 164.42857142863795,109.57276389084291 166.38095238106325,109.34971362294164 168.76190476189367,108.84785017336253 170.8571428572759,108.0114100232604 172.9047619048506,107.34225694241468 175.19047619053163,106.72886586823734 177.52380952378735,106.05971115088323 180.28571428591385,105.55784455221146 182.42857142887078,104.77716222190065 184.71428571431898,104.88868834025925 184.14285714295693,104.77716222190065 182.1428571427241,104.721399153932 180.38095238083042,105.2232665529009 178.19047619053163,105.89242233795812 176.66666666674428,106.39428861631313 174.9047619048506,106.95191725093173 173.38095238083042,107.62107082991861 171.80952380946837,108.34598624345381 169.9047619048506,108.84785017336253 167.2380952378735,109.23818845342612 165.0476190475747,109.51700133259874 163.0952380951494,110.29767660592915 160.61904761893675,110.63225136726396 158.9523809524253,111.41292498010444 160.28571428568102,110.79953866783762 161.76190476189367,110.18615163816139 163.9047619048506,109.96310163120506 166.14285714295693,109.40547619888093 168.04761904734187,108.84785017336253 169.9047619048506,108.23446086043259 172.61904761916958,107.56530806439696 174.9047619048506,106.95191725093173 177.61904761916958,106.11547407659236 179.57142857136205,105.50208156718872 181.23809523810633,104.94445139059098 183.0,104.66563607996795 185.14285714295693,104.94445139059098 183.8571428572759,104.66563607996795 181.66666666674428,104.94445139059098 179.57142857136205,105.61360753135523 177.57142857136205,106.11547407659236 175.52380952378735,106.84039157157531 173.76190476189367,107.45378251519287 172.0476190475747,108.0114100232604 169.9047619048506,108.73632489715237 168.0952380951494,109.34971362294164 165.57142857159488,109.68428898899583 163.80952380946837,110.13038914528443 161.76190476189367,110.57648892188445 159.57142857136205,111.13411310897209 160.0,110.91106350539485 161.90476190461777,110.52072647056775 163.66666666674428,109.90733911452116 166.33333333325572,109.29395104106516 168.28571428568102,108.79208753810963 170.28571428568102,108.12293545372086 172.1428571427241,107.73259634326678 174.0476190475747,107.23073134606238 176.33333333348855,106.39428861631313 178.71428571431898,105.89242233795812 180.80952380946837,105.2232665529009 182.76190476189367,104.721399153932 185.09523809538223,104.83292528399033 183.71428571431898,104.66563607996795 181.0952380951494,104.94445139059098 179.28571428591385,105.61360753135523 177.57142857136205,106.22699991025729 175.19047619053163,106.84039157157531 173.38095238083042,107.5095452927635 171.71428571408615,108.12293545372086 169.33333333325572,108.68056225014152 167.47619047621265,109.23818845342612 165.38095238083042,109.46123876870843 162.80952380946837,110.35343908099458 160.61904761893675,110.74377624026965 159.09523809538223,111.30140024953289 161.47619047597982,110.57648892188445 163.9523809524253,109.85157659213291 165.80952380946837,109.40547619888093 167.61904761893675,108.95937542576576 169.61904761916958,108.34598624345381 171.47619047621265,107.84412183309905 173.71428571431898,107.23073134606238 175.52380952378735,106.7846287228167 177.47619047621265,106.1712369963061 179.76190476189367,105.50208156718872 181.42857142863795,105.00021443492733 183.23809523810633,104.721399153932 185.09523809538223,104.83292528399033 183.9047619048506,104.5541099141119 181.19047619053163,104.83292528399033 179.0476190475747,105.61360753135523 177.28571428568102,106.11547407659236 175.42857142863795,106.72886586823734 173.33333333348855,107.23073134606238 171.00000000023283,107.89988456916763 168.8095238097012,108.56903693813365 166.52380952402018,109.23818845342612 164.28571428568102,109.68428898899583 162.57142857159488,110.18615163816139 160.8571428572759,110.74377624026965 159.28571428568102,111.18987549497979 161.14285714295693,110.57648892188445 163.00000000023283,110.18615163816139 164.66666666651145,109.62852644285886 166.66666666651145,109.01513804320712 168.76190476189367,108.40174892602954 171.23809523810633,107.73259634326678 174.33333333325572,107.06344290677225 176.71428571431898,106.39428861631313 178.9523809524253,105.72513347183121 181.14285714295693,105.00021443492733 182.9047619048506,104.721399153932 184.71428571431898,104.721399153932 183.8571428572759,104.6098729998921 182.33333333325572,104.66563607996795 179.9047619048506,105.39055557921529 178.14285714295693,105.94818528142059 176.19047619053163,106.61734014138347 173.9523809524253,107.007680081937 172.23809523810633,107.56530806439696 170.0952380951494,108.12293545372086 168.33333333348855,108.68056225014152 166.14285714295693,109.29395104106516 164.28571428568102,109.51700133259874 162.14285714295693,110.24191412498476 160.47619047597982,110.74377624026965 159.61904761893675,111.24563787522493 161.80952380946837,110.52072647056775 163.42857142863795,109.90733911452116 165.0952380951494,109.51700133259874 167.42857142863795,108.90361280250363 169.33333333325572,108.40174892602954 171.1428571427241,107.95564729924081 172.9047619048506,107.39801973180147 175.57142857136205,106.7846287228167 177.47619047621265,106.11547407659236 179.8095238097012,105.39055557921529 181.38095238083042,104.88868834025925 183.19047619053163,104.6098729998921 185.09523809538223,104.94445139059098 183.0952380951494,104.6098729998921 181.04761904780753,104.94445139059098 178.42857142863795,105.94818528142059 176.76190476189367,106.50581439066445 174.23809523810633,107.007680081937 172.09523809538223,107.56530806439696 170.19047619053163,108.12293545372086 168.38095238106325,108.62479959713528 166.61904761916958,109.12666326016188 164.61904761916958,109.40547619888093 163.0476190475747,109.90733911452116 160.76190476189367,110.68801380664809 159.1428571427241,111.24563787522493 160.57142857136205,110.74377624026965 162.76190476166084,110.13038914528443 164.76190476189367,109.74005152942846 166.80952380946837,109.01513804320712 169.38095238083042,108.2902235549991 171.47619047621265,107.5095452927635 175.28571428568102,107.06344290677225 177.9523809524253,105.89242233795812 180.23809523810633,105.33479257649742 181.80952380946837,104.77716222190065 184.0,104.6098729998921 184.1904761902988,104.49834682227811 182.23809523810633,104.66563607996795 180.52380952378735,104.94445139059098 178.33333333325572,105.61360753135523 176.90476190461777,106.28276281815488 174.71428571408615,106.7846287228167 172.28571428568102,107.67683358956128 169.57142857136205,108.2902235549991 165.38095238083042,109.12666326016188 163.0952380951494,110.01886414177716 160.52380952378735,110.68801380664809 159.28571428568102,111.24563787522493 160.42857142863795,110.79953866783762 162.09523809538223,110.35343908099458 164.76190476189367,109.51700133259874 166.9523809524253,108.68056225014152 168.90476190461777,108.45751160255168 172.1428571427241,107.62107082991861 174.71428571408615,106.72886586823734 177.28571428568102,105.94818528142059 179.33333333325572,105.50208156718872 181.0,105.05597747344291 182.76190476189367,104.66563607996795 185.19047619053163,104.83292528399033 184.14285714295693,104.6098729998921 182.42857142887078,104.66563607996795 180.23809523810633,105.05597747344291 178.14285714295693,105.83665938855847 176.23809523810633,106.28276281815488 174.66666666651145,106.7846287228167 173.09523809538223,107.28649414732354 171.33333333325572,107.89988456916763 168.85714285704307,108.45751160255168 166.76190476189367,109.01513804320712 164.66666666651145,109.51700133259874 162.80952380946837,110.07462664652849 161.0952380951494,110.46496401337208 159.09523809538223,111.02258831897052 160.52380952378735,110.68801380664809 162.52380952402018,109.96310163120506 165.38095238083042,109.40547619888093 167.71428571431898,108.79208753810963 169.52380952378735,108.1786981599871 171.42857142863795,107.73259634326678 173.42857142840512,107.007680081937 176.19047619053163,106.39428861631313 178.23809523810633,105.89242233795812 180.33333333348855,105.33479257649742 182.61904761893675,104.77716222190065 185.14285714295693,104.94445139059098 184.0,104.6098729998921 181.80952380946837,104.77716222190065 179.23809523810633,105.61360753135523 177.52380952378735,106.0039482190623 175.61904761916958,106.56157726905076 173.85714285704307,107.007680081937 172.09523809538223,107.56530806439696 169.71428571431898,108.12293545372086 167.38095238106325,108.84785017336253 165.61904761893675,109.18242585967528 164.23809523810633,109.68428898899583 162.28571428568102,110.24191412498476 160.66666666674428,110.68801380664809 159.66666666674428,110.96682591515128 161.23809523833916,110.57648892188445 163.0476190475747,109.85157659213291 165.71428571431898,109.12666326016188 167.47619047621265,108.68056225014152 169.23809523810633,108.23446086043259 170.80952380946837,107.73259634326678 172.0476190475747,107.28649414732354 174.52380952402018,106.61734014138347 176.47619047597982,106.22699991025729 178.0952380951494,105.78089643304702 180.19047619053163,105.27902956766775 181.8571428572759,104.721399153932 183.42857142863795,104.5541099141119 185.0476190475747,104.77716222190065 183.66666666651145,104.6098729998921 181.80952380946837,104.721399153932 180.0476190475747,105.27902956766775 178.42857142863795,105.78089643304702 176.71428571431898,106.22699991025729 175.28571428568102,106.61734014138347 173.61904761893675,107.17496853903867 171.8571428572759,107.62107082991861 170.42857142863795,107.95564729924081 169.0,108.45751160255168 167.52380952378735,108.84785017336253 165.61904761893675,109.23818845342612 163.9047619048506,109.79581406380748 162.8571428572759,110.07462664652849 161.33333333325572,110.40920155012282 159.66666666674428,110.96682591515128 160.1904761902988,110.96682591515128" stroke="#4DD2FF" stroke-linecap="round" stroke-linejoin="round" stroke-width="0.5"><title>2023-04-28 16.3km</title><desc>9223370354162539235</desc></polyline><polyline fill="none" points="25.157558303093538,180.074227715726 23.777838370529935,180.22109983523842 22.105450573610142,180.51484393377905 19.638678573304787,181.10233156871982 16.252093284623697,180.46588659693953 16.043044810183346,178.94820657579112 15.541328471153975,177.38156388729112 15.081421826966107,175.17846358762472 14.579705487703905,173.17118524797843 14.119798843748868,171.3597314292565 13.827130979159847,169.00972666588495 13.492653419962153,166.70866871243925 13.199985555373132,164.79927146685077 14.454276403179392,163.3304989664466 15.959425420267507,162.93882550820126 17.71543260687031,162.54715171692078 19.304201014107093,162.30235542799346 20.600301556522027,162.00859970969032 22.021831183927134,161.66588446788955 23.777838370529935,161.32316897111014 25.19936799770221,160.98045321917743 26.53727823542431,160.7356560972985 28.29328542202711,160.44189937924966 30.50919925281778,160.00126395074767 32.097967659821734,159.7075067642145 33.644926371984184,159.2179110366269 35.60998203326017,158.72831478828448 37.031511660665274,158.43455678940518 38.53666067752056,158.1407986030099 39.91638061008416,157.74912072977168 41.08705206797458,157.4064023172832 42.5922010850627,157.06368364949594 44.39001796673983,156.6230449877621 46.062405763426796,156.28032573696692 47.692983865737915,156.03552611591294 49.1981328825932,155.30112647166243 51.288617628626525,154.4688054585422 52.87738603563048,154.0771244612115 54.71701261214912,153.53856254552375 56.891116748098284,153.0489602573507 58.27083668066189,153.09792050969554 60.194082646863535,153.391681913723 61.364754104521126,154.0771244612115 62.15913830813952,154.86048612263403 63.37161946087144,157.30848272397998 63.83152610505931,159.11999182848376 64.50048122368753,160.78461553208763 64.66772000351921,162.79194787560846 64.87676847795956,164.30968115405994 65.08581695263274,166.46387463618885 64.75133939343505,168.2263890792674 63.288000071188435,168.76493381313048 61.23932501999661,169.64618747355416 59.77598569775,170.18473054684 58.0199785111472,170.72327299014432 56.514829494059086,171.01702314830618 54.591583527391776,171.4576480339456 53.211863595061004,171.84931424524984 51.664904882898554,172.24098012314062 50.201565560884774,172.63264566785074 48.98908440792002,173.0243108794093 47.609364475589246,173.41597575778724 46.062405763426796,173.9055563872971 43.84649193286896,174.6888843116467 41.83962657651864,175.22742148654652 39.58190305065364,175.12950568349333 38.87113823695108,173.70972419797909 38.36942189815454,172.28993833437562 37.909515253966674,170.82118973036995 37.533227999694645,168.86285096983192 36.98970196559094,167.3451327010407 36.44617593172006,165.8763683225261 35.90264989761636,164.60343540416216 35.56817233818583,163.2325806330773 35.024646304314956,161.81276245997287 34.69016874511726,160.39293990810984 35.73541111801751,158.9731129774882 36.82246318599209,158.48351646895753 38.16037342348136,158.18975831384887 39.4982836607378,157.89599997139885 41.17067145765759,157.4064023172832 42.71763016982004,157.01472381906933 44.013730712467805,156.52512522778125 45.39345064479858,156.28032573696692 46.77317057712935,155.93760623104754 48.44555837404914,155.49696649122052 49.99251708597876,154.86048612263403 51.53947579814121,154.37088524037972 52.96100542554632,154.02816431302927 54.50796413770877,153.58752274574363 55.88768407003954,153.29376146648428 57.56007186695933,153.0489602573507 59.39969844347797,153.19584099843632 60.69579898589291,153.78336349443998 62.24275769805536,154.81152605789248 63.497048545628786,156.42720544696203 63.580667935544625,158.23871801942005 64.166003664257,160.0502234636515 64.50048122368753,161.56796578067588 64.79314908827655,163.03674390399829 65.00219756294973,164.60343540416216 65.33667512214743,166.0232449712057 65.21124603739008,167.58992630871944 65.29486542707309,169.9888967750303 65.37848481698893,171.75139772359398 65.42029451206326,173.17118524797843 65.62934298673645,174.6888843116467 65.79658176656812,176.0107471619558 65.88020115625113,177.5773945147812 65.96382054593414,178.99716407383676 66.29829810536467,180.51484393377905 66.59096596995369,181.98356161586707 66.75820474955253,183.94184457097435 66.6745853596367,185.36159450534615 66.46553688519634,186.7323833918199 64.9603878678754,188.73960261276807 63.53885824047029,189.42499253802816 62.15913830813952,190.1593377541867 60.98846685048193,190.7957693276694 59.525127528002486,191.33428766435827 57.392833087127656,192.26445421687094 56.138542239554226,192.9008828808146 54.71701261214912,193.4883547128702 53.25367329013534,194.12478168527014 52.04119213717058,194.6632961287687 50.410614035325125,195.34867723679054 48.947274713078514,195.98510163804167 47.609364475589246,196.3277913358179 45.2262118649669,197.11108111595968 44.39001796673983,197.55168103196775 43.17753681377508,198.04123599955346 41.54695871192962,198.77556747521157 40.08361938991584,199.46094246258144 38.82932854210958,199.99945066552027 37.99313464388251,200.34213737602113 36.48798562656157,201.02751003179583 34.94102691439912,201.8107918179303 34.06302332109772,202.20243221140117 32.64149369392544,202.78989217698108 31.38720284635201,203.18153173776227 30.21653138846159,203.573170965421 29.004050235496834,203.91585501638474 27.624330303398892,204.356448421604 25.617464947048575,205.43345274828607 24.530412879073992,206.2167270402424 21.561924539739266,205.9719539672369 21.39468575990759,204.50331279626698 21.060208200709894,203.13257681098185 20.64211125136353,201.8107918179303 20.391253081848845,200.4400478178868 20.098585217492655,198.82452286526677 19.805917352903634,197.40481444011675 19.429630098631606,195.7892788388708 19.053342844592407,194.07582579558948 18.760674980003387,192.65610272964113 18.342578030889854,190.94263802736532 18.091719861375168,189.27812335413182 17.757242301944643,187.613602663856 17.213716268073767,185.94907595647965 16.96285809832625,184.38245708798058 16.46114175952971,181.59190402535023 16.16847389494069,180.1721424672578 15.959425420267507,178.80133405025117 15.583138165995479,177.0878177896957 15.290470301406458,175.66804234293522 14.91418304713443,174.15034650693997 14.579705487703905,172.87743646418676 14.203418233431876,170.96806480162195 13.95256006415002,169.40139495936455 13.743511589476839,167.981595810008 13.576272809877992,166.75762751192087 13.241795250447467,164.84823046944803 13.409034030046314,164.0648858024506 14.579705487703905,164.01592671641265 15.583138165995479,163.8200903206307 17.590003522112966,162.84090709174052 19.3878204037901,162.498192469473 20.72573064127937,162.2044368761417 21.68735362449661,161.9106810952362 22.94164447207004,161.61692512690206 24.572222573915496,161.22525021099136 25.86832311679609,160.93149380528484 27.33166243880987,160.7356560972985 28.58595328661613,160.44189937924966 29.882053829031065,160.09918297131662 31.554441625950858,159.85438538104063 32.85054216836579,159.56062810058938 34.439310575602576,159.16895143521833 35.777220813091844,158.777274436492 36.61341471131891,158.58143581234617 37.909515253966674,158.28767771966523 39.163806101540104,157.89599997139885 40.45990664418787,157.55328166810796 41.881436271592975,157.4064023172832 43.21934650884941,157.01472381906933 44.47363735642284,156.6720048598363 45.769737899303436,156.18240590402274 47.19126752624288,155.79072636461933 48.278319594217464,155.54592648308608 49.65803952678107,155.1542464021186 50.9123303743545,154.76256598794134 52.37566969660111,154.27296500146622 53.67177023901604,153.93024400112336 55.30234834132716,153.48960234012338 56.47301979898475,153.24480123497779 57.978168816072866,153.0 60.194082646863535,153.48960234012338 61.824660748941824,154.4688054585422 62.74447403708473,155.59488646982936 63.32980976602994,156.76992458853056 63.78971641021781,158.1407986030099 64.29143274901435,159.5116685355897 64.50048122368753,160.93149380528484 64.75133939343505,162.30235542799346 64.9185781730339,163.91800852888264 65.04400725779124,164.84823046944803 65.25305573223159,166.26803928168374 65.42029451206326,167.78576110096765 65.25305573223159,169.9888967750303 65.37848481698893,171.21285648294725 65.42029451206326,172.14306368486723 65.58753329189494,174.3461785086838 65.62934298673645,175.22742148654652 65.71296237641945,176.35345172591042 65.92201085109264,178.06697071937378 66.17286902060732,179.53569620964117 66.34010780020617,181.15128883786383 66.63277566479519,182.42417600675253 66.75820474955253,183.3543605588784 66.84182413946837,184.67619853184442 66.71639505471103,185.94907595647965 66.3819174952805,187.27090648072772 65.04400725779124,188.73960261276807 63.70609702030197,189.37603614854743 62.326377087971196,190.1593377541867 61.28113471483812,190.7957693276694 59.901414782507345,191.43220002151793 59.06522088404745,191.72593696819968 57.60188156156801,192.16654203666258 56.47301979898475,192.94983889552532 55.21872895117849,193.4883547128702 54.089867188362405,194.02686990072834 52.91919573047198,194.46747276751557 51.664904882898554,194.95703101420077 50.36880434048362,195.44658874027664 48.98908440792002,195.887190248759 47.692983865737915,196.47465827109409 46.355073628015816,196.81734760457766 44.72449552617036,197.40481444011675 43.88830162747763,197.79645858082222 42.6340107799042,198.2860132881906 41.7560071866028,198.92243362977752 40.29266786458902,199.36303181256517 39.20561579638161,200.04840592553956 37.99313464388251,200.5869134416571 36.655224406160414,201.12542032796773 35.60998203326017,201.56601640291046 34.18845240585506,202.25138723710552 32.85054216836579,202.78989217698108 31.76349010039121,203.2304866593622 30.300150778144598,203.81794531363994 29.087669625412673,204.50331279626698 28.209666032111272,204.79704140505055 27.12261396413669,205.23763396713184 25.9519425064791,205.72718076396268 24.69765165867284,206.51045455626445 23.23431233665906,207.0 21.436495454981923,205.53136210763478 21.185637285467237,204.6012223533471 21.060208200709894,203.52421608020086 20.72573064127937,202.25138723710552 20.474872471764684,201.02751003179583 20.05677552265115,199.50989777973155 19.84772704797797,198.09019146778155 19.596868878230453,196.76839200116228 19.304201014107093,195.2997214772331 18.88610406476073,193.6352225538576 18.468007115647197,191.7748931076785" stroke="#4DD2FF" stroke-linecap="round" stroke-linejoin="round" stroke-width="0.5"><title>2023-04-17 10.0km</title><desc>9223370355117402580</desc></polyline><polyline fill="none" points="164.88910464888613,184.59106317342594 164.83107373317762,184.60540061092252 164.66112605144735,184.6245171875562 164.59065993950935,184.58150487935563 164.47874317350215,184.58150487935563 164.39584186533466,184.60062146556447 164.32952081879193,184.62929633051317 164.32537575339666,184.63885461500104 164.35853627666074,184.66275031783516 164.35024614582653,184.69142514544728 164.31708562256244,184.7200999558263 164.31708562256244,184.73443735455294 164.35439121123636,184.73443735455294 164.47045304266794,184.70098341748962 164.528483958391,184.6579711782324 164.6528359206277,184.58150487935563 164.7854780136986,184.5337133803405 164.81863853696268,184.53849253238877 164.85594412562205,184.552829985696 164.84765399481694,184.59106317342594 164.88910464888613,184.58150487935563 164.90568491054,184.58150487935563 164.9885862186784,184.63407547298993 165.15853390040866,184.69142514544728 165.1916944236873,184.6962042817031 165.32433651674364,184.681866871495 165.41967302112607,184.6531920381458 165.43625328277994,184.63885461500104 165.43625328277994,184.61973804412264 165.4859940676688,184.60062146556447 165.50671939471795,184.58628402663453 165.51500952552306,184.57194658339358 165.57304044123157,184.54805083506653 165.6186361607397,184.552829985696 165.74298812297639,184.53849253238877 165.78858384246996,184.53849253238877 165.80516410410928,184.552829985696 165.86734008522762,184.55760913584163 165.975111785825,184.58628402663453 165.9958371128596,184.57194658339358 165.99998217826942,184.552829985696 165.99998217826942,184.54327168397504 165.98754698205448,184.5337133803405 165.9419512625609,184.53849253238877 165.90050060847716,184.58628402663453 165.84661475817848,184.60062146556447 165.83832462737337,184.6101797557967 165.78443877704558,184.62929633051317 165.7927289078798,184.63407547298993 165.74713318837166,184.67230859562187 165.54402498339186,184.71532082196063 165.48184900225897,184.6866460087149 165.4735588714393,184.643633756521 165.39065756327182,184.6101797557967 165.27045066644496,184.58628402663453 165.03003687276214,184.60540061092252 164.90153984511562,184.6101797557967 164.85179906021222,184.6245171875562 164.67770631308667,184.70576255278866 164.65698098605208,184.66275031783516 164.6321105935931,184.61973804412264 164.60724020114867,184.6149589002016 164.54920928544016,184.6149589002016 164.44143758481368,184.6484128975717 164.42485732317436,184.66752945697226 164.4372925194184,184.681866871495 164.46630797727266,184.6866460087149 164.4994685005222,184.66275031783516 164.50361356594658,184.643633756521 164.50775863134186,184.6245171875562 164.47045304266794,184.57194658339358 164.49117836970254,184.60062146556447 164.50361356594658,184.6101797557967 164.50361356594658,184.552829985696 164.5119036967517,184.5337133803405 164.5201938275568,184.4715843600461 164.5119036967517,184.32343021595443 164.4994685005222,184.24218419969839 164.50775863134186,184.22306746988033 164.61553033195378,184.19439236079415 164.6321105935931,184.2039507324189 164.7233020325657,184.29475516719685 164.81034840614302,184.35688441774255 164.85594412562205,184.40467609387633 164.89324971429596,184.42379275092753 164.98029608787328,184.52893422780835 165.02174674195703,184.552829985696 165.09635791930486,184.56238828549976 165.17511416206253,184.552829985696 165.24558027400053,184.55760913584163 165.42381808655045,184.54327168397504 165.52744472175254,184.552829985696 165.5357348525722,184.56238828549976 165.62278122613498,184.552829985696 165.74298812297639,184.56716743468132 165.76371345001098,184.58150487935563 165.834179561949,184.58150487935563 165.8839203468524,184.5958423197335 165.950241393366,184.5958423197335 165.9626765895955,184.62929633051317 165.97925685123482,184.61973804412264 165.98754698205448,184.60062146556447 165.98754698205448,184.58628402663453 165.9626765895955,184.56716743468132 165.904645673887,184.52893422780835 165.8839203468524,184.52415507480328 165.88806541226222,184.54805083506653 165.8217443657195,184.56238828549976 165.75542331920587,184.6101797557967 165.74298812297639,184.63885461500104 165.74713318837166,184.67230859562187 165.71397266510758,184.70098341748962 165.65179668398923,184.77744952487774 165.5357348525722,184.81568253261867 165.49428419848846,184.7583330095149 165.4528335444047,184.7296582221279 165.33677171297313,184.67230859562187 165.15024376960355,184.63407547298993 165.02589180736686,184.59106317342594 164.88495958349085,184.55760913584163 164.77718788287893,184.56238828549976 164.74817242502468,184.57194658339358 164.51604876217607,184.60540061092252 164.46216291184828,184.6245171875562 164.4455826502235,184.63885461500104 164.36682640746585,184.67230859562187 164.32952081879193,184.6962042817031 164.32537575339666,184.7105416876184 164.33366588420176,184.7248790891972 164.36268134207057,184.73443735455294 164.54920928544016,184.6866460087149 164.6486908552033,184.67230859562187 164.92226517215022,184.51459676732702 165.14609870419372,184.30909269373296 165.28703092806973,184.15615885521765 165.22070988154155,184.11792531899118 165.10050298470014,184.09402934329773 162.92848871085152,177.92368785455983 154.04975860661943,153.10042850923492 154.07048393363948,153.1243400278472 154.06219380283437,153.1386869332382 154.02903327958484,153.15303383432183 154.0165980833408,153.14346923408448 154.0041628871113,153.11477542184002 154.00001782171603,153.08608159232608 154.01245301794552,153.05738774550628 154.07048393363948,153.00956462905378 154.10778952232795,153.0 154.16996550346084,153.0 154.1989809613151,153.01434694285854 154.2279964191548,153.03347619327906 156.4994922628248,205.76276580625927 156.5575231785333,205.80575903754652 156.57824850558245,205.82964414932212 156.56995837474824,205.8630832857525 156.56995837474824,205.87741433705014 156.59482876720722,205.92518447703333 156.6570047483401,205.98728558759467 156.70674553324352,206.025501615517 156.79793697221612,206.116264559314 156.85182282250025,206.20702733070357 156.90570867282804,206.26435109748127 156.94715932689724,206.30734387742996 157.0134803734254,206.35033661869602 157.0134803734254,206.32645176720325 157.03420570047456,206.33122873846514 157.11710700864205,206.2977899296784 157.13368727025227,206.2977899296784 157.12954220487154,206.33122873846514 157.20415338219027,206.32645176720325 157.26218429791334,206.33122873846514 157.27876455955266,206.31689782327157 157.25389416710823,206.34078267953737 157.23731390548346,206.32167479547934 157.19586325138516,206.31689782327157 157.12539713944716,206.26912807494955 157.07151128914848,206.24524318286421 157.05078596209933,206.2404662030167 157.03420570047456,206.24524318286421 157.05907609291899,206.26912807494955 157.25389416710823,206.35033661869602 157.69327110036102,206.5557458485855 158.14508322985785,206.70383102467167 158.25285493046977,206.7611541954102 158.8082936951687,206.89013107818027 158.87046967630158,206.90923873490465 158.92850059199554,206.9379002056703 159.08601307749632,206.9761154732696 159.14404399320483,207.0" stroke="#4DD2FF" stroke-linecap="round" stroke-linejoin="round" stroke-width="0.5"><title>2023-02-12 11.8km</title><desc>8545993924</desc></polyline><polyline fill="none" points="18.183999999426305,247.22230656375177 18.93999999994412,247.22230656375177 20.559999999590218,246.59969974460546 22.61199999973178,246.59969974460546 25.743999999947846,246.47517834370956 28.011999999638647,246.72422113351058 31.467999999877065,247.22230656375177 33.519999999552965,247.59587050543632 37.62399999983609,247.22230656375177 41.187999999616295,247.96943433454726 43.455999999307096,248.2184768251609 46.04799999995157,248.7165616567945 48.639999999664724,248.96560399758164 51.44799999939278,248.84108283324167 54.688000000081956,248.46751926618163 57.27999999979511,249.7127307212213 59.54799999948591,249.83725179790054 56.739999999757856,249.96177286223974 54.579999999608845,249.33916741563007 51.87999999988824,249.09012514923234 50.691999999340624,248.96560399758164 46.911999999545515,248.2184768251609 43.77999999979511,248.2184768251609 40.75599999958649,247.96943433454726 37.73199999984354,247.4713492039591 35.679999999236315,247.09778522478882 33.519999999552965,246.59969974460546 32.00799999944866,246.35065693000797 28.65999999968335,245.6035281860968 24.339999999385327,244.73187741730362 21.855999999679625,244.60735582886264 18.72399999992922,244.85639899305534 16.455999999772757,244.60735582886264 16.023999999742955,245.72804967442062 18.40000000037253,245.72804967442062 21.855999999679625,246.22613550384995 24.339999999385327,246.35065693000797 25.959999999962747,246.35065693000797 29.415999999735504,246.59969974460546 32.11599999992177,246.84874250995927 35.032000000122935,246.97326387360226 37.191999999806285,246.97326387360226 39.99999999953434,247.22230656375177 42.80799999926239,247.96943433454726 45.61599999945611,248.46751926618163 47.77599999960512,248.7165616567945 50.583999999798834,248.84108283324167 53.067999999504536,249.33916741563007 54.03999999957159,249.46368852991145 57.6039999993518,250.08629391435534 60.627999999094754,249.96177286223974 58.2519999993965,250.21081495389808 54.688000000081956,249.7127307212213 52.52799999946728,249.21464628865942 49.82799999974668,248.84108283324167 47.12800000002608,248.34299805189949 45.075999999884516,247.96943433454726 42.48399999924004,247.4713492039591 39.459999999497086,247.34682788979262 36.00399999972433,247.22230656375177 33.84400000004098,246.84874250995927 30.49599999981001,246.35065693000797 27.903999999631196,246.1016140653519 24.880000000353903,245.85257115052082 21.748000000137836,245.85257115052082 19.263999999966472,246.47517834370956 15.483999999705702,246.72422113351058 14.079999999608845,246.84874250995927 16.8879999993369,246.72422113351058 20.235999999567866,246.35065693000797 22.72000000020489,246.59969974460546 27.147999999579042,246.97326387360226 29.740000000223517,246.97326387360226 33.303999999538064,247.22230656375177 36.00399999972433,247.22230656375177 41.187999999616295,248.46751926618163 43.455999999307096,248.84108283324167 47.45199999958277,248.59204046765808 50.15199999976903,248.96560399758164 53.82399999955669,249.58820963150356 56.523999999742955,249.96177286223974 58.359999999869615,250.459856995265 59.54799999948591,250.21081495389808 58.0359999993816,250.33533598086797 57.27999999979511,250.33533598086797 56.84799999976531,250.21081495389808 52.41999999945983,249.83725179790054 48.963999999221414,249.46368852991145 44.53599999984726,248.46751926618163 40.2160000000149,248.2184768251609 36.32799999928102,248.34299805189949 33.84400000004098,247.96943433454726 32.00799999944866,247.59587050543632 29.091999999713153,247.09778522478882 25.851999999955297,246.84874250995927 22.82799999974668,246.72422113351058 21.639999999664724,246.59969974460546 17.535999999381602,246.22613550384995 14.403999999631196,245.9770926143974 16.8879999993369,246.22613550384995 20.66799999959767,246.22613550384995 23.583999999798834,246.72422113351058 25.419999999925494,246.97326387360226 27.147999999579042,247.34682788979262 30.49599999981001,247.7203917944571 32.76399999996647,248.09395558619872 34.27599999960512,248.46751926618163 37.083999999798834,248.46751926618163 40.10799999954179,248.46751926618163 43.99599999934435,248.96560399758164 47.019999999552965,249.33916741563007 49.82799999974668,249.83725179790054 51.98799999989569,250.08629391435534 55.22799999965355,250.33533598086797 59.33199999993667,250.459856995265 59.00799999944866,249.96177286223974 56.1999999997206,249.96177286223974 54.364000000059605,249.7127307212213 48.42399999964982,249.46368852991145 44.21199999982491,248.7165616567945 41.51199999963865,248.09395558619872 38.27199999988079,248.46751926618163 34.81599999964237,247.96943433454726 31.899999999441206,246.97326387360226 28.22800000011921,246.22613550384995 25.203999999910593,246.59969974460546 22.61199999973178,246.59969974460546 19.587999999988824,246.1016140653519 17.643999999854714,245.35448517161421 15.052000000141561,246.1016140653519 17.751999999862164,246.1016140653519 21.423999999649823,246.97326387360226 24.55599999986589,247.34682788979262 28.55200000014156,247.7203917944571 32.22399999992922,248.09395558619872 34.70799999963492,248.46751926618163 38.48799999943003,248.96560399758164 41.72799999965355,249.46368852991145 44.967999999411404,250.08629391435534 47.88399999961257,249.96177286223974 50.15199999976903,249.96177286223974 51.98799999989569,250.21081495389808 55.66000000014901,250.459856995265 58.79199999989942,250.95794092910364 57.71199999982491,250.21081495389808 55.44399999920279,250.459856995265 51.01599999982864,250.21081495389808 49.18000000016764,249.83725179790054 46.04799999995157,248.46751926618163 43.67199999978766,247.7203917944571 40.43199999956414,247.8449130706722 36.65199999930337,247.7203917944571 34.27599999960512,246.72422113351058 27.688000000081956,246.35065693000797 23.799999999813735,246.1016140653519 19.587999999988824,246.22613550384995 14.403999999631196,245.35448517161421 14.296000000089407,245.6035281860968 16.347999999765307,245.9770926143974 20.559999999590218,246.1016140653519 24.231999999843538,246.47517834370956 27.471999999601394,247.59587050543632 32.22399999992922,248.34299805189949 35.247999999672174,248.34299805189949 37.62399999983609,248.46751926618163 39.459999999497086,248.84108283324167 43.99599999934435,249.58820963150356 46.58799999952316,249.7127307212213 48.31599999917671,249.58820963150356 51.87999999988824,249.83725179790054 53.17599999951199,249.7127307212213 58.467999999411404,250.58437799743842 60.303999999538064,250.21081495389808 58.2519999993965,249.7127307212213 56.1999999997206,249.09012514923234 52.8519999999553,248.46751926618163 49.18000000016764,248.2184768251609 44.967999999411404,248.09395558619872 43.131999999284744,248.09395558619872 40.6480000000447,247.8449130706722 39.243999999947846,247.7203917944571 35.355999999679625,247.4713492039591 30.38799999980256,247.34682788979262 29.200000000186265,246.59969974460546 24.231999999843538,245.9770926143974 20.128000000026077,245.9770926143974 16.239999999757856,246.35065693000797 16.77999999979511,246.59969974460546 20.77600000007078,246.47517834370956 24.77199999988079,246.59969974460546 28.335999999661,246.84874250995927 30.27999999979511,247.09778522478882 34.38399999961257,246.59969974460546 37.62399999983609,247.8449130706722 41.72799999965355,248.46751926618163 44.967999999411404,248.7165616567945 47.88399999961257,248.96560399758164 50.583999999798834,249.7127307212213 53.93199999956414,250.459856995265 56.1999999997206,250.21081495389808 60.735999999567866,250.459856995265 59.22399999946356,249.83725179790054 56.739999999757856,249.09012514923234 53.39199999952689,248.84108283324167 49.071999999694526,248.84108283324167 47.55999999959022,248.34299805189949 43.88799999980256,247.96943433454726 41.835999999661,247.8449130706722 36.21999999973923,248.09395558619872 33.303999999538064,247.7203917944571 30.71199999982491,247.34682788979262 25.419999999925494,246.47517834370956 19.911999999545515,245.72804967442062 17.967999999877065,245.72804967442062 14.079999999608845,245.6035281860968 16.455999999772757,245.6035281860968 19.804000000003725,245.72804967442062 22.072000000160187,245.72804967442062 27.256000000052154,246.59969974460546 30.17199999978766,246.97326387360226 33.303999999538064,247.4713492039591 37.407999999821186,247.4713492039591 41.403999999631196,248.59204046765808 46.803999999538064,248.84108283324167 49.93599999975413,248.7165616567945 52.95999999996275,249.09012514923234 55.33600000012666,249.7127307212213 59.11599999945611,249.33916741563007 54.903999999631196,249.46368852991145 51.66399999940768,249.21464628865942 49.18000000016764,249.09012514923234 47.34399999957532,248.7165616567945 43.34799999976531,248.2184768251609 40.10799999954179,247.8449130706722 37.407999999821186,247.7203917944571 32.43999999994412,245.72804967442062 28.65999999968335,245.1054421075387 25.743999999947846,245.4790066847345 23.583999999798834,245.4790066847345 21.639999999664724,245.9770926143974 14.403999999631196,245.1054421075387 20.128000000026077,245.85257115052082 24.231999999843538,247.09778522478882 26.2839999999851,247.34682788979262 31.359999999869615,247.96943433454726 36.11199999973178,248.34299805189949 38.81199999945238,248.7165616567945 41.079999999608845,249.21464628865942 44.85999999940395,249.58820963150356 48.20800000010058,249.09012514923234 52.311999999918044,249.58820963150356 54.25599999958649,249.58820963150356 59.97999999951571,249.58820963150356 58.575999999418855,249.09012514923234 54.688000000081956,249.09012514923234 50.907999999821186,248.96560399758164 48.639999999664724,249.09012514923234 45.93999999947846,247.4713492039591 41.51199999963865,247.09778522478882 38.70399999991059,247.4713492039591 35.679999999236315,246.97326387360226 34.06000000005588,246.84874250995927 31.251999999862164,246.72422113351058 28.119999999646097,246.47517834370956 24.880000000353903,245.85257115052082 21.639999999664724,245.85257115052082 18.40000000037253,245.4790066847345 14.511999999638647,244.98092055658344 18.507999999448657,246.22613550384995 21.315999999642372,246.1016140653519 24.231999999843538,246.35065693000797 26.82399999955669,246.72422113351058 30.38799999980256,247.22230656375177 32.54799999948591,247.4713492039591 35.78799999970943,247.7203917944571 37.83999999985099,247.7203917944571 40.75599999958649,248.09395558619872 45.075999999884516,249.33916741563007 48.963999999221414,248.96560399758164 50.691999999340624,249.09012514923234 53.49999999953434,249.09012514923234 55.76799999922514,249.58820963150356 58.89999999944121,249.83725179790054 58.89999999944121,249.46368852991145 56.307999999728054,248.96560399758164 54.688000000081956,247.09778522478882 54.471999999601394,244.23379098938312 55.9839999997057,237.6341269792756 56.1999999997206,234.14749788609333 56.739999999757856,229.66467468312476 55.76799999922514,230.90990497230086 55.01199999963865,234.27202052227221 54.688000000081956,236.63794823619537 54.471999999601394,241.49431206833106 54.14799999911338,243.61118267395068 53.28399999951944,247.09778522478882 51.33999999938533,249.09012514923234 45.72399999992922,247.34682788979262 44.10399999981746,247.09778522478882 39.135999999474734,246.59969974460546 36.54400000022724,247.22230656375177 31.143999999389052,248.09395558619872 28.119999999646097,247.59587050543632 22.72000000020489,245.4790066847345 15.15999999968335,244.60735582886264 16.99599999981001,246.22613550384995 20.45200000004843,247.22230656375177 22.395999999716878,247.09778522478882 25.527999999467283,247.09778522478882 28.65999999968335,247.34682788979262 32.33199999947101,247.34682788979262 34.81599999964237,247.59587050543632 36.43599999975413,247.8449130706722 39.78399999951944,248.09395558619872 42.37600000016391,248.46751926618163 45.61599999945611,248.59204046765808 50.36799999978393,249.09012514923234 53.067999999504536,249.09012514923234 55.44399999920279,249.46368852991145 56.631999999750406,249.58820963150356 60.303999999538064,249.21464628865942 58.2519999993965,249.21464628865942 55.44399999920279,247.59587050543632 55.76799999922514,242.61500872066244 55.9839999997057,239.12839359696954 57.6039999993518,239.62648207030725 61.38399999961257,240.12457034457475 64.40799999935552,239.00387144717388 66.24399999948218,235.76629118120763 66.89199999952689,233.52488451905083 63.00399999972433,231.40799673844595 60.19599999953061,231.28347381576896 56.415999999735504,233.15131634904537 55.87599999969825,234.77011094114278 54.688000000081956,241.49431206833106 54.14799999911338,244.98092055658344 53.49999999953434,246.97326387360226 50.47599999932572,248.59204046765808 46.04799999995157,247.4713492039591 44.21199999982491,247.09778522478882 41.079999999608845,246.59969974460546" stroke="#4DD2FF" stroke-linecap="round" stroke-linejoin="round" stroke-width="0.5"><title>2021-06-21 10.0km</title><desc>9223370412586047204</desc></polyline></svg>