<?xml version="1.0" encoding="utf-8" ?>
<svg baseProfile="full" height="300mm" version="1.1" viewBox="0,0,200,300" width="200mm" xmlns="http://www.w3.org/2000/svg" xmlns:ev="http://www.w3.org/2001/xml-events" xmlns:xlink="http://www.w3.org/1999/xlink"><defs /><rect fill="#222222" height="300" width="200" x="0" y="0" /><text fill="#FFFFFF" style="font-size:12px; font-family:Arial; font-weight:bold;" x="10" y="20">Over 10km Runs</text><text fill="#FFFFFF" style="font-size:4px; font-family:Arial" x="10" y="280">ATHLETE</text><text fill="#FFFFFF" style="font-size:9px; font-family:Arial" x="10" y="290">DuckTyping</text><text fill="#FFFFFF" style="font-size:4px; font-family:Arial" x="65" y="280">SPECIAL TRACKS</text><rect fill="yellow" height="2.6" width="2.6" x="65" y="283" /><text fill="#FFFFFF" style="font-size:3px; font-family:Arial" x="70" y="285.5">Over 20.0 km</text><rect fill="red" height="2.6" width="2.6" x="65" y="287" /><text fill="#FFFFFF" style="font-size:3px; font-family:Arial" x="70" y="289.5">Over 40.0 km</text><text fill="#FFFFFF" style="font-size:4px; font-family:Arial" x="120" y="280">STATISTICS</text><text fill="#FFFFFF" style="font-size:3px; font-family:Arial" x="120" y="285">Number: 8</text><text fill="#FFFFFF" style="font-size:3px; font-family:Arial" x="120" y="290">Weekly: 1.0</text><text fill="#FFFFFF" style="font-size:3px; font-family:Arial" x="141" y="285">Total: 98.3 km</text><text fill="#FFFFFF" style="font-size:3px; font-family:Arial" x="141" y="290">Avg: 12.3 km</text><text fill="#FFFFFF" style="font-size:3px; font-family:Arial" x="167" y="285">Min: 10.0 km</text><text fill="#FFFFFF" style="font-size:3px; font-family:Arial" x="167" y="290">Max: 17.4 km</text><polyline fill="none" points="19.270967741962522,69.26664963539224 19.868202765006572,69.20837093738373 20.46543778805062,69.44148569233948 21.112442396348342,71.13156470062677 21.311520737363026,71.88918463338632 23.551152073778212,71.94746304641012 24.148387096822262,73.05475171562284 26.039631336461753,72.93819511891343 28.080184331862256,72.93819511891343 27.980645161354914,74.10375997045776 25.641474654199556,74.86137579462957 23.551152073778212,75.26932234328706 21.460829492891207,75.50243452034192 19.17142857145518,76.20177045697346 17.031336405547336,76.78454972233158 16.384331797016785,74.51170708285645 15.737327188951895,71.30640016263351 14.89124423963949,67.28517042571912 14.294009216595441,63.49702846806031 13.895852534333244,61.398969348170795 13.447926267283037,59.2426224387018 13.0,56.03722621832276 14.990783410146832,55.57098520617001 16.583410138031468,55.22130418679444 17.678341013845056,54.98818338342244 19.868202765006572,53.82257787842536 22.356682027690113,53.35633498226525 23.99907834106125,53.123213385406416 26.139170506736264,52.48212848289404 29.324423963204026,51.89932337531354 32.410138248698786,51.316517647821456 36.24239631323144,50.384027194813825 38.63133640540764,49.91778137336951 39.82580645172857,50.384027194813825 42.41382488468662,49.50981595425401 43.359447004739195,49.16013106738683 46.79354838724248,48.28591787436744 50.42672811052762,47.58654631586978 54.408294930821285,46.47920618962962 57.94193548383191,45.43014505843166 61.724423963110894,44.49764458939899 64.26267281128094,43.62342395877931 65.55668202764355,44.147956504661124 66.55207373248413,44.206237867532764 66.85069124447182,43.50686110253446 63.86451612901874,43.62342395877931 61.127188940299675,44.49764458939899 58.38986175111495,45.19702009006869 54.955760368844494,46.24608166719554 52.11889400915243,47.17857916129287 49.92903225799091,48.11107506847475 46.445161290233955,48.57732242695056 43.65806451626122,49.5680967469234 41.36866359435953,49.9760621227324 40.62211981555447,50.32574648887385 44.35483870981261,49.21841189725092 47.88847926259041,48.28591787436744 50.974193548318,47.703108304122 53.61198156676255,46.82889278692892 56.150230414932594,46.01295704586664 58.48940092162229,45.37186382571235 61.07741935481317,44.67248854826903 63.715207373257726,43.739986790169496 65.45714285736904,44.26451922423439 66.45253456220962,44.381081919244025 67.0,43.6817053774721 64.85990783409216,43.44857966515701 61.47557603684254,44.439363257493824 58.638709677383304,45.13873883232009 55.20460829511285,45.95467587496387 53.11428571422584,46.945454936358146 51.372350230347365,47.12029811437242 49.23225806443952,48.11107506847475 47.19170506927185,48.34419879730558 45.151152073871344,48.98528854025062 42.56313364068046,49.5680967469234 39.97511520748958,50.20918505836744 41.96589861763641,49.74293908796972 44.006451613036916,49.04356938897399 47.49032258079387,48.46076062443899 51.07373271882534,47.46998430264648 54.408294930821285,46.42092506826157 57.444239631528035,45.60498871986056 61.127188940299675,44.49764458939899 64.56129032280296,43.56514253374189 65.20829493086785,44.089675135328434 66.00460829492658,44.381081919244025 66.75115207373165,44.031393760000356 66.75115207373165,43.44857966515701 63.96405529975891,43.44857966515701 61.176958525553346,44.49764458939899 57.543778801802546,45.43014505843166 53.811059907777235,46.59576841339003 52.26820276491344,47.06201706122374 49.97880184347741,48.11107506847475 47.34101382503286,48.57732242695056 45.30046082963236,49.10185023135273 42.811981566715986,49.45153515518177 40.17419354850426,50.267465776763856 42.31428571441211,49.5680967469234 45.798156681936234,48.69388420478208 49.33179723517969,47.819670267694164 53.213824884733185,46.71233061258681 56.10046082944609,46.01295704586664 57.99170506908558,45.3135825865902 60.1815668202471,44.90561373985838 63.91428571427241,43.6817053774721 64.85990783409216,43.79826819646405 65.70599078340456,44.26451922423439 66.70138248847798,44.089675135328434 66.75115207373165,43.390298221609555 63.665437788236886,43.62342395877931 61.07741935481317,44.55592591530876 58.48940092162229,45.19702009006869 56.199999999953434,45.66326992784161 53.164055299712345,46.82889278692892 49.72995391697623,47.877951240341645 46.59447004599497,48.34419879730558 44.006451613036916,49.21841189725092 41.567741935374215,49.91778137336951 41.71705069136806,49.50981595425401 44.10599078331143,48.752165084239095 47.39078341028653,48.11107506847475 50.078341013984755,47.29514123633271 52.31797235039994,46.88717386475764 54.25898617506027,46.362643940898124 55.50322580640204,45.77983232529368 57.64331797254272,45.488426285097376 60.480184331769124,44.78905115643283 62.47096774214879,44.147956504661124 64.41198156680912,43.739986790169496 65.85529953916557,44.439363257493824 66.95023041497916,43.914830990484916 66.50230414769612,43.33201677183388 63.91428571427241,43.56514253374189 60.579723502509296,44.6142072348739 58.98709677439183,45.13873883232009 55.90138248866424,45.89639469789108 55.105069124372676,46.129519368871115 53.164055299712345,47.003736001905054 50.42672811052762,47.4117032866925 48.883870967663825,48.05279412062373 46.79354838724248,48.227636945142876 44.90230414737016,48.81044595746789 43.65806451626122,49.21841189725092 40.07465437776409,50.150904333626386 40.920737327309325,50.092623602889944 42.96129032270983,49.21841189725092 44.006451613036916,48.752165084239095 46.14654377871193,48.51904152886709 48.834101382410154,47.819670267694164 50.57603686628863,47.46998430264648 53.761290322756395,46.47920618962962 55.85161290341057,45.77983232529368 59.08663594466634,45.02217629854567 61.823963133851066,44.26451922423439 64.51152073754929,43.56514253374189 65.65622119838372,44.089675135328434 66.45253456220962,44.147956504661124 66.90046082949266,43.390298221609555 65.30783410137519,43.21545385365607 62.67004608316347,43.6817053774721 60.23133640550077,44.730769855494145 57.99170506908558,45.546707505593076 54.408294930821285,46.362643940898124 51.372350230347365,47.29514123633271 50.22764976951294,47.819670267694164 47.98801843309775,48.28591787436744 45.59907834115438,48.752165084239095 45.0018433178775,49.10185023135273 42.56313364068046,49.62637753342278 41.11981566809118,50.03434286580887 41.11981566809118,50.03434286580887 43.65806451626122,49.276692721177824 47.141935483785346,48.57732242695056 50.028571428731084,47.703108304122 52.16866359463893,47.06201706122374 54.15944700478576,46.71233061258681 56.39907834096812,45.95467587496387 59.48479262692854,45.08045756845968 62.67004608316347,44.031393760000356 64.6110599078238,43.56514253374189 65.25806451635435,43.97311237832764 66.40276497718878,43.914830990484916 66.80092165921815,43.390298221609555 64.51152073754929,43.50686110253446 61.92350230412558,44.031393760000356 58.58894009236246,45.3135825865902 54.90599078335799,46.18780052126385 53.26359447021969,46.82889278692892 50.87465437781066,47.17857916129287 48.784331797389314,47.877951240341645 45.59907834115438,48.868726824759506 42.61290322593413,49.5680967469234 40.52258064527996,50.267465776763856 44.006451613036916,49.16013106738683 47.639631336554885,48.28591787436744 50.52626728126779,47.58654631586978 53.06451612897217,46.82889278692892 56.299539170693606,46.01295704586664 59.58433179720305,45.02217629854567 62.76958525367081,44.089675135328434 64.71059907856397,43.6817053774721 66.45253456220962,44.147956504661124 67.0,43.739986790169496 65.35760368662886,43.390298221609555 62.67004608316347,43.85654959658859 60.032258064486086,44.6142072348739 56.64792626723647,45.66326992784161 53.11428571422584,46.71233061258681 51.67096774210222,47.236860201868694 50.177880184492096,47.703108304122 46.74377880175598,48.46076062443899 43.309677419252694,49.39325435011415 41.96589861763641,49.5680967469234 39.726267280988395,50.267465776763856 38.73087557614781,50.20918505836744 38.73087557614781,51.19995642796857 38.28294930886477,52.598689429985825 38.83041474665515,54.69678223942174" stroke="#4DD2FF" stroke-linecap="round" stroke-linejoin="round" stroke-width="0.5"><title>2025-02-05 10.1km</title><desc>9223370298114090178</desc></polyline><polyline fill="none" points="138.34065934061073,69.49676746613113 139.87362637347542,69.61257754568942 140.763736263616,69.67048257606803 141.10989010962658,71.81296437379206 141.55494505469687,72.56572624767432 143.28571428568102,71.9866787448409 144.02747252723202,72.392012061493 144.67032967018895,73.49220097187208 147.48901098873466,72.85524976823945 148.37912087887526,73.14477313501993 148.478021977935,73.43429634772474 148.478021977935,74.53448315220885 147.04395604366437,74.36076959391357 145.60989010962658,74.53448315220885 142.4450549450703,75.51885893562576 140.56593406572938,76.0979026829009 138.4395604392048,76.61904152884381 137.005494505167,76.56113723729504 136.75824175798334,75.403050112247 136.16483516455628,72.9710591333569 135.71978021948598,71.46553546580253 135.62087912065908,68.16494978341507 135.37362637347542,67.58589760120958 134.78021978004836,65.32758820679737 134.2857142854482,62.374400252185296 133.93956043943763,60.75303534930572 133.14835164835677,57.278665729856584 133.0,56.00472464837367 133.39560439554043,55.078220171737485 135.71978021948598,55.020313589659054 139.13186813145876,54.38334077951731 139.97252747230232,54.49915407318622 141.35714285704307,54.61496734211687 145.06593406572938,53.97799405804835 146.2527472525835,53.63055377086857 148.57692307652906,53.225206488976255 150.80219780188054,52.70404525473714 152.78021978004836,52.530324732360896 155.20329670305364,51.951255924475845 156.48901098873466,51.198465553403366 157.97252747230232,50.445674141694326 158.763736263616,50.214045805623755 159.10989010962658,50.61939532903489 160.54395604366437,50.50358121027239 163.11538461502641,49.519160206313245 165.09340659319423,48.82427372026723 168.60439560422674,48.01357169885887 171.22527472511865,47.3765906925546 173.74725274718367,46.79751640377799 177.20879120845348,45.69727355847135 180.0769230767619,44.886566881497856 182.49999999976717,44.01795124524506 184.52747252723202,43.72841239190893 185.2197802197188,44.53912079328438 186.25824175798334,44.53912079328438 186.65384615352377,43.78632017498603 184.08241758216172,43.72841239190893 183.0439560438972,43.96004348696442 181.21428571408615,44.53912079328438 177.70329670305364,45.58145839278586 176.76373626338318,45.813088699535 173.4505494502373,46.85542386042653 169.741758241551,47.66612760606222 167.21978021948598,48.47683014458744 164.6978021976538,48.99799542489927 161.1868131866213,49.98241737112403 160.741758241551,50.38776706694625 164.5989010988269,49.113809863862116 168.50549450539984,48.07147902616998 172.46153846150264,47.02914619311923 176.4175824173726,45.870996260724496 180.37362637347542,44.886566881497856 183.83516483497806,43.8442279517767 184.72527472511865,43.96004348696442 185.51648351619951,44.53912079328438 186.45604395586997,44.42330538126407 186.55494505469687,43.61259680747753 184.18131868098862,43.554689006123226 180.47252747230232,44.133766743470915 177.0109890110325,44.770751543401275 176.02197802159935,44.944474541407544 173.5989010988269,45.98681136482628 172.11538461502641,46.21844149928074 169.49450549436733,46.73960894095944 166.42857142840512,46.85542386042653 165.73626373615116,46.85542386042653 160.44505494483747,50.09823160065571 161.3846153842751,50.156138706137426 163.8076923075132,49.287531476060394 167.26923076924868,48.01357169885887 169.8406593403779,47.60822023561923 173.40109890094027,46.39216403517639 175.72527472511865,45.639365978655405 177.45604395586997,45.349827987665776 179.78021978004836,44.53912079328438 182.005494505167,44.07585899735568 184.2307692305185,43.26514990639407 185.56593406572938,44.24958221707493 186.70329670305364,44.07585899735568 185.26923076901585,43.67050460272003 182.10439560422674,44.24958221707493 178.93956043943763,45.118197483883705 175.2307692305185,46.16053397487849 172.9065934063401,46.79751640377799 170.58241758216172,47.3765906925546 166.92307692277245,48.41892286052462 163.56043956032954,49.287531476060394 160.79120879084803,50.27195289876545 160.09890109859407,50.50358121027239 161.68131868098862,49.92451024707407 164.84615384601057,48.82427372026723 167.26923076924868,48.47683014458744 170.483516483102,47.43449808744481 171.32417582394555,46.97123875503894 174.8846153842751,46.16053397487849 176.56593406572938,45.98681136482628 178.39560439554043,45.29192037094617 181.95604395563714,44.365397666115314 184.28021978004836,43.8442279517767 185.61538461525925,44.770751543401275 186.505494505167,44.48121309035923 186.55494505469687,43.72841239190893 183.73626373615116,43.72841239190893 180.22527472488582,44.828659215476364 176.56593406572938,45.870996260724496 173.1538461537566,46.62379399698693 169.89010988990776,47.66612760606222 167.17032967018895,48.30310827353969 164.64835164812393,48.99799542489927 164.005494505167,49.40334585349774 162.02747252723202,49.92451024707407 160.39560439554043,50.38776706694625 160.34615384601057,50.04032448894577 161.33516483497806,50.214045805623755 164.64835164812393,49.229624278261326 166.62637362605892,48.53473742248025 169.59340659319423,47.839849680196494 171.8186813185457,47.20286847057287 174.93406593380496,46.21844149928074 178.741758241551,45.349827987665776 181.16483516455628,44.59702849009773 183.88461538450792,43.8442279517767 185.26923076901585,44.53912079328438 186.25824175798334,44.654936180624645 186.65384615352377,43.8442279517767 183.24175824131817,43.902135722571984 179.68131868122146,45.002382195030805 175.87362637347542,46.04471890773857 172.11538461502641,47.08705362514593 169.6428571427241,47.72403497021878 166.62637362605892,48.592644694435876 163.75824175798334,49.171717074059416 161.87912087887526,49.8086959804059 160.69230769225396,50.156138706137426 159.95054945047013,50.09823160065571 160.741758241551,50.27195289876545 162.67032966995612,49.6349745344487 165.4890109889675,48.940088196017314 169.1978021976538,47.89775702584302 172.5604395600967,47.02914619311923 174.63736263709143,46.276349017280154 177.75274725235067,45.639365978655405 181.60989010962658,44.48121309035923 183.88461538450792,43.67050460272003 184.82417582394555,44.07585899735568 186.35714285681024,44.42330538126407 186.65384615352377,43.67050460272003 184.6758241755888,43.554689006123226 180.76923076901585,44.59702849009773 177.0109890110325,45.69727355847135 173.25274725235067,46.73960894095944 171.86813186784275,46.79751640377799 169.04945054929703,47.839849680196494 165.93406593380496,48.82427372026723 162.0769230767619,49.86660311673768 160.39560439554043,50.27195289876545 160.34615384601057,50.61939532903489 162.37362637347542,49.92451024707407 165.58791208756156,48.70845921948785 168.90109890094027,47.66612760606222 171.57142857112922,46.97123875503894 175.18131868098862,45.98681136482628 177.70329670305364,45.523550800804514 179.92857142840512,44.886566881497856 183.19230769202113,43.902135722571984 184.62637362605892,43.96004348696442 186.0604395600967,44.30748994468013 186.75274725235067,43.8442279517767 185.12087912065908,43.554689006123226 183.73626373615116,43.323057738656644 180.67032967018895,44.71284386521438 178.741758241551,44.770751543401275 175.28021978004836,46.16053397487849 172.26373626338318,46.73960894095944 170.97802197770216,47.492405476397835 167.1208791208919,48.47683014458744 163.9065934063401,49.113809863862116 160.69230769225396,50.32985998596996 158.6648351647891,50.50358121027239 158.6648351647891,51.48800043464871 158.4175824173726,52.64613842003746 158.81318681291305,54.2675274615176 159.65384615352377,57.51029106072383 160.39560439554043,60.231881319487 160.93956043943763,62.14277699019294 162.0769230767619,65.96454821486259 163.06593406572938,68.68609622109216 162.96703296666965,69.49676746613113 161.13736263709143,70.19162757293088 159.90109890094027,70.48115235567093 161.0879120877944,70.19162757293088 162.67032966995612,69.67048257606803 162.52197802183218,67.64380284724757 161.53296703263186,64.11157157685375 161.0384615380317,62.8376464805915 159.90109890094027,59.42119628190994 158.91208791197278,55.71519216877641 158.91208791197278,54.38334077951731 159.10989010962658,53.225206488976255 158.86263736221008,51.140558558749035 158.81318681291305,50.32985998596996 160.98901098873466,50.38776706694625 163.31318681314588,49.6349745344487 164.6978021976538,49.229624278261326 165.98351648333482,48.76636647299165 167.61538461502641,48.36101557011716 169.741758241551,47.72403497021878 172.06593406572938,47.08705362514593 174.09340659319423,46.68170147202909 177.80219780188054,45.523550800804514 181.5604395600967,44.59702849009773 184.18131868098862,43.67050460272003 185.26923076901585,44.30748994468013 186.65384615352377,44.07585899735568 186.0604395600967,43.67050460272003 183.53846153826453,43.8442279517767 180.8186813185457,44.53912079328438 177.80219780188054,45.58145839278586 174.48901098873466,46.39216403517639 171.22527472511865,47.20286847057287 167.31868131831288,48.41892286052462 163.85714285704307,49.229624278261326 162.52197802183218,49.577067373436876 160.44505494483747,50.38776706694625 162.62087912065908,49.6349745344487 163.56043956032954,49.229624278261326 166.62637362605892,48.41892286052462 169.14835164812393,47.89775702584302 171.1758241755888,47.20286847057287 172.51098901056685,47.144961050886195 173.5989010988269,46.79751640377799 176.9615384612698,45.870996260724496 179.7307692305185,45.060289842425846 183.0439560438972,43.8442279517767 184.1318681316916,43.72841239190893 184.92307692277245,44.24958221707493 186.25824175798334,44.48121309035923 186.60439560422674,44.133766743470915 185.66483516455628,43.38096556480741 182.49999999976717,43.72841239190893 181.51098901079968,44.01795124524506 180.62087912065908,44.59702849009773 179.33516483497806,44.944474541407544 176.9615384612698,45.40773559815716 173.54945054929703,46.33425652934238 170.58241758216172,47.08705362514593 168.95054945047013,47.318683291377965 165.73626373615116,47.3765906925546 163.75824175798334,48.36101557011716 161.8296703293454,49.287531476060394 160.04945054929703,50.156138706137426 161.58241758216172,50.09823160065571 163.41208791197278,49.519160206313245 165.98351648333482,48.82427372026723 169.2967032964807,47.955664365319535 172.51098901056685,47.144961050886195 175.7747252744157,46.21844149928074 179.13736263709143,45.29192037094617 182.8956043953076,44.133766743470915 184.32967032957822,43.8442279517767 186.01098901079968,44.71284386521438 187.0,44.365397666115314 186.45604395586997,43.67050460272003 184.6758241755888,43.67050460272003 182.49999999976717,44.191674483416136 179.97802197770216,44.770751543401275 177.0109890110325,45.870996260724496 175.0329670328647,46.62379399698693 172.9065934063401,47.02914619311923 169.2967032964807,48.47683014458744 168.50549450539984,48.592644694435876 165.63736263709143,48.88218096119817 162.47252747253515,49.8086959804059 160.79120879084803,50.445674141694326 160.04945054929703,50.61939532903489 161.23626373591833,50.09823160065571 162.2747252744157,49.98241737112403 165.4890109889675,48.99799542489927 168.50549450539984,48.18729366210755 172.06593406572938,47.318683291377965 175.57692307652906,46.10262644448085 178.741758241551,45.118197483883705 182.005494505167,43.96004348696442 183.1428571427241,43.78632017498603 185.12087912065908,44.133766743470915 186.8516483514104,44.48121309035923 186.70329670305364,43.8442279517767 184.28021978004836,43.61259680747753 180.76923076901585,44.654936180624645 177.45604395586997,45.523550800804514 174.98351648333482,46.16053397487849 171.62087912065908,47.144961050886195 168.95054945047013,48.07147902616998 166.47802197770216,48.47683014458744 164.6978021976538,48.76636647299165 162.67032966995612,49.6349745344487 160.1978021976538,50.38776706694625 162.32417582394555,49.86660311673768 165.4395604392048,48.99799542489927 168.50549450539984,48.129386347252876 170.9285714281723,47.43449808744481 172.95604395563714,46.79751640377799 175.2307692305185,45.98681136482628 178.09890109859407,45.29192037094617 181.16483516455628,44.42330538126407 184.1318681316916,43.323057738656644 185.61538461525925,43.8442279517767 186.60439560422674,43.61259680747753 185.61538461525925,43.43887338467175 184.1318681316916,43.554689006123226 181.06593406572938,44.53912079328438 177.80219780188054,45.523550800804514 176.76373626338318,45.813088699535 173.1538461537566,46.68170147202909 169.79120879084803,47.72403497021878 167.02197802159935,48.129386347252876 165.4890109889675,48.53473742248025 162.96703296666965,49.577067373436876 160.14835164812393,50.38776706694625 161.8296703293454,49.8086959804059 164.005494505167,49.287531476060394 167.26923076924868,48.47683014458744 170.58241758216172,47.72403497021878 172.75824175798334,46.97123875503894 174.83516483497806,46.39216403517639 177.505494505167,45.639365978655405 179.8296703293454,44.944474541407544 183.19230769202113,43.8442279517767 184.37912087887526,43.8442279517767 185.02197802183218,43.8442279517767 185.76373626338318,44.48121309035923 186.8516483514104,44.133766743470915 186.70329670305364,43.554689006123226 182.9945054941345,43.78632017498603 179.97802197770216,44.654936180624645 176.81318681291305,45.46564320259495 173.6483516478911,46.62379399698693 171.0769230767619,47.318683291377965 168.4065934063401,48.18729366210755 165.53846153826453,48.76636647299165 164.2527472525835,49.345438667805865 160.44505494483747,50.32985998596996 160.09890109859407,50.73520942335017 161.0879120877944,50.27195289876545 163.16483516455628,49.46125303290319 164.05494505446404,49.46125303290319 166.28021978004836,48.65055196004687 168.35714285704307,48.129386347252876 169.79120879084803,47.955664365319535 171.62087912065908,47.26077588414773 173.8956043953076,46.97123875503894 174.6868131866213,46.56588651583297 176.61538461502641,45.870996260724496 178.0494505490642,45.58145839278586 181.31318681291305,44.53912079328438 184.52747252723202,43.67050460272003 185.17032966995612,44.30748994468013 186.0604395600967,44.48121309035923 187.0,44.07585899735568 186.80219780188054,43.554689006123226 183.6868131866213,43.72841239190893 180.71978021948598,44.59702849009773 177.40659340657294,45.40773559815716 174.09340659319423,46.4500715348986 170.68131868098862,47.43449808744481 168.55494505469687,47.955664365319535 166.03296703263186,48.47683014458744 166.18131868098862,48.53473742248025" stroke="#4DD2FF" stroke-linecap="round" stroke-linejoin="round" stroke-width="0.5"><title>2024-12-28 17.4km</title><desc>9223370301500968999</desc></polyline><polyline fill="none" points="22.248991848668084,104.64226407917158 22.586350304307416,104.64226407917158 22.903864144929685,105.43233537462947 23.042776450165547,105.78089533226739 23.816716436645947,105.75765801900707 24.114385662251152,106.1759292788629 25.007393338833936,106.03650561450922 25.44397486979142,105.8970818612288 25.741644095396623,106.36182735952025 24.928014878882095,106.75686025596224 23.598425671225414,107.12865527094982 22.189458003616892,107.6166352681903 21.435362632153556,107.70958371565212 21.435362632153556,108.29051061610517 21.03847033146303,108.42993284248223 21.018625716445968,109.24322739003401 21.256761096883565,110.12622947212367 21.395673402119428,111.21835869125789 21.594119552406482,112.03164286243555 21.85209954797756,113.4026007574721 22.05054569838103,114.68060460974812 22.34821492386982,115.95860098931007 22.645884149475023,117.51542284656898 22.943553374963813,119.02576181238692 23.00308722013142,119.1651771907782 23.241222600569017,120.21078969439259 23.578581056324765,121.58169628768519 23.83656105166301,122.78994581771258 24.114385662251152,124.09113015033654 24.451744117890485,125.48524762596935 24.789102573529817,127.06523668319278 25.086771799135022,128.57550966563576 25.166150259203278,129.34225964797952 25.50350871484261,130.80604760085407 25.840867170481943,132.40923268414917 26.237759471288882,133.87300010105537 26.575117926928215,135.42969437788997 26.872787152417004,136.87020756551647 27.190300993155688,138.40364665801462 27.487970218644477,139.79767286354036 27.785639444249682,141.2149237272679 27.845173289300874,141.609893642526 27.90470713446848,142.19073045696132 28.162687129923142,143.53826592402766 28.301599435159005,144.04939789416676 28.817559426184744,144.00293140079884 29.154917881824076,144.04939789416676 29.57165479764808,144.23526376887457 30.504351704381406,144.09586437772668 31.29813630587887,143.9796981504478 32.80632704868913,143.77059878589353 33.818402415607125,143.56149922136683 34.5526531720534,143.491799322117 36.06084391486365,143.21299950276443 37.25152081716806,143.09683280646277 37.72779157804325,142.93419932796678 38.85893463518005,142.7947991072142 39.216137705836445,142.60893200800638 40.46634845319204,142.58569860944408 41.141065364470705,142.469531579889 42.35158688190859,142.28366420409293 43.2842837885255,142.23719733553298 43.80024377955124,142.02809630446427 44.63371761108283,141.7957615910127 45.7251714381855,141.7725281061139 47.213517566095106,141.33109142343164 48.36450523813255,140.81995309844206 49.01937753451057,140.40174812560144 49.7139390608063,140.09971070318716 50.38865597196855,139.5188683334709 50.76570365775842,139.1238946407102 51.59917748940643,138.31071126159804 52.69063131639268,137.2187173946004 53.08752361719962,136.8469735571125 53.62332822312601,136.98637757028337 54.04006513895001,136.6378673707659 54.33773436455522,136.8469735571125 54.873538970481604,138.24100968839775 55.449032806558535,139.61180321633583 56.044371257768944,141.00582171852875 56.5404866336612,142.07456321752397 57.076291239704005,143.58473251615942 57.21520354493987,144.142330851304 57.63194046076387,145.14135764537787 57.87007584120147,146.11714685156767 58.247123526991345,147.0 58.38603583211079,146.86060237142374 59.06075274338946,146.44240895255643 58.78292813291773,145.62925279285992 58.60432659764774,145.02519197370566 58.28681275702547,144.07263113716908 57.770852765999734,142.81803248351207 57.4334943103604,141.9583959163574 57.016757394652814,140.79671950983175 56.71908816904761,140.00677602767246 56.44126355845947,139.30976470265887 56.06421587278601,138.10160647524754 55.58794511191081,136.89344157137384 55.230742041254416,135.77820650338253 54.83384974044748,134.40738893808157 54.51633589994162,133.547719299866 53.980531293782406,132.3627637167374 53.76224052847829,131.5495551883214 53.603483608108945,130.78281294801855 53.30581438250374,130.1787111069425 53.04783438704908,129.17961593708606 52.650942086358555,128.34316065521853 52.73032054642681,127.57640716851165 52.47234055097215,127.20464693410031 52.0357590202475,126.53082989781979 51.99606979009695,126.5075947905716 51.83731286972761,126.27524358210212 51.57933287427295,125.53171805529564 51.46026518405415,124.95083697789232 51.16259595856536,124.11436551441147 50.587102122372016,122.78994581771258 50.22989905171562,121.46551809624361 50.031452901428565,120.93109762041422 49.634560600621626,119.95519598874671 49.09875599457882,118.51457133077201 48.801086769090034,117.72454732585174 48.74155292392243,116.93452046533639 48.285126778064296,115.65652979216247 47.9279237074079,114.541186370785 47.431808331399225,113.3561277492845 47.213517566095106,112.38019229500787 46.935692955506966,111.54367272293894 46.856314495322295,110.45154512939916 46.89600372547284,109.98680832788523 46.280820659245364,109.21999044499535 46.161752969026566,107.98842882056488 46.0228406637907,107.01246939672274 46.06252989382483,106.12945473389118 46.0228406637907,105.26967387084733 46.102219123975374,104.4331270816765 46.002996048657224,104.10780246547074 45.82439451338723,102.80649915794493 45.82439451338723,101.90022977693297 45.705326823168434,100.64538904468645 45.506880672764964,100.34329668112332 45.46719144273084,99.5299690112588 45.586259132949635,98.06597157689976 45.82439451338723,96.76463229011279 46.06252989382483,96.13719807918824 46.836469880188815,94.90556272216782 46.95553757052403,94.48726988963608 46.757091420236975,94.02249913655396 46.360199119430035,93.60420461355534 45.62594836298376,93.0 45.34812375251204,93.30210251561948 44.9512314517051,93.27886387535546 44.316203770576976,93.32534115340968 43.959000699804164,93.25562523269036 43.443040708778426,93.46477292793861 42.94692533288617,94.04573769765557 42.47065457201097,94.4407928588189 41.93484996596817,94.51050840130483 41.10137613443658,94.30136170706828 39.692408466828056,94.48726988963608 38.38266387430485,94.78937034901173 37.03323005174752,95.18442416565085 35.90208699461073,95.53300046960067 34.57249778707046,95.92805294178834 33.67949011037126,96.18367474914703 32.44912397803273,96.4857728631905 31.119534770492464,96.8575853532966 30.484507089364342,97.06672960100695 30.94093323510606,96.92730012479296 32.191143982461654,96.57872604505974 33.58026703516953,96.25338973564794 34.53280855703633,96.04424470954109 35.58457315398846,95.62595405672619 36.517270060721785,95.37033159697603 37.88654849829618,95.04499348842364 39.05738078558352,94.71965489542345 40.00992230733391,94.34783876749862 40.36712537810672,94.37107729399577 40.843396138981916,94.76613186692703 41.20059920963831,94.51050840130483 41.06168690440245,94.30136170706828 39.712253081728704,94.41755433969956 38.759711559978314,94.76613186692703 37.62856850284152,95.04499348842364 36.27913468028419,95.4632852532668 34.90985624270979,95.83509948322899 34.016848566010594,96.13719807918824 33.10399627429433,96.25338973564794 31.85378552682232,96.67167918734776 30.54404093453195,96.9970148739958 31.040156310307793,96.88082361296983 32.03238706220873,96.55548775332863 32.6475701284362,96.46253456157865 33.46119934495073,96.2069130804739 34.5526531720534,95.99776800988184 35.52503930893727,95.74214598504477 36.41804698552005,95.4632852532668 37.07291928178165,95.39357001479948 37.90639311331324,95.16118572559208 38.22390695393551,94.99851657620457 38.89862386533059,94.74289338244125 39.73209769686218,94.41755433969956 40.36712537810672,94.41755433969956 40.88308536913246,94.71965489542345 41.20059920963831,94.62670092277403 41.160909979604185,94.34783876749862 40.34728076297324,94.27812317307689 39.57334077660926,94.4407928588189 38.70017771492712,94.74289338244125 37.410277737420984,95.13794728310313 36.21960083511658,95.4632852532668 35.048768547945656,95.85833785157593 34.0763824111782,96.1604364154191 33.34213165473193,96.23015140926873 32.36974551784806,96.50901116241585 32.091920907376334,96.57872604505974 31.119534770492464,96.8343470912223 29.86932402313687,96.97377662670624 29.928857868304476,97.41530290225637 29.710567102883942,97.88006643902918 29.94870248332154,98.60044796751754 30.325750168995,100.04120389994932" stroke="#4DD2FF" stroke-linecap="round" stroke-linejoin="round" stroke-width="0.5"><title>2024-09-21 10.0km</title><desc>9223370309945626422</desc></polyline><polyline fill="none" points="142.36330275190994,135.14125724695623 141.5706422016956,135.31528932362562 140.9266055044718,135.60534266137984 137.90458715590648,136.64953340031207 137.50825688056648,136.64953340031207 137.2605504586827,136.3594806175679 136.7651376144495,134.50313915754668 136.5669724768959,132.8208242537803 136.3192660547793,132.1246924311854 135.37798165134154,127.42577939637704 134.93211009143852,125.9754894223297 134.78348623821512,124.8732664634008 134.43669724743813,123.71302936406573 134.28807339444757,122.0306811874616 133.99082568800077,120.17429097142303 133.09908256866038,116.75155495019862 133.0,116.17142807261553 133.1981651375536,115.88136440247763 133.99082568800077,115.64931335509755 134.88256880710833,115.59130057791481 136.5174311925657,115.24322378501529 137.2605504586827,115.0111724663875 138.49908256880008,114.19899207376875 138.94495412847027,114.02495326095959 139.6880733941216,113.90892735490343 140.629357798025,114.25700499926461 142.11559633002616,114.25700499926461 144.98899082560092,113.6188624817878 147.06972477049567,113.38681047217688 147.96146788983606,113.03873227257282 150.2899082568474,112.51661455701105 151.9247706423048,112.40058833023068 153.80733944941312,112.05250950146001 155.98715596320108,111.4143644052674 157.02752293576486,110.54416534374468 158.11743119265884,110.1960853303899 160.44587155990303,110.48615202365909 162.17981651355512,109.84800509514753 163.56697247712873,109.5579380627023 164.6073394494597,109.09383048990276 167.97614678903483,108.10760058683809 170.25504587148316,107.7595190188149 171.39449541294016,107.17938257852802 172.3357798163779,106.88931412721286 174.2183486239519,106.71527298208093 175.85321100917645,105.96109404595336 179.1724770644214,105.26492794853402 183.53211009176448,103.98862112918869 184.37431192677468,103.814579058846 185.46422018366866,104.45273304532748 185.86055045877583,104.56876096263295 186.40550458733924,104.33670510334196 186.8513761467766,103.87259308842476 186.8018348624464,103.64053693285678 186.35596330277622,103.40848067874322 184.52293577999808,103.35046659968793 181.10458715585992,104.45273304532748 180.26238532108255,104.85883064800873 176.44770642207004,105.78705260489369 175.06055045872927,106.42520428390708 174.0697247707285,106.54123178182635 172.3357798163779,107.12136890063994 171.54311926616356,107.12136890063994 167.72844036691822,108.28164128749631 166.44036697247066,108.45568193279905 164.55779816489667,109.15184395812685 163.07155963312835,109.49992463761009 161.23853210988455,110.25409868144197 160.1981651375536,110.25409868144197 160.39633027534,110.42813869740348 160.79266055044718,110.37012536491966 162.22935779811814,109.73197830066783 165.5981651376933,108.74574955116259 166.44036697247066,108.51369546871865 168.71926605515182,108.28164128749631 171.69174311938696,107.35342357546324 172.58348623872735,106.83130041830009 174.1192660550587,106.54123178182635 177.9339449540712,105.6130111082457 178.82568807341158,105.26492794853402 179.42018348630518,105.20691406691913 180.51009174296632,104.80081672332017 182.24403669731691,104.39471907744883 184.67155963322148,103.87259308842476 185.36513761477545,104.51074700709432 186.15779816522263,104.68478885531658 186.7027522935532,104.51074700709432 186.9504587156698,104.04663514019921 186.8513761467766,103.814579058846 186.40550458733924,103.64053693285678 183.92844036687165,103.58252287865616 183.0366972477641,103.64053693285678 179.5192660551984,104.97485847916687 175.95229357806966,105.7290387788089 174.76330275228247,106.19314921431942 171.64220183482394,107.00534152617911 169.0660550459288,107.93355983047513 167.38165137614124,108.33965484198416 165.64770642202348,108.57170899852645 164.1614678897895,108.97780353494454 161.68440366955474,109.90601848304505 160.74311926588416,110.13807197334245 160.2972477064468,110.42813869740348 160.94128440367058,110.3121120261494 161.93211009167135,109.90601848304505 163.02201834856533,109.73197830066783 163.8642201833427,109.26787087606499 165.10275229346007,108.86177655553911 170.99816513783298,107.52746451675193 172.8807339449413,106.77328670327552 174.5155963303987,106.65725925483275 175.65504587162286,106.13513543159934 177.24036697275005,105.9030802383204 180.26238532108255,104.80081672332017 181.64954128442332,104.51074700709432 182.8385321102105,104.10464914509794 184.52293577999808,103.814579058846 185.41467889910564,104.27869112294866 186.05871559632942,104.39471907744883 186.4550458714366,104.16266314394306 186.653211009223,103.75656502292259 186.60366972466,103.58252287865616 186.35596330277622,103.46649475145387 184.42385321110487,103.58252287865616 181.79816513764672,104.04663514019921 180.26238532108255,104.85883064800873 179.27155963308178,104.97485847916687 172.58348623872735,107.06335521646542 171.09724770649336,107.29540991608519 170.05688073392957,107.81753262883285 167.77798165148124,108.22362772666384 163.4183486236725,109.44191120652249 160.5449541285634,110.42813869740348 162.47706422023475,109.73197830066783 163.46788990823552,109.44191120652249 164.4091743119061,108.97780353494454 165.89541284390725,108.80376305646496 168.32293577981181,108.10760058683809 169.7100917431526,107.93355983047513 171.59266055026092,107.12136890063994 172.73211009148508,106.88931412721286 173.6238532110583,106.54123178182635 175.75412844028324,106.19314921431942 178.9247706423048,105.14890017930884 181.20366972475313,104.85883064800873 182.9871559634339,103.98862112918869 183.58165137586184,103.814579058846 184.37431192677468,103.69855098094558 185.31559633021243,104.22067713661818 186.20733944955282,104.39471907744883 186.5541284403298,104.39471907744883 186.7522935778834,104.16266314394306 186.7522935778834,103.814579058846 186.40550458733924,103.64053693285678 184.07706422009505,103.46649475145387 182.7394495413173,103.814579058846 180.06422018352896,104.74280279246159 171.98899082583375,106.9473278298392 170.15596330282278,107.64349178015254 165.64770642202348,108.51369546871865 164.26055045844987,109.20985742012272 161.68440366955474,110.08005861006677 160.2477064221166,110.3121120261494 160.79266055044718,110.42813869740348 162.27889908244833,109.73197830066783 163.17064220178872,109.5579380627023 164.26055045844987,109.15184395812685 166.44036697247066,108.57170899852645 167.87706422014162,108.33965484198416 169.0660550459288,107.93355983047513 172.1871559631545,107.29540991608519 173.42568807350472,107.17938257852802 175.85321100917645,106.25116299104411 180.01467889919877,105.0328723853454 182.04587155976333,104.62677491211798 183.58165137586184,103.98862112918869 184.52293577999808,103.93060711200815 185.46422018366866,104.51074700709432 186.05871559632942,104.68478885531658 186.4550458714366,104.62677491211798 186.7522935778834,104.27869112294866 186.8018348624464,103.75656502292259 186.25688073411584,103.46649475145387 184.32477064221166,103.46649475145387 181.64954128442332,104.22067713661818 180.65871559618972,104.68478885531658 179.86605504597537,104.74280279246159 173.9211009175051,106.48321803595172 173.1284403668251,106.83130041830009 171.24587155971676,107.23739625036251 169.51192660536617,107.87554623285541 165.05321100912988,108.86177655553911 163.81467889877968,109.26787087606499 160.346788990777,110.1960853303899 160.99082568800077,110.1960853303899 164.1614678897895,109.03581701562507 166.24220183468424,108.86177655553911 167.9266055044718,108.22362772666384 170.25504587148316,107.7595190188149 171.98899082583375,107.17938257852802 174.0697247707285,106.83130041830009 175.60550458705984,106.13513543159934 177.09174311929382,105.96109404595336 179.86605504597537,104.97485847916687 181.45137614686973,104.74280279246159 183.82935779821128,103.814579058846 184.52293577999808,103.814579058846 186.0091743117664,104.45273304532748 186.40550458733924,104.33670510334196 186.8513761467766,103.93060711200815 186.7522935778834,103.75656502292259 186.40550458733924,103.58252287865616 184.96880733966827,103.46649475145387 181.84770642220974,103.98862112918869 180.11376146785915,104.74280279246159 176.89357798174024,105.84506642469205 169.51192660536617,107.64349178015254 167.9266055044718,108.16561415983597 165.6972477065865,108.57170899852645 165.00366972456686,108.80376305646496 163.3688073393423,109.20985742012272 160.2972477064468,110.37012536491966 161.08990825689398,110.1960853303899 162.17981651355512,109.67396489414386 163.46788990823552,109.32588432566263 164.3100917430129,109.26787087606499 165.64770642202348,108.80376305646496 167.5302752291318,108.39766839047661 168.42201834870502,108.04958700755378 170.25504587148316,107.81753262883285 171.29541284404695,107.35342357546324 173.3266055046115,107.00534152617911 176.54678899096325,105.9030802383204 181.69908256898634,104.74280279246159 182.49174311943352,104.51074700709432 183.48256880720146,103.93060711200815 184.67155963322148,103.814579058846 185.31559633021243,104.45273304532748 186.1082568806596,104.68478885531658 186.653211009223,104.56876096263295 186.9504587156698,104.16266314394306 187.0,103.87259308842476 186.7027522935532,103.52450881822733 186.20733944955282,103.46649475145387 184.07706422009505,103.58252287865616 182.78899082588032,103.814579058846 181.84770642220974,104.27869112294866 177.48807339463383,105.55499726376729 173.2275229357183,106.65725925483275 171.8899082567077,107.06335521646542 165.5981651376933,108.62972252239706 164.70642201812007,108.91979004832683 163.7155963301193,109.09383048990276 162.57614678912796,109.61595148150809 160.346788990777,110.37012536491966 160.79266055044718,110.37012536491966 163.8642201833427,109.26787087606499 166.58899082569405,108.45568193279905 169.36330275214277,107.87554623285541 170.50275229359977,107.52746451675193 171.39449541294016,107.41143722872948 172.4844036696013,106.9473278298392 173.52477064239793,106.77328670327552 178.33027522917837,105.55499726376729 179.3211009176448,105.43896955618402 180.70825688075274,104.85883064800873 182.09541284409352,104.56876096263295 183.33394495397806,104.10464914509794 184.42385321110487,103.93060711200815 185.56330275232904,104.39471907744883 186.25688073411584,104.45273304532748 186.7522935778834,104.22067713661818 186.90091743133962,103.93060711200815 186.8513761467766,103.75656502292259 186.4550458714366,103.64053693285678 185.11743119265884,103.46649475145387 184.57247706432827,103.46649475145387 183.38348623854108,103.69855098094558 181.55045871576294,104.45273304532748 175.01100917439908,106.13513543159934 170.75045871571638,107.41143722872948 168.4715596330352,107.87554623285541 164.0623853211291,109.32588432566263 162.72477064235136,109.5579380627023 161.33761467877775,110.02204524067929 160.2972477064468,109.96403186500538 160.14862385345623,110.08005861006677 160.2477064221166,110.37012536491966 160.5944954128936,110.37012536491966 162.72477064235136,109.73197830066783 164.1119266054593,109.15184395812685 166.04403669736348,108.86177655553911 169.115596330259,107.99157342198305 170.35412844037637,107.87554623285541 171.44403669727035,107.35342357546324 174.5155963303987,106.59924552141456 175.90275229350664,106.01910784718348 177.09174311929382,105.84506642469205 178.28073394484818,105.3229418239207 180.16330275242217,104.9168445665855 182.6403669724241,103.98862112918869 184.22568807355128,103.64053693285678 184.52293577999808,103.58252287865616 185.16697247698903,104.04663514019921 185.76146788988262,104.27869112294866 186.5541284403298,104.27869112294866 186.9504587156698,103.93060711200815 186.8513761467766,103.69855098094558 186.60366972466,103.64053693285678 185.71192660555243,103.58252287865616 184.27522935788147,103.64053693285678 182.9376146788709,103.814579058846 182.49174311943352,103.93060711200815 181.30275229364634,104.51074700709432 178.13211009162478,105.55499726376729 175.11009174305946,106.36719052575063 173.6238532110583,106.65725925483275 172.03853211016394,107.06335521646542 168.02568807336502,108.45568193279905 165.99449541280046,108.68773603980662 164.75596330268309,109.09383048990276 163.26972477068193,109.38389776909025 162.27889908244833,109.84800509514753 160.5449541285634,110.42813869740348 162.77431192668155,109.73197830066783 164.4091743119061,109.03581701562507 166.93577981647104,108.74574955116259 167.9266055044718,108.28164128749631 169.5614678899292,107.87554623285541 170.40366972470656,107.52746451675193 173.82201834884472,106.83130041830009 174.96146788983606,106.36719052575063 176.54678899096325,106.01910784718348 178.33027522917837,105.38095569319557 182.6403669724241,104.33670510334196 184.32477064221166,103.75656502292259 186.0091743117664,104.39471907744883 186.3064220182132,104.39471907744883 186.7027522935532,104.22067713661818 186.9504587156698,103.87259308842476 186.7522935778834,103.64053693285678 185.71192660555243,103.40848067874322 184.07706422009505,103.64053693285678 182.8880733945407,103.93060711200815 180.31192660564557,104.97485847916687 179.023853211198,105.20691406691913 176.84403669717722,105.96109404595336 175.06055045872927,106.25116299104411 173.7229357799515,106.83130041830009 171.74128440371715,107.35342357546324 169.61100917425938,108.04958700755378 164.5082568807993,109.15184395812685 161.88256880710833,110.13807197334245 160.346788990777,110.60217865777668 160.49541284400038,110.60217865777668 161.38715596334077,110.02204524067929 163.61651376145892,109.15184395812685 167.18348623858765,108.45568193279905 171.04770642193034,107.41143722872948 172.7816513760481,107.17938257852802 174.41651376150548,106.54123178182635 175.35779816494323,106.30917676136596 176.39816513773985,106.19314921431942 177.884403669741,105.6130111082457 180.95596330263652,104.74280279246159 182.9376146788709,104.39471907744883 184.27522935788147,103.75656502292259 184.52293577999808,103.814579058846 185.26605504611507,104.33670510334196 186.15779816522263,104.56876096263295 186.7027522935532,104.45273304532748 186.90091743133962,104.10464914509794 186.90091743133962,103.87259308842476 186.50458715599962,103.64053693285678 184.22568807355128,103.58252287865616 181.60000000009313,104.33670510334196 180.01467889919877,105.0328723853454 178.67706422018819,105.3229418239207 177.33944954141043,105.84506642469205 176.59633027529344,106.01910784718348" stroke="#4DD2FF" stroke-linecap="round" stroke-linejoin="round" stroke-width="0.5"><title>2023-11-26 12.7km</title><desc>10282459870</desc></polyline><polyline fill="none" points="26.619047618936747,194.6653133025975 24.095238095149398,195.1113922072691 21.857142857043073,195.3344315175782 19.666666666744277,195.89202937786467 16.47619047621265,196.17082808574196 16.04761904780753,193.88467430596938 15.52380952378735,191.15242866636254 14.95238095219247,188.30864767782623 14.761904761893675,186.52430663455743 14.142857142724097,183.5132173562888 13.571428571362048,181.33853101351997 13.142857142724097,178.88502790185157 13.571428571362048,176.37575148179894 15.285714285681024,176.04118038516026 17.142857142724097,175.37203755154042 19.761904761893675,174.53560780873522 21.90476190461777,174.03374932258157 23.809523809468374,173.58765248733107 26.333333333255723,173.0857930938946 28.47619047621265,172.5839332200121 30.57142857159488,172.19359743065434 33.09523809538223,171.63597437052522 35.33333333325572,171.1341131089721 37.38095238083042,170.6880138066481 40.42857142863795,169.85157659213291 44.14285714295693,169.01513804320712 46.761904761893675,168.51327427342767 48.85714285704307,167.9556472992408 50.90476190461777,167.45378251519287 53.66666666674428,166.61734014138347 55.9047619048506,166.05971115088323 58.8571428572759,164.94445139059098 62.09523809538223,163.94071557821007 64.1904761902988,163.6061365470523 66.61904761893675,164.6098729998921 66.04761904780753,165.83665938855847 62.42857142887078,164.83292528399033 59.61904761893675,165.7251334718312 57.809523809701204,166.11547407659236 55.99999999976717,166.67310300772078 54.14285714295693,167.23073134606238 51.61904761893675,168.067172741401 49.47619047621265,168.51327427342767 47.8571428572759,169.18242585967528 45.9523809524253,169.62852644285886 43.33333333325572,170.24191412498476 41.238095238339156,170.74377624026965 39.38095238083042,171.3014002495329 39.85714285704307,170.79953866783762 41.52380952378735,170.1861516381614 44.0,169.74005152942846 46.0,169.29395104106516 48.47619047597982,168.56903693813365 51.47619047621265,167.7883590911515 53.9523809524253,167.17496853903867 55.9047619048506,166.61734014138347 58.47619047644548,165.83665938855847 60.42857142840512,165.2232665529009 62.42857142887078,164.721399153932 64.8571428572759,164.83292528399033 64.47619047621265,164.721399153932 62.238095238106325,164.721399153932 60.38095238083042,165.3905555792153 58.47619047644548,166.0039482190623 56.809523809468374,166.50581439066445 54.666666666511446,167.11920572584495 52.9047619048506,167.56530806439696 50.809523809468374,168.2902235549991 48.38095238106325,169.01513804320712 46.47619047621265,169.46123876870843 44.57142857136205,169.96310163120506 42.190476190531626,170.52072647056775 40.42857142863795,170.96682591515128 39.38095238083042,171.24563787522493 40.714285714086145,170.57648892188445 42.761904761660844,170.01886414177716 45.809523809468374,169.51700133259874 47.666666666511446,168.95937542576576 50.42857142863795,168.2344608604326 52.761904761893675,167.5095452927635 54.47619047621265,166.95191725093173 56.333333333488554,166.3385257201735 59.238095238106325,165.4463185762288 61.04761904780753,164.88868834025925 63.14285714295693,164.33105751127005 64.33333333325572,164.6098729998921 62.285714285913855,164.721399153932 60.38095238083042,165.3905555792153 58.61904761893675,165.9481852814206 56.42857142863795,166.50581439066445 54.57142857159488,167.11920572584495 52.238095238106325,167.56530806439696 50.333333333488554,168.12293545372086 48.52380952378735,168.73632489715237 46.09523809538223,169.46123876870843 43.9047619048506,169.74005152942846 41.85714285704307,170.29767660592915 40.0476190475747,170.85530108964304 39.42857142863795,171.1341131089721 41.809523809468374,170.35343908099458 43.52380952378735,169.90733911452116 45.90476190461777,169.34971362294164 48.52380952378735,168.68056225014152 50.238095238106325,168.1786981599871 52.38095238106325,167.5095452927635 54.238095238106325,166.95191725093173 55.8571428572759,166.56157726905076 58.14285714295693,166.0039482190623 60.52380952378735,165.27902956766775 62.66666666674428,164.66563607996795 64.52380952378735,164.66563607996795 63.95238095219247,164.66563607996795 62.0476190475747,164.77716222190065 59.61904761893675,165.33479257649742 57.761904761893675,165.9481852814206 55.809523809701204,166.56157726905076 53.57142857159488,167.45378251519287 51.761904761893675,167.89988456916763 49.42857142840512,168.45751160255168 47.61904761893675,168.95937542576576 45.14285714295693,169.46123876870843 43.0476190475747,170.01886414177716 41.33333333325572,170.52072647056775 39.61904761893675,171.0783507169108 39.85714285704307,171.02258831897052 41.285714285913855,170.46496401337208 42.809523809468374,169.96310163120506 44.42857142863795,169.5727638908429 46.38095238106325,169.34971362294164 48.761904761893675,168.84785017336253 50.8571428572759,168.0114100232604 52.9047619048506,167.34225694241468 55.190476190531626,166.72886586823734 57.52380952378735,166.05971115088323 60.285714285913855,165.55784455221146 62.42857142887078,164.77716222190065 64.71428571431898,164.88868834025925 64.14285714295693,164.77716222190065 62.1428571427241,164.721399153932 60.38095238083042,165.2232665529009 58.190476190531626,165.89242233795812 56.66666666674428,166.39428861631313 54.9047619048506,166.95191725093173 53.38095238083042,167.6210708299186 51.809523809468374,168.3459862434538 49.9047619048506,168.84785017336253 47.238095237873495,169.23818845342612 45.0476190475747,169.51700133259874 43.0952380951494,170.29767660592915 40.61904761893675,170.63225136726396 38.9523809524253,171.41292498010444 40.285714285681024,170.79953866783762 41.761904761893675,170.1861516381614 43.9047619048506,169.96310163120506 46.14285714295693,169.40547619888093 48.04761904734187,168.84785017336253 49.9047619048506,168.2344608604326 52.61904761916958,167.56530806439696 54.9047619048506,166.95191725093173 57.61904761916958,166.11547407659236 59.57142857136205,165.50208156718872 61.238095238106325,164.94445139059098 63.0,164.66563607996795 65.14285714295693,164.94445139059098 63.8571428572759,164.66563607996795 61.66666666674428,164.94445139059098 59.57142857136205,165.61360753135523 57.57142857136205,166.11547407659236 55.52380952378735,166.8403915715753 53.761904761893675,167.45378251519287 52.0476190475747,168.0114100232604 49.9047619048506,168.73632489715237 48.0952380951494,169.34971362294164 45.57142857159488,169.68428898899583 43.809523809468374,170.13038914528443 41.761904761893675,170.57648892188445 39.57142857136205,171.1341131089721 40.0,170.91106350539485 41.90476190461777,170.52072647056775 43.66666666674428,169.90733911452116 46.33333333325572,169.29395104106516 48.285714285681024,168.79208753810963 50.285714285681024,168.12293545372086 52.1428571427241,167.73259634326678 54.0476190475747,167.23073134606238 56.333333333488554,166.39428861631313 58.714285714318976,165.89242233795812 60.809523809468374,165.2232665529009 62.761904761893675,164.721399153932 65.09523809538223,164.83292528399033 63.714285714318976,164.66563607996795 61.0952380951494,164.94445139059098 59.285714285913855,165.61360753135523 57.57142857136205,166.2269999102573 55.190476190531626,166.8403915715753 53.38095238083042,167.5095452927635 51.714285714086145,168.12293545372086 49.33333333325572,168.68056225014152 47.47619047621265,169.23818845342612 45.38095238083042,169.46123876870843 42.809523809468374,170.35343908099458 40.61904761893675,170.74377624026965 39.09523809538223,171.3014002495329 41.47619047597982,170.57648892188445 43.9523809524253,169.85157659213291 45.809523809468374,169.40547619888093 47.61904761893675,168.95937542576576 49.61904761916958,168.3459862434538 51.47619047621265,167.84412183309905 53.714285714318976,167.23073134606238 55.52380952378735,166.7846287228167 57.47619047621265,166.1712369963061 59.761904761893675,165.50208156718872 61.42857142863795,165.00021443492733 63.238095238106325,164.721399153932 65.09523809538223,164.83292528399033 63.9047619048506,164.5541099141119 61.190476190531626,164.83292528399033 59.0476190475747,165.61360753135523 57.285714285681024,166.11547407659236 55.42857142863795,166.72886586823734 53.333333333488554,167.23073134606238 51.00000000023283,167.89988456916763 48.809523809701204,168.56903693813365 46.52380952402018,169.23818845342612 44.285714285681024,169.68428898899583 42.57142857159488,170.1861516381614 40.8571428572759,170.74377624026965 39.285714285681024,171.1898754949798 41.14285714295693,170.57648892188445 43.00000000023283,170.1861516381614 44.666666666511446,169.62852644285886 46.666666666511446,169.01513804320712 48.761904761893675,168.40174892602954 51.238095238106325,167.73259634326678 54.33333333325572,167.06344290677225 56.714285714318976,166.39428861631313 58.9523809524253,165.7251334718312 61.14285714295693,165.00021443492733 62.9047619048506,164.721399153932 64.71428571431898,164.721399153932 63.8571428572759,164.6098729998921 62.33333333325572,164.66563607996795 59.9047619048506,165.3905555792153 58.14285714295693,165.9481852814206 56.190476190531626,166.61734014138347 53.9523809524253,167.007680081937 52.238095238106325,167.56530806439696 50.0952380951494,168.12293545372086 48.333333333488554,168.68056225014152 46.14285714295693,169.29395104106516 44.285714285681024,169.51700133259874 42.14285714295693,170.24191412498476 40.47619047597982,170.74377624026965 39.61904761893675,171.24563787522493 41.809523809468374,170.52072647056775 43.42857142863795,169.90733911452116 45.0952380951494,169.51700133259874 47.42857142863795,168.90361280250363 49.33333333325572,168.40174892602954 51.1428571427241,167.9556472992408 52.9047619048506,167.39801973180147 55.57142857136205,166.7846287228167 57.47619047621265,166.11547407659236 59.809523809701204,165.3905555792153 61.38095238083042,164.88868834025925 63.190476190531626,164.6098729998921 65.09523809538223,164.94445139059098 63.0952380951494,164.6098729998921 61.04761904780753,164.94445139059098 58.42857142863795,165.9481852814206 56.761904761893675,166.50581439066445 54.238095238106325,167.007680081937 52.09523809538223,167.56530806439696 50.190476190531626,168.12293545372086 48.38095238106325,168.62479959713528 46.61904761916958,169.12666326016188 44.61904761916958,169.40547619888093 43.0476190475747,169.90733911452116 40.761904761893675,170.6880138066481 39.1428571427241,171.24563787522493 40.57142857136205,170.74377624026965 42.761904761660844,170.13038914528443 44.761904761893675,169.74005152942846 46.809523809468374,169.01513804320712 49.38095238083042,168.2902235549991 51.47619047621265,167.5095452927635 55.285714285681024,167.06344290677225 57.9523809524253,165.89242233795812 60.238095238106325,165.33479257649742 61.809523809468374,164.77716222190065 64.0,164.6098729998921 64.1904761902988,164.4983468222781 62.238095238106325,164.66563607996795 60.52380952378735,164.94445139059098 58.33333333325572,165.61360753135523 56.90476190461777,166.28276281815488 54.714285714086145,166.7846287228167 52.285714285681024,167.67683358956128 49.57142857136205,168.2902235549991 45.38095238083042,169.12666326016188 43.0952380951494,170.01886414177716 40.52380952378735,170.6880138066481 39.285714285681024,171.24563787522493 40.42857142863795,170.79953866783762 42.09523809538223,170.35343908099458 44.761904761893675,169.51700133259874 46.9523809524253,168.68056225014152 48.90476190461777,168.45751160255168 52.1428571427241,167.6210708299186 54.714285714086145,166.72886586823734 57.285714285681024,165.9481852814206 59.33333333325572,165.50208156718872 61.0,165.0559774734429 62.761904761893675,164.66563607996795 65.19047619053163,164.83292528399033 64.14285714295693,164.6098729998921 62.42857142887078,164.66563607996795 60.238095238106325,165.0559774734429 58.14285714295693,165.83665938855847 56.238095238106325,166.28276281815488 54.666666666511446,166.7846287228167 53.09523809538223,167.28649414732354 51.33333333325572,167.89988456916763 48.85714285704307,168.45751160255168 46.761904761893675,169.01513804320712 44.666666666511446,169.51700133259874 42.809523809468374,170.0746266465285 41.0952380951494,170.46496401337208 39.09523809538223,171.02258831897052 40.52380952378735,170.6880138066481 42.52380952402018,169.96310163120506 45.38095238083042,169.40547619888093 47.714285714318976,168.79208753810963 49.52380952378735,168.1786981599871 51.42857142863795,167.73259634326678 53.42857142840512,167.007680081937 56.190476190531626,166.39428861631313 58.238095238106325,165.89242233795812 60.333333333488554,165.33479257649742 62.61904761893675,164.77716222190065 65.14285714295693,164.94445139059098 64.0,164.6098729998921 61.809523809468374,164.77716222190065 59.238095238106325,165.61360753135523 57.52380952378735,166.0039482190623 55.61904761916958,166.56157726905076 53.85714285704307,167.007680081937 52.09523809538223,167.56530806439696 49.714285714318976,168.12293545372086 47.38095238106325,168.84785017336253 45.61904761893675,169.18242585967528 44.238095238106325,169.68428898899583 42.285714285681024,170.24191412498476 40.66666666674428,170.6880138066481 39.66666666674428,170.96682591515128 41.238095238339156,170.57648892188445 43.0476190475747,169.85157659213291 45.714285714318976,169.12666326016188 47.47619047621265,168.68056225014152 49.238095238106325,168.2344608604326 50.809523809468374,167.73259634326678 52.0476190475747,167.28649414732354 54.52380952402018,166.61734014138347 56.47619047597982,166.2269999102573 58.0952380951494,165.78089643304702 60.190476190531626,165.27902956766775 61.8571428572759,164.721399153932 63.42857142863795,164.5541099141119 65.0476190475747,164.77716222190065 63.666666666511446,164.6098729998921 61.809523809468374,164.721399153932 60.0476190475747,165.27902956766775 58.42857142863795,165.78089643304702 56.714285714318976,166.2269999102573 55.285714285681024,166.61734014138347 53.61904761893675,167.17496853903867 51.8571428572759,167.6210708299186 50.42857142863795,167.9556472992408 49.0,168.45751160255168 47.52380952378735,168.84785017336253 45.61904761893675,169.23818845342612 43.9047619048506,169.79581406380748 42.8571428572759,170.0746266465285 41.33333333325572,170.40920155012282 39.66666666674428,170.96682591515128 40.190476190298796,170.96682591515128" stroke="#4DD2FF" stroke-linecap="round" stroke-linejoin="round" stroke-width="0.5"><title>2023-04-28 16.3km</title><desc>9223370354162539235</desc></polyline><polyline fill="none" points="145.15755830309354,180.074227715726 143.77783837052993,180.22109983523842 142.10545057361014,180.51484393377905 139.6386785733048,181.10233156871982 136.2520932846237,180.46588659693953 136.04304481018335,178.94820657579112 135.54132847115397,177.38156388729112 135.0814218269661,175.17846358762472 134.5797054877039,173.17118524797843 134.11979884374887,171.3597314292565 133.82713097915985,169.00972666588495 133.49265341996215,166.70866871243925 133.19998555537313,164.79927146685077 134.4542764031794,163.3304989664466 135.9594254202675,162.93882550820126 137.7154326068703,162.54715171692078 139.3042010141071,162.30235542799346 140.60030155652203,162.00859970969032 142.02183118392713,161.66588446788955 143.77783837052993,161.32316897111014 145.1993679977022,160.98045321917743 146.5372782354243,160.7356560972985 148.2932854220271,160.44189937924966 150.50919925281778,160.00126395074767 152.09796765982173,159.7075067642145 153.64492637198418,159.2179110366269 155.60998203326017,158.72831478828448 157.03151166066527,158.43455678940518 158.53666067752056,158.1407986030099 159.91638061008416,157.74912072977168 161.08705206797458,157.4064023172832 162.5922010850627,157.06368364949594 164.39001796673983,156.6230449877621 166.0624057634268,156.28032573696692 167.69298386573792,156.03552611591294 169.1981328825932,155.30112647166243 171.28861762862653,154.4688054585422 172.87738603563048,154.0771244612115 174.71701261214912,153.53856254552375 176.89111674809828,153.0489602573507 178.2708366806619,153.09792050969554 180.19408264686354,153.391681913723 181.36475410452113,154.0771244612115 182.15913830813952,154.86048612263403 183.37161946087144,157.30848272397998 183.8315261050593,159.11999182848376 184.50048122368753,160.78461553208763 184.6677200035192,162.79194787560846 184.87676847795956,164.30968115405994 185.08581695263274,166.46387463618885 184.75133939343505,168.2263890792674 183.28800007118843,168.76493381313048 181.2393250199966,169.64618747355416 179.77598569775,170.18473054684 178.0199785111472,170.72327299014432 176.5148294940591,171.01702314830618 174.59158352739178,171.4576480339456 173.211863595061,171.84931424524984 171.66490488289855,172.24098012314062 170.20156556088477,172.63264566785074 168.98908440792002,173.0243108794093 167.60936447558925,173.41597575778724 166.0624057634268,173.9055563872971 163.84649193286896,174.6888843116467 161.83962657651864,175.22742148654652 159.58190305065364,175.12950568349333 158.87113823695108,173.70972419797909 158.36942189815454,172.28993833437562 157.90951525396667,170.82118973036995 157.53322799969465,168.86285096983192 156.98970196559094,167.3451327010407 156.44617593172006,165.8763683225261 155.90264989761636,164.60343540416216 155.56817233818583,163.2325806330773 155.02464630431496,161.81276245997287 154.69016874511726,160.39293990810984 155.7354111180175,158.9731129774882 156.8224631859921,158.48351646895753 158.16037342348136,158.18975831384887 159.4982836607378,157.89599997139885 161.1706714576576,157.4064023172832 162.71763016982004,157.01472381906933 164.0137307124678,156.52512522778125 165.39345064479858,156.28032573696692 166.77317057712935,155.93760623104754 168.44555837404914,155.49696649122052 169.99251708597876,154.86048612263403 171.5394757981412,154.37088524037972 172.96100542554632,154.02816431302927 174.50796413770877,153.58752274574363 175.88768407003954,153.29376146648428 177.56007186695933,153.0489602573507 179.39969844347797,153.19584099843632 180.6957989858929,153.78336349443998 182.24275769805536,154.81152605789248 183.4970485456288,156.42720544696203 183.58066793554462,158.23871801942005 184.166003664257,160.0502234636515 184.50048122368753,161.56796578067588 184.79314908827655,163.03674390399829 185.00219756294973,164.60343540416216 185.33667512214743,166.0232449712057 185.21124603739008,167.58992630871944 185.2948654270731,169.9888967750303 185.37848481698893,171.75139772359398 185.42029451206326,173.17118524797843 185.62934298673645,174.6888843116467 185.79658176656812,176.0107471619558 185.88020115625113,177.5773945147812 185.96382054593414,178.99716407383676 186.29829810536467,180.51484393377905 186.5909659699537,181.98356161586707 186.75820474955253,183.94184457097435 186.6745853596367,185.36159450534615 186.46553688519634,186.7323833918199 184.9603878678754,188.73960261276807 183.5388582404703,189.42499253802816 182.15913830813952,190.1593377541867 180.98846685048193,190.7957693276694 179.52512752800249,191.33428766435827 177.39283308712766,192.26445421687094 176.13854223955423,192.9008828808146 174.71701261214912,193.4883547128702 173.25367329013534,194.12478168527014 172.04119213717058,194.6632961287687 170.41061403532512,195.34867723679054 168.9472747130785,195.98510163804167 167.60936447558925,196.3277913358179 165.2262118649669,197.11108111595968 164.39001796673983,197.55168103196775 163.17753681377508,198.04123599955346 161.54695871192962,198.77556747521157 160.08361938991584,199.46094246258144 158.82932854210958,199.99945066552027 157.9931346438825,200.34213737602113 156.48798562656157,201.02751003179583 154.94102691439912,201.8107918179303 154.06302332109772,202.20243221140117 152.64149369392544,202.78989217698108 151.387202846352,203.18153173776227 150.2165313884616,203.573170965421 149.00405023549683,203.91585501638474 147.6243303033989,204.356448421604 145.61746494704857,205.43345274828607 144.530412879074,206.2167270402424 141.56192453973927,205.9719539672369 141.3946857599076,204.50331279626698 141.0602082007099,203.13257681098185 140.64211125136353,201.8107918179303 140.39125308184884,200.4400478178868 140.09858521749265,198.82452286526677 139.80591735290363,197.40481444011675 139.4296300986316,195.7892788388708 139.0533428445924,194.07582579558948 138.7606749800034,192.65610272964113 138.34257803088985,190.94263802736532 138.09171986137517,189.27812335413182 137.75724230194464,187.613602663856 137.21371626807377,185.94907595647965 136.96285809832625,184.38245708798058 136.4611417595297,181.59190402535023 136.1684738949407,180.1721424672578 135.9594254202675,178.80133405025117 135.58313816599548,177.0878177896957 135.29047030140646,175.66804234293522 134.91418304713443,174.15034650693997 134.5797054877039,172.87743646418676 134.20341823343188,170.96806480162195 133.95256006415002,169.40139495936455 133.74351158947684,167.981595810008 133.576272809878,166.75762751192087 133.24179525044747,164.84823046944803 133.4090340300463,164.0648858024506 134.5797054877039,164.01592671641265 135.58313816599548,163.8200903206307 137.59000352211297,162.84090709174052 139.3878204037901,162.498192469473 140.72573064127937,162.2044368761417 141.6873536244966,161.9106810952362 142.94164447207004,161.61692512690206 144.5722225739155,161.22525021099136 145.8683231167961,160.93149380528484 147.33166243880987,160.7356560972985 148.58595328661613,160.44189937924966 149.88205382903107,160.09918297131662 151.55444162595086,159.85438538104063 152.8505421683658,159.56062810058938 154.43931057560258,159.16895143521833 155.77722081309184,158.777274436492 156.6134147113189,158.58143581234617 157.90951525396667,158.28767771966523 159.1638061015401,157.89599997139885 160.45990664418787,157.55328166810796 161.88143627159297,157.4064023172832 163.2193465088494,157.01472381906933 164.47363735642284,156.6720048598363 165.76973789930344,156.18240590402274 167.19126752624288,155.79072636461933 168.27831959421746,155.54592648308608 169.65803952678107,155.1542464021186 170.9123303743545,154.76256598794134 172.3756696966011,154.27296500146622 173.67177023901604,153.93024400112336 175.30234834132716,153.48960234012338 176.47301979898475,153.24480123497779 177.97816881607287,153.0 180.19408264686354,153.48960234012338 181.82466074894182,154.4688054585422 182.74447403708473,155.59488646982936 183.32980976602994,156.76992458853056 183.7897164102178,158.1407986030099 184.29143274901435,159.5116685355897 184.50048122368753,160.93149380528484 184.75133939343505,162.30235542799346 184.9185781730339,163.91800852888264 185.04400725779124,164.84823046944803 185.2530557322316,166.26803928168374 185.42029451206326,167.78576110096765 185.2530557322316,169.9888967750303 185.37848481698893,171.21285648294725 185.42029451206326,172.14306368486723 185.58753329189494,174.3461785086838 185.62934298673645,175.22742148654652 185.71296237641945,176.35345172591042 185.92201085109264,178.06697071937378 186.17286902060732,179.53569620964117 186.34010780020617,181.15128883786383 186.6327756647952,182.42417600675253 186.75820474955253,183.3543605588784 186.84182413946837,184.67619853184442 186.71639505471103,185.94907595647965 186.3819174952805,187.27090648072772 185.04400725779124,188.73960261276807 183.70609702030197,189.37603614854743 182.3263770879712,190.1593377541867 181.28113471483812,190.7957693276694 179.90141478250735,191.43220002151793 179.06522088404745,191.72593696819968 177.601881561568,192.16654203666258 176.47301979898475,192.94983889552532 175.2187289511785,193.4883547128702 174.0898671883624,194.02686990072834 172.91919573047198,194.46747276751557 171.66490488289855,194.95703101420077 170.36880434048362,195.44658874027664 168.98908440792002,195.887190248759 167.69298386573792,196.47465827109409 166.35507362801582,196.81734760457766 164.72449552617036,197.40481444011675 163.88830162747763,197.79645858082222 162.6340107799042,198.2860132881906 161.7560071866028,198.92243362977752 160.29266786458902,199.36303181256517 159.2056157963816,200.04840592553956 157.9931346438825,200.5869134416571 156.65522440616041,201.12542032796773 155.60998203326017,201.56601640291046 154.18845240585506,202.25138723710552 152.8505421683658,202.78989217698108 151.7634901003912,203.2304866593622 150.3001507781446,203.81794531363994 149.08766962541267,204.50331279626698 148.20966603211127,204.79704140505055 147.1226139641367,205.23763396713184 145.9519425064791,205.72718076396268 144.69765165867284,206.51045455626445 143.23431233665906,207.0 141.43649545498192,205.53136210763478 141.18563728546724,204.6012223533471 141.0602082007099,203.52421608020086 140.72573064127937,202.25138723710552 140.47487247176468,201.02751003179583 140.05677552265115,199.50989777973155 139.84772704797797,198.09019146778155 139.59686887823045,196.76839200116228 139.3042010141071,195.2997214772331 138.88610406476073,193.6352225538576 138.4680071156472,191.7748931076785" stroke="#4DD2FF" stroke-linecap="round" stroke-linejoin="round" stroke-width="0.5"><title>2023-04-17 10.0km</title><desc>9223370355117402580</desc></polyline><polyline fill="none" points="44.88910464888613,244.59106317342594 44.83107373317762,244.60540061092252 44.661126051447354,244.6245171875562 44.59065993950935,244.58150487935563 44.47874317350215,244.58150487935563 44.39584186533466,244.60062146556447 44.329520818791934,244.62929633051317 44.325375753396656,244.63885461500104 44.35853627666074,244.66275031783516 44.35024614582653,244.69142514544728 44.317085622562445,244.7200999558263 44.317085622562445,244.73443735455294 44.35439121123636,244.73443735455294 44.47045304266794,244.70098341748962 44.52848395839101,244.6579711782324 44.652835920627695,244.58150487935563 44.785478013698594,244.5337133803405 44.81863853696268,244.53849253238877 44.855944125622045,244.552829985696 44.84765399481694,244.59106317342594 44.88910464888613,244.58150487935563 44.90568491054,244.58150487935563 44.98858621867839,244.63407547298993 45.158533900408656,244.69142514544728 45.191694423687295,244.6962042817031 45.32433651674364,244.681866871495 45.41967302112607,244.6531920381458 45.436253282779944,244.63885461500104 45.436253282779944,244.61973804412264 45.4859940676688,244.60062146556447 45.50671939471795,244.58628402663453 45.515009525523055,244.57194658339358 45.57304044123157,244.54805083506653 45.6186361607397,244.552829985696 45.742988122976385,244.53849253238877 45.78858384246996,244.53849253238877 45.80516410410928,244.552829985696 45.867340085227625,244.55760913584163 45.97511178582499,244.58628402663453 45.99583711285959,244.57194658339358 45.99998217826942,244.552829985696 45.99998217826942,244.54327168397504 45.98754698205448,244.5337133803405 45.941951262560906,244.53849253238877 45.90050060847716,244.58628402663453 45.846614758178475,244.60062146556447 45.83832462737337,244.6101797557967 45.78443877704558,244.62929633051317 45.79272890787979,244.63407547298993 45.74713318837166,244.67230859562187 45.544024983391864,244.71532082196063 45.48184900225897,244.6866460087149 45.47355887143931,244.643633756521 45.390657563271816,244.6101797557967 45.27045066644496,244.58628402663453 45.03003687276214,244.60540061092252 44.90153984511562,244.6101797557967 44.851799060212215,244.6245171875562 44.677706313086674,244.70576255278866 44.656980986052076,244.66275031783516 44.6321105935931,244.61973804412264 44.60724020114867,244.6149589002016 44.549209285440156,244.6149589002016 44.441437584813684,244.6484128975717 44.424857323174365,244.66752945697226 44.437292519418406,244.681866871495 44.46630797727266,244.6866460087149 44.4994685005222,244.66275031783516 44.50361356594658,244.643633756521 44.50775863134186,244.6245171875562 44.47045304266794,244.57194658339358 44.49117836970254,244.60062146556447 44.50361356594658,244.6101797557967 44.50361356594658,244.552829985696 44.51190369675169,244.5337133803405 44.520193827556795,244.4715843600461 44.51190369675169,244.32343021595443 44.4994685005222,244.24218419969839 44.50775863134186,244.22306746988033 44.61553033195378,244.19439236079415 44.6321105935931,244.2039507324189 44.7233020325657,244.29475516719685 44.81034840614302,244.35688441774255 44.855944125622045,244.40467609387633 44.89324971429596,244.42379275092753 44.980296087873285,244.52893422780835 45.02174674195703,244.552829985696 45.096357919304864,244.56238828549976 45.17511416206253,244.552829985696 45.24558027400053,244.55760913584163 45.423818086550455,244.54327168397504 45.527444721752545,244.552829985696 45.535734852572205,244.56238828549976 45.622781226134975,244.552829985696 45.742988122976385,244.56716743468132 45.76371345001098,244.58150487935563 45.834179561948986,244.58150487935563 45.88392034685239,244.5958423197335 45.950241393366014,244.5958423197335 45.9626765895955,244.62929633051317 45.97925685123482,244.61973804412264 45.98754698205448,244.60062146556447 45.98754698205448,244.58628402663453 45.9626765895955,244.56716743468132 45.90464567388699,244.52893422780835 45.88392034685239,244.52415507480328 45.88806541226222,244.54805083506653 45.821744365719496,244.56238828549976 45.755423319205875,244.6101797557967 45.742988122976385,244.63885461500104 45.74713318837166,244.67230859562187 45.713972665107576,244.70098341748962 45.65179668398923,244.77744952487774 45.535734852572205,244.81568253261867 45.49428419848846,244.7583330095149 45.45283354440471,244.7296582221279 45.33677171297313,244.67230859562187 45.15024376960355,244.63407547298993 45.02589180736686,244.59106317342594 44.884959583490854,244.55760913584163 44.777187882878934,244.56238828549976 44.74817242502468,244.57194658339358 44.51604876217607,244.60540061092252 44.46216291184828,244.6245171875562 44.445582650223514,244.63885461500104 44.36682640746585,244.67230859562187 44.329520818791934,244.6962042817031 44.325375753396656,244.7105416876184 44.333665884201764,244.7248790891972 44.36268134207057,244.73443735455294 44.549209285440156,244.6866460087149 44.64869085520331,244.67230859562187 44.92226517215022,244.51459676732702 45.14609870419372,244.30909269373296 45.287030928069726,244.15615885521765 45.22070988154155,244.11792531899118 45.10050298470014,244.09402934329773 42.928488710851525,237.92368785455983 34.049758606619434,213.10042850923492 34.07048393363948,213.1243400278472 34.06219380283437,213.1386869332382 34.02903327958484,213.15303383432183 34.016598083340796,213.14346923408448 34.004162887111306,213.11477542184002 34.00001782171603,213.08608159232608 34.01245301794552,213.05738774550628 34.07048393363948,213.00956462905378 34.10778952232795,213.0 34.169965503460844,213.0 34.1989809613151,213.01434694285854 34.227996419154806,213.03347619327906 36.49949226282479,265.76276580625927 36.5575231785333,265.8057590375465 36.57824850558245,265.8296441493221 36.56995837474824,265.8630832857525 36.56995837474824,265.87741433705014 36.59482876720722,265.9251844770333 36.657004748340114,265.98728558759467 36.70674553324352,266.025501615517 36.79793697221612,266.116264559314 36.85182282250025,266.20702733070357 36.90570867282804,266.26435109748127 36.947159326897236,266.30734387742996 37.01348037342541,266.350336618696 37.01348037342541,266.32645176720325 37.03420570047456,266.33122873846514 37.11710700864205,266.2977899296784 37.13368727025227,266.2977899296784 37.12954220487154,266.33122873846514 37.20415338219027,266.32645176720325 37.262184297913336,266.33122873846514 37.278764559552656,266.3168978232716 37.25389416710823,266.34078267953737 37.23731390548346,266.32167479547934 37.19586325138516,266.3168978232716 37.12539713944716,266.26912807494955 37.071511289148475,266.2452431828642 37.050785962099326,266.2404662030167 37.03420570047456,266.2452431828642 37.059076092918986,266.26912807494955 37.25389416710823,266.350336618696 37.69327110036102,266.5557458485855 38.145083229857846,266.7038310246717 38.252854930469766,266.7611541954102 38.808293695168686,266.8901310781803 38.87046967630158,266.90923873490465 38.928500591995544,266.9379002056703 39.08601307749632,266.9761154732696 39.14404399320483,267.0" stroke="#4DD2FF" stroke-linecap="round" stroke-linejoin="round" stroke-width="0.5"><title>2023-02-12 11.8km</title><desc>8545993924</desc></polyline><polyline fill="none" points="138.1839999994263,247.22230656375177 138.93999999994412,247.22230656375177 140.55999999959022,246.59969974460546 142.61199999973178,246.59969974460546 145.74399999994785,246.47517834370956 148.01199999963865,246.72422113351058 151.46799999987707,247.22230656375177 153.51999999955297,247.59587050543632 157.6239999998361,247.22230656375177 161.1879999996163,247.96943433454726 163.4559999993071,248.2184768251609 166.04799999995157,248.7165616567945 168.63999999966472,248.96560399758164 171.44799999939278,248.84108283324167 174.68800000008196,248.46751926618163 177.2799999997951,249.7127307212213 179.5479999994859,249.83725179790054 176.73999999975786,249.96177286223974 174.57999999960884,249.33916741563007 171.87999999988824,249.09012514923234 170.69199999934062,248.96560399758164 166.91199999954551,248.2184768251609 163.7799999997951,248.2184768251609 160.7559999995865,247.96943433454726 157.73199999984354,247.4713492039591 155.67999999923632,247.09778522478882 153.51999999955297,246.59969974460546 152.00799999944866,246.35065693000797 148.65999999968335,245.6035281860968 144.33999999938533,244.73187741730362 141.85599999967963,244.60735582886264 138.72399999992922,244.85639899305534 136.45599999977276,244.60735582886264 136.02399999974295,245.72804967442062 138.40000000037253,245.72804967442062 141.85599999967963,246.22613550384995 144.33999999938533,246.35065693000797 145.95999999996275,246.35065693000797 149.4159999997355,246.59969974460546 152.11599999992177,246.84874250995927 155.03200000012293,246.97326387360226 157.19199999980628,246.97326387360226 159.99999999953434,247.22230656375177 162.8079999992624,247.96943433454726 165.6159999994561,248.46751926618163 167.77599999960512,248.7165616567945 170.58399999979883,248.84108283324167 173.06799999950454,249.33916741563007 174.0399999995716,249.46368852991145 177.6039999993518,250.08629391435534 180.62799999909475,249.96177286223974 178.2519999993965,250.21081495389808 174.68800000008196,249.7127307212213 172.52799999946728,249.21464628865942 169.82799999974668,248.84108283324167 167.12800000002608,248.34299805189949 165.07599999988452,247.96943433454726 162.48399999924004,247.4713492039591 159.4599999994971,247.34682788979262 156.00399999972433,247.22230656375177 153.84400000004098,246.84874250995927 150.49599999981,246.35065693000797 147.9039999996312,246.1016140653519 144.8800000003539,245.85257115052082 141.74800000013784,245.85257115052082 139.26399999996647,246.47517834370956 135.4839999997057,246.72422113351058 134.07999999960884,246.84874250995927 136.8879999993369,246.72422113351058 140.23599999956787,246.35065693000797 142.7200000002049,246.59969974460546 147.14799999957904,246.97326387360226 149.74000000022352,246.97326387360226 153.30399999953806,247.22230656375177 156.00399999972433,247.22230656375177 161.1879999996163,248.46751926618163 163.4559999993071,248.84108283324167 167.45199999958277,248.59204046765808 170.15199999976903,248.96560399758164 173.8239999995567,249.58820963150356 176.52399999974295,249.96177286223974 178.35999999986961,250.459856995265 179.5479999994859,250.21081495389808 178.0359999993816,250.33533598086797 177.2799999997951,250.33533598086797 176.8479999997653,250.21081495389808 172.41999999945983,249.83725179790054 168.96399999922141,249.46368852991145 164.53599999984726,248.46751926618163 160.2160000000149,248.2184768251609 156.32799999928102,248.34299805189949 153.84400000004098,247.96943433454726 152.00799999944866,247.59587050543632 149.09199999971315,247.09778522478882 145.8519999999553,246.84874250995927 142.82799999974668,246.72422113351058 141.63999999966472,246.59969974460546 137.5359999993816,246.22613550384995 134.4039999996312,245.9770926143974 136.8879999993369,246.22613550384995 140.66799999959767,246.22613550384995 143.58399999979883,246.72422113351058 145.4199999999255,246.97326387360226 147.14799999957904,247.34682788979262 150.49599999981,247.7203917944571 152.76399999996647,248.09395558619872 154.27599999960512,248.46751926618163 157.08399999979883,248.46751926618163 160.1079999995418,248.46751926618163 163.99599999934435,248.96560399758164 167.01999999955297,249.33916741563007 169.82799999974668,249.83725179790054 171.9879999998957,250.08629391435534 175.22799999965355,250.33533598086797 179.33199999993667,250.459856995265 179.00799999944866,249.96177286223974 176.1999999997206,249.96177286223974 174.3640000000596,249.7127307212213 168.42399999964982,249.46368852991145 164.2119999998249,248.7165616567945 161.51199999963865,248.09395558619872 158.2719999998808,248.46751926618163 154.81599999964237,247.96943433454726 151.8999999994412,246.97326387360226 148.2280000001192,246.22613550384995 145.2039999999106,246.59969974460546 142.61199999973178,246.59969974460546 139.58799999998882,246.1016140653519 137.6439999998547,245.35448517161421 135.05200000014156,246.1016140653519 137.75199999986216,246.1016140653519 141.42399999964982,246.97326387360226 144.5559999998659,247.34682788979262 148.55200000014156,247.7203917944571 152.22399999992922,248.09395558619872 154.70799999963492,248.46751926618163 158.48799999943003,248.96560399758164 161.72799999965355,249.46368852991145 164.9679999994114,250.08629391435534 167.88399999961257,249.96177286223974 170.15199999976903,249.96177286223974 171.9879999998957,250.21081495389808 175.660000000149,250.459856995265 178.79199999989942,250.95794092910364 177.7119999998249,250.21081495389808 175.4439999992028,250.459856995265 171.01599999982864,250.21081495389808 169.18000000016764,249.83725179790054 166.04799999995157,248.46751926618163 163.67199999978766,247.7203917944571 160.43199999956414,247.8449130706722 156.65199999930337,247.7203917944571 154.27599999960512,246.72422113351058 147.68800000008196,246.35065693000797 143.79999999981374,246.1016140653519 139.58799999998882,246.22613550384995 134.4039999996312,245.35448517161421 134.2960000000894,245.6035281860968 136.3479999997653,245.9770926143974 140.55999999959022,246.1016140653519 144.23199999984354,246.47517834370956 147.4719999996014,247.59587050543632 152.22399999992922,248.34299805189949 155.24799999967217,248.34299805189949 157.6239999998361,248.46751926618163 159.4599999994971,248.84108283324167 163.99599999934435,249.58820963150356 166.58799999952316,249.7127307212213 168.3159999991767,249.58820963150356 171.87999999988824,249.83725179790054 173.175999999512,249.7127307212213 178.4679999994114,250.58437799743842 180.30399999953806,250.21081495389808 178.2519999993965,249.7127307212213 176.1999999997206,249.09012514923234 172.8519999999553,248.46751926618163 169.18000000016764,248.2184768251609 164.9679999994114,248.09395558619872 163.13199999928474,248.09395558619872 160.6480000000447,247.8449130706722 159.24399999994785,247.7203917944571 155.35599999967963,247.4713492039591 150.38799999980256,247.34682788979262 149.20000000018626,246.59969974460546 144.23199999984354,245.9770926143974 140.12800000002608,245.9770926143974 136.23999999975786,246.35065693000797 136.7799999997951,246.59969974460546 140.77600000007078,246.47517834370956 144.7719999998808,246.59969974460546 148.335999999661,246.84874250995927 150.2799999997951,247.09778522478882 154.38399999961257,246.59969974460546 157.6239999998361,247.8449130706722 161.72799999965355,248.46751926618163 164.9679999994114,248.7165616567945 167.88399999961257,248.96560399758164 170.58399999979883,249.7127307212213 173.93199999956414,250.459856995265 176.1999999997206,250.21081495389808 180.73599999956787,250.459856995265 179.22399999946356,249.83725179790054 176.73999999975786,249.09012514923234 173.3919999995269,248.84108283324167 169.07199999969453,248.84108283324167 167.55999999959022,248.34299805189949 163.88799999980256,247.96943433454726 161.835999999661,247.8449130706722 156.21999999973923,248.09395558619872 153.30399999953806,247.7203917944571 150.7119999998249,247.34682788979262 145.4199999999255,246.47517834370956 139.91199999954551,245.72804967442062 137.96799999987707,245.72804967442062 134.07999999960884,245.6035281860968 136.45599999977276,245.6035281860968 139.80400000000373,245.72804967442062 142.0720000001602,245.72804967442062 147.25600000005215,246.59969974460546 150.17199999978766,246.97326387360226 153.30399999953806,247.4713492039591 157.4079999998212,247.4713492039591 161.4039999996312,248.59204046765808 166.80399999953806,248.84108283324167 169.93599999975413,248.7165616567945 172.95999999996275,249.09012514923234 175.33600000012666,249.7127307212213 179.1159999994561,249.33916741563007 174.9039999996312,249.46368852991145 171.66399999940768,249.21464628865942 169.18000000016764,249.09012514923234 167.34399999957532,248.7165616567945 163.3479999997653,248.2184768251609 160.1079999995418,247.8449130706722 157.4079999998212,247.7203917944571 152.43999999994412,245.72804967442062 148.65999999968335,245.1054421075387 145.74399999994785,245.4790066847345 143.58399999979883,245.4790066847345 141.63999999966472,245.9770926143974 134.4039999996312,245.1054421075387 140.12800000002608,245.85257115052082 144.23199999984354,247.09778522478882 146.2839999999851,247.34682788979262 151.35999999986961,247.96943433454726 156.11199999973178,248.34299805189949 158.81199999945238,248.7165616567945 161.07999999960884,249.21464628865942 164.85999999940395,249.58820963150356 168.20800000010058,249.09012514923234 172.31199999991804,249.58820963150356 174.2559999995865,249.58820963150356 179.9799999995157,249.58820963150356 178.57599999941885,249.09012514923234 174.68800000008196,249.09012514923234 170.9079999998212,248.96560399758164 168.63999999966472,249.09012514923234 165.93999999947846,247.4713492039591 161.51199999963865,247.09778522478882 158.7039999999106,247.4713492039591 155.67999999923632,246.97326387360226 154.06000000005588,246.84874250995927 151.25199999986216,246.72422113351058 148.1199999996461,246.47517834370956 144.8800000003539,245.85257115052082 141.63999999966472,245.85257115052082 138.40000000037253,245.4790066847345 134.51199999963865,244.98092055658344 138.50799999944866,246.22613550384995 141.31599999964237,246.1016140653519 144.23199999984354,246.35065693000797 146.8239999995567,246.72422113351058 150.38799999980256,247.22230656375177 152.5479999994859,247.4713492039591 155.78799999970943,247.7203917944571 157.839999999851,247.7203917944571 160.7559999995865,248.09395558619872 165.07599999988452,249.33916741563007 168.96399999922141,248.96560399758164 170.69199999934062,249.09012514923234 173.49999999953434,249.09012514923234 175.76799999922514,249.58820963150356 178.8999999994412,249.83725179790054 178.8999999994412,249.46368852991145 176.30799999972805,248.96560399758164 174.68800000008196,247.09778522478882 174.4719999996014,244.23379098938312 175.9839999997057,237.6341269792756 176.1999999997206,234.14749788609333 176.73999999975786,229.66467468312476 175.76799999922514,230.90990497230086 175.01199999963865,234.27202052227221 174.68800000008196,236.63794823619537 174.4719999996014,241.49431206833106 174.14799999911338,243.61118267395068 173.28399999951944,247.09778522478882 171.33999999938533,249.09012514923234 165.72399999992922,247.34682788979262 164.10399999981746,247.09778522478882 159.13599999947473,246.59969974460546 156.54400000022724,247.22230656375177 151.14399999938905,248.09395558619872 148.1199999996461,247.59587050543632 142.7200000002049,245.4790066847345 135.15999999968335,244.60735582886264 136.99599999981,246.22613550384995 140.45200000004843,247.22230656375177 142.39599999971688,247.09778522478882 145.52799999946728,247.09778522478882 148.65999999968335,247.34682788979262 152.331999999471,247.34682788979262 154.81599999964237,247.59587050543632 156.43599999975413,247.8449130706722 159.78399999951944,248.09395558619872 162.3760000001639,248.46751926618163 165.6159999994561,248.59204046765808 170.36799999978393,249.09012514923234 173.06799999950454,249.09012514923234 175.4439999992028,249.46368852991145 176.6319999997504,249.58820963150356 180.30399999953806,249.21464628865942 178.2519999993965,249.21464628865942 175.4439999992028,247.59587050543632 175.76799999922514,242.61500872066244 175.9839999997057,239.12839359696954 177.6039999993518,239.62648207030725 181.38399999961257,240.12457034457475 184.40799999935552,239.00387144717388 186.24399999948218,235.76629118120763 186.8919999995269,233.52488451905083 183.00399999972433,231.40799673844595 180.1959999995306,231.28347381576896 176.4159999997355,233.15131634904537 175.87599999969825,234.77011094114278 174.68800000008196,241.49431206833106 174.14799999911338,244.98092055658344 173.49999999953434,246.97326387360226 170.47599999932572,248.59204046765808 166.04799999995157,247.4713492039591 164.2119999998249,247.09778522478882 161.07999999960884,246.59969974460546" stroke="#4DD2FF" stroke-linecap="round" stroke-linejoin="round" stroke-width="0.5"><title>2021-06-21 10.0km</title><desc>9223370412586047204</desc></polyline></svg>