<?xml version="1.0" encoding="utf-8" ?>
<svg baseProfile="full" height="300mm" version="1.1" viewBox="0,0,200,300" width="200mm" xmlns="http://www.w3.org/2000/svg" xmlns:ev="http://www.w3.org/2001/xml-events" xmlns:xlink="http://www.w3.org/1999/xlink"><defs /><rect fill="#222222" height="300" width="200" x="0" y="0" /><text fill="#FFFFFF" style="font-size:12px; font-family:Arial; font-weight:bold;" x="10" y="20">Over 10km Runs</text><text fill="#FFFFFF" style="font-size:4px; font-family:Arial" x="10" y="280">ATHLETE</text><text fill="#FFFFFF" style="font-size:9px; font-family:Arial" x="10" y="290">DuckTyping</text><text fill="#FFFFFF" style="font-size:4px; font-family:Arial" x="120" y="280">STATISTICS</text><text fill="#FFFFFF" style="font-size:3px; font-family:Arial" x="120" y="285">Number: 5</text><text fill="#FFFFFF" style="font-size:3px; font-family:Arial" x="120" y="290">Weekly: 1.0</text><text fill="#FFFFFF" style="font-size:3px; font-family:Arial" x="141" y="285">Total: 60.8 km</text><text fill="#FFFFFF" style="font-size:3px; font-family:Arial" x="141" y="290">Avg: 12.2 km</text><text fill="#FFFFFF" style="font-size:3px; font-family:Arial" x="167" y="285">Min: 10.0 km</text><text fill="#FFFFFF" style="font-size:3px; font-family:Arial" x="167" y="290">Max: 16.3 km</text><polyline fill="none" points="26.484403669368476,90.18834299588343 25.427522935671732,90.42038576479536 24.568807339528576,90.80712354846764 20.539449541131034,92.19937786710216 20.011009174166247,92.19937786710216 19.680733944987878,91.81264082342386 19.020183485932648,89.33751887670951 18.755963302683085,87.09443233831553 18.425688073039055,86.16625657491386 17.170642201788723,79.90103919518879 16.5761467886623,77.96731922973413 16.377981651108712,76.49768861784833 15.91559633007273,74.95070581877371 15.717431192751974,72.70757491653785 15.321100917411968,70.23238796181977 14.132110091624781,65.66873993357876 14.0,64.89523743011523 14.264220183482394,64.50848586991196 15.321100917411968,64.19908447342459 16.510091742966324,64.12173410388641 18.68990825675428,63.65763171331491 19.680733944987878,63.348229955125134 21.332110091578215,62.2653227650444 21.92660550470464,62.033271014573984 22.917431192239746,61.87856980646029 24.17247706418857,62.34267333231401 26.154128440190107,62.34267333231401 29.98532110080123,61.49181664234493 32.75963302724995,61.182413962844294 33.948623853269964,60.718309696763754 37.05321100912988,60.022152742603794 39.23302752291784,59.86745110695483 41.74311926611699,59.403346001927275 44.64954128442332,58.552485873689875 46.036697247764096,57.39222045830684 47.489908256800845,56.92811377387261 50.594495413126424,57.31486936483998 52.90642201830633,56.46400679345243 54.755963302915916,56.07725075026974 56.14311926602386,55.45844065316487 60.63486238522455,54.143467449059244 63.67339449538849,53.679358691733796 65.19266055058688,52.905843437998556 66.44770642183721,52.51908550289227 68.9577981652692,52.28703064273577 71.13761467882432,51.28145872789901 75.56330275256187,50.353237264673226 81.37614678917453,48.651494838879444 82.49908256903291,48.41943874506978 83.95229357830249,49.2703107270645 84.48073394503444,49.42501461680513 85.20733944978565,49.11560680437833 85.80183486244641,48.49679078452755 85.73577981675044,48.18738257710356 85.14128440385684,47.87797423824668 82.6972477065865,47.800622132839635 78.13944954122417,49.2703107270645 77.01651376159862,49.81177419726737 71.9302752292715,51.04940347315278 70.08073394512758,51.90027237846516 68.75963302771561,52.054975709063 66.44770642183721,52.82849186746171 65.39082568814047,52.82849186746171 60.30458715604618,54.375521716603544 58.58715596329421,54.60757591034053 56.07706422009505,55.53579194418853 54.09541284409352,55.99989951681346 51.65137614659034,57.00546490855049 50.264220183482394,57.00546490855049 50.52844036696479,57.23751826316584 51.056880733929574,57.160167153168004 52.972477064235136,56.309304400812835 57.46422018343583,54.99433273484465 58.58715596329421,54.68492729164427 61.62568807345815,54.375521716603544 65.58899082592689,53.13789810059825 66.77798165171407,52.44173389102798 68.82568807341158,52.054975709063 73.91192660550587,50.81734814424999 75.10091743106022,50.353237264673226 75.89357798174024,50.27588542253943 77.34678899077699,49.73442229774082 79.65871559642255,49.19295876985416 82.89541284414008,48.49679078452755 83.82018348644488,49.34766267606756 84.87706422037445,49.57971847371664 85.60366972489282,49.34766267606756 85.93394495430402,48.72884685359895 85.80183486244641,48.41943874506978 85.20733944978565,48.18738257710356 81.90458715590648,48.11003050481668 80.71559633035213,48.18738257710356 76.02568807359785,49.966477972164284 71.26972477091476,50.97205170500092 69.68440366978757,51.590865619073156 65.52293577976525,52.67378870153334 62.08807339449413,53.91141310730018 59.8422018350102,54.452873122587334 57.530275229364634,54.762278664682526 55.548623853130266,55.30373804655392 52.24587155948393,56.54135797737399 50.99082568800077,56.85076263110386 50.396330275107175,57.23751826316584 51.25504587148316,57.08281603484647 52.57614678912796,56.54135797737399 54.02935779816471,56.309304400812835 55.15229357779026,55.69049450138118 56.80366972461343,55.14903540740488 64.66422018362209,53.369952688983176 67.17431192682125,52.36438227101462 69.3541284406092,52.20967900642427 70.87339449557476,51.513513908779714 72.98715596366674,51.2041069844272 77.01651376159862,49.73442229774082 78.86605504574254,49.34766267606756 80.45137614686973,48.80619886011118 82.6972477065865,48.41943874506978 83.88623853214085,49.03825483057881 84.74495412851684,49.19295876985416 85.27339449548163,48.88355085859075 85.53761467919685,48.342086697230116 85.47155963303521,48.11003050481668 85.14128440385684,47.95532633521361 82.56513761472888,48.11003050481668 79.06422018352896,48.72884685359895 77.01651376159862,49.81177419726737 75.69541284395382,49.966477972164284 66.77798165171407,52.751140288601164 64.79633027524687,53.06054655474145 63.40917431213893,53.756710171699524 60.37064220220782,54.29817030217964 54.55779816489667,55.922548275324516 50.726605504751205,57.23751826316584 53.302752293646336,56.309304400812835 54.623853211058304,55.922548275324516 55.878899082541466,55.30373804655392 57.860550458543,55.07168407528661 61.09724770626053,54.143467449059244 62.94678899087012,53.91141310730018 65.45688073383644,52.82849186746171 66.976146788802,52.51908550289227 68.16513761458918,52.054975709063 71.00550458719954,51.590865619073156 75.23302752315067,50.19853357237298 78.27155963308178,49.81177419726737 80.64954128465615,48.651494838879444 81.44220183463767,48.41943874506978 82.49908256903291,48.26473464118317 83.75412844028324,48.960902848804835 84.94311926630326,49.19295876985416 85.4055045871064,49.19295876985416 85.66972477082163,48.88355085859075 85.66972477082163,48.41943874506978 85.20733944978565,48.18738257710356 82.1027522936929,47.95532633521361 80.31926605524495,48.41943874506978 76.75229357811622,49.657070389948785 65.98532110103406,52.59643710643286 63.54128440399654,53.524655706831254 57.530275229364634,54.68492729164427 55.68073394475505,55.61314322677208 52.24587155948393,56.773411480069626 50.3302752294112,57.08281603484647 51.056880733929574,57.23751826316584 53.03853211016394,56.309304400812835 54.2275229357183,56.07725075026974 55.68073394475505,55.53579194418853 58.58715596329421,54.762278664682526 60.50275229359977,54.452873122587334 62.08807339449413,53.91141310730018 66.24954128428362,53.06054655474145 67.90091743133962,52.905843437998556 71.13761467882432,51.66821732139215 76.68623853218742,50.04382984706899 79.39449541294016,49.50236654951004 81.44220183463767,48.651494838879444 82.6972477065865,48.574142815952655 83.95229357830249,49.34766267606756 84.74495412851684,49.57971847371664 85.27339449548163,49.50236654951004 85.66972477082163,49.03825483057881 85.73577981675044,48.342086697230116 85.00917431223206,47.95532633521361 82.43302752287127,47.95532633521361 78.86605504574254,48.960902848804835 77.54495412833057,49.57971847371664 76.48807339463383,49.657070389948785 68.56146788992919,51.977624047896825 67.50458715599962,52.44173389102798 64.99449541303329,52.98319500044454 62.682568807154894,53.83406164374901 56.73761467891745,55.14903540740488 55.086238531861454,55.69049450138118 50.46238532103598,56.92811377387261 51.32110091741197,56.92811377387261 55.548623853130266,55.38108935410855 58.322935779578984,55.14903540740488 60.568807339528576,54.29817030217964 63.67339449538849,53.679358691733796 65.98532110103406,52.905843437998556 68.75963302771561,52.44173389102798 70.80733944964595,51.513513908779714 72.78899082564749,51.28145872789901 76.48807339463383,49.966477972164284 78.60183486272581,49.657070389948785 81.77247706451453,48.41943874506978 82.6972477065865,48.41943874506978 84.67889908258803,49.2703107270645 85.20733944978565,49.11560680437833 85.80183486244641,48.574142815952655 85.66972477082163,48.342086697230116 85.20733944978565,48.11003050481668 83.29174311948009,47.95532633521361 79.13027522945777,48.651494838879444 76.8183486238122,49.657070389948785 72.52477064239793,51.12675523292273 62.682568807154894,53.524655706831254 60.568807339528576,54.22081887978129 57.59633027529344,54.762278664682526 56.67155963298865,55.07168407528661 54.49174311920069,55.61314322677208 50.396330275107175,57.160167153168004 51.45321100926958,56.92811377387261 52.90642201830633,56.23195319221122 54.623853211058304,55.76784576749196 55.746788990683854,55.69049450138118 57.530275229364634,55.07168407528661 60.04036697233096,54.530224520596676 61.229357798118144,54.0661160100135 63.67339449538849,53.756710171699524 65.06055045872927,53.13789810059825 67.76880733971484,52.67378870153334 72.06238532112911,51.2041069844272 78.93211009190418,49.657070389948785 79.98899082583375,49.34766267606756 81.31009174301289,48.574142815952655 82.89541284414008,48.41943874506978 83.75412844028324,49.2703107270645 84.81100917444564,49.57971847371664 85.53761467919685,49.42501461680513 85.93394495430402,48.88355085859075 86.0,48.49679078452755 85.60366972489282,48.032678424264304 84.94311926630326,47.95532633521361 82.1027522936929,48.11003050481668 80.38532110117376,48.41943874506978 79.13027522945777,49.03825483057881 73.3174311928451,50.739996351650916 67.63669724785723,52.20967900642427 65.85321100894362,52.751140288601164 57.46422018343583,54.83963002980454 56.27522935764864,55.22638673108304 54.95412844023667,55.45844065316487 53.43486238550395,56.154601975285914 50.46238532103598,57.160167153168004 51.056880733929574,57.160167153168004 55.15229357779026,55.69049450138118 58.785321101080626,54.60757591034053 62.484403669601306,53.83406164374901 64.00366972479969,53.369952688983176 65.19266055058688,53.21524963824777 66.64587155962363,52.59643710643286 68.03302752319723,52.36438227101462 74.44036697247066,50.739996351650916 75.76146789011545,50.58529274153989 77.61100917449221,49.81177419726737 79.46055045886897,49.42501461680513 81.1119266054593,48.80619886011118 82.56513761472888,48.574142815952655 84.08440366992727,49.19295876985416 85.00917431223206,49.2703107270645 85.66972477082163,48.960902848804835 85.86788990837522,48.574142815952655 85.80183486244641,48.342086697230116 85.27339449548163,48.18738257710356 83.48990825680085,47.95532633521361 82.76330275274813,47.95532633521361 81.17798165138811,48.26473464118317 78.73394495435059,49.2703107270645 70.01467889919877,51.513513908779714 64.33394495421089,53.21524963824777 61.29541284404695,53.83406164374901 55.416513761505485,55.76784576749196 53.633027523057535,56.07725075026974 51.78348623844795,56.69606032088632 50.396330275107175,56.618709153321106 50.19816513778642,56.773411480069626 50.3302752294112,57.160167153168004 50.79266055044718,57.160167153168004 53.633027523057535,56.309304400812835 55.48256880743429,55.53579194418853 58.05871559656225,55.14903540740488 62.15412844042294,53.988764562644064 63.805504587246105,53.83406164374901 65.25871559628285,53.13789810059825 69.3541284406092,52.132327361847274 71.20366972475313,51.358810462930705 72.78899082564749,51.12675523292273 74.37431192654185,50.43058909854153 76.88440366997384,49.88912608876126 80.18715596338734,48.651494838879444 82.30091743124649,48.18738257710356 82.6972477065865,48.11003050481668 83.55596330272965,48.72884685359895 84.34862385317683,49.03825483057881 85.4055045871064,49.03825483057881 85.93394495430402,48.574142815952655 85.80183486244641,48.26473464118317 85.47155963303521,48.18738257710356 84.28256880748086,48.11003050481668 82.36697247740813,48.18738257710356 80.58348623849452,48.41943874506978 79.98899082583375,48.574142815952655 78.40366972493939,49.34766267606756 74.17614678898826,50.739996351650916 70.14678899082355,51.82292070100084 68.16513761458918,52.20967900642427 66.05137614696287,52.751140288601164 60.70091743138619,54.60757591034053 57.992660550400615,54.91698138642823 56.34128440381028,55.45844065316487 54.35963302757591,55.845197025395464 53.03853211016394,56.46400679345243 50.726605504751205,57.23751826316584 53.69908256875351,56.309304400812835 55.878899082541466,55.38108935410855 59.24770642211661,54.99433273484465 60.568807339528576,54.375521716603544 62.74862385331653,53.83406164374901 63.87155963317491,53.369952688983176 68.42935779830441,52.44173389102798 69.94862385326996,51.82292070100084 72.06238532112911,51.358810462930705 74.44036697247066,50.50794092420256 80.18715596338734,49.11560680437833 82.43302752287127,48.342086697230116 84.67889908258803,49.19295876985416 85.0752293576952,49.19295876985416 85.60366972489282,48.960902848804835 85.93394495430402,48.49679078452755 85.66972477082163,48.18738257710356 84.28256880748086,47.87797423824668 82.1027522936929,48.18738257710356 80.51743119279854,48.574142815952655 77.08256880752742,49.966477972164284 75.36513761477545,50.27588542253943 72.45871559623629,51.28145872789901 70.08073394512758,51.66821732139215 68.2972477064468,52.44173389102798 65.65504587162286,53.13789810059825 62.814678899012506,54.0661160100135 56.01100917439908,55.53579194418853 52.510091742966324,56.85076263110386 50.46238532103598,57.46957154368283 50.66055045858957,57.46957154368283 51.849541284609586,56.69606032088632 54.82201834861189,55.53579194418853 59.57798165152781,54.60757591034053 64.73027522931807,53.21524963824777 67.04220183496363,52.905843437998556 69.22201834875159,52.054975709063 70.47706422000192,51.745569015154615 71.86422018357553,51.590865619073156 73.8458715598099,50.81734814424999 77.94128440367058,49.657070389948785 80.58348623849452,49.19295876985416 82.36697247740813,48.342086697230116 82.6972477065865,48.41943874506978 83.6880733948201,49.11560680437833 84.87706422037445,49.42501461680513 85.60366972489282,49.2703107270645 85.86788990837522,48.80619886011118 85.86788990837522,48.49679078452755 85.33944954141043,48.18738257710356 82.30091743124649,48.11003050481668 78.8000000002794,49.11560680437833 76.68623853218742,50.04382984706899 74.90275229350664,50.43058909854153 73.11926605529152,51.12675523292273 72.12844036705792,51.358810462930705" stroke="#4dd2ff" stroke-linecap="round" stroke-linejoin="round" stroke-width="0.5"><title>2023-11-26 12.7km</title><desc>10282459870</desc></polyline><polyline fill="none" points="132.1587301583495,89.5537510701688 128.7936507933773,90.14852294302545 125.80952380923554,90.44590869016247 122.88888888875954,91.18937250389718 118.63492063456215,91.56110411440022 118.06349206343293,88.51289907470345 117.36507936473936,84.869904888561 116.60317460284568,81.07819690386532 116.34920634911396,78.69907551276265 115.52380952332169,74.68428980844328 114.76190476166084,71.78470801806543 114.19047619006597,68.51337053591851 114.76190476166084,65.1676686424762 117.04761904734187,64.72157384693855 119.52380952355452,63.8293834021315 123.0158730156254,62.7141437450191 125.87301587266847,62.044999096833635 128.41269841231406,61.45020331651904 131.77777777751908,60.78105745854555 134.63492063479498,60.111910960113164 137.42857142840512,59.59146324091125 140.79365079361014,58.84796582744457 143.77777777751908,58.17881747870706 146.5079365076963,57.58401840896113 150.57142857136205,56.46876878954936 155.52380952378735,55.35351739102043 159.0158730156254,54.684365697961766 161.80952380923554,53.94086306571262 164.53968253917992,53.27171002031537 168.22222222201526,52.15645352186402 171.20634920615703,51.41294820117764 175.1428571427241,49.92593518755166 179.4603174601216,48.587620771024376 182.2539682534989,48.14151539612794 185.49206349183805,49.47983066656161 184.73015872994438,51.115545851469506 179.9047619048506,49.77723371202592 176.1587301583495,50.96684462914709 173.74603174603544,51.48729876882862 171.3333333330229,52.230804010352585 168.85714285681024,52.97430846147472 165.49206349183805,54.08956365525955 162.63492063479498,54.684365697961766 160.47619047597982,55.576567812939174 157.93650793633424,56.171368590556085 154.44444444403052,56.98921883339062 151.6507936506532,57.65836832043715 149.17460317420773,58.401866999454796 149.80952380923554,57.7327182238223 152.03174603148364,56.914868850959465 155.3333333330229,56.32006870594341 157.99999999976717,55.72526805481175 161.30158730130643,54.758715917530935 165.30158730153926,53.71781212161295 168.60317460307851,52.89995805209037 171.20634920615703,52.15645352186402 174.63492063479498,51.115545851469506 177.2380952378735,50.297688737278804 179.9047619048506,49.62853220530087 183.14285714295693,49.77723371202592 182.63492063479498,49.62853220530087 179.6507936506532,49.62853220530087 177.17460317444056,50.52074077236466 174.63492063479498,51.338597625494 172.4126984125469,52.00775252096355 169.55555555527098,52.82560763449874 167.20634920638986,53.420410752587486 164.41269841231406,54.3869647399988 161.17460317444056,55.35351739102043 158.63492063456215,55.94831835833611 156.09523809491657,56.617468841723166 152.92063492024317,57.36096862750128 150.57142857136205,57.95576788694598 149.17460317420773,58.32751716708299 150.95238095195964,57.43531856260961 153.68253968213685,56.691818855761085 157.7460317458026,56.022668443562 160.22222222178243,55.279167234373745 163.90476190461777,54.31261448061559 167.0158730156254,53.34606039040955 169.30158730130643,52.60255633469205 171.77777777751908,51.78470096032834 175.6507936506532,50.595091435010545 178.06349206343293,49.851584453717805 180.85714285704307,49.10807668179041 182.44444444426335,49.47983066656161 179.71428571431898,49.62853220530087 177.17460317444056,50.52074077236466 174.82539682509378,51.26424704195233 171.90476190461777,52.00775252096355 169.42857142840512,52.82560763449874 166.31746031716466,53.420410752587486 163.7777777777519,54.16391393833328 161.3650793649722,54.9817665295559 158.12698412686586,55.94831835833611 155.20634920615703,56.32006870594341 152.47619047597982,57.06356880796375 150.06349206296727,57.807068119582254 149.2380952378735,58.17881747870706 152.4126984125469,57.137918774737045 154.6984126982279,56.54311881941976 157.87301587266847,55.799618163960986 161.3650793649722,54.90741633361904 163.6507936506532,54.23826421331614 166.50793650792912,53.34606039040955 168.98412698390894,52.60255633469205 171.1428571427241,52.08210302545922 174.1904761902988,51.338597625494 177.36507936473936,50.372039423615206 180.2222222222481,49.554181439976674 182.6984126982279,49.554181439976674 181.9365079361014,49.554181439976674 179.39682539645582,49.70288296259241 176.1587301583495,50.446390102035366 173.68253968236968,51.26424704195233 171.07936507929116,52.08210302545922 168.0952380951494,53.27171002031537 165.68253968236968,53.866512758948375 162.57142857112922,54.61001547018532 160.1587301583495,55.279167234373745 156.85714285704307,55.94831835833611 154.0634920632001,56.691818855761085 151.77777777751908,57.36096862750128 149.49206349183805,58.104467622586526 149.80952380923554,58.03011775872437 151.71428571408615,57.286618684534915 153.7460317458026,56.617468841723166 155.90476190438494,56.09701852116268 158.50793650792912,55.799618163960986 161.68253968213685,55.13046689791372 164.47619047597982,54.015213364386 167.20634920638986,53.12300925661111 170.25396825373173,52.305154490983114 173.36507936473936,51.41294820117764 177.0476190475747,50.743792736320756 179.9047619048506,49.70288296259241 182.95238095219247,49.851584453717805 182.1904761902988,49.70288296259241 179.52380952355452,49.62853220530087 177.17460317444056,50.297688737278804 174.25396825396456,51.18989645066904 172.22222222201526,51.859051488456316 169.8730158729013,52.60255633469205 167.841269840952,53.49476110661635 165.7460317458026,54.46131499129115 163.20634920615703,55.13046689791372 159.65079365042038,55.650917937920894 156.73015872994438,56.022668443562 154.12698412686586,57.06356880796375 150.82539682509378,57.50966848974349 148.60317460284568,58.55056664021686 150.3809523805976,57.7327182238223 152.34920634911396,56.914868850959465 155.20634920615703,56.617468841723166 158.19047619053163,55.87396826525219 160.73015872971155,55.13046689791372 163.20634920615703,54.31261448061559 166.8253968253266,53.420410752587486 169.8730158729013,52.60255633469205 173.49206349183805,51.48729876882862 176.09523809491657,50.66944208968198 178.31746031716466,49.92593518755166 180.66666666627862,49.554181439976674 183.52380952355452,49.92593518755166 181.80952380923554,49.554181439976674 178.8888888885267,49.92593518755166 176.09523809491657,50.81814337515971 173.4285714281723,51.48729876882862 170.69841269799508,52.45385542878648 168.34920634911396,53.27171002031537 166.0634920632001,54.015213364386 163.20634920615703,54.9817665295559 160.7936507933773,55.799618163960986 157.42857142840512,56.245718652091455 155.07936507905833,56.84051886043744 152.34920634911396,57.43531856260961 149.42857142840512,58.17881747870706 150.0,57.88141800730955 152.53968253941275,57.36096862750128 154.88888888875954,56.54311881941976 158.44444444426335,55.72526805481175 161.04761904734187,55.05611671751831 163.71428571408615,54.16391393833328 166.19047619006597,53.64346179109998 168.73015872971155,52.97430846147472 171.77777777751908,51.859051488456316 174.95238095219247,51.18989645066904 177.7460317458026,50.297688737278804 180.34920634888113,49.62853220530087 183.4603174601216,49.77723371202592 181.61904761893675,49.554181439976674 178.12698412663303,49.92593518755166 175.71428571431898,50.81814337515971 173.4285714281723,51.63599988044007 170.25396825373173,52.45385542878648 167.841269840952,53.34606039040955 165.61904761870392,54.16391393833328 162.44444444426335,54.90741633361904 159.96825396828353,55.650917937920894 157.17460317420773,55.94831835833611 153.7460317458026,57.137918774737045 150.82539682509378,57.65836832043715 148.79365079361014,58.401866999454796 151.96825396781787,57.43531856260961 155.2698412698228,56.46876878954936 157.7460317458026,55.87396826525219 160.1587301583495,55.279167234373745 162.8253968253266,54.46131499129115 165.30158730153926,53.79216244420968 168.28571428568102,52.97430846147472 170.69841269799508,52.379504963813815 173.30158730130643,51.56164932844695 176.34920634888113,50.66944208968198 178.57142857136205,50.00028591329465 180.98412698390894,49.62853220530087 183.4603174601216,49.77723371202592 181.8730158729013,49.40547988557955 178.25396825373173,49.77723371202592 175.39682539668866,50.81814337515971 173.0476190475747,51.48729876882862 170.57142857112922,52.305154490983114 167.7777777777519,52.97430846147472 164.66666666651145,53.866512758948375 161.7460317458026,54.758715917530935 158.69841269846074,55.650917937920894 155.71428571385331,56.245718652091455 153.42857142840512,56.914868850959465 151.1428571427241,57.65836832043715 149.04761904734187,58.25316732667852 151.52380952355452,57.43531856260961 154.0,56.914868850959465 156.22222222178243,56.171368590556085 158.8888888885267,55.35351739102043 161.68253968213685,54.53566523472546 164.98412698390894,53.64346179109998 169.1111111107748,52.75125720904907 172.2857142854482,51.859051488456316 175.26984126958996,50.96684462914709 178.1904761902988,50.00028591329465 180.53968253941275,49.62853220530087 182.95238095219247,49.62853220530087 181.80952380923554,49.47983066656161 179.77777777751908,49.554181439976674 176.53968253941275,50.52074077236466 174.1904761902988,51.26424704195233 171.58730158722028,52.15645352186402 168.60317460307851,52.6769067759742 166.31746031716466,53.420410752587486 163.46031745988876,54.16391393833328 161.11111111100763,54.90741633361904 158.19047619053163,55.72526805481175 155.71428571385331,56.022668443562 152.85714285704307,56.98921883339062 150.63492063456215,57.65836832043715 149.49206349183805,58.32751716708299 152.4126984125469,57.36096862750128 154.57142857112922,56.54311881941976 156.7936507933773,56.022668443562 159.90476190461777,55.20481707010185 162.44444444426335,54.53566523472546 164.85714285681024,53.94086306571262 167.20634920638986,53.19735964247957 170.76190476166084,52.379504963813815 173.30158730130643,51.48729876882862 176.4126984125469,50.52074077236466 178.5079365076963,49.851584453717805 180.920634920476,49.47983066656161 183.4603174601216,49.92593518755166 180.7936507933773,49.47983066656161 178.06349206343293,49.92593518755166 174.57142857112922,51.26424704195233 172.34920634888113,52.00775252096355 168.98412698390894,52.6769067759742 166.12698412686586,53.420410752587486 163.58730158722028,54.16391393833328 161.17460317444056,54.833066129591316 158.82539682509378,55.50221768033225 156.15873015858233,55.87396826525219 154.0634920632001,56.54311881941976 151.0158730156254,57.58401840896113 148.85714285681024,58.32751716708299 150.76190476166084,57.65836832043715 153.68253968213685,56.84051886043744 156.34920634888113,56.32006870594341 159.07936507905833,55.35351739102043 162.5079365076963,54.3869647399988 165.30158730153926,53.34606039040955 170.3809523805976,52.75125720904907 173.93650793633424,51.18989645066904 176.98412698390894,50.446390102035366 179.07936507905833,49.70288296259241 181.99999999976717,49.47983066656161 182.2539682534989,49.331129096390214 179.6507936506532,49.554181439976674 177.36507936473936,49.92593518755166 174.44444444403052,50.81814337515971 172.53968253941275,51.71035042422591 169.61904761870392,52.379504963813815 166.3809523805976,53.56911145284539 162.76190476166084,54.3869647399988 157.17460317420773,55.50221768033225 154.12698412686586,56.691818855761085 150.6984126982279,57.58401840896113 149.04761904734187,58.32751716708299 150.57142857136205,57.7327182238223 152.79365079361014,57.137918774737045 156.34920634888113,56.022668443562 159.26984126958996,54.90741633361904 161.87301587266847,54.61001547018532 166.19047619006597,53.49476110661635 169.61904761870392,52.305154490983114 173.0476190475747,51.26424704195233 175.77777777751908,50.66944208968198 177.99999999976717,50.074636631296016 180.34920634888113,49.554181439976674 183.58730158698745,49.77723371202592 182.1904761902988,49.47983066656161 179.9047619048506,49.554181439976674 176.98412698390894,50.074636631296016 174.1904761902988,51.115545851469506 171.65079365042038,51.71035042422591 169.55555555527098,52.379504963813815 167.4603174601216,53.04865886317566 165.1111111107748,53.866512758948375 161.80952380923554,54.61001547018532 159.0158730156254,55.35351739102043 156.22222222178243,56.022668443562 153.7460317458026,56.76616886211559 151.46031745988876,57.286618684534915 148.79365079361014,58.03011775872437 150.6984126982279,57.58401840896113 153.3650793649722,56.617468841723166 157.17460317420773,55.87396826525219 160.2857142854482,55.05611671751831 162.6984126982279,54.23826421331614 165.2380952378735,53.64346179109998 167.90476190438494,52.6769067759742 171.58730158722028,51.859051488456316 174.3174603173975,51.18989645066904 177.11111111100763,50.446390102035366 180.15873015858233,49.70288296259241 183.52380952355452,49.92593518755166 181.99999999976717,49.47983066656161 179.07936507905833,49.70288296259241 175.6507936506532,50.81814337515971 173.36507936473936,51.338597625494 170.8253968253266,52.08210302545922 168.47619047597982,52.6769067759742 166.12698412686586,53.420410752587486 162.95238095195964,54.16391393833328 159.84126984118484,55.13046689791372 157.49206349160522,55.576567812939174 155.6507936506532,56.245718652091455 153.04761904734187,56.98921883339062 150.88888888875954,57.58401840896113 149.55555555550382,57.95576788694598 151.6507936506532,57.43531856260961 154.0634920632001,56.46876878954936 157.61904761893675,55.50221768033225 159.96825396828353,54.90741633361904 162.3174603173975,54.31261448061559 164.41269841231406,53.64346179109998 166.0634920632001,53.04865886317566 169.3650793649722,52.15645352186402 171.96825396781787,51.63599988044007 174.12698412663303,51.04119524417911 176.920634920476,50.372039423615206 179.1428571427241,49.62853220530087 181.2380952378735,49.40547988557955 183.39682539645582,49.70288296259241 181.55555555527098,49.47983066656161 179.07936507905833,49.62853220530087 176.73015872994438,50.372039423615206 174.57142857112922,51.04119524417911 172.2857142854482,51.63599988044007 170.3809523805976,52.15645352186402 168.1587301583495,52.89995805209037 165.80952380946837,53.49476110661635 163.90476190461777,53.94086306571262 161.99999999976717,54.61001547018532 160.0317460312508,55.13046689791372 157.49206349160522,55.650917937920894 155.20634920615703,56.39441875182092 153.80952380946837,56.76616886211559 151.77777777751908,57.21226873353589 149.55555555550382,57.95576788694598 150.2539682534989,57.95576788694598" stroke="#4dd2ff" stroke-linecap="round" stroke-linejoin="round" stroke-width="0.5"><title>2023-04-28 16.3km</title><desc>9223370354162539235</desc></polyline><polyline fill="none" points="30.21007773745805,150.09897028765408 28.37045116070658,150.2947997803567 26.140600764891133,150.68645857839147 22.85157143115066,151.46977542497916 18.336124379420653,150.6211821293109 18.05739308008924,148.5976087677409 17.388437961461022,146.5087518497603 16.775229102466255,143.57128478353843 16.106273983605206,140.89491366397124 15.49306512484327,138.47964190569473 15.102841305546463,135.34630222117994 14.656871226616204,132.2782249498996 14.266647407319397,129.73236195580103 15.93903520423919,127.77399862196762 17.945900560356677,127.25176734424895 20.28724347590469,126.72953562258044 22.40560135198757,126.40314057067735 24.133735408773646,126.01146627962589 26.029108245158568,125.55451262387214 28.37045116070658,125.09755862812744 30.265823997091502,124.64060429227538 32.04970431374386,124.31420812977012 34.39104722929187,123.92253250570502 37.34559900360182,123.3350186010357 39.46395687991753,122.94334235228598 41.5265684959013,122.29054804885527 44.146642711013556,121.63775305106537 46.04201554739848,121.2460757191875 48.048880903515965,120.85439813736593 49.888507480267435,120.3321609730483 51.44940275722183,119.87520308973035 53.45626811357215,119.41824486601399 55.853357288986444,118.83072665036889 58.08320768456906,118.37376764928922 60.257311820751056,118.04736815457 62.26417717686854,117.06816862890264 65.05149017134681,115.95840727811446 67.16984804766253,115.4361659483402 69.6226834829431,114.71808339405106 72.52148899738677,114.06528034317307 74.36111557413824,114.13056067965226 76.92544352915138,114.52224255166948 78.48633880610578,115.4361659483402 79.54551774426363,116.48064816353144 81.16215928131714,119.7446436319733 81.77536814007908,122.15998910466442 82.66730829840526,124.37948737613624 82.89029333787039,127.05593050085008 83.1690246372018,129.07957487209933 83.44775593699887,131.9518328482518 83.00178585783578,134.30185210570926 81.05066676158458,135.01991175086005 78.31910002673976,136.19491663144436 76.36798093025573,136.91297406243393 74.02663801470771,137.63103065354517 72.01977265859023,138.0226975310943 69.45544470311143,138.61019737861352 67.61581812682562,139.13241899368586 65.55320651060902,139.6546401642263 63.60208741459064,140.17686089046765 61.9854458773043,140.69908117258456 60.14581930078566,141.22130101040239 58.08320768456906,141.8740751830628 55.12865591049194,142.91851241554832 52.45283543551341,143.63656198210083 49.442537400871515,143.5060075779911 48.49485098244622,141.61296559730545 47.825895864050835,139.7199177792063 47.2126870052889,137.76158630719874 46.71097066625953,135.1504679598147 45.986269287299365,133.12684360140702 45.261567909037694,131.16849109670147 44.53686653031036,129.47124720556894 44.09089645091444,127.64344084414188 43.36619507241994,125.7503499466111 42.92022499348968,123.85725321085192 44.31388149084523,121.96415063668974 45.763284248067066,121.31135529192397 47.54716456448659,120.9196777518373 49.33104488113895,120.52799996186513 51.5608952769544,119.87520308973035 53.623506893171,119.35296509211184 55.35164094995707,118.700166970375 57.19126752647571,118.37376764928922 59.03089410276152,117.91680830810219 61.26074449857697,117.32928865496069 63.32335611479357,116.48064816353144 65.38596773077734,115.82784698717296 67.28134056716226,115.37088575074449 69.34395218361169,114.7833636609721 71.18357876013033,114.39168195531238 73.41342915594578,114.06528034317307 75.86626459122635,114.26112133124843 77.59439864801243,115.04448465927271 79.6570102639962,116.41536807722878 81.32939806091599,118.56960726261605 81.44089058064856,120.98495735926554 82.22133821900934,123.40029795159353 82.66730829840526,125.42395437427331 83.05753211770207,127.38232520536985 83.33626341726631,129.47124720556894 83.78223349619657,131.36432662827428 83.61499471659772,133.453235078312 83.72648723633029,136.65186236670706 83.83797975606285,139.00186363147805 83.89372601616196,140.89491366397124 84.17245731549338,142.91851241554832 84.39544235519134,144.68099621596048 84.5069348749239,146.7698593530804 84.61842739465646,148.66288543178234 85.06439747381955,150.68645857839147 85.45462129311636,152.6447488211561 85.67760633258149,155.25579276133794 85.56611381284893,157.14879267383367 85.28738251351751,158.9765111890738 83.2805171571672,161.65280348371016 81.38514432078227,162.5666567173903 79.54551774426363,163.54578367224894 77.98462246730924,164.3943591035786 76.0335033708252,165.1123835524777 73.19044411624782,166.3526056224946 71.51805631956086,167.20117717440007 69.6226834829431,167.984472950513 67.6715643866919,168.83304224704625 66.05492284963839,169.55106150504434 63.880818713922054,170.46490298240678 61.92969961743802,171.31346885074163 60.14581930078566,171.770388447796 56.96828248677775,172.81477482127957 55.853357288986444,173.4022413759958 54.2367157517001,174.05498133279616 52.06261161598377,175.03408996696817 50.111492519732565,175.94792328344192 48.4391047230456,176.6659342207131 47.324179525021464,177.12284983473364 45.317314168671146,178.03668004245264 43.25470255268738,179.0810557572404 42.084031095029786,179.6032429485349 40.18865825841203,180.38652290264145 38.51627046172507,180.90870898368303 36.95537518477067,181.43089462060016 35.33873364748433,181.88780668849358 33.49910707119852,182.47526456211926 30.823286596219987,183.9112703310675 29.373883838765323,184.95563605369534 25.41589938639663,184.6292719563353 25.19291434669867,182.67108372837538 24.746944267535582,180.8434357479564 24.189481668639928,179.0810557572404 23.855004109209403,177.25339709053515 23.464780289912596,175.0993638203945 23.07455647061579,173.206419253489 22.572840131586418,171.05237178516109 22.071123792557046,168.76776772749145 21.68089997326024,166.87480363954091 21.123437374364585,164.5901840365259 20.78895981493406,162.37083113886183 20.3429897360038,160.15147021849407 19.61828835727647,157.9321012753062 19.283810797845945,155.84327611728804 18.614855679217726,152.12253870046698 18.22463185992092,150.22952328965766 17.945900560356677,148.40177873364883 17.444184221327305,146.11709038628032 17.053960401797667,144.22405645722756 16.552244063001126,142.2004620092921 16.106273983605206,140.50324861891568 15.604557644575834,137.95741973549593 15.27008008561097,135.86852661252487 14.991348786046728,133.97546108003007 14.768363746348768,132.34350334922783 14.322393667185679,129.7976406259695 14.545378706650808,128.75318106991472 16.106273983605206,128.6879022885696 17.444184221327305,128.42678709421307 20.12000469630584,127.12120945565403 22.517093871720135,126.6642566259834 24.300974188372493,126.27258250158047 25.58313816599548,125.88090812700102 27.25552596268244,125.48923350253608 29.429630098631606,124.96700028132182 31.15776415565051,124.57532507373253 33.108883251901716,124.31420812977012 34.78127104858868,123.92253250570502 36.50940510537475,123.46557729510823 38.7392555011902,123.13918050809298 40.467389557976276,122.74750413413858 42.58574743405916,122.22526858031051 44.369627750711516,121.70303258200875 45.484552948502824,121.44191441644216 47.2126870052889,121.05023695959244 48.88507480197586,120.52799996186513 50.61320885899477,120.07104222418275 52.50858169537969,119.87520308973035 54.292462011799216,119.35296509211184 55.96484980871901,118.89600647980114 57.692983865505084,118.24320787208853 59.58835670189001,117.72096848615911 61.03775945911184,117.39456864411477 62.87738603563048,116.87232853617752 64.54977383255027,116.3500879839412 66.50089292880148,115.69728666864103 68.22902698535472,115.24032533488935 70.40313112153672,114.65280312020332 71.96402639872395,114.32640164665645 73.9708917546086,114.0 76.92544352915138,114.65280312020332 79.09954766510054,115.95840727811446 80.32596538262442,117.45984862645855 81.10641302145086,119.02656611806015 81.7196218802128,120.85439813736593 82.38857699884102,122.68222471413901 82.66730829840526,124.57532507373253 83.00178585783578,126.40314057067735 83.22477089730091,128.55734470515745 83.39200967713259,129.7976406259695 83.670740976464,131.6907190422644 83.89372601616196,133.71434813464293 83.670740976464,136.65186236670706 83.83797975606285,138.28380864398787 83.89372601616196,139.5240849131951 84.11671105562709,142.46157134493114 84.17245731549338,143.63656198210083 84.28394983522594,145.13793563452782 84.56268113479018,147.42262762587052 84.8971586942207,149.38092827954097 85.12014373368584,151.53505178383784 85.51036755321547,153.23223467572825 85.67760633258149,154.4724807451712 85.78909885254689,156.23493137583137 85.62186007294804,157.9321012753062 85.17588999355212,159.69454197434243 83.39200967713259,161.65280348371016 81.60812936048023,162.50138153141597 79.7685027839616,163.54578367224894 78.37484628637321,164.3943591035786 76.53521970985457,165.2429333620239 75.42029451206326,165.63458262430504 73.46917541557923,166.22205604886403 71.96402639872395,167.26645186071983 70.29163860157132,167.984472950513 68.78648958471604,168.70249320095172 67.22559430752881,169.28996369004017 65.55320651060902,169.94270801899256 63.82507245382294,170.5954516537604 61.9854458773043,171.18292033171747 60.257311820751056,171.96621102810604 58.4734315040987,172.42313013941748 56.299327368149534,173.206419253489 55.184402169892564,173.7286114410963 53.51201437343843,174.38135105092078 52.34134291531518,175.22991150640883 50.39022381929681,175.8173757501063 48.94082106184214,176.7312079007388 47.324179525021464,177.44921792222885 45.540299208369106,178.16722710395698 44.146642711013556,178.75468853721395 42.2512698743958,179.6685163161601 40.467389557976276,180.38652290264145 39.01798680052161,180.97398221254116 37.06686770427041,181.757260418206 35.4502261672169,182.67108372837538 34.27955470955931,183.06272187340073 32.830151952337474,183.65017862286186 31.269256675383076,184.30290768528357 29.596868878230453,185.34727274172474 27.64574978221208,186.0 25.248660606564954,184.04181614355184 24.91418304736726,182.80162980448222 24.746944267535582,181.3656214402872 24.300974188372493,179.6685163161601 23.966496628941968,178.03668004245264 23.409034030046314,176.01319703966146 23.13030273048207,174.120255290356 22.795825171051547,172.35785600158852 22.40560135198757,170.3996286363108 21.848138752859086,168.1802967384574 21.290676154196262,165.69985747692408" stroke="#4dd2ff" stroke-linecap="round" stroke-linejoin="round" stroke-width="0.5"><title>2023-04-17 10.0km</title><desc>9223370355117402580</desc></polyline><polyline fill="none" points="156.51880619855365,156.12141756456913 156.44143164425623,156.1405341478967 156.21483473529224,156.1660229167428 156.1208799193555,156.1086731724754 155.97165756468894,156.1086731724754 155.86112248711288,156.13416195408354 155.77269442507531,156.17239510735453 155.76716767120524,156.18513948666805 155.81138170222403,156.21700042378143 155.80032819445478,156.25523352726304 155.756114163436,156.29346660777082 155.756114163436,156.3125831394027 155.80585494832485,156.3125831394027 155.9606040569197,156.26797788998374 156.037978611188,156.2106282376444 156.203781227523,156.1086731724754 156.38063735159812,156.04495117378974 156.4248513826169,156.05132337651958 156.47459216750576,156.07043998092558 156.46353865976562,156.12141756456913 156.51880619855365,156.1086731724754 156.54091321406304,156.1086731724754 156.65144829161,156.17876729732234 156.87804520057398,156.25523352726304 156.92225923159276,156.2616057089399 157.0991153556679,156.24248916199213 157.22623069485417,156.20425605085984 157.24833771039266,156.18513948666805 157.24833771039266,156.15965072549807 157.31465875689173,156.13416195408354 157.3422925263003,156.11504536884604 157.35334603404044,156.09592877786054 157.43072058833786,156.06406778009114 157.49151488099596,156.07043998092558 157.65731749733095,156.05132337651958 157.71811178995995,156.05132337651958 157.74021880549844,156.07043998092558 157.82312011363683,156.0768121811234 157.96681571443332,156.11504536884604 157.9944494838128,156.09592877786054 157.99997623771196,156.07043998092558 157.99997623771196,156.0576955786346 157.98339597607264,156.04495117378974 157.92260168344365,156.05132337651958 157.86733414465562,156.11504536884604 157.79548634425737,156.13416195408354 157.78443283651723,156.14690634106228 157.71258503606077,156.17239510735453 157.72363854385912,156.17876729732234 157.66284425117192,156.2297447941637 157.39203331121826,156.28709442928084 157.30913200302166,156.24886134495318 157.29807849528152,156.19151167536256 157.18754341770546,156.14690634106228 157.02726755526965,156.11504536884604 156.70671583036892,156.1405341478967 156.53538646016386,156.14690634106228 156.4690654136357,156.1660229167428 156.23694175080163,156.27435007038366 156.20930798142217,156.21700042378143 156.17614745814353,156.15965072549807 156.1429869348649,156.15327853360213 156.06561238059658,156.15327853360213 155.92191677977098,156.19788386343134 155.8998097642325,156.2233726093 155.9163900259009,156.24248916199213 155.95507730304962,156.24886134495318 155.9992913340684,156.21700042378143 156.00481808793847,156.19151167536256 156.01034484180855,156.1660229167428 155.9606040569197,156.09592877786054 155.98823782629916,156.13416195408354 156.00481808793847,156.14690634106228 156.00481808793847,156.07043998092558 156.01587159567862,156.04495117378974 156.02692510341876,155.96211248006512 156.01587159567862,155.7645736212762 155.9992913340684,155.65624559959906 156.01034484180855,155.6307566265059 156.15404044260504,155.59252314772675 156.17614745814353,155.6052676432264 156.29773604343063,155.72634022292914 156.41379787487676,155.80917922365916 156.47459216750576,155.8729014585042 156.52433295242372,155.89839033457247 156.64039478384075,156.03857897041235 156.69566232262878,156.07043998092558 156.7951438924065,156.08318438067 156.90015221608337,156.07043998092558 156.9941070320201,156.0768121811234 157.23175744875334,156.0576955786346 157.36992629567976,156.07043998092558 157.380979803449,156.08318438067 157.49704163486604,156.07043998092558 157.65731749733095,156.08955657957267 157.6849512667104,156.1086731724754 157.77890608261805,156.1086731724754 157.84522712914622,156.1277897596483 157.9336551911838,156.1277897596483 157.9502354528231,156.17239510735453 157.9723424683325,156.15965072549807 157.98339597607264,156.13416195408354 157.98339597607264,156.11504536884604 157.9502354528231,156.08955657957267 157.8728608985257,156.03857897041235 157.84522712914622,156.03220676640558 157.8507538830163,156.06406778009114 157.76232582097873,156.08318438067 157.67389775894117,156.14690634106228 157.65731749733095,156.18513948666805 157.66284425117192,156.2297447941637 157.61863022015314,156.26797788998374 157.53572891201475,156.36993269983577 157.380979803449,156.42091004348913 157.32571226466098,156.34444401268775 157.27044472590205,156.3062109628372 157.1156956173072,156.2297447941637 156.86699169283384,156.17876729732234 156.70118907649885,156.12141756456913 156.51327944468358,156.0768121811234 156.36958384385798,156.08318438067 156.33089656670927,156.09592877786054 156.0213983495778,156.1405341478967 155.94955054915044,156.1660229167428 155.92744353364105,156.18513948666805 155.82243520996417,156.2297447941637 155.77269442507531,156.2616057089399 155.76716767120524,156.28072225015785 155.7782211789454,156.29983878559506 155.8169084561232,156.3125831394027 156.06561238059658,156.24886134495318 156.19825447362382,156.2297447941637 156.56302022954333,156.01946235643481 156.86146493893466,155.7454569249785 157.04937457077904,155.54154514029142 156.96094650874147,155.49056709198703 156.80067064627656,155.45870579106486 153.9046516144881,147.2315838060822 142.06634480884532,114.13390467897989 142.09397857822478,114.16578670379386 142.08292507045553,114.18491591098427 142.03871103946585,114.20404511243032 142.02213077779743,114.19129231211264 142.0055505161581,114.15303389578912 142.00002376228804,114.1147754564372 142.01660402395646,114.07651699400958 142.09397857822478,114.01275283873838 142.14371936311363,114.0 142.22662067128113,114.0 142.26530794842984,114.0191292571435 142.30399522554944,114.04463492437208 145.33265635045245,184.3503544083469 145.41003090472077,184.4076787167287 145.43766467412934,184.4395255324307 145.4266111663601,184.48411104767 145.4266111663601,184.50321911606807 145.45977168963873,184.56691263604444 145.54267299780622,184.6497141167929 145.6089940443344,184.70066882068932 145.7305826296215,184.82168607908534 145.80243043001974,184.94270310760476 145.8742782304471,185.0191347966429 145.92954576920602,185.07645850324116 146.01797383124358,185.13378215826378 146.01797383124358,185.10193568960676 146.04560760065215,185.10830498462383 146.1561426781991,185.0637199062403 146.1782496936794,185.0637199062403 146.17272293983842,185.10830498462383 146.27220450961613,185.10193568960676 146.34957906391355,185.10830498462383 146.37168607942294,185.08919709769543 146.3385255561734,185.12104357271892 146.31641854066402,185.09556639397488 146.26115100184688,185.08919709769543 146.16719618593925,185.02550409993273 146.0953483855701,184.99365757714986 146.06771461616154,184.98728827069135 146.04560760065215,184.99365757714986 146.07876812390168,185.02550409993273 146.3385255561734,185.13378215826378 146.92436146715772,185.4076611314449 147.52677763983957,185.60510803289435 147.67047324063606,185.6815389272124 148.41105826024432,185.85350810423915 148.4939595684118,185.87898497987408 148.57133412268013,185.91720027422707 148.7813507700048,185.96815396436068 148.8587253243022,186.0" stroke="#4dd2ff" stroke-linecap="round" stroke-linejoin="round" stroke-width="0.5"><title>2023-02-12 11.8km</title><desc>8545993924</desc></polyline><polyline fill="none" points="20.911999999545515,239.62974208500236 21.919999999925494,239.62974208500236 24.080000000074506,238.79959965951275 26.815999999642372,238.79959965951275 30.99199999962002,238.63357112486847 34.015999998897314,238.9656281779753 38.62399999983609,239.62974208500236 41.35999999940395,240.12782734062057 46.83199999947101,239.62974208500236 51.583999999798834,240.6259124459466 54.60799999907613,240.95796910021454 58.06400000024587,241.62208220898174 61.519999999552965,241.954138663481 65.26399999950081,241.78811044432223 69.58399999979883,241.29002568824217 73.04000000003725,242.95030762825627 76.06399999931455,243.11633573041763 72.3199999993667,243.28236381628085 69.43999999947846,242.4522232208401 65.83999999985099,242.1201668656431 64.25599999912083,241.954138663481 59.2160000000149,240.95796910021454 55.03999999910593,240.95796910021454 51.00799999944866,240.6259124459466 46.975999999791384,239.96179893868975 44.239999999292195,239.46371363301296 41.35999999940395,238.79959965951275 39.34399999957532,238.46754257334396 34.87999999988824,237.47137091483455 29.119999999180436,236.30916988977697 25.807999999262393,236.143141105189 21.632000000216067,236.4751986573683 18.60800000000745,236.143141105189 18.031999999657273,237.63739956589416 21.200000000186265,237.63739956589416 25.807999999262393,238.30151400505565 29.119999999180436,238.46754257334396 31.279999999329448,238.46754257334396 35.88800000026822,238.79959965951275 39.48799999989569,239.13165667990688 43.37600000016391,239.2976851647254 46.256000000052154,239.2976851647254 49.99999999906868,239.62974208500236 53.74399999901652,240.6259124459466 57.48799999896437,241.29002568824217 60.36799999978393,241.62208220898174 64.11199999973178,241.78811044432223 67.42399999964982,242.4522232208401 68.71999999973923,242.61825137317646 73.47199999913573,243.44839188584592 77.503999998793,243.28236381628085 74.33599999919534,243.61441993853077 69.58399999979883,242.95030762825627 66.70399999897927,242.2861950516235 63.1039999993518,241.78811044432223 59.50399999972433,241.12399740261026 56.76799999922514,240.6259124459466 53.31199999898672,239.96179893868975 49.27999999932945,239.7957705197623 44.671999999322,239.62974208500236 41.791999999433756,239.13165667990688 37.32799999974668,238.46754257334396 33.87199999950826,238.13548542035278 29.83999999985099,237.80342820065562 25.66399999987334,237.80342820065562 22.351999999955297,238.63357112486847 17.311999999918044,238.9656281779753 15.43999999947846,239.13165667990688 19.183999999426305,238.9656281779753 23.648000000044703,238.46754257334396 26.959999999962747,238.79959965951275 32.86399999912828,239.2976851647254 36.32000000029802,239.2976851647254 41.071999999694526,239.62974208500236 44.671999999322,239.62974208500236 51.583999999798834,241.29002568824217 54.60799999907613,241.78811044432223 59.93599999975413,241.45605395687744 63.5359999993816,241.954138663481 68.43199999909848,242.78427950874902 72.03199999965727,243.28236381628085 74.47999999951571,243.94647599372547 76.06399999931455,243.61441993853077 74.04799999948591,243.78044797445182 73.04000000003725,243.78044797445182 72.46399999968708,243.61441993853077 66.55999999959022,243.11633573041763 61.95199999958277,242.61825137317646 56.04800000041723,241.29002568824217 50.28799999970943,240.95796910021454 45.1039999993518,241.12399740261026 41.791999999433756,240.6259124459466 39.34399999957532,240.12782734062057 35.45600000023842,239.46371363301296 31.135999999940395,239.13165667990688 27.1039999993518,238.9656281779753 25.519999999552965,238.79959965951275 20.04799999948591,238.30151400505565 15.871999999508262,237.96945681911893 19.183999999426305,238.30151400505565 24.223999999463558,238.30151400505565 28.11199999973178,238.9656281779753 30.559999999590218,239.2976851647254 32.86399999912828,239.7957705197623 37.32799999974668,240.293855725904 40.3519999999553,240.7919407816371 42.36799999978393,241.29002568824217 46.11199999973178,241.29002568824217 50.14399999938905,241.29002568824217 55.32799999881536,241.954138663481 59.35999999940395,242.4522232208401 63.1039999993518,243.11633573041763 65.98400000017136,243.44839188584592 70.30399999953806,243.78044797445182 75.77599999960512,243.94647599372547 75.34399999957532,243.28236381628085 71.59999999962747,243.28236381628085 69.15199999976903,242.95030762825627 61.23199999984354,242.61825137317646 55.61599999945611,241.62208220898174 52.01599999982864,240.7919407816371 47.69599999953061,241.29002568824217 43.08799999952316,240.6259124459466 39.19999999925494,239.2976851647254 34.30400000046939,238.30151400505565 30.27199999988079,238.79959965951275 26.815999999642372,238.79959965951275 22.7839999999851,238.13548542035278 20.191999999806285,237.1393135621911 16.735999999567866,238.13548542035278 20.335999999195337,238.13548542035278 25.231999999843538,239.2976851647254 29.407999999821186,239.7957705197623 34.73600000049919,240.293855725904 39.63200000021607,240.7919407816371 42.94399999920279,241.29002568824217 47.98399999924004,241.954138663481 52.303999999538064,242.61825137317646 56.623999998904765,243.44839188584592 60.51200000010431,243.28236381628085 63.5359999993816,243.28236381628085 65.98400000017136,243.61441993853077 70.87999999988824,243.94647599372547 75.05599999986589,244.61058790551033 73.61599999945611,243.61441993853077 70.59199999924749,243.94647599372547 64.68800000008196,243.61441993853077 62.24000000022352,243.11633573041763 58.06400000024587,241.29002568824217 54.89599999971688,240.293855725904 50.575999999418855,240.4598840943072 45.5359999993816,240.293855725904 42.36799999978393,238.9656281779753 33.583999999798834,238.46754257334396 28.399999999441206,238.13548542035278 22.7839999999851,238.30151400505565 15.871999999508262,237.1393135621911 15.72800000011921,237.47137091483455 18.463999999687076,237.96945681911893 24.080000000074506,238.13548542035278 28.975999999791384,238.63357112486847 33.295999999158084,240.12782734062057 39.63200000021607,241.12399740261026 43.66399999987334,241.12399740261026 46.83199999947101,241.29002568824217 49.27999999932945,241.78811044432223 55.32799999881536,242.78427950874902 58.7839999999851,242.95030762825627 61.08799999952316,242.78427950874902 65.83999999985099,243.11633573041763 67.56799999903888,242.95030762825627 74.62399999890476,244.11250399658456 77.07199999969453,243.61441993853077 74.33599999919534,242.95030762825627 71.59999999962747,242.1201668656431 67.1359999999404,241.29002568824217 62.24000000022352,240.95796910021454 56.623999998904765,240.7919407816371 54.175999999046326,240.7919407816371 50.864000000059605,240.4598840943072 48.99199999962002,240.293855725904 43.80799999926239,239.96179893868975 37.183999999426305,239.7957705197623 35.60000000055879,238.79959965951275 28.975999999791384,237.96945681911893 23.50399999972433,237.96945681911893 18.3199999993667,238.46754257334396 19.040000000037253,238.79959965951275 24.367999999783933,238.63357112486847 29.695999999530613,238.79959965951275 34.447999998927116,239.13165667990688 37.04000000003725,239.46371363301296 42.511999999172986,238.79959965951275 46.83199999947101,240.4598840943072 52.303999999538064,241.29002568824217 56.623999998904765,241.62208220898174 60.51200000010431,241.954138663481 64.11199999973178,242.95030762825627 68.57599999941885,243.94647599372547 71.59999999962747,243.61441993853077 77.64799999911338,243.94647599372547 75.63199999928474,243.11633573041763 72.3199999993667,242.1201668656431 67.85599999967963,241.78811044432223 62.09599999990314,241.78811044432223 60.080000000074506,241.12399740261026 55.183999999426305,240.6259124459466 52.44799999985844,240.4598840943072 44.959999999031425,240.7919407816371 41.071999999694526,240.293855725904 37.61599999945611,239.7957705197623 30.559999999590218,238.63357112486847 23.2160000000149,237.63739956589416 20.623999999836087,237.63739956589416 15.43999999947846,237.47137091483455 18.60800000000745,237.47137091483455 23.071999999694526,237.63739956589416 26.095999999903142,237.63739956589416 33.00800000037998,238.79959965951275 36.89599999971688,239.2976851647254 41.071999999694526,239.96179893868975 46.54399999976158,239.96179893868975 51.87199999950826,241.45605395687744 59.071999998763204,241.78811044432223 63.247999999672174,241.62208220898174 67.27999999932945,242.1201668656431 70.44799999985844,242.95030762825627 75.48799999896437,242.4522232208401 69.87199999950826,242.61825137317646 65.55199999921024,242.2861950516235 62.24000000022352,242.1201668656431 59.791999999433756,241.62208220898174 54.463999999687076,240.95796910021454 50.14399999938905,240.4598840943072 46.54399999976158,240.293855725904 39.919999999925494,237.63739956589416 34.87999999988824,236.8072561433073 30.99199999962002,237.30534224642906 28.11199999973178,237.30534224642906 25.519999999552965,237.96945681911893 15.871999999508262,236.8072561433073 23.50399999972433,237.80342820065562 28.975999999791384,239.46371363301296 31.71199999935925,239.7957705197623 38.47999999951571,240.6259124459466 44.81599999964237,241.12399740261026 48.41599999926984,241.62208220898174 51.43999999947846,242.2861950516235 56.47999999951571,242.78427950874902 60.94400000013411,242.1201668656431 66.41599999926984,242.78427950874902 69.00799999944866,242.78427950874902 76.63999999966472,242.78427950874902 74.76799999922514,242.1201668656431 69.58399999979883,242.1201668656431 64.54399999976158,241.954138663481 61.519999999552965,242.1201668656431 57.91999999899417,239.96179893868975 52.01599999982864,239.46371363301296 48.27199999988079,239.96179893868975 44.239999999292195,239.2976851647254 42.080000000074506,239.13165667990688 38.33600000012666,238.9656281779753 34.16000000014901,238.63357112486847 29.83999999985099,237.80342820065562 25.519999999552965,237.80342820065562 21.200000000186265,237.30534224642906 16.015999999828637,236.6412274086615 21.343999999575317,238.30151400505565 25.087999999523163,238.13548542035278 28.975999999791384,238.46754257334396 32.43199999909848,238.9656281779753 37.183999999426305,239.62974208500236 40.06399999931455,239.96179893868975 44.38399999961257,240.293855725904 47.12000000011176,240.293855725904 51.00799999944866,240.7919407816371 56.76799999922514,242.4522232208401 61.95199999958277,241.954138663481 64.25599999912083,242.1201668656431 67.99999999906868,242.1201668656431 71.0239999992773,242.78427950874902 75.19999999925494,243.11633573041763 75.19999999925494,242.61825137317646 71.74399999994785,241.954138663481 69.58399999979883,239.46371363301296 69.29599999915808,235.64505465247203 71.31199999991804,226.84550263895653 71.59999999962747,222.19666384824086 72.3199999993667,216.21956624416634 71.0239999992773,217.87987329636235 70.01599999889731,222.36269402969629 69.58399999979883,225.51726431481075 69.29599999915808,231.99241609114688 68.86399999912828,234.81491023197304 67.71199999935925,239.46371363301296 65.11999999918044,242.1201668656431 57.63200000021607,239.7957705197623 55.47199999913573,239.46371363301296 48.847999999299645,238.79959965951275 45.39199999999255,239.62974208500236 38.191999999806285,240.7919407816371 34.16000000014901,240.12782734062057 26.959999999962747,237.30534224642906 16.87999999988824,236.143141105189 19.32799999974668,238.30151400505565 23.93599999975413,239.62974208500236 26.527999999932945,239.46371363301296 30.70399999897927,239.46371363301296 34.87999999988824,239.7957705197623 39.77599999960512,239.7957705197623 43.08799999952316,240.12782734062057 45.247999999672174,240.4598840943072 49.71199999935925,240.7919407816371 53.16799999959767,241.29002568824217 57.48799999896437,241.45605395687744 63.82400000002235,242.1201668656431 67.42399999964982,242.1201668656431 70.59199999924749,242.61825137317646 72.17599999997765,242.78427950874902 77.07199999969453,242.2861950516235 74.33599999919534,242.2861950516235 70.59199999924749,240.12782734062057 71.0239999992773,233.48667829413898 71.31199999991804,228.83785812929273 73.47199999913573,229.501976093743 78.51199999917299,230.16609379276633 82.54399999883026,228.67182859627064 84.99199999962002,224.35505490819924 85.85599999967963,221.36651269206777 80.671999999322,218.54399565130007 76.92799999937415,218.37796508765314 71.8879999993369,220.86842179868836 71.16799999959767,223.02681458822917 69.58399999979883,231.99241609114688 68.86399999912828,236.6412274086615 67.99999999906868,239.2976851647254 63.967999999411404,241.45605395687744 58.06400000024587,239.96179893868975 55.61599999945611,239.46371363301296 51.43999999947846,238.79959965951275" stroke="#4dd2ff" stroke-linecap="round" stroke-linejoin="round" stroke-width="0.5"><title>2021-06-21 10.0km</title><desc>9223370412586047204</desc></polyline></svg>