<?xml version="1.0" encoding="utf-8" ?>
<svg baseProfile="full" height="200mm" version="1.1" viewBox="0,0,200,200" width="200mm" xmlns="http://www.w3.org/2000/svg" xmlns:ev="http://www.w3.org/2001/xml-events" xmlns:xlink="http://www.w3.org/1999/xlink"><defs /><rect fill="#1a1a1a" height="200" width="200" x="0" y="0" /><text alignment-baseline="middle" fill="#e1ed5e" style="dominant-baseline: central; font-size:9.0px; font-family:Arial;" text-anchor="middle" x="100.0" y="100.0">2024</text><line stroke="#e1ed5e" stroke-width="0.3" x1="100.0" x2="100.0" y1="15.0" y2="10.0" /><path d="M 100.0 14.0 a86.0,86.0 0 0,1 42.35913384403234,11.155469271406648" fill="none" id="id49" stroke="none" /><text fill="#e1ed5e" style="font-size:6.75px; font-family:Arial;" text-anchor="middle"><textPath startOffset="22.145653131862478" xlink:href="#id49">January</textPath></text><path d="M 100.0 79.0 l 0.0 -28.633366752845255 a49.633366752845255,49.633366752845255 0 0,0 0.8520227405156711,0.007313590498272861 l -0.49152981566681625 28.629147560541416" fill="#c3ff1e" stroke="none" /><path d="M 101.44090949804482 79.04949213459386 l 1.9440572327413679 -28.266165502145203 a49.33293967661735,49.33293967661735 0 0,0 0.844370861840921,0.0653596448810386 l -2.428997089357522 28.228628090269112" fill="#c6ff1e" stroke="none" /><path d="M 107.06938296918511 80.22567764915836 l 6.879060828539547 -19.241957450533874 a41.43463736920485,41.43463736920485 0 0,0 0.6677109896674438,0.24519272416678914 l -7.208360969861116 19.121033877358364" fill="#ffcf13" stroke="none" /><line stroke="#e1ed5e" stroke-width="0.3" x1="143.13028292997686" x2="145.6673583964461" y1="26.7553504044142" y2="22.446841604673864" /><path d="M 143.63769802327073 25.89364864446614 a86.0,86.0 0 0,1 29.32050498858742,28.57503671076993" fill="none" id="id50" stroke="none" /><text fill="#e1ed5e" style="font-size:6.75px; font-family:Arial;" text-anchor="middle"><textPath startOffset="20.669276256404974" xlink:href="#id50">February</textPath></text><path d="M 114.39649973595853 84.71141617570332 l 5.64141308016111 -5.990985193998222 a29.22906101178736,29.22906101178736 0 0,0 0.3623394663661776,0.34711301232847014 l -5.7434250323926 5.893260051364172" fill="#ff1902" stroke="none" /><path d="M 114.91283532996326 85.21462403516908 l 22.428986417196356 -22.23728683049512 a52.58411558496597,52.58411558496597 0 0,0 0.6300408348089875,0.6464774000821527 l -22.807414053156155 21.848986738345225" fill="#9eff22" stroke="none" /><line stroke="#e1ed5e" stroke-width="0.3" x1="172.87174338648825" x2="177.1583165268699" y1="56.24261187166439" y2="53.66864786411523" /><path d="M 173.72905801456457 55.72781907015455 a86.0,86.0 0 0,1 12.242430191666344,42.057860355516425" fill="none" id="id51" stroke="none" /><text fill="#e1ed5e" style="font-size:6.75px; font-family:Arial;" text-anchor="middle"><textPath startOffset="22.145653131862474" xlink:href="#id51">March</textPath></text><path d="M 118.00360718960297 89.18935116829356 l 27.09532037039351 -16.269961370633858 a52.60487350039831,52.60487350039831 0 0,0 0.45822925421527444,0.7781734521411422 l -27.370623334738553 15.80243675019916" fill="#9eff22" stroke="none" /><path d="M 118.8641267826498 90.77261029715802 l 24.12974305878387 -11.803066486895661 a47.861810783657305,47.861810783657305 0 0,0 0.35468050045404936,0.7411458331129032 l -24.328802817197833 11.387108151717653" fill="#d9ff1c" stroke="none" /><path d="M 119.83427380445688 93.10060997987247 l 29.859370740147124 -10.386639134000806 a52.61430520345989,52.61430520345989 0 0,0 0.28941520404002824,0.8556046250327123 l -30.033271365759518 9.872532834493933" fill="#9eff22" stroke="none" /><path d="M 120.16314734710363 94.1308016681162 l 28.288126218169907 -8.234261266540345 a50.46219855239521,50.46219855239521 0 0,0 0.23496523179452602,0.8338087161959037 l -28.425309942039014 7.747444626441427" fill="#b8ff1f" stroke="none" /><path d="M 120.7213421655516 96.59031103205396 l 34.694650344502364 -5.708991511325009 a56.16121935604138,56.16121935604138 0 0,0 0.14836860236041688,0.9526328596077444 l -34.78754043900104 5.112570469785823" fill="#74ff27" stroke="none" /><line stroke="#e1ed5e" stroke-width="0.3" x1="184.99686870605535" x2="189.99668451229388" y1="99.2704041080226" y2="99.22748670261217" /><path d="M 185.99683186730306 99.26182062694052 a86.0,86.0 0 0,1 -10.086455211305974,41.156179273409016" fill="none" id="id52" stroke="none" /><text fill="#e1ed5e" style="font-size:6.75px; font-family:Arial;" text-anchor="middle"><textPath startOffset="21.40746469413373" xlink:href="#id52">April</textPath></text><path d="M 120.96210409425399 101.26102812881392 l 31.61211551593977 1.9017063696311869 a52.6692648242648,52.6692648242648 0 0,0 -0.062039475242877756,0.9020403542382458 l -31.574812079531828 -2.444090148023776" fill="#9dff22" stroke="none" /><path d="M 120.51834098615036 104.47187691870673 l 19.925040620278217 4.342569865383322 a41.39277216945926,41.39277216945926 0 0,0 -0.15727112519719308,0.6929655960888794 l -19.84755863352336 -4.683969795411218" fill="#ffce13" stroke="none" /><line stroke="#e1ed5e" stroke-width="0.3" x1="174.33088141563837" x2="178.70328620479359" y1="141.23008692659167" y2="143.65538615756765" /><path d="M 175.20536237346943 141.71514677278685 a86.0,86.0 0 0,1 -30.301960400862466,31.631185727798858" fill="none" id="id53" stroke="none" /><text fill="#e1ed5e" style="font-size:6.75px; font-family:Arial;" text-anchor="middle"><textPath startOffset="22.145653131862474" xlink:href="#id53">May</textPath></text><path d="M 118.36410011445183 110.18625677009912 l 27.564747660338284 15.28970086861106 a52.52126688808257,52.52126688808257 0 0,0 -0.44409641076813944,0.7846758053310964 l -27.298217884548766 -15.760633444041279" fill="#9fff22" stroke="none" /><path d="M 117.423217284605 111.72311816256416 l 17.31586601812589 11.65088743954221 a41.87061077416206,41.87061077416206 0 0,0 -0.40636477150405964,0.5928983459827509 l -17.11331150980651 -11.946420520595005" fill="#ffd513" stroke="none" /><path d="M 116.1254893667686 113.45245675266167 l 24.244602854805436 20.225709990659666 a52.57340830847234,52.57340830847234 0 0,0 -0.5840791415869919,0.6880437601433649 l -23.89382914971133 -20.638920533252588" fill="#9eff22" stroke="none" /><path d="M 113.31354834802062 116.24036423190432 l 14.27056250980414 17.40776590095416 a43.50953726775941,43.50953726775941 0 0,0 -0.5816794795296613,0.468559813779204 l -13.969632259919226 -17.65017400852677" fill="#ffeb16" stroke="none" /><path d="M 112.7482090630111 116.68781488649013 l 19.15686966595477 25.07695733651248 a52.556923878217994,52.556923878217994 0 0,0 -0.7216491386823111,0.5415389672752349 l -18.723567538361692 -25.40211533105173" fill="#9eff22" stroke="none" /><line stroke="#e1ed5e" stroke-width="0.3" x1="143.1302829299769" x2="145.66735839644613" y1="173.24464959558577" y2="177.55315839532614" /><path d="M 143.63769802327073 174.10635135553383 a86.0,86.0 0 0,1 -40.68552437913181,11.842963189579606" fill="none" id="id54" stroke="none" /><text fill="#e1ed5e" style="font-size:6.75px; font-family:Arial;" text-anchor="middle"><textPath startOffset="21.407464694133747" xlink:href="#id54">June</textPath></text><path d="M 110.65571695917076 118.09573695890943 l 14.80230031820943 25.13754203226736 a50.171974806901076,50.171974806901076 0 0,0 -0.7459080208110878,0.43065019660598414 l -14.368599829537944 -25.387939126149515" fill="#bcff1f" stroke="none" /><path d="M 109.71004243097381 118.62028667847754 l 14.63537867556047 28.06526835739921 a52.65207097410663,52.65207097410663 0 0,0 -0.8050069861995269,0.41104230305534495 l -14.15144446764736 -28.31236861212739" fill="#9dff22" stroke="none" /><path d="M 108.4095320186766 119.2426549942271 l 8.14265771516847 18.631994360814154 a41.33357048154119,41.33357048154119 0 0,0 -0.6526077233166614,0.2785594306298971 l -7.821614916681377 -18.769028441103455" fill="#ffcd13" stroke="none" /><path d="M 108.07796709384702 119.3841803445677 l 14.593849265417667 35.01992553272092 a58.93910411039052,58.93910411039052 0 0,0 -0.9372595656712887,0.3811753059043288 l -13.990535238555937 -35.26528809520454" fill="#54ff2b" stroke="none" /><path d="M 106.0420521117495 120.11202640906438 l 9.979223767033922 33.21759035382351 a55.68419259413376,55.68419259413376 0 0,0 -0.9178345588130326,0.2671682634062852 l -9.407529195839283 -33.38400231153231" fill="#79ff26" stroke="none" /><path d="M 103.2317021107853 120.74984581791261 l 5.374325065798129 34.507022203093996 a55.923028952794006,55.923028952794006 0 0,0 -0.949825735516007,0.13959167407528503 l -4.781174224674436 -34.594194950468165" fill="#76ff27" stroke="none" /><path d="M 101.08105385017728 120.97215588758144 l 1.6243362763614355 31.511689816487088 a52.55352695704871,52.55352695704871 0 0,0 -0.9013536475951819,0.038708003913781 l -1.083156868165424 -31.534930388826698" fill="#9eff22" stroke="none" /><line stroke="#e1ed5e" stroke-width="0.3" x1="101.45913802915013" x2="101.54496967792366" y1="184.9874750549273" y2="189.98673829345242" /><path d="M 101.47630435890484 185.9873277026323 a86.0,86.0 0 0,1 -42.54439059252881,-10.42667462771756" fill="none" id="id55" stroke="none" /><text fill="#e1ed5e" style="font-size:6.75px; font-family:Arial;" text-anchor="middle"><textPath startOffset="22.145653131862474" xlink:href="#id55">July</textPath></text><path d="M 98.55909050195518 120.95050786540614 l -1.9169982693283023 27.872734112745274 a48.93857887016449,48.93857887016449 0 0,0 -0.8376210760749816,-0.0648371687741267 l 2.39518834017852 -27.835719176976095" fill="#cbff1d" stroke="none" /><path d="M 94.6519064749342 120.30758222061772 l -8.073302832439019 30.655645847121555 a52.700896531934376,52.700896531934376 0 0,0 -0.8728739048201428,-0.23790566425656923 l 8.598358138193857 -30.512539688720842" fill="#9dff22" stroke="none" /><path d="M 93.27111125876986 119.89276391827306 l -10.143227166974427 29.98664878580656 a52.655712956181574,52.655712956181574 0 0,0 -0.8537603014492375,-0.2969821512737393 l 10.656493240468686 -29.808108201964227" fill="#9dff22" stroke="none" /><line stroke="#e1ed5e" stroke-width="0.3" x1="58.13341422392154" x2="55.67067388415222" y1="173.97424548756322" y2="178.32567169271397" /><path d="M 57.64086615596768 174.84453072859336 a86.0,86.0 0 0,1 -31.369924170532247,-30.572349798747897" fill="none" id="id56" stroke="none" /><text fill="#e1ed5e" style="font-size:6.75px; font-family:Arial;" text-anchor="middle"><textPath startOffset="22.145653131862474" xlink:href="#id56">August</textPath></text><path d="M 87.83215693770417 117.11559508785305 l -11.022508772421398 15.504538975001953 a40.02331276264629,40.02331276264629 0 0,0 -0.5565508264016765,-0.40289987833895113 l 11.287040609197028 -15.313038325289936" fill="#ffbb11" stroke="none" /><path d="M 84.83555147118756 114.52719865689866 l -13.783586934564013 13.204364485961646 a40.08775812558429,40.08775812558429 0 0,0 -0.47178359806334663,-0.5010178319875835 l 14.008226366363614 -12.965805194029572" fill="#ffbc11" stroke="none" /><path d="M 83.4222238831116 112.89097897827486 l -24.903358709304875 19.36500235897402 a52.54648302691412,52.54648302691412 0 0,0 -0.5476044717822024,-0.7168318319025936 l 25.232115158441374 -18.934649613830555" fill="#9eff22" stroke="none" /><line stroke="#e1ed5e" stroke-width="0.3" x1="26.387840678322732" x2="22.057713659400548" y1="142.50000000000003" y2="145.00000000000006" /><path d="M 25.521815274538298 143.00000000000003 a86.0,86.0 0 0,1 -11.493303480769221,-40.785679425670985" fill="none" id="id57" stroke="none" /><text fill="#e1ed5e" style="font-size:6.75px; font-family:Arial;" text-anchor="middle"><textPath startOffset="21.40746469413373" xlink:href="#id57">September</textPath></text><path d="M 80.83023694016515 108.57439118712176 l -28.862194602378796 12.909692533349565 a52.61781837146904,52.61781837146904 0 0,0 -0.3617252464297738,-0.8276981530353035 l 29.079553730825538 -12.412332310538412" fill="#9eff22" stroke="none" /><path d="M 79.73907114497094 105.5222062557868 l -17.048617038272535 4.646676385613666 a38.67051058544422,38.67051058544422 0 0,0 -0.16906474544741512,-0.6419663759973219 l 17.125871264524683 -4.353329505243541" fill="#ffa80f" stroke="none" /><path d="M 79.34024301695615 103.76489593502545 l -61.97927094913153 11.294687805076363 a84.0,84.0 0 0,0 -0.24634073003106272,-1.4208278683176294 l 62.16402649665483 -10.22906690383814" fill="#4dd2ff" stroke="none" /><path d="M 79.03789590574601 101.26102812881392 l -35.50477830833825 2.135879296887451 a56.56896488647257,56.56896488647257 0 0,0 -0.04999190830380395,-0.9698296656481623 l 35.53621180609863 -1.526077837862558" fill="#6fff28" stroke="none" /><line stroke="#e1ed5e" stroke-width="0.3" x1="15.003131293944662" x2="10.003315487706104" y1="100.72959589197737" y2="100.7725132973878" /><path d="M 14.003168132696942 100.73817937305945 a86.0,86.0 0 0,1 10.791469493833604,-42.45332614584628" fill="none" id="id58" stroke="none" /><text fill="#e1ed5e" style="font-size:6.75px; font-family:Arial;" text-anchor="middle"><textPath startOffset="22.145653131862435" xlink:href="#id58">October</textPath></text><path d="M 79.00077361379809 99.81974689727619 l -32.85403175799137 -0.28201234904805295 a53.85524210411668,53.85524210411668 0 0,0 0.015870802358653683,-0.9243946717934379 l 32.84434952403405 0.8459539368105433" fill="#8fff24" stroke="none" /><path d="M 79.01933749520258 99.09900007780938 l -35.31190317093971 -1.516445059928134 a56.34444951012255,56.34444951012255 0 0,0 0.049793496469161834,-0.9659805290621819 l 35.28066808501398 2.122397382367028" fill="#71ff27" stroke="none" /><path d="M 79.13060592940154 97.66154086499901 l -31.450261887873115 -3.524067443504909 a52.64708555557961,52.64708555557961 0 0,0 0.10834748582004293,-0.897272610090227 l 31.385132315793403 4.063433730518573" fill="#9dff22" stroke="none" /><path d="M 79.407916724674 95.88100663000787 l -30.849371804891565 -6.170738348024619 a52.46047921625194,52.46047921625194 0 0,0 0.18421694422176882,-0.8815447653856678 l 30.73889714984543 6.699399564695696" fill="#a0ff22" stroke="none" /><path d="M 79.94057633289273 93.78553927170692 l -30.11071811803969 -9.328377442473398 a52.52259461550223,52.52259461550223 0 0,0 0.2742061708945947,-0.8589469248493923 l 29.94614723136784 9.843893401014183" fill="#9fff22" stroke="none" /><path d="M 80.9802524753101 91.09779779509293 l -28.694593247847113 -13.430518514943373 a52.68214811592847,52.68214811592847 0 0,0 0.39040166581271346,-0.8157893300788219 l 28.459812324074495 13.921120347087282" fill="#9dff22" stroke="none" /><line stroke="#e1ed5e" stroke-width="0.3" x1="26.387840678322718" x2="22.05771365940052" y1="57.49999999999999" y2="54.99999999999999" /><path d="M 25.521815274538284 56.99999999999999 a86.0,86.0 0 0,1 29.574782752854787,-30.34633250058573" fill="none" id="id59" stroke="none" /><text fill="#e1ed5e" style="font-size:6.75px; font-family:Arial;" text-anchor="middle"><textPath startOffset="21.40746469413373" xlink:href="#id59">November</textPath></text><path d="M 81.99639281039701 89.18935116829357 l -16.542989961871704 -9.933590153395436 a40.296287990549445,40.296287990549445 0 0,0 0.3611929673025154,-0.5899815673833464 l 16.3700290301138 10.216108836903325" fill="#ffbf11" stroke="none" /><path d="M 82.576782715395 88.27688183743585 l -5.526214665090339 -3.7182838537973066 a27.66068189767904,27.66068189767904 0 0,0 0.2684538503539935,-0.39168219050699155 l 5.461571077921032 3.812600779374333" fill="#ff0000" stroke="none" /><path d="M 83.42222388311158 87.10902102172516 l -25.035379665259136 -19.467662652845654 a52.71372138599745,52.71372138599745 0 0,0 0.5616109066597836,-0.7095770341837876 l 24.697502327957793 19.894559630944123" fill="#9cff22" stroke="none" /><path d="M 85.08716467003674 85.21462403516908 l -17.386397691497983 -17.237796894757203 a45.48322826899728,45.48322826899728 0 0,0 0.5544797112112365,-0.5497405968573239 l 17.08792606015677 17.533717501843203" fill="#f8ff18" stroke="none" /><line stroke="#e1ed5e" stroke-width="0.3" x1="56.869717070023135" x2="54.33264160355391" y1="26.7553504044142" y2="22.446841604673864" /><path d="M 56.362301976729285 25.89364864446614 a86.0,86.0 0 0,1 42.16139366436587,-11.88097634709845" fill="none" id="id60" stroke="none" /><text fill="#e1ed5e" style="font-size:6.75px; font-family:Arial;" text-anchor="middle"><textPath startOffset="22.145653131862474" xlink:href="#id60">December</textPath></text></svg>