<?xml version="1.0" encoding="utf-8" ?>
<svg baseProfile="full" height="200mm" version="1.1" viewBox="0,0,200,200" width="200mm" xmlns="http://www.w3.org/2000/svg" xmlns:ev="http://www.w3.org/2001/xml-events" xmlns:xlink="http://www.w3.org/1999/xlink"><defs /><rect fill="#1a1a1a" height="200" width="200" x="0" y="0" /><text alignment-baseline="middle" fill="#e1ed5e" style="dominant-baseline: central; font-size:9.0px; font-family:Arial;" text-anchor="middle" x="100.0" y="100.0">2021</text><line stroke="#e1ed5e" stroke-width="0.3" x1="100.0" x2="100.0" y1="15.0" y2="10.0" /><path d="M 100.0 14.0 a86.0,86.0 0 0,1 42.46469731375804,11.215312516191453" fill="none" id="id13" stroke="none" /><text fill="#e1ed5e" style="font-size:6.75px; font-family:Arial;" text-anchor="middle"><textPath startOffset="22.20632615414155" xlink:href="#id13">January</textPath></text><path d="M 100.36148047927253 79.00311137660856 l 0.3293567284545303 -19.13095434265656 a40.13378922,40.13378922 0 0,0 0.690632497752921,0.017836999852618374 l -0.6586158614023191 19.12245055066158" fill="red" stroke="none" /><line stroke="#e1ed5e" stroke-width="0.3" x1="143.23703022742887" x2="145.7803849466894" y1="26.81831364943548" y2="22.513508569990506" /><path d="M 143.74570117128098 25.957352633546492 a86.0,86.0 0 0,1 28.547481713284135,27.462654790039103" fill="none" id="id14" stroke="none" /><text fill="#e1ed5e" style="font-size:6.75px; font-family:Arial;" text-anchor="middle"><textPath startOffset="19.985693538727396" xlink:href="#id14">February</textPath></text><path d="M 115.19652480421416 85.50635884689758 l 16.0024416482603 -15.262281989565656 a43.113692369999995,43.113692369999995 0 0,0 0.5075768392560343,0.541447582346679 l -16.262785809486797 14.984564990340921" fill="red" stroke="none" /><path d="M 115.68641384162765 86.03803664274999 l 15.588250930497102 -13.874591764094113 a41.86858556999999,41.86858556999999 0 0,0 0.4745268583879569,0.5424662293991779 l -15.824769652462907 13.604209978491987" fill="red" stroke="none" /><path d="M 116.15771136456269 86.58626213691792 l 22.00027354737197 -18.26409047804731 a49.593513900000005,49.593513900000005 0 0,0 0.5396282242561704,0.6615203965786045 l -22.311400263704552 17.882685911860605" fill="red" stroke="none" /><path d="M 116.60985879189232 87.15038557335679 l 15.114682821276208 -11.692925801946586 a40.10963502,40.10963502 0 0,0 0.4177591527477843,0.5497220758386306 l -15.313717914248105 11.431018950226921" fill="red" stroke="none" /><path d="M 117.04232023915458 87.72973835380427 l 15.449142109152742 -11.123192923756969 a40.03684356,40.03684356 0 0,0 0.39786590446943726,0.5627531061558909 l -15.638320633426062 10.855613317269285" fill="red" stroke="none" /><line stroke="#e1ed5e" stroke-width="0.3" x1="172.23445277983987" x2="176.4835382374775" y1="55.19839476539836" y2="52.563006222186495" /><path d="M 173.08426987136738 54.67131705675599 a86.0,86.0 0 0,1 12.851231095245387,41.99856678651699" fill="none" id="id15" stroke="none" /><text fill="#e1ed5e" style="font-size:6.75px; font-family:Arial;" text-anchor="middle"><textPath startOffset="22.20632615414155" xlink:href="#id15">March</textPath></text><path d="M 120.87857604477298 97.74499172005257 l 15.067181618388044 -1.6273437054364104 a36.15480813,36.15480813 0 0,0 0.06150255556243461,0.6193223412879634 l -15.092961299632707 1.3677458334440122" fill="red" stroke="none" /><line stroke="#e1ed5e" stroke-width="0.3" x1="184.98032266829074" x2="189.97916517819016" y1="98.17113171792111" y2="98.06355123074" /><path d="M 185.9800911702706 98.14961562048488 a86.0,86.0 0 0,1 -9.607161424134198,41.387399972396054" fill="none" id="id16" stroke="none" /><text fill="#e1ed5e" style="font-size:6.75px; font-family:Arial;" text-anchor="middle"><textPath startOffset="21.466115282336823" xlink:href="#id16">April</textPath></text><path d="M 120.8583938346157 102.4346265915055 l 18.96435426573339 2.2135511272906263 a40.09310193,40.09310193 0 0,0 -0.08591090840296575,0.6847944684684182 l -18.923441848083577 -2.5396633500464394" fill="red" stroke="none" /><path d="M 120.23288151984713 105.62410040840565 l 30.34932227977069 8.436150612608486 a52.5,52.5 0 0,0 -0.24951840778475148,0.868606311238545 l -30.199611235099837 -8.957314399351613" fill="red" stroke="none" /><path d="M 120.13307415673323 105.97154293290107 l 30.199611235099837 8.957314399351613 a52.5,52.5 0 0,0 -0.26443306873466826,0.8641825686198572 l -30.040951393859036 -9.475823940523528" fill="red" stroke="none" /><path d="M 120.02730092923936 106.31721596034902 l 9.09517260878656 2.868892307024314 a30.536912909999998,30.536912909999998 0 0,0 -0.16243856200423842,0.4999344880828698 l -9.044441795766076 -3.025025695084979" fill="red" stroke="none" /><path d="M 119.9155931802556 106.66101706037122 l 9.881901650168688 3.305124526541437 a31.41997257,31.41997257 0 0,0 -0.1759655650354372,0.5114382996481632 l -9.82354525419002 -3.4747355292789006" fill="red" stroke="none" /><path d="M 119.54520255179757 107.68017299344265 l 5.964597540158508 2.343753707503367 a27.40855719,27.40855719 0 0,0 -0.1763249725402738,0.43762412153920943 l -5.923369953360841 -2.44607719688539" fill="red" stroke="none" /><path d="M 119.26925614724726 108.34839909993367 l 17.342330532522542 7.513559189940303 a39.9,39.9 0 0,0 -0.27846193901058147,0.6278581606638933 l -17.210427508780686 -7.810965687096885" fill="red" stroke="none" /><path d="M 118.97047184881838 109.00673069616215 l 28.455707773227562 13.51009604424323 a52.5,52.5 0 0,0 -0.39461685846321426,0.8130276100868115 l -28.21893765814963 -13.997912610295316" fill="red" stroke="none" /><path d="M 118.64920377521936 109.65438752849418 l 12.266945139233856 6.350396702850584 a34.81323573,34.81323573 0 0,0 -0.28007661224566827,0.5297994007416619 l -12.155816018763295 -6.560611118678381" fill="red" stroke="none" /><line stroke="#e1ed5e" stroke-width="0.3" x1="174.80103733775053" x2="179.2010983576182" y1="140.37084112569926" y2="142.7455964860345" /><path d="M 175.68104954172406 140.8457921977663 a86.0,86.0 0 0,1 -30.038265399797805,32.042727171017184" fill="none" id="id17" stroke="none" /><text fill="#e1ed5e" style="font-size:6.75px; font-family:Arial;" text-anchor="middle"><textPath startOffset="22.206326154141568" xlink:href="#id17">May</textPath></text><path d="M 118.30583269289576 110.29060199501025 l 29.275316630890227 16.45708429550493 a54.58392156,54.58392156 0 0,0 -0.46746711117814727,0.8150683112591637 l -28.9876975235597 -16.95857245262241" fill="red" stroke="none" /><path d="M 118.12598468904814 110.60418214915192 l 17.92404218732822 10.486040425619118 a41.76603795,41.76603795 0 0,0 -0.3683747130787433,0.6174172079938816 l -17.74088659855125 -10.793019727499104" fill="red" stroke="none" /><path d="M 117.75023020441432 111.22182372390056 l 23.03789420562887 14.564723091937342 a48.2557467,48.2557467 0 0,0 -0.44991621514137875,0.6982799572281727 l -22.78377312711044 -14.959124649086968" fill="red" stroke="none" /><path d="M 117.35343817320211 111.8261652097733 l 12.570650136910603 8.566751085841592 a36.2121816,36.2121816 0 0,0 -0.35546410784304683,0.5120725591138302 l -12.421325121905419 -8.781864907142442" fill="red" stroke="none" /><path d="M 117.14729908036423 112.12312394758627 l 39.67304365354825 28.0488036824835 a69.58688898,69.58688898 0 0,0 -0.6999122446805465,0.9721168918064291 l -39.1843516164921 -28.72755417974106" fill="red" stroke="none" /><path d="M 115.56566222782051 114.09645910891815 l 16.484600398861065 14.92866105202244 a43.239761040000005,43.239761040000005 0 0,0 -0.5043683230549827,0.5473922007225777 l -16.22518566781036 -15.210204507546353" fill="red" stroke="none" /><path d="M 115.07121518719521 114.62390073753431 l 22.567382917769432 21.897581820461422 a52.4450451,52.4450451 0 0,0 -0.6342338510728689,0.6424755426470363 l -22.187108441641026 -22.282797857089122" fill="red" stroke="none" /><path d="M 114.0293411484842 115.62618273729858 l 18.455295247062164 20.55590586536915 a48.6250464,48.6250464 0 0,0 -0.627628126999619,0.5538088490061275 l -18.098724767155957 -20.870537856147568" fill="red" stroke="none" /><path d="M 113.75828350139079 115.86535959552629 l 18.735208965086112 21.60449937656625 a49.596546090000004,49.596546090000004 0 0,0 -0.6497962891379363,0.5537704946327845 l -18.36054719937113 -21.923794261421982" fill="red" stroke="none" /><path d="M 113.20401910651253 116.32954008644616 l 22.94174684562351 28.372283601432652 a57.487124099999996,57.487124099999996 0 0,0 -0.774823797225371,0.6155668853080283 l -22.449965555680787 -28.762984400745808" fill="red" stroke="none" /><path d="M 112.63410532772338 116.77436683061366 l 11.803369820126395 15.671395010909924 a40.61917839,40.61917839 0 0,0 -0.5621211299706411,0.41584377353402696 l -11.53186371973719 -15.87224873318372" fill="red" stroke="none" /><path d="M 112.04921762599082 117.19931262002967 l 11.72341617977378 16.734256622247916 a41.43217638,41.43217638 0 0,0 -0.5876327852320662,0.4041791880044282 l -11.433626509918831 -16.93357659961744" fill="red" stroke="none" /><path d="M 111.45004920935366 117.60387380957326 l 14.926769402398934 22.94915595033175 a48.376489979999995,48.376489979999995 0 0,0 -0.7019617547619201,0.4480252040599803 l -14.529525845590083 -23.20269558321554" fill="red" stroke="none" /><line stroke="#e1ed5e" stroke-width="0.3" x1="143.8653032363475" x2="146.44561519142675" y1="172.8068346515853" y2="177.08958963109032" /><path d="M 144.38136562736335 173.6633856474863 a86.0,86.0 0 0,1 -40.68145358897372,12.25698825130547" fill="none" id="id18" stroke="none" /><text fill="#e1ed5e" style="font-size:6.75px; font-family:Arial;" text-anchor="middle"><textPath startOffset="21.466115282336833" xlink:href="#id18">June</textPath></text><path d="M 110.21172684928248 118.3499491758327 l 13.516351944360277 24.288190908583257 a48.7958268,48.7958268 0 0,0 -0.7374610620156397,0.4021225706119583 l -13.096268070475988 -24.517254130954985" fill="red" stroke="none" /><path d="M 109.57404056367764 118.69057910512821 l 10.49268478700619 20.483969514474463 a44.014982970000005,44.014982970000005 0 0,0 -0.6772985595316832,0.3396115582366381 l -10.138532319791748 -20.6615489136204" fill="red" stroke="none" /><path d="M 107.59598834532513 119.57807347666477 l 8.121846540850518 20.933432374317448 a43.45379661,43.45379661 0 0,0 -0.6996677454698675,0.26455447314757385 l -7.7603085746203755 -21.070135097571654" fill="red" stroke="none" /><path d="M 106.57524785965236 119.94407469862006 l 7.435715698231416 22.554050050832572 a44.748158700000005,44.748158700000005 0 0,0 -0.7336112327091969,0.23487915003431836 l -7.046383120431279 -22.6787020475266" fill="red" stroke="none" /><path d="M 105.88484417918355 120.15858648285463 l 8.859484025203104 30.34824193769963 a52.6149687,52.6149687 0 0,0 -0.8715765572324633,0.24631624101681202 l -8.335776299866033 -30.49624697205496" fill="red" stroke="none" /><path d="M 104.13013068566511 120.58985236759428 l 12.390392056995317 61.76955710278282 a84.0,84.0 0 0,0 -1.4201295417131825,0.2721712066061275 l -11.32529490071043 -61.973685507737414" fill="red" stroke="none" /><path d="M 102.70371172650421 120.8252237178851 l 4.217790293346564 32.48734899990074 a53.76,53.76 0 0,0 -0.9187137969884663,0.11124344646310164 l -3.6579490733067175 -32.55513797508919" fill="red" stroke="none" /><path d="M 101.98527174616119 120.90594882070398 l 2.9779076192417864 31.35892323105597 a52.5,52.5 0 0,0 -0.9003892056461458,0.07768936930334147 l -2.4376740958540988 -31.405536852637976" fill="red" stroke="none" /><path d="M 101.62511606390274 120.93702456842531 l 1.8537811398970094 23.883008809412775 a44.954845320000004,44.954845320000004 0 0,0 -0.7720186336102393,0.05324292500584431 l -1.44239974550784 -23.911380078934904" fill="red" stroke="none" /><path d="M 100.90346689309514 120.98055641714683 l 1.3638606118931667 31.67194584731245 a52.701297600000004,52.701297600000004 0 0,0 -0.9066622030103568,0.031227279487772375 l -0.8184780572081575 -31.690729925226318" fill="red" stroke="none" /><line stroke="#e1ed5e" stroke-width="0.3" x1="102.19456741930631" x2="102.32365962044197" y1="184.97166512339345" y2="189.96999836594603" /><path d="M 102.22038585953345 185.97133177190398 a86.0,86.0 0 0,1 -42.740103519485714,-10.115201625700543" fill="none" id="id19" stroke="none" /><text fill="#e1ed5e" style="font-size:6.75px; font-family:Arial;" text-anchor="middle"><textPath startOffset="22.20632615414155" xlink:href="#id19">July</textPath></text><path d="M 99.81925306533755 120.99922214144158 l -0.21865484647912506 25.403372411780627 a46.40431341,46.40431341 0 0,0 -0.7986852109156298,-0.013750090216129576 l 0.6558997472874228 -25.39584484428534" fill="red" stroke="none" /><path d="M 99.09653310690486 120.98055641714683 l -1.2676386773778472 29.43745364721706 a50.4647346,50.4647346 0 0,0 -0.8675414911879351,-0.04484198568239029 l 1.7741682369792713 -29.411271854772465" fill="red" stroke="none" /><path d="M 97.2962882734958 120.8252237178851 l -2.6049640631170816 20.064624072036775 a41.233017000000004,41.233017000000004 0 0,0 -0.7030649755622546,-0.0974383992702766 l 2.949957629866167 -20.016811107273895" fill="red" stroke="none" /><path d="M 96.58105272829116 120.7198165907248 l -5.128420907563268 31.0797248860872 a52.5,52.5 0 0,0 -0.8903775713198752,-0.15480355369748455 l 5.662647450355194 -30.98684275386871" fill="red" stroke="none" /><path d="M 95.86986931433489 120.58985236759428 l -5.545450683744448 27.645616950177885 a49.19631465,49.19631465 0 0,0 -0.8288607709226928,-0.1736958334091783 l 6.020502916096528 -27.546065136042166" fill="red" stroke="none" /><path d="M 95.16358092515715 120.4354850818985 l -6.2451711262346965 26.387932767844198 a48.11687958,48.11687958 0 0,0 -0.8043463107126423,-0.19768875352465465 l 6.698470721690549 -26.276522756005516" fill="red" stroke="none" /><path d="M 94.46302465271185 120.25689768951611 l -6.841269689675626 25.028628714776683 a46.9467768,46.9467768 0 0,0 -0.7776819241271149,-0.2197806798131005 l 7.271082781907356 -24.907159241625063" fill="red" stroke="none" /><path d="M 93.76903079525671 120.05430185196036 l -8.065405482177246 25.958413656564062 a48.18253125,48.18253125 0 0,0 -0.7899150975649395,-0.2529058695436776 l 8.511041924833126 -25.815734940360677" fill="red" stroke="none" /><path d="M 92.7421414339146 119.70592522655815 l -7.245899357054546 19.673454591206834 a41.96539704,41.96539704 0 0,0 -0.675702401754394,-0.25549283078732926 l 7.5834719795692225 -19.545813510312872" fill="red" stroke="none" /><path d="M 91.40352486487194 119.15986991738527 l -10.685999542753803 23.81701313131892 a47.10441918000001,47.10441918000001 0 0,0 -0.7369194876865244,-0.3382835931784581 l 11.094387026207748 -23.629542467806388" fill="red" stroke="none" /><path d="M 90.7491055286396 118.85261126421891 l -13.154241862021268 26.807332963093852 a50.8607967,50.8607967 0 0,0 -0.7826413193212644,-0.39243260487495446 l 13.613737089025292 -26.576932517309597" fill="red" stroke="none" /><line stroke="#e1ed5e" stroke-width="0.3" x1="58.666819895761336" x2="56.23545636021788" y1="174.27360380694188" y2="178.64263932499728" /><path d="M 58.180547188652646 175.14741091055294 a86.0,86.0 0 0,1 -31.652253787137756,-30.449443065178592" fill="none" id="id20" stroke="none" /><text fill="#e1ed5e" style="font-size:6.75px; font-family:Arial;" text-anchor="middle"><textPath startOffset="22.20632615414155" xlink:href="#id20">August</textPath></text><path d="M 89.7882731507175 118.34994917583269 l -7.750201325162483 13.926714111942317 a36.9379731,36.9379731 0 0,0 -0.5529284472102989,-0.3139672028720477 l 7.98877853929399 -13.791243743275636" fill="red" stroke="none" /><path d="M 89.4739219176387 118.17145234162733 l -11.802084003562793 20.37425576027212 a44.5456893,44.5456893 0 0,0 -0.6601928436832009,-0.3900535688877641 l 12.151044718274376 -20.168083619090606" fill="red" stroke="none" /><path d="M 88.8546689885994 117.79835938074946 l -8.641284973341001 13.799562822285841 a37.2818838,37.2818838 0 0,0 -0.5409746879919999,-0.34527564120797916 l 8.877541463379924 -13.648772752254057" fill="red" stroke="none" /><path d="M 87.95078237400918 117.19931262002967 l -15.869253385264445 22.65211389583341 a48.657756,48.657756 0 0,0 -0.6818403751903265,-0.48647500371351754 l 16.25682108830366 -22.37559463027567" fill="red" stroke="none" /><path d="M 85.97065885151581 115.62618273729859 l -12.945451928322148 14.418923548005143 a40.37756646,40.37756646 0 0,0 -0.5131805085526676,-0.468778227170441 l 13.19173198634167 -14.193952554248126" fill="red" stroke="none" /><path d="M 85.44109423537348 115.13401014063109 l -20.365064354526094 21.169523001161416 a50.3748966,50.3748966 0 0,0 -0.6197312826511638,-0.6065374962188664 l 20.72644558955305 -20.81583540201998" fill="red" stroke="none" /><path d="M 84.9287848128048 114.62390073753433 l -18.584691474149313 18.03309686577698 a46.89562395,46.89562395 0 0,0 -0.5571500449771931,-0.5841695947020602 l 18.892348070505463 -17.710520154492418" fill="red" stroke="none" /><path d="M 84.67929136418377 114.36230785411682 l -19.363964984820537 18.152634646296463 a47.54206632,47.54206632 0 0,0 -0.5545523769709179,-0.6018570797772991 l 19.673563769787183 -17.81662631171782" fill="red" stroke="none" /><path d="M 83.72743513129214 113.27417163493432 l -17.19762633455897 14.02878068210334 a43.19380632,43.19380632 0 0,0 -0.46501647233921634,-0.5801795487944506 l 17.436560718953043 -13.73067329973063" fill="red" stroke="none" /><path d="M 83.06392112726016 112.41649034213515 l -21.9545118829633 16.095696460169204 a48.22263831000001,48.22263831000001 0 0,0 -0.4850283655254375,-0.6736619779351677 l 22.228320040864343 -15.7154008767829" fill="red" stroke="none" /><path d="M 82.6465618267979 111.8261652097733 l -20.823257962399474 14.190806825205815 a46.19894979,46.19894979 0 0,0 -0.44218311624169476,-0.6610037625882735 l 21.0644441840519 -13.83026614841172" fill="red" stroke="none" /><line stroke="#e1ed5e" stroke-width="0.3" x1="26.63291911575756" x2="22.317208475507996" y1="142.92168965132927" y2="145.44649492493687" /><path d="M 25.769776987707644 143.4266507060508 a86.0,86.0 0 0,1 -11.730757126820373,-40.83630448921669" fill="none" id="id21" stroke="none" /><text fill="#e1ed5e" style="font-size:6.75px; font-family:Arial;" text-anchor="middle"><textPath startOffset="21.46611528233685" xlink:href="#id21">September</textPath></text><path d="M 81.69416730710424 110.29060199501025 l -15.03360468979275 8.45112292941558 a38.2461807,38.2461807 0 0,0 -0.3176683886885766,-0.5766603984906764 l 15.176849487932843 -8.191092012527081" fill="red" stroke="none" /><path d="M 81.18737489456691 109.33194174019688 l -17.010236218780566 8.437872571797724 a39.98804439,39.98804439 0 0,0 -0.30057059910988365,-0.6192644602370684 l 17.152960074505167 -8.143819155595372" fill="red" stroke="none" /><path d="M 79.50377843672027 104.57218783832718 l -17.48071086653789 3.899503788175724 a38.9103708,38.9103708 0 0,0 -0.1401995528652596,-0.6549656361520394 l 17.54524445812759 -3.5980243326075207" fill="red" stroke="none" /><path d="M 79.0235259727143 100.99374915477108 l -11.077979673153495 0.5248133181223678 a32.09040408,32.09040408 0 0,0 -0.021390343479196276,-0.5519897193433747 l 11.085372149483891 -0.3340463517649962" fill="red" stroke="none" /><line stroke="#e1ed5e" stroke-width="0.3" x1="15.007084014347285" x2="10.007500721073583" y1="101.09737516637583" y2="101.16192664675087" /><path d="M 14.007167355692545 101.11028546245083 a86.0,86.0 0 0,1 10.666146001902534,-42.60595125391555" fill="none" id="id22" stroke="none" /><text fill="#e1ed5e" style="font-size:6.75px; font-family:Arial;" text-anchor="middle"><textPath startOffset="22.20632615414155" xlink:href="#id22">October</textPath></text><path d="M 79.16333360222342 97.38593545837743 l -16.99631000526841 -2.1322725274297176 a38.129539980000004,38.129539980000004 0 0,0 0.08730575411060389,-0.6505292762069645 l 16.95708825209997 2.4245201457013414" fill="red" stroke="none" /><path d="M 79.46518482838121 95.60439243477599 l -31.771460899824806 -6.800882926012694 a53.49119475,53.49119475 0 0,0 0.2004789177520066,-0.8987076783168862 l 31.649687595070763 7.346768773879539" fill="red" stroke="none" /><path d="M 79.91906864156998 93.8553929516997 l -30.507517201991195 -9.335060305696587 a52.9037922,52.9037922 0 0,0 0.2739522518864986,-0.8685035026838834 l 30.342309466336495 9.858813974806885" fill="red" stroke="none" /><path d="M 80.803312248108 91.48605970444005 l -14.021483223592968 -6.218680668445009 a36.33864339,36.33864339 0 0,0 0.2585194822457627,-0.569613411072598 l 13.912361424383853 6.459116088359678" fill="red" stroke="none" /><path d="M 81.10775173730289 90.83032412892265 l -15.945189968376681 -7.73927071461713 a38.72414721,38.72414721 0 0,0 0.296221262200216,-0.5971639889291995 l 15.809608693223053 8.012594292045291" fill="red" stroke="none" /><line stroke="#e1ed5e" stroke-width="0.3" x1="26.266209847984243" x2="21.928928074336255" y1="57.711370442889674" y2="55.22380399835377" /><path d="M 25.398753493254645 57.213857153982495 a86.0,86.0 0 0,1 29.58750427330803,-30.492523968695096" fill="none" id="id23" stroke="none" /><text fill="#e1ed5e" style="font-size:6.75px; font-family:Arial;" text-anchor="middle"><textPath startOffset="21.46611528233685" xlink:href="#id23">November</textPath></text><path d="M 81.78341655067845 89.55222093294921 l -27.371168977502062 -15.69821954151927 a52.55336729999999,52.55336729999999 0 0,0 0.45681470355345605,-0.7808444070346554 l 27.096894599478283 16.16704336090782" fill="red" stroke="none" /><path d="M 83.6137871275137 86.86637796730984 l -15.673503392152456 -12.562382234534198 a41.08661634,41.08661634 0 0,0 0.4470644661508919,-0.5480481740034875 l 15.454940433925172 12.830314578145769" fill="red" stroke="none" /><path d="M 87.51073957382395 83.11751280151077 l -12.175804843107274 -16.45877036595668 a41.47294179,41.47294179 0 0,0 0.5775693367177369,-0.41962868599728537 l 11.890690190035755 16.665918286770633" fill="red" stroke="none" /><path d="M 88.09926311788651 82.69761687909137 l -18.028115455466363 -26.21092825161736 a52.812351480000004,52.812351480000004 0 0,0 0.7534444086076117,-0.5087290279952356 l 17.57426635245221 26.517369191911264" fill="red" stroke="none" /><line stroke="#e1ed5e" stroke-width="0.3" x1="56.762969772571076" x2="54.21961505331055" y1="26.818313649435495" y2="22.513508569990535" /><path d="M 56.25429882871897 25.957352633546506 a86.0,86.0 0 0,1 42.265352541879196,-11.944610805530505" fill="none" id="id24" stroke="none" /><text fill="#e1ed5e" style="font-size:6.75px; font-family:Arial;" text-anchor="middle"><textPath startOffset="22.20632615414155" xlink:href="#id24">December</textPath></text><path d="M 90.26544431104013 81.39251694778311 l -14.602035038742574 -27.91160975322452 a52.5004347,52.5004347 0 0,0 0.8043554410359975,-0.41202209823346303 l 14.119419110117814 28.15882437677049" fill="red" stroke="none" /><path d="M 91.56875222667455 80.76684994638697 l -10.633181108049548 -24.256144914324775 a47.48443139999999,47.48443139999999 0 0,0 0.75142132411009,-0.3217193959052713 l 10.21407602614915 24.435583838192834" fill="red" stroke="none" /><path d="M 92.57280143429618 80.3572730644239 l -5.070959184886677 -13.411175921717348 a35.3378613,35.3378613 0 0,0 0.5708203391598822,-0.21023794826359166 l 4.839356519954225 13.496477137787261" fill="red" stroke="none" /><path d="M 93.94186890950719 79.89281104454417 l -9.08719663573921 -30.160783433183727 a52.5,52.5 0 0,0 0.8675244556914468,-0.2532541777032529 l 8.566681962324342 30.312735939805677" fill="red" stroke="none" /><path d="M 96.40284397218896 79.31037775812273 l -6.105661561053281 -35.117695829228325 a56.644518,56.644518 0 0,0 0.9620688191876275,-0.15874959848969358 l 5.500263535726767 35.21759169065764" fill="red" stroke="none" /></svg>