<?xml version="1.0" encoding="utf-8" ?>
<svg baseProfile="full" height="200mm" version="1.1" viewBox="0,0,200,200" width="200mm" xmlns="http://www.w3.org/2000/svg" xmlns:ev="http://www.w3.org/2001/xml-events" xmlns:xlink="http://www.w3.org/1999/xlink"><defs /><rect fill="#1a1a1a" height="200" width="200" x="0" y="0" /><text alignment-baseline="middle" fill="#e1ed5e" style="dominant-baseline: central; font-size:9.0px; font-family:Arial;" text-anchor="middle" x="100.0" y="100.0">2021</text><line stroke="#e1ed5e" stroke-width="0.3" x1="100.0" x2="100.0" y1="15.0" y2="10.0" /><path d="M 100.0 14.0 a86.0,86.0 0 0,1 42.46469731375804,11.215312516191453" fill="none" id="id13" stroke="none" /><text fill="#e1ed5e" style="font-size:6.75px; font-family:Arial;" text-anchor="middle"><textPath startOffset="22.20632615414155" xlink:href="#id13">January</textPath></text><path d="M 100.36148047927253 79.00311137660856 l 0.1334109433209227 -7.749283512316865 a28.750431822425366,28.750431822425366 0 0,0 0.4947447755843049,0.012777797914076848 l -0.26678235410009543 7.745838922260428" fill="#ff5c08" stroke="none" /><line stroke="#e1ed5e" stroke-width="0.3" x1="143.23703022742887" x2="145.7803849466894" y1="26.81831364943548" y2="22.513508569990506" /><path d="M 143.74570117128098 25.957352633546492 a86.0,86.0 0 0,1 28.547481713284135,27.462654790039103" fill="none" id="id14" stroke="none" /><text fill="#e1ed5e" style="font-size:6.75px; font-family:Arial;" text-anchor="middle"><textPath startOffset="19.985693538727396" xlink:href="#id14">February</textPath></text><path d="M 115.19652480421416 85.50635884689758 l 3.3507744673299746 -3.1957913628378356 a25.63041811996491,25.63041811996491 0 0,0 0.3017465195626523,0.32188214840179125 l -3.40528830886309 3.1376397975579895" fill="#ff3004" stroke="none" /><path d="M 115.68641384162765 86.03803664274999 l 6.505931088718754 -5.790716245444894 a29.709737881613695,29.709737881613695 0 0,0 0.33672187365683254,0.384931309851194 l -6.604644825953434 5.677869379390753" fill="#ff6909" stroke="none" /><path d="M 116.15771136456269 86.58626213691792 l 9.132164087523645 -7.581299877738569 a32.868973365782544,32.868973365782544 0 0,0 0.35764809418960314,0.43843427468978063 l -9.261310673789657 7.422981433440688" fill="#ff930d" stroke="none" /><path d="M 116.60985879189232 87.15038557335679 l 6.2873341217298995 -4.863967854750344 a28.949135402690896,28.949135402690896 0 0,0 0.3015177343942093,0.3967619949512279 l -6.370127796348222 4.755021083918082" fill="#ff5e08" stroke="none" /><path d="M 117.04232023915458 87.72973835380427 l 6.4138658797270685 -4.617904804244107 a28.903336023742625,28.903336023742625 0 0,0 0.28722673684394784,0.40626184981972685 l -6.492405236374899 4.506816454092587" fill="#ff5e08" stroke="none" /><line stroke="#e1ed5e" stroke-width="0.3" x1="172.23445277983987" x2="176.4835382374775" y1="55.19839476539836" y2="52.563006222186495" /><path d="M 173.08426987136738 54.67131705675599 a86.0,86.0 0 0,1 12.851231095245387,41.99856678651699" fill="none" id="id15" stroke="none" /><text fill="#e1ed5e" style="font-size:6.75px; font-family:Arial;" text-anchor="middle"><textPath startOffset="22.20632615414155" xlink:href="#id15">March</textPath></text><path d="M 120.87857604477298 97.74499172005257 l 6.249224668638913 -0.6749528004598028 a27.285568410412353,27.285568410412353 0 0,0 0.04641518719114819,0.46739460075540085 l -6.25991698151229 0.5672826689999669" fill="#ff4706" stroke="none" /><line stroke="#e1ed5e" stroke-width="0.3" x1="184.98032266829074" x2="189.97916517819016" y1="98.17113171792111" y2="98.06355123074" /><path d="M 185.9800911702706 98.14961562048488 a86.0,86.0 0 0,1 -9.607161424134198,41.387399972396054" fill="none" id="id16" stroke="none" /><text fill="#e1ed5e" style="font-size:6.75px; font-family:Arial;" text-anchor="middle"><textPath startOffset="21.466115282336823" xlink:href="#id16">April</textPath></text><path d="M 120.8583938346157 102.4346265915055 l 7.488566713630034 0.8740780233523961 a28.53940606516159,28.53940606516159 0 0,0 -0.06115381904398192,0.48745610755981433 l -7.472411385339204 -1.0028518851996053" fill="#ff5908" stroke="none" /><path d="M 120.23288151984713 105.62410040840565 l 12.228124286917165 3.3990313603440505 a33.691746836621654,33.691746836621654 0 0,0 -0.160127829069729,0.5574259797893496 l -12.167803820961337 -3.609014815637982" fill="#ff9e0e" stroke="none" /><path d="M 120.13307415673323 105.97154293290107 l 12.551377931963918 3.7227842903823665 a34.09183756635059,34.09183756635059 0 0,0 -0.17171446145664632,0.5611727953725675 l -12.48543669800114 -3.938284058306991" fill="#ffa40f" stroke="none" /><path d="M 120.02730092923936 106.31721596034902 l 3.7750693796866073 1.1907709691406159 a24.95841942224362,24.95841942224362 0 0,0 -0.13276423104053411,0.4086062881991865 l -3.754012897629826 -1.2555761573175974" fill="#ff2603" stroke="none" /><path d="M 119.9155931802556 106.66101706037122 l 2.0691857196461596 0.6920648185013127 a23.18185316998987,23.18185316998987 0 0,0 -0.1298284994532638,0.37734239078468435 l -2.056966389249665 -0.7275799123752975" fill="#ff0c01" stroke="none" /><path d="M 119.54520255179757 107.68017299344265 l 1.2489357302318338 0.490761988291082 a22.341897085249514,22.341897085249514 0 0,0 -0.14373008994036154,0.3567262960130935 l -1.24030302603408 -0.512187652146989" fill="#ff0000" stroke="none" /><path d="M 119.26925614724726 108.34839909993367 l 7.1948055433658755 3.117147214373095 a28.841035235408796,28.841035235408796 0 0,0 -0.20128146853945955,0.4538365748006593 l -7.140082990095143 -3.240532125666442" fill="#ff5d08" stroke="none" /><path d="M 118.97047184881838 109.00673069616215 l 11.800912602704363 5.6027937854442245 a34.06341595674267,34.06341595674267 0 0,0 -0.25603806082620034,0.5275142412705419 l -11.702721285263449 -5.805096982680042" fill="#ffa30f" stroke="none" /><path d="M 118.64920377521936 109.65438752849418 l 2.568593435186867 1.32971877648693 a23.89237346479098,23.89237346479098 0 0,0 -0.19221697949669317,0.3636020863476985 l -2.5453239474652807 -1.373735877920763" fill="#ff1702" stroke="none" /><line stroke="#e1ed5e" stroke-width="0.3" x1="174.80103733775053" x2="179.2010983576182" y1="140.37084112569926" y2="142.7455964860345" /><path d="M 175.68104954172406 140.8457921977663 a86.0,86.0 0 0,1 -30.038265399797805,32.042727171017184" fill="none" id="id17" stroke="none" /><text fill="#e1ed5e" style="font-size:6.75px; font-family:Arial;" text-anchor="middle"><textPath startOffset="22.206326154141568" xlink:href="#id17">May</textPath></text><path d="M 118.30583269289576 110.29060199501025 l 12.103334370555096 6.803874967580507 a34.88464682517812,34.88464682517812 0 0,0 -0.29875876649702454,0.520911091838933 l -11.984423607905692 -7.011205905277755" fill="#ffae10" stroke="none" /><path d="M 118.12598468904814 110.60418214915192 l 7.427128102034775 4.345067073053878 a29.60475680733463,29.60475680733463 0 0,0 -0.26111272052483175,0.4376399387752413 l -7.351234505811716 -4.472269105715223" fill="#ff6709" stroke="none" /><path d="M 117.75023020441432 111.22182372390056 l 9.22361226170437 5.83123428296232 a31.912301151318097,31.912301151318097 0 0,0 -0.2975368268511924,0.46178376269939614 l -9.121870571476126 -5.989139645583169" fill="#ff870c" stroke="none" /><path d="M 117.35343817320211 111.8261652097733 l 5.243511822291984 3.5733919970731685 a27.34535630167939,27.34535630167939 0 0,0 -0.26842604482649296,0.38668773773299725 l -5.181224870303355 -3.663120996993185" fill="#ff4806" stroke="none" /><path d="M 117.14729908036423 112.12312394758627 l 16.42826494311906 11.614767504538573 a41.119411353859235,41.119411353859235 0 0,0 -0.41358336207405444,0.5744311168977859 l -16.225901788669404 -11.895832226887489" fill="#fffd17" stroke="none" /><path d="M 115.56566222782051 114.09645910891815 l 6.618451027994831 5.993752332217333 a29.929107515867784,29.929107515867784 0 0,0 -0.3491067805473356,0.37888646085759 l -6.514297839451773 -6.106790047876259" fill="#ff6c09" stroke="none" /><path d="M 115.07121518719521 114.62390073753431 l 9.317474519136816 9.040931391393666 a33.98282603436753,33.98282603436753 0 0,0 -0.4109646313587833,0.4163050018448761 l -9.160469262722497 -9.199976887219208" fill="#ffa20f" stroke="none" /><path d="M 114.0293411484842 115.62618273729858 l 7.633729588348366 8.50261264959993 a32.42664645892057,32.42664645892057 0 0,0 -0.41854716629928285,0.36931921061454087 l -7.486240069142496 -8.63275500198676" fill="#ff8e0d" stroke="none" /><path d="M 113.75828350139079 115.86535959552629 l 7.74778070802013 8.934350494201896 a32.825849849072775,32.825849849072775 0 0,0 -0.43007259781800206,0.3665171980862537 l -7.5928426336250805 -9.066392082511097" fill="#ff930d" stroke="none" /><path d="M 113.20401910651253 116.32954008644616 l 9.442002702793769 11.677017458688539 a36.016795655867526,36.016795655867526 0 0,0 -0.4854421022249315,0.38566456520057674 l -9.239603107851487 -11.837815937894241" fill="#ffbd11" stroke="none" /><path d="M 112.63410532772338 116.77436683061366 l 4.86312738194091 6.456799316820195 a29.083332564646415,29.083332564646415 0 0,0 -0.4024787406476881,0.2977441504234132 l -4.751263670874658 -6.539553415983377" fill="#ff6008" stroke="none" /><path d="M 112.04921762599082 117.19931262002967 l 4.250660108582094 6.067483741956311 a28.408270399870357,28.408270399870357 0 0,0 -0.4029146551606151,0.2771283737914478 l -4.145588568798597 -6.139752905112853" fill="#ff5708" stroke="none" /><path d="M 111.45004920935366 117.60387380957326 l 6.16723261539885 9.481809442973931 a32.31103304058957,32.31103304058957 0 0,0 -0.4688457029585973,0.29923951029484985 l -6.003105110393323 -9.58656338209259" fill="#ff8c0c" stroke="none" /><line stroke="#e1ed5e" stroke-width="0.3" x1="143.8653032363475" x2="146.44561519142675" y1="172.8068346515853" y2="177.08958963109032" /><path d="M 144.38136562736335 173.6633856474863 a86.0,86.0 0 0,1 -40.68145358897372,12.25698825130547" fill="none" id="id18" stroke="none" /><text fill="#e1ed5e" style="font-size:6.75px; font-family:Arial;" text-anchor="middle"><textPath startOffset="21.466115282336833" xlink:href="#id18">June</textPath></text><path d="M 110.21172684928248 118.3499491758327 l 5.592475325694451 10.049391205641397 a32.50069753852017,32.50069753852017 0 0,0 -0.491189523670622,0.26783569206519675 l -5.418662990155181 -10.144167549466365" fill="#ff8f0d" stroke="none" /><path d="M 109.57404056367764 118.69057910512821 l 4.341824907386649 8.476172766595619 a30.523494542214024,30.523494542214024 0 0,0 -0.46969276119919284,0.23551370112705106 l -4.195278238504696 -8.549654308631972" fill="#ff740a" stroke="none" /><path d="M 107.59598834532513 119.57807347666477 l 3.34543738479596 8.622606559346044 a30.248853722103505,30.248853722103505 0 0,0 -0.4870494395861713,0.18416042288759452 l -3.1965177244495138 -8.67891523234027" fill="#ff700a" stroke="none" /><path d="M 106.57524785965236 119.94407469862006 l 3.076933501092598 9.332970086959094 a30.82709776150717,30.82709776150717 0 0,0 -0.5053862739086558,0.16180872533304128 l -2.915825882093002 -9.384551658951843" fill="#ff780b" stroke="none" /><path d="M 105.88484417918355 120.15858648285463 l 3.6458592969488235 12.48892370028037 a34.010207731030775,34.010207731030775 0 0,0 -0.5633852969482563,0.15921831242120305 l -3.4303428318959615 -12.549830806040093" fill="#ffa30f" stroke="none" /><path d="M 104.13013068566511 120.58985236759428 l 5.099002763710094 25.419949661917066 a46.926312310059075,46.926312310059075 0 0,0 -0.7933505047044508,0.15204751241672324 l -4.660684644433938 -25.503954372682255" fill="#bcff1f" stroke="none" /><path d="M 102.70371172650421 120.8252237178851 l 5.05930504401328 38.96908030754774 a60.2961294219225,60.2961294219225 0 0,0 -1.0304108259844198,0.12476840113987878 l -4.38776679497748 -39.05039423741297" fill="#2fff30" stroke="none" /><path d="M 101.98527174616119 120.90594882070398 l 1.1379848200635774 11.983574769040981 a33.037486186737276,33.037486186737276 0 0,0 -0.5666018275089884,0.04888878981362809 l -0.9315386748130473 -12.001387811133272" fill="#ff960d" stroke="none" /><path d="M 101.62511606390274 120.93702456842531 l 2.7439990638110836 35.35204474982491 a56.45837840138518,56.45837840138518 0 0,0 -0.9695711294082867,0.066867301750879 l -2.1350651736238664 -35.39404039609208" fill="#55ff2b" stroke="none" /><path d="M 100.90346689309514 120.98055641714683 l 0.5611075498195871 13.0301936850686 a34.042269325269515,34.042269325269515 0 0,0 -0.5856561471442925,0.02017118186893014 l -0.33673105100064227 -13.037921665363623" fill="#ffa30f" stroke="none" /><line stroke="#e1ed5e" stroke-width="0.3" x1="102.19456741930631" x2="102.32365962044197" y1="184.97166512339345" y2="189.96999836594603" /><path d="M 102.22038585953345 185.97133177190398 a86.0,86.0 0 0,1 -42.740103519485714,-10.115201625700543" fill="none" id="id19" stroke="none" /><text fill="#e1ed5e" style="font-size:6.75px; font-family:Arial;" text-anchor="middle"><textPath startOffset="22.20632615414155" xlink:href="#id19">July</textPath></text><path d="M 99.81925306533755 120.99922214144158 l -0.09050579574067127 10.514985017010913 a31.515374515775775,31.515374515775775 0 0,0 -0.5424250827681288,-0.009338339713343208 l 0.27149056840146807 -10.51186920001841" fill="#ff810b" stroke="none" /><path d="M 99.09653310690486 120.98055641714683 l -0.5036412146367699 11.695694660694569 a32.70653356332609,32.70653356332609 0 0,0 -0.5622594693902575,-0.029062392210961633 l 0.7048887524405163 -11.685292461721405" fill="#ff910d" stroke="none" /><path d="M 97.2962882734958 120.8252237178851 l -1.0505229503634252 8.091608009696255 a29.15951705996261,29.15951705996261 0 0,0 -0.49719949304630695,-0.0689073192441164 l 1.1896510345965634 -8.072326124959535" fill="#ff6109" stroke="none" /><path d="M 96.58105272829116 120.7198165907248 l -1.8316850138671519 11.100544852900724 a32.25065180428611,32.25065180428611 0 0,0 -0.5469572767044422,-0.09509553349264155 l 2.022491262043644 -11.067370740887077" fill="#ff8b0c" stroke="none" /><path d="M 95.86986931433489 120.58985236759428 l -2.2447918135806453 11.19091272293884 a32.41383449410202,32.41383449410202 0 0,0 -0.5461091148489509,-0.11444247473606688 l 2.4370923898589827 -11.150614267476232" fill="#ff8d0d" stroke="none" /><path d="M 95.16358092515715 120.4354850818985 l -2.4854892667403545 10.502021856603017 a31.792132318112532,31.792132318112532 0 0,0 -0.5314535057753631,-0.1306183415200291 l 2.6658960572589283 -10.457682256768958" fill="#ff850c" stroke="none" /><path d="M 94.46302465271185 120.25689768951611 l -2.8320085709047484 10.36083859480199 a31.740914715852483,31.740914715852483 0 0,0 -0.5257940440711749,-0.1485946488692639 l 3.0099337830805375 -10.310555152594205" fill="#ff840c" stroke="none" /><path d="M 93.76903079525671 120.05430185196036 l -3.259893880166137 10.49193050552131 a31.986697130741035,31.986697130741035 0 0,0 -0.524397003007381,-0.16789536045141504 l 3.4400122282644583 -10.43426229841019" fill="#ff880c" stroke="none" /><path d="M 92.7421414339146 119.70592522655815 l -2.907747355031561 7.894870289113314 a29.41332107806526,29.41332107806526 0 0,0 -0.4735961791825296,-0.1790735509526711 l 3.043213754974374 -7.84364848805401" fill="#ff6509" stroke="none" /><path d="M 91.40352486487194 119.15986991738527 l -4.437158145467684 9.889561888293757 a31.839363761323014,31.839363761323014 0 0,0 -0.4981071423808402,-0.2286565584544871 l 4.606733283615944 -9.811718259505195" fill="#ff860c" stroke="none" /><path d="M 90.7491055286396 118.85261126421891 l -5.305117271156841 10.811420877607958 a33.04288547871746,33.04288547871746 0 0,0 -0.508460920063505,-0.25495286079539325 l 5.490432098903107 -10.718500175903262" fill="#ff960d" stroke="none" /><line stroke="#e1ed5e" stroke-width="0.3" x1="58.666819895761336" x2="56.23545636021788" y1="174.27360380694188" y2="178.64263932499728" /><path d="M 58.180547188652646 175.14741091055294 a86.0,86.0 0 0,1 -31.652253787137756,-30.449443065178592" fill="none" id="id20" stroke="none" /><text fill="#e1ed5e" style="font-size:6.75px; font-family:Arial;" text-anchor="middle"><textPath startOffset="22.20632615414155" xlink:href="#id20">August</textPath></text><path d="M 89.7882731507175 118.34994917583269 l -3.4180234641263856 6.142012783364815 a28.029025923436002,28.029025923436002 0 0,0 -0.419569469572836,-0.23824249491397553 l 3.523241700620429 -6.082267122656207" fill="#ff5107" stroke="none" /><path d="M 89.4739219176387 118.17145234162733 l -4.847689439722797 8.36869695737351 a30.67135883257118,30.67135883257118 0 0,0 -0.4545672527577888,-0.26856634532494783 l 4.991024563508968 -8.284012039754812" fill="#ff760a" stroke="none" /><path d="M 88.8546689885994 117.79835938074946 l -3.5859918772997044 5.726592786104062 a27.75671537671364,27.75671537671364 0 0,0 -0.40276077574707764,-0.2570609830483452 l 3.6840344550937054 -5.664017374231912" fill="#ff4e07" stroke="none" /><path d="M 87.95078237400918 117.19931262002967 l -6.6847295693943645 9.541926887963875 a32.65049261409934,32.65049261409934 0 0,0 -0.45753084326672355,-0.32643610847348065 l 6.847987740509975 -9.425446517646176" fill="#ff910d" stroke="none" /><path d="M 86.79598089348748 116.32954008644616 l -8.53765865726369 10.558606297337024 a34.57850442022665,34.57850442022665 0 0,0 -0.459613975901656,-0.3782310118068864 l 8.718142761710034 -10.410080166672957" fill="#ffaa0f" stroke="none" /><path d="M 85.97065885151581 115.62618273729859 l -5.067592193143798 5.64439347579259 a28.58549064633145,28.58549064633145 0 0,0 -0.36330858724842274,-0.33187378048797056 l 5.164000329859076 -5.556326928718043" fill="#ff5908" stroke="none" /><path d="M 85.44109423537348 115.13401014063109 l -8.217963056933616 8.54258817590166 a32.85372218116236,32.85372218116236 0 0,0 -0.4041790804826534,-0.3955742986722568 l 8.363792089792064 -8.399863774306834" fill="#ff930d" stroke="none" /><path d="M 84.9287848128048 114.62390073753433 l -7.634754325853654 7.408154420859482 a31.63814953548976,31.63814953548976 0 0,0 -0.3758814778855988,-0.3941102268087048 l 7.761142355118211 -7.275637077468278" fill="#ff830c" stroke="none" /><path d="M 84.67929136418377 114.36230785411682 l -8.080783429720324 7.5752827156291715 a32.07627956760539,32.07627956760539 0 0,0 -0.37415237610562596,-0.4060685082709132 l 8.209982213821679 -7.4350629525569145" fill="#ff890c" stroke="none" /><path d="M 83.72743513129214 113.27417163493432 l -6.887495516995192 5.618401178000325 a29.888420911139633,29.888420911139633 0 0,0 -0.3217731716654097,-0.401461506539524 l 6.983186600715463 -5.499011837882541" fill="#ff6b09" stroke="none" /><path d="M 83.06392112726016 112.41649034213515 l -9.084049827161973 6.659866064274187 a32.26382604874704,32.26382604874704 0 0,0 -0.3245129541320778,-0.4507201105844081 l 9.197342573669658 -6.50251234823864" fill="#ff8b0c" stroke="none" /><path d="M 82.6465618267979 111.8261652097733 l -7.771844628448665 5.296421241910209 a30.404979898995215,30.404979898995215 0 0,0 -0.2910145971308192,-0.43502733733152815 l 7.861862330990214 -5.1618569903728595" fill="#ff720a" stroke="none" /><line stroke="#e1ed5e" stroke-width="0.3" x1="26.63291911575756" x2="22.317208475507996" y1="142.92168965132927" y2="145.44649492493687" /><path d="M 25.769776987707644 143.4266507060508 a86.0,86.0 0 0,1 -11.730757126820373,-40.83630448921669" fill="none" id="id21" stroke="none" /><text fill="#e1ed5e" style="font-size:6.75px; font-family:Arial;" text-anchor="middle"><textPath startOffset="21.46611528233685" xlink:href="#id21">September</textPath></text><path d="M 81.69416730710424 110.29060199501025 l -5.996292049931672 3.3708084175617965 a27.878798422397566,27.878798422397566 0 0,0 -0.23155810100057042,-0.42034521391311164 l 6.053426560383759 -3.2670926852508626" fill="#ff4f07" stroke="none" /><path d="M 81.18737489456691 109.33194174019688 l -3.5617980341979836 1.7668183764467875 a24.97593415586409,24.97593415586409 0 0,0 -0.1877318985480169,-0.38678331536051735 l 3.5916831893607193 -1.7052461051209855" fill="#ff2603" stroke="none" /><path d="M 79.50377843672027 104.57218783832718 l -7.276640202184196 1.6232341035927706 a28.45549338321146,28.45549338321146 0 0,0 -0.10252915525766718,-0.47898207965047823 l 7.303503396166304 -1.4977382045261287" fill="#ff5708" stroke="none" /><path d="M 79.0235259727143 100.99374915477108 l -2.3196342317198 0.1098914218925043 a23.32223579629026,23.32223579629026 0 0,0 -0.015545788489973273,-0.40116772476784185 l 2.3211821530609744 -0.06994645011066565" fill="#ff0e01" stroke="none" /><line stroke="#e1ed5e" stroke-width="0.3" x1="15.007084014347285" x2="10.007500721073583" y1="101.09737516637583" y2="101.16192664675087" /><path d="M 14.007167355692545 101.11028546245083 a86.0,86.0 0 0,1 10.666146001902534,-42.60595125391555" fill="none" id="id22" stroke="none" /><text fill="#e1ed5e" style="font-size:6.75px; font-family:Arial;" text-anchor="middle"><textPath startOffset="22.20632615414155" xlink:href="#id22">October</textPath></text><path d="M 79.16333360222342 97.38593545837743 l -3.5588820041515206 -0.4464796372544431 a24.586779221802814,24.586779221802814 0 0,0 0.05629670072695225,-0.4194758106132236 l 3.5506693043667346 0.5076737899323261" fill="#ff2103" stroke="none" /><path d="M 79.46518482838121 95.60439243477599 l -13.015879497709546 -2.7861316456965204 a34.310734339098175,34.310734339098175 0 0,0 0.12859273231280766,-0.5764560044574137 l 12.965992378394702 3.009765819703893" fill="#ffa70f" stroke="none" /><path d="M 79.91906864156998 93.8553929516997 l -12.540680352368252 -3.8373495485952245 a34.114645067952814,34.114645067952814 0 0,0 0.17665621782542665,-0.5600484861713654 l 12.472768650774622 4.052648201193004" fill="#ffa40f" stroke="none" /><path d="M 80.803312248108 91.48605970444005 l -5.755612936673924 -2.552677083699741 a27.296287840502057,27.296287840502057 0 0,0 0.19419057899392594,-0.427873199876432 l 5.710820040716647 2.6513722924182437" fill="#ff4706" stroke="none" /><path d="M 81.10775173730289 90.83032412892265 l -6.562342835120053 -3.185145352538731 a28.29448383386039,28.29448383386039 0 0,0 0.21643931031243832,-0.43632844228413475 l 6.506543511854202 3.297633383321827" fill="#ff5507" stroke="none" /><line stroke="#e1ed5e" stroke-width="0.3" x1="26.266209847984243" x2="21.928928074336255" y1="57.711370442889674" y2="55.22380399835377" /><path d="M 25.398753493254645 57.213857153982495 a86.0,86.0 0 0,1 29.58750427330803,-30.492523968695096" fill="none" id="id23" stroke="none" /><text fill="#e1ed5e" style="font-size:6.75px; font-family:Arial;" text-anchor="middle"><textPath startOffset="21.46611528233685" xlink:href="#id23">November</textPath></text><path d="M 81.78341655067845 89.55222093294921 l -11.237640755045529 -6.445137650000677 a33.95470451484388,33.95470451484388 0 0,0 0.29514775311445374,-0.5045031836224548 l 11.12503332746075 6.637620245977024" fill="#ffa20f" stroke="none" /><path d="M 83.6137871275137 86.86637796730984 l -6.47312661593842 -5.188239589284819 a29.295733736191917,29.295733736191917 0 0,0 0.3187675873546834,-0.39077137059304373 l 6.382860536507344 5.298895129485945" fill="#ff6309" stroke="none" /><path d="M 87.51073957382395 83.11751280151077 l -5.0499858136863 -6.826370653095185 a29.491271578030705,29.491271578030705 0 0,0 0.41070764284179423,-0.29839656910140094 l 4.931732854490724 6.912286457013254" fill="#ff6609" stroke="none" /><path d="M 88.09926311788651 82.69761687909137 l -7.440843347906226 -10.818180724727847 a34.13008697309174,34.13008697309174 0 0,0 0.4869149446016574,-0.3287671441365218 l 7.253523708898029 10.944659781163034" fill="#ffa40f" stroke="none" /><line stroke="#e1ed5e" stroke-width="0.3" x1="56.762969772571076" x2="54.21961505331055" y1="26.818313649435495" y2="22.513508569990535" /><path d="M 56.25429882871897 25.957352633546506 a86.0,86.0 0 0,1 42.265352541879196,-11.944610805530505" fill="none" id="id24" stroke="none" /><text fill="#e1ed5e" style="font-size:6.75px; font-family:Arial;" text-anchor="middle"><textPath startOffset="22.20632615414155" xlink:href="#id24">December</textPath></text><path d="M 90.26544431104013 81.39251694778311 l -5.707793179041925 -10.910376214194729 a33.31321290768513,33.31321290768513 0 0,0 0.5103893751319197,-0.2614412615734496 l 5.519143316321242 11.007010001080683" fill="#ff990e" stroke="none" /><path d="M 91.56875222667455 80.76684994638697 l -25.293743319976343 -57.69945016083907 a84.0,84.0 0 0,0 1.329264968838767,-0.5691218881488553 l 24.29679459334727 58.12629157695071" fill="#4dd2ff" stroke="none" /><path d="M 92.57280143429618 80.3572730644239 l -2.1609929544688895 -5.715182398696759 a27.110090048406605,27.110090048406605 0 0,0 0.43791531877698564,-0.1612879076249648 l 2.0622953099193344 5.751533574128047" fill="#ff4506" stroke="none" /><path d="M 93.94186890950719 79.89281104454417 l -3.661929011217988 -12.154094632514129 a33.69376777869001,33.69376777869001 0 0,0 0.5567650962362296,-0.16253499909555233 l 3.4521736972583374 12.215327960528379" fill="#ff9e0e" stroke="none" /><path d="M 96.40284397218896 79.31037775812273 l -2.5281971708866235 -14.541333212742947 a35.75947670274594,35.75947670274594 0 0,0 0.6073505211250676,-0.10021803996571162 l 2.27751744362267 14.582697515648286" fill="#ffb911" stroke="none" /></svg>