<?xml version="1.0" encoding="utf-8" ?>
<svg baseProfile="full" height="200mm" version="1.1" viewBox="0,0,200,200" width="200mm" xmlns="http://www.w3.org/2000/svg" xmlns:ev="http://www.w3.org/2001/xml-events" xmlns:xlink="http://www.w3.org/1999/xlink"><defs /><rect fill="#1a1a1a" height="200" width="200" x="0" y="0" /><rect fill="#1a1a1a" height="200" width="180" x="10" y="0" /><text alignment-baseline="middle" fill="#e1ed5e" style="dominant-baseline: central; font-size:9.0px; font-family:Arial;" text-anchor="middle" x="100.0" y="100.0">2025</text><line stroke="#e1ed5e" stroke-width="0.3" x1="100.0" x2="100.0" y1="15.0" y2="10.0" /><path d="M 100.0 14.0 a86.0,86.0 0 0,1 42.46469731375804,11.215312516191453" fill="none" id="id61" stroke="none" /><text fill="#e1ed5e" style="font-size:6.75px; font-family:Arial;" text-anchor="middle"><textPath startOffset="22.20632615414155" xlink:href="#id61">January</textPath></text><path d="M 101.80526077348638 79.07773832637324 l 0.20766069436237172 -2.4067056962556665 a23.415648002580784,23.415648002580784 0 0,0 0.40127158804896845,0.0381055723958311 l -0.24905740950158436 2.402774579344657" fill="#ff0600" stroke="none" /><path d="M 102.16513564639614 79.11191278185805 l 0.2380970432786965 -2.2970347445275956 a23.309341642023764,23.309341642023764 0 0,0 0.3987376970039157,0.04480282621944329 l -0.2776014437923375 2.2925959648375516" fill="#ff0400" stroke="none" /><path d="M 104.66035177308747 79.52364482259891 l 0.4522124464454264 -1.9869020880635175 a23.03771342545298,23.03771342545298 0 0,0 0.3859105661723725,0.09133256274267393 l -0.48634669958032245 1.978823613179975" fill="#ff0000" stroke="none" /><path d="M 105.71112130821622 79.79150937346287 l 0.5855443751511271 -2.0719167704667334 a23.15306788537018,23.15306788537018 0 0,0 0.3825876688541437,0.11168783178317616 l -0.6211222617286979 2.0615306097648536" fill="#ff0200" stroke="none" /><line stroke="#e1ed5e" stroke-width="0.3" x1="143.23703022742887" x2="145.7803849466894" y1="26.81831364943548" y2="22.513508569990506" /><path d="M 143.74570117128098 25.957352633546492 a86.0,86.0 0 0,1 28.547481713284135,27.462654790039103" fill="none" id="id62" stroke="none" /><text fill="#e1ed5e" style="font-size:6.75px; font-family:Arial;" text-anchor="middle"><textPath startOffset="19.985693538727396" xlink:href="#id62">February</textPath></text><path d="M 111.60114157652 82.49532879139004 l 7.209789603652437 -10.878670487964852 a34.050920952739396,34.050920952739396 0 0,0 0.4857855270749832,0.32800455638089515 l -7.395979825133962 10.752954019285285" fill="#ff9c0e" stroke="none" /><path d="M 111.90073688211348 82.69761687909136 l 11.1170025214685 -16.16291820312857 a40.61702500134416,40.61702500134416 0 0,0 0.5726398240785868,0.40117079176737896 l -11.393573485130737 15.969162568597254" fill="#fff116" stroke="none" /><path d="M 112.48926042617603 83.11751280151076 l 1.207750056188398 -1.6325886535155123 a23.030764858325718,23.030764858325718 0 0,0 0.3166772349870391,0.2385147279846456 l -1.23567344493382 1.6115573360250195" fill="#ff0000" stroke="none" /><path d="M 113.06298171725822 83.55741782278167 l 12.067269323126311 -15.189263201523925 a40.39929652131835,40.39929652131835 0 0,0 0.5407669025013315,0.4372625606721009 l -12.326939624192134 14.979294543587693" fill="#ffee16" stroke="none" /><path d="M 114.68862486808459 84.99185889309783 l 13.563364712563128 -13.858403582272823 a40.39124060433357,40.39124060433357 0 0,0 0.4927042776027743,0.4905884488538442 l -13.799904790333224 13.62287928276886" fill="#ffee16" stroke="none" /><path d="M 114.94478906791727 85.2469230424477 l 8.936876878802712 -8.82223440919535 a33.55784966933706,33.55784966933706 0 0,0 0.4022719045262354,0.41457655831299 l -9.087413047032056 8.667093655332245" fill="#ff950d" stroke="none" /><path d="M 115.4437574822437 85.77008943001954 l 1.81895437566145 -1.6759883808261329 a23.47336452497446,23.47336452497446 0 0,0 0.27123624657728584,0.2995058379939406 l -1.8475342628547713 1.6444297555626433" fill="#ff0701" stroke="none" /><path d="M 115.68641384162765 86.03803664274999 l 14.539393882258976 -12.941038447042608 a40.46444066885316,40.46444066885316 0 0,0 0.4586126721408795,0.524273563473511 l -14.759998417977704 12.68884932736615" fill="#ffef16" stroke="none" /><path d="M 116.15771136456269 86.58626213691792 l 15.14162013366519 -12.570203707240664 a40.67939738695629,40.67939738695629 0 0,0 0.44263350687345265,0.542616341851872 l -15.355752132615052 12.307703195780691" fill="#fff116" stroke="none" /><path d="M 116.60985879189232 87.15038557335679 l 15.354222716964896 -11.878237148536744 a40.41248755309425,40.41248755309425 0 0,0 0.42091349253596455,0.5538728172523221 l -15.556412149724974 11.61217955540339" fill="#ffee16" stroke="none" /><path d="M 117.04232023915458 87.72973835380427 l 16.93912671440245 -12.195963573449005 a41.87284219581698,41.87284219581698 0 0,0 0.41611113043859393,0.58855968438066 l -17.14655046464493 11.902577388736551" fill="#feff18" stroke="none" /><path d="M 117.45458315368197 88.32363383020206 l 18.829937219072136 -12.596418945577247 a43.65471928598312,43.65471928598312 0 0,0 0.4124401518497303,0.6281746471595026 l -19.043974006279793 12.27042623444007" fill="#e8ff1a" stroke="none" /><line stroke="#e1ed5e" stroke-width="0.3" x1="172.23445277983987" x2="176.4835382374775" y1="55.19839476539836" y2="52.563006222186495" /><path d="M 173.08426987136738 54.67131705675599 a86.0,86.0 0 0,1 12.851231095245387,41.99856678651699" fill="none" id="id63" stroke="none" /><text fill="#e1ed5e" style="font-size:6.75px; font-family:Arial;" text-anchor="middle"><textPath startOffset="22.20632615414155" xlink:href="#id63">March</textPath></text><path d="M 117.84615892207809 88.93136811851018 l 16.50582771602339 -10.237325112124504 a40.42280036561105,40.42280036561105 0 0,0 0.3616574084632461,0.5944696881008221 l -16.67960092277286 9.9516876508166" fill="#ffee16" stroke="none" /><path d="M 118.56541770881063 90.18545643968196 l 17.192148621152597 -9.088569628987551 a40.446646808968225,40.446646808968225 0 0,0 0.32008815047404765,0.6183084247038276 l -17.34604620478676 8.79128848202338" fill="#ffee16" stroke="none" /><path d="M 119.7369772167798 92.82701384747503 l 2.134941001574693 -0.7758990686645585 a23.27156167535889,23.27156167535889 0 0,0 0.13358643165281053,0.37766683122484473 l -2.147980514037313 0.7390346110130991" fill="#ff0400" stroke="none" /><path d="M 119.97218684219823 93.5106431181261 l 17.534770378710913 -5.697392264964515 a39.43714866390666,39.43714866390666 0 0,0 0.20421779300085066,0.6474262113570661 l -17.630243655479973 5.39471588718103" fill="#ffe215" stroke="none" /><path d="M 120.53481517161879 95.60439243477599 l 12.432403876295318 -2.6612349843836514 a33.71404096994462,33.71404096994462 0 0,0 0.11658749489466758,0.5685220303124519 l -12.476370667104982 2.4468372979077877" fill="#ff970d" stroke="none" /><path d="M 120.67395015179393 96.31383870115 l 8.95296389590653 -1.5963117246961256 a30.094161514059895,30.094161514059895 0 0,0 0.08653954252113447,0.5107612786823575 l -8.979115299947887 1.4419646576979301" fill="#ff6609" stroke="none" /><path d="M 120.94382443527127 98.46500227214037 l 19.80715709275511 -1.4516900304767149 a40.86028388623044,40.86028388623044 0 0,0 0.04537322245803324,0.7019036687621617 l -19.829210906217558 1.1105272974615181" fill="#fff417" stroke="none" /><line stroke="#e1ed5e" stroke-width="0.3" x1="184.98032266829074" x2="189.97916517819016" y1="98.17113171792111" y2="98.06355123074" /><path d="M 185.9800911702706 98.14961562048488 a86.0,86.0 0 0,1 -9.607161424134198,41.387399972396054" fill="none" id="id64" stroke="none" /><text fill="#e1ed5e" style="font-size:6.75px; font-family:Arial;" text-anchor="middle"><textPath startOffset="21.466115282336823" xlink:href="#id64">April</textPath></text><path d="M 120.9904718944345 100.63252640178507 l 40.81753834318268 1.2299947703787937 a61.836066455185765,61.836066455185765 0 0,0 -0.041217763963993376,1.0636473408936697 l -40.79031844636749 -1.9324193582864697" fill="#31ff3f" stroke="none" /><path d="M 120.89721153311464 102.0752229133903 l 19.855011240682717 1.9717259504692162 a40.952673369535994,40.952673369535994 0 0,0 -0.07569945369450237,0.7008829256029518 l -19.818129485487162 -2.3132051979569597" fill="#fff517" stroke="none" /><path d="M 120.76222939487914 103.15116336523771 l 19.889032791796293 3.01863496022146 a41.11680348405828,41.11680348405828 0 0,0 -0.11222585914180402,0.6988305320039617 l -19.8341251782932 -3.360544721918627" fill="#fff717" stroke="none" /><path d="M 120.64145759157962 103.86396538481128 l 19.813407794162465 3.708959095167031 a41.15756696596591,41.15756696596591 0 0,0 -0.13634927106575434,0.6952419956408675 l -19.74662859012105 -4.049464817875843" fill="#fff717" stroke="none" /><path d="M 120.41448212921028 104.9243191809786 l 3.847043167259403 0.9279720317510196 a24.957382117318136,24.957382117318136 0 0,0 -0.10433217974834812,0.41675519571736874 l -3.830499673215994 -0.9940550668657844" fill="#ff1c02" stroke="none" /><path d="M 120.32669344350535 105.2749913415812 l 18.900073161249257 4.904768331255368 a40.526123985160496,40.526123985160496 0 0,0 -0.1810396975933118,0.6737160631653053 l -18.812845387314166 -5.229375327596222" fill="#ffef16" stroke="none" /><path d="M 120.13307415673323 105.97154293290107 l 19.18727787033849 5.691016318534253 a41.013477928920906,41.013477928920906 0 0,0 -0.2065775205376408,0.675107289612356 l -19.086473577294715 -6.0204505806986655" fill="#fff617" stroke="none" /><path d="M 119.67450827220406 107.3425965602758 l 20.81658010299097 7.76882183514943 a43.21901437711705,43.21901437711705 0 0,0 -0.26611741853770043,0.6947486056387737 l -20.67976840485976 -8.125994007621347" fill="#edff19" stroke="none" /><path d="M 119.26925614724726 108.34839909993367 l 20.2228307194265 8.761534980180818 a43.039223614172805,43.039223614172805 0 0,0 -0.30037056794768335,0.6772563352079334 l -20.069019066747543 -9.108339651881439" fill="#efff19" stroke="none" /><line stroke="#e1ed5e" stroke-width="0.3" x1="174.80103733775053" x2="179.2010983576182" y1="140.37084112569926" y2="142.7455964860345" /><path d="M 175.68104954172406 140.8457921977663 a86.0,86.0 0 0,1 -30.038265399797805,32.042727171017184" fill="none" id="id65" stroke="none" /><text fill="#e1ed5e" style="font-size:6.75px; font-family:Arial;" text-anchor="middle"><textPath startOffset="22.206326154141568" xlink:href="#id65">May</textPath></text><path d="M 118.48025628344425 109.97397251340804 l 39.40984822996619 21.26987510207877 a65.78329738157966,65.78329738157966 0 0,0 -0.5463885203530587,0.9918538737148855 l -39.03788330016162 -21.94509949419146" fill="#36ff6e" stroke="none" /><path d="M 116.71984013943494 112.70617746262583 l 7.837902704445473 5.956383665570431 a30.844349911285555,30.844349911285555 0 0,0 -0.3248838060817543,0.4199561141384516 l -7.7342120811456505 -6.090417773822136" fill="#ff700a" stroke="none" /><path d="M 116.498646956653 112.99209946851258 l 15.60408378728091 12.287662692097799 a40.86137168664982,40.86137168664982 0 0,0 -0.43990591558192693,0.5488502683151266 l -15.390259959644128 -12.554440793991175" fill="#fff417" stroke="none" /><path d="M 115.32070863581623 114.36230785411682 l 14.800165339573747 13.87432761444607 a41.28649454271735,41.28649454271735 0 0,0 -0.4905099954731483,0.5142977692204769 l -14.559148792721633 -14.127032500249053" fill="#fff917" stroke="none" /><path d="M 114.81725581225074 114.88116024355365 l 13.686278313285355 13.745305021290273 a40.39710350018818,40.39710350018818 0 0,0 -0.49698064824540883,0.4864001648689899 l -13.447647712664152 -13.978855289081833" fill="#ffee16" stroke="none" /><path d="M 113.20401910651253 116.32954008644616 l 12.72184913561501 15.733235748748847 a41.233144900263454,41.233144900263454 0 0,0 -0.555749176939016,0.4415207574753211 l -12.449142465958642 -15.949890420229293" fill="#fff817" stroke="none" /><path d="M 111.1453310114006 117.79835938074945 l 11.562209690854656 18.464087168242337 a42.785481585031455,42.785481585031455 0 0,0 -0.6275627747191839,0.3855003127709522 l -11.242667716203163 -18.66037594784167" fill="#f3ff19" stroke="none" /><line stroke="#e1ed5e" stroke-width="0.3" x1="143.8653032363475" x2="146.44561519142675" y1="172.8068346515853" y2="177.08958963109032" /><path d="M 144.38136562736335 173.6633856474863 a86.0,86.0 0 0,1 -40.68145358897372,12.25698825130547" fill="none" id="id66" stroke="none" /><text fill="#e1ed5e" style="font-size:6.75px; font-family:Arial;" text-anchor="middle"><textPath startOffset="21.466115282336833" xlink:href="#id66">June</textPath></text><path d="M 110.21172684928248 118.3499491758327 l 9.81984448793643 17.64575668030871 a41.19410989838163,41.19410989838163 0 0,0 -0.6225747984343918,0.33947741954049104 l -9.514646877633389 -17.812174751608975" fill="#fff817" stroke="none" /><path d="M 109.57404056367764 118.69057910512821 l 9.174006229437692 17.909626348645748 a41.122552180224744,41.122552180224744 0 0,0 -0.632790097292924,0.31729409128960484 l -8.864362224462008 -18.064888280844656" fill="#fff717" stroke="none" /><path d="M 108.92500713936063 119.00905698771935 l 5.892808474775748 12.550884314783014 a34.865420614011505,34.865420614011505 0 0,0 -0.5454479291777681,0.25038839175399197 l -5.675892549830561 -12.650459776871081" fill="#ffa70f" stroke="none" /><path d="M 107.2578585660854 119.70592522655815 l 3.673234815519096 9.97325725696122 a31.628194311522126,31.628194311522126 0 0,0 -0.5124978979434701,0.18376351240070285 l -3.501017356945891 -10.035008310401885" fill="#ff7b0b" stroke="none" /><path d="M 106.57524785965236 119.94407469862006 l 2.832719199747856 8.592218046510789 a30.04712711436099,30.04712711436099 0 0,0 -0.4925992622292255,0.15771472799380748 l -2.6843985924276903 -8.639705621164302" fill="#ff6509" stroke="none" /><path d="M 104.83641907484287 120.43548508189849 l 5.14124622148221 21.72348153367587 a43.323576385827195,43.323576385827195 0 0,0 -0.7271756062972999,0.16550280051275026 l -4.766550465792048 -21.8087610677663" fill="#ecff1a" stroke="none" /><path d="M 104.13013068566511 120.58985236759428 l 1.5137353006166743 7.54639229007692 a28.69671560836604,28.69671560836604 0 0,0 -0.48515539982836187,0.09298118705668901 l -1.383612286216608 -7.571330675482077" fill="#ff5207" stroke="none" /><path d="M 102.70371172650421 120.8252237178851 l 2.9889592135413445 23.02233026377914 a44.21554582504436,44.21554582504436 0 0,0 -0.7556069938773072,0.09149348409272952 l -2.592224796612657 -23.07036927659722" fill="#e1ff1b" stroke="none" /><path d="M 101.26447882468166 120.96189622390904 l 0.6123413506379877 10.151088017557953 a31.169540297865474,31.169540297865474 0 0,0 -0.5358369499807762,0.027696649766262137 l -0.4375163322437319 -10.160124474086416" fill="#ff750a" stroke="none" /><line stroke="#e1ed5e" stroke-width="0.3" x1="102.19456741930631" x2="102.32365962044197" y1="184.97166512339345" y2="189.96999836594603" /><path d="M 102.22038585953345 185.97133177190398 a86.0,86.0 0 0,1 -42.740103519485714,-10.115201625700543" fill="none" id="id67" stroke="none" /><text fill="#e1ed5e" style="font-size:6.75px; font-family:Arial;" text-anchor="middle"><textPath startOffset="22.20632615414155" xlink:href="#id67">July</textPath></text><path d="M 100.18074693466247 120.99922214144158 l 0.09824332322610356 11.41393281269762 a32.414355610516694,32.414355610516694 0 0,0 -0.5579805157771102,0.0 l 0.0982433232260957 -11.41393281269762" fill="#ff860c" stroke="none" /><path d="M 99.45781275523022 120.99299961872073 l -0.42806660171788935 16.57435156090121 a37.579878488090756,37.579878488090756 0 0,0 -0.6465164421089084,-0.02226733348334358 l 0.7133033955014407 -16.56452742899177" fill="#ffca12" stroke="none" /><path d="M 99.09653310690486 120.98055641714683 l -0.706703985277132 16.411274111588334 a37.42648314425507,37.42648314425507 0 0,0 -0.6434003320189297,-0.033256447984904444 l 0.9890923857095505 -16.396677856841226" fill="#ffc812" stroke="none" /><path d="M 97.65516085044442 120.86867818915974 l -1.0825785899616944 9.634769281580262 a30.695398677348244,30.695398677348244 0 0,0 -0.5245588963716638,-0.06351677714708581 l 1.2482649093847475 -9.614706975707827" fill="#ff6e0a" stroke="none" /><path d="M 96.22490169976321 120.6578951692458 l -3.482588421510653 19.05723793329663 a40.37283509866122,40.37283509866122 0 0,0 -0.6825554262657756,-0.13081337193943854 l 3.8101114623481234 -18.994467363008724" fill="#ffee16" stroke="none" /><path d="M 94.46302465271185 120.25689768951611 l -5.332388843807653 19.508422644979383 a41.22406796064305,41.22406796064305 0 0,0 -0.6828842079735671,-0.19298989831931518 l 5.667404219885834 -19.413743953321546" fill="#fff817" stroke="none" /><path d="M 93.76903079525671 120.05430185196036 l -2.5794268455583 8.30185527582097 a29.69334480348406,29.69334480348406 0 0,0 -0.48679927660449557,-0.1558577557542782 l 2.721947467253736 -8.256224673406985" fill="#ff6008" stroke="none" /><path d="M 93.42475214034765 119.94407469862007 l -3.5066621613914974 10.6364252089676 a32.199563417388035,32.199563417388035 0 0,0 -0.5248992925704371,-0.17807433897523392 l 3.6892311868991605 -10.574487883094243" fill="#ff830c" stroke="none" /><path d="M 91.7346041902142 119.30500536409082 l -4.328511977291469 10.109854248142623 a31.997507392870585,31.997507392870585 0 0,0 -0.5044625314412126,-0.2211415489965876 l 4.501895183390425 -10.033848145851584" fill="#ff800b" stroke="none" /><path d="M 91.40352486487194 119.15986991738527 l -4.622656401767283 10.303001397480351 a32.292510350018816,32.292510350018816 0 0,0 -0.5051963403330015,-0.23191086153112206 l 4.799320737867704 -10.221903465615155" fill="#ff840c" stroke="none" /><line stroke="#e1ed5e" stroke-width="0.3" x1="58.666819895761336" x2="56.23545636021788" y1="174.27360380694188" y2="178.64263932499728" /><path d="M 58.180547188652646 175.14741091055294 a86.0,86.0 0 0,1 -31.652253787137756,-30.449443065178592" fill="none" id="id68" stroke="none" /><text fill="#e1ed5e" style="font-size:6.75px; font-family:Arial;" text-anchor="middle"><textPath startOffset="22.20632615414155" xlink:href="#id68">August</textPath></text><path d="M 88.8546689885994 117.79835938074946 l -6.631027227454056 10.589313636090077 a33.49416205172321,33.49416205172321 0 0,0 -0.4860133667785436,-0.3101967256046405 l 6.812322396279523 -10.473602481661633" fill="#ff940d" stroke="none" /><path d="M 85.70375840098266 115.38237550388516 l -4.0598765417098965 4.36831911600381 a26.963623850744664,26.963623850744664 0 0,0 -0.3372560838359864,-0.31889667773029917 l 4.134468459936699 -4.29778780152758" fill="#ff3905" stroke="none" /><path d="M 83.06392112726016 112.41649034213515 l -9.397297379787899 6.8895198844472665 a32.65223936770794,32.65223936770794 0 0,0 -0.3284196561261255,-0.45614617796432794 l 9.514496828289632 -6.7267401010318" fill="#ff890c" stroke="none" /><path d="M 82.24976979558568 111.22182372390057 l -17.28384577911296 10.926972122088495 a41.44822839937631,41.44822839937631 0 0,0 -0.3760644349142871,-0.606335610604707 l 17.4693748536952 -10.627840180118524" fill="#fffb17" stroke="none" /><line stroke="#e1ed5e" stroke-width="0.3" x1="26.63291911575756" x2="22.317208475507996" y1="142.92168965132927" y2="145.44649492493687" /><path d="M 25.769776987707644 143.4266507060508 a86.0,86.0 0 0,1 -11.730757126820373,-40.83630448921669" fill="none" id="id69" stroke="none" /><text fill="#e1ed5e" style="font-size:6.75px; font-family:Arial;" text-anchor="middle"><textPath startOffset="21.46611528233685" xlink:href="#id69">September</textPath></text><path d="M 80.0844068197444 106.66101706037122 l -10.799696309668583 3.6120923295846983 a32.38774127641271,32.38774127641271 0 0,0 -0.17228388917410345,-0.5302352894316663 l 10.860272449858936 -3.425658140175228" fill="#ff850c" stroke="none" /><path d="M 79.35854240842038 103.8639653848113 l -10.002589098322085 1.8724287208367456 a31.176334211516746,31.176334211516746 0 0,0 -0.0942023485972953,-0.52833679841683 l 10.03333788925857 -1.699973171686702" fill="#ff750a" stroke="none" /><path d="M 79.0235259727143 100.99374915477108 l -62.92942208185711 2.9812474643132365 a84.0,84.0 0 0,0 -0.05599146859519655,-1.4448910119440128 l 62.97141568330351 -1.8975792053552267" fill="#4dd2ff" stroke="none" /><path d="M 79.0095281055655 100.63252640178507 l -4.6263746208382805 0.13941106740932882 a25.628474649174688,25.628474649174688 0 0,0 -0.009492222347626488,-0.44106627352267797 l 4.628088905870914 -0.05975497809652201" fill="#ff2603" stroke="none" /><line stroke="#e1ed5e" stroke-width="0.3" x1="15.007084014347285" x2="10.007500721073583" y1="101.09737516637583" y2="101.16192664675087" /><path d="M 14.007167355692545 101.11028546245083 a86.0,86.0 0 0,1 10.666146001902534,-42.60595125391555" fill="none" id="id70" stroke="none" /><text fill="#e1ed5e" style="font-size:6.75px; font-family:Arial;" text-anchor="middle"><textPath startOffset="22.20632615414155" xlink:href="#id70">October</textPath></text><path d="M 79.00019446554 99.90962569577889 l -10.405488888054155 -0.044780834603222644 a31.405585246518633,31.405585246518633 0 0,0 0.006979506800451426,-0.5405704933813076 l 10.403176374135988 0.22388758604500222" fill="#ff780b" stroke="none" /><path d="M 79.12142395522702 97.74499172005258 l -18.5684218149645 -2.0054981167541874 a39.676410559707506,39.676410559707506 0 0,0 0.0791821124115247,-0.6783839834407884 l 18.531149349549384 2.3248258385198377" fill="#ffe515" stroke="none" /><line stroke="#e1ed5e" stroke-width="0.3" x1="26.266209847984243" x2="21.928928074336255" y1="57.711370442889674" y2="55.22380399835377" /><path d="M 25.398753493254645 57.213857153982495 a86.0,86.0 0 0,1 29.58750427330803,-30.492523968695096" fill="none" id="id71" stroke="none" /><text fill="#e1ed5e" style="font-size:6.75px; font-family:Arial;" text-anchor="middle"><textPath startOffset="21.46611528233685" xlink:href="#id71">November</textPath></text><path d="M 81.78341655067845 89.55222093294921 l -8.484397562873902 -4.86606676276786 a30.780777461153825,30.780777461153825 0 0,0 0.2675587208483573,-0.4573445843634904 l 8.39937916755522 5.011390759485242" fill="#ff6f0a" stroke="none" /><path d="M 83.17141714833178 87.43820079747576 l -7.760906602428983 -5.793176480073792 a30.68465616430991,30.68465616430991 0 0,0 0.31959393186119944,-0.42054815194973794 l 7.660036730343674 5.925909407904557" fill="#ff6e0a" stroke="none" /><path d="M 83.39014120810768 87.1503855733568 l -7.930248499956695 -6.1349489365706935 a31.026287434808324,31.026287434808324 0 0,0 0.33042393233873485,-0.41960483899450235 l 7.8234704870239895 6.270546169518243" fill="#ff730a" stroke="none" /><line stroke="#e1ed5e" stroke-width="0.3" x1="56.762969772571076" x2="54.21961505331055" y1="26.818313649435495" y2="22.513508569990535" /><path d="M 56.25429882871897 25.957352633546506 a86.0,86.0 0 0,1 42.265352541879196,-11.944610805530505" fill="none" id="id72" stroke="none" /><text fill="#e1ed5e" style="font-size:6.75px; font-family:Arial;" text-anchor="middle"><textPath startOffset="22.20632615414155" xlink:href="#id72">December</textPath></text><path d="M 89.63071344664047 81.73862282372117 l -5.396199246115635 -9.503260349164778 a31.928445615355663,31.928445615355663 0 0,0 0.48025842110781536,-0.2672632913817411 l 5.231816735935774 9.594739038106704" fill="#ff7f0b" stroke="none" /><path d="M 90.91171255644093 81.06846463323043 l -4.2051295814675 -8.759577630857255 a30.716651432872737,30.716651432872737 0 0,0 0.4786265535595744,-0.22472158457763042 l 4.053724816608317 8.830664198074892" fill="#ff6e0a" stroke="none" /><path d="M 95.692805502759 79.44645832069477 l -1.8760011718796665 -8.952107526454398 a30.146562718425724,30.146562718425724 0 0,0 0.5088073555483711,-0.10206196891191995 l 1.721627406864159 8.983073451443529" fill="#ff6609" stroke="none" /><path d="M 98.19473922651362 79.07773832637324 l -0.8369539091013951 -9.699966316315864 a30.736007312221087,30.736007312221087 0 0,0 0.5275027892931197,-0.040944368853947324 l 0.6698609304459412 9.712935947358273" fill="#ff6f0a" stroke="none" /><path d="M 99.63851952072746 79.00311137660856 l -0.16789522031512627 -9.75233088229521 a30.753776009462875,30.753776009462875 0 0,0 0.5293756995876596,-0.004556503776223891 l 2.3889861139177906e-15 9.753776009462875" fill="#ff6f0a" stroke="none" /></svg>