<?xml version="1.0" encoding="utf-8" ?>
<svg baseProfile="full" height="200mm" version="1.1" viewBox="0,0,200,200" width="200mm" xmlns="http://www.w3.org/2000/svg" xmlns:ev="http://www.w3.org/2001/xml-events" xmlns:xlink="http://www.w3.org/1999/xlink"><defs /><rect fill="#1a1a1a" height="200" width="200" x="0" y="0" /><text alignment-baseline="middle" fill="#e1ed5e" style="dominant-baseline: central; font-size:9.0px; font-family:Arial;" text-anchor="middle" x="100.0" y="100.0">2025</text><line stroke="#e1ed5e" stroke-width="0.3" x1="100.0" x2="100.0" y1="15.0" y2="10.0" /><path d="M 100.0 14.0 a86.0,86.0 0 0,1 42.46469731375804,11.215312516191453" fill="none" id="id61" stroke="none" /><text fill="#e1ed5e" style="font-size:6.75px; font-family:Arial;" text-anchor="middle"><textPath startOffset="22.20632615414155" xlink:href="#id61">January</textPath></text><path d="M 101.80526077348638 79.07773832637324 l 0.29213176585363687 -3.3856921604542807 a24.398271968807432,24.398271968807432 0 0,0 0.4181107154282015,0.039704650443075466 l -0.3503676083720826 3.3801619654960273" fill="#ff0801" stroke="none" /><path d="M 102.16513564639614 79.11191278185805 l 0.33494884485053017 -3.231409864088351 a24.248722893445084,24.248722893445084 0 0,0 0.4148070790805462,0.046608408530929735 l -0.39052262744080163 3.22516550208682" fill="#ff0601" stroke="none" /><path d="M 104.66035177308747 79.52364482259891 l 0.636160930342306 -2.795123156775159 a23.866603249637926,23.866603249637926 0 0,0 0.39979550932789926,0.09461868018306599 l -0.6841801266327288 2.783758564451224" fill="#ff0000" stroke="none" /><path d="M 105.71112130821622 79.79150937346287 l 0.8237288853521174 -2.9147196426204727 a24.028880960295577,24.028880960295577 0 0,0 0.39705984525627885,0.11591265692816623 l -0.8737789483318233 2.900108656773603" fill="#ff0300" stroke="none" /><line stroke="#e1ed5e" stroke-width="0.3" x1="143.23703022742887" x2="145.7803849466894" y1="26.81831364943548" y2="22.513508569990506" /><path d="M 143.74570117128098 25.957352633546492 a86.0,86.0 0 0,1 28.547481713284135,27.462654790039103" fill="none" id="id62" stroke="none" /><text fill="#e1ed5e" style="font-size:6.75px; font-family:Arial;" text-anchor="middle"><textPath startOffset="19.985693538727396" xlink:href="#id62">February</textPath></text><path d="M 111.60114157652 82.49532879139004 l 10.142548038834956 -15.303836046331135 a39.35970256984189,39.35970256984189 0 0,0 0.5615229580704477,0.3791428078736398 l -10.404475691311946 15.126981326158825" fill="#ffd914" stroke="none" /><path d="M 111.90073688211348 82.69761687909136 l 15.639115469433774 -22.73758089139577 a48.59673019506204,48.59673019506204 0 0,0 0.6851418347053713,0.47998563974130437 l -16.028188443722797 22.465010408890528" fill="#b4ff20" stroke="none" /><path d="M 112.48926042617603 83.11751280151076 l 1.6990319603211224 -2.2966840582351353 a23.856828182713137,23.856828182713137 0 0,0 0.32803575699446785,0.24706973127378434 l -1.7383138710739732 2.2670977374555035" fill="#ff0000" stroke="none" /><path d="M 113.06298171725822 83.55741782278167 l 16.975926557602257 -21.36786788034976 a48.29043532524149,48.29043532524149 0 0,0 0.6463941548460297,0.5226724528518227 l -17.341224111012778 21.072489330233807" fill="#b7ff1f" stroke="none" /><path d="M 114.68862486808459 84.99185889309783 l 19.080595374894127 -19.49564852815649 a48.27910246679391,48.27910246679391 0 0,0 0.5889227453355289,0.5863937239080259 l -19.41335392039698 19.164318953598347" fill="#b7ff1f" stroke="none" /><path d="M 114.94478906791727 85.2469230424477 l 12.572170346620227 -12.410894245762263 a38.666062470282725,38.666062470282725 0 0,0 0.4635061764599145,0.47768385818511105 l -12.783940786783251 12.192646192027036" fill="#ffd013" stroke="none" /><path d="M 115.4437574822437 85.77008943001954 l 2.5588586005684872 -2.3577376871645166 a24.47946609973128,24.47946609973128 0 0,0 0.2828618154011412,0.3123430814548838 l -2.5990640565856644 2.3133418184400836" fill="#ff0901" stroke="none" /><path d="M 115.68641384162765 86.03803664274999 l 20.453648305028093 -18.2051226647511 a48.38207844967969,48.38207844967969 0 0,0 0.5483489680018387,0.6268576621298306 l -20.76398913660778 17.850349446418324" fill="#b6ff1f" stroke="none" /><path d="M 116.15771136456269 86.58626213691792 l 21.300844828216597 -17.683441815561725 a48.684474075555755,48.684474075555755 0 0,0 0.5297369399395938,0.6493948515651041 l -21.602080260232597 17.314162794388523" fill="#b2ff20" stroke="none" /><path d="M 116.60985879189232 87.15038557335679 l 21.59992871732278 -16.710000918012323 a48.30899213214208,48.30899213214208 0 0,0 0.5031589944201654,0.6620982570225648 l -21.884363651967057 16.335717885108725" fill="#b7ff1f" stroke="none" /><path d="M 117.04232023915458 87.72973835380427 l 23.82953121817918 -17.15697034500467 a50.36338177896997,50.36338177896997 0 0,0 0.5004858191081002,0.7079016978487889 l -24.121329657091167 16.744242146824085" fill="#9fff22" stroke="none" /><path d="M 117.45458315368197 88.32363383020206 l 26.489475187449894 -17.720320743907095 a52.87008100042213,52.87008100042213 0 0,0 0.4995048552087047,0.7607801635411788 l -26.790576678016524 17.261722516388243" fill="#83ff25" stroke="none" /><line stroke="#e1ed5e" stroke-width="0.3" x1="172.23445277983987" x2="176.4835382374775" y1="55.19839476539836" y2="52.563006222186495" /><path d="M 173.08426987136738 54.67131705675599 a86.0,86.0 0 0,1 12.851231095245387,41.99856678651699" fill="none" id="id63" stroke="none" /><text fill="#e1ed5e" style="font-size:6.75px; font-family:Arial;" text-anchor="middle"><textPath startOffset="22.20632615414155" xlink:href="#id63">March</textPath></text><path d="M 117.84615892207809 88.93136811851018 l 23.21997724395331 -14.401607737109735 a48.32349993363384,48.32349993363384 0 0,0 0.43234391471650024,0.71065971861579 l -23.464436956956035 13.999780245286864" fill="#b7ff1f" stroke="none" /><path d="M 118.56541770881063 90.18545643968196 l 24.185475980116603 -12.785567836765193 a48.35704650164783,48.35704650164783 0 0,0 0.38268976041959357,0.7392348094263771 l -24.40197517369631 12.36736030507847" fill="#b6ff1f" stroke="none" /><path d="M 119.7369772167798 92.82701384747503 l 3.003380522724284 -1.0915150108168072 a24.195575000390072,24.195575000390072 0 0,0 0.1388905725872483,0.39266235190980014 l -3.021724176121342 1.0396550324803926" fill="#ff0500" stroke="none" /><path d="M 119.97218684219823 93.5106431181261 l 24.667467525809542 -8.014946055321118 a46.93691027101293,46.93691027101293 0 0,0 0.24305388575411502,0.7705472383042764 l -24.801776895331862 7.589148650590423" fill="#c7ff1e" stroke="none" /><path d="M 120.53481517161879 95.60439243477599 l 17.489588529690742 -3.7437574680494903 a38.88578840637075,38.88578840637075 0 0,0 0.13447206347481402,0.6557335382844977 l -17.551439889080555 3.442148273601581" fill="#ffd313" stroke="none" /><path d="M 120.67395015179393 96.31383870115 l 12.594801151781917 -2.245650600467432 a33.793434357994215,33.793434357994215 0 0,0 0.09717726636751466,0.5735457269907137 l -12.631590279669656 2.0285190851608808" fill="#ff8f0d" stroke="none" /><path d="M 120.94382443527127 98.46500227214037 l 27.864203169569194 -2.042200491419175 a48.93894058696898,48.93894058696898 0 0,0 0.054344151017054254,0.8406799629432525 l -27.895227911590663 1.5622614642228874" fill="#b0ff20" stroke="none" /><line stroke="#e1ed5e" stroke-width="0.3" x1="184.98032266829074" x2="189.97916517819016" y1="98.17113171792111" y2="98.06355123074" /><path d="M 185.9800911702706 98.14961562048488 a86.0,86.0 0 0,1 -9.607161424134198,41.387399972396054" fill="none" id="id64" stroke="none" /><text fill="#e1ed5e" style="font-size:6.75px; font-family:Arial;" text-anchor="middle"><textPath startOffset="21.466115282336823" xlink:href="#id64">April</textPath></text><path d="M 120.9904718944345 100.63252640178507 l 57.421071380916786 1.7303252566153644 a78.4471362560922,78.4471362560922 0 0,0 -0.052290123405539984,1.349375739156809 l -57.38277912466005 -2.7184782427861798" fill="#46fff6" stroke="none" /><path d="M 120.89721153311464 102.0752229133903 l 27.931523163757017 2.7737737536641167 a49.06891175453745,49.06891175453745 0 0,0 -0.09070201057900601,0.8397879697948264 l -27.87963885167696 -3.2541580453437344" fill="#aeff20" stroke="none" /><path d="M 120.76222939487914 103.15116336523771 l 27.979383813719718 4.2465386341152875 a49.299805811462285,49.299805811462285 0 0,0 -0.13456087521153218,0.8379106983905967 l -27.902141184146895 -4.7275285621990895" fill="#abff21" stroke="none" /><path d="M 120.64145759157962 103.86396538481128 l 27.872996496806994 5.217669011831948 a49.35715083762906,49.35715083762906 0 0,0 -0.163513347233529,0.8337510347945615 l -27.779053216597802 -5.6966837736944544" fill="#abff21" stroke="none" /><path d="M 120.41448212921028 104.9243191809786 l 5.411922160895455 1.3054473747697062 a26.567144180267334,26.567144180267334 0 0,0 -0.11106165097710914,0.44363608813024974 l -5.388649195623285 -1.3984113022973519" fill="#ff2803" stroke="none" /><path d="M 120.32669344350535 105.2749913415812 l 26.588140641212938 6.899902931135812 a48.46885296505873,48.46885296505873 0 0,0 -0.21652173019808163,0.8057579061277721 l -26.46543083467308 -7.356551770439132" fill="#b5ff20" stroke="none" /><path d="M 120.13307415673323 105.97154293290107 l 26.99217289722239 8.005976536581041 a49.154450057101684,49.154450057101684 0 0,0 -0.2475821346774169,0.8091127411322404 l -26.85036399003884 -8.469416250265338" fill="#adff20" stroke="none" /><path d="M 119.67450827220406 107.3425965602758 l 29.284233702448557 10.928980317017247 a52.2571424527159,52.2571424527159 0 0,0 -0.32176892624919856,0.8400371312704823 l -29.09177049660585 -11.431441015120873" fill="#8aff24" stroke="none" /><path d="M 119.26925614724726 108.34839909993367 l 28.4489622206316 12.32550383792042 a52.00421739521117,52.00421739521117 0 0,0 -0.36293722337339135,0.818327626078259 l -28.232583912526934 -12.813379800491367" fill="#8dff24" stroke="none" /><line stroke="#e1ed5e" stroke-width="0.3" x1="174.80103733775053" x2="179.2010983576182" y1="140.37084112569926" y2="142.7455964860345" /><path d="M 175.68104954172406 140.8457921977663 a86.0,86.0 0 0,1 -30.038265399797805,32.042727171017184" fill="none" id="id65" stroke="none" /><text fill="#e1ed5e" style="font-size:6.75px; font-family:Arial;" text-anchor="middle"><textPath startOffset="22.206326154141568" xlink:href="#id65">May</textPath></text><path d="M 118.48025628344425 109.97397251340804 l 55.44076885033275 29.921917540224147 a84.0,84.0 0 0,0 -0.6976943621939617,1.2665179264087798 l -54.91749807868728 -30.871805985030733" fill="#4dd2ff" stroke="none" /><path d="M 116.71984013943494 112.70617746262583 l 11.026161521173972 8.379288548888463 a34.848780252302035,34.848780252302035 0 0,0 -0.36706250571784815,0.4744777691640317 l -10.880292198238054 -8.567844312165747" fill="#ff9d0e" stroke="none" /><path d="M 116.498646956653 112.99209946851258 l 21.951426895221207 17.285970325190362 a48.94047087684105,48.94047087684105 0 0,0 -0.526883992421659,0.6573687926633859 l -21.650624990744696 -17.661266951431998" fill="#b0ff20" stroke="none" /><path d="M 115.32070863581623 114.36230785411682 l 20.820494936950904 19.518050050276813 a49.53852286269752,49.53852286269752 0 0,0 -0.5885493766003055,0.6170916683760208 l -20.481439008971634 -19.873548835235344" fill="#a9ff21" stroke="none" /><path d="M 114.81725581225074 114.88116024355365 l 19.253507091946155 19.336544358555276 a48.28735023907592,48.28735023907592 0 0,0 -0.5940494873291413,0.5814024541948603 l -18.91780765224122 -19.66509691567271" fill="#b7ff1f" stroke="none" /><path d="M 113.20401910651253 116.32954008644616 l 17.896772734591227 22.13311457898312 a49.46347194704123,49.46347194704123 0 0,0 -0.6666792913712151,0.5296503493546862 l -17.51313595050266 -22.437898842342932" fill="#a9ff21" stroke="none" /><path d="M 111.1453310114006 117.79835938074945 l 16.26542155476604 25.974806671509903 a51.6472595834695,51.6472595834695 0 0,0 -0.7575442961049529,0.46534557951909544 l -15.815898058728779 -26.250940717857375" fill="#91ff24" stroke="none" /><line stroke="#e1ed5e" stroke-width="0.3" x1="143.8653032363475" x2="146.44561519142675" y1="172.8068346515853" y2="177.08958963109032" /><path d="M 144.38136562736335 173.6633856474863 a86.0,86.0 0 0,1 -40.68145358897372,12.25698825130547" fill="none" id="id66" stroke="none" /><text fill="#e1ed5e" style="font-size:6.75px; font-family:Arial;" text-anchor="middle"><textPath startOffset="21.466115282336833" xlink:href="#id66">June</textPath></text><path d="M 110.21172684928248 118.3499491758327 l 13.814306648050872 24.8236002228078 a49.40855850246834,49.40855850246834 0 0,0 -0.7467213984350843,0.4071720443774486 l -13.38496243774714 -25.057712918945022" fill="#aaff21" stroke="none" /><path d="M 109.57404056367764 118.69057910512821 l 12.905757866152642 25.194805338938245 a49.30789293053709,49.30789293053709 0 0,0 -0.7587453771857096,0.38045068341656596 l -12.470158581284172 -25.413223863264115" fill="#abff21" stroke="none" /><path d="M 108.92500713936063 119.00905698771935 l 8.28985259275647 17.65626378723431 a40.50551990934958,40.50551990934958 0 0,0 -0.6336837923000624,0.29089314881764233 l -7.9847008046889885 -17.796344006386025" fill="#ffe815" stroke="none" /><path d="M 107.2578585660854 119.70592522655815 l 5.1674130068164335 14.03012381680936 a35.9514725528296,35.9514725528296 0 0,0 -0.5825515655373755,0.2088822652097677 l -4.925141880649323 -14.116993623059086" fill="#ffac0f" stroke="none" /><path d="M 106.57524785965236 119.94407469862006 l 3.9849970863806905 12.087313096173043 a33.72726756469663,33.72726756469663 0 0,0 -0.5529323005205576,0.17703146160013908 l -3.7763434407691925 -12.154117404432888" fill="#ff8e0d" stroke="none" /><path d="M 104.83641907484287 120.43548508189849 l 7.232573992789679 30.56003949330685 a52.4042376184115,52.4042376184115 0 0,0 -0.8795922784246973,0.2001923388628647 l -6.70546156497212 -30.680008565747396" fill="#88ff25" stroke="none" /><path d="M 104.13013068566511 120.58985236759428 l 2.129484194213808 10.616072108848279 a31.82754311714679,31.82754311714679 0 0,0 -0.5380861216763122,0.10312548587502844 l -1.9464304579657912 -10.651154793071775" fill="#ff740a" stroke="none" /><line stroke="#e1ed5e" stroke-width="0.3" x1="102.19456741930631" x2="102.32365962044197" y1="184.97166512339345" y2="189.96999836594603" /><path d="M 102.22038585953345 185.97133177190398 a86.0,86.0 0 0,1 -42.740103519485714,-10.115201625700543" fill="none" id="id67" stroke="none" /><text fill="#e1ed5e" style="font-size:6.75px; font-family:Arial;" text-anchor="middle"><textPath startOffset="22.20632615414155" xlink:href="#id67">July</textPath></text><line stroke="#e1ed5e" stroke-width="0.3" x1="58.666819895761336" x2="56.23545636021788" y1="174.27360380694188" y2="178.64263932499728" /><path d="M 58.180547188652646 175.14741091055294 a86.0,86.0 0 0,1 -31.652253787137756,-30.449443065178592" fill="none" id="id68" stroke="none" /><text fill="#e1ed5e" style="font-size:6.75px; font-family:Arial;" text-anchor="middle"><textPath startOffset="22.20632615414155" xlink:href="#id68">August</textPath></text><line stroke="#e1ed5e" stroke-width="0.3" x1="26.63291911575756" x2="22.317208475507996" y1="142.92168965132927" y2="145.44649492493687" /><path d="M 25.769776987707644 143.4266507060508 a86.0,86.0 0 0,1 -11.730757126820373,-40.83630448921669" fill="none" id="id69" stroke="none" /><text fill="#e1ed5e" style="font-size:6.75px; font-family:Arial;" text-anchor="middle"><textPath startOffset="21.46611528233685" xlink:href="#id69">September</textPath></text><line stroke="#e1ed5e" stroke-width="0.3" x1="15.007084014347285" x2="10.007500721073583" y1="101.09737516637583" y2="101.16192664675087" /><path d="M 14.007167355692545 101.11028546245083 a86.0,86.0 0 0,1 10.666146001902534,-42.60595125391555" fill="none" id="id70" stroke="none" /><text fill="#e1ed5e" style="font-size:6.75px; font-family:Arial;" text-anchor="middle"><textPath startOffset="22.20632615414155" xlink:href="#id70">October</textPath></text><line stroke="#e1ed5e" stroke-width="0.3" x1="26.266209847984243" x2="21.928928074336255" y1="57.711370442889674" y2="55.22380399835377" /><path d="M 25.398753493254645 57.213857153982495 a86.0,86.0 0 0,1 29.58750427330803,-30.492523968695096" fill="none" id="id71" stroke="none" /><text fill="#e1ed5e" style="font-size:6.75px; font-family:Arial;" text-anchor="middle"><textPath startOffset="21.46611528233685" xlink:href="#id71">November</textPath></text><line stroke="#e1ed5e" stroke-width="0.3" x1="56.762969772571076" x2="54.21961505331055" y1="26.818313649435495" y2="22.513508569990535" /><path d="M 56.25429882871897 25.957352633546506 a86.0,86.0 0 0,1 42.265352541879196,-11.944610805530505" fill="none" id="id72" stroke="none" /><text fill="#e1ed5e" style="font-size:6.75px; font-family:Arial;" text-anchor="middle"><textPath startOffset="22.20632615414155" xlink:href="#id72">December</textPath></text></svg>