<?xml version="1.0" encoding="utf-8" ?>
<svg baseProfile="full" height="200mm" version="1.1" viewBox="0,0,200,200" width="200mm" xmlns="http://www.w3.org/2000/svg" xmlns:ev="http://www.w3.org/2001/xml-events" xmlns:xlink="http://www.w3.org/1999/xlink"><defs /><rect fill="#1a1a1a" height="200" width="200" x="0" y="0" /><text alignment-baseline="middle" fill="#e1ed5e" style="dominant-baseline: central; font-size:9.0px; font-family:Arial;" text-anchor="middle" x="100.0" y="100.0">2025</text><line stroke="#e1ed5e" stroke-width="0.3" x1="100.0" x2="100.0" y1="15.0" y2="10.0" /><path d="M 100.0 14.0 a86.0,86.0 0 0,1 42.46469731375804,11.215312516191453" fill="none" id="id61" stroke="none" /><text fill="#e1ed5e" style="font-size:6.75px; font-family:Arial;" text-anchor="middle"><textPath startOffset="22.20632615414155" xlink:href="#id61">January</textPath></text><path d="M 101.80526077348638 79.07773832637324 l 0.32036934211541956 -3.7129545528215893 a24.726750330607892,24.726750330607892 0 0,0 0.4237398158427989,0.04023920135512675 l -0.3842342850484627 3.7068898069512843" fill="#ff0901" stroke="none" /><path d="M 102.16513564639614 79.11191278185805 l 0.3673251375232057 -3.543759266433004 a24.562745780305722,24.562745780305722 0 0,0 0.4201788636910386,0.0472119911221935 l -0.42827070472396955 3.53691132184021" fill="#ff0601" stroke="none" /><path d="M 104.66035177308747 79.52364482259891 l 0.6976525066959279 -3.0653009071128494 a24.143690295058654,24.143690295058654 0 0,0 0.40443706452925887,0.09571718633659382 l -0.7503132581877103 3.052837808635387" fill="#ff0000" stroke="none" /><path d="M 105.71112130821622 79.79150937346287 l 0.9033508571400727 -3.1964576383146768 a24.321653835762532,24.321653835762532 0 0,0 0.40189770486448234,0.11732496081064617 l -0.9582387797279821 3.1804343485853273" fill="#ff0300" stroke="none" /><line stroke="#e1ed5e" stroke-width="0.3" x1="143.23703022742887" x2="145.7803849466894" y1="26.81831364943548" y2="22.513508569990506" /><path d="M 143.74570117128098 25.957352633546492 a86.0,86.0 0 0,1 28.547481713284135,27.462654790039103" fill="none" id="id62" stroke="none" /><text fill="#e1ed5e" style="font-size:6.75px; font-family:Arial;" text-anchor="middle"><textPath startOffset="19.985693538727396" xlink:href="#id62">February</textPath></text><path d="M 111.60114157652 82.49532879139004 l 11.122930890725462 -16.78311111316042 a41.134358947742626,41.134358947742626 0 0,0 0.5868409923495215,0.3962376576361402 l -11.410176577481526 16.58916154322561" fill="#ffed16" stroke="none" /><path d="M 111.90073688211348 82.69761687909136 l 17.15079878276512 -24.935404782793196 a51.26424145040882,51.26424145040882 0 0,0 0.7227497879205288,0.5063324143344817 l -17.577479710269298 24.636487525694776" fill="#97ff23" stroke="none" /><path d="M 112.48926042617603 83.11751280151076 l 1.8632610862108785 -2.518682480947328 a24.132970366157128,24.132970366157128 0 0,0 0.3318327625934684,0.2499295571707701 l -1.9063400025627297 2.4862363342707106" fill="#ff0000" stroke="none" /><path d="M 113.06298171725822 83.55741782278167 l 18.616826578810098 -23.433294750515522 a50.92833999289016,50.92833999289016 0 0,0 0.6817039661311205,0.5512238646115863 l -19.01743394350571 23.109364788639805" fill="#9aff22" stroke="none" /><path d="M 114.68862486808459 84.99185889309783 l 20.924933546898103 -21.380105908127092 a50.91591169569854,50.91591169569854 0 0,0 0.6210873227752324,0.6184201764303343 l -21.28985666984066 21.01674988104664" fill="#9bff22" stroke="none" /><path d="M 114.94478906791727 85.2469230424477 l 13.787401486929278 -13.61053637203899 a40.3736713117668,40.3736713117668 0 0,0 0.4839759940322037,0.4987798045411186 l -14.019641744664591 13.371192371947757" fill="#ffe315" stroke="none" /><path d="M 115.4437574822437 85.77008943001954 l 2.8061989220344965 -2.585637578681085 a24.81579271951653,24.81579271951653 0 0,0 0.28674809126404616,0.31663440432814627 l -2.8502906539145783 2.5369503870833894" fill="#ff0a01" stroke="none" /><path d="M 115.68641384162765 86.03803664274999 l 22.430706336212147 -19.964837285647807 a51.028841379310336,51.028841379310336 0 0,0 0.57834664002244,0.6611501868713169 l -22.771044839812433 19.57577154257354" fill="#99ff23" stroke="none" /><path d="M 116.15771136456269 86.58626213691792 l 23.359793222683635 -19.39273055168602 a51.36046669036615,51.36046669036615 0 0,0 0.5588544803051447,0.6850895131565424 l -23.690146195065186 18.98775686892138" fill="#96ff23" stroke="none" /><path d="M 116.60985879189232 87.15038557335679 l 23.687786683135563 -18.32519645786757 a50.94869050835406,50.94869050835406 0 0,0 0.5306525918215417,0.6982766084395134 l -23.99971521518122 17.91473507354702" fill="#9aff22" stroke="none" /><path d="M 117.04232023915458 87.72973835380427 l 26.13290347586442 -18.81537013293099 a53.20165830074654,53.20165830074654 0 0,0 0.5286911758510382,0.7477961747039743 l -26.45290727151934 18.362747457895225" fill="#81ff25" stroke="none" /><path d="M 117.45458315368197 88.32363383020206 l 29.049958719785025 -19.43317421236566 a55.95065609669392,55.95065609669392 0 0,0 0.5286094487388431,0.805108456238968 l -29.380164803881794 18.93024769214902" fill="#63ff29" stroke="none" /><line stroke="#e1ed5e" stroke-width="0.3" x1="172.23445277983987" x2="176.4835382374775" y1="55.19839476539836" y2="52.563006222186495" /><path d="M 173.08426987136738 54.67131705675599 a86.0,86.0 0 0,1 12.851231095245387,41.99856678651699" fill="none" id="id63" stroke="none" /><text fill="#e1ed5e" style="font-size:6.75px; font-family:Arial;" text-anchor="middle"><textPath startOffset="22.20632615414155" xlink:href="#id63">March</textPath></text><path d="M 117.84615892207809 88.93136811851018 l 25.464429764572024 -15.793673045655002 a50.96460063988624,50.96460063988624 0 0,0 0.4559734908041156,0.7495005287251366 l -25.732519053662365 15.353004743722783" fill="#9aff23" stroke="none" /><path d="M 118.56541770881063 90.18545643968196 l 26.523254004428484 -14.02142606596488 a51.00138983291859,51.00138983291859 0 0,0 0.40361666123593426,0.7796589209047992 l -26.760680098824533 13.562794422799735" fill="#9aff23" stroke="none" /><path d="M 119.7369772167798 92.82701384747503 l 3.293688515440385 -1.1970212992848073 a24.50446059011731,24.50446059011731 0 0,0 0.14066367764552754,0.39767515867845055 l -3.313805273895722 1.140148514179742" fill="#ff0600" stroke="none" /><path d="M 119.97218684219823 93.5106431181261 l 27.05183505054521 -8.78967402716584 a49.44398265197299,49.44398265197299 0 0,0 0.2560362844791433,0.811704990022986 l -27.19912681879256 8.322718870716434" fill="#acff21" stroke="none" /><path d="M 120.53481517161879 95.60439243477599 l 19.18013932772267 -4.105630599856152 a40.614636046924986,40.614636046924986 0 0,0 0.1404506412325638,0.6848872066799596 l -19.247969264870232 3.7748677370127806" fill="#ffe715" stroke="none" /><path d="M 120.67395015179393 96.31383870115 l 13.812219794996548 -2.4627161082280202 a35.030052968361176,35.030052968361176 0 0,0 0.10073331855272939,0.5945337482844234 l -13.8525649750695 2.224596571627759" fill="#ff9d0e" stroke="none" /><path d="M 120.94382443527127 98.46500227214037 l 30.557568472296076 -2.2396004282243744 a51.63953003910416,51.63953003910416 0 0,0 0.057343015301030524,0.8870710660876157 l -30.591592078601522 1.7132702978837235" fill="#92ff23" stroke="none" /><line stroke="#e1ed5e" stroke-width="0.3" x1="184.98032266829074" x2="189.97916517819016" y1="98.17113171792111" y2="98.06355123074" /><path d="M 185.9800911702706 98.14961562048488 a86.0,86.0 0 0,1 -9.607161424134198,41.387399972396054" fill="none" id="id64" stroke="none" /><text fill="#e1ed5e" style="font-size:6.75px; font-family:Arial;" text-anchor="middle"><textPath startOffset="21.466115282336823" xlink:href="#id64">April</textPath></text><path d="M 120.9904718944345 100.63252640178507 l 62.97141568330351 1.8975792053552112 a84.0,84.0 0 0,0 -0.05599146859518722,1.4448910119439753 l -62.92942208185712 -2.9812474643131925" fill="#4dd2ff" stroke="none" /><path d="M 120.89721153311464 102.0752229133903 l 30.631395644723366 3.041887861943816 a51.78206427301812,51.78206427301812 0 0,0 -0.09571716945729383,0.886222112386707 l -30.57449617376502 -3.5687062962153147" fill="#91ff24" stroke="none" /><path d="M 120.76222939487914 103.15116336523771 l 30.683882524734383 4.657010799574744 a52.03527664415215,52.03527664415215 0 0,0 -0.14202717945561066,0.8844033820456174 l -30.599173590917484 -5.184493411313566" fill="#8eff24" stroke="none" /><path d="M 120.64145759157962 103.86396538481128 l 30.567211766149946 5.722011037766101 a52.09816466405972,52.09816466405972 0 0,0 -0.1725939432154058,0.8800527980728112 l -30.464187889958875 -6.2473275629068565" fill="#8dff24" stroke="none" /><path d="M 120.41448212921028 104.9243191809786 l 5.935040775862107 1.4316324532499163 a27.105266619267685,27.105266619267685 0 0,0 -0.11331122534226043,0.4526220194803924 l -5.909518236224786 -1.5335823121277048" fill="#ff2c04" stroke="none" /><path d="M 120.32669344350535 105.2749913415812 l 29.158161216761755 7.566850377427778 a51.124003554923576,51.124003554923576 0 0,0 -0.2283829104093905,0.8498977701613963 l -29.023590230010587 -8.067639080764723" fill="#98ff23" stroke="none" /><path d="M 120.13307415673323 105.97154293290107 l 29.601247396290784 8.779837511066834 a51.875870742979025,51.875870742979025 0 0,0 -0.26128944178759883,0.8539090138677964 l -29.445731181997054 -9.288073497486687" fill="#90ff24" stroke="none" /><line stroke="#e1ed5e" stroke-width="0.3" x1="174.80103733775053" x2="179.2010983576182" y1="140.37084112569926" y2="142.7455964860345" /><path d="M 175.68104954172406 140.8457921977663 a86.0,86.0 0 0,1 -30.038265399797805,32.042727171017184" fill="none" id="id65" stroke="none" /><text fill="#e1ed5e" style="font-size:6.75px; font-family:Arial;" text-anchor="middle"><textPath startOffset="22.206326154141568" xlink:href="#id65">May</textPath></text><line stroke="#e1ed5e" stroke-width="0.3" x1="143.8653032363475" x2="146.44561519142675" y1="172.8068346515853" y2="177.08958963109032" /><path d="M 144.38136562736335 173.6633856474863 a86.0,86.0 0 0,1 -40.68145358897372,12.25698825130547" fill="none" id="id66" stroke="none" /><text fill="#e1ed5e" style="font-size:6.75px; font-family:Arial;" text-anchor="middle"><textPath startOffset="21.466115282336833" xlink:href="#id66">June</textPath></text><line stroke="#e1ed5e" stroke-width="0.3" x1="102.19456741930631" x2="102.32365962044197" y1="184.97166512339345" y2="189.96999836594603" /><path d="M 102.22038585953345 185.97133177190398 a86.0,86.0 0 0,1 -42.740103519485714,-10.115201625700543" fill="none" id="id67" stroke="none" /><text fill="#e1ed5e" style="font-size:6.75px; font-family:Arial;" text-anchor="middle"><textPath startOffset="22.20632615414155" xlink:href="#id67">July</textPath></text><line stroke="#e1ed5e" stroke-width="0.3" x1="58.666819895761336" x2="56.23545636021788" y1="174.27360380694188" y2="178.64263932499728" /><path d="M 58.180547188652646 175.14741091055294 a86.0,86.0 0 0,1 -31.652253787137756,-30.449443065178592" fill="none" id="id68" stroke="none" /><text fill="#e1ed5e" style="font-size:6.75px; font-family:Arial;" text-anchor="middle"><textPath startOffset="22.20632615414155" xlink:href="#id68">August</textPath></text><line stroke="#e1ed5e" stroke-width="0.3" x1="26.63291911575756" x2="22.317208475507996" y1="142.92168965132927" y2="145.44649492493687" /><path d="M 25.769776987707644 143.4266507060508 a86.0,86.0 0 0,1 -11.730757126820373,-40.83630448921669" fill="none" id="id69" stroke="none" /><text fill="#e1ed5e" style="font-size:6.75px; font-family:Arial;" text-anchor="middle"><textPath startOffset="21.46611528233685" xlink:href="#id69">September</textPath></text><line stroke="#e1ed5e" stroke-width="0.3" x1="15.007084014347285" x2="10.007500721073583" y1="101.09737516637583" y2="101.16192664675087" /><path d="M 14.007167355692545 101.11028546245083 a86.0,86.0 0 0,1 10.666146001902534,-42.60595125391555" fill="none" id="id70" stroke="none" /><text fill="#e1ed5e" style="font-size:6.75px; font-family:Arial;" text-anchor="middle"><textPath startOffset="22.20632615414155" xlink:href="#id70">October</textPath></text><line stroke="#e1ed5e" stroke-width="0.3" x1="26.266209847984243" x2="21.928928074336255" y1="57.711370442889674" y2="55.22380399835377" /><path d="M 25.398753493254645 57.213857153982495 a86.0,86.0 0 0,1 29.58750427330803,-30.492523968695096" fill="none" id="id71" stroke="none" /><text fill="#e1ed5e" style="font-size:6.75px; font-family:Arial;" text-anchor="middle"><textPath startOffset="21.46611528233685" xlink:href="#id71">November</textPath></text><line stroke="#e1ed5e" stroke-width="0.3" x1="56.762969772571076" x2="54.21961505331055" y1="26.818313649435495" y2="22.513508569990535" /><path d="M 56.25429882871897 25.957352633546506 a86.0,86.0 0 0,1 42.265352541879196,-11.944610805530505" fill="none" id="id72" stroke="none" /><text fill="#e1ed5e" style="font-size:6.75px; font-family:Arial;" text-anchor="middle"><textPath startOffset="22.20632615414155" xlink:href="#id72">December</textPath></text></svg>