<?xml version="1.0" encoding="utf-8" ?>
<svg baseProfile="full" height="200mm" version="1.1" viewBox="0,0,200,200" width="200mm" xmlns="http://www.w3.org/2000/svg" xmlns:ev="http://www.w3.org/2001/xml-events" xmlns:xlink="http://www.w3.org/1999/xlink"><defs /><rect fill="#1a1a1a" height="200" width="200" x="0" y="0" /><text alignment-baseline="middle" fill="#e1ed5e" style="dominant-baseline: central; font-size:9.0px; font-family:Arial;" text-anchor="middle" x="100.0" y="100.0">2025</text><line stroke="#e1ed5e" stroke-width="0.3" x1="100.0" x2="100.0" y1="15.0" y2="10.0" /><path d="M 100.0 14.0 a86.0,86.0 0 0,1 42.46469731375804,11.215312516191453" fill="none" id="id61" stroke="none" /><text fill="#e1ed5e" style="font-size:6.75px; font-family:Arial;" text-anchor="middle"><textPath startOffset="22.20632615414155" xlink:href="#id61">January</textPath></text><path d="M 101.80526077348638 79.07773832637324 l 0.5774789605503464 -6.692753812134787 a27.717621270935346,27.717621270935346 0 0,0 0.4749940682018382,0.04510641020327283 l -0.6925981558424288 6.6818218574163355" fill="red" stroke="none" /><path d="M 102.16513564639614 79.11191278185805 l 0.6621187196011175 -6.387772325864802 a27.421996300678664,27.421996300678664 0 0,0 0.46909019654461503,0.052707749267124085 l -0.7719756196554577 6.375428623127077" fill="red" stroke="none" /><path d="M 104.66035177308747 79.52364482259891 l 1.2575474348820892 -5.525331387595234 a26.666631494435084,26.666631494435084 0 0,0 0.4466994908686393,0.10571933720689418 l -1.352470612713252 5.502866138247471" fill="red" stroke="none" /><path d="M 105.71112130821622 79.79150937346287 l 1.6283272005645681 -5.761746808320241 a26.987418120967245,26.987418120967245 0 0,0 0.44594752792208003,0.13018431208684023 l -1.7272649462100753 5.732864167314698" fill="red" stroke="none" /><line stroke="#e1ed5e" stroke-width="0.3" x1="143.23703022742887" x2="145.7803849466894" y1="26.81831364943548" y2="22.513508569990506" /><path d="M 143.74570117128098 25.957352633546492 a86.0,86.0 0 0,1 28.547481713284135,27.462654790039103" fill="none" id="id62" stroke="none" /><text fill="#e1ed5e" style="font-size:6.75px; font-family:Arial;" text-anchor="middle"><textPath startOffset="19.985693538727396" xlink:href="#id62">February</textPath></text><path d="M 111.60114157652 82.49532879139004 l 20.049541965021636 -30.25225040708528 a57.29301293224572,57.29301293224572 0 0,0 0.8173675103717194,0.551890191652931 l -20.567314169799896 29.90264830313368" fill="red" stroke="none" /><path d="M 111.90073688211348 82.69761687909136 l 30.915022605724705 -44.94709618525788 a75.55254419547536,75.55254419547536 0 0,0 1.065178841024297,0.7462258492328203 l -31.68413258633265 44.40828549326112" fill="red" stroke="none" /><path d="M 112.48926042617603 83.11751280151076 l 3.3586050031944663 -4.540029115925277 a26.647308380187162,26.647308380187162 0 0,0 0.36640537079835794,0.275968928905358 l -3.436256527751207 4.481543597514071" fill="red" stroke="none" /><path d="M 113.06298171725822 83.55741782278167 l 33.55759820989398 -42.239480861194046 a74.94706795591266,74.94706795591266 0 0,0 1.0032079090458657,0.8111910273480895 l -34.279709517504344 41.655583736581825" fill="red" stroke="none" /><path d="M 114.68862486808459 84.99185889309783 l 37.71805627360682 -38.53852323932249 a74.92466543731885,74.92466543731885 0 0,0 0.9139531890229452,0.9100283835759136 l -38.375845262797085 37.88355900509646" fill="red" stroke="none" /><path d="M 114.94478906791727 85.2469230424477 l 24.852360175256003 -24.53355350658399 a55.921842075427094,55.921842075427094 0 0,0 0.6703583852350522,0.6908632421503759 l -25.270982824194164 24.1021260688835" fill="red" stroke="none" /><path d="M 115.4437574822437 85.77008943001954 l 5.058289366559171 -4.66071844277387 a27.87812385165156,27.87812385165156 0 0,0 0.32213352572842996,0.3557078848668733 l -5.137766532903636 4.572957770637448" fill="red" stroke="none" /><path d="M 115.68641384162765 86.03803664274999 l 40.43227386838778 -35.987443140296 a75.12822585254713,75.12822585254713 0 0,0 0.8514823346603462,0.9733915021214098 l -41.045748066625976 35.28613608197165" fill="red" stroke="none" /><path d="M 116.15771136456269 86.58626213691792 l 42.10699132392763 -34.95619714194114 a75.7259941616374,75.7259941616374 0 0,0 0.823976374045105,1.0100976065161509 l -42.702466190049144 34.22621536581689" fill="red" stroke="none" /><path d="M 116.60985879189232 87.15038557335679 l 42.69821307242081 -33.03192288155252 a74.9837505998859,74.9837505998859 0 0,0 0.7809881118299813,1.027688808770802 l -43.26047712447491 32.29204929690068" fill="red" stroke="none" /><path d="M 117.04232023915458 87.72973835380427 l 47.105636999335 -33.91548115993106 a79.04481802385772,79.04481802385772 0 0,0 0.785507428165604,1.1110445507970779 l -47.68245704730448 33.099610108802196" fill="red" stroke="none" /><path d="M 117.45458315368197 88.32363383020206 l 52.36374946104589 -35.02909850939381 a84.0,84.0 0 0,0 0.7936134585683003,1.208727744089304 l -52.95895955497212 34.12255270132683" fill="red" stroke="none" /><line stroke="#e1ed5e" stroke-width="0.3" x1="172.23445277983987" x2="176.4835382374775" y1="55.19839476539836" y2="52.563006222186495" /><path d="M 173.08426987136738 54.67131705675599 a86.0,86.0 0 0,1 12.851231095245387,41.99856678651699" fill="none" id="id63" stroke="none" /><text fill="#e1ed5e" style="font-size:6.75px; font-family:Arial;" text-anchor="middle"><textPath startOffset="22.20632615414155" xlink:href="#id63">March</textPath></text><path d="M 117.84615892207809 88.93136811851018 l 45.9006855473534 -28.46874745708665 a75.01242926857108,75.01242926857108 0 0,0 0.6711262091303128,1.1031550270551955 l -46.38392755476993 27.67442465682437" fill="red" stroke="none" /><path d="M 118.56541770881063 90.18545643968196 l 47.80925993652679 -25.274199136975454 a75.07874330727256,75.07874330727256 0 0,0 0.594160900374369,1.1477297419070507 l -48.237230270061275 24.44749667280806" fill="red" stroke="none" /><line stroke="#e1ed5e" stroke-width="0.3" x1="184.98032266829074" x2="189.97916517819016" y1="98.17113171792111" y2="98.06355123074" /><path d="M 185.9800911702706 98.14961562048488 a86.0,86.0 0 0,1 -9.607161424134198,41.387399972396054" fill="none" id="id64" stroke="none" /><text fill="#e1ed5e" style="font-size:6.75px; font-family:Arial;" text-anchor="middle"><textPath startOffset="21.466115282336823" xlink:href="#id64">April</textPath></text><line stroke="#e1ed5e" stroke-width="0.3" x1="174.80103733775053" x2="179.2010983576182" y1="140.37084112569926" y2="142.7455964860345" /><path d="M 175.68104954172406 140.8457921977663 a86.0,86.0 0 0,1 -30.038265399797805,32.042727171017184" fill="none" id="id65" stroke="none" /><text fill="#e1ed5e" style="font-size:6.75px; font-family:Arial;" text-anchor="middle"><textPath startOffset="22.206326154141568" xlink:href="#id65">May</textPath></text><line stroke="#e1ed5e" stroke-width="0.3" x1="143.8653032363475" x2="146.44561519142675" y1="172.8068346515853" y2="177.08958963109032" /><path d="M 144.38136562736335 173.6633856474863 a86.0,86.0 0 0,1 -40.68145358897372,12.25698825130547" fill="none" id="id66" stroke="none" /><text fill="#e1ed5e" style="font-size:6.75px; font-family:Arial;" text-anchor="middle"><textPath startOffset="21.466115282336833" xlink:href="#id66">June</textPath></text><line stroke="#e1ed5e" stroke-width="0.3" x1="102.19456741930631" x2="102.32365962044197" y1="184.97166512339345" y2="189.96999836594603" /><path d="M 102.22038585953345 185.97133177190398 a86.0,86.0 0 0,1 -42.740103519485714,-10.115201625700543" fill="none" id="id67" stroke="none" /><text fill="#e1ed5e" style="font-size:6.75px; font-family:Arial;" text-anchor="middle"><textPath startOffset="22.20632615414155" xlink:href="#id67">July</textPath></text><line stroke="#e1ed5e" stroke-width="0.3" x1="58.666819895761336" x2="56.23545636021788" y1="174.27360380694188" y2="178.64263932499728" /><path d="M 58.180547188652646 175.14741091055294 a86.0,86.0 0 0,1 -31.652253787137756,-30.449443065178592" fill="none" id="id68" stroke="none" /><text fill="#e1ed5e" style="font-size:6.75px; font-family:Arial;" text-anchor="middle"><textPath startOffset="22.20632615414155" xlink:href="#id68">August</textPath></text><line stroke="#e1ed5e" stroke-width="0.3" x1="26.63291911575756" x2="22.317208475507996" y1="142.92168965132927" y2="145.44649492493687" /><path d="M 25.769776987707644 143.4266507060508 a86.0,86.0 0 0,1 -11.730757126820373,-40.83630448921669" fill="none" id="id69" stroke="none" /><text fill="#e1ed5e" style="font-size:6.75px; font-family:Arial;" text-anchor="middle"><textPath startOffset="21.46611528233685" xlink:href="#id69">September</textPath></text><line stroke="#e1ed5e" stroke-width="0.3" x1="15.007084014347285" x2="10.007500721073583" y1="101.09737516637583" y2="101.16192664675087" /><path d="M 14.007167355692545 101.11028546245083 a86.0,86.0 0 0,1 10.666146001902534,-42.60595125391555" fill="none" id="id70" stroke="none" /><text fill="#e1ed5e" style="font-size:6.75px; font-family:Arial;" text-anchor="middle"><textPath startOffset="22.20632615414155" xlink:href="#id70">October</textPath></text><line stroke="#e1ed5e" stroke-width="0.3" x1="26.266209847984243" x2="21.928928074336255" y1="57.711370442889674" y2="55.22380399835377" /><path d="M 25.398753493254645 57.213857153982495 a86.0,86.0 0 0,1 29.58750427330803,-30.492523968695096" fill="none" id="id71" stroke="none" /><text fill="#e1ed5e" style="font-size:6.75px; font-family:Arial;" text-anchor="middle"><textPath startOffset="21.46611528233685" xlink:href="#id71">November</textPath></text><line stroke="#e1ed5e" stroke-width="0.3" x1="56.762969772571076" x2="54.21961505331055" y1="26.818313649435495" y2="22.513508569990535" /><path d="M 56.25429882871897 25.957352633546506 a86.0,86.0 0 0,1 42.265352541879196,-11.944610805530505" fill="none" id="id72" stroke="none" /><text fill="#e1ed5e" style="font-size:6.75px; font-family:Arial;" text-anchor="middle"><textPath startOffset="22.20632615414155" xlink:href="#id72">December</textPath></text></svg>