<?xml version="1.0" encoding="utf-8" ?>
<svg baseProfile="full" height="200mm" version="1.1" viewBox="0,0,200,200" width="200mm" xmlns="http://www.w3.org/2000/svg" xmlns:ev="http://www.w3.org/2001/xml-events" xmlns:xlink="http://www.w3.org/1999/xlink"><defs /><rect fill="#1a1a1a" height="200" width="200" x="0" y="0" /><text alignment-baseline="middle" fill="#e1ed5e" style="dominant-baseline: central; font-size:9.0px; font-family:Arial;" text-anchor="middle" x="100.0" y="100.0">2023</text><line stroke="#e1ed5e" stroke-width="0.3" x1="100.0" x2="100.0" y1="15.0" y2="10.0" /><path d="M 100.0 14.0 a86.0,86.0 0 0,1 42.46469731375804,11.215312516191453" fill="none" id="id37" stroke="none" /><text fill="#e1ed5e" style="font-size:6.75px; font-family:Arial;" text-anchor="middle"><textPath startOffset="22.20632615414155" xlink:href="#id37">January</textPath></text><path d="M 110.36928655335952 81.73862282372117 l 6.227311432716787 -10.96693415519035 a33.611623703723716,33.611623703723716 0 0,0 0.5006583676986001,0.2900136418326097 l -6.415166532880716 10.858116355967692" fill="red" stroke="none" /><line stroke="#e1ed5e" stroke-width="0.3" x1="143.23703022742887" x2="145.7803849466894" y1="26.81831364943548" y2="22.513508569990506" /><path d="M 143.74570117128098 25.957352633546492 a86.0,86.0 0 0,1 28.547481713284135,27.462654790039103" fill="none" id="id38" stroke="none" /><text fill="#e1ed5e" style="font-size:6.75px; font-family:Arial;" text-anchor="middle"><textPath startOffset="19.985693538727396" xlink:href="#id38">February</textPath></text><path d="M 111.2981086023043 82.29822771554956 l 10.246167899005352 -16.05360129919857 a40.044738677341776,40.044738677341776 0 0,0 0.57785125062315,0.3758505273835535 l -10.520986175412782 15.874851847655489" fill="red" stroke="none" /><path d="M 111.90073688211348 82.69761687909136 l 3.0849675306002005 -4.485208828558585 a26.443723257168514,26.443723257168514 0 0,0 0.3728172861864375,0.26118233415678954 l -3.161715956370289 4.4314416516378605" fill="red" stroke="none" /><path d="M 112.48926042617603 83.11751280151076 l 4.658551910430355 -6.297245818215241 a28.833097139523016,28.833097139523016 0 0,0 0.39646036657597317,0.2986057286196506 l -4.766258430764712 6.2161235000897435" fill="red" stroke="none" /><path d="M 113.34407831869373 83.78471172551755 l 6.1667942328298 -7.493686999323597 a30.704880007186816,30.704880007186816 0 0,0 0.4052202891698337,0.3393603386680817 l -6.2948720589587515 7.3864255032616954" fill="red" stroke="none" /><path d="M 113.89432698308785 84.25364557470407 l 15.09527133139025 -17.107377192101673 a43.81511715861071,43.81511715861071 0 0,0 0.5612278615647945,0.5038759154616119 l -15.387510180551036 16.84500226787076" fill="red" stroke="none" /><path d="M 114.68862486808459 84.99185889309783 l 4.084913522546826 -4.173771139671707 a26.84010993158882,26.84010993158882 0 0,0 0.3274035849545976,0.3259976099122859 l -4.156152907668746 4.102837679109302" fill="red" stroke="none" /><path d="M 115.4437574822437 85.77008943001954 l 4.284647822988862 -3.947883500183995 a26.826147191589673,26.826147191589673 0 0,0 0.30997786732426236,0.3422853032515842 l -4.35196933092916 3.873545409662862" fill="red" stroke="none" /><path d="M 115.9244219780498 86.31012108654704 l 7.371766633949854 -6.337347298138182 a30.72136379746359,30.72136379746359 0 0,0 0.34128419586425557,0.4039728413265683 l -7.479761443301228 6.209515507182507" fill="red" stroke="none" /><path d="M 116.15771136456269 86.58626213691792 l 6.100014110096766 -5.064082925345314 a28.928121342295007,28.928121342295007 0 0,0 0.3147675880052871,0.38586784435593263 l -6.186280190178461 4.958330911381281" fill="red" stroke="none" /><path d="M 116.38621287248628 86.86637796730983 l 4.67791854114713 -3.7493723837982706 a26.995057560190496,26.995057560190496 0 0,0 0.28749211749846026,0.3650857939414112 l -4.741764739239554 3.668294195903821" fill="red" stroke="none" /><path d="M 116.60985879189232 87.15038557335679 l 5.795524322553773 -4.4834970530513685 a28.327335668442704,28.327335668442704 0 0,0 0.2950414219064792,0.38823992686219183 l -5.871841684684366 4.383072350308143" fill="red" stroke="none" /><path d="M 117.2510076193507 88.02491185347247 l 5.447005724847429 -3.781134130189616 a27.630750084040677,27.630750084040677 0 0,0 0.26785451011106054,0.39304344207742925 l -5.511284700627223 3.6868126648417805" fill="red" stroke="none" /><path d="M 117.65298651832404 88.62581576622439 l 5.438951197088653 -3.504428720317973 a27.470178574050454,27.470178574050454 0 0,0 0.25268954412867484,0.39969417528628237 l -5.498468337463284 3.410286897317485" fill="red" stroke="none" /><line stroke="#e1ed5e" stroke-width="0.3" x1="172.23445277983987" x2="176.4835382374775" y1="55.19839476539836" y2="52.563006222186495" /><path d="M 173.08426987136738 54.67131705675599 a86.0,86.0 0 0,1 12.851231095245387,41.99856678651699" fill="none" id="id39" stroke="none" /><text fill="#e1ed5e" style="font-size:6.75px; font-family:Arial;" text-anchor="middle"><textPath startOffset="22.20632615414155" xlink:href="#id39">March</textPath></text><path d="M 117.84615892207809 88.93136811851018 l 6.603963050558348 -4.09594222962793 a28.771040517304574,28.771040517304574 0 0,0 0.2574106657175465,0.4231154528623074 l -6.673489514562118 3.981659003558541" fill="red" stroke="none" /><path d="M 118.3937258080291 89.86733742301442 l 7.006174256835106 -3.8595334322687527 a28.99890467701292,28.99890467701292 0 0,0 0.2370893840275666,0.43929062096605304 l -7.071571740081137 3.7383618279702406" fill="red" stroke="none" /><path d="M 118.56541770881063 90.18545643968196 l 8.576511656546147 -4.533943085417396 a30.701195395242596,30.701195395242596 0 0,0 0.24296424120939966,0.46932958005180797 l -8.653285330915663 4.385640783105243" fill="red" stroke="none" /><path d="M 118.73160827565052 90.50648371742162 l 8.650690642660516 -4.3843257483876705 a30.698286491076107,30.698286491076107 0 0,0 0.23482725448947772,0.47339741569748645 l -8.724877910103402 4.234768744191234" fill="red" stroke="none" /><path d="M 118.89224826269711 90.83032412892265 l 5.253245325957278 -2.549752482630318 a26.83933422381109,26.83933422381109 0 0,0 0.19815327876878278,0.4173613404735201 l -5.2963567985678175 2.4589487265162577" fill="red" stroke="none" /><path d="M 119.47837535516314 92.15188598940014 l 3.019926823541156 -1.2167713981616695 a24.25583947007952,24.25583947007952 0 0,0 0.15270373480850236,0.38861434889506496 l -3.040424108231359 1.1646080443708202" fill="red" stroke="none" /><path d="M 120.28053869075195 94.5502522615342 l 9.474272162491374 -2.5459083744502067 a30.810376264958172,30.810376264958172 0 0,0 0.1332235800625888,0.5133647992997011 l -9.516692074424265 2.382447149601655" fill="red" stroke="none" /><line stroke="#e1ed5e" stroke-width="0.3" x1="184.98032266829074" x2="189.97916517819016" y1="98.17113171792111" y2="98.06355123074" /><path d="M 185.9800911702706 98.14961562048488 a86.0,86.0 0 0,1 -9.607161424134198,41.387399972396054" fill="none" id="id40" stroke="none" /><text fill="#e1ed5e" style="font-size:6.75px; font-family:Arial;" text-anchor="middle"><textPath startOffset="21.466115282336823" xlink:href="#id40">April</textPath></text><path d="M 120.99513854157772 99.54816195383933 l 7.770017065013546 -0.16721915515528388 a28.771816225082304,28.771816225082304 0 0,0 0.00639418388251692,0.49523658833880674 l -7.771744256013778 0.03344630875601442" fill="red" stroke="none" /><path d="M 120.9764740272857 100.99374915477107 l 15.796095762964203 0.7483315257230415 a36.813811729786295,36.813811729786295 0 0,0 -0.03543530822849801,0.6327212325134585 l -15.780874103848175 -1.0201244745719233" fill="red" stroke="none" /><path d="M 120.89721153311464 102.0752229133903 l 14.353256845893567 1.4253675635705736 a35.423857139318514,35.423857139318514 0 0,0 -0.06547964790970842,0.6062602166142269 l -14.326594896482806 -1.6722241020695918" fill="red" stroke="none" /><path d="M 120.8583938346157 102.4346265915055 l 14.209572967242549 1.6585651068959177 a35.3060407564498,35.3060407564498 0 0,0 -0.07565326421473856,0.6030309517021037 l -14.178918193780962 -1.9029138128854164" fill="red" stroke="none" /><path d="M 120.81339534386255 102.79330883721812 l 19.16485936753551 2.5720633347391444 a40.33668390327884,40.33668390327884 0 0,0 -0.09827927194069729,0.6873649990515842 l -19.11774604457821 -2.9015738057711378" fill="red" stroke="none" /><path d="M 120.64145759157962 103.86396538481128 l 19.0910524681057 3.5737382192655143 a40.422664317744974,40.422664317744974 0 0,0 -0.1339146412327499,0.6828278705743059 l -19.02670789389729 -3.901829816907765" fill="red" stroke="none" /><path d="M 120.32669344350535 105.2749913415812 l 37.578380621204936 9.751986123981949 a59.82313644561046,59.82313644561046 0 0,0 -0.2672439766300501,0.9945142542399484 l -37.40494856823311 -10.397391311397445" fill="red" stroke="none" /><path d="M 120.02730092923936 106.31721596034902 l 3.8376829425500016 1.210521179119109 a25.02407404164426,25.02407404164426 0 0,0 -0.13311347531404033,0.4096811515502093 l -3.816277216219714 -1.2764012306471137" fill="red" stroke="none" /><path d="M 119.26925614724726 108.34839909993367 l 21.389370379745433 9.266937917161068 a44.31054061154414,44.31054061154414 0 0,0 -0.3092430841427995,0.6972615169520515 l -21.22668621087136 -9.633747770605806" fill="red" stroke="none" /><path d="M 118.97047184881838 109.00673069616215 l 56.911415546455125 27.02019208848646 a84.0,84.0 0 0,0 -0.6313869735411428,1.3008441761388982 l -56.43787531629926 -27.995825220590632" fill="red" stroke="none" /><line stroke="#e1ed5e" stroke-width="0.3" x1="174.80103733775053" x2="179.2010983576182" y1="140.37084112569926" y2="142.7455964860345" /><path d="M 175.68104954172406 140.8457921977663 a86.0,86.0 0 0,1 -30.038265399797805,32.042727171017184" fill="none" id="id41" stroke="none" /><text fill="#e1ed5e" style="font-size:6.75px; font-family:Arial;" text-anchor="middle"><textPath startOffset="22.206326154141568" xlink:href="#id41">May</textPath></text><path d="M 118.30583269289576 110.29060199501025 l 14.328190452120378 8.054575157823786 a37.436946876024926,37.436946876024926 0 0,0 -0.3206171507524997,0.5590230272370459 l -14.187421305215498 -8.300018030919146" fill="red" stroke="none" /><path d="M 117.75023020441432 111.22182372390056 l 17.24226152525805 10.900682256488105 a41.39903076526698,41.39903076526698 0 0,0 -0.38598708974967355,0.5990605349405655 l -17.052069572131327 -11.195864391350122" fill="red" stroke="none" /><path d="M 116.498646956653 112.99209946851258 l 16.117323438351605 12.691820718838668 a41.51463935767774,41.51463935767774 0 0,0 -0.4469388736320724,0.5576249648494188 l -15.896466652664676 -12.967373517266337" fill="red" stroke="none" /><path d="M 116.0416608686014 113.55231037782055 l 18.267219360397817 15.432505931876603 a44.91345944229524,44.91345944229524 0 0,0 -0.5040091970793289,0.586276561381573 l -17.998867653747713 -15.744659592419705" fill="red" stroke="none" /><path d="M 113.48314897796784 116.09983520530334 l 12.396813731244796 14.802673950278063 a40.308033218466875,40.308033218466875 0 0,0 -0.535770291946999,0.44090247521661136 l -12.140173310753106 -15.013871544351852" fill="red" stroke="none" /><path d="M 111.45004920935366 117.60387380957326 l 10.526755625372049 16.18435643943625 a40.306630398778125,40.306630398778125 0 0,0 -0.5848649419369564,0.3732884778711425 l -10.24660888138816 -16.3631593461312" fill="red" stroke="none" /><line stroke="#e1ed5e" stroke-width="0.3" x1="143.8653032363475" x2="146.44561519142675" y1="172.8068346515853" y2="177.08958963109032" /><path d="M 144.38136562736335 173.6633856474863 a86.0,86.0 0 0,1 -40.68145358897372,12.25698825130547" fill="none" id="id42" stroke="none" /><text fill="#e1ed5e" style="font-size:6.75px; font-family:Arial;" text-anchor="middle"><textPath startOffset="21.466115282336833" xlink:href="#id42">June</textPath></text><path d="M 110.8373102113329 117.98757091392108 l 10.020498792759726 16.631842137280422 a40.41722351251887,40.41722351251887 0 0,0 -0.5990065962344276,0.35390365540021934 l -9.732724325496916 -16.801864364974392" fill="red" stroke="none" /><path d="M 110.5260780823613 118.17145234162733 l 9.810088165169276 16.935419646872532 a40.57156785809636,40.57156785809636 0 0,0 -0.607320113530135,0.3448522105437432 l -9.517119284717943 -17.101775023210905" fill="red" stroke="none" /><path d="M 110.21172684928248 118.3499491758327 l 9.468545372816786 17.014490195892964 a40.47167758831344,40.47167758831344 0 0,0 -0.6116565348541689,0.3335239116962965 l -9.174266026093967 -17.17495475934903" fill="red" stroke="none" /><path d="M 109.2508944713604 118.85261126421891 l 8.529534765556257 17.382535677766256 a40.362476853585896,40.362476853585896 0 0,0 -0.6263628521294032,0.3006922330299527 l -8.22905924542662 -17.52678218729577" fill="red" stroke="none" /><path d="M 108.2653958097858 119.30500536409082 l 4.931524811674735 11.51827633345909 a33.52959004365615,33.52959004365615 0 0,0 -0.5325273919480521,0.22259649302353607 l -4.732525960229221 -11.6014578695026" fill="red" stroke="none" /><path d="M 107.59598834532513 119.57807347666477 l 7.018136462121103 18.08870486343354 a40.402460746960884,40.402460746960884 0 0,0 -0.6505369111005499,0.24597739554748124 l -6.7057293302602785 -18.206830509087652" fill="red" stroke="none" /><path d="M 105.88484417918355 120.15858648285463 l 5.459053089739983 18.70003528951311 a40.480569305480664,40.480569305480664 0 0,0 -0.6705680170837195,0.1895092197507387 l -5.136353904551658 -18.791233302602368" fill="red" stroke="none" /><path d="M 104.48393922423573 120.51570834832081 l 4.120035068057267 18.850709970433208 a40.29569784567046,40.29569784567046 0 0,0 -0.6789029507361917,0.14227071417651732 l -3.7949406558916974 -18.91883666533627" fill="red" stroke="none" /><path d="M 103.7750983002368 120.6578951692458 l 3.4945288088008484 19.12257749515792 a40.439256715570664,40.439256715570664 0 0,0 -0.6858325177217287,0.11924077425628964 l -3.1648473196070697 -19.179896847935215" fill="red" stroke="none" /><path d="M 102.70371172650421 120.8252237178851 l 1.7212492467155944 13.257848566363295 a34.369115437378056,34.369115437378056 0 0,0 -0.5873396678312595,0.07111865426231632 l -1.4927821558329546 -13.285512749350962" fill="red" stroke="none" /><path d="M 101.98527174616119 120.90594882070398 l 1.836058990315245 19.33466053579114 a40.42164284117584,40.42164284117584 0 0,0 -0.6932421121653053,0.05981584644830245 l -1.502972560408398 -19.363400634518104" fill="red" stroke="none" /><line stroke="#e1ed5e" stroke-width="0.3" x1="102.19456741930631" x2="102.32365962044197" y1="184.97166512339345" y2="189.96999836594603" /><path d="M 102.22038585953345 185.97133177190398 a86.0,86.0 0 0,1 -42.740103519485714,-10.115201625700543" fill="none" id="id43" stroke="none" /><text fill="#e1ed5e" style="font-size:6.75px; font-family:Arial;" text-anchor="middle"><textPath startOffset="22.20632615414155" xlink:href="#id43">July</textPath></text><path d="M 98.01472825383883 120.90594882070398 l -1.1881190392054555 12.511514292470405 a33.56780079178588,33.56780079178588 0 0,0 -0.5747565223030074,-0.059575863574336876 l 1.4033081581140563 -12.489209060440308" fill="red" stroke="none" /><path d="M 95.86986931433489 120.58985236759428 l -3.2484556639638624 16.194456697420563 a37.51704852343083,37.51704852343083 0 0,0 -0.6320881956932307,-0.13246022708593072 l 3.52673532108648 -16.13614048960809" fill="red" stroke="none" /><line stroke="#e1ed5e" stroke-width="0.3" x1="58.666819895761336" x2="56.23545636021788" y1="174.27360380694188" y2="178.64263932499728" /><path d="M 58.180547188652646 175.14741091055294 a86.0,86.0 0 0,1 -31.652253787137756,-30.449443065178592" fill="none" id="id44" stroke="none" /><text fill="#e1ed5e" style="font-size:6.75px; font-family:Arial;" text-anchor="middle"><textPath startOffset="22.20632615414155" xlink:href="#id44">August</textPath></text><path d="M 89.7882731507175 118.34994917583269 l -5.628580876024614 10.114271026978418 a32.574947130986175,32.574947130986175 0 0,0 -0.487617847528666,-0.2768821398708681 l 5.801847490474487 -10.015885721312916" fill="red" stroke="none" /><path d="M 88.8546689885994 117.79835938074946 l -3.0935522995827185 4.940199221969801 a26.828862168811728,26.828862168811728 0 0,0 -0.38929726348627514,-0.24846793251946572 l 3.178131365115917 -4.886216860626532" fill="red" stroke="none" /><path d="M 87.36589467227662 116.77436683061367 l -3.507017084211103 4.656284677530611 a26.829250022700595,26.829250022700595 0 0,0 -0.3665019555989652,-0.2810180711081599 l 3.5866477683035547 -4.595227264595084" fill="red" stroke="none" /><path d="M 87.07902340077011 116.55440617244103 l -3.5892728140769554 4.598590483591759 a26.833516415478112,26.833516415478112 0 0,0 -0.36166789359270735,-0.28733084808703047 l 3.667898200387021 -4.536125721499598" fill="red" stroke="none" /><path d="M 86.79598089348748 116.32954008644616 l -3.6646059809990206 4.532054201454371 a26.82828038797843,26.82828038797843 0 0,0 -0.3565987836220698,-0.29345652179937215 l 3.7420748931657792 -4.4683025607978175" fill="red" stroke="none" /><path d="M 86.24171649860922 115.8653595955263 l -4.121963299755846 4.753240473899083 a27.291571858227996,27.291571858227996 0 0,0 -0.35226615492247937,-0.3108339244355614 l 4.203171807584913 -4.681583407691233" fill="red" stroke="none" /><path d="M 85.44109423537348 115.13401014063109 l -4.7220092497099575 4.908537566256961 a27.811102142363026,27.811102142363026 0 0,0 -0.3421428363314828,-0.33485877687173304 l 4.805802038417235 -4.826528686462659" fill="red" stroke="none" /><path d="M 84.43433777217949 114.09645910891817 l -7.221500543314809 6.539881543357965 a30.74269576135118,30.74269576135118 0 0,0 -0.35184451734258554,-0.39530104511251757 l 7.333003910305733 -6.414606328504584" fill="red" stroke="none" /><path d="M 83.50135304334701 112.99209946851258 l -4.588738597423885 3.613468937747871 a26.84069171242212,26.84069171242212 0 0,0 -0.28271323942567916,-0.3654449720858823 l 4.650258654067632 -3.5339459715487362" fill="red" stroke="none" /><path d="M 83.06392112726016 112.41649034213515 l -6.264685968185899 4.592882059949099 a28.76793768619365,28.76793768619365 0 0,0 -0.2893509414763528,-0.40188315036214084 l 6.342816702037859 -4.484365304135821" fill="red" stroke="none" /><path d="M 82.6465618267979 111.8261652097733 l -8.07110934472416 5.50036664689602 a30.76713055634969,30.76713055634969 0 0,0 -0.29448084272613884,-0.44020890419015274 l 8.16459329286103 -5.360620828500046" fill="red" stroke="none" /><path d="M 82.05923443525364 110.91462005526583 l -6.088927583994524 3.704319689340274 a28.127203061788222,28.127203061788222 0 0,0 -0.24808075810297264,-0.4157976201591286 l 6.151789217795728 -3.5989599752950343" fill="red" stroke="none" /><line stroke="#e1ed5e" stroke-width="0.3" x1="26.63291911575756" x2="22.317208475507996" y1="142.92168965132927" y2="145.44649492493687" /><path d="M 25.769776987707644 143.4266507060508 a86.0,86.0 0 0,1 -11.730757126820373,-40.83630448921669" fill="none" id="id45" stroke="none" /><text fill="#e1ed5e" style="font-size:6.75px; font-family:Arial;" text-anchor="middle"><textPath startOffset="21.46611528233685" xlink:href="#id45">September</textPath></text><path d="M 80.73074385275274 108.34839909993369 l -6.291928574010928 2.7259760544323757 a27.857062828193563,27.857062828193563 0 0,0 -0.18683999839120627,-0.44163456455352174 l 6.337919553594441 -2.6172669642126953" fill="red" stroke="none" /><path d="M 80.32549172779594 107.34259656027581 l -9.094137912136631 3.393964658657656 a30.706819276631144,30.706819276631144 0 0,0 -0.18054986677909768,-0.4967956902938314 l 9.151212039920953 -3.2369211713577073" fill="red" stroke="none" /><path d="M 79.67330655649465 105.27499134158121 l -9.397286513787565 2.4386949669094244 a30.70856461913104,30.70856461913104 0 0,0 -0.12837450132375144,-0.5127923192378805 l 9.437872329406375 -2.276574808274152" fill="red" stroke="none" /><path d="M 79.10278846688536 102.07522291339032 l -9.661430171126355 0.9594400303346885 a30.708952473019902,30.708952473019902 0 0,0 -0.047709141540018096,-0.5264664013554619 l 9.676513908943448 -0.7929922404306604" fill="red" stroke="none" /><path d="M 79.04373962182676 101.35467743843564 l -9.693568362498135 0.626622217973913 a30.713800646630716,30.713800646630716 0 0,0 -0.02956371377053797,-0.5278799691525691 l 9.702918427156204 -0.45967053248590634" fill="red" stroke="none" /><line stroke="#e1ed5e" stroke-width="0.3" x1="15.007084014347285" x2="10.007500721073583" y1="101.09737516637583" y2="101.16192664675087" /><path d="M 14.007167355692545 101.11028546245083 a86.0,86.0 0 0,1 10.666146001902534,-42.60595125391555" fill="none" id="id46" stroke="none" /><text fill="#e1ed5e" style="font-size:6.75px; font-family:Arial;" text-anchor="middle"><textPath startOffset="22.20632615414155" xlink:href="#id46">October</textPath></text><path d="M 79.00486145842228 99.54816195383935 l -8.478849842478601 -0.18247400172798098 a29.48081313392802,29.48081313392802 0 0,0 0.015285528623725729,-0.5072522792130238 l 8.47445261939923 0.3283964283659992" fill="red" stroke="none" /><path d="M 79.12142395522702 97.74499172005258 l -9.640860456130088 -1.0412692947914797 a30.69692900246508,30.69692900246508 0 0,0 0.061261783731771664,-0.5248535510729639 l 9.621508319394728 1.2070665841893053" fill="red" stroke="none" /><path d="M 79.3925641242962 95.95851677861259 l -9.531644520171271 -1.8693243367516152 a30.71321886579742,30.71321886579742 0 0,0 0.10621026565481335,-0.5179189751409675 l 9.498054958601465 2.0331189680559856" fill="red" stroke="none" /><path d="M 79.54389044137918 95.25157060432595 l -6.695147081051124 -1.5541290056606376 a27.873158764581472,27.873158764581472 0 0,0 0.11251093411234757,-0.4664304585798215 l 6.667403346677962 1.669144695899856" fill="red" stroke="none" /><path d="M 79.81627453868168 94.20196356495316 l -9.780388012972505 -2.8095430725505985 a31.175928555213687,31.175928555213687 0 0,0 0.15260483845441472,-0.5145076513393565 l 9.730577277406383 2.977480110636494" fill="red" stroke="none" /><path d="M 80.02781315780177 93.51064311812611 l -5.442137831931368 -1.7682577712087464 a26.722202349373777,26.722202349373777 0 0,0 0.1459066684646428,-0.43624236735798305 l 5.410893869694953 1.8616732414890516" fill="red" stroke="none" /><path d="M 80.65960295795068 91.81776055985345 l -5.370000709010682 -2.2718577855124695 a26.830801438256053,26.830801438256053 0 0,0 0.18361121090684562,-0.42379998992841117 l 5.3300987882611555 2.36395692002748" fill="red" stroke="none" /><line stroke="#e1ed5e" stroke-width="0.3" x1="26.266209847984243" x2="21.928928074336255" y1="57.711370442889674" y2="55.22380399835377" /><path d="M 25.398753493254645 57.213857153982495 a86.0,86.0 0 0,1 29.58750427330803,-30.492523968695096" fill="none" id="id47" stroke="none" /><text fill="#e1ed5e" style="font-size:6.75px; font-family:Arial;" text-anchor="middle"><textPath startOffset="21.46611528233685" xlink:href="#id47">November</textPath></text><path d="M 81.78341655067845 89.55222093294921 l -4.33645662624906 -2.4870931967534227 a25.999048773584484,25.999048773584484 0 0,0 0.2259940393615243,-0.3862970703130314 l 4.293002912417211 2.5613696794203458" fill="red" stroke="none" /><path d="M 82.95767976084542 87.72973835380427 l -7.873843258041729 -5.669070618408883 a30.702358956909194,30.702358956909194 0 0,0 0.31248771395801994,-0.42623289065798664 l 7.775092931570076 5.80376595273837" fill="red" stroke="none" /><path d="M 85.31137513191541 84.99185889309783 l -7.296823444525451 -7.455548553461725 a31.4321060488092,31.4321060488092 0 0,0 0.38993287210790323,-0.37511511402438924 l 7.167407328805121 7.5800467542484276" fill="red" stroke="none" /><path d="M 87.80319425747018 82.90503203632743 l -14.302115782832796 -20.04575757632344 a45.624843404056065,45.624843404056065 0 0,0 0.6432426377768016,-0.4506325746915612 l 13.954942005472335 20.288974993778943" fill="red" stroke="none" /><line stroke="#e1ed5e" stroke-width="0.3" x1="56.762969772571076" x2="54.21961505331055" y1="26.818313649435495" y2="22.513508569990535" /><path d="M 56.25429882871897 25.957352633546506 a86.0,86.0 0 0,1 42.265352541879196,-11.944610805530505" fill="none" id="id48" stroke="none" /><text fill="#e1ed5e" style="font-size:6.75px; font-family:Arial;" text-anchor="middle"><textPath startOffset="22.20632615414155" xlink:href="#id48">December</textPath></text><path d="M 89.94658935756843 81.56283822128135 l -4.310718594097205 -7.905517732107472 a30.004415883896137,30.004415883896137 0 0,0 0.45557412526690855,-0.24335192018649177 l 4.173999422301991 7.978548378795713" fill="red" stroke="none" /><path d="M 91.23893434514133 80.91482961587045 l -4.037082616432764 -8.794410705813814 a30.676760600244084,30.676760600244084 0 0,0 0.4817973425464012,-0.21616842354512797 l 3.8851031554195883 8.86259945987547" fill="red" stroke="none" /><path d="M 93.25333710446033 80.11325718540243 l -2.8058085719248935 -8.270517487060589 a29.733499942523743,29.733499942523743 0 0,0 0.48609625167251125,-0.16025829158250218 l 2.6630294980099727 8.317589502902326" fill="red" stroke="none" /><path d="M 95.33964822691252 79.52364482259891 l -0.47830833807338585 -2.101560545549666 a23.155304060424314,23.155304060424314 0 0,0 0.3894030525417317,-0.0851084248071758 l 0.4420625613781332 2.10948246845271" fill="red" stroke="none" /><path d="M 98.19473922651362 79.07773832637324 l -0.8835238678582391 -10.239693804749018 a31.27774020104082,31.27774020104082 0 0,0 0.5368002106205347,-0.04166602768864347 l 0.7071334678753701 10.253385094626124" fill="red" stroke="none" /></svg>