<?xml version="1.0" encoding="utf-8" ?>
<svg baseProfile="full" height="200mm" version="1.1" viewBox="0,0,200,200" width="200mm" xmlns="http://www.w3.org/2000/svg" xmlns:ev="http://www.w3.org/2001/xml-events" xmlns:xlink="http://www.w3.org/1999/xlink"><defs /><rect fill="#1a1a1a" height="200" width="200" x="0" y="0" /><rect fill="#1a1a1a" height="200" width="180" x="10" y="0" /><text alignment-baseline="middle" fill="#e1ed5e" style="dominant-baseline: central; font-size:9.0px; font-family:Arial;" text-anchor="middle" x="100.0" y="100.0">2022</text><line stroke="#e1ed5e" stroke-width="0.3" x1="100.0" x2="100.0" y1="15.0" y2="10.0" /><path d="M 100.0 14.0 a86.0,86.0 0 0,1 42.46469731375804,11.215312516191453" fill="none" id="id25" stroke="none" /><text fill="#e1ed5e" style="font-size:6.75px; font-family:Arial;" text-anchor="middle"><textPath startOffset="22.20632615414155" xlink:href="#id25">January</textPath></text><path d="M 103.59715602781102 79.31037775812273 l 2.9753802110053837 -17.113378490039857 a38.3701068143924,38.3701068143924 0 0,0 0.6497427231905127,0.11873632961209703 l -3.2695180552987977 17.05962667907702" fill="red" stroke="none" /><line stroke="#e1ed5e" stroke-width="0.3" x1="143.23703022742887" x2="145.7803849466894" y1="26.81831364943548" y2="22.513508569990506" /><path d="M 143.74570117128098 25.957352633546492 a86.0,86.0 0 0,1 28.547481713284135,27.462654790039103" fill="none" id="id26" stroke="none" /><text fill="#e1ed5e" style="font-size:6.75px; font-family:Arial;" text-anchor="middle"><textPath startOffset="19.985693538727396" xlink:href="#id26">February</textPath></text><path d="M 114.68862486808459 84.99185889309783 l 19.67886489623385 -20.10693198572063 a49.134435083765595,49.134435083765595 0 0,0 0.5993563451173071,0.5967825184965541 l -20.02205704151848 19.76521361657396" fill="red" stroke="none" /><path d="M 116.82858285166822 87.43820079747576 l 20.31025448857519 -15.160714415852137 a46.344697650390614,46.344697650390614 0 0,0 0.4716949809352556,0.643391423894207 l -20.568212082024072 14.808860548286438" fill="red" stroke="none" /><line stroke="#e1ed5e" stroke-width="0.3" x1="172.23445277983987" x2="176.4835382374775" y1="55.19839476539836" y2="52.563006222186495" /><path d="M 173.08426987136738 54.67131705675599 a86.0,86.0 0 0,1 12.851231095245387,41.99856678651699" fill="none" id="id27" stroke="none" /><text fill="#e1ed5e" style="font-size:6.75px; font-family:Arial;" text-anchor="middle"><textPath startOffset="22.20632615414155" xlink:href="#id27">March</textPath></text><path d="M 118.03404312379186 89.2402003453031 l 24.160838836388162 -14.415280233304445 a49.134435083765595,49.134435083765595 0 0,0 0.4270959892812925,0.7300454908807583 l -24.40539450013978 13.997255330069793" fill="red" stroke="none" /><path d="M 118.89224826269711 90.83032412892265 l 25.511921801984155 -12.38264766160069 a49.35821075353485,49.35821075353485 0 0,0 0.36440886399844263,0.7675380034275926 l -25.721288859824355 11.941667242532557" fill="red" stroke="none" /><path d="M 119.34039704204932 91.81776055985345 l 11.095504106693198 -4.694116212439106 a33.04761131500885,33.04761131500885 0 0,0 0.21713588865169223,0.5258117774342672 l -11.174661682231088 4.5024298645515355" fill="red" stroke="none" /><path d="M 119.7369772167798 92.82701384747503 l 16.05096797741939 -5.833384199216075 a38.07811301718684,38.07811301718684 0 0,0 0.21858091489513146,0.6179576808310905 l -16.14900197312433 5.55622889195837" fill="red" stroke="none" /><path d="M 119.85752413597 93.16781622104841 l 29.83975136928933 -10.266670904048643 a52.55654121149914,52.55654121149914 0 0,0 0.2869654878717136,0.8579902830797037 l -30.012054150932812 9.751507518046626" fill="red" stroke="none" /><path d="M 119.97218684219823 93.5106431181261 l 32.36814073705032 -10.517046455906351 a55.033877253836195,55.033877253836195 0 0,0 0.28498249325373043,0.9034723821032812 l -32.54437871407225 9.95832390737665" fill="red" stroke="none" /><path d="M 120.73433829027371 96.67025291283417 l 19.267575089115912 -3.0941981910186005 a40.514443683078,40.514443683078 0 0,0 0.10465094287582698,0.6895189587272894 l -19.317981925431038 2.762080119899229" fill="red" stroke="none" /><path d="M 120.83666639777658 97.38593545837742 l 28.391373753725688 -3.561840555526083 a49.613926884765995,49.613926884765995 0 0,0 0.09901438865934727,0.8482948149651507 l -28.448478495388624 3.07260200223608" fill="red" stroke="none" /><path d="M 120.94382443527127 98.46500227214037 l 17.517325938026875 -1.283865589885499 a38.5643109421338,38.5643109421338 0 0,0 0.04282366378535773,0.6624631245572504 l -17.536830192816648 0.9821434010752133" fill="red" stroke="none" /><line stroke="#e1ed5e" stroke-width="0.3" x1="184.98032266829074" x2="189.97916517819016" y1="98.17113171792111" y2="98.06355123074" /><path d="M 185.9800911702706 98.14961562048488 a86.0,86.0 0 0,1 -9.607161424134198,41.387399972396054" fill="none" id="id28" stroke="none" /><text fill="#e1ed5e" style="font-size:6.75px; font-family:Arial;" text-anchor="middle"><textPath startOffset="21.466115282336823" xlink:href="#id28">April</textPath></text><path d="M 120.99824983174949 100.27111621757518 l 11.770466590765603 0.15197287425156708 a32.77144763904752,32.77144763904752 0 0,0 -0.012137822164670098,0.5639969013358462 l -11.766106705915924 -0.3545595913775282" fill="red" stroke="none" /><path d="M 120.9764740272857 100.99374915477107 l 16.976399691100116 0.8042477883624305 a37.99543941700449,37.99543941700449 0 0,0 -0.03657268953568891,0.6530299398028969 l -16.9600406506769 -1.0963494445007507" fill="red" stroke="none" /><path d="M 120.70491114924044 103.5080841355445 l 27.739094221116172 4.699903113326889 a49.134435083765595,49.134435083765595 0 0,0 -0.14846450998662425,0.832667816172766 l -27.65408326879036 -5.176689680232873" fill="red" stroke="none" /><path d="M 120.32669344350535 105.2749913415812 l 20.277518114532743 5.262229825042826 a41.949195774940236,41.949195774940236 0 0,0 -0.18739689293154926,0.697373551953601 l -20.183933145259417 -5.610494310171974" fill="red" stroke="none" /><path d="M 120.13307415673323 105.97154293290107 l 27.778049002507228 8.239070244283898 a49.97416581846554,49.97416581846554 0 0,0 -0.25171089571108585,0.8226057710787852 l -27.63211133429001 -8.71600298791474" fill="red" stroke="none" /><path d="M 120.02730092923936 106.31721596034902 l 26.831276090320145 8.463395349836544 a49.134435083765595,49.134435083765595 0 0,0 -0.2613665305140855,0.8044034681318201 l -26.681617308789814 -8.923997717946158" fill="red" stroke="none" /><path d="M 119.9155931802556 106.66101706037122 l 17.128931271810337 5.728983434978484 a39.06160396290041,39.06160396290041 0 0,0 -0.21876203733815813,0.6358248807445009 l -17.02777840352895 -6.022981018812285" fill="red" stroke="none" /><path d="M 119.54520255179757 107.68017299344265 l 16.780455991606708 6.59378200777653 a39.02946656039293,39.02946656039293 0 0,0 -0.25108470948750505,0.6231716576408344 l -16.66446866786181 -6.881653033260178" fill="red" stroke="none" /><path d="M 119.12269723197855 108.67885076344098 l 57.368091695935625 26.036552290322952 a84.0,84.0 0 0,0 -0.6089015326406746,1.3115197308846775 l -56.911415546455125 -27.02019208848646" fill="red" stroke="none" /><line stroke="#e1ed5e" stroke-width="0.3" x1="174.80103733775053" x2="179.2010983576182" y1="140.37084112569926" y2="142.7455964860345" /><path d="M 175.68104954172406 140.8457921977663 a86.0,86.0 0 0,1 -30.038265399797805,32.042727171017184" fill="none" id="id29" stroke="none" /><text fill="#e1ed5e" style="font-size:6.75px; font-family:Arial;" text-anchor="middle"><textPath startOffset="22.206326154141568" xlink:href="#id29">May</textPath></text><path d="M 117.55443506779139 111.5257021239791 l 23.680049941999723 15.54759243794771 a49.327943728271734,49.327943728271734 0 0,0 -0.4721315955170151,0.7057726756418495 l -23.408915241071988 -15.952902027795366" fill="red" stroke="none" /><path d="M 115.32070863581623 114.36230785411682 l 20.956462293903357 19.64551184627341 a49.72489247286858,49.72489247286858 0 0,0 -0.5907635669221978,0.6194132380763085 l -20.615192175602196 -20.003332200932228" fill="red" stroke="none" /><path d="M 113.75828350139079 115.86535959552629 l 19.534113852911496 22.525756256226565 a50.81595711919104,50.81595711919104 0 0,0 -0.6657725782985633,0.5673858348536621 l -19.143475798035883 -22.858666481303175" fill="red" stroke="none" /><path d="M 112.63410532772338 116.77436683061366 l 18.679017439721356 24.800227831073254 a52.04765680347802,52.04765680347802 0 0,0 -0.7202776819803418,0.5328442097216499 l -18.249354787322453 -25.118081989534673" fill="red" stroke="none" /><path d="M 112.04921762599082 117.19931262002967 l 16.433206885910277 23.457113262750397 a49.64064334432154,49.64064334432154 0 0,0 -0.7040535172855743,0.48425442909174304 l -16.02699648400182 -23.736508481207235" fill="red" stroke="none" /><path d="M 111.1453310114006 117.79835938074945 l 11.487930980420447 18.34546896109404 a42.64552585670694,42.64552585670694 0 0,0 -0.6255099520804899,0.38423930144083634 l -11.170441828407649 -18.54049672936325" fill="red" stroke="none" /><line stroke="#e1ed5e" stroke-width="0.3" x1="143.8653032363475" x2="146.44561519142675" y1="172.8068346515853" y2="177.08958963109032" /><path d="M 144.38136562736335 173.6633856474863 a86.0,86.0 0 0,1 -40.68145358897372,12.25698825130547" fill="none" id="id30" stroke="none" /><text fill="#e1ed5e" style="font-size:6.75px; font-family:Arial;" text-anchor="middle"><textPath startOffset="21.466115282336833" xlink:href="#id30">June</textPath></text><path d="M 110.5260780823613 118.17145234162733 l 16.206833115944065 27.978292890358283 a53.33336222397439,53.33336222397439 0 0,0 -0.7983527704449852,0.4533255387860849 l -15.722831578577882 -28.253121594938996" fill="red" stroke="none" /><path d="M 109.89434966115114 118.52300852407294 l 13.312961909108251 24.922922209965698 a49.25574289020497,49.25574289020497 0 0,0 -0.7512886928832636,0.39303873602006106 l -12.881982313698492 -25.148390364930478" fill="red" stroke="none" /><path d="M 109.2508944713604 118.85261126421891 l 13.58908786354323 27.69351566162893 a51.847919195044334,51.847919195044334 0 0,0 -0.8045990502958342,0.3862564395457647 l -13.110376145247164 -27.92332637767425" fill="red" stroke="none" /><path d="M 108.92500713936063 119.00905698771935 l 7.514337830151516 16.004522327873268 a38.680780751116174,38.680780751116174 0 0,0 -0.6051368774021533,0.27778866032577015 l -7.237732956981943 -16.131498058533115" fill="red" stroke="none" /><path d="M 108.59647513512805 119.15986991738527 l 13.101454345448364 29.200591759009793 a53.00504124418868,53.00504124418868 0 0,0 -0.8356606330887583,0.366329063743866 l -12.596873037701851 -29.421785376048113" fill="red" stroke="none" /><path d="M 107.59598834532513 119.57807347666477 l 10.304622054220333 26.559367728749564 a49.48833532924077,49.48833532924077 0 0,0 -0.796832376181794,0.30129382243587016 l -9.845919457278264 -26.732809801292063" fill="red" stroke="none" /><path d="M 106.57524785965236 119.94407469862006 l 8.881661465116672 26.939899983862727 a49.36621443762748,49.36621443762748 0 0,0 -0.809320662120885,0.2591189185069605 l -8.416619457904845 -27.088791749029394" fill="red" stroke="none" /><path d="M 105.88484417918355 120.15858648285463 l 4.8576705876299595 16.639994138220924 a38.33454263769171,38.33454263769171 0 0,0 -0.6350186937437143,0.17946262588226017 l -4.570520725781639 -16.7211455574417" fill="red" stroke="none" /><path d="M 105.18746579009965 120.34920634021253 l 5.963751552277094 23.394392524122647 a45.14257513501849,45.14257513501849 0 0,0 -0.7546263199705254,0.18546878948160736 l -5.560171947563357 -23.493582571918285" fill="red" stroke="none" /><path d="M 104.48393922423573 120.51570834832081 l 6.011839054708417 27.506424711736578 a49.15573847801102,49.15573847801102 0 0,0 -0.8281771425364175,0.1735525724340357 l -5.537470450742621 -27.605833264897157" fill="red" stroke="none" /><path d="M 103.41894727170886 120.7198165907248 l 2.761469151895985 16.735307625739097 a37.961610572259765,37.961610572259765 0 0,0 -0.6456440883843307,0.10083632826431689 l -2.4729891999031373 -16.78036226135052" fill="red" stroke="none" /><path d="M 101.26447882468166 120.96189622390904 l 1.4107596636851474 23.386866659858676 a44.42937845941907,44.42937845941907 0 0,0 -0.7637874160392105,0.03947908511847736 l -1.007984179232457 -23.407685551739355" fill="red" stroke="none" /><line stroke="#e1ed5e" stroke-width="0.3" x1="102.19456741930631" x2="102.32365962044197" y1="184.97166512339345" y2="189.96999836594603" /><path d="M 102.22038585953345 185.97133177190398 a86.0,86.0 0 0,1 -42.740103519485714,-10.115201625700543" fill="none" id="id31" stroke="none" /><text fill="#e1ed5e" style="font-size:6.75px; font-family:Arial;" text-anchor="middle"><textPath startOffset="22.20632615414155" xlink:href="#id31">July</textPath></text><path d="M 100.54218724476979 120.99299961872073 l 0.5842575108522838 22.621922261864363 a43.62946582800446,43.62946582800446 0 0,0 -0.7509260789852943,0.012927873448232617 l -0.19477174197432162 -22.628627612591753" fill="red" stroke="none" /><path d="M 100.18074693466247 120.99922214144158 l 0.24405883616465046 28.354814015374583 a49.355864341648854,49.355864341648854 0 0,0 -0.8496115416541924,0.0 l 0.24405883616463095 -28.354814015374583" fill="red" stroke="none" /><path d="M 99.45781275523022 120.99299961872073 l -0.4855167600013241 18.798769716388612 a39.80503840395046,39.80503840395046 0 0,0 -0.684797632197931,-0.02358581507225875 l 0.8090347438738982 -18.78762710289026" fill="red" stroke="none" /><path d="M 98.73552117531835 120.96189622390904 l -1.247291051409589 20.676965932775296 a41.71455177289812,41.71455177289812 0 0,0 -0.7163724184153508,-0.049405236207290856 l 1.6030262306038696 -20.65243235205172" fill="red" stroke="none" /><path d="M 98.01472825383883 120.90594882070398 l -2.6703243401518137 28.119910585460815 a49.24641576228599,49.24641576228599 0 0,0 -0.8432098020060264,-0.08740214365478943 l 3.1539667387634336 -28.069779073350265" fill="red" stroke="none" /><path d="M 96.93821686468263 120.77559828337769 l -2.549392806974051 17.298795663637208 a38.48564368550739,38.48564368550739 0 0,0 -0.6545567471621225,-0.10222830226732252 l 2.8467854177446905 -17.25234905402278" fill="red" stroke="none" /><path d="M 94.46302465271185 120.25689768951611 l -7.447736726496968 27.247374500410498 a49.24691486716438,49.24691486716438 0 0,0 -0.8157841309186664,-0.2305487440450496 l 7.915652025520249 -27.115136963026927" fill="red" stroke="none" /><path d="M 92.7421414339146 119.70592522655815 l -7.201197097531278 19.552082787719232 a41.836054832316975,41.836054832316975 0 0,0 -0.6736198087958113,-0.254705372330789 l 7.536687127087371 -19.42522916528181" fill="red" stroke="none" /><path d="M 91.7346041902142 119.30500536409082 l -10.218286147442752 23.866258002387127 a46.96173420300593,46.96173420300593 0 0,0 -0.7403837750873136,-0.3245624891247842 l 10.62759059718781 -23.68683095996789" fill="red" stroke="none" /><path d="M 91.07499286063937 119.00905698771935 l -11.979522032194641 25.514760205776227 a49.187088116336156,49.187088116336156 0 0,0 -0.7633070911937995,-0.36643378986857084 l 12.416941791388682 -25.304772139408094" fill="red" stroke="none" /><path d="M 90.10565033884886 118.52300852407294 l -9.852341921718361 18.444366698966885 a41.91084178765665,41.91084178765665 0 0,0 -0.6334069104183212,-0.3453839506653062 l 10.168371644005322 -18.27204209654181" fill="red" stroke="none" /><line stroke="#e1ed5e" stroke-width="0.3" x1="58.666819895761336" x2="56.23545636021788" y1="174.27360380694188" y2="178.64263932499728" /><path d="M 58.180547188652646 175.14741091055294 a86.0,86.0 0 0,1 -31.652253787137756,-30.449443065178592" fill="none" id="id32" stroke="none" /><text fill="#e1ed5e" style="font-size:6.75px; font-family:Arial;" text-anchor="middle"><textPath startOffset="22.20632615414155" xlink:href="#id32">August</textPath></text><path d="M 89.1626897886671 117.98757091392108 l -11.874015919822494 19.708276244365774 a44.00887669114749,44.00887669114749 0 0,0 -0.6455071146898868,-0.3965231919948986 l 12.211502234444689 -19.500964585542498" fill="red" stroke="none" /><path d="M 87.65650970185807 116.9893568818739 l -13.306878940801983 18.31534759201846 a43.63901465527189,43.63901465527189 0 0,0 -0.6039120730926927,-0.4467597141753798 l 13.62017598431324 -18.08357792910331" fill="red" stroke="none" /><path d="M 87.07902340077011 116.55440617244103 l -16.50865984371497 21.150960093203267 a47.830932945012634,47.830932945012634 0 0,0 -0.6446755803059189,-0.512169270515621 l 16.870292916738247 -20.863656908682515" fill="red" stroke="none" /><path d="M 86.51685102203217 116.09983520530335 l -16.637949457432548 19.866890505811426 a46.91360068608722,46.91360068608722 0 0,0 -0.6146452936581371,-0.5238140537003458 l 16.97746022766774 -19.577552061888127" fill="red" stroke="none" /><path d="M 85.97065885151581 115.62618273729859 l -19.990266514229674 22.26558996695323 a50.922687912124815,50.922687912124815 0 0,0 -0.6472042069573747,-0.5912056979919219 l 20.370570270653904 -21.91819150237473" fill="red" stroke="none" /><path d="M 85.18274418774928 114.88116024355367 l -13.318968377973643 13.376410937548842 a39.87652744080961,39.87652744080961 0 0,0 -0.48223895161066116,-0.48850551196138814 l 13.547247954639838 -13.14516493160679" fill="red" stroke="none" /><path d="M 84.43433777217949 114.09645910891817 l -18.15387375767212 16.44037596011226 a45.4918168807325,45.4918168807325 0 0,0 -0.520645504795352,-0.5849507439626841 l 18.43417811211581 -16.12545104640871" fill="red" stroke="none" /><path d="M 83.95833913139862 113.55231037782056 l -15.572769156418248 13.156181443968613 a41.38617790037445,41.38617790037445 0 0,0 -0.4550587631578183,-0.5481475949560185 l 15.796923919469602 -12.886172591898834" fill="red" stroke="none" /><path d="M 83.50135304334701 112.99209946851258 l -22.41123691354549 17.64805441065406 a49.52573162035411,49.52573162035411 0 0,0 -0.5216549622242798,-0.6743093584714455 l 22.711698692987838 -17.25966705806936" fill="red" stroke="none" /><path d="M 83.06392112726016 112.41649034213515 l -24.607369855473316 18.04060859964592 a51.512066626986694,51.512066626986694 0 0,0 -0.5181137813387462,-0.7196147267676113 l 24.91426342918767 -17.614360267427173" fill="red" stroke="none" /><path d="M 82.6465618267979 111.8261652097733 l -24.612485725541973 16.773121240200734 a50.78442629510396,50.78442629510396 0 0,0 -0.4860719989911211,-0.7266116873768566 l 24.897560829943824 -16.346972638618055" fill="red" stroke="none" /><path d="M 82.05923443525364 110.91462005526583 l -16.201583574042225 9.856554246034298 a39.96425511091041,39.96425511091041 0 0,0 -0.35248306357215653,-0.5907818893348719 l 16.368847513312613 -9.576210262813314" fill="red" stroke="none" /><line stroke="#e1ed5e" stroke-width="0.3" x1="26.63291911575756" x2="22.317208475507996" y1="142.92168965132927" y2="145.44649492493687" /><path d="M 25.769776987707644 143.4266507060508 a86.0,86.0 0 0,1 -11.730757126820373,-40.83630448921669" fill="none" id="id33" stroke="none" /><text fill="#e1ed5e" style="font-size:6.75px; font-family:Arial;" text-anchor="middle"><textPath startOffset="21.46611528233685" xlink:href="#id33">September</textPath></text><path d="M 81.02952815118164 109.00673069616217 l -27.582783150668902 13.095652109685846 a51.53368681497116,51.53368681497116 0 0,0 -0.37355882005073127,-0.8046124650365114 l 27.804116587559463 -12.618919577370507" fill="red" stroke="none" /><path d="M 80.73074385275274 108.34839909993369 l -18.80676621513921 8.148025483877378 a41.495969719845334,41.495969719845334 0 0,0 -0.2783174580720939,-0.6578602572343913 l 18.944234654403612 -7.823090700976827" fill="red" stroke="none" /><path d="M 80.45479744820244 107.68017299344265 l -27.23138321411714 10.700412716670227 a50.25828197384766,50.25828197384766 0 0,0 -0.3094611122390918,-0.8079053126583282 l 27.411538605949744 -10.230083837178743" fill="red" stroke="none" /><path d="M 79.86692584326677 105.97154293290107 l -16.232574929524716 4.814640692652117 a37.931546114929255,37.931546114929255 0 0,0 -0.18027845697924916,-0.6275729590564216 l 16.31304602339007 -4.5345102580911" fill="red" stroke="none" /><path d="M 79.67330655649465 105.27499134158121 l -24.35680268797477 6.320847197541645 a46.163603606709536,46.163603606709536 0 0,0 -0.19298295657318695,-0.7708709818079613 l 24.461996958843017 -5.900648376336291" fill="red" stroke="none" /><path d="M 79.58551787078972 104.9243191809786 l -26.52146207299122 6.397426276454818 a48.282137259602415,48.282137259602415 0 0,0 -0.18793117025062656,-0.8096025628240109 l 26.6276538091724 -5.939955056282233" fill="red" stroke="none" /><path d="M 79.4281124754447 104.21870165774334 l -28.308595610401756 5.805277667760796 a49.897713304568924,49.897713304568924 0 0,0 -0.1653041551885638,-0.8428823259759287 l 28.404329698565988 -5.317131614716913" fill="red" stroke="none" /><path d="M 79.29508885075956 103.50808413554451 l -30.037465138830687 5.089321763613018 a51.46556265654803,51.46556265654803 0 0,0 -0.14047217915630483,-0.8747203936974904 l 30.12061907234828 -4.5715221402223145" fill="red" stroke="none" /><path d="M 79.18660465613746 102.79330883721812 l -29.290449451372808 3.930991073147356 a50.5530560159282,50.5530560159282 0 0,0 -0.10832434398458637,-0.8634516028298835 l 29.353775304604245 -3.4262217160300636" fill="red" stroke="none" /><path d="M 79.10278846688536 102.07522291339032 l -29.9468489093374 2.9739081188901593 a51.09415041329932,51.09415041329932 0 0,0 -0.07937939452922516,-0.8759450040517488 l 29.9936029001437 -2.457981726289844" fill="red" stroke="none" /><path d="M 79.0235259727143 100.99374915477108 l -28.31314319189661 1.341319903395629 a49.34489753885321,49.34489753885321 0 0,0 -0.03289158667714156,-0.8487857016569911 l 28.332036911424954 -0.8537569547246412" fill="red" stroke="none" /><line stroke="#e1ed5e" stroke-width="0.3" x1="15.007084014347285" x2="10.007500721073583" y1="101.09737516637583" y2="101.16192664675087" /><path d="M 14.007167355692545 101.11028546245083 a86.0,86.0 0 0,1 10.666146001902534,-42.60595125391555" fill="none" id="id34" stroke="none" /><text fill="#e1ed5e" style="font-size:6.75px; font-family:Arial;" text-anchor="middle"><textPath startOffset="22.20632615414155" xlink:href="#id34">October</textPath></text><path d="M 79.00019446554 99.90962569577889 l -17.801893320610628 -0.07661183909673591 a38.80205817236566,38.80205817236566 0 0,0 0.008623282348019888,-0.6678827210446922 l 17.79793703114489 0.38303081820190005" fill="red" stroke="none" /><path d="M 79.03285615573316 98.82574320788736 l -27.56758366394851 -1.543911874691345 a48.610782910769004,48.610782910769004 0 0,0 0.05397974896628118,-0.8350428245059293 l 27.536923323977817 2.018213763450286" fill="red" stroke="none" /><path d="M 79.12142395522702 97.74499172005258 l -28.174753573464955 -3.0430381103287805 a49.33861005530069,49.33861005530069 0 0,0 0.09846493955767764,-0.8435874706049358 l 28.118198280903687 3.5275693192585784" fill="red" stroke="none" /><path d="M 79.26566170972629 96.67025291283419 l -30.249293035241898 -4.857762710477708 a51.63686647950867,51.63686647950867 0 0,0 0.1484882973155392,-0.8763863361969014 l 30.161192876406137 5.377734834990437" fill="red" stroke="none" /><path d="M 79.3925641242962 95.95851677861259 l -9.70884985151987 -1.9040774412962778 a30.89379989396444,30.89379989396444 0 0,0 0.10683473810290303,-0.5209641245747287 l 9.674635817501974 2.0709172220344088" fill="red" stroke="none" /><path d="M 79.46518482838121 95.60439243477599 l -11.456301987885789 -2.452294177794241 a32.715826986264325,32.715826986264325 0 0,0 0.12261520084234358,-0.5496599029514582 l 11.412392400041409 2.6491322502956582" fill="red" stroke="none" /><path d="M 80.14247586403 93.16781622104843 l -25.620691965144346 -8.815060470338107 a48.09474391590608,48.09474391590608 0 0,0 0.27607967658588733,-0.7805144229973856 l 25.46515920774865 9.254772519762104" fill="red" stroke="none" /><path d="M 81.26839172434947 90.50648371742162 l -24.356826895583655 -12.344478344966673 a48.30643078160854,48.30643078160854 0 0,0 0.38228919588605903,-0.7384610462447296 l 24.14072826653748 12.761912113471737" fill="red" stroke="none" /><line stroke="#e1ed5e" stroke-width="0.3" x1="26.266209847984243" x2="21.928928074336255" y1="57.711370442889674" y2="55.22380399835377" /><path d="M 25.398753493254645 57.213857153982495 a86.0,86.0 0 0,1 29.58750427330803,-30.492523968695096" fill="none" id="id35" stroke="none" /><text fill="#e1ed5e" style="font-size:6.75px; font-family:Arial;" text-anchor="middle"><textPath startOffset="21.46611528233685" xlink:href="#id35">November</textPath></text><path d="M 82.34701348167596 88.62581576622439 l -19.706731773981815 -12.697454768358883 a44.443136198175026,44.443136198175026 0 0,0 0.41988894080781586,-0.6395196637747027 l 19.48524619781608 13.034792496111253" fill="red" stroke="none" /><path d="M 82.7489923806493 88.02491185347247 l -23.86770310545114 -16.568182847610597 a50.05463705506954,50.05463705506954 0 0,0 0.49741767017572297,-0.7035620187698635 l 23.57897281547154 16.976571366712246" fill="red" stroke="none" /><path d="M 83.17141714833178 87.43820079747576 l -25.157180690325777 -18.778732298433876 a52.393064951067515,52.393064951067515 0 0,0 0.5456963747714019,-0.7180724633891157 l 24.830208375330265 19.208989537704017" fill="red" stroke="none" /><path d="M 83.84228863543731 86.58626213691792 l -17.425157774949792 -14.465940957990938 a43.64728617918652,43.64728617918652 0 0,0 0.4848785055092546,-0.5739432119694828 l 17.17356865595341 14.763743119589536" fill="red" stroke="none" /><path d="M 84.5562425177563 85.77008943001954 l -18.796614235954248 -17.319239822535167 a46.559123122004124,46.559123122004124 0 0,0 0.5481398426743022,-0.5847173662196574 l 18.49570707130949 17.640226605632876" fill="red" stroke="none" /><path d="M 85.57189188830299 84.74124197986013 l -22.199205673306825 -23.477250446556546 a53.31077252335694,53.31077252335694 0 0,0 0.6722034415709868,-0.6247398395626588 l 21.791794347940982 23.855894872193854" fill="red" stroke="none" /><path d="M 86.10567301691215 84.25364557470407 l -23.21186982287492 -26.30586782286819 a56.082610829131625,56.082610829131625 0 0,0 0.729357562167403,-0.6324916907028039 l 22.755618462060745 26.701524506990676" fill="red" stroke="none" /><path d="M 86.93701828274178 83.55741782278169 l -18.84360550905234 -23.718744985176954 a51.29290894339209,51.29290894339209 0 0,0 0.6960385333351756,-0.5432691156483754 l 18.43253442055774 24.039592490048552" fill="red" stroke="none" /><path d="M 87.51073957382395 83.11751280151077 l -16.958238951691456 -22.923475229230277 a49.51433998758869,49.51433998758869 0 0,0 0.6895571731915022,-0.5009926118147859 l 16.561136462146173 23.21198707586173" fill="red" stroke="none" /><line stroke="#e1ed5e" stroke-width="0.3" x1="56.762969772571076" x2="54.21961505331055" y1="26.818313649435495" y2="22.513508569990535" /><path d="M 56.25429882871897 25.957352633546506 a86.0,86.0 0 0,1 42.265352541879196,-11.944610805530505" fill="none" id="id36" stroke="none" /><text fill="#e1ed5e" style="font-size:6.75px; font-family:Arial;" text-anchor="middle"><textPath startOffset="22.20632615414155" xlink:href="#id36">December</textPath></text><path d="M 89.63071344664047 81.73862282372117 l -15.14840148334764 -26.677888751708565 a51.67871926513927,51.67871926513927 0 0,0 0.7773363106412331,-0.4325868152676827 l 14.686941083634363 26.934690964536433" fill="red" stroke="none" /><path d="M 90.91171255644093 81.06846463323043 l -12.235998745749978 -25.488437116619043 a49.273310594159966,49.273310594159966 0 0,0 0.7677762298957608,-0.3604812346913364 l 11.795444304554607 25.695283333950385" fill="red" stroke="none" /><path d="M 91.56875222667455 80.76684994638697 l -12.477342210092505 -28.46299876943795 a52.07774714448881,52.07774714448881 0 0,0 0.8241086301810965,-0.35284030696916824 l 11.985549822121099 28.673558604369905" fill="red" stroke="none" /><path d="M 95.33964822691252 79.52364482259891 l -6.288556867759587 -27.630258454121417 a49.336851090419245,49.336851090419245 0 0,0 0.829698472854088,-0.18133995003021483 l 5.812015670751977 27.7344119022475" fill="red" stroke="none" /></svg>