<?xml version="1.0" encoding="utf-8" ?>
<svg baseProfile="full" height="200mm" version="1.1" viewBox="0,0,200,200" width="200mm" xmlns="http://www.w3.org/2000/svg" xmlns:ev="http://www.w3.org/2001/xml-events" xmlns:xlink="http://www.w3.org/1999/xlink"><defs /><rect fill="#1a1a1a" height="200" width="200" x="0" y="0" /><text alignment-baseline="middle" fill="#e1ed5e" style="dominant-baseline: central; font-size:9.0px; font-family:Arial;" text-anchor="middle" x="100.0" y="100.0">2024</text><line stroke="#e1ed5e" stroke-width="0.3" x1="100.0" x2="100.0" y1="15.0" y2="10.0" /><path d="M 100.0 14.0 a86.0,86.0 0 0,1 42.35913384403234,11.155469271406648" fill="none" id="id49" stroke="none" /><text fill="#e1ed5e" style="font-size:6.75px; font-family:Arial;" text-anchor="middle"><textPath startOffset="22.145653131862478" xlink:href="#id49">January</textPath></text><path d="M 100.0 79.0 l 0.0 -47.54730370491828 a68.54730370491828,68.54730370491828 0 0,0 1.1767056191947014,0.010100602515137171 l -0.8162126943458466 47.540297500597575" fill="#35ff64" stroke="none" /><path d="M 101.44090949804482 79.04949213459386 l 3.228215545268064 -46.93754553227425 a68.04842777608013,68.04842777608013 0 0,0 1.1647007047391145,0.09015520062887451 l -4.033485244782412 46.87521256465032" fill="#34ff5d" stroke="none" /><path d="M 107.06938296918511 80.22567764915836 l 11.42306447028885 -31.952344363651775 a54.932855939719616,54.932855939719616 0 0,0 0.8852321133629653,0.3250694937692926 l -11.969885735305938 31.75154402087376" fill="#b4ff20" stroke="none" /><line stroke="#e1ed5e" stroke-width="0.3" x1="143.13028292997686" x2="145.6673583964461" y1="26.7553504044142" y2="22.446841604673864" /><path d="M 143.63769802327073 25.89364864446614 a86.0,86.0 0 0,1 29.32050498858742,28.57503671076993" fill="none" id="id50" stroke="none" /><text fill="#e1ed5e" style="font-size:6.75px; font-family:Arial;" text-anchor="middle"><textPath startOffset="20.669276256404974" xlink:href="#id50">February</textPath></text><path d="M 114.39649973595853 84.71141617570332 l 9.36788130304882 -9.948365309936756 a34.664815126739356,34.664815126739356 0 0,0 0.4297240547563135,0.41166592370516325 l -9.537277843670445 9.786087255926013" fill="#ff0000" stroke="none" /><path d="M 114.91283532996326 85.21462403516908 l 37.244583851319256 -36.92625598761859 a73.44718684086963,73.44718684086963 0 0,0 0.8800134108335814,0.9029712844653947 l -37.87298406330365 36.28146201108545" fill="#3dffa9" stroke="none" /><line stroke="#e1ed5e" stroke-width="0.3" x1="172.87174338648825" x2="177.1583165268699" y1="56.24261187166439" y2="53.66864786411523" /><path d="M 173.72905801456457 55.72781907015455 a86.0,86.0 0 0,1 12.242430191666344,42.057860355516425" fill="none" id="id51" stroke="none" /><text fill="#e1ed5e" style="font-size:6.75px; font-family:Arial;" text-anchor="middle"><textPath startOffset="22.145653131862474" xlink:href="#id51">March</textPath></text><path d="M 118.00360718960297 89.18935116829356 l 44.99329183862536 -27.017178986817743 a73.48165651807741,73.48165651807741 0 0,0 0.6400822285890797,1.0869995594854724 l -45.45044777734421 26.240828259038715" fill="#3dffa9" stroke="none" /><path d="M 118.8641267826498 90.77261029715802 l 40.06878518481011 -19.59965070632166 a65.6055361361824,65.6055361361824 0 0,0 0.48617058168811966,1.0159095308001234 l -40.39933502445814 18.908928673456437" fill="#30ff39" stroke="none" /><path d="M 119.83427380445688 93.10060997987247 l 49.58315175697769 -17.24759402694592 a73.497318387455,73.497318387455 0 0,0 0.40428627376612053,1.1952005314264424 l -49.871923452316175 16.393891821045315" fill="#3dffaa" stroke="none" /><path d="M 120.16314734710363 94.1308016681162 l 46.97401252700165 -13.673450440016254 a69.92362517048883,69.92362517048883 0 0,0 0.3255827385134337,1.155378279339783 l -47.20181375758966 12.865064236773456" fill="#37ff78" stroke="none" /><path d="M 120.7213421655516 96.59031103205396 l 57.612403427972005 -9.480099059982086 a79.38716731384109,79.38716731384109 0 0,0 0.20972769456865664,1.346602247627438 l -57.766652614678925 8.489708630423207" fill="#46fff5" stroke="none" /><line stroke="#e1ed5e" stroke-width="0.3" x1="184.99686870605535" x2="189.99668451229388" y1="99.2704041080226" y2="99.22748670261217" /><path d="M 185.99683186730306 99.26182062694052 a86.0,86.0 0 0,1 -10.086455211305974,41.156179273409016" fill="none" id="id52" stroke="none" /><text fill="#e1ed5e" style="font-size:6.75px; font-family:Arial;" text-anchor="middle"><textPath startOffset="21.40746469413373" xlink:href="#id52">April</textPath></text><path d="M 120.96210409425399 101.26102812881392 l 52.493682289107326 3.1578895732003507 a73.58858190545043,73.58858190545043 0 0,0 -0.08668047713433033,1.2603151137834256 l -52.431737850807934 -4.05854811113812" fill="#3dffab" stroke="none" /><path d="M 120.51834098615036 104.47187691870673 l 33.08664209426445 7.211079648141257 a54.863336438776805,54.863336438776805 0 0,0 -0.2084523022153341,0.9184793055917319 l -32.95797893049145 -7.777993287672006" fill="#b5ff20" stroke="none" /><line stroke="#e1ed5e" stroke-width="0.3" x1="174.33088141563837" x2="178.70328620479359" y1="141.23008692659167" y2="143.65538615756765" /><path d="M 175.20536237346943 141.71514677278685 a86.0,86.0 0 0,1 -30.301960400862466,31.631185727798858" fill="none" id="id53" stroke="none" /><text fill="#e1ed5e" style="font-size:6.75px; font-family:Arial;" text-anchor="middle"><textPath startOffset="22.145653131862474" xlink:href="#id53">May</textPath></text><path d="M 118.36410011445183 110.18625677009912 l 45.77280205532605 25.389401708584042 a73.34282307170594,73.34282307170594 0 0,0 -0.6201542044131068,1.0957530571697907 l -45.33021448589157 -26.171411535852958" fill="#3cffa7" stroke="none" /><path d="M 117.423217284605 111.72311816256416 l 28.75396203262383 19.34694890410274 a55.656814113122614,55.656814113122614 0 0,0 -0.5401633301150626,0.7881144416145723 l -28.417608965693447 -19.837698080787355" fill="#aaff21" stroke="none" /><path d="M 116.1254893667686 113.45245675266167 l 40.2595162871657 33.58592036606852 a73.42940681061017,73.42940681061017 0 0,0 -0.8157847527315746,0.960992387456211 l -39.67703697092701 -34.27207953597429" fill="#3dffa9" stroke="none" /><path d="M 113.31354834802062 116.24036423190432 l 23.69706557913781 28.906566917581955 a58.378343034738734,58.378343034738734 0 0,0 -0.7804607064257004,0.6286838991819114 l -23.197354102356854 -29.309099110557273" fill="#84ff25" stroke="none" /><path d="M 112.7482090630111 116.68781488649013 l 31.811051348063256 41.6416873630816 a73.40203349407108,73.40203349407108 0 0,0 -1.0078693793279625,0.75632397182126 l -31.091528979824528 -42.18163036216688" fill="#3cffa8" stroke="none" /><line stroke="#e1ed5e" stroke-width="0.3" x1="143.1302829299769" x2="145.66735839644613" y1="173.24464959558577" y2="177.55315839532614" /><path d="M 143.63769802327073 174.10635135553383 a86.0,86.0 0 0,1 -40.68552437913181,11.842963189579606" fill="none" id="id54" stroke="none" /><text fill="#e1ed5e" style="font-size:6.75px; font-family:Arial;" text-anchor="middle"><textPath startOffset="21.407464694133747" xlink:href="#id54">June</textPath></text><path d="M 110.65571695917076 118.09573695890943 l 24.580045889691817 41.74229163200298 a69.44169244184747,69.44169244184747 0 0,0 -1.0323914011841149,0.5960514533827059 l -23.859862020647306 -42.15808998266186" fill="#36ff71" stroke="none" /><path d="M 109.71004243097381 118.62028667847754 l 24.302863185105902 46.60394461006557 a73.56003055756375,73.56003055756375 0 0,0 -1.124672541997656,0.5742658135531313 l -23.499263421394666 -47.014268375291536" fill="#3dffaa" stroke="none" /><path d="M 108.4095320186766 119.2426549942271 l 13.521337629981621 30.93946660722057 a54.765028731562985,54.765028731562985 0 0,0 -0.8646744111747552,0.36907808941177445 l -12.988228143636436 -31.16701934629175" fill="#b6ff1f" stroke="none" /><path d="M 108.07796709384702 119.3841803445677 l 24.233901281541076 58.15254103370309 a84.0,84.0 0 0,0 -1.3357821552382365,0.5432509736828348 l -23.232064665112397 -58.55997926396521" fill="#4dd2ff" stroke="none" /><path d="M 106.0420521117495 120.11202640906438 l 16.5710580696331 55.159662869259584 a78.59503774977082,78.59503774977082 0 0,0 -1.2954707330272772,0.3770926499914774 l -15.621727324224217 -55.43599921355358" fill="#45ffec" stroke="none" /><path d="M 103.2317021107853 120.74984581791261 l 8.924366747304225 57.30083642643361 a78.99163885431494,78.99163885431494 0 0,0 -1.341634973630411,0.19717413938597556 l -7.939406668066128 -57.44559163911847" fill="#45fff1" stroke="none" /><line stroke="#e1ed5e" stroke-width="0.3" x1="101.45913802915013" x2="101.54496967792366" y1="184.9874750549273" y2="189.98673829345242" /><path d="M 101.47630435890484 185.9873277026323 a86.0,86.0 0 0,1 -42.54439059252881,-10.42667462771756" fill="none" id="id55" stroke="none" /><text fill="#e1ed5e" style="font-size:6.75px; font-family:Arial;" text-anchor="middle"><textPath startOffset="22.145653131862474" xlink:href="#id55">July</textPath></text><line stroke="#e1ed5e" stroke-width="0.3" x1="58.13341422392154" x2="55.67067388415222" y1="173.97424548756322" y2="178.32567169271397" /><path d="M 57.64086615596768 174.84453072859336 a86.0,86.0 0 0,1 -31.369924170532247,-30.572349798747897" fill="none" id="id56" stroke="none" /><text fill="#e1ed5e" style="font-size:6.75px; font-family:Arial;" text-anchor="middle"><textPath startOffset="22.145653131862474" xlink:href="#id56">August</textPath></text><line stroke="#e1ed5e" stroke-width="0.3" x1="26.387840678322732" x2="22.057713659400548" y1="142.50000000000003" y2="145.00000000000006" /><path d="M 25.521815274538298 143.00000000000003 a86.0,86.0 0 0,1 -11.493303480769221,-40.785679425670985" fill="none" id="id57" stroke="none" /><text fill="#e1ed5e" style="font-size:6.75px; font-family:Arial;" text-anchor="middle"><textPath startOffset="21.40746469413373" xlink:href="#id57">September</textPath></text><line stroke="#e1ed5e" stroke-width="0.3" x1="15.003131293944662" x2="10.003315487706104" y1="100.72959589197737" y2="100.7725132973878" /><path d="M 14.003168132696942 100.73817937305945 a86.0,86.0 0 0,1 10.791469493833604,-42.45332614584628" fill="none" id="id58" stroke="none" /><text fill="#e1ed5e" style="font-size:6.75px; font-family:Arial;" text-anchor="middle"><textPath startOffset="22.145653131862435" xlink:href="#id58">October</textPath></text><line stroke="#e1ed5e" stroke-width="0.3" x1="26.387840678322718" x2="22.05771365940052" y1="57.49999999999999" y2="54.99999999999999" /><path d="M 25.521815274538284 56.99999999999999 a86.0,86.0 0 0,1 29.574782752854787,-30.34633250058573" fill="none" id="id59" stroke="none" /><text fill="#e1ed5e" style="font-size:6.75px; font-family:Arial;" text-anchor="middle"><textPath startOffset="21.40746469413373" xlink:href="#id59">November</textPath></text><line stroke="#e1ed5e" stroke-width="0.3" x1="56.869717070023135" x2="54.33264160355391" y1="26.7553504044142" y2="22.446841604673864" /><path d="M 56.362301976729285 25.89364864446614 a86.0,86.0 0 0,1 42.16139366436587,-11.88097634709845" fill="none" id="id60" stroke="none" /><text fill="#e1ed5e" style="font-size:6.75px; font-family:Arial;" text-anchor="middle"><textPath startOffset="22.145653131862474" xlink:href="#id60">December</textPath></text></svg>
