<?xml version="1.0" encoding="utf-8" ?>
<svg baseProfile="full" height="200mm" version="1.1" viewBox="0,0,200,200" width="200mm" xmlns="http://www.w3.org/2000/svg" xmlns:ev="http://www.w3.org/2001/xml-events" xmlns:xlink="http://www.w3.org/1999/xlink"><defs /><rect fill="#1a1a1a" height="200" width="200" x="0" y="0" /><text alignment-baseline="middle" fill="#e1ed5e" style="dominant-baseline: central; font-size:9.0px; font-family:Arial;" text-anchor="middle" x="100.0" y="100.0">2024</text><line stroke="#e1ed5e" stroke-width="0.3" x1="100.0" x2="100.0" y1="15.0" y2="10.0" /><path d="M 100.0 14.0 a86.0,86.0 0 0,1 42.35913384403234,11.155469271406648" fill="none" id="id49" stroke="none" /><text fill="#e1ed5e" style="font-size:6.75px; font-family:Arial;" text-anchor="middle"><textPath startOffset="22.145653131862478" xlink:href="#id49">January</textPath></text><path d="M 100.0 79.0 l 0.0 -16.873152916326347 a37.87315291632635,37.87315291632635 0 0,0 0.6501430318121152,0.005580696000087502 l -0.28965010696326043 16.870666618520694" fill="red" stroke="none" /><path d="M 101.44090949804482 79.04949213459386 l 1.1606559478577647 -16.875682752886004 a37.91554878226987,37.91554878226987 0 0,0 0.6489535148790444,0.05023310632051058 l -1.4501784575120427 16.853271879570443" fill="red" stroke="none" /><path d="M 107.06938296918511 80.22567764915836 l 3.982042596915127 -11.1384818546984 a32.828881657667054,32.828881657667054 0 0,0 0.5290309377151168,0.19426748817102035 l -4.172662686284369 11.068483517518658" fill="red" stroke="none" /><line stroke="#e1ed5e" stroke-width="0.3" x1="143.13028292997686" x2="145.6673583964461" y1="26.7553504044142" y2="22.446841604673864" /><path d="M 143.63769802327073 25.89364864446614 a86.0,86.0 0 0,1 29.32050498858742,28.57503671076993" fill="none" id="id50" stroke="none" /><text fill="#e1ed5e" style="font-size:6.75px; font-family:Arial;" text-anchor="middle"><textPath startOffset="20.669276256404974" xlink:href="#id50">February</textPath></text><path d="M 114.39649973595853 84.71141617570332 l 3.2797747162196296 -3.4830070915424574 a25.784167700748856,25.784167700748856 0 0,0 0.31963468007466006,0.306202793082544 l -3.3390818821596016 3.426192168154333" fill="red" stroke="none" /><path d="M 114.91283532996326 85.21462403516908 l 13.018097885199442 -12.90683275989197 a39.33186309245339,39.33186309245339 0 0,0 0.4712578994947867,0.4835521204366549 l -13.23774258584504 12.681457947387571" fill="red" stroke="none" /><line stroke="#e1ed5e" stroke-width="0.3" x1="172.87174338648825" x2="177.1583165268699" y1="56.24261187166439" y2="53.66864786411523" /><path d="M 173.72905801456457 55.72781907015455 a86.0,86.0 0 0,1 12.242430191666344,42.057860355516425" fill="none" id="id51" stroke="none" /><text fill="#e1ed5e" style="font-size:6.75px; font-family:Arial;" text-anchor="middle"><textPath startOffset="22.145653131862474" xlink:href="#id51">March</textPath></text><path d="M 118.00360718960297 89.18935116829356 l 15.732537461291948 -9.446936712989034 a39.35094951849017,39.35094951849017 0 0,0 0.34277729515658145,0.5821107854503909 l -15.892388466578296 9.175474759245086" fill="red" stroke="none" /><path d="M 118.8641267826498 90.77261029715802 l 13.969673580977043 -6.83326737772615 a36.551376884846704,36.551376884846704 0 0,0 0.27086439968603643,0.5660024188218433 l -14.08491723862299 6.592452456839203" fill="red" stroke="none" /><path d="M 119.83427380445688 93.10060997987247 l 17.265943497461105 -6.005991418133036 a39.28072038438877,39.28072038438877 0 0,0 0.21607123121602279,0.6387762017484491 l -17.366500150249493 5.7087135419104245" fill="red" stroke="none" /><path d="M 120.16314734710363 94.1308016681162 l 16.332766809102502 -4.754230381835773 a38.01064308496568,38.01064308496568 0 0,0 0.1769875237172764,0.6280662837063723 l -16.41197282489436 4.473156174226388" fill="red" stroke="none" /><path d="M 120.7213421655516 96.59031103205396 l 20.08098516159057 -3.3043184666286733 a41.35103156080605,41.35103156080605 0 0,0 0.1092425490255725,0.7014155300611941 l -20.134749202754406 2.959114754636038" fill="red" stroke="none" /><line stroke="#e1ed5e" stroke-width="0.3" x1="184.99686870605535" x2="189.99668451229388" y1="99.2704041080226" y2="99.22748670261217" /><path d="M 185.99683186730306 99.26182062694052 a86.0,86.0 0 0,1 -10.086455211305974,41.156179273409016" fill="none" id="id52" stroke="none" /><text fill="#e1ed5e" style="font-size:6.75px; font-family:Arial;" text-anchor="middle"><textPath startOffset="21.40746469413373" xlink:href="#id52">April</textPath></text><path d="M 120.96210409425399 101.26102812881392 l 18.295032359329355 1.1005837161642111 a39.32810665467642,39.32810665467642 0 0,0 -0.046324836834023754,0.6735529606625571 l -18.273443561330264 -1.4144801009811117" fill="red" stroke="none" /><path d="M 120.51834098615036 104.47187691870673 l 11.534185190285214 2.5138219782652453 a32.80494510542951,32.80494510542951 0 0,0 -0.12464182412430216,0.5491948750516339 l -11.489332504603247 -2.7114511872558964" fill="red" stroke="none" /><line stroke="#e1ed5e" stroke-width="0.3" x1="174.33088141563837" x2="178.70328620479359" y1="141.23008692659167" y2="143.65538615756765" /><path d="M 175.20536237346943 141.71514677278685 a86.0,86.0 0 0,1 -30.301960400862466,31.631185727798858" fill="none" id="id53" stroke="none" /><text fill="#e1ed5e" style="font-size:6.75px; font-family:Arial;" text-anchor="middle"><textPath startOffset="22.145653131862474" xlink:href="#id53">May</textPath></text><path d="M 118.36410011445183 110.18625677009912 l 15.164729682933167 8.411619923479817 a38.34140640471576,38.34140640471576 0 0,0 -0.3241978340777691,0.5728265087789384 l -15.01809848383402 -8.670703202357878" fill="red" stroke="none" /><path d="M 117.423217284605 111.72311816256416 l 10.02297320818511 6.7439036855490055 a33.0805723726965,33.0805723726965 0 0,0 -0.32105524578948175,0.46842919845911796 l -9.905728225580308 -6.914967619078167" fill="red" stroke="none" /><path d="M 116.1254893667686 113.45245675266167 l 14.005075546075402 11.683532128308556 a39.23861464159209,39.23861464159209 0 0,0 -0.43593248173013194,0.5135273673414614 l -13.802448500838155 -11.922226278099576" fill="red" stroke="none" /><path d="M 113.31354834802062 116.24036423190432 l 8.245267737896832 10.057885978453127 a34.005595350662205,34.005595350662205 0 0,0 -0.4546211761099724,0.36621063852968383 l -8.071395791431607 -10.197944910776213" fill="red" stroke="none" /><path d="M 112.7482090630111 116.68781488649013 l 10.84693211736325 14.198982332827205 a38.8680450986286,38.8680450986286 0 0,0 -0.5336897443367188,0.4004907336565426 l -10.601589384115766 -14.383092093747763" fill="red" stroke="none" /><line stroke="#e1ed5e" stroke-width="0.3" x1="143.1302829299769" x2="145.66735839644613" y1="173.24464959558577" y2="177.55315839532614" /><path d="M 143.63769802327073 174.10635135553383 a86.0,86.0 0 0,1 -40.68552437913181,11.842963189579606" fill="none" id="id54" stroke="none" /><text fill="#e1ed5e" style="font-size:6.75px; font-family:Arial;" text-anchor="middle"><textPath startOffset="21.407464694133747" xlink:href="#id54">June</textPath></text><path d="M 110.65571695917076 118.09573695890943 l 8.559755085208977 14.536335475889281 a37.869334787903114,37.869334787903114 0 0,0 -0.5630043598999804,0.32505071874318786 l -8.308958257448598 -14.68113309190864" fill="red" stroke="none" /><path d="M 109.71004243097381 118.62028667847754 l 8.45792943479619 16.219194911019994 a39.29204345844522,39.29204345844522 0 0,0 -0.6007431217977938,0.30674371845416404 l -8.178259091284813 -16.361996581146993" fill="red" stroke="none" /><path d="M 108.4095320186766 119.2426549942271 l 4.711375365179447 10.780548846131374 a32.765087813333324,32.765087813333324 0 0,0 -0.5173216132315279,0.22081383484392356 l -4.525618676777488 -10.859837330634702" fill="red" stroke="none" /><path d="M 108.07796709384702 119.3841803445677 l 8.428196598429807 20.224603658991985 a42.91047902409018,42.91047902409018 0 0,0 -0.6823696684893371,0.27751380370278395 l -8.07977246875003 -20.36630471927406" fill="red" stroke="none" /><path d="M 106.0420521117495 120.11202640906438 l 5.767398825896127 19.197794946598574 a41.04540396271908,41.04540396271908 0 0,0 -0.6765455056879776,0.1969325366259215 l -5.436993307826542 -19.293971177527013" fill="red" stroke="none" /><path d="M 103.2317021107853 120.74984581791261 l 3.1202870399163833 20.034481139155098 a41.27601109011907,41.27601109011907 0 0,0 -0.70105318554782,0.10303067618321277 l -2.775908748760878 -20.085092888637192" fill="red" stroke="none" /><path d="M 101.08105385017728 120.97215588758144 l 0.9382438524997677 18.201680084635264 a39.22584591809559,39.22584591809559 0 0,0 -0.6727685342066253,0.028891575603668708 l -0.6256495576923128 -18.215104228664764" fill="red" stroke="none" /><line stroke="#e1ed5e" stroke-width="0.3" x1="101.45913802915013" x2="101.54496967792366" y1="184.9874750549273" y2="189.98673829345242" /><path d="M 101.47630435890484 185.9873277026323 a86.0,86.0 0 0,1 -42.54439059252881,-10.42667462771756" fill="none" id="id55" stroke="none" /><text fill="#e1ed5e" style="font-size:6.75px; font-family:Arial;" text-anchor="middle"><textPath startOffset="22.145653131862474" xlink:href="#id55">July</textPath></text><path d="M 98.55909050195518 120.95050786540614 l -1.1108238373024226 16.1511348020562 a37.1892892058827,37.1892892058827 0 0,0 -0.6365230287078515,-0.049270908074971656 l 1.3879158607855102 -16.129686126986172" fill="red" stroke="none" /><path d="M 94.6519064749342 120.30758222061772 l -4.669656077746749 17.73144472818143 a39.33602519721737,39.33602519721737 0 0,0 -0.6515143417568418,-0.1775731310014139 l 4.973351820438286 -17.648671103035873" fill="red" stroke="none" /><path d="M 93.27111125876986 119.89276391827306 l -5.88331078578349 17.392962942351296 a39.361059493289645,39.361059493289645 0 0,0 -0.6382006458884583,-0.22199931343553278 l 6.18101720371697 -17.28940519634717" fill="red" stroke="none" /><line stroke="#e1ed5e" stroke-width="0.3" x1="58.13341422392154" x2="55.67067388415222" y1="173.97424548756322" y2="178.32567169271397" /><path d="M 57.64086615596768 174.84453072859336 a86.0,86.0 0 0,1 -31.369924170532247,-30.572349798747897" fill="none" id="id56" stroke="none" /><text fill="#e1ed5e" style="font-size:6.75px; font-family:Arial;" text-anchor="middle"><textPath startOffset="22.145653131862474" xlink:href="#id56">August</textPath></text><path d="M 87.83215693770417 117.11559508785305 l -6.369434207506779 8.959406878957306 a31.99275505714855,31.99275505714855 0 0,0 -0.44488057176867124,-0.3220592257491269 l 6.522295789649404 -8.848746881835115" fill="red" stroke="none" /><path d="M 84.83555147118756 114.52719865689866 l -7.96320566272916 7.628570889894818 a32.02758986583525,32.02758986583525 0 0,0 -0.37692533308709936,-0.4002816417944649 l 8.092986829552512 -7.490747788155863" fill="red" stroke="none" /><path d="M 83.4222238831116 112.89097897827486 l -14.414642251104052 11.20891300064272 a39.2598368525924,39.2598368525924 0 0,0 -0.4091398887896582,-0.5355772479925284 l 14.604934117248005 -10.959814839409322" fill="red" stroke="none" /><line stroke="#e1ed5e" stroke-width="0.3" x1="26.387840678322732" x2="22.057713659400548" y1="142.50000000000003" y2="145.00000000000006" /><path d="M 25.521815274538298 143.00000000000003 a86.0,86.0 0 0,1 -11.493303480769221,-40.785679425670985" fill="none" id="id57" stroke="none" /><text fill="#e1ed5e" style="font-size:6.75px; font-family:Arial;" text-anchor="middle"><textPath startOffset="21.40746469413373" xlink:href="#id57">September</textPath></text><path d="M 80.83023694016515 108.57439118712176 l -16.753493283284286 7.493624449781494 a39.3530363860429,39.3530363860429 0 0,0 -0.27053548066181055,-0.6190381232286238 l 16.879662645963066 -7.204924256777021" fill="red" stroke="none" /><path d="M 79.73907114497094 105.5222062557868 l -9.847118888244857 2.683876041183806 a31.20631868029159,31.20631868029159 0 0,0 -0.1364318247719306,-0.5180538608907067 l 9.891740193821521 -2.5144416759202963" fill="red" stroke="none" /><path d="M 79.34024301695615 103.76489593502545 l -35.994448384981936 6.559387533905845 a57.58723656357621,57.58723656357621 0 0,0 -0.16888192732789134,-0.9740660782015361 l 36.10174512980206 -5.940528422783716" fill="red" stroke="none" /><path d="M 79.03789590574601 101.26102812881392 l -20.57990568481201 1.2380360215842634 a41.61711064107912,41.61711064107912 0 0,0 -0.036778448805161165,-0.7134920813785662 l 20.598125723073746 -0.8845721468289663" fill="red" stroke="none" /><line stroke="#e1ed5e" stroke-width="0.3" x1="15.003131293944662" x2="10.003315487706104" y1="100.72959589197737" y2="100.7725132973878" /><path d="M 14.003168132696942 100.73817937305945 a86.0,86.0 0 0,1 10.791469493833604,-42.45332614584628" fill="none" id="id58" stroke="none" /><text fill="#e1ed5e" style="font-size:6.75px; font-family:Arial;" text-anchor="middle"><textPath startOffset="22.145653131862435" xlink:href="#id58">October</textPath></text><path d="M 79.00077361379809 99.81974689727619 l -19.05644556280619 -0.1635766659404326 a40.05714760434614,40.05714760434614 0 0,0 0.011804590376753682,-0.6875582091175929 l 19.05082954083077 0.49068179102707793" fill="red" stroke="none" /><path d="M 79.01933749520258 99.09900007780938 l -20.39727263016097 -0.8759466508015972 a41.41607242552211,41.41607242552211 0 0,0 0.03660078453186933,-0.7100454419400445 l 20.37923025617253 1.2259638861183537" fill="red" stroke="none" /><path d="M 79.13060592940154 97.66154086499901 l -18.273364172793702 -2.0475685701517774 a39.38772349261903,39.38772349261903 0 0,0 0.08105977315866882,-0.6712912042666508 l 18.235522313375363 2.3609534513418646" fill="red" stroke="none" /><path d="M 79.407916724674 95.88100663000787 l -17.807078803985718 -3.5619144771248696 a39.159826273224894,39.159826273224894 0 0,0 0.13751120157655755,-0.6580408791591654 l 17.743309891584794 3.8670718075694444" fill="red" stroke="none" /><path d="M 79.94057633289273 93.78553927170692 l -17.424480971324844 -5.398148745656541 a39.241506160410516,39.241506160410516 0 0,0 0.20486922291548193,-0.6417499228607138 l 17.329247032632104 5.696467702208647" fill="red" stroke="none" /><path d="M 80.9802524753101 91.09779779509293 l -16.519816072195148 -7.7321080562005315 a39.239786677807345,39.239786677807345 0 0,0 0.29078689144263875,-0.6076327642502807 l 16.384649922792605 8.0145533225159" fill="red" stroke="none" /><line stroke="#e1ed5e" stroke-width="0.3" x1="26.387840678322718" x2="22.05771365940052" y1="57.49999999999999" y2="54.99999999999999" /><path d="M 25.521815274538284 56.99999999999999 a86.0,86.0 0 0,1 29.574782752854787,-30.34633250058573" fill="none" id="id59" stroke="none" /><text fill="#e1ed5e" style="font-size:6.75px; font-family:Arial;" text-anchor="middle"><textPath startOffset="21.40746469413373" xlink:href="#id59">November</textPath></text><path d="M 81.99639281039701 89.18935116829357 l -9.565674292712902 -5.743912568627941 a32.157717341388,32.157717341388 0 0,0 0.28824345683988434,-0.4708240244111879 l 9.465662871417626 5.907273709163672" fill="red" stroke="none" /><path d="M 82.576782715395 88.27688183743585 l -3.2070869228263286 -2.157871209419384 a24.865464355935096,24.865464355935096 0 0,0 0.24132556355202747,-0.35210120932424993 l 3.169571622458988 2.212607153813669" fill="red" stroke="none" /><path d="M 83.42222388311158 87.10902102172516 l -14.461336937301747 -11.245223071060325 a39.318987633929865,39.318987633929865 0 0,0 0.4189036879475918,-0.5292711252179612 l 14.266166818712595 11.49181414019297" fill="red" stroke="none" /><path d="M 85.08716467003674 85.21462403516908 l -10.053516870372258 -9.96758989208194 a35.15719074250233,35.15719074250233 0 0,0 0.42859642360058037,-0.4249332283166914 l 9.880928526641702 10.138703130627304" fill="red" stroke="none" /><path d="M 85.34317274990677 84.96080404539775 l -12.845506427823517 -13.180621222298418 a39.404776858005064,39.404776858005064 0 0,0 0.48848321926080934,-0.46795587411439604 l 12.617350722697408 13.399189226718383" fill="red" stroke="none" /><path d="M 87.25179093698888 83.31218511350988 l -11.127134063749743 -14.56577567525041 a39.329619022073985,39.329619022073985 0 0,0 0.5400275282044692,-0.40524672482536295 l 10.875453546634523 14.754641427339774" fill="red" stroke="none" /><path d="M 87.54013794807813 83.09580414077388 l -2.2277637709566136 -3.0223894097230466 a24.754699610247517,24.754699610247517 0 0,0 0.3442305889847815,-0.24919640011892655 l 2.175552171597864 3.0601865812150524" fill="red" stroke="none" /><path d="M 88.72937992617638 82.28071324371311 l -2.455682778406706 -3.8607412057233623 a25.57555467301327,25.57555467301327 0 0,0 0.3724724783384623,-0.23245037442859082 l 2.389046171278545 3.902327376993489" fill="red" stroke="none" /><path d="M 89.03521579738668 82.08984904055464 l -9.547766659539398 -15.595559295836733 a39.28609630115109,39.28609630115109 0 0,0 0.5781926423531403,-0.3471880689090994 l 9.278641260628824 15.757161365281755" fill="red" stroke="none" /><line stroke="#e1ed5e" stroke-width="0.3" x1="56.869717070023135" x2="54.33264160355391" y1="26.7553504044142" y2="22.446841604673864" /><path d="M 56.362301976729285 25.89364864446614 a86.0,86.0 0 0,1 42.16139366436587,-11.88097634709845" fill="none" id="id60" stroke="none" /><text fill="#e1ed5e" style="font-size:6.75px; font-family:Arial;" text-anchor="middle"><textPath startOffset="22.145653131862474" xlink:href="#id60">December</textPath></text><path d="M 89.65649057296885 81.72400993836675 l -2.2363364537345625 -3.9513922321287134 a25.540341540724576,25.540341540724576 0 0,0 0.38341624319959733,-0.21267452686039132 l 2.1681760223788626 3.989199674422251" fill="red" stroke="none" /><path d="M 89.97174638481275 81.54914285379989 l -2.0139363570510542 -3.7054160625946433 a25.21735080912016,25.21735080912016 0 0,0 0.382116336366468,-0.20345542632690292 l 1.9500312048980244 3.739441956644122" fill="red" stroke="none" /><path d="M 90.93487009805054 81.0573650232925 l -1.8575778374044671 -3.8816232415166456 a25.30320745620037,25.30320745620037 0 0,0 0.3934182290333173,-0.18413959603851798 l 1.7906708944996272 3.9129390691257067" fill="red" stroke="none" /><path d="M 91.5904679813234 80.7573450057729 l -4.536317769627661 -10.379982808943957 a32.32793988424249,32.32793988424249 0 0,0 0.5104195694101753,-0.21786776275748324 l 4.357463125047054 10.456325221360844" fill="red" stroke="none" /><path d="M 92.25597844496254 80.48000691201159 l -6.74033170864461 -16.990039016343527 a39.27822467635835,39.27822467635835 0 0,0 0.6288775531525139,-0.24326334738792105 l 6.447681892998566 17.10324225186949" fill="red" stroke="none" /><path d="M 93.27111125876988 80.10723608172694 l -1.2103774890321297 -3.578265976338102 a24.777433131555686,24.777433131555686 0 0,0 0.4040813079528978,-0.13282955199873284 l 1.1487734434314707 3.5985164497388635" fill="red" stroke="none" /><path d="M 94.30408787586887 79.78721728523814 l -1.1231463135966593 -3.985650041445833 a25.14087718902927,25.14087718902927 0 0,0 0.41640308015054667,-0.11349251115727829 l 1.054561832511435 4.004343046747251" fill="red" stroke="none" /><path d="M 94.6519064749342 79.69241777938228 l -1.0880298197868241 -4.131426445750673 a25.272293689037937,25.272293689037937 0 0,0 0.42047645919064464,-0.10688347166585953 l 1.0169480673708013 4.149495149251796" fill="red" stroke="none" /><path d="M 95.70440661134978 79.44403061299748 l -0.9300302243152981 -4.450531298079782 a25.546667466763726,25.546667466763726 0 0,0 0.43003984440344933,-0.086020012848952 l 0.853493894380872 4.4658407075916005" fill="red" stroke="none" /><path d="M 97.12497278360702 79.19773525538626 l -0.6062506750373152 -4.386527881134044 a25.428223880174706,25.428223880174706 0 0,0 0.43291209462326596,-0.05604913785106158 l 0.5308607585232552 4.3962886151855" fill="red" stroke="none" /><path d="M 98.5590905019552 79.04949213459386 l -4.322728494134429 -62.8515235962184 a84.0,84.0 0 0,0 1.439422591470065,-0.0865920887012237 l 3.24316155053188 62.91646766274432" fill="red" stroke="none" /></svg>