<?xml version="1.0" encoding="utf-8" ?>
<svg baseProfile="full" height="200mm" version="1.1" viewBox="0,0,200,200" width="200mm" xmlns="http://www.w3.org/2000/svg" xmlns:ev="http://www.w3.org/2001/xml-events" xmlns:xlink="http://www.w3.org/1999/xlink"><defs /><rect fill="#1a1a1a" height="200" width="200" x="0" y="0" /><text alignment-baseline="middle" fill="#e1ed5e" style="dominant-baseline: central; font-size:9.0px; font-family:Arial;" text-anchor="middle" x="100.0" y="100.0">2025</text><line stroke="#e1ed5e" stroke-width="0.3" x1="100.0" x2="100.0" y1="15.0" y2="10.0" /><path d="M 100.0 14.0 a86.0,86.0 0 0,1 42.46469731375804,11.215312516191453" fill="none" id="id61" stroke="none" /><text fill="#e1ed5e" style="font-size:6.75px; font-family:Arial;" text-anchor="middle"><textPath startOffset="22.20632615414155" xlink:href="#id61">January</textPath></text><path d="M 101.80526077348638 79.07773832637324 l 0.6267773033540799 -7.264102197567175 a28.291092546710683,28.291092546710683 0 0,0 0.48482158736788794,0.04603965156450179 l -0.751724017812212 7.2522370014874955" fill="red" stroke="none" /><path d="M 102.16513564639614 79.11191278185805 l 0.7186426067823183 -6.933084988983426 a27.97023060312571,27.97023060312571 0 0,0 0.478468483007334,0.0537615090239329 l -0.8378777932993775 6.919687526488892" fill="red" stroke="none" /><path d="M 104.66035177308747 79.52364482259891 l 1.3649020032246146 -5.997019015124219 a27.150381658577622,27.150381658577622 0 0,0 0.45480291225784575,0.10763715523867476 l -1.467928602444984 5.972635947744676" fill="red" stroke="none" /><path d="M 105.71112130821622 79.79150937346287 l 1.7673345722852154 -6.2536167961622 a27.49855326389163,27.49855326389163 0 0,0 0.45439366576303697,0.13264997133096487 l -1.8747184557716796 6.222268495912532" fill="red" stroke="none" /><line stroke="#e1ed5e" stroke-width="0.3" x1="143.23703022742887" x2="145.7803849466894" y1="26.81831364943548" y2="22.513508569990506" /><path d="M 143.74570117128098 25.957352633546492 a86.0,86.0 0 0,1 28.547481713284135,27.462654790039103" fill="none" id="id62" stroke="none" /><text fill="#e1ed5e" style="font-size:6.75px; font-family:Arial;" text-anchor="middle"><textPath startOffset="19.985693538727396" xlink:href="#id62">February</textPath></text><path d="M 111.60114157652 82.49532879139004 l 21.761135391572633 -32.834830748595145 a60.39128233276043,60.39128233276043 0 0,0 0.8615687945554368,0.5817350960440579 l -22.323108880534612 32.455383740252415" fill="red" stroke="none" /><path d="M 111.90073688211348 82.69761687909136 l 33.55418262074886 -48.78414914673983 a80.20959702039798,80.20959702039798 0 0,0 1.1308363802039914,0.7922231513251052 l -34.3889501405365 48.19934115265079" fill="red" stroke="none" /><path d="M 112.48926042617603 83.11751280151076 l 3.645323086623895 -4.927603256258483 a27.12940896473407,27.12940896473407 0 0,0 0.37303434213470327,0.280961732682905 l -3.7296035825169813 4.86412493406973" fill="red" stroke="none" /><path d="M 113.06298171725822 83.55741782278167 l 36.422350163185406 -45.845389560209476 a79.55243236055233,79.55243236055233 0 0,0 1.064853255832355,0.8610372773029185 l -37.20610681758225 45.21164618564242" fill="red" stroke="none" /><path d="M 114.68862486808459 84.99185889309783 l 40.93797906749477 -41.82848782606891 a79.52811737913868,79.52811737913868 0 0,0 0.9701074548869671,0.9659415051765485 l -41.65192232254906 41.11761047024224" fill="red" stroke="none" /><path d="M 114.94478906791727 85.2469230424477 l 26.97396157564989 -26.627938953646296 a58.90305707992101,58.90305707992101 0 0,0 0.7060954497215101,0.7276934284803258 l -27.42832128907451 26.159681329615854" fill="red" stroke="none" /><path d="M 115.4437574822437 85.77008943001954 l 5.490106454675186 -5.058595614410702 a28.465296944784,28.465296944784 0 0,0 0.3289183488287985,0.36319985599521404 l -5.57636844412002 4.963342971145939" fill="red" stroke="none" /><path d="M 115.68641384162765 86.03803664274999 l 43.883904548748184 -39.059626595896546 a79.74905538180602,79.74905538180602 0 0,0 0.9038535263262203,1.033260827471381 l -44.54974993865225 38.29845021222222" fill="red" stroke="none" /><path d="M 116.15771136456269 86.58626213691792 l 45.70158962884688 -37.94034497682673 a80.39785409898363,80.39785409898363 0 0,0 0.8748109950208872,1.0724148410792167 l -46.34789911594418 37.148045966139414" fill="red" stroke="none" /><path d="M 116.60985879189232 87.15038557335679 l 46.34328291729448 -35.85179887518068 a79.59224653602902,79.59224653602902 0 0,0 0.8289875851925479,1.0908504892809154 l -46.95354644271114 35.048763610018725" fill="red" stroke="none" /><path d="M 117.04232023915458 87.72973835380427 l 51.126960717463746 -36.81078493858721 a84.0,84.0 0 0,0 0.8347495207844684,1.1806939986728273 l -51.75302285805209 35.92526443958259" fill="red" stroke="none" /><line stroke="#e1ed5e" stroke-width="0.3" x1="172.23445277983987" x2="176.4835382374775" y1="55.19839476539836" y2="52.563006222186495" /><path d="M 173.08426987136738 54.67131705675599 a86.0,86.0 0 0,1 12.851231095245387,41.99856678651699" fill="none" id="id63" stroke="none" /><text fill="#e1ed5e" style="font-size:6.75px; font-family:Arial;" text-anchor="middle"><textPath startOffset="22.20632615414155" xlink:href="#id63">March</textPath></text><line stroke="#e1ed5e" stroke-width="0.3" x1="184.98032266829074" x2="189.97916517819016" y1="98.17113171792111" y2="98.06355123074" /><path d="M 185.9800911702706 98.14961562048488 a86.0,86.0 0 0,1 -9.607161424134198,41.387399972396054" fill="none" id="id64" stroke="none" /><text fill="#e1ed5e" style="font-size:6.75px; font-family:Arial;" text-anchor="middle"><textPath startOffset="21.466115282336823" xlink:href="#id64">April</textPath></text><line stroke="#e1ed5e" stroke-width="0.3" x1="174.80103733775053" x2="179.2010983576182" y1="140.37084112569926" y2="142.7455964860345" /><path d="M 175.68104954172406 140.8457921977663 a86.0,86.0 0 0,1 -30.038265399797805,32.042727171017184" fill="none" id="id65" stroke="none" /><text fill="#e1ed5e" style="font-size:6.75px; font-family:Arial;" text-anchor="middle"><textPath startOffset="22.206326154141568" xlink:href="#id65">May</textPath></text><line stroke="#e1ed5e" stroke-width="0.3" x1="143.8653032363475" x2="146.44561519142675" y1="172.8068346515853" y2="177.08958963109032" /><path d="M 144.38136562736335 173.6633856474863 a86.0,86.0 0 0,1 -40.68145358897372,12.25698825130547" fill="none" id="id66" stroke="none" /><text fill="#e1ed5e" style="font-size:6.75px; font-family:Arial;" text-anchor="middle"><textPath startOffset="21.466115282336833" xlink:href="#id66">June</textPath></text><line stroke="#e1ed5e" stroke-width="0.3" x1="102.19456741930631" x2="102.32365962044197" y1="184.97166512339345" y2="189.96999836594603" /><path d="M 102.22038585953345 185.97133177190398 a86.0,86.0 0 0,1 -42.740103519485714,-10.115201625700543" fill="none" id="id67" stroke="none" /><text fill="#e1ed5e" style="font-size:6.75px; font-family:Arial;" text-anchor="middle"><textPath startOffset="22.20632615414155" xlink:href="#id67">July</textPath></text><line stroke="#e1ed5e" stroke-width="0.3" x1="58.666819895761336" x2="56.23545636021788" y1="174.27360380694188" y2="178.64263932499728" /><path d="M 58.180547188652646 175.14741091055294 a86.0,86.0 0 0,1 -31.652253787137756,-30.449443065178592" fill="none" id="id68" stroke="none" /><text fill="#e1ed5e" style="font-size:6.75px; font-family:Arial;" text-anchor="middle"><textPath startOffset="22.20632615414155" xlink:href="#id68">August</textPath></text><line stroke="#e1ed5e" stroke-width="0.3" x1="26.63291911575756" x2="22.317208475507996" y1="142.92168965132927" y2="145.44649492493687" /><path d="M 25.769776987707644 143.4266507060508 a86.0,86.0 0 0,1 -11.730757126820373,-40.83630448921669" fill="none" id="id69" stroke="none" /><text fill="#e1ed5e" style="font-size:6.75px; font-family:Arial;" text-anchor="middle"><textPath startOffset="21.46611528233685" xlink:href="#id69">September</textPath></text><line stroke="#e1ed5e" stroke-width="0.3" x1="15.007084014347285" x2="10.007500721073583" y1="101.09737516637583" y2="101.16192664675087" /><path d="M 14.007167355692545 101.11028546245083 a86.0,86.0 0 0,1 10.666146001902534,-42.60595125391555" fill="none" id="id70" stroke="none" /><text fill="#e1ed5e" style="font-size:6.75px; font-family:Arial;" text-anchor="middle"><textPath startOffset="22.20632615414155" xlink:href="#id70">October</textPath></text><line stroke="#e1ed5e" stroke-width="0.3" x1="26.266209847984243" x2="21.928928074336255" y1="57.711370442889674" y2="55.22380399835377" /><path d="M 25.398753493254645 57.213857153982495 a86.0,86.0 0 0,1 29.58750427330803,-30.492523968695096" fill="none" id="id71" stroke="none" /><text fill="#e1ed5e" style="font-size:6.75px; font-family:Arial;" text-anchor="middle"><textPath startOffset="21.46611528233685" xlink:href="#id71">November</textPath></text><line stroke="#e1ed5e" stroke-width="0.3" x1="56.762969772571076" x2="54.21961505331055" y1="26.818313649435495" y2="22.513508569990535" /><path d="M 56.25429882871897 25.957352633546506 a86.0,86.0 0 0,1 42.265352541879196,-11.944610805530505" fill="none" id="id72" stroke="none" /><text fill="#e1ed5e" style="font-size:6.75px; font-family:Arial;" text-anchor="middle"><textPath startOffset="22.20632615414155" xlink:href="#id72">December</textPath></text></svg>