<?xml version="1.0" encoding="utf-8" ?>
<svg baseProfile="full" height="200mm" version="1.1" viewBox="0,0,200,200" width="200mm" xmlns="http://www.w3.org/2000/svg" xmlns:ev="http://www.w3.org/2001/xml-events" xmlns:xlink="http://www.w3.org/1999/xlink"><defs /><rect fill="#1a1a1a" height="200" width="200" x="0" y="0" /><text alignment-baseline="middle" fill="#e1ed5e" style="dominant-baseline: central; font-size:9.0px; font-family:Arial;" text-anchor="middle" x="100.0" y="100.0">2023</text><line stroke="#e1ed5e" stroke-width="0.3" x1="100.0" x2="100.0" y1="15.0" y2="10.0" /><path d="M 100.0 14.0 a86.0,86.0 0 0,1 42.46469731375804,11.215312516191453" fill="none" id="id37" stroke="none" /><text fill="#e1ed5e" style="font-size:6.75px; font-family:Arial;" text-anchor="middle"><textPath startOffset="22.20632615414155" xlink:href="#id37">January</textPath></text><path d="M 110.36928655335952 81.73862282372117 l 6.428875347358017 -11.3219088828584 a34.01983329323443,34.01983329323443 0 0,0 0.5067388102432638,0.2935358266198885 l -6.622810890066609 11.209568898848463" fill="red" stroke="none" /><line stroke="#e1ed5e" stroke-width="0.3" x1="143.23703022742887" x2="145.7803849466894" y1="26.81831364943548" y2="22.513508569990506" /><path d="M 143.74570117128098 25.957352633546492 a86.0,86.0 0 0,1 28.547481713284135,27.462654790039103" fill="none" id="id38" stroke="none" /><text fill="#e1ed5e" style="font-size:6.75px; font-family:Arial;" text-anchor="middle"><textPath startOffset="19.985693538727396" xlink:href="#id38">February</textPath></text><path d="M 111.2981086023043 82.29822771554956 l 10.435979800467292 -16.35099683457805 a40.39754551174305,40.39754551174305 0 0,0 0.5829423032113523,0.3791618896037612 l -10.715889129462925 16.168936020814762" fill="red" stroke="none" /><line stroke="#e1ed5e" stroke-width="0.3" x1="172.23445277983987" x2="176.4835382374775" y1="55.19839476539836" y2="52.563006222186495" /><path d="M 173.08426987136738 54.67131705675599 a86.0,86.0 0 0,1 12.851231095245387,41.99856678651699" fill="none" id="id39" stroke="none" /><text fill="#e1ed5e" style="font-size:6.75px; font-family:Arial;" text-anchor="middle"><textPath startOffset="22.20632615414155" xlink:href="#id39">March</textPath></text><line stroke="#e1ed5e" stroke-width="0.3" x1="184.98032266829074" x2="189.97916517819016" y1="98.17113171792111" y2="98.06355123074" /><path d="M 185.9800911702706 98.14961562048488 a86.0,86.0 0 0,1 -9.607161424134198,41.387399972396054" fill="none" id="id40" stroke="none" /><text fill="#e1ed5e" style="font-size:6.75px; font-family:Arial;" text-anchor="middle"><textPath startOffset="21.466115282336823" xlink:href="#id40">April</textPath></text><path d="M 120.9764740272857 100.99374915477107 l 15.781601972764927 0.7476448902217068 a36.7993016842091,36.7993016842091 0 0,0 -0.035421341515645466,0.6324718474731693 l -15.766394280361752 -1.0191884540302993" fill="red" stroke="none" /><path d="M 120.89721153311464 102.0752229133903 l 14.348352924020096 1.424880573666625 a35.41892909620713,35.41892909620713 0 0,0 -0.06547053861010425,0.6061758758132677 l -14.32170008390894 -1.6716527713646843" fill="red" stroke="none" /><path d="M 120.8583938346157 102.4346265915055 l 14.126273300429771 1.648842230556831 a35.22217557407103,35.22217557407103 0 0,0 -0.07547355913693939,0.6015985254186411 l -14.095798232045984 -1.8917585102628671" fill="red" stroke="none" /><path d="M 120.81339534386255 102.79330883721812 l 19.17616894805355 2.5735811625939635 a40.348094881014816,40.348094881014816 0 0,0 -0.09830707448853965,0.687559450006439 l -19.129027822548412 -2.9032860845808117" fill="red" stroke="none" /><path d="M 120.64145759157962 103.86396538481128 l 19.097538304606076 3.574952331574095 a40.4292628133165,40.4292628133165 0 0,0 -0.13393650112699615,0.6829393337041155 l -19.033171870503416 -3.9031553923461555" fill="red" stroke="none" /><path d="M 120.32669344350535 105.2749913415812 l 37.478732297168925 9.72612633286767 a59.720187345178935,59.720187345178935 0 0,0 -0.26678407886098515,0.9928028035550881 l -37.30576014196616 -10.369820069598306" fill="red" stroke="none" /><path d="M 120.02730092923936 106.31721596034902 l 3.844635311276728 1.2127141663238197 a25.031364077569574,25.031364077569574 0 0,0 -0.13315225405228925,0.4098005002345105 l -3.823190806208192 -1.2787135665361253" fill="red" stroke="none" /><path d="M 119.26925614724726 108.34839909993367 l 21.445963082480112 9.291456687629562 a44.37221640994272,44.37221640994272 0 0,0 -0.3096735192909723,0.6982320345796207 l -21.282848478457865 -9.659237058701871" fill="red" stroke="none" /><path d="M 118.97047184881838 109.00673069616215 l 56.911415546455125 27.02019208848646 a84.0,84.0 0 0,0 -0.6313869735411428,1.3008441761388982 l -56.43787531629926 -27.995825220590632" fill="red" stroke="none" /><line stroke="#e1ed5e" stroke-width="0.3" x1="174.80103733775053" x2="179.2010983576182" y1="140.37084112569926" y2="142.7455964860345" /><path d="M 175.68104954172406 140.8457921977663 a86.0,86.0 0 0,1 -30.038265399797805,32.042727171017184" fill="none" id="id41" stroke="none" /><text fill="#e1ed5e" style="font-size:6.75px; font-family:Arial;" text-anchor="middle"><textPath startOffset="22.206326154141568" xlink:href="#id41">May</textPath></text><path d="M 118.30583269289576 110.29060199501025 l 14.286011644124125 8.030864391261288 a37.388560387260334,37.388560387260334 0 0,0 -0.3202027596373803,0.5583005013987042 l -14.145656888334365 -8.275584738518308" fill="red" stroke="none" /><path d="M 117.75023020441432 111.22182372390056 l 17.300599178763303 10.93756374233718 a41.468049065846856,41.468049065846856 0 0,0 -0.3866305872540317,0.6000592573575347 l -17.109763728132222 -11.233744599616166" fill="red" stroke="none" /><path d="M 116.498646956653 112.99209946851258 l 16.189124749819992 12.748361705685518 a41.606030339301725,41.606030339301725 0 0,0 -0.4479227719151632,0.5588525292388516 l -15.967284065849974 -13.025142068502621" fill="red" stroke="none" /><path d="M 116.0416608686014 113.55231037782055 l 18.24772709342764 15.416038481647414 a44.88794228358414,44.88794228358414 0 0,0 -0.503722849003865,0.5859434738783804 l -17.979661734852993 -15.727859054687322" fill="red" stroke="none" /><path d="M 113.48314897796784 116.09983520530334 l 12.40600150156593 14.81364479902535 a40.32234316765301,40.32234316765301 0 0,0 -0.5359604983411351,0.4410590021298 l -12.149170874680102 -15.02499892001233" fill="red" stroke="none" /><path d="M 111.45004920935366 117.60387380957326 l 10.55672756084588 16.230436780250766 a40.36160052453412,40.36160052453412 0 0,0 -0.585662579920843,0.373797568171394 l -10.275783178878108 -16.40974877724597" fill="red" stroke="none" /><line stroke="#e1ed5e" stroke-width="0.3" x1="143.8653032363475" x2="146.44561519142675" y1="172.8068346515853" y2="177.08958963109032" /><path d="M 144.38136562736335 173.6633856474863 a86.0,86.0 0 0,1 -40.68145358897372,12.25698825130547" fill="none" id="id42" stroke="none" /><text fill="#e1ed5e" style="font-size:6.75px; font-family:Arial;" text-anchor="middle"><textPath startOffset="21.466115282336833" xlink:href="#id42">June</textPath></text><path d="M 110.8373102113329 117.98757091392108 l 10.033339021986189 16.653154116845286 a40.442104669235576,40.442104669235576 0 0,0 -0.5993753493475809,0.3541215212392694 l -9.745195801610224 -16.823394210378304" fill="red" stroke="none" /><path d="M 110.5260780823613 118.17145234162733 l 9.780830142571194 16.88491073376251 a40.513196784867354,40.513196784867354 0 0,0 -0.6064463507279603,0.34435606522086 l -9.488735024922034 -17.050769964778" fill="red" stroke="none" /><path d="M 110.21172684928248 118.3499491758327 l 9.457513495652409 16.994666478683513 a40.44899098262263,40.44899098262263 0 0,0 -0.6113136676578645,0.3333369531632187 l -9.163577016125895 -17.1549440836065" fill="red" stroke="none" /><path d="M 109.2508944713604 118.85261126421891 l 8.580556367714467 17.486513777888817 a40.478298480201516,40.478298480201516 0 0,0 -0.6281602236001479,0.30155508056199454 l -8.278283476114087 -17.63162313495037" fill="red" stroke="none" /><path d="M 108.2653958097858 119.30500536409082 l 4.925741415627651 11.504768390913926 a33.51489609314443,33.51489609314443 0 0,0 -0.5322940180495573,0.22249894271503806 l -4.726975938080632 -11.587852376648938" fill="red" stroke="none" /><path d="M 107.59598834532513 119.57807347666477 l 7.056749343177256 18.188226583069714 a40.50921058191531,40.50921058191531 0 0,0 -0.6522557348208841,0.2466273076046123 l -6.7426233875960975 -18.307002140780956" fill="red" stroke="none" /><path d="M 105.88484417918355 120.15858648285463 l 5.463236307299065 18.714364938756777 a40.495497070102104,40.495497070102104 0 0,0 -0.6708152982285609,0.18957910387229546 l -5.140289840965898 -18.805632835967593" fill="red" stroke="none" /><path d="M 104.48393922423573 120.51570834832081 l 4.134803946256387 18.91828314272942 a40.364866143158785,40.364866143158785 0 0,0 -0.6800682999861803,0.14251492444233096 l -3.808544184840828 -18.98665404789829" fill="red" stroke="none" /><path d="M 103.7750983002368 120.6578951692458 l 3.50190102661118 19.16291935928398 a40.48026666066461,40.48026666066461 0 0,0 -0.6865280288705422,0.11936169778462262 l -3.1715240262685875 -19.22035963558961" fill="red" stroke="none" /><path d="M 102.70371172650421 120.8252237178851 l 1.7259541968004757 13.294088242782431 a34.405659256311836,34.405659256311836 0 0,0 -0.58796417137756,0.07119427294470318 l -1.4968626023715355 -13.321828044452484" fill="red" stroke="none" /><path d="M 101.98527174616119 120.90594882070398 l 1.838391997429513 19.359228319734843 a40.44632115007454,40.44632115007454 0 0,0 -0.6936653518404671,0.05985236534837508 l -1.5048823278475043 -19.38800493736188" fill="red" stroke="none" /><line stroke="#e1ed5e" stroke-width="0.3" x1="102.19456741930631" x2="102.32365962044197" y1="184.97166512339345" y2="189.96999836594603" /><path d="M 102.22038585953345 185.97133177190398 a86.0,86.0 0 0,1 -42.740103519485714,-10.115201625700543" fill="none" id="id43" stroke="none" /><text fill="#e1ed5e" style="font-size:6.75px; font-family:Arial;" text-anchor="middle"><textPath startOffset="22.20632615414155" xlink:href="#id43">July</textPath></text><path d="M 98.01472825383883 120.90594882070398 l -1.1843230445665454 12.471540485459764 a33.52764715157453,33.52764715157453 0 0,0 -0.5740690013435965,-0.05950459921579034 l 1.3988246425157351 -12.449306517788214" fill="red" stroke="none" /><path d="M 95.86986931433489 120.58985236759428 l -3.2592924430138774 16.24848106075475 a37.57214904623999,37.57214904623999 0 0,0 -0.6330165307146396,-0.1326547687156993 l 3.538500435157904 -16.189970311312507" fill="red" stroke="none" /><line stroke="#e1ed5e" stroke-width="0.3" x1="58.666819895761336" x2="56.23545636021788" y1="174.27360380694188" y2="178.64263932499728" /><path d="M 58.180547188652646 175.14741091055294 a86.0,86.0 0 0,1 -31.652253787137756,-30.449443065178592" fill="none" id="id44" stroke="none" /><text fill="#e1ed5e" style="font-size:6.75px; font-family:Arial;" text-anchor="middle"><textPath startOffset="22.20632615414155" xlink:href="#id44">August</textPath></text><path d="M 89.7882731507175 118.34994917583269 l -5.647152960419947 10.147644109687498 a32.61313986548234,32.61313986548234 0 0,0 -0.4881895586326432,-0.27720677235644964 l 5.820991285973798 -10.048934171536414" fill="red" stroke="none" /><line stroke="#e1ed5e" stroke-width="0.3" x1="26.63291911575756" x2="22.317208475507996" y1="142.92168965132927" y2="145.44649492493687" /><path d="M 25.769776987707644 143.4266507060508 a86.0,86.0 0 0,1 -11.730757126820373,-40.83630448921669" fill="none" id="id45" stroke="none" /><text fill="#e1ed5e" style="font-size:6.75px; font-family:Arial;" text-anchor="middle"><textPath startOffset="21.46611528233685" xlink:href="#id45">September</textPath></text><line stroke="#e1ed5e" stroke-width="0.3" x1="15.007084014347285" x2="10.007500721073583" y1="101.09737516637583" y2="101.16192664675087" /><path d="M 14.007167355692545 101.11028546245083 a86.0,86.0 0 0,1 10.666146001902534,-42.60595125391555" fill="none" id="id46" stroke="none" /><text fill="#e1ed5e" style="font-size:6.75px; font-family:Arial;" text-anchor="middle"><textPath startOffset="22.20632615414155" xlink:href="#id46">October</textPath></text><line stroke="#e1ed5e" stroke-width="0.3" x1="26.266209847984243" x2="21.928928074336255" y1="57.711370442889674" y2="55.22380399835377" /><path d="M 25.398753493254645 57.213857153982495 a86.0,86.0 0 0,1 29.58750427330803,-30.492523968695096" fill="none" id="id47" stroke="none" /><text fill="#e1ed5e" style="font-size:6.75px; font-family:Arial;" text-anchor="middle"><textPath startOffset="21.46611528233685" xlink:href="#id47">November</textPath></text><line stroke="#e1ed5e" stroke-width="0.3" x1="56.762969772571076" x2="54.21961505331055" y1="26.818313649435495" y2="22.513508569990535" /><path d="M 56.25429882871897 25.957352633546506 a86.0,86.0 0 0,1 42.265352541879196,-11.944610805530505" fill="none" id="id48" stroke="none" /><text fill="#e1ed5e" style="font-size:6.75px; font-family:Arial;" text-anchor="middle"><textPath startOffset="22.20632615414155" xlink:href="#id48">December</textPath></text></svg>