<?xml version="1.0" encoding="utf-8" ?>
<svg baseProfile="full" height="200mm" version="1.1" viewBox="0,0,200,200" width="200mm" xmlns="http://www.w3.org/2000/svg" xmlns:ev="http://www.w3.org/2001/xml-events" xmlns:xlink="http://www.w3.org/1999/xlink"><defs /><rect fill="#1a1a1a" height="200" width="200" x="0" y="0" /><text alignment-baseline="middle" fill="#e1ed5e" style="dominant-baseline: central; font-size:9.0px; font-family:Arial;" text-anchor="middle" x="100.0" y="100.0">2025</text><line stroke="#e1ed5e" stroke-width="0.3" x1="100.0" x2="100.0" y1="15.0" y2="10.0" /><path d="M 100.0 14.0 a86.0,86.0 0 0,1 42.46469731375804,11.215312516191453" fill="none" id="id61" stroke="none" /><text fill="#e1ed5e" style="font-size:6.75px; font-family:Arial;" text-anchor="middle"><textPath startOffset="22.20632615414155" xlink:href="#id61">January</textPath></text><path d="M 101.80526077348638 79.07773832637324 l 0.28954485238340266 -3.3557108517446568 a24.368179262162062,24.368179262162062 0 0,0 0.4175950197625104,0.039655678925757845 l -0.3472649992361573 3.3502296283037207" fill="#ff0801" stroke="none" /><path d="M 102.16513564639614 79.11191278185805 l 0.3354486799904093 -3.2362320099958675 a24.253570875120012,24.253570875120012 0 0,0 0.41489001033951806,0.04661772682416309 l -0.3911053938396526 3.2299783297011033" fill="#ff0701" stroke="none" /><path d="M 104.66035177308747 79.52364482259891 l 0.6285006637592763 -2.761465968016685 a23.83208534067393,23.83208534067393 0 0,0 0.3992172911017508,0.09448183461041827 l -0.6759416418235505 2.750238221265398" fill="#ff0000" stroke="none" /><path d="M 105.71112130821622 79.79150937346287 l 0.8225631867795472 -2.9105948819288616 a24.024594644403678,24.024594644403678 0 0,0 0.39698901699225897,0.11589198021565995 l -0.8725424214952333 2.896004572794498" fill="#ff0300" stroke="none" /><line stroke="#e1ed5e" stroke-width="0.3" x1="143.23703022742887" x2="145.7803849466894" y1="26.81831364943548" y2="22.513508569990506" /><path d="M 143.74570117128098 25.957352633546492 a86.0,86.0 0 0,1 28.547481713284135,27.462654790039103" fill="none" id="id62" stroke="none" /><text fill="#e1ed5e" style="font-size:6.75px; font-family:Arial;" text-anchor="middle"><textPath startOffset="19.985693538727396" xlink:href="#id62">February</textPath></text><path d="M 111.60114157652 82.49532879139004 l 10.006962311793226 -15.0992541474903 a39.11426980367006,39.11426980367006 0 0,0 0.5580215054712145,0.37677861144848995 l -10.265388511670983 14.924763623743138" fill="#ffd614" stroke="none" /><path d="M 111.90073688211348 82.69761687909136 l 15.466563642314675 -22.48670921423814 a48.29224582527925,48.29224582527925 0 0,0 0.68084905659222,0.4769782743396653 l -15.851343838490546 22.217146097134542" fill="#b7ff1f" stroke="none" /><path d="M 112.48926042617603 83.11751280151076 l 1.672180594990474 -2.260387446907652 a23.811679098403726,23.811679098403726 0 0,0 0.3274149488159617,0.24660215142443678 l -1.7108416975648186 2.2312687059773677" fill="#ff0000" stroke="none" /><path d="M 113.06298171725822 83.55741782278167 l 16.804582716074695 -21.152194670675502 a48.01498361368279,48.01498361368279 0 0,0 0.6427070815137085,0.5196910959691821 l -17.166193196152893 20.85979747744219" fill="#baff1f" stroke="none" /><path d="M 114.68862486808459 84.99185889309783 l 18.87110129890428 -19.281597404804074 a47.97959344976225,47.97959344976225 0 0,0 0.5852692459216914,0.5827559137817497 l -19.200206344993294 18.953905640372206" fill="#baff1f" stroke="none" /><path d="M 114.94478906791727 85.2469230424477 l 12.41018036816706 -12.250982278613645 a38.43843867900291,38.43843867900291 0 0,0 0.46077755537912807,0.4748717743087962 l -12.619222187249298 12.035546308754734" fill="#ffcd13" stroke="none" /><path d="M 115.4437574822437 85.77008943001954 l 2.5313679655515675 -2.3324077583403615 a24.442085084391,24.442085084391 0 0,0 0.28242987534911507,0.3118661224610999 l -2.5711414815167184 2.288488848609713" fill="#ff0901" stroke="none" /><path d="M 115.68641384162765 86.03803664274999 l 20.244002347622676 -18.018523662274045 a48.1014174171478,48.1014174171478 0 0,0 0.5451680342247325,0.6232213049425952 l -20.551162245425257 17.667386801128504" fill="#b9ff1f" stroke="none" /><path d="M 116.15771136456269 86.58626213691792 l 21.00499776218784 -17.437836797515963 a48.299964893133435,48.299964893133435 0 0,0 0.5255530862255954,0.6442659416161737 l -21.302049340489845 17.07368668629169" fill="#b7ff1f" stroke="none" /><path d="M 116.60985879189232 87.15038557335679 l 21.35749301686469 -16.522449337160825 a48.002478405962485,48.002478405962485 0 0,0 0.4999665217264971,0.65789733717514 l -21.638735478815303 16.15236722410465" fill="#baff1f" stroke="none" /><path d="M 117.04232023915458 87.72973835380427 l 23.62693885514747 -17.011106327251444 a50.11374208414183,50.11374208414183 0 0,0 0.4980050260649267,0.70439279202124 l -23.916256501016278 16.601887034898407" fill="#a2ff22" stroke="none" /><path d="M 117.45458315368197 88.32363383020206 l 26.23684134285809 -17.55131955663351 a52.5661315626317,52.5661315626317 0 0,0 0.4966332080116243,0.7564064478476356 l -26.53507118622764 17.0970950448082" fill="#86ff25" stroke="none" /><line stroke="#e1ed5e" stroke-width="0.3" x1="172.23445277983987" x2="176.4835382374775" y1="55.19839476539836" y2="52.563006222186495" /><path d="M 173.08426987136738 54.67131705675599 a86.0,86.0 0 0,1 12.851231095245387,41.99856678651699" fill="none" id="id63" stroke="none" /><text fill="#e1ed5e" style="font-size:6.75px; font-family:Arial;" text-anchor="middle"><textPath startOffset="22.20632615414155" xlink:href="#id63">March</textPath></text><path d="M 117.84615892207809 88.93136811851018 l 23.02299651828905 -14.279435389006911 a48.091708024965364,48.091708024965364 0 0,0 0.43027010339631505,0.7072509180773774 l -23.26538241997159 13.881016697722453" fill="#b9ff1f" stroke="none" /><path d="M 118.56541770881063 90.18545643968196 l 23.99523909075671 -12.684999766243623 a48.14186283386201,48.14186283386201 0 0,0 0.3809868320517835,0.735945293850981 l -24.21003535596861 12.270081750132297" fill="#b9ff1f" stroke="none" /><path d="M 119.7369772167798 92.82701384747503 l 2.9768265227030035 -1.0818645221753727 a24.167321737779382,24.167321737779382 0 0,0 0.13872838955082972,0.39220383862604224 l -2.995007993063643 1.0304630571227158" fill="#ff0500" stroke="none" /><path d="M 119.97218684219823 93.5106431181261 l 24.32470690433546 -7.903576378311159 a46.5765104255765,46.5765104255765 0 0,0 0.2411876235235437,0.7646306770312216 l -24.457150011627213 7.483695534853518" fill="#cbff1d" stroke="none" /><path d="M 120.53481517161879 95.60439243477599 l 17.310084888382505 -3.7053335739396345 a38.70221838463114,38.70221838463114 0 0,0 0.13383725470206972,0.6526379852608496 l -17.371301438999573 3.406819932515373" fill="#ffd113" stroke="none" /><path d="M 120.67395015179393 96.31383870115 l 12.456447597833948 -2.2209821886556185 a33.652898823586185,33.652898823586185 0 0,0 0.09677313878117363,0.5711605430997779 l -12.492832598135346 2.0062358572400028" fill="#ff8e0d" stroke="none" /><path d="M 120.94382443527127 98.46500227214037 l 27.70942942357592 -2.030856940046012 a48.783751706547264,48.783751706547264 0 0,0 0.054171821827810406,0.8380141066603547 l -27.740281836408144 1.5535837691326224" fill="#b1ff20" stroke="none" /><line stroke="#e1ed5e" stroke-width="0.3" x1="184.98032266829074" x2="189.97916517819016" y1="98.17113171792111" y2="98.06355123074" /><path d="M 185.9800911702706 98.14961562048488 a86.0,86.0 0 0,1 -9.607161424134198,41.387399972396054" fill="none" id="id64" stroke="none" /><text fill="#e1ed5e" style="font-size:6.75px; font-family:Arial;" text-anchor="middle"><textPath startOffset="21.466115282336823" xlink:href="#id64">April</textPath></text><path d="M 120.9904718944345 100.63252640178507 l 56.961126611219576 1.7164652914054552 a77.98698270584245,77.98698270584245 0 0,0 -0.05198340110723317,1.3414605995274047 l -56.923141077261135 -2.6967031379468662" fill="#45fff2" stroke="none" /><path d="M 120.89721153311464 102.0752229133903 l 27.68491777224512 2.749284306437145 a48.821093369125435,48.821093369125435 0 0,0 -0.09024392775198602,0.8355466917366525 l -27.633491542992083 -3.225427320058589" fill="#b1ff20" stroke="none" /><path d="M 120.76222939487914 103.15116336523771 l 27.748990186528562 4.211570907683748 a49.066773699207154,49.066773699207154 0 0,0 -0.13392482798048705,0.8339500316757242 l -27.672383604186788 -4.688600169052677" fill="#aeff20" stroke="none" /><path d="M 120.64145759157962 103.86396538481128 l 27.625315140808546 5.171304447614761 a49.10516725299649,49.10516725299649 0 0,0 -0.1626785608110566,0.8294944768111036 l -27.532206647021827 -5.64606265149381" fill="#adff20" stroke="none" /><path d="M 120.41448212921028 104.9243191809786 l 5.355838717968549 1.2919190975402233 a26.509452180342446,26.509452180342446 0 0,0 -0.11082047455572365,0.44267270821295707 l -5.332806929117764 -1.3839196451505764" fill="#ff2803" stroke="none" /><path d="M 120.32669344350535 105.2749913415812 l 26.391436523550464 6.848856137892887 a48.265633170241,48.265633170241 0 0,0 -0.21561389972773495,0.8023795312263877 l -26.26963454748095 -7.302126602294823" fill="#b7ff1f" stroke="none" /><path d="M 120.13307415673323 105.97154293290107 l 26.80253021169614 7.949727827133363 a48.956641398322205,48.956641398322205 0 0,0 -0.24658580799811508,0.8058566878972061 l -26.661717631191895 -8.409911487582626" fill="#afff20" stroke="none" /><path d="M 119.67450827220406 107.3425965602758 l 29.048346398572416 10.840946335070127 a52.00536318012298,52.00536318012298 0 0,0 -0.32021861671462476,0.8359897622806126 l -28.857433502264286 -11.339359664183883" fill="#8cff24" stroke="none" /><path d="M 119.26925614724726 108.34839909993367 l 28.210687743469975 12.222271496439639 a51.74454136090255,51.74454136090255 0 0,0 -0.36112494537769824,0.8142414176253893 l -27.996121713361003 -12.706061250557715" fill="#8fff24" stroke="none" /><line stroke="#e1ed5e" stroke-width="0.3" x1="174.80103733775053" x2="179.2010983576182" y1="140.37084112569926" y2="142.7455964860345" /><path d="M 175.68104954172406 140.8457921977663 a86.0,86.0 0 0,1 -30.038265399797805,32.042727171017184" fill="none" id="id65" stroke="none" /><text fill="#e1ed5e" style="font-size:6.75px; font-family:Arial;" text-anchor="middle"><textPath startOffset="22.206326154141568" xlink:href="#id65">May</textPath></text><path d="M 118.48025628344425 109.97397251340804 l 55.44076885033275 29.921917540224147 a84.0,84.0 0 0,0 -0.6976943621939617,1.2665179264087798 l -54.91749807868728 -30.871805985030733" fill="#4dd2ff" stroke="none" /><path d="M 116.71984013943494 112.70617746262583 l 11.182477602799828 8.498080346946143 a35.04511213626549,35.04511213626549 0 0,0 -0.3691304711604886,0.47715089326319143 l -11.034540314421271 -8.689309234322588" fill="#ffa00e" stroke="none" /><path d="M 116.498646956653 112.99209946851258 l 21.771483610092517 17.144271368589553 a48.71143336863625,48.71143336863625 0 0,0 -0.5244182172753401,0.6542923590380922 l -21.473147480762325 -17.516491561205896" fill="#b2ff20" stroke="none" /><path d="M 115.32070863581623 114.36230785411682 l 20.612385697231776 19.322959272220704 a49.2532688226928,49.2532688226928 0 0,0 -0.5851603759253599,0.6135383147173864 l -20.276718769927452 -19.6749047035206" fill="#acff21" stroke="none" /><path d="M 114.81725581225074 114.88116024355365 l 19.092440846103162 19.17478346000647 a48.0590764476559,48.0590764476559 0 0,0 -0.5912411756679642,0.5786539301631447 l -18.759549718059404 -19.500587493092187" fill="#b9ff1f" stroke="none" /><path d="M 113.20401910651253 116.32954008644616 l 17.759054769085722 21.962797418715095 a49.24444187352451,49.24444187352451 0 0,0 -0.6637271570293829,0.5273049952905494 l -17.378370119338985 -22.26523632801077" fill="#acff21" stroke="none" /><path d="M 111.1453310114006 117.79835938074945 l 16.14015574338554 25.774765423135072 a51.411234109098245,51.411234109098245 0 0,0 -0.7540823553691344,0.46321897276322194 l -15.6940941880841 -26.048772862726672" fill="#93ff23" stroke="none" /><line stroke="#e1ed5e" stroke-width="0.3" x1="143.8653032363475" x2="146.44561519142675" y1="172.8068346515853" y2="177.08958963109032" /><path d="M 144.38136562736335 173.6633856474863 a86.0,86.0 0 0,1 -40.68145358897372,12.25698825130547" fill="none" id="id66" stroke="none" /><text fill="#e1ed5e" style="font-size:6.75px; font-family:Arial;" text-anchor="middle"><textPath startOffset="21.466115282336833" xlink:href="#id66">June</textPath></text><path d="M 110.21172684928248 118.3499491758327 l 13.692051728929593 24.603914406150004 a49.157146244831694,49.157146244831694 0 0,0 -0.7429217548450617,0.40510017573715323 l -13.266507162215882 -24.835955233646928" fill="#adff20" stroke="none" /><path d="M 109.57404056367764 118.69057910512821 l 12.781898064717867 24.95300446069203 a49.036214968361094,49.036214968361094 0 0,0 -0.7545648213835245,0.37835446595043554 l -12.350479335651581 -25.169326767551766" fill="#aeff20" stroke="none" /><path d="M 108.92500713936063 119.00905698771935 l 8.219222522613435 17.50583129934593 a40.33933164195174,40.33933164195174 0 0,0 -0.631083879701579,0.28969965646133883 l -7.9166706471444375 -17.644718026141344" fill="#ffe615" stroke="none" /><path d="M 107.2578585660854 119.70592522655815 l 5.118285667540106 13.896737410124224 a35.809326751088065,35.809326751088065 0 0,0 -0.5802482590673161,0.20805638145732336 l -4.878317847843055 -13.982781332621506" fill="#ffab0f" stroke="none" /><path d="M 106.57524785965236 119.94407469862006 l 3.934755566845398 11.93492026780033 a33.5668064029638,33.5668064029638 0 0,0 -0.5503016646669137,0.17618921507254448 l -3.728732557087544 -12.00088232953258" fill="#ff8c0c" stroke="none" /><path d="M 104.83641907484287 120.43548508189849 l 7.162463023314153 30.263797242868467 a52.099811898431085,52.099811898431085 0 0,0 -0.8744825673628084,0.19902938526096975 l -6.640460306558483 -30.382603361707123" fill="#8bff24" stroke="none" /><path d="M 104.13013068566511 120.58985236759428 l 2.1056258372386516 10.497131550972757 a31.7062332762216,31.7062332762216 0 0,0 -0.5360352206191885,0.10273242580624503 l -1.9246230020477588 -10.531821175127469" fill="#ff730a" stroke="none" /><path d="M 102.70371172650421 120.8252237178851 l 4.155876717953459 32.01046233846562 a53.279111053700866,53.279111053700866 0 0,0 -0.9104958038749199,0.11024836194389916 l -3.6042534910271584 -32.07725622913487" fill="#7eff26" stroke="none" /><line stroke="#e1ed5e" stroke-width="0.3" x1="102.19456741930631" x2="102.32365962044197" y1="184.97166512339345" y2="189.96999836594603" /><path d="M 102.22038585953345 185.97133177190398 a86.0,86.0 0 0,1 -42.740103519485714,-10.115201625700543" fill="none" id="id67" stroke="none" /><text fill="#e1ed5e" style="font-size:6.75px; font-family:Arial;" text-anchor="middle"><textPath startOffset="22.20632615414155" xlink:href="#id67">July</textPath></text><line stroke="#e1ed5e" stroke-width="0.3" x1="58.666819895761336" x2="56.23545636021788" y1="174.27360380694188" y2="178.64263932499728" /><path d="M 58.180547188652646 175.14741091055294 a86.0,86.0 0 0,1 -31.652253787137756,-30.449443065178592" fill="none" id="id68" stroke="none" /><text fill="#e1ed5e" style="font-size:6.75px; font-family:Arial;" text-anchor="middle"><textPath startOffset="22.20632615414155" xlink:href="#id68">August</textPath></text><line stroke="#e1ed5e" stroke-width="0.3" x1="26.63291911575756" x2="22.317208475507996" y1="142.92168965132927" y2="145.44649492493687" /><path d="M 25.769776987707644 143.4266507060508 a86.0,86.0 0 0,1 -11.730757126820373,-40.83630448921669" fill="none" id="id69" stroke="none" /><text fill="#e1ed5e" style="font-size:6.75px; font-family:Arial;" text-anchor="middle"><textPath startOffset="21.46611528233685" xlink:href="#id69">September</textPath></text><line stroke="#e1ed5e" stroke-width="0.3" x1="15.007084014347285" x2="10.007500721073583" y1="101.09737516637583" y2="101.16192664675087" /><path d="M 14.007167355692545 101.11028546245083 a86.0,86.0 0 0,1 10.666146001902534,-42.60595125391555" fill="none" id="id70" stroke="none" /><text fill="#e1ed5e" style="font-size:6.75px; font-family:Arial;" text-anchor="middle"><textPath startOffset="22.20632615414155" xlink:href="#id70">October</textPath></text><line stroke="#e1ed5e" stroke-width="0.3" x1="26.266209847984243" x2="21.928928074336255" y1="57.711370442889674" y2="55.22380399835377" /><path d="M 25.398753493254645 57.213857153982495 a86.0,86.0 0 0,1 29.58750427330803,-30.492523968695096" fill="none" id="id71" stroke="none" /><text fill="#e1ed5e" style="font-size:6.75px; font-family:Arial;" text-anchor="middle"><textPath startOffset="21.46611528233685" xlink:href="#id71">November</textPath></text><line stroke="#e1ed5e" stroke-width="0.3" x1="56.762969772571076" x2="54.21961505331055" y1="26.818313649435495" y2="22.513508569990535" /><path d="M 56.25429882871897 25.957352633546506 a86.0,86.0 0 0,1 42.265352541879196,-11.944610805530505" fill="none" id="id72" stroke="none" /><text fill="#e1ed5e" style="font-size:6.75px; font-family:Arial;" text-anchor="middle"><textPath startOffset="22.20632615414155" xlink:href="#id72">December</textPath></text></svg>