<?xml version="1.0" encoding="utf-8" ?>
<svg baseProfile="full" height="200mm" version="1.1" viewBox="0,0,200,200" width="200mm" xmlns="http://www.w3.org/2000/svg" xmlns:ev="http://www.w3.org/2001/xml-events" xmlns:xlink="http://www.w3.org/1999/xlink"><defs /><rect fill="#1a1a1a" height="200" width="200" x="0" y="0" /><rect fill="#1a1a1a" height="200" width="180" x="10" y="0" /><text alignment-baseline="middle" fill="#e1ed5e" style="dominant-baseline: central; font-size:9.0px; font-family:Arial;" text-anchor="middle" x="100.0" y="100.0">2024</text><line stroke="#e1ed5e" stroke-width="0.3" x1="100.0" x2="100.0" y1="15.0" y2="10.0" /><path d="M 100.0 14.0 a86.0,86.0 0 0,1 42.35913384403234,11.155469271406648" fill="none" id="id49" stroke="none" /><text fill="#e1ed5e" style="font-size:6.75px; font-family:Arial;" text-anchor="middle"><textPath startOffset="22.145653131862478" xlink:href="#id49">January</textPath></text><path d="M 100.0 79.0 l 0.0 -16.530939619196964 a37.530939619196964,37.530939619196964 0 0,0 0.6442684855071465,0.005530270085385178 l -0.2837755606582918 16.528503747306015" fill="red" stroke="none" /><path d="M 101.44090949804482 79.04949213459386 l 1.1223651416233567 -16.318942833914523 a37.35749365666089,37.35749365666089 0 0,0 0.6394019760805458,0.049493756809353556 l -1.402336112479136 16.297271310110116" fill="red" stroke="none" /><path d="M 107.06938296918511 80.22567764915836 l 3.9714973155250894 -11.108984825835218 a32.79755630577198,32.79755630577198 0 0,0 0.5285261358622813,0.19408211793842492 l -4.161612603041496 11.039171858888071" fill="red" stroke="none" /><line stroke="#e1ed5e" stroke-width="0.3" x1="143.13028292997686" x2="145.6673583964461" y1="26.7553504044142" y2="22.446841604673864" /><path d="M 143.63769802327073 25.89364864446614 a86.0,86.0 0 0,1 29.32050498858742,28.57503671076993" fill="none" id="id50" stroke="none" /><text fill="#e1ed5e" style="font-size:6.75px; font-family:Arial;" text-anchor="middle"><textPath startOffset="20.669276256404974" xlink:href="#id50">February</textPath></text><path d="M 114.39649973595853 84.71141617570332 l 3.2569644987983946 -3.4587834311047794 a25.750894712548156,25.750894712548156 0 0,0 0.3192222098696067,0.3058076559565564 l -3.3158591945333136 3.4023636448426426" fill="red" stroke="none" /><path d="M 114.91283532996326 85.21462403516908 l 12.948956487822679 -12.838282311078574 a39.23449935760448,39.23449935760448 0 0,0 0.4700913280292039,0.48235511534363 l -13.167434617002694 12.614104503667203" fill="red" stroke="none" /><line stroke="#e1ed5e" stroke-width="0.3" x1="172.87174338648825" x2="177.1583165268699" y1="56.24261187166439" y2="53.66864786411523" /><path d="M 173.72905801456457 55.72781907015455 a86.0,86.0 0 0,1 12.242430191666344,42.057860355516425" fill="none" id="id51" stroke="none" /><text fill="#e1ed5e" style="font-size:6.75px; font-family:Arial;" text-anchor="middle"><textPath startOffset="22.145653131862474" xlink:href="#id51">March</textPath></text><path d="M 118.00360718960297 89.18935116829356 l 15.642977260481052 -9.393158385675669 a39.246483552463374,39.246483552463374 0 0,0 0.3418673155573914,0.5805654411504237 l -15.801918286168211 9.123241776231689" fill="red" stroke="none" /><path d="M 118.8641267826498 90.77261029715802 l 13.93085657633524 -6.814280035610936 a36.508164860941754,36.508164860941754 0 0,0 0.2705441764848392,0.565333275491636 l -14.04578001077999 6.574134258054197" fill="red" stroke="none" /><path d="M 119.83427380445688 93.10060997987247 l 17.23875012789197 -5.996532152597597 a39.25192877010625,39.25192877010625 0 0,0 0.21591285735001817,0.6383079975547983 l -17.339148406814353 5.699722480568637" fill="red" stroke="none" /><path d="M 120.16314734710363 94.1308016681162 l 16.33162144323533 -4.753896982524581 a38.00945018175486,38.00945018175486 0 0,0 0.1769819692470496,0.6280465728510529 l -16.41082190455696 4.4728424857705145" fill="red" stroke="none" /><path d="M 120.7213421655516 96.59031103205396 l 20.03030851749658 -3.295979644127732 a41.29967342398888,41.29967342398888 0 0,0 0.10910686936856415,0.7005443693331818 l -20.083936879003407 2.951647092863109" fill="red" stroke="none" /><line stroke="#e1ed5e" stroke-width="0.3" x1="184.99686870605535" x2="189.99668451229388" y1="99.2704041080226" y2="99.22748670261217" /><path d="M 185.99683186730306 99.26182062694052 a86.0,86.0 0 0,1 -10.086455211305974,41.156179273409016" fill="none" id="id52" stroke="none" /><text fill="#e1ed5e" style="font-size:6.75px; font-family:Arial;" text-anchor="middle"><textPath startOffset="21.40746469413373" xlink:href="#id52">April</textPath></text><path d="M 120.96210409425399 101.26102812881392 l 18.250664594904894 1.097914661631314 a39.283658680907934,39.283658680907934 0 0,0 -0.04627248127186798,0.6727917222792784 l -18.22912815246796 -1.4110498080649359" fill="red" stroke="none" /><path d="M 120.51834098615036 104.47187691870673 l 11.503350138562947 2.507101622259026 a32.77338621445462,32.77338621445462 0 0,0 -0.12452191666139349,0.5486665406456466 l -11.45861736034389 -2.7042024968436897" fill="red" stroke="none" /><line stroke="#e1ed5e" stroke-width="0.3" x1="174.33088141563837" x2="178.70328620479359" y1="141.23008692659167" y2="143.65538615756765" /><path d="M 175.20536237346943 141.71514677278685 a86.0,86.0 0 0,1 -30.301960400862466,31.631185727798858" fill="none" id="id53" stroke="none" /><text fill="#e1ed5e" style="font-size:6.75px; font-family:Arial;" text-anchor="middle"><textPath startOffset="22.145653131862474" xlink:href="#id53">May</textPath></text><path d="M 118.36410011445183 110.18625677009912 l 15.913992340637815 8.827223289398095 a39.19821483604288,39.19821483604288 0 0,0 -0.331442624076439,0.5856273585242181 l -15.760116351539997 -9.099107418021436" fill="red" stroke="none" /><path d="M 117.423217284605 111.72311816256416 l 9.996991903556005 6.726422304285758 a33.04925741012106,33.04925741012106 0 0,0 -0.3207513262292856,0.46798577073804565 l -9.880050840511398 -6.897042810093848" fill="red" stroke="none" /><path d="M 116.1254893667686 113.45245675266167 l 13.997168734772464 11.676935985104157 a39.22831771145961,39.22831771145961 0 0,0 -0.4358180850739845,0.5133926083681661 l -13.794656086191363 -11.915495375921878" fill="red" stroke="none" /><path d="M 113.31354834802062 116.24036423190432 l 8.238842788478813 10.050048584845305 a33.995461017256005,33.995461017256005 0 0,0 -0.4544856900958413,0.3661015005872515 l -8.065106328027719 -10.18999837922596" fill="red" stroke="none" /><path d="M 112.7482090630111 116.68781488649013 l 11.059860982266645 14.477713052094138 a39.21880073346874,39.21880073346874 0 0,0 -0.5385059033333313,0.4041048691546063 l -10.809702090022547 -14.66543694851276" fill="red" stroke="none" /><line stroke="#e1ed5e" stroke-width="0.3" x1="143.1302829299769" x2="145.66735839644613" y1="173.24464959558577" y2="177.55315839532614" /><path d="M 143.63769802327073 174.10635135553383 a86.0,86.0 0 0,1 -40.68552437913181,11.842963189579606" fill="none" id="id54" stroke="none" /><text fill="#e1ed5e" style="font-size:6.75px; font-family:Arial;" text-anchor="middle"><textPath startOffset="21.407464694133747" xlink:href="#id54">June</textPath></text><path d="M 110.65571695917076 118.09573695890943 l 8.545831682934212 14.512690494880248 a37.84189492168947,37.84189492168947 0 0,0 -0.5625964107136565,0.3248151891706481 l -8.295442804360157 -14.657252581327068" fill="red" stroke="none" /><path d="M 109.71004243097381 118.62028667847754 l 8.44946258950607 16.202958618780787 a39.273732132582694,39.273732132582694 0 0,0 -0.6004631566421372,0.30660076625085503 l -8.17007221115035 -16.345617336704482" fill="red" stroke="none" /><path d="M 108.4095320186766 119.2426549942271 l 4.7010113826681845 10.756834025926455 a32.73920722541795,32.73920722541795 0 0,0 -0.5169129896512086,0.22063941773574527 l -4.515663317846545 -10.835948093321605" fill="red" stroke="none" /><path d="M 108.07796709384702 119.3841803445677 l 8.425486360045618 20.21810007349757 a42.903433315014276,42.903433315014276 0 0,0 -0.6822576264363063,0.27746823717521524 l -8.07717427241887 -20.359755567252076" fill="red" stroke="none" /><path d="M 106.0420521117495 120.11202640906438 l 5.761318498213297 19.17755551326184 a41.02427093060055,41.02427093060055 0 0,0 -0.6761971729510325,0.19683114204285249 l -5.4312613128806575 -19.27363034960721" fill="red" stroke="none" /><path d="M 103.2317021107853 120.74984581791261 l 3.102766221084269 19.92198491366555 a41.16215864244251,41.16215864244251 0 0,0 -0.6991194565120419,0.10274648460656989 l -2.760321658964542 -19.972312471571" fill="red" stroke="none" /><path d="M 101.08105385017728 120.97215588758144 l 0.9377802176593116 18.192685692591457 a39.21683958446292,39.21683958446292 0 0,0 -0.6726140651892005,0.02888494203942121 l -0.6253403918692815 -18.20610320305671" fill="red" stroke="none" /><line stroke="#e1ed5e" stroke-width="0.3" x1="101.45913802915013" x2="101.54496967792366" y1="184.9874750549273" y2="189.98673829345242" /><path d="M 101.47630435890484 185.9873277026323 a86.0,86.0 0 0,1 -42.54439059252881,-10.42667462771756" fill="none" id="id55" stroke="none" /><text fill="#e1ed5e" style="font-size:6.75px; font-family:Arial;" text-anchor="middle"><textPath startOffset="22.145653131862474" xlink:href="#id55">July</textPath></text><path d="M 98.55909050195518 120.95050786540614 l -1.10674315437329 16.091802567853403 a37.129816809019424,37.129816809019424 0 0,0 -0.6355051133084374,-0.04919211498531009 l 1.3828172624569635 -16.07043268587304" fill="red" stroke="none" /><path d="M 94.6519064749342 120.30758222061772 l -4.660970636199446 17.698464691927846 a39.30192065666689,39.30192065666689 0 0,0 -0.6509494753989354,-0.17741917416371739 l 4.964101512533077 -17.615845023619983" fill="red" stroke="none" /><path d="M 93.27111125876986 119.89276391827306 l -5.856002798706536 17.312231730869595 a39.27583476292634,39.27583476292634 0 0,0 -0.6368188111852332,-0.2215186395951447 l 6.152327381936791 -17.20915465870586" fill="red" stroke="none" /><line stroke="#e1ed5e" stroke-width="0.3" x1="58.13341422392154" x2="55.67067388415222" y1="173.97424548756322" y2="178.32567169271397" /><path d="M 57.64086615596768 174.84453072859336 a86.0,86.0 0 0,1 -31.369924170532247,-30.572349798747897" fill="none" id="id56" stroke="none" /><text fill="#e1ed5e" style="font-size:6.75px; font-family:Arial;" text-anchor="middle"><textPath startOffset="22.145653131862474" xlink:href="#id56">August</textPath></text><path d="M 87.83215693770417 117.11559508785305 l -6.363639614641572 8.951256058415648 a31.982754398071478,31.982754398071478 0 0,0 -0.4447415059420388,-0.3219585528150958 l 6.516362130957565 -8.840696734227487" fill="red" stroke="none" /><path d="M 84.83555147118756 114.52719865689866 l -7.957696533488793 7.623293268704092 a32.01996072496489,32.01996072496489 0 0,0 -0.3768355474842558,-0.400186292595669 l 8.087387914709302 -7.485565516163933" fill="red" stroke="none" /><path d="M 83.4222238831116 112.89097897827486 l -14.377489126311492 11.18002250608536 a39.21277290293217,39.21277290293217 0 0,0 -0.4086494196315135,-0.5349352081202455 l 14.5672905232973 -10.931566384724244" fill="red" stroke="none" /><line stroke="#e1ed5e" stroke-width="0.3" x1="26.387840678322732" x2="22.057713659400548" y1="142.50000000000003" y2="145.00000000000006" /><path d="M 25.521815274538298 143.00000000000003 a86.0,86.0 0 0,1 -11.493303480769221,-40.785679425670985" fill="none" id="id57" stroke="none" /><text fill="#e1ed5e" style="font-size:6.75px; font-family:Arial;" text-anchor="middle"><textPath startOffset="21.40746469413373" xlink:href="#id57">September</textPath></text><path d="M 80.83023694016515 108.57439118712176 l -16.66304910518515 7.453169919321253 a39.25395703205436,39.25395703205436 0 0,0 -0.26985435200906804,-0.6174795675750753 l 16.788537339211185 -7.166028281970328" fill="red" stroke="none" /><path d="M 79.73907114497094 105.5222062557868 l -9.842700695421744 2.6826718430830354 a31.20173932216101,31.20173932216101 0 0,0 -0.1364118041410949,-0.5179778392944315 l 9.887301980367571 -2.5133134994158013" fill="red" stroke="none" /><path d="M 79.34024301695615 103.76489593502545 l -35.782574733379235 6.520777096701154 a57.371873590657,57.371873590657 0 0,0 -0.16825034789967017,-0.9704232958952581 l 35.889239898771145 -5.905560767885302" fill="red" stroke="none" /><path d="M 79.03789590574601 101.26102812881392 l -20.498020769764757 1.233110028433202 a41.535077692084094,41.535077692084094 0 0,0 -0.03670595351251651,-0.712085692068533 l 20.516168312733846 -0.8810525429879383" fill="red" stroke="none" /><line stroke="#e1ed5e" stroke-width="0.3" x1="15.003131293944662" x2="10.003315487706104" y1="100.72959589197737" y2="100.7725132973878" /><path d="M 14.003168132696942 100.73817937305945 a86.0,86.0 0 0,1 10.791469493833604,-42.45332614584628" fill="none" id="id58" stroke="none" /><text fill="#e1ed5e" style="font-size:6.75px; font-family:Arial;" text-anchor="middle"><textPath startOffset="22.145653131862435" xlink:href="#id58">October</textPath></text><path d="M 79.00077361379809 99.81974689727619 l -18.967661746747503 -0.1628145636600003 a39.968360517481955,39.968360517481955 0 0,0 0.011778425378648243,-0.6860342291517681 l 18.962071889770186 0.4883957087808209" fill="red" stroke="none" /><path d="M 79.01933749520258 99.09900007780938 l -20.38666791077682 -0.8754912385219425 a41.405457931960896,41.405457931960896 0 0,0 0.03659140414476363,-0.7098634649361846 l 20.368634917175484 1.2253264968348392" fill="red" stroke="none" /><path d="M 79.13060592940154 97.66154086499901 l -18.157221425059976 -2.0345545330176242 a39.27085389428966,39.27085389428966 0 0,0 0.0808192560053609,-0.6692993772086745 l 18.119620082794945 2.345947587149735" fill="red" stroke="none" /><path d="M 79.407916724674 95.88100663000787 l -17.810308756169754 -3.5625605580217634 a39.163120208809644,39.163120208809644 0 0,0 0.13752276835514882,-0.6580962303819456 l 17.746528276990237 3.867773239689118" fill="red" stroke="none" /><path d="M 79.94057633289273 93.78553927170692 l -17.38386084306739 -5.385564526088553 a39.19898137467575,39.19898137467575 0 0,0 0.20464721258355134,-0.6410544786580016 l 17.28884891470658 5.683188038437946" fill="red" stroke="none" /><path d="M 80.9802524753101 91.09779779509293 l -16.566287592793895 -7.753859074325379 a39.29109660877813,39.29109660877813 0 0,0 0.2911671242774816,-0.6084273046346428 l 16.43074121055651 8.03709888102511" fill="red" stroke="none" /><line stroke="#e1ed5e" stroke-width="0.3" x1="26.387840678322718" x2="22.05771365940052" y1="57.49999999999999" y2="54.99999999999999" /><path d="M 25.521815274538284 56.99999999999999 a86.0,86.0 0 0,1 29.574782752854787,-30.34633250058573" fill="none" id="id59" stroke="none" /><text fill="#e1ed5e" style="font-size:6.75px; font-family:Arial;" text-anchor="middle"><textPath startOffset="21.40746469413373" xlink:href="#id59">November</textPath></text><path d="M 81.99639281039701 89.18935116829357 l -9.550786344519135 -5.734972783503079 a32.14035154859012,32.14035154859012 0 0,0 0.2880877997671609,-0.47056977028097746 l 9.450930580296582 5.8980796699086" fill="red" stroke="none" /><path d="M 82.576782715395 88.27688183743585 l -3.1904568449762025 -2.1466817508650258 a24.845420317618405,24.845420317618405 0 0,0 0.24113103113656992,-0.3518173807164257 l 3.1531360770243193 2.201133866651486" fill="red" stroke="none" /><path d="M 83.42222388311158 87.10902102172516 l -14.4537089599827 -11.239291509759626 a39.3093248466796,39.3093248466796 0 0,0 0.41880074081037977,-0.5291410548731114 l 14.258641788530758 11.48575250854742" fill="red" stroke="none" /><path d="M 85.08716467003674 85.21462403516908 l -10.037712048127863 -9.951920152976648 a35.13493466176459,35.13493466176459 0 0,0 0.42832510281509933,-0.4246642264983484 l 9.865395025182787 10.12276438970367" fill="red" stroke="none" /><path d="M 85.34317274990677 84.96080404539775 l -12.771541065816574 -13.10472624488655 a39.29880081178156,39.29880081178156 0 0,0 0.4871694820859908,-0.46669734361885706 l 12.544699097865283 13.322035718810975" fill="red" stroke="none" /><path d="M 87.25179093698888 83.31218511350988 l -11.103886821353308 -14.535344288706968 a39.29132406723663,39.29132406723663 0 0,0 0.5395017074536526,-0.4048521391311445 l 10.852732124988902 14.723815455102114" fill="red" stroke="none" /><path d="M 87.54013794807813 83.09580414077388 l -2.2621997924916175 -3.0691084865647076 a24.812738491354033,24.812738491354033 0 0,0 0.3450376582904839,-0.249780656056845 l 2.2091811238271655 3.1074899139946317" fill="red" stroke="none" /><path d="M 88.72937992617638 82.28071324371311 l -2.445446126485517 -3.844647488640563 a25.556481215746775,25.556481215746775 0 0,0 0.37219469988988657,-0.23227702013227433 l 2.379087297805932 3.8860603056143734" fill="red" stroke="none" /><path d="M 89.03521579738668 82.08984904055464 l -9.522184322833258 -15.553772471414494 a39.237100437584445,39.237100437584445 0 0,0 0.5774715463296817,-0.34675507146578416 l 9.253780019946142 15.7149415434162" fill="red" stroke="none" /><line stroke="#e1ed5e" stroke-width="0.3" x1="56.869717070023135" x2="54.33264160355391" y1="26.7553504044142" y2="22.446841604673864" /><path d="M 56.362301976729285 25.89364864446614 a86.0,86.0 0 0,1 42.16139366436587,-11.88097634709845" fill="none" id="id60" stroke="none" /><text fill="#e1ed5e" style="font-size:6.75px; font-family:Arial;" text-anchor="middle"><textPath startOffset="22.145653131862474" xlink:href="#id60">December</textPath></text><path d="M 89.65649057296885 81.72400993836675 l -2.229469448653212 -3.9392588921336857 a25.526399743917054,25.526399743917054 0 0,0 0.3832069464152584,-0.21255843346223155 l 2.1615183140818512 3.9769502410290634" fill="red" stroke="none" /><path d="M 89.97174638481275 81.54914285379989 l -2.0076411002657863 -3.693833499159299 a25.20416801602741,25.20416801602741 0 0,0 0.3819165786425973,-0.20334906659034033 l 1.9439357058366271 3.7277530334722146" fill="red" stroke="none" /><path d="M 90.93487009805054 81.0573650232925 l -1.8503833765356728 -3.8665895853456 a25.28654099031639,25.28654099031639 0 0,0 0.3931590962137461,-0.18401830879457556 l 1.7837355664504042 3.897784125710718" fill="red" stroke="none" /><path d="M 91.5904679813234 80.7573450057729 l -4.513211093890233 -10.32711021290754 a32.27023867216454,32.27023867216454 0 0,0 0.5095085361699276,-0.21747889684060662 l 4.335267482549874 10.403063759407551" fill="red" stroke="none" /><path d="M 92.25597844496254 80.48000691201159 l -6.724939192724538 -16.951239821089334 a39.236483724060605,39.236483724060605 0 0,0 0.628209245250017,-0.24300483153434632 l 6.432957684980991 17.064184540761723" fill="red" stroke="none" /><path d="M 93.27111125876988 80.10723608172694 l -1.2044553565245328 -3.560758243873378 a24.758950914440472,24.758950914440472 0 0,0 0.40377989180433504,-0.13273047052381481 l 1.1431527270724369 3.5809096357992214" fill="red" stroke="none" /><path d="M 94.30408787586887 79.78721728523814 l -1.1079394843100991 -3.9316863689994985 a25.08481182003159,25.08481182003159 0 0,0 0.41547448119336317,-0.11323941738220179 l 1.0402836021820583 3.95012628052584" fill="red" stroke="none" /><path d="M 94.6519064749342 79.69241777938228 l -1.0855024945685354 -4.121829780242097 a25.26236981068104,25.26236981068104 0 0,0 0.42031134725880775,-0.10684150085845177 l 1.0145858540843495 4.139856512935811" fill="red" stroke="none" /><path d="M 95.70440661134978 79.44403061299748 l -0.9259771771030365 -4.431135999949503 a25.526853209743408,25.526853209743408 0 0,0 0.4297063010942458,-0.08595329484568612 l 0.849774390477814 4.446378691458055" fill="red" stroke="none" /><path d="M 97.12497278360702 79.19773525538626 l -0.601572229178874 -4.35267697746756 a25.39405120783718,25.39405120783718 0 0,0 0.43233030946869816,-0.055973814115058196 l 0.5267640978193818 4.362362387783013" fill="red" stroke="none" /><path d="M 98.5590905019552 79.04949213459386 l -4.322728494134429 -62.8515235962184 a84.0,84.0 0 0,0 1.439422591470065,-0.0865920887012237 l 3.24316155053188 62.91646766274432" fill="red" stroke="none" /></svg>