<?xml version="1.0" encoding="utf-8" ?>
<svg baseProfile="full" height="200mm" version="1.1" viewBox="0,0,200,200" width="200mm" xmlns="http://www.w3.org/2000/svg" xmlns:ev="http://www.w3.org/2001/xml-events" xmlns:xlink="http://www.w3.org/1999/xlink"><defs /><rect fill="#1a1a1a" height="200" width="200" x="0" y="0" /><rect fill="#1a1a1a" height="200" width="180" x="10" y="0" /><text alignment-baseline="middle" fill="#e1ed5e" style="dominant-baseline: central; font-size:9.0px; font-family:Arial;" text-anchor="middle" x="100.0" y="100.0">2023</text><line stroke="#e1ed5e" stroke-width="0.3" x1="100.0" x2="100.0" y1="15.0" y2="10.0" /><path d="M 100.0 14.0 a86.0,86.0 0 0,1 42.46469731375804,11.215312516191453" fill="none" id="id37" stroke="none" /><text fill="#e1ed5e" style="font-size:6.75px; font-family:Arial;" text-anchor="middle"><textPath startOffset="22.20632615414155" xlink:href="#id37">January</textPath></text><path d="M 110.36928655335952 81.73862282372117 l 6.428875347358017 -11.3219088828584 a34.01983329323443,34.01983329323443 0 0,0 0.5067388102432638,0.2935358266198885 l -6.622810890066609 11.209568898848463" fill="red" stroke="none" /><line stroke="#e1ed5e" stroke-width="0.3" x1="143.23703022742887" x2="145.7803849466894" y1="26.81831364943548" y2="22.513508569990506" /><path d="M 143.74570117128098 25.957352633546492 a86.0,86.0 0 0,1 28.547481713284135,27.462654790039103" fill="none" id="id38" stroke="none" /><text fill="#e1ed5e" style="font-size:6.75px; font-family:Arial;" text-anchor="middle"><textPath startOffset="19.985693538727396" xlink:href="#id38">February</textPath></text><path d="M 111.2981086023043 82.29822771554956 l 10.435979800467292 -16.35099683457805 a40.39754551174305,40.39754551174305 0 0,0 0.5829423032113523,0.3791618896037612 l -10.715889129462925 16.168936020814762" fill="red" stroke="none" /><path d="M 111.90073688211348 82.69761687909136 l 6.146366012518472 -8.936150811784005 a31.845856650850138,31.845856650850138 0 0,0 0.44897935655236243,0.3145387316453928 l -6.2992765086544855 8.829027237374676" fill="red" stroke="none" /><path d="M 112.48926042617603 83.11751280151076 l 9.281512640183726 -12.54638088914404 a36.60634967906874,36.60634967906874 0 0,0 0.5033440126998421,0.379108274949781 l -9.49610280664195 12.38475602468841" fill="red" stroke="none" /><path d="M 113.34407831869373 83.78471172551755 l 12.286474364119373 -14.93012248078119 a40.335615055934745,40.335615055934745 0 0,0 0.5323196049938411,0.4458023604900423 l -12.54165150607233 14.716418962897327" fill="red" stroke="none" /><path d="M 113.89432698308785 84.25364557470407 l 30.075215295037598 -34.084054595028476 a66.45592758573677,66.45592758573677 0 0,0 0.8512340156990351,0.7642463040529153 l -30.657460298332623 33.56130928220627" fill="red" stroke="none" /><path d="M 114.68862486808459 84.99185889309783 l 8.138618442500794 -8.31565480752973 a32.63560161876499,32.63560161876499 0 0,0 0.3980987035585222,0.3963891412100905 l -8.28055294622664 8.174329815669521" fill="red" stroke="none" /><path d="M 115.4437574822437 85.77008943001954 l 8.536561080014465 -7.865605302559678 a32.60778281363296,32.60778281363296 0 0,0 0.3767850411971036,0.41605545324918347 l -8.670689761827605 7.7174970620409455" fill="red" stroke="none" /><path d="M 115.9244219780498 86.31012108654704 l 14.687213217544565 -12.626277475025478 a40.36845670088228,40.36845670088228 0 0,0 0.4484539284866999,0.5308280016777888 l -14.902377759518382 12.371590523718583" fill="red" stroke="none" /><path d="M 116.15771136456269 86.58626213691792 l 12.153424316555899 -10.089476426632553 a36.79567210288395,36.79567210288395 0 0,0 0.4003745981224285,0.49081191647273215 l -12.325297406754736 9.87878034055172" fill="red" stroke="none" /><path d="M 116.38621287248628 86.86637796730983 l 9.320097941206788 -7.470099688073378 a32.944313081271815,32.944313081271815 0 0,0 0.3508505327743492,0.44554454719398146 l -9.447302554575101 7.308562746926358" fill="red" stroke="none" /><path d="M 116.60985879189232 87.15038557335679 l 11.546771033255665 -8.932740338677153 a35.59869073761966,35.59869073761966 0 0,0 0.37077572194468666,0.4878973882376085 l -11.698822695424465 8.73265817455851" fill="red" stroke="none" /><path d="M 117.2510076193507 88.02491185347247 l 10.852396508264764 -7.533380522176685 a34.21084145936618,34.21084145936618 0 0,0 0.33164239666727235,0.48664429458688563 l -10.98046337060077 7.345458204319393" fill="red" stroke="none" /><path d="M 117.65298651832404 88.62581576622439 l 10.836348989069714 -6.9820837225036705 a33.89092520034784,33.89092520034784 0 0,0 0.31175197554284323,0.49311675790991283 l -10.954928560858512 6.794519316879551" fill="red" stroke="none" /><line stroke="#e1ed5e" stroke-width="0.3" x1="172.23445277983987" x2="176.4835382374775" y1="55.19839476539836" y2="52.563006222186495" /><path d="M 173.08426987136738 54.67131705675599 a86.0,86.0 0 0,1 12.851231095245387,41.99856678651699" fill="none" id="id39" stroke="none" /><text fill="#e1ed5e" style="font-size:6.75px; font-family:Arial;" text-anchor="middle"><textPath startOffset="22.20632615414155" xlink:href="#id39">March</textPath></text><path d="M 117.84615892207809 88.93136811851018 l 13.15747204444078 -8.160591597710026 a36.48271054514861,36.48271054514861 0 0,0 0.32640594986333366,0.5365255589095114 l -13.295993792590338 7.932898265593432" fill="red" stroke="none" /><path d="M 118.3937258080291 89.86733742301442 l 13.95882157684009 -7.689580158291047 a36.9366979900116,36.9366979900116 0 0,0 0.3019872326904096,0.559536478263259 l -14.089116908748965 7.44816269669533" fill="red" stroke="none" /><path d="M 118.56541770881063 90.18545643968196 l 17.08749905108655 -9.033246997410329 a40.32827398235824,40.32827398235824 0 0,0 0.3191513672762975,0.6164988577378775 l -17.240459851522964 8.737775417412108" fill="red" stroke="none" /><path d="M 118.73160827565052 90.50648371742162 l 17.235290298344097 -8.73515539479819 a40.322478397955734,40.322478397955734 0 0,0 0.30844773369209955,0.6218118093874376 l -17.383098044989605 8.437183996911802" fill="red" stroke="none" /><path d="M 118.89224826269711 90.83032412892265 l 10.466356033446953 -5.080024941631901 a32.63405612959099,32.63405612959099 0 0,0 0.2409353811714902,0.5074713589300119 l -10.5522496084602 4.899111167061349" fill="red" stroke="none" /><path d="M 119.47837535516314 92.15188598940014 l 6.016781507225448 -2.4242467035659327 a27.486804435578463,27.486804435578463 0 0,0 0.17304442092970282,0.4403791764088258 l -6.057619478036852 2.320318522261323" fill="red" stroke="none" /><path d="M 120.28053869075195 94.5502522615342 l 18.876161202759036 -5.072366094129509 a40.54580158359897,40.54580158359897 0 0,0 0.17531940528807985,0.6755771858613505 l -18.96067693991742 4.746692482719308" fill="red" stroke="none" /><line stroke="#e1ed5e" stroke-width="0.3" x1="184.98032266829074" x2="189.97916517819016" y1="98.17113171792111" y2="98.06355123074" /><path d="M 185.9800911702706 98.14961562048488 a86.0,86.0 0 0,1 -9.607161424134198,41.387399972396054" fill="none" id="id40" stroke="none" /><text fill="#e1ed5e" style="font-size:6.75px; font-family:Arial;" text-anchor="middle"><textPath startOffset="21.466115282336823" xlink:href="#id40">April</textPath></text><path d="M 120.99513854157772 99.54816195383933 l 15.480671459707803 -0.3331607615618977 a36.48425603432261,36.48425603432261 0 0,0 0.008108179201315575,0.627987414668876 l -15.484112646026835 0.06663708883255907" fill="red" stroke="none" /><path d="M 120.9764740272857 100.99374915477107 l 15.781601972764927 0.7476448902217068 a36.7993016842091,36.7993016842091 0 0,0 -0.035421341515645466,0.6324718474731693 l -15.766394280361752 -1.0191884540302993" fill="red" stroke="none" /><path d="M 120.89721153311464 102.0752229133903 l 14.348352924020096 1.424880573666625 a35.41892909620713,35.41892909620713 0 0,0 -0.06547053861010425,0.6061758758132677 l -14.32170008390894 -1.6716527713646843" fill="red" stroke="none" /><path d="M 120.8583938346157 102.4346265915055 l 14.126273300429771 1.648842230556831 a35.22217557407103,35.22217557407103 0 0,0 -0.07547355913693939,0.6015985254186411 l -14.095798232045984 -1.8917585102628671" fill="red" stroke="none" /><path d="M 120.81339534386255 102.79330883721812 l 19.17616894805355 2.5735811625939635 a40.348094881014816,40.348094881014816 0 0,0 -0.09830707448853965,0.687559450006439 l -19.129027822548412 -2.9032860845808117" fill="red" stroke="none" /><path d="M 120.64145759157962 103.86396538481128 l 19.097538304606076 3.574952331574095 a40.4292628133165,40.4292628133165 0 0,0 -0.13393650112699615,0.6829393337041155 l -19.033171870503416 -3.9031553923461555" fill="red" stroke="none" /><path d="M 120.32669344350535 105.2749913415812 l 37.478732297168925 9.72612633286767 a59.720187345178935,59.720187345178935 0 0,0 -0.26678407886098515,0.9928028035550881 l -37.30576014196616 -10.369820069598306" fill="red" stroke="none" /><path d="M 120.02730092923936 106.31721596034902 l 3.844635311276728 1.2127141663238197 a25.031364077569574,25.031364077569574 0 0,0 -0.13315225405228925,0.4098005002345105 l -3.823190806208192 -1.2787135665361253" fill="red" stroke="none" /><path d="M 119.26925614724726 108.34839909993367 l 21.445963082480112 9.291456687629562 a44.37221640994272,44.37221640994272 0 0,0 -0.3096735192909723,0.6982320345796207 l -21.282848478457865 -9.659237058701871" fill="red" stroke="none" /><path d="M 118.97047184881838 109.00673069616215 l 56.911415546455125 27.02019208848646 a84.0,84.0 0 0,0 -0.6313869735411428,1.3008441761388982 l -56.43787531629926 -27.995825220590632" fill="red" stroke="none" /><line stroke="#e1ed5e" stroke-width="0.3" x1="174.80103733775053" x2="179.2010983576182" y1="140.37084112569926" y2="142.7455964860345" /><path d="M 175.68104954172406 140.8457921977663 a86.0,86.0 0 0,1 -30.038265399797805,32.042727171017184" fill="none" id="id41" stroke="none" /><text fill="#e1ed5e" style="font-size:6.75px; font-family:Arial;" text-anchor="middle"><textPath startOffset="22.206326154141568" xlink:href="#id41">May</textPath></text><path d="M 118.30583269289576 110.29060199501025 l 14.286011644124125 8.030864391261288 a37.388560387260334,37.388560387260334 0 0,0 -0.3202027596373803,0.5583005013987042 l -14.145656888334365 -8.275584738518308" fill="red" stroke="none" /><path d="M 117.75023020441432 111.22182372390056 l 17.300599178763303 10.93756374233718 a41.468049065846856,41.468049065846856 0 0,0 -0.3866305872540317,0.6000592573575347 l -17.109763728132222 -11.233744599616166" fill="red" stroke="none" /><path d="M 116.498646956653 112.99209946851258 l 16.189124749819992 12.748361705685518 a41.606030339301725,41.606030339301725 0 0,0 -0.4479227719151632,0.5588525292388516 l -15.967284065849974 -13.025142068502621" fill="red" stroke="none" /><path d="M 116.0416608686014 113.55231037782055 l 18.24772709342764 15.416038481647414 a44.88794228358414,44.88794228358414 0 0,0 -0.503722849003865,0.5859434738783804 l -17.979661734852993 -15.727859054687322" fill="red" stroke="none" /><path d="M 113.48314897796784 116.09983520530334 l 12.40600150156593 14.81364479902535 a40.32234316765301,40.32234316765301 0 0,0 -0.5359604983411351,0.4410590021298 l -12.149170874680102 -15.02499892001233" fill="red" stroke="none" /><path d="M 111.45004920935366 117.60387380957326 l 10.55672756084588 16.230436780250766 a40.36160052453412,40.36160052453412 0 0,0 -0.585662579920843,0.373797568171394 l -10.275783178878108 -16.40974877724597" fill="red" stroke="none" /><line stroke="#e1ed5e" stroke-width="0.3" x1="143.8653032363475" x2="146.44561519142675" y1="172.8068346515853" y2="177.08958963109032" /><path d="M 144.38136562736335 173.6633856474863 a86.0,86.0 0 0,1 -40.68145358897372,12.25698825130547" fill="none" id="id42" stroke="none" /><text fill="#e1ed5e" style="font-size:6.75px; font-family:Arial;" text-anchor="middle"><textPath startOffset="21.466115282336833" xlink:href="#id42">June</textPath></text><path d="M 110.8373102113329 117.98757091392108 l 10.033339021986189 16.653154116845286 a40.442104669235576,40.442104669235576 0 0,0 -0.5993753493475809,0.3541215212392694 l -9.745195801610224 -16.823394210378304" fill="red" stroke="none" /><path d="M 110.5260780823613 118.17145234162733 l 9.780830142571194 16.88491073376251 a40.513196784867354,40.513196784867354 0 0,0 -0.6064463507279603,0.34435606522086 l -9.488735024922034 -17.050769964778" fill="red" stroke="none" /><path d="M 110.21172684928248 118.3499491758327 l 9.457513495652409 16.994666478683513 a40.44899098262263,40.44899098262263 0 0,0 -0.6113136676578645,0.3333369531632187 l -9.163577016125895 -17.1549440836065" fill="red" stroke="none" /><path d="M 109.2508944713604 118.85261126421891 l 8.580556367714467 17.486513777888817 a40.478298480201516,40.478298480201516 0 0,0 -0.6281602236001479,0.30155508056199454 l -8.278283476114087 -17.63162313495037" fill="red" stroke="none" /><path d="M 108.2653958097858 119.30500536409082 l 4.925741415627651 11.504768390913926 a33.51489609314443,33.51489609314443 0 0,0 -0.5322940180495573,0.22249894271503806 l -4.726975938080632 -11.587852376648938" fill="red" stroke="none" /><path d="M 107.59598834532513 119.57807347666477 l 7.056749343177256 18.188226583069714 a40.50921058191531,40.50921058191531 0 0,0 -0.6522557348208841,0.2466273076046123 l -6.7426233875960975 -18.307002140780956" fill="red" stroke="none" /><path d="M 105.88484417918355 120.15858648285463 l 5.463236307299065 18.714364938756777 a40.495497070102104,40.495497070102104 0 0,0 -0.6708152982285609,0.18957910387229546 l -5.140289840965898 -18.805632835967593" fill="red" stroke="none" /><path d="M 104.48393922423573 120.51570834832081 l 4.134803946256387 18.91828314272942 a40.364866143158785,40.364866143158785 0 0,0 -0.6800682999861803,0.14251492444233096 l -3.808544184840828 -18.98665404789829" fill="red" stroke="none" /><path d="M 103.7750983002368 120.6578951692458 l 3.50190102661118 19.16291935928398 a40.48026666066461,40.48026666066461 0 0,0 -0.6865280288705422,0.11936169778462262 l -3.1715240262685875 -19.22035963558961" fill="red" stroke="none" /><path d="M 102.70371172650421 120.8252237178851 l 1.7259541968004757 13.294088242782431 a34.405659256311836,34.405659256311836 0 0,0 -0.58796417137756,0.07119427294470318 l -1.4968626023715355 -13.321828044452484" fill="red" stroke="none" /><path d="M 101.98527174616119 120.90594882070398 l 1.838391997429513 19.359228319734843 a40.44632115007454,40.44632115007454 0 0,0 -0.6936653518404671,0.05985236534837508 l -1.5048823278475043 -19.38800493736188" fill="red" stroke="none" /><line stroke="#e1ed5e" stroke-width="0.3" x1="102.19456741930631" x2="102.32365962044197" y1="184.97166512339345" y2="189.96999836594603" /><path d="M 102.22038585953345 185.97133177190398 a86.0,86.0 0 0,1 -42.740103519485714,-10.115201625700543" fill="none" id="id43" stroke="none" /><text fill="#e1ed5e" style="font-size:6.75px; font-family:Arial;" text-anchor="middle"><textPath startOffset="22.20632615414155" xlink:href="#id43">July</textPath></text><path d="M 98.01472825383883 120.90594882070398 l -1.1843230445665454 12.471540485459764 a33.52764715157453,33.52764715157453 0 0,0 -0.5740690013435965,-0.05950459921579034 l 1.3988246425157351 -12.449306517788214" fill="red" stroke="none" /><path d="M 95.86986931433489 120.58985236759428 l -3.2592924430138774 16.24848106075475 a37.57214904623999,37.57214904623999 0 0,0 -0.6330165307146396,-0.1326547687156993 l 3.538500435157904 -16.189970311312507" fill="red" stroke="none" /><line stroke="#e1ed5e" stroke-width="0.3" x1="58.666819895761336" x2="56.23545636021788" y1="174.27360380694188" y2="178.64263932499728" /><path d="M 58.180547188652646 175.14741091055294 a86.0,86.0 0 0,1 -31.652253787137756,-30.449443065178592" fill="none" id="id44" stroke="none" /><text fill="#e1ed5e" style="font-size:6.75px; font-family:Arial;" text-anchor="middle"><textPath startOffset="22.20632615414155" xlink:href="#id44">August</textPath></text><path d="M 89.7882731507175 118.34994917583269 l -5.647152960419947 10.147644109687498 a32.61313986548234,32.61313986548234 0 0,0 -0.4881895586326432,-0.27720677235644964 l 5.820991285973798 -10.048934171536414" fill="red" stroke="none" /><path d="M 88.8546689885994 117.79835938074946 l -6.163469963135808 9.842655487229008 a32.61319202574196,32.61319202574196 0 0,0 -0.4732301477896064,-0.30203787042882757 l 6.331981912972338 -9.735103187976376" fill="red" stroke="none" /><path d="M 87.36589467227662 116.77436683061367 l -6.9872406752764125 9.276995495967705 a32.61396477032896,32.61396477032896 0 0,0 -0.445524263930138,-0.341609007452411 l 7.1458936677000375 -9.155347146687927" fill="red" stroke="none" /><path d="M 87.07902340077011 116.55440617244103 l -7.151123703984989 9.162047889800707 a32.62246496078597,32.62246496078597 0 0,0 -0.43969258458290444,-0.34931838148746236 l 7.307773781285251 -9.037595594308115" fill="red" stroke="none" /><path d="M 86.79598089348748 116.32954008644616 l -7.3012144949551905 9.02948366049454 a32.612032908861465,32.612032908861465 0 0,0 -0.43347583589270855,-0.35672110205503493 l 7.455560459392587 -8.902467439582324" fill="red" stroke="none" /><path d="M 86.24171649860922 115.8653595955263 l -8.21243493786099 9.470166349665446 a33.53507631803395,33.53507631803395 0 0,0 -0.4328542324697283,-0.38194353305589906 l 8.374231523237306 -9.327399674837258" fill="red" stroke="none" /><path d="M 85.44109423537348 115.13401014063109 l -9.407942506794711 9.779574069793282 a34.57016769232156,34.57016769232156 0 0,0 -0.4252954509375264,-0.41624111156919114 l 9.574887910108032 -9.61618285530152" fill="red" stroke="none" /><path d="M 84.43433777217949 114.09645910891817 l -14.387829064177623 13.02979861061026 a40.41095765316733,40.41095765316733 0 0,0 -0.46249600234164395,-0.5196191615172995 l 14.609983916167605 -12.780205279352096" fill="red" stroke="none" /><path d="M 83.50135304334701 112.99209946851258 l -9.142419385545546 7.199331093751803 a32.63676073564549,32.63676073564549 0 0,0 -0.34376328489570473,-0.44436038548483775 l 9.264989487659319 -7.0408927141537125" fill="red" stroke="none" /><path d="M 83.06392112726016 112.41649034213515 l -12.481509945249826 9.150674654680966 a36.47652858845261,36.47652858845261 0 0,0 -0.36688475913666907,-0.5095708417929917 l 12.637174496762102 -8.934470207436837" fill="red" stroke="none" /><path d="M 82.6465618267979 111.8261652097733 l -16.08055568418941 10.958710676703449 a40.45964056214838,40.45964056214838 0 0,0 -0.3872505766280893,-0.5788870692107828 l 16.26680936622823 -10.680286693286845" fill="red" stroke="none" /><path d="M 82.05923443525364 110.91462005526583 l -12.13133596503978 7.380338500235163 a35.19995453072724,35.19995453072724 0 0,0 -0.310462131125874,-0.5203523895153839 l 12.256578971863886 -7.1704240168336675" fill="red" stroke="none" /><line stroke="#e1ed5e" stroke-width="0.3" x1="26.63291911575756" x2="22.317208475507996" y1="142.92168965132927" y2="145.44649492493687" /><path d="M 25.769776987707644 143.4266507060508 a86.0,86.0 0 0,1 -11.730757126820373,-40.83630448921669" fill="none" id="id45" stroke="none" /><text fill="#e1ed5e" style="font-size:6.75px; font-family:Arial;" text-anchor="middle"><textPath startOffset="21.46611528233685" xlink:href="#id45">September</textPath></text><path d="M 80.73074385275274 108.34839909993369 l -12.535787024303174 5.431125743045535 a34.66173792588116,34.66173792588116 0 0,0 -0.23247960842998933,-0.5495131209623466 l 12.627417613925468 -5.21453809641703" fill="red" stroke="none" /><path d="M 80.32549172779594 107.34259656027581 l -18.11879691499941 6.761999540916954 a40.33947877886975,40.33947877886975 0 0,0 -0.23718795013738142,-0.6526393706069517 l 18.23250912614202 -6.449112373303886" fill="red" stroke="none" /><path d="M 79.67330655649465 105.27499134158121 l -18.722778073130858 4.8587583858931955 a40.34295612951126,40.34295612951126 0 0,0 -0.16865024266961456,-0.6736738852872355 l 18.80363963009553 -4.535756661208568" fill="red" stroke="none" /><path d="M 79.10278846688536 102.07522291339032 l -19.249047339107094 1.9115499709494541 a40.34372887409826,40.34372887409826 0 0,0 -0.06267764010503184,-0.6916425357155226 l 19.2790995754892 -1.5799260466853655" fill="red" stroke="none" /><path d="M 79.04373962182676 101.35467743843564 l -19.313078187144217 1.2484570631751437 a40.35338818143577,40.35338818143577 0 0,0 -0.03884234424756051,-0.6935561493512118 l 19.33170688227931 -0.9158291974884943" fill="red" stroke="none" /><line stroke="#e1ed5e" stroke-width="0.3" x1="15.007084014347285" x2="10.007500721073583" y1="101.09737516637583" y2="101.16192664675087" /><path d="M 14.007167355692545 101.11028546245083 a86.0,86.0 0 0,1 10.666146001902534,-42.60595125391555" fill="none" id="id46" stroke="none" /><text fill="#e1ed5e" style="font-size:6.75px; font-family:Arial;" text-anchor="middle"><textPath startOffset="22.20632615414155" xlink:href="#id46">October</textPath></text><path d="M 79.00486145842228 99.54816195383935 l -16.892921555942248 -0.3635539081900463 a37.896833139360126,37.896833139360126 0 0,0 0.01964915706594232,-0.6520598633954562 l 16.884160704420662 0.6542839190104969" fill="red" stroke="none" /><path d="M 79.12142395522702 97.74499172005258 l -19.208065061048675 -2.0745833270213585 a40.319773791901234,40.319773791901234 0 0,0 0.08046607079017752,-0.6893841547289177 l 19.169508637254907 2.404911220075138" fill="red" stroke="none" /><path d="M 79.3925641242962 95.95851677861259 l -18.99046759522638 -3.724367098135519 a40.35222906455527,40.35222906455527 0 0,0 0.13954320409844873,-0.6804622209442721 l 18.923545095212937 4.050704975243193" fill="red" stroke="none" /><path d="M 79.54389044137918 95.25157060432595 l -13.339143462485238 -3.0963845177337155 a34.6938068262417,34.6938068262417 0 0,0 0.1400427072834637,-0.5805674327951126 l 13.283867954940959 3.325537182188225" fill="red" stroke="none" /><path d="M 79.81627453868168 94.20196356495316 l -19.486054188869133 -5.597621330060491 a41.27411335684726,41.27411335684726 0 0,0 0.20203502166794418,-0.6811616560750196 l 19.38681327008948 5.93221237288205" fill="red" stroke="none" /><path d="M 80.02781315780177 93.51064311812611 l -10.842697912971595 -3.5230061122278955 a32.40068726431673,32.40068726431673 0 0,0 0.1769119278752869,-0.5289441465719018 l 10.780448691324535 3.7091233617221193" fill="red" stroke="none" /><path d="M 80.65960295795068 91.81776055985345 l -10.698974792334953 -4.526358653581227 a32.61705574867696,32.61705574867696 0 0,0 0.22320828231733694,-0.5151954901382251 l 10.619475800174936 4.709853288306051" fill="red" stroke="none" /><line stroke="#e1ed5e" stroke-width="0.3" x1="26.266209847984243" x2="21.928928074336255" y1="57.711370442889674" y2="55.22380399835377" /><path d="M 25.398753493254645 57.213857153982495 a86.0,86.0 0 0,1 29.58750427330803,-30.492523968695096" fill="none" id="id47" stroke="none" /><text fill="#e1ed5e" style="font-size:6.75px; font-family:Arial;" text-anchor="middle"><textPath startOffset="21.46611528233685" xlink:href="#id47">November</textPath></text><path d="M 81.78341655067845 89.55222093294921 l -8.639782869011956 -4.955185084725039 a30.95990498185369,30.95990498185369 0 0,0 0.26911576827406575,-0.4600060831383648 l 8.553207426267566 5.103170580217295" fill="red" stroke="none" /><path d="M 82.95767976084542 87.72973835380427 l -15.68753061712443 -11.294829727033227 a40.33059221611924,40.33059221611924 0 0,0 0.410483591240539,-0.5598991571413618 l 15.490784413370257 11.56319132784609" fill="red" stroke="none" /><path d="M 85.31137513191541 84.99185889309783 l -14.537899402154663 -14.854136965507363 a41.7845111565613,41.7845111565613 0 0,0 0.518360253035604,-0.4986621527239554 l 14.28005590550663 15.102182204993632" fill="red" stroke="none" /><path d="M 87.80319425747018 82.90503203632743 l -28.494963879767273 -39.938366235682246 a70.06155382868265,70.06155382868265 0 0,0 0.9877640190979102,-0.6919918192180339 l 27.8032687210857 40.42294289766422" fill="red" stroke="none" /><line stroke="#e1ed5e" stroke-width="0.3" x1="56.762969772571076" x2="54.21961505331055" y1="26.818313649435495" y2="22.513508569990535" /><path d="M 56.25429882871897 25.957352633546506 a86.0,86.0 0 0,1 42.265352541879196,-11.944610805530505" fill="none" id="id48" stroke="none" /><text fill="#e1ed5e" style="font-size:6.75px; font-family:Arial;" text-anchor="middle"><textPath startOffset="22.20632615414155" xlink:href="#id48">December</textPath></text><path d="M 89.94658935756843 81.56283822128135 l -8.588503442412454 -15.750637573334181 a38.94003833181125,38.94003833181125 0 0,0 0.5912487671655088,-0.31582461517832305 l 8.31610962871864 15.896140915014254" fill="red" stroke="none" /><path d="M 91.23893434514133 80.91482961587045 l -8.043322056794514 -17.52163240817842 a40.27959107337719,40.27959107337719 0 0,0 0.63261568556409,-0.28383621780798707 l 7.740524252763649 17.657488956502938" fill="red" stroke="none" /><path d="M 93.25333710446033 80.11325718540243 l -5.590180860268871 -16.477848497328885 a38.400276237791175,38.400276237791175 0 0,0 0.6277844982414447,-0.2069706787986772 l 5.3057135397850175 16.571632900386795" fill="red" stroke="none" /><path d="M 95.33964822691252 79.52364482259891 l -0.9529624164525594 -4.187065238869194 a25.294141669963608,25.294141669963608 0 0,0 0.42537191271615515,-0.09296982448438215 l 0.8807477795828833 4.202848561449445" fill="red" stroke="none" /><path d="M 98.19473922651362 79.07773832637324 l -1.760297642937011 -20.401156691545648 a41.476958810934974,41.476958810934974 0 0,0 0.7118429938512066,-0.055252716569326614 l 1.40886445972347 20.42843467030344" fill="red" stroke="none" /></svg>