<?xml version="1.0" encoding="utf-8" ?>
<svg baseProfile="full" height="200mm" version="1.1" viewBox="0,0,200,200" width="200mm" xmlns="http://www.w3.org/2000/svg" xmlns:ev="http://www.w3.org/2001/xml-events" xmlns:xlink="http://www.w3.org/1999/xlink"><defs /><rect fill="#1a1a1a" height="200" width="200" x="0" y="0" /><text alignment-baseline="middle" fill="#e1ed5e" style="dominant-baseline: central; font-size:9.0px; font-family:Arial;" text-anchor="middle" x="100.0" y="100.0">2022</text><line stroke="#e1ed5e" stroke-width="0.3" x1="100.0" x2="100.0" y1="15.0" y2="10.0" /><path d="M 100.0 14.0 a86.0,86.0 0 0,1 42.46469731375804,11.215312516191453" fill="none" id="id25" stroke="none" /><text fill="#e1ed5e" style="font-size:6.75px; font-family:Arial;" text-anchor="middle"><textPath startOffset="22.20632615414155" xlink:href="#id25">January</textPath></text><path d="M 103.59715602781102 79.31037775812273 l 0.49490130014687694 -2.8465045352185405 a23.88920670183128,23.88920670183128 0 0,0 0.4045294502929753,0.07392517135386747 l -0.5438258715427531 2.837563882513934" fill="#ff1502" stroke="none" /><line stroke="#e1ed5e" stroke-width="0.3" x1="143.23703022742887" x2="145.7803849466894" y1="26.81831364943548" y2="22.513508569990506" /><path d="M 143.74570117128098 25.957352633546492 a86.0,86.0 0 0,1 28.547481713284135,27.462654790039103" fill="none" id="id26" stroke="none" /><text fill="#e1ed5e" style="font-size:6.75px; font-family:Arial;" text-anchor="middle"><textPath startOffset="19.985693538727396" xlink:href="#id26">February</textPath></text><path d="M 114.68862486808459 84.99185889309783 l 3.3131296801076298 -3.3851989679824284 a25.73670775223038,25.73670775223038 0 0,0 0.31394395941321723,0.3125957842804351 l -3.3709094396881696 3.3276673330518745" fill="#ff2f04" stroke="none" /><path d="M 116.82858285166822 87.43820079747576 l 3.397800587480919 -2.5363091524918944 a25.24003690423796,25.24003690423796 0 0,0 0.2568923594272133,0.3504008895572787 l -3.440955559421759 2.4774458192631217" fill="#ff2803" stroke="none" /><line stroke="#e1ed5e" stroke-width="0.3" x1="172.23445277983987" x2="176.4835382374775" y1="55.19839476539836" y2="52.563006222186495" /><path d="M 173.08426987136738 54.67131705675599 a86.0,86.0 0 0,1 12.851231095245387,41.99856678651699" fill="none" id="id27" stroke="none" /><text fill="#e1ed5e" style="font-size:6.75px; font-family:Arial;" text-anchor="middle"><textPath startOffset="22.20632615414155" xlink:href="#id27">March</textPath></text><path d="M 118.03404312379186 89.2402003453031 l 12.325411274619372 -7.353811625396743 a35.35250182060029,35.35250182060029 0 0,0 0.3072979614581297,0.5252718282296994 l -12.450168910547827 7.140560384813147" fill="#ffb310" stroke="none" /><path d="M 118.89224826269711 90.83032412892265 l 4.324398516344357 -2.098920794437225 a25.80685874865096,25.80685874865096 0 0,0 0.19053057103150098,0.40130597394596407 l -4.359887281217615 2.024172404850721" fill="#ff3004" stroke="none" /><path d="M 119.34039704204932 91.81776055985345 l 1.874238491701332 -0.7929241614687376 a23.035067234667146,23.035067234667146 0 0,0 0.15134951045249517,0.36650484449620013 l -1.8876096890400245 0.7605447465192343" fill="#ff0801" stroke="none" /><path d="M 119.7369772167798 92.82701384747503 l 2.715621661727058 -0.9869351502571757 a23.88940166824455,23.88940166824455 0 0,0 0.13713303678113697,0.3876935615136065 l -2.7322077793180046 0.9400439623169548" fill="#ff1502" stroke="none" /><path d="M 119.85752413597 93.16781622104841 l 41.27522105257174 -14.201160921023675 a64.64993521694473,64.64993521694473 0 0,0 0.35299697759307763,1.0554160326999322 l -41.513555323936586 13.48857178540143" fill="#35ff63" stroke="none" /><path d="M 119.97218684219823 93.5106431181261 l 59.91656052659467 -19.46807064562169 a84.0,84.0 0 0,0 0.4349780649271753,1.3789993342943234 l -60.24279407529006 18.433821144900946" fill="#4dd2ff" stroke="none" /><path d="M 120.73433829027371 96.67025291283417 l 12.699051454362865 -2.039352739304397 a33.861759888750214,33.861759888750214 0 0,0 0.08746671008277178,0.5762963352478817 l -12.732274057884936 1.8204572916644333" fill="#ff9f0e" stroke="none" /><path d="M 120.83666639777658 97.38593545837742 l 23.773255521745334 -2.9824744089082746 a44.9596083378253,44.9596083378253 0 0,0 0.08972577688262662,0.7687156617218255 l -23.82107165163155 2.572815008861596" fill="#d4ff1c" stroke="none" /><path d="M 120.94382443527127 98.46500227214037 l 2.9656553750728047 -0.21735639908655024 a23.973609861417952,23.973609861417952 0 0,0 0.026621448259951563,0.4118220216495511 l -2.9689574143371718 0.16627531318396385" fill="#ff1602" stroke="none" /><line stroke="#e1ed5e" stroke-width="0.3" x1="184.98032266829074" x2="189.97916517819016" y1="98.17113171792111" y2="98.06355123074" /><path d="M 185.9800911702706 98.14961562048488 a86.0,86.0 0 0,1 -9.607161424134198,41.387399972396054" fill="none" id="id28" stroke="none" /><text fill="#e1ed5e" style="font-size:6.75px; font-family:Arial;" text-anchor="middle"><textPath startOffset="21.466115282336823" xlink:href="#id28">April</textPath></text><path d="M 120.99824983174949 100.27111621757518 l 11.556294175974049 0.14920761450504125 a32.557257373351085,32.557257373351085 0 0,0 -0.012058490809428741,0.5603106849843551 l -11.552013622479613 -0.34810811527951124" fill="#ff8e0d" stroke="none" /><path d="M 120.9764740272857 100.99374915477107 l 12.427036914373367 0.5887241780436309 a33.44097434403799,33.44097434403799 0 0,0 -0.032188767684262806,0.5747520701935607 l -12.415061795801575 -0.8025479645726148" fill="#ff9a0e" stroke="none" /><path d="M 120.70491114924044 103.5080841355445 l 4.724623227617229 0.8005045600901834 a25.791959118530272,25.791959118530272 0 0,0 -0.07793293167204515,0.4370892681971578 l -4.710143853605995 -0.8817125790205596" fill="#ff3004" stroke="none" /><path d="M 120.32669344350535 105.2749913415812 l 3.442264547194481 0.893303956806833 a24.55628699237263,24.55628699237263 0 0,0 -0.10969869145989858,0.408229639837173 l -3.426377779392805 -0.9524245298195543" fill="#ff1e03" stroke="none" /><path d="M 120.13307415673323 105.97154293290107 l 4.708707981973763 1.3966198929161824 a25.91146393499867,25.91146393499867 0 0,0 -0.13051138902360726,0.42651877066757987 l -4.683969820444023 -1.4774656361358194" fill="#ff3204" stroke="none" /><path d="M 120.02730092923936 106.31721596034902 l 4.590159503372416 1.4478750270795109 a25.81309737699546,25.81309737699546 0 0,0 -0.13731061915631346,0.42259863205672993 l -4.564556633199855 -1.526672559114036" fill="#ff3004" stroke="none" /><path d="M 119.9155931802556 106.66101706037122 l 2.906287146558552 0.9720437694397439 a24.064534886072938,24.064534886072938 0 0,0 -0.13477190246136536,0.39171023388188303 l -2.8891244131539557 -1.0219267064109274" fill="#ff1702" stroke="none" /><path d="M 119.54520255179757 107.68017299344265 l 2.851440250022346 1.12045676388362 a24.063679953777818,24.063679953777818 0 0,0 -0.15480667871915116,0.38421748097761516 l -2.8317309570458025 -1.1693736127040486" fill="#ff1702" stroke="none" /><path d="M 119.12269723197855 108.67885076344098 l 18.38571966525911 8.344372931157695 a41.190672282609434,41.190672282609434 0 0,0 -0.29858408908786477,0.6431235646077008 l -18.239360959331414 -8.659616563044226" fill="#fffc17" stroke="none" /><line stroke="#e1ed5e" stroke-width="0.3" x1="174.80103733775053" x2="179.2010983576182" y1="140.37084112569926" y2="142.7455964860345" /><path d="M 175.68104954172406 140.8457921977663 a86.0,86.0 0 0,1 -30.038265399797805,32.042727171017184" fill="none" id="id29" stroke="none" /><text fill="#e1ed5e" style="font-size:6.75px; font-family:Arial;" text-anchor="middle"><textPath startOffset="22.206326154141568" xlink:href="#id29">May</textPath></text><path d="M 117.55443506779139 111.5257021239791 l 3.997425394713619 2.624586560853391 a25.782035591849308,25.782035591849308 0 0,0 -0.24676709953104634,0.368883331999179 l -3.9516551897718517 -2.693006807058377" fill="#ff3004" stroke="none" /><path d="M 115.32070863581623 114.36230785411682 l 3.5461465228793063 3.324314120714632 a25.860680974401806,25.860680974401806 0 0,0 -0.30724145142818604,0.3221414334873175 l -3.4883985200721557 -3.3848626707844565" fill="#ff3104" stroke="none" /><path d="M 113.75828350139079 115.86535959552629 l 3.301315728153257 3.8069110263808352 a26.038973814154232,26.038973814154232 0 0,0 -0.34115336432286053,0.29073829824012065 l -3.2352968872533494 -3.8631737148439025" fill="#ff3404" stroke="none" /><path d="M 112.63410532772338 116.77436683061366 l 3.1635076513431413 4.200205431138765 a26.25827978752312,26.25827978752312 0 0,0 -0.36338336939088794,0.2688223294059563 l -3.0907393115336887 -4.25403770928449" fill="#ff3705" stroke="none" /><path d="M 112.04921762599082 117.19931262002967 l 2.823194810744062 4.029889047110619 a25.920410010500582,25.920410010500582 0 0,0 -0.36762931758950934,0.2528587968611553 l -2.7534086085316694 -4.077888633336869" fill="#ff3204" stroke="none" /><path d="M 111.1453310114006 117.79835938074945 l 1.9430140960782663 3.1028655074029206 a24.661021460547538,24.661021460547538 0 0,0 -0.3617194076554456,0.22219760381564138 l -1.8893154884905121 -3.1358515780469403" fill="#ff2003" stroke="none" /><line stroke="#e1ed5e" stroke-width="0.3" x1="143.8653032363475" x2="146.44561519142675" y1="172.8068346515853" y2="177.08958963109032" /><path d="M 144.38136562736335 173.6633856474863 a86.0,86.0 0 0,1 -40.68145358897372,12.25698825130547" fill="none" id="id30" stroke="none" /><text fill="#e1ed5e" style="font-size:6.75px; font-family:Arial;" text-anchor="middle"><textPath startOffset="21.466115282336833" xlink:href="#id30">June</textPath></text><path d="M 110.5260780823613 118.17145234162733 l 2.746720244599816 4.74173720069269 a26.479830634474702,26.479830634474702 0 0,0 -0.3963794005554728,0.22507456850229282 l -2.664692077123144 -4.788314934989611" fill="#ff3a05" stroke="none" /><path d="M 109.89434966115114 118.52300852407294 l 2.276846981929763 4.2624384116811225 a25.83243348557405,25.83243348557405 0 0,0 -0.39401730739564556,0.20613123282140947 l -2.203138772007622 -4.300999063447249" fill="#ff3104" stroke="none" /><path d="M 109.2508944713604 118.85261126421891 l 2.296194227524565 4.679467190192487 a26.212477444997255,26.212477444997255 0 0,0 -0.4067768733168682,0.195277618981979 l -2.215304686207464 -4.718299085674027" fill="#ff3605" stroke="none" /><path d="M 108.92500713936063 119.00905698771935 l 1.308649984776935 2.787247309629032 a24.07917397165067,24.07917397165067 0 0,0 -0.37670377548435147,0.17292622717143522 l -1.260478213525164 -2.8093606071345416" fill="#ff1702" stroke="none" /><path d="M 108.59647513512805 119.15986991738527 l 2.222800397417995 4.954189455258245 a26.42999399312316,26.42999399312316 0 0,0 -0.41668688476394455,0.182663284981753 l -2.1371928379962966 -4.991717293534452" fill="#ff3905" stroke="none" /><path d="M 107.59598834532513 119.57807347666477 l 1.746712523701801 4.502016666822662 a25.82899147947123,25.82899147947123 0 0,0 -0.4158833898542072,0.15725151231577703 l -1.668958913087319 -4.53141642924507" fill="#ff3104" stroke="none" /><path d="M 106.57524785965236 119.94407469862006 l 1.5046252815886345 4.563836930555272 a25.805466134174274,25.805466134174274 0 0,0 -0.42306053190356235,0.13545062250425605 l -1.4258434045941317 -4.5890603997192345" fill="#ff3004" stroke="none" /><path d="M 105.88484417918355 120.15858648285463 l 0.8216432836257215 2.814546432616623 a23.93202477937725,23.93202477937725 0 0,0 -0.39643835737588545,0.11203743971014478 l -0.7730737581452303 -2.8282726656652866" fill="#ff1502" stroke="none" /><path d="M 105.18746579009965 120.34920634021253 l 1.0134170646197036 3.9753964249743365 a25.102534689988758,25.102534689988758 0 0,0 -0.4196267784542928,0.10313405267526868 l -0.9448370014221996 -3.9922517359636354" fill="#ff2603" stroke="none" /><path d="M 104.48393922423573 120.51570834832081 l 1.0172755804907556 4.654418375345919 a25.764290085565797,25.764290085565797 0 0,0 -0.43407742011826667,0.09096514384148449 l -0.9370066989431111 -4.671239499913945" fill="#ff3004" stroke="none" /><path d="M 103.41894727170886 120.7198165907248 l 0.4676151460230168 2.8338840264708702 a23.87220518074125,23.87220518074125 0 0,0 -0.40601407367332054,0.06341104820661608 l -0.41876520874117906 -2.8415133820245924" fill="#ff1402" stroke="none" /><path d="M 101.26447882468166 120.96189622390904 l 0.2385683655719999 3.9548667987277963 a24.962055812420004,24.962055812420004 0 0,0 -0.42912380881963214,0.0221807992891647 l -0.17045648833888818 -3.9583874047791627" fill="#ff2403" stroke="none" /><line stroke="#e1ed5e" stroke-width="0.3" x1="102.19456741930631" x2="102.32365962044197" y1="184.97166512339345" y2="189.96999836594603" /><path d="M 102.22038585953345 185.97133177190398 a86.0,86.0 0 0,1 -42.740103519485714,-10.115201625700543" fill="none" id="id31" stroke="none" /><text fill="#e1ed5e" style="font-size:6.75px; font-family:Arial;" text-anchor="middle"><textPath startOffset="22.20632615414155" xlink:href="#id31">July</textPath></text><path d="M 100.54218724476979 120.99299961872073 l 0.09909771460076405 3.8369738589354454 a24.838253346405505,24.838253346405505 0 0,0 -0.42750219009758494,0.007359837894952231 l -0.03303583461051116 -3.8381111741095575" fill="#ff2203" stroke="none" /><path d="M 100.18074693466247 120.99922214144158 l 0.041315834835649434 4.800083582568746 a25.800261388492732,25.800261388492732 0 0,0 -0.44412553899620644,0.0 l 0.041315834835646124 -4.800083582568746" fill="#ff3004" stroke="none" /><path d="M 99.45781275523022 120.99299961872073 l -0.08227608213052531 3.185655467659249 a24.186717764772716,24.186717764772716 0 0,0 -0.41610328039055955,-0.014331438312297395 l 0.1370997141957279 -3.1837672309208576" fill="#ff1902" stroke="none" /><path d="M 98.73552117531835 120.96189622390904 l -0.21134040239440519 3.503495271283836 a24.509863798154058,24.509863798154058 0 0,0 -0.4209128387547965,-0.0290286137304982 l 0.27161600192813173 -3.4993383130370526" fill="#ff1e03" stroke="none" /><path d="M 98.01472825383883 120.90594882070398 l -0.4183329433105419 4.405264478163093 a25.4250827759517,25.4250827759517 0 0,0 -0.43533480927794316,-0.04512423295829904 l 0.49410034919407836 -4.397410876749033" fill="#ff2b04" stroke="none" /><path d="M 96.93821686468263 120.77559828337769 l -0.3179245630501054 2.1572635011795955 a23.180564569397625,23.180564569397625 0 0,0 -0.3942507774045671,-0.06157386325384323 l 0.35501120406318964 -2.1514713305786466" fill="#ff0a01" stroke="none" /><path d="M 94.46302465271185 120.25689768951611 l -1.1584256988508135 4.238073928579102 a25.393543071811166,25.393543071811166 0 0,0 -0.42064867457505356,-0.11887951718095174 l 1.231205541530481 -4.217505618059628" fill="#ff2a04" stroke="none" /><path d="M 92.7421414339146 119.70592522655815 l -1.208367412232697 3.280857246645182 a24.49630892167871,24.49630892167871 0 0,0 -0.39442531085119686,-0.1491379029316722 l 1.2646629438441768 -3.259571093606877" fill="#ff1d03" stroke="none" /><path d="M 91.7346041902142 119.30500536409082 l -1.726252912813286 4.031908756527117 a25.3859135125942,25.3859135125942 0 0,0 -0.4002262437593603,-0.1754474236989886 l 1.7953998312303894 -4.001596779533676" fill="#ff2a04" stroke="none" /><path d="M 91.07499286063937 119.00905698771935 l -2.0207204504284073 4.303861005224389 a25.754632550583764,25.754632550583764 0 0,0 -0.39967183278780305,-0.19186676775542846 l 2.0945049512164524 -4.268439960969398" fill="#ff2f04" stroke="none" /><path d="M 90.10565033884886 118.52300852407294 l -1.6586312153909772 3.105089388705325 a24.520317829475026,24.520317829475026 0 0,0 -0.37058045356219155,-0.20207001058154006 l 1.7118344808218093 -3.0760787263640186" fill="#ff1e03" stroke="none" /><line stroke="#e1ed5e" stroke-width="0.3" x1="58.666819895761336" x2="56.23545636021788" y1="174.27360380694188" y2="178.64263932499728" /><path d="M 58.180547188652646 175.14741091055294 a86.0,86.0 0 0,1 -31.652253787137756,-30.449443065178592" fill="none" id="id32" stroke="none" /><text fill="#e1ed5e" style="font-size:6.75px; font-family:Arial;" text-anchor="middle"><textPath startOffset="22.20632615414155" xlink:href="#id32">August</textPath></text><path d="M 89.1626897886671 117.98757091392108 l -1.703015597706391 2.826634398563531 a24.30001881042728,24.30001881042728 0 0,0 -0.35642434455465516,-0.21894494358191413 l 1.751419142193355 -2.7969009881532387" fill="#ff1b02" stroke="none" /><path d="M 87.65650970185807 116.9893568818739 l -2.2654810115631774 3.118167105486304 a24.85426650758483,24.85426650758483 0 0,0 -0.3439534950631739,-0.2544485728810077 l 2.3188194770449155 -3.0787085838655295" fill="#ff2303" stroke="none" /><path d="M 87.07902340077011 116.55440617244103 l -2.335846034046749 2.9926951501638146 a24.796366810068008,24.796366810068008 0 0,0 -0.3342107539724635,-0.2655172357844322 l 2.3870142807365706 -2.9520440003742516" fill="#ff2203" stroke="none" /><path d="M 86.51685102203217 116.09983520530335 l -2.7718725862665172 3.3098122643242487 a25.317190621175655,25.317190621175655 0 0,0 -0.33169681790309413,-0.28267922422580644 l 2.8284348807466677 -3.2616086498754906" fill="#ff2904" stroke="none" /><path d="M 85.97065885151581 115.62618273729859 l -2.310973623740524 2.5740122621188264 a24.45921063469146,24.45921063469146 0 0,0 -0.3108654446706786,-0.28396821315811066 l 2.3549386178780574 -2.53385128237414" fill="#ff1d02" stroke="none" /><path d="M 85.18274418774928 114.88116024355367 l -2.258004563050775 2.2677429720591347 a24.200194180683685,24.200194180683685 0 0,0 -0.29266029465053095,-0.29646333335688946 l 2.296705482756839 -2.2285391447215805" fill="#ff1902" stroke="none" /><path d="M 84.43433777217949 114.09645910891817 l -3.061824348159862 2.772826564704975 a25.13077904237423,25.13077904237423 0 0,0 -0.2876171592513168,-0.32314092742742817 l 3.109100357059517 -2.7197114675366825" fill="#ff2703" stroke="none" /><path d="M 83.95833913139862 113.55231037782056 l -2.6498010439071216 2.2386039999630776 a24.46883171124544,24.46883171124544 0 0,0 -0.2690452914313551,-0.32408238533622585 l 2.6879423352320133 -2.1926603575130907" fill="#ff1d02" stroke="none" /><path d="M 83.50135304334701 112.99209946851258 l -3.727016674984464 2.9348934788059924 a25.74386477753637,25.74386477753637 0 0,0 -0.2711603517738539,-0.35051130745097053 l 3.7769838439763865 -2.8703041772417692" fill="#ff2f04" stroke="none" /><path d="M 83.06392112726016 112.41649034213515 l -3.2030457711712903 2.34827596056957 a24.971637218982522,24.971637218982522 0 0,0 -0.2511673522911665,-0.3488494846150033 l 3.2429929158380646 -2.292792870503429" fill="#ff2403" stroke="none" /><path d="M 82.6465618267979 111.8261652097733 l -3.817158572997238 2.601348935329629 a25.619276551013904,25.619276551013904 0 0,0 -0.2452092870655947,-0.3665546137300996 l 3.8613709654735633 -2.5352574073937086" fill="#ff2e04" stroke="none" /><path d="M 82.05923443525364 110.91462005526583 l -2.7331142474559056 1.662744182847625 a24.199161094293327,24.199161094293327 0 0,0 -0.21343559174868698,-0.3577303285631002 l 2.7613307149028246 -1.6154517603984138" fill="#ff1902" stroke="none" /><line stroke="#e1ed5e" stroke-width="0.3" x1="26.63291911575756" x2="22.317208475507996" y1="142.92168965132927" y2="145.44649492493687" /><path d="M 25.769776987707644 143.4266507060508 a86.0,86.0 0 0,1 -11.730757126820373,-40.83630448921669" fill="none" id="id33" stroke="none" /><text fill="#e1ed5e" style="font-size:6.75px; font-family:Arial;" text-anchor="middle"><textPath startOffset="21.46611528233685" xlink:href="#id33">September</textPath></text><path d="M 81.02952815118164 109.00673069616217 l -4.642555916081392 2.204175584627014 a26.139232962398978,26.139232962398978 0 0,0 -0.18947879777210555,-0.4081204735759258 l 4.679809330693325 -2.1239350437722613" fill="#ff3505" stroke="none" /><path d="M 80.73074385275274 108.34839909993369 l -3.1265229947511015 1.3545650935275382 a24.40734392589164,24.40734392589164 0 0,0 -0.16370240207922634,-0.38694412160746056 l 3.1493763780226343 -1.300546446253919" fill="#ff1c02" stroke="none" /><path d="M 80.45479744820244 107.68017299344265 l -4.628993785244192 1.8189360259649323 a25.97354116604884,25.97354116604884 0 0,0 -0.1599298786658854,-0.4175264468355671 l 4.659617943503586 -1.7389860122962073" fill="#ff3304" stroke="none" /><path d="M 79.86692584326677 105.97154293290107 l -2.5459931934229836 0.7551508300740382 a23.655623112777427,23.655623112777427 0 0,0 -0.1124288269382117,-0.39137949584834364 l 2.558614657247299 -0.7112138587210984" fill="#ff1101" stroke="none" /><path d="M 79.67330655649465 105.27499134158121 l -3.845532940919042 0.997956358396041 a24.97291335079895,24.97291335079895 0 0,0 -0.10439710672809648,-0.4170145467269708 l 3.8621413619421974 -0.9316139722716784" fill="#ff2403" stroke="none" /><path d="M 79.58551787078972 104.9243191809786 l -4.384907145490016 1.0577139418320334 a25.510672838647828,25.510672838647828 0 0,0 -0.0992965695505634,-0.427767022791158 l 4.402464280971134 -0.9820782616923012" fill="#ff2c04" stroke="none" /><path d="M 79.4281124754447 104.21870165774334 l -4.774107893762609 0.9790320339648694 a25.87345974691654,25.87345974691654 0 0,0 -0.08571515851163714,-0.4370597465942129 l 4.7902529852499125 -0.8967085603027016" fill="#ff3104" stroke="none" /><path d="M 79.29508885075956 103.50808413554451 l -5.087137195600834 0.8619261953162431 a26.159639678605267,26.159639678605267 0 0,0 -0.07140117394849627,-0.4446151783350364 l 5.101220123910622 -0.7742317872879931" fill="#ff3505" stroke="none" /><path d="M 79.18660465613746 102.79330883721812 l -5.005794659897779 0.67181400390374 a26.05067463146284,26.05067463146284 0 0,0 -0.05582100197701185,-0.4449483085305298 l 5.016617171121639 -0.5855479410858017" fill="#ff3404" stroke="none" /><path d="M 79.10278846688536 102.07522291339032 l -4.871322161354718 0.4837525500342496 a25.895283048953374,25.895283048953374 0 0,0 -0.04023066971388149,-0.4439420879250498 l 4.878927427345674 -0.39982907356063363" fill="#ff3104" stroke="none" /><path d="M 79.0235259727143 100.99374915477108 l -4.7487825083037905 0.22497101265351283 a25.75410846192074,25.75410846192074 0 0,0 -0.01716678994217763,-0.4429985694911967 l 4.751951431097169 -0.14319519614831933" fill="#ff2f04" stroke="none" /><line stroke="#e1ed5e" stroke-width="0.3" x1="15.007084014347285" x2="10.007500721073583" y1="101.09737516637583" y2="101.16192664675087" /><path d="M 14.007167355692545 101.11028546245083 a86.0,86.0 0 0,1 10.666146001902534,-42.60595125391555" fill="none" id="id34" stroke="none" /><text fill="#e1ed5e" style="font-size:6.75px; font-family:Arial;" text-anchor="middle"><textPath startOffset="22.20632615414155" xlink:href="#id34">October</textPath></text><path d="M 79.00019446554 99.90962569577889 l -2.7077100089612327 -0.011652841627074965 a23.70773508330243,23.70773508330243 0 0,0 0.005268753851850369,-0.4080707921962631 l 2.7071082479916666 0.05825989188381003" fill="#ff1202" stroke="none" /><path d="M 79.03285615573316 98.82574320788736 l -4.418852879338244 -0.24747614865666442 a25.425777356961127,25.425777356961127 0 0,0 0.02823400481989081,-0.43676755789736865 l 4.41393828351394 0.32350277080704487" fill="#ff2b04" stroke="none" /><path d="M 79.12142395522702 97.74499172005258 l -4.7544268619440935 -0.5135058979643623 a25.78207727800584,25.78207727800584 0 0,0 0.051453226550257906,-0.440819823126681 l 4.744883282390246 0.5952694594159051" fill="#ff3004" stroke="none" /><path d="M 79.26566170972629 96.67025291283419 l -5.064269420269827 -0.813275838114231 a26.12915610504696,26.12915610504696 0 0,0 0.0751376712967279,-0.4434667892929992 l 5.049519887452877 0.9003284157230581" fill="#ff3505" stroke="none" /><path d="M 79.3925641242962 95.95851677861259 l -1.4571108435090918 -0.2857652481008887 a22.484868272707697,22.484868272707697 0 0,0 0.07775556977250632,-0.379163772539283 l 1.451975977821591 0.3108046768035742" fill="#ff0000" stroke="none" /><path d="M 79.46518482838121 95.60439243477599 l -1.9454360561336514 -0.4164329395971143 a22.98950693431472,22.98950693431472 0 0,0 0.0861620588469594,-0.38624761512899164 l 1.9379796102846545 0.44985872427606516" fill="#ff0701" stroke="none" /><path d="M 80.14247586403 93.16781622104843 l -4.2009067728759755 -1.4453648357169189 a25.44260027717127,25.44260027717127 0 0,0 0.1460489085524039,-0.41289993163518723 l 4.175404783513763 1.517462393778717" fill="#ff2b04" stroke="none" /><path d="M 81.26839172434947 90.50648371742162 l -3.9533369742785425 -2.0036223469727177 a25.432084807569264,25.432084807569264 0 0,0 0.2012653614328566,-0.3887806168103924 l 3.918262179685572 2.071375686043446" fill="#ff2b04" stroke="none" /><line stroke="#e1ed5e" stroke-width="0.3" x1="26.266209847984243" x2="21.928928074336255" y1="57.711370442889674" y2="55.22380399835377" /><path d="M 25.398753493254645 57.213857153982495 a86.0,86.0 0 0,1 29.58750427330803,-30.492523968695096" fill="none" id="id35" stroke="none" /><text fill="#e1ed5e" style="font-size:6.75px; font-family:Arial;" text-anchor="middle"><textPath startOffset="21.46611528233685" xlink:href="#id35">November</textPath></text><path d="M 82.34701348167596 88.62581576622439 l -3.344149439709314 -2.1547046327287624 a24.978201544594103,24.978201544594103 0 0,0 0.23598853472168874,-0.35942672862387975 l 3.306564269629705 2.211949425330309" fill="#ff2403" stroke="none" /><path d="M 82.7489923806493 88.02491185347247 l -3.661036109385227 -2.54137213807331 a25.45665319925141,25.45665319925141 0 0,0 0.2529753459387142,-0.35781568641252715 l 3.616748143642634 2.6040143248176233" fill="#ff2b04" stroke="none" /><path d="M 83.17141714833178 87.43820079747576 l -4.249601585815634 -3.1721412481534497 a26.302979703563203,26.302979703563203 0 0,0 0.27395688118886713,-0.36049514277989775 l 4.194368764402658 3.244821166814374" fill="#ff3705" stroke="none" /><path d="M 83.84228863543731 86.58626213691792 l -2.9617497029601503 -2.4587723617034616 a24.849353559970993,24.849353559970993 0 0,0 0.27605192605938944,-0.3267584091946599 l 2.918987163413637 2.5093897205272375" fill="#ff2203" stroke="none" /><path d="M 84.5562425177563 85.77008943001954 l -3.1709106865005587 -2.921683764211954 a25.311717824698547,25.311717824698547 0 0,0 0.2979944658727794,-0.3178797191298095 l 3.120148898657323 2.9758329002198134" fill="#ff2904" stroke="none" /><path d="M 85.57189188830299 84.74124197986013 l -3.756776242207078 -3.973060027819947 a26.467958825619682,26.467958825619682 0 0,0 0.33373842043173574,-0.3101734896642887 l 3.687829937980486 4.037138103558883" fill="#ff3a05" stroke="none" /><path d="M 86.10567301691215 84.25364557470407 l -3.912828656489569 -4.434384400592723 a26.913881391038043,26.913881391038043 0 0,0 0.35001656716084245,-0.3035309179213539 l 3.835918290681953 4.501080311933758" fill="#ff4006" stroke="none" /><path d="M 86.93701828274178 83.55741782278169 l -3.1866617054897373 -4.011101607398344 a26.12286530470091,26.12286530470091 0 0,0 0.35448410370452904,-0.2766804656750662 l 3.1171450466257826 4.065360462296632" fill="#ff3505" stroke="none" /><path d="M 87.51073957382395 83.11751280151077 l -2.8727428273991897 -3.8832598851466185 a25.830358028962493,25.830358028962493 0 0,0 0.35972424694422767,-0.26135496375968464 l 2.8054732641011806 3.9321340837229712" fill="#ff3104" stroke="none" /><line stroke="#e1ed5e" stroke-width="0.3" x1="56.762969772571076" x2="54.21961505331055" y1="26.818313649435495" y2="22.513508569990535" /><path d="M 56.25429882871897 25.957352633546506 a86.0,86.0 0 0,1 42.265352541879196,-11.944610805530505" fill="none" id="id36" stroke="none" /><text fill="#e1ed5e" style="font-size:6.75px; font-family:Arial;" text-anchor="middle"><textPath startOffset="22.20632615414155" xlink:href="#id36">December</textPath></text><path d="M 89.63071344664047 81.73862282372117 l -2.5713475747406003 -4.528406816805986 a26.20752308190941,26.20752308190941 0 0,0 0.39420596317445367,-0.21937519170884437 l 2.493017522494101 4.571997406075015" fill="#ff3605" stroke="none" /><path d="M 90.91171255644093 81.06846463323043 l -2.073068128025786 -4.318345213790208 a25.790168770398505,25.790168770398505 0 0,0 0.4018621502826084,-0.18867966794082422 l 1.998427766443569 4.35338986437104" fill="#ff3004" stroke="none" /><path d="M 91.56875222667455 80.76684994638697 l -2.1080026610361875 -4.8087225738276915 a26.250475027173795,26.250475027173795 0 0,0 0.41540281986903577,-0.1778538084793991 l 2.0249160833768434 4.844295910269877" fill="#ff3705" stroke="none" /><path d="M 95.33964822691252 79.52364482259891 l -1.0527806822304426 -4.625640342805193 a25.743932519109492,25.743932519109492 0 0,0 0.43293605133449015,-0.09462305220981358 l 0.9730019067424315 4.643076893110874" fill="#ff2f04" stroke="none" /></svg>