<?xml version="1.0" encoding="utf-8" ?>
<svg baseProfile="full" height="200mm" version="1.1" viewBox="0,0,200,200" width="200mm" xmlns="http://www.w3.org/2000/svg" xmlns:ev="http://www.w3.org/2001/xml-events" xmlns:xlink="http://www.w3.org/1999/xlink"><defs /><rect fill="#1a1a1a" height="200" width="200" x="0" y="0" /><text alignment-baseline="middle" fill="#e1ed5e" style="dominant-baseline: central; font-size:9.0px; font-family:Arial;" text-anchor="middle" x="100.0" y="100.0">2025</text><line stroke="#e1ed5e" stroke-width="0.3" x1="100.0" x2="100.0" y1="15.0" y2="10.0" /><path d="M 100.0 14.0 a86.0,86.0 0 0,1 42.46469731375804,11.215312516191453" fill="none" id="id61" stroke="none" /><text fill="#e1ed5e" style="font-size:6.75px; font-family:Arial;" text-anchor="middle"><textPath startOffset="22.20632615414155" xlink:href="#id61">January</textPath></text><path d="M 101.80526077348638 79.07773832637324 l 0.6647878228985159 -7.704629155189675 a28.73325631726202,28.73325631726202 0 0,0 0.4923989031170527,0.04675920899753549 l -0.7973118531058129 7.692044401676962" fill="red" stroke="none" /><path d="M 102.16513564639614 79.11191278185805 l 0.7622242404891991 -7.353537613969624 a28.392935900767394,28.392935900767394 0 0,0 0.485699426698559,0.05457398980022969 l -0.8886903706974834 7.339327670698793" fill="red" stroke="none" /><path d="M 104.66035177308747 79.52364482259891 l 1.4476756358883693 -6.360704501600683 a27.523367727135117,27.523367727135117 0 0,0 0.46105089625839335,0.10911585118733749 l -1.556950219109286 6.334842738272477" fill="red" stroke="none" /><path d="M 105.71112130821622 79.79150937346287 l 1.8745134776825856 -6.6328634953995795 a27.892653982800674,27.892653982800674 0 0,0 0.460905894556545,0.13455106949286139 l -1.9884095899625576 6.599614096988015" fill="red" stroke="none" /><line stroke="#e1ed5e" stroke-width="0.3" x1="143.23703022742887" x2="145.7803849466894" y1="26.81831364943548" y2="22.513508569990506" /><path d="M 143.74570117128098 25.957352633546492 a86.0,86.0 0 0,1 28.547481713284135,27.462654790039103" fill="none" id="id62" stroke="none" /><text fill="#e1ed5e" style="font-size:6.75px; font-family:Arial;" text-anchor="middle"><textPath startOffset="19.985693538727396" xlink:href="#id62">February</textPath></text><path d="M 111.60114157652 82.49532879139004 l 23.08082590634422 -34.82607862759288 a62.78014213827248,62.78014213827248 0 0,0 0.8956493271007849,0.6047464237508962 l -23.676879927851544 34.42362029154331" fill="red" stroke="none" /><path d="M 111.90073688211348 82.69761687909136 l 35.58905514641057 -51.74263351539493 a83.80032618802807,83.80032618802807 0 0,0 1.1814603370003716,0.8276884682249204 l -36.4744466229946 51.12236020440607" fill="red" stroke="none" /><path d="M 112.48926042617603 83.11751280151076 l 3.866391436879115 -5.226434689491525 a27.501123157323857,27.501123157323857 0 0,0 0.3781454803638889,0.2848113360321196 l -3.955783071001387 5.159106763953558" fill="red" stroke="none" /><path d="M 113.06298171725822 83.55741782278167 l 38.6311609247167 -48.62565468240743 a83.10330818631235,83.10330818631235 0 0,0 1.1123836904390525,0.8994702499013685 l -39.46244801372025 47.953478335241925" fill="red" stroke="none" /><path d="M 114.68862486808459 84.99185889309783 l 43.420637334039675 -44.36515044215094 a83.07751863798106,83.07751863798106 0 0,0 1.0134040993325126,1.0090522200712166 l -44.17787723353951 43.6111623714296" fill="red" stroke="none" /><path d="M 114.94478906791727 85.2469230424477 l 28.60978069062972 -28.242773742030213 a61.20166439103536,61.20166439103536 0 0,0 0.7336498118129761,0.7560906207123895 l -29.091694766145803 27.74611892576771" fill="red" stroke="none" /><path d="M 115.4437574822437 85.77008943001954 l 5.823050544353841 -5.365370997692784 a28.918025232656337,28.918025232656337 0 0,0 0.33414965350142883,0.36897639327424364 l -5.914543838471307 5.264341817148991" fill="red" stroke="none" /><path d="M 115.68641384162765 86.03803664274999 l 46.54521663297669 -41.42837334562208 a83.31185528833963,83.31185528833963 0 0,0 0.9442333056690336,1.0794218956108756 l -47.25144180222357 40.62103589380825" fill="red" stroke="none" /><path d="M 116.15771136456269 86.58626213691792 l 48.47313409368808 -40.241213589246215 a84.0,84.0 0 0,0 0.9140060316943646,1.1204633215675965 l -49.158638617458855 39.400866098070516" fill="red" stroke="none" /><line stroke="#e1ed5e" stroke-width="0.3" x1="172.23445277983987" x2="176.4835382374775" y1="55.19839476539836" y2="52.563006222186495" /><path d="M 173.08426987136738 54.67131705675599 a86.0,86.0 0 0,1 12.851231095245387,41.99856678651699" fill="none" id="id63" stroke="none" /><text fill="#e1ed5e" style="font-size:6.75px; font-family:Arial;" text-anchor="middle"><textPath startOffset="22.20632615414155" xlink:href="#id63">March</textPath></text><line stroke="#e1ed5e" stroke-width="0.3" x1="184.98032266829074" x2="189.97916517819016" y1="98.17113171792111" y2="98.06355123074" /><path d="M 185.9800911702706 98.14961562048488 a86.0,86.0 0 0,1 -9.607161424134198,41.387399972396054" fill="none" id="id64" stroke="none" /><text fill="#e1ed5e" style="font-size:6.75px; font-family:Arial;" text-anchor="middle"><textPath startOffset="21.466115282336823" xlink:href="#id64">April</textPath></text><line stroke="#e1ed5e" stroke-width="0.3" x1="174.80103733775053" x2="179.2010983576182" y1="140.37084112569926" y2="142.7455964860345" /><path d="M 175.68104954172406 140.8457921977663 a86.0,86.0 0 0,1 -30.038265399797805,32.042727171017184" fill="none" id="id65" stroke="none" /><text fill="#e1ed5e" style="font-size:6.75px; font-family:Arial;" text-anchor="middle"><textPath startOffset="22.206326154141568" xlink:href="#id65">May</textPath></text><line stroke="#e1ed5e" stroke-width="0.3" x1="143.8653032363475" x2="146.44561519142675" y1="172.8068346515853" y2="177.08958963109032" /><path d="M 144.38136562736335 173.6633856474863 a86.0,86.0 0 0,1 -40.68145358897372,12.25698825130547" fill="none" id="id66" stroke="none" /><text fill="#e1ed5e" style="font-size:6.75px; font-family:Arial;" text-anchor="middle"><textPath startOffset="21.466115282336833" xlink:href="#id66">June</textPath></text><line stroke="#e1ed5e" stroke-width="0.3" x1="102.19456741930631" x2="102.32365962044197" y1="184.97166512339345" y2="189.96999836594603" /><path d="M 102.22038585953345 185.97133177190398 a86.0,86.0 0 0,1 -42.740103519485714,-10.115201625700543" fill="none" id="id67" stroke="none" /><text fill="#e1ed5e" style="font-size:6.75px; font-family:Arial;" text-anchor="middle"><textPath startOffset="22.20632615414155" xlink:href="#id67">July</textPath></text><line stroke="#e1ed5e" stroke-width="0.3" x1="58.666819895761336" x2="56.23545636021788" y1="174.27360380694188" y2="178.64263932499728" /><path d="M 58.180547188652646 175.14741091055294 a86.0,86.0 0 0,1 -31.652253787137756,-30.449443065178592" fill="none" id="id68" stroke="none" /><text fill="#e1ed5e" style="font-size:6.75px; font-family:Arial;" text-anchor="middle"><textPath startOffset="22.20632615414155" xlink:href="#id68">August</textPath></text><line stroke="#e1ed5e" stroke-width="0.3" x1="26.63291911575756" x2="22.317208475507996" y1="142.92168965132927" y2="145.44649492493687" /><path d="M 25.769776987707644 143.4266507060508 a86.0,86.0 0 0,1 -11.730757126820373,-40.83630448921669" fill="none" id="id69" stroke="none" /><text fill="#e1ed5e" style="font-size:6.75px; font-family:Arial;" text-anchor="middle"><textPath startOffset="21.46611528233685" xlink:href="#id69">September</textPath></text><line stroke="#e1ed5e" stroke-width="0.3" x1="15.007084014347285" x2="10.007500721073583" y1="101.09737516637583" y2="101.16192664675087" /><path d="M 14.007167355692545 101.11028546245083 a86.0,86.0 0 0,1 10.666146001902534,-42.60595125391555" fill="none" id="id70" stroke="none" /><text fill="#e1ed5e" style="font-size:6.75px; font-family:Arial;" text-anchor="middle"><textPath startOffset="22.20632615414155" xlink:href="#id70">October</textPath></text><line stroke="#e1ed5e" stroke-width="0.3" x1="26.266209847984243" x2="21.928928074336255" y1="57.711370442889674" y2="55.22380399835377" /><path d="M 25.398753493254645 57.213857153982495 a86.0,86.0 0 0,1 29.58750427330803,-30.492523968695096" fill="none" id="id71" stroke="none" /><text fill="#e1ed5e" style="font-size:6.75px; font-family:Arial;" text-anchor="middle"><textPath startOffset="21.46611528233685" xlink:href="#id71">November</textPath></text><line stroke="#e1ed5e" stroke-width="0.3" x1="56.762969772571076" x2="54.21961505331055" y1="26.818313649435495" y2="22.513508569990535" /><path d="M 56.25429882871897 25.957352633546506 a86.0,86.0 0 0,1 42.265352541879196,-11.944610805530505" fill="none" id="id72" stroke="none" /><text fill="#e1ed5e" style="font-size:6.75px; font-family:Arial;" text-anchor="middle"><textPath startOffset="22.20632615414155" xlink:href="#id72">December</textPath></text></svg>